<svg width="109" height="37" viewBox="0 0 109 37" fill="none" xmlns="http://www.w3.org/2000/svg">
<path d="M16.5525 19.8643C16.5901 19.8917 16.6684 19.9252 16.7446 19.9729C16.6887 19.9282 16.6114 19.8877 16.5525 19.8643Z" fill="#334DB5"/>
<path d="M24.5272 19.1842L24.5386 19.2516C24.5829 19.2363 24.5654 19.2118 24.5272 19.1842Z" fill="#334DB5"/>
<path d="M12.1766 20.5335C12.1573 20.5233 12.1583 20.5162 12.139 20.5061C12.0749 20.5183 11.9895 20.5347 11.841 20.5561L12.1766 20.5335Z" fill="#334DB5"/>
<path d="M41.2432 17.9829L41.1366 17.9962C41.1991 17.9982 41.2401 18.0044 41.2432 17.9829Z" fill="#334DB5"/>
<path d="M31.0725 18.482C31.0173 18.4299 31.0408 18.4115 31.0654 18.386C31.0019 18.3911 30.9794 18.4024 31.0725 18.482Z" fill="#334DB5"/>
<path d="M5.30446 18.8966L5.7447 19.0131C5.58816 18.9462 5.40922 18.8904 5.30446 18.8966Z" fill="#334DB5"/>
<path d="M2.9732 20.6541C2.99261 20.6638 3.03336 20.6699 3.05277 20.6795C3.03336 20.6699 3.01394 20.6602 2.9732 20.6541Z" fill="#334DB5"/>
<path d="M5.76205 20.7661C5.76514 20.7446 5.72829 20.7099 5.71296 20.6711C5.66889 20.6865 5.6238 20.709 5.76205 20.7661Z" fill="#334DB5"/>
<path d="M5.67811 20.6216C5.69667 20.639 5.69461 20.6533 5.71317 20.6706C5.71524 20.6563 5.73792 20.6451 5.67811 20.6216Z" fill="#334DB5"/>
<path d="M106.864 19.9239C107.025 19.9553 107.184 19.8627 107.341 19.7843L106.864 19.9239Z" fill="#334DB5"/>
<path d="M56.5952 17.2876L56.6272 17.3581C56.6509 17.3397 56.6333 17.3152 56.5952 17.2876Z" fill="#334DB5"/>
<path d="M107.321 18.6147L107.438 18.6684C107.402 18.6339 107.362 18.6207 107.321 18.6147Z" fill="#334DB5"/>
<path d="M6.50572 17.9125C6.30252 17.7369 6.91059 17.8421 6.59852 17.7011C6.52725 17.7632 6.12051 17.7025 6.50572 17.9125Z" fill="#334DB5"/>
<path d="M54.1978 10.9995L54.3037 10.993C54.242 10.9838 54.2204 10.988 54.1978 10.9995Z" fill="#334DB5"/>
<path d="M107.322 18.6141L107.205 18.5604C107.201 18.5888 107.218 18.6132 107.235 18.6447C107.258 18.6264 107.28 18.6152 107.322 18.6141Z" fill="#334DB5"/>
<path d="M73.5146 17.564C73.5126 17.5783 73.4913 17.5825 73.4903 17.5896L73.5146 17.564Z" fill="#334DB5"/>
<path d="M74.5928 17.8725C74.549 17.8878 74.4849 17.9 74.4412 17.9153C74.5418 17.9376 74.5663 17.9121 74.5928 17.8725Z" fill="#334DB5"/>
<path d="M107.319 19.7866L107.6 19.7122C107.516 19.7143 107.408 19.7418 107.319 19.7866Z" fill="#334DB5"/>
<path d="M84.3887 18.2542C84.3671 18.2583 84.3249 18.2595 84.3033 18.2637C84.3444 18.2698 84.366 18.2656 84.3887 18.2542Z" fill="#334DB5"/>
<path d="M30.3447 18.4709C30.305 18.4577 30.2644 18.4516 30.2237 18.4456C30.2806 18.4831 30.3182 18.5105 30.3447 18.4709Z" fill="#334DB5"/>
<path d="M29.8274 13.6999C29.9901 13.7241 29.9679 13.59 29.8816 13.4682C29.7565 13.4713 29.7076 13.5222 29.8274 13.6999Z" fill="#334DB5"/>
<path d="M30.7353 13.4619C30.7148 13.4589 30.6943 13.4558 30.6542 13.4429C30.7148 13.4589 30.7353 13.4619 30.7353 13.4619Z" fill="#334DB5"/>
<path d="M23.344 13.9929C23.344 13.9929 23.3633 14.0027 23.3623 14.0095C23.3633 14.0027 23.3633 14.0027 23.344 13.9929Z" fill="#334DB5"/>
<path d="M24.6404 13.7802C24.7197 13.8066 24.7786 13.8299 24.8396 13.839C24.7807 13.8157 24.7014 13.7893 24.6404 13.7802Z" fill="#334DB5"/>
<path d="M46.3365 10.6179C46.1675 10.637 45.9782 10.6531 45.8081 10.6794C45.638 10.7058 45.4466 10.7363 45.2765 10.7627C44.9151 10.8196 44.5515 10.891 44.1696 10.9448C43.4252 11.0628 42.6443 11.1459 41.8963 11.1452C41.9908 11.499 41.5489 11.5365 41.1812 11.6368L40.6016 11.1885L40.3914 11.3492C40.0773 11.2212 40.5922 11.2536 40.0961 11.091L40.2834 11.3774C40.057 11.2181 39.1895 11.3252 39.4278 10.9693L38.6949 11.0077C38.4435 11.022 38.2124 11.0392 37.961 11.0534C37.6271 11.0628 38.2375 11.4418 37.7513 11.3545C37.5197 11.2314 37.7659 11.2533 37.5384 11.1012C36.0381 10.8407 37.4019 12.0484 36.1536 11.914L36.1629 11.849C36.1442 11.9791 35.8103 11.9884 35.8844 12.0512C36.5902 12.4888 35.7346 11.7925 36.3852 12.0372C36.85 12.4167 36.2694 12.2637 36.6847 12.5545C36.2861 12.436 36.44 12.6658 36.2689 12.6994C35.6132 12.4908 35.3753 12.6991 34.729 12.4255C34.7306 12.5587 35.0488 12.9459 34.7108 12.9841C34.0644 12.7105 34.378 12.6982 33.8918 12.6109L34.1302 12.8311C33.7995 12.8187 33.7671 12.7548 33.6362 12.6541C33.3216 12.6737 33.7979 12.9736 33.2314 12.867L33.1406 12.6319C32.9794 12.7408 32.8167 12.7166 32.4197 12.7313C32.2512 12.6027 32.4181 12.5981 32.5809 12.6223C31.9183 12.3168 32.4103 12.7963 32.2679 12.7751C32.4416 12.8675 32.7509 12.884 32.9263 13.1096C32.68 13.0876 32.9404 13.444 32.4354 13.1989L32.3435 12.971C32.1892 13.177 32.5095 13.2616 31.9539 13.2231C31.957 13.2015 31.8605 13.1501 31.8047 13.1049C31.9268 13.4111 31.1886 13.1977 30.7286 13.2178L30.7176 13.1497C30.6623 13.2448 30.8418 13.4414 30.738 13.4407C31.16 13.5406 31.1913 13.6117 31.5142 13.8223C31.1016 13.6574 31.1266 13.7719 31.1689 13.9112C31.2112 14.0504 31.2503 14.2114 30.8466 14.129C30.677 14.0077 30.5768 13.8377 30.9133 13.9543C30.5533 13.5683 30.1005 13.2497 30.1714 13.0461C30.0947 13.1454 29.9377 13.2254 29.7734 13.068L30.2221 13.4155C30.1151 13.4365 29.992 13.4256 29.9075 13.4351C30.1663 13.6583 30.6707 13.7631 30.604 13.9378C30.459 14.0786 29.9242 13.6075 30.1089 13.768C29.8956 13.9503 30.4892 14.157 29.9175 14.0866C29.9217 14.0576 29.9107 13.9895 29.99 14.0161C29.5059 13.9144 29.388 14.1554 28.677 13.7539C28.5867 13.6592 28.3968 13.5349 28.5606 13.552L28.655 13.6177C28.5168 13.2795 28.5142 13.7297 28.0494 13.3502C28.413 13.5669 27.9153 13.5592 27.6681 13.5445L28.111 13.7878C28.6374 14.6048 27.3931 13.2893 26.9325 13.457C26.7985 13.666 27.1949 13.5109 27.2278 13.7152C26.8971 13.7028 26.4704 13.4915 26.2602 13.6522C26.0019 13.5694 25.5809 13.4623 25.1229 13.1799C25.0817 13.3215 24.2345 13.1435 24.5256 13.4306C25.2883 13.6181 24.4505 13.087 25.4865 13.3966L25.7776 13.6837C25.4417 13.7075 25.2477 13.9001 24.8835 13.8311C25.0218 13.8812 25.1376 13.9428 25.2117 14.0055C24.9394 14.1644 25.2305 14.4515 24.6729 14.4275C24.2086 14.1884 24.5393 14.2008 24.6921 14.1497C24.0922 13.9864 24.3776 14.1693 23.8189 14.1525C23.4339 13.94 24.1345 14.1256 23.834 13.9036C23.7036 13.9432 23.5925 13.9932 23.461 14.04C23.4417 14.0298 23.4235 14.0123 23.3849 13.9918C23.9128 14.3659 22.9665 14.0106 22.8611 14.1648C22.182 14.263 22.8784 14.7656 22.9953 15.108C22.7371 15.0252 22.542 14.9371 22.4314 14.8393C22.8685 14.9783 22.6166 14.8522 22.5274 14.7502C22.3714 14.823 21.4251 14.4678 21.3238 14.305C21.135 14.4615 21.7772 14.4759 21.736 14.6175L21.1893 14.6616C21.5592 14.8349 21.8064 14.8496 21.7804 15.0303C21.6437 15.1134 21.481 15.0891 21.1847 15.1262C21.0741 15.0285 20.6197 14.8647 20.8518 14.8402C20.6087 14.7966 20.3766 14.8211 20.5988 15.0093C21.1847 15.1262 20.3772 15.2496 21.0898 15.4961L20.504 15.3792C20.5885 15.3697 20.3772 15.2496 20.541 15.2666C19.976 15.0051 20.4408 15.3846 20.3725 15.4261C20.1701 15.3886 19.8555 15.4082 19.6411 15.3097C19.6897 15.4056 19.3396 15.383 19.048 15.2435C18.9959 15.3169 19.3548 15.4221 19.4654 15.5199L18.938 15.5742C18.6474 15.4275 17.8357 15.0037 17.8033 14.9398C17.8821 15.114 18.5478 15.3979 18.2515 15.4349C17.8821 15.114 17.4846 15.2763 17.0839 14.8843C16.5299 14.6909 16.1001 14.7893 16 14.9073C16.2739 15.1697 16.5075 14.9904 16.9291 15.2378C16.4001 15.447 17.5713 16.1165 16.8681 16.0929L17.1112 16.1365C17.0627 16.3287 17.0262 16.2937 17.2219 16.5223C16.9944 16.3702 16.5432 16.1848 16.0825 16.0644C15.6433 15.9399 15.1957 15.8732 14.997 15.9543C15.2448 16.1094 15.7962 16.1768 16.1546 16.4297L15.9099 16.5409C15.8499 16.5246 15.7759 16.4619 15.7607 16.4227C15.6747 16.5871 14.4905 16.1521 15.0622 16.5106L13.9511 16.1456L14.4268 16.3051C14.6543 16.4572 14.4097 16.5684 14.4613 16.6426C14.428 16.874 14.0691 16.7688 13.5291 16.6218C13.8249 16.7324 14.4968 16.9729 14.3164 17.0715C13.3867 16.6006 13.4108 17.0104 12.9475 16.7641C12.8599 16.7953 12.3768 16.6864 12.7639 16.8844L12.2041 16.5868C12.9966 17.0004 12.5709 17.0699 12.4269 17.2035C11.3867 16.6348 12.2027 17.3178 11.0451 16.8424C11.7582 17.2294 10.8203 17.1043 11.4165 17.437C11.2402 17.5067 10.5433 17.1517 10.2464 17.0484L10.4311 17.2088C10.1922 17.1363 9.96631 17.1174 9.71905 17.1027C9.47074 17.0952 9.24174 17.098 8.99656 17.0689L9.46036 17.4556L9.06284 17.3299C9.19483 17.4234 9.11921 17.5155 9.4802 17.6062L9.31222 17.6181C10.0499 17.9792 9.3545 17.7574 9.42808 17.9678C9.24707 17.926 9.09369 17.8367 9.03995 17.777C8.91162 17.8022 8.58556 17.6132 8.26839 17.5069C8.54905 17.5782 9.17981 18.2483 9.85327 18.334C10.1866 18.4723 10.2268 18.626 9.96129 18.5938L9.21424 18.2978L9.78393 18.6707C9.70831 18.7629 9.19393 18.5828 8.96597 18.5784C9.07812 18.5212 7.98622 17.8784 7.61639 17.9932C7.73375 17.8999 7.4515 17.6953 7.42332 17.6025C7.31848 17.609 7.19641 17.5908 7.0545 17.422C6.94601 17.5978 7.37535 17.647 7.15105 17.7613C6.54851 17.4721 6.26784 17.4007 5.79262 17.3816L6.43531 17.5365C6.49218 17.5745 6.55009 17.6053 6.56835 17.6228C6.7118 17.6368 6.83178 17.6694 7.08584 17.7811C7.02168 17.7937 7.49957 18.2269 7.08588 18.0692C8.34363 18.4265 7.30712 18.5527 8.08702 18.765C8.24039 18.8543 8.06304 18.9312 7.72969 18.7929C7.50065 18.5077 6.83294 18.5263 6.44793 18.3138C6.53611 18.423 7.11097 18.4718 7.21532 18.6129C7.10317 18.67 6.62428 18.5322 6.34363 18.4608L6.29092 18.3938L5.78022 18.3325C6.04941 18.4834 6.5236 18.5098 6.48449 18.6369C6.30348 18.5951 6.24298 18.7264 6.01031 18.6105C5.68842 18.3927 5.03685 18.1552 5.11352 18.0559C5.00033 18.1202 4.60285 18.2826 5.38379 18.4876L5.19131 18.5254C5.57369 18.6119 6.36609 18.7374 6.09694 18.8745L5.98008 18.8202L6.21016 19.0982L5.76987 18.9809C5.92638 19.0485 6.04011 19.1246 5.93318 19.1456C5.71564 19.0688 5.57114 19.0621 5.31708 18.9503C5.09591 19.0429 5.4303 19.174 5.58264 19.2706C5.4898 19.338 5.28843 19.2932 4.98272 19.1073C4.70885 19.1329 4.4397 19.2701 3.97698 19.1642C4.00987 19.3685 4.158 19.2059 4.45641 19.4424C3.1032 19.0266 3.15647 19.522 2.87898 19.7169C3.98806 20.0964 2.88682 19.8067 3.70273 20.2016C3.47631 20.0423 2.54516 20.0143 2.62129 19.7746L2.50081 19.8895C1.79917 19.7111 2.46008 19.5954 1.4757 19.3601C1.25348 19.4599 2.1993 19.9628 1.54202 19.9091C0.92434 19.5807 1.55872 20.0815 0.839318 19.7379C0.64942 19.6136 0.794971 19.6131 0.822612 19.5655L0.641592 19.5238C-0.100703 19.6273 1.33231 19.9222 1.53892 20.2188C1.30942 20.3693 0.707915 20.0728 0.352129 19.9459C0.170075 19.9114 0.114786 20.0066 0.202956 20.1157C-0.0323389 19.8739 1.02614 20.172 1.38976 20.3886C0.43301 20.1057 0.829519 20.5267 1.07628 20.689C2.39973 20.8789 1.44298 20.596 2.80192 20.8281C2.61202 20.7038 1.86499 20.4078 2.42159 20.439C2.62141 20.6387 2.83423 20.6039 2.99595 20.6354C2.51914 20.4831 2.99437 20.5023 2.9041 20.4076C3.32405 20.5219 3.71168 20.8603 4.15143 20.8372L3.21449 20.4169C3.46071 20.4388 3.89632 20.7327 3.87961 20.5603C4.27975 20.812 4.70699 20.8757 4.57921 21.0413C5.77225 21.2708 4.67306 20.6786 4.58435 20.429C4.62087 20.464 4.73772 20.5184 4.77425 20.5534C4.58435 20.429 4.69337 20.3936 4.72101 20.346C5.13103 20.385 5.02046 20.5753 5.31833 20.6714L5.60367 20.5662C5.64332 20.5795 5.66366 20.5825 5.68296 20.5928C5.63235 20.5114 5.62035 20.4505 5.89788 20.5436C6.12429 20.7029 6.41488 20.8496 6.60477 20.9739L6.24478 20.5879C6.53536 20.7346 7.05336 20.7454 7.07112 20.9105L7.41173 20.7101L8.10086 20.9753C8.09198 20.8928 7.97513 20.8384 7.76647 20.8443C8.07581 20.8608 7.34853 20.1394 8.53328 20.7148C8.37465 20.3736 8.70016 20.4221 8.84254 20.1553C9.0815 20.5159 9.99594 20.3715 9.88017 20.598C10.3695 20.6635 9.73042 20.3393 9.80604 20.2472C10.2312 20.3253 10.791 20.623 10.8525 20.7725L10.7748 20.591L10.8917 20.6454L10.7143 20.4343C11.2401 20.5348 11.382 20.7037 11.6741 20.6955L11.1509 20.4329L11.6126 20.546C11.3157 20.4427 11.3068 20.3601 11.419 20.303L11.5358 20.3573L11.6115 20.2652C11.7696 20.466 11.8801 20.2757 12.2041 20.4791C12.3742 20.4527 12.3752 20.4455 12.5374 20.3293L12.1237 20.1717C12.1581 19.9331 12.6898 20.4259 13.0106 20.3629L12.5603 20.1703C13.6913 20.3979 12.8629 19.8018 13.6318 19.9459C13.5562 20.038 14.0857 20.2573 13.9688 20.203C14.0721 20.0632 14.6198 20.0119 14.3746 19.6947C15.0841 19.963 15.3006 20.0469 15.853 20.1071C16.0283 20.0446 15.9928 20.0024 15.7074 19.8195C16.155 19.8863 16.1711 19.6302 16.6182 19.8445C16.3115 19.6658 16.8686 19.8375 16.685 19.6698L16.8811 19.7508L16.4523 19.5539C17.7283 19.9287 16.5514 19.1551 17.7105 19.4755L17.7632 19.5425L17.7585 19.431C17.9547 19.5119 18.0063 19.5861 18.239 19.702C18.4946 19.6589 18.7502 19.6157 19.0251 19.5829L18.5858 19.4583C18.6969 19.4084 18.4178 19.1821 18.8409 19.2747C19.1409 19.6444 19.1169 19.2346 19.6239 19.4653L19.6286 19.5768C19.8039 19.5143 19.8039 19.5143 19.3761 19.3102C19.519 19.1838 20.3224 19.6654 20.1544 19.3893L19.963 19.4198C19.6672 19.3093 19.4877 19.1127 19.615 19.0947C19.7147 19.1243 19.975 19.1927 19.927 19.2372C19.9864 19.1131 20.5217 19.1486 20.4731 19.0527C20.7162 19.0963 20.964 19.2515 20.9964 19.3154C21.1194 19.0383 21.2875 19.3144 21.4105 19.0374L21.6218 19.1575L21.5216 18.9874L22.2191 19.1948L21.844 19.0576C21.9551 19.0077 21.9076 18.9046 22.2139 18.9429L22.4564 19.1342C22.7319 18.9536 23.5081 19.3352 23.4716 19.0122C23.5509 19.0388 23.6036 19.1057 23.6187 19.1449C23.5028 18.7953 24.4951 19.4085 24.2634 18.9973C24.3375 19.06 24.5154 19.1235 24.5905 19.179L24.5696 19.0355L24.9922 19.2758L24.507 18.8933L25.0558 19.1228L24.928 19.0003C25.9463 19.4328 25.6088 19.0353 26.4789 19.3423L25.8978 19.0489C25.6812 18.6768 26.2175 18.7051 26.8524 18.7701C27.4872 18.8352 28.1789 18.9383 28.3537 18.7354L28.7548 18.9799L28.6166 18.6417C29.133 18.8073 28.8539 18.8691 29.1283 18.9838C29.2593 18.7965 28.6849 18.6001 28.9947 18.4691C29.495 18.6027 29.217 18.6573 29.2645 18.7604C29.4564 18.5822 29.8205 18.3632 30.327 18.4535C30.2702 18.4154 30.2347 18.3732 30.195 18.3599C30.279 18.21 30.8111 18.2671 31.0881 18.2198C31.2587 18.3338 31.2128 18.3639 31.1872 18.397C31.3124 18.3935 31.5941 18.4577 31.508 18.3341L31.7454 18.5615C32.0344 18.575 32.1747 18.3226 32.6176 18.5659C32.4439 18.4736 32.1585 18.2907 32.3693 18.2704C33.0652 18.6326 32.652 18.0393 33.2936 18.2014C33.4042 18.2991 33.1893 18.3483 33.2728 18.346C33.5941 18.4234 33.4553 18.2329 33.4131 18.0936L33.5988 18.2469C33.7386 18.1421 33.8773 18.0447 34.0161 17.9472C34.711 18.3166 34.6384 17.811 35.013 18.0958C35.3061 18.0804 34.5341 17.9579 34.8163 17.8744C35.1486 18.02 35.0192 17.7643 35.3583 18.0069L35.3745 18.0388L35.5883 17.9969L35.8002 18.2574C35.9358 18.1816 35.724 17.9211 35.4396 17.731C35.8392 17.8422 35.9425 17.7025 36.3692 17.9138L36.3802 17.982C36.5789 17.9008 37.0568 18.0459 37.4574 18.1499C37.8581 18.2539 38.1805 18.3241 38.109 18.0993C38.1872 18.1331 38.2827 18.1917 38.1992 18.194L38.5555 18.1732L38.736 18.3626L38.8888 18.0235L39.0573 18.152C39.4919 18.1651 39.9869 18.0469 40.4146 17.9629L40.4256 18.031C40.689 17.7896 41.1001 18.1094 41.3114 17.9414C41.3479 17.9764 41.3458 17.9909 41.3447 17.9981L41.6828 17.9599L41.7678 18.0907C41.664 17.802 42.9729 18.3811 42.5054 18.1637C42.4825 18.0348 42.5482 17.8673 42.3838 17.7099C42.7433 17.6674 42.6937 17.8668 43.0761 17.9534C43.3682 17.9452 43.1298 17.725 43.6588 17.8039L43.8069 17.9294C43.9577 17.8927 43.9509 17.7957 44.1637 17.761L44.1747 17.8291C44.2378 17.5357 45.1648 18.1687 44.7699 17.5928C45.0688 17.6817 45.291 17.5819 45.6077 17.8359C45.9065 17.6367 46.2122 17.5345 46.5852 17.3981C47.17 17.8102 46.6728 17.3668 47.2644 17.588L46.9639 17.3659C47.6592 17.2997 49.1444 17.8091 49.8288 17.6748L50.1079 17.901L49.9785 17.6454C50.9666 17.7114 52.1653 17.7571 52.8544 17.7343C52.9556 17.609 52.9973 17.3198 53.4438 17.3938L53.4397 17.4227C53.9389 17.2755 54.5163 17.1622 55.3322 17.269C55.3807 17.3649 55.5169 17.4295 55.5075 17.4946C55.4198 17.2378 55.9055 17.4726 56.0511 17.4722L55.7005 17.3091C55.6697 17.0904 56.1809 17.2921 56.4287 17.4472L56.5059 17.2002C56.5445 17.2208 56.6228 17.2546 56.6582 17.2968L56.5925 17.1762L57.0484 17.4731C57.0578 17.4081 57.4021 17.3264 57.2555 17.0461C57.3864 17.1468 57.7506 17.2159 57.5753 17.2784L58.8116 17.3519L58.5351 17.2516C58.2977 17.0242 58.5059 16.8779 58.7824 16.9782C58.7146 17.1601 59.0683 17.3015 59.315 17.4638C59.3541 17.3367 58.99 17.2677 58.966 17.1459C59.0296 16.9929 59.3739 16.9113 59.5669 17.0139L59.533 17.1049C59.7318 17.0237 60.2159 17.4135 60.4684 17.392C60.5362 17.2101 60.8654 17.3773 60.4647 16.9852C60.7458 16.909 60.8424 17.2483 60.9827 17.284C60.9884 17.1002 61.5743 17.2171 61.7955 17.4126C61.4829 16.8416 62.9092 17.6155 62.5628 17.1355L63.085 17.4053C62.9785 17.2787 62.7912 16.9923 62.9858 16.94C63.3192 17.0784 63.4527 17.3051 63.6416 17.4366L63.3979 16.9645C64.254 17.2251 65.0151 17.2794 65.7793 17.3121C66.1711 17.3336 66.5628 17.355 66.9515 17.3982C67.3604 17.4444 67.7663 17.5122 68.1873 17.6193C68.4632 17.5792 68.7444 17.5029 69.0631 17.4544C69.2332 17.4281 69.4022 17.4089 69.5701 17.3971C69.7381 17.3852 69.9436 17.401 70.1278 17.4211L70.0981 17.4831L70.9066 17.6406L70.2337 17.4073C70.3448 17.3574 70.4194 17.2725 70.5842 17.2823C71.0459 17.3954 71.5889 17.5207 72.1189 17.5923C72.649 17.6639 73.1456 17.6789 73.5744 17.5877C73.8774 17.0715 74.2912 18.0933 74.6568 17.7195C74.6291 17.767 74.6594 17.8454 74.6521 17.896C75.1931 17.7477 75.4956 17.6672 75.9943 17.3797C76.2082 17.9138 76.4288 17.3927 76.5133 17.6712L76.3819 17.43C76.6104 17.5749 76.9755 17.6367 77.0147 17.7976L77.156 17.538L77.3099 17.7678C77.6996 17.8037 78.4461 17.6712 78.878 18.1345C79.6678 17.846 81.2578 18.0608 82.5009 18.2313C82.588 18.0597 82.9401 18.0678 83.2098 18.0711L83.6047 18.3589C83.8624 18.3013 84.0314 17.9941 84.3575 18.1831C84.3736 18.215 84.3705 18.2367 84.3481 18.2481C84.623 18.2153 84.9318 18.3795 85.13 18.1579C85.4566 18.1992 85.8072 18.3622 85.7941 18.5966C85.742 18.382 85.9047 18.4063 86.0998 18.4945C86.2949 18.5826 86.4838 18.7142 86.4838 18.7142C86.4838 18.7142 86.7483 18.7536 87.1958 18.8203C87.6434 18.887 88.3159 18.9799 89.091 19.0806C89.4786 19.131 89.9273 19.1905 90.3769 19.2428C90.8459 19.3053 91.3149 19.3678 91.8256 19.4291C92.3363 19.4905 92.8673 19.5549 93.3994 19.612C93.9519 19.6722 94.5022 19.7468 95.0546 19.807C95.6274 19.8702 96.1809 19.9232 96.7547 19.9792C97.3285 20.0352 97.9024 20.0912 98.4772 20.1399C99.0521 20.1887 99.6077 20.2272 100.164 20.2584C100.433 20.2689 100.721 20.2897 100.988 20.3074C101.257 20.3179 101.525 20.3357 101.793 20.3462C102.31 20.3641 102.829 20.3676 103.308 20.3651C103.557 20.3653 103.787 20.3553 104.017 20.3453C104.247 20.3352 104.457 20.3222 104.687 20.3121C105.547 20.2557 106.272 20.1274 106.841 19.9315C107.012 19.7503 107.418 19.6778 107.331 19.4138C107.647 19.3869 107.697 19.7564 107.808 19.5661C107.441 19.3711 108.047 19.0625 107.697 18.7518L107.989 18.7437C108.071 18.6082 107.599 18.8554 107.719 18.6L107.562 18.968C107.367 18.8799 107.276 18.7852 107.214 18.6429C106.988 18.7644 106.772 19.2565 106.336 18.9627L106.461 18.9592C106.073 18.916 106.273 18.68 106.201 18.6028L106.282 18.6149L106.026 18.3772C106.251 18.5438 106.703 18.2935 106.496 18.2849C106.064 18.1097 106.605 18.3971 106.253 18.3889C106.046 18.3803 106.137 18.1797 106.154 18.064L105.765 18.0208C105.812 17.8431 106.029 18.0675 105.892 17.8625L105.377 17.9777C105.36 17.5173 104.817 18.1157 104.654 17.6558C105.015 17.6061 104.635 17.4979 104.717 17.3624C104.432 17.3272 104.145 17.2992 103.859 17.264C103.787 17.1867 104.102 17.1599 103.977 17.1634C103.832 17.0163 103.697 17.2325 103.616 17.2203C103.552 17.0853 102.964 17.1305 103.027 16.8371C102.444 16.5509 102.749 17.1797 102.222 16.9388C102.167 16.7459 102.656 16.9591 102.439 16.7347L101.859 16.7221C101.912 16.6414 101.983 16.4378 102.2 16.5145C101.422 16.2878 100.836 15.8901 100.257 15.5823C99.6785 15.2671 99.0921 15.0099 98.3602 15.0411C98.1463 14.795 98.5032 14.9147 98.6461 14.7883C98.1156 14.8643 97.7447 14.6982 97.379 14.496C97.2063 14.3964 97.0143 14.2866 96.8395 14.2014C96.6444 14.1133 96.4462 14.0468 96.2203 14.0279L96.176 14.1912C95.5208 13.835 94.8139 13.6927 94.0804 13.5908C93.7132 13.5434 93.3459 13.4961 92.9787 13.4487C92.6125 13.3941 92.2463 13.3395 91.866 13.2386L92.0528 13.3846C91.8843 13.5441 91.5749 13.5275 91.359 13.584C91.3105 13.4881 91.4549 13.2068 91.0548 13.2432C91.1482 13.3162 91.3433 13.4044 91.3105 13.4881C90.6683 13.1856 89.6776 12.9936 88.6004 12.8257C87.5221 12.665 86.3573 12.5283 85.3066 12.32C84.6259 12.285 83.9258 12.2397 83.2289 12.1728C82.5116 12.1028 81.7964 12.0183 81.0619 11.9236C79.6101 11.7589 78.1787 11.5973 76.8537 11.5623C77.2465 11.5765 77.306 12.0285 76.9503 11.9016C76.3461 11.4792 75.9909 11.4928 75.6529 11.531C75.3138 11.5765 75.0123 11.6497 74.4311 11.3563C73.7123 11.4412 72.9251 11.2795 72.1692 11.189C71.4144 11.0913 70.695 11.0358 70.1567 11.31L69.9814 11.0845C69.707 10.9697 69.7472 11.1234 69.5375 11.1365L69.5052 11.0726C68.9183 10.963 68.4311 11.171 68.0539 11.0483L68.2047 11.2997C67.9126 11.3079 67.9225 11.0952 67.6951 11.2312L67.6304 11.1033L67.4108 11.3291C67.1426 10.8829 66.5062 11.2608 66.1202 11.0555C65.7576 11.1196 65.1312 11.2848 64.4598 11.1847C64.1817 10.9512 63.4357 10.936 62.8723 10.8078C62.4336 10.8236 61.8901 10.846 61.3079 10.8479C60.7247 10.8569 60.1029 10.8455 59.4863 10.7979L59.7357 11.0862L59.4425 11.1016C59.3898 11.0346 59.3319 11.0039 59.3564 10.978C58.8436 10.643 58.7404 11.0708 58.3126 10.8667C58.6903 11.1298 58.5557 10.9103 58.7419 10.9159C59.116 11.0603 59.0967 11.3381 58.6402 11.1888L58.5875 11.1219L58.4832 11.2688C58.2662 11.0444 57.9704 10.9339 57.7534 10.7095C57.2729 10.7265 56.9448 10.8401 56.5985 10.9362C56.2532 11.025 55.8896 11.0964 55.3361 11.0434C55.2067 10.7878 54.6611 11.1127 54.455 10.6684C53.9944 10.8361 54.8812 11.0273 54.8781 11.3371C54.6919 11.3315 54.6335 11.4483 54.4488 11.2879C54.4227 11.1806 54.0711 11.0248 54.1608 10.9791L53.7821 11.0112C53.7038 10.9774 53.7539 10.9184 53.7581 10.8895C53.1598 11.1474 52.0095 10.6215 51.5139 10.8873C51.6152 11.0501 51.8608 10.9317 51.9428 11.0842C51.5203 11.4201 51.0053 10.8115 50.5353 11.0443L50.4628 10.8267C50.3788 10.9767 50.4759 11.1684 49.9391 10.9997C49.6031 10.7355 50.0324 10.7847 50.0919 10.6606C49.9677 10.6569 49.7367 10.6741 49.6255 10.7241C49.4941 10.7709 49.4623 10.8474 49.6736 10.9676C49.4524 11.0601 49.1112 10.832 48.8712 10.7667C48.925 10.8264 49.3256 10.9305 49.2662 11.0545C48.7038 10.919 48.0768 10.9437 47.5588 10.933C47.505 10.8733 47.3538 10.7695 47.3783 10.7436C47.3882 11.107 46.8263 10.5358 46.3365 10.6179Z" fill="#334DB5"/>
<path d="M23.0964 13.9753L23.3231 13.9873C23.2276 13.9295 23.1321 13.8716 23.122 13.7975L23.0964 13.9753Z" fill="#334DB5"/>
<path d="M31.8002 13.133C31.8033 13.1116 31.7858 13.087 31.7693 13.0554C31.7456 13.0737 31.7837 13.1013 31.8002 13.133Z" fill="#334DB5"/>
<path d="M33.3074 12.4868C33.2351 12.556 33.4558 12.6107 33.6144 12.6634C33.5585 12.6187 33.4843 12.5568 33.3074 12.4868Z" fill="#334DB5"/>
<path d="M19.6586 15.333C19.6424 15.3015 19.6058 15.267 19.5082 15.2234C19.5427 15.2721 19.6007 15.3025 19.6586 15.333Z" fill="#334DB5"/>
<path d="M7.71468 17.6015C7.75543 17.6075 7.77579 17.6106 7.83594 17.6265C7.79617 17.6136 7.75543 17.6075 7.71468 17.6015Z" fill="#334DB5"/>
<path d="M9.0754 17.811C9.09705 17.8069 9.12077 17.7886 9.12695 17.7457C9.06303 17.7507 9.0589 17.7793 9.0754 17.811Z" fill="#334DB5"/>
<path d="M22.5059 14.7606C22.55 14.7452 22.5531 14.7238 22.4988 14.6646C22.4537 14.6871 22.469 14.7258 22.5059 14.7606Z" fill="#334DB5"/>
<path d="M9.16137 17.6608L9.3709 17.6484C9.33125 17.6353 9.31296 17.618 9.27331 17.6048L9.16137 17.6608Z" fill="#334DB5"/>
<path d="M7.46239 17.622C7.54682 17.6128 7.61194 17.5935 7.71465 17.6015C7.5123 17.5641 7.44821 17.5763 7.46239 17.622Z" fill="#334DB5"/>
<path d="M15.8001 16.4423C15.8011 16.4352 15.8011 16.4352 15.8011 16.4352C15.7557 16.3116 15.7475 16.3688 15.8001 16.4423Z" fill="#334DB5"/>
<path d="M8.9918 17.0971C9.01228 17.1002 9.01228 17.1002 9.03277 17.1032L8.93858 17.0308L8.9918 17.0971Z" fill="#334DB5"/>
<path d="M6.59855 17.7002C6.62094 17.689 6.62299 17.6748 6.58642 17.6402C6.54472 17.6413 6.50405 17.6352 6.44098 17.6404C6.52028 17.6667 6.55891 17.687 6.59855 17.7002Z" fill="#334DB5"/>
<path d="M12.6609 16.5811C12.792 16.6806 12.8876 16.7384 12.9851 16.782C13.0289 16.7668 12.9933 16.7251 12.6609 16.5811Z" fill="#334DB5"/>
</svg>
