<svg width="148" height="12" viewBox="0 0 148 12" fill="none" xmlns="http://www.w3.org/2000/svg">
<path d="M8.96952 3.90569C9.00168 3.92494 9.04992 3.95383 9.11575 3.98553C9.05143 3.94702 9.02077 3.92095 8.96952 3.90569Z" fill="#FF7080"/>
<path d="M19.844 0.768024L19.7907 0.84418C19.8702 0.814561 19.8747 0.794112 19.844 0.768024Z" fill="#FF7080"/>
<path d="M3.14196 6.12011C3.14346 6.11334 3.12578 6.11051 3.10958 6.1009C3.02832 6.13696 2.90719 6.18766 2.70779 6.26088L3.14196 6.12011Z" fill="#FF7080"/>
<path d="M60.5355 1.68986C59.6214 1.75012 58.6304 1.85074 57.6083 1.93827C56.6026 2.02843 55.5822 2.10814 54.5903 2.1357C54.5332 2.31697 53.9638 2.35545 53.4393 2.42138L52.9072 2.21464L52.5633 2.30948C52.2178 2.2582 52.8485 2.2498 52.318 2.18918L52.4225 2.3315C52.2178 2.25821 51.0574 2.35602 51.5266 2.15565L49.6155 2.26695C49.1861 2.28733 49.7769 2.45891 49.1877 2.43344C48.945 2.37837 49.2508 2.37872 49.0461 2.30543C48.17 2.2705 48.0058 2.39816 47.8736 2.53499C47.7422 2.6679 47.6428 2.80999 46.8954 2.80782L46.9369 2.77395C46.8531 2.84561 46.4237 2.86598 46.485 2.89606C47.1372 3.09771 46.4462 2.76425 47.1209 2.86418C47.5053 3.04726 46.8547 2.99172 47.1985 3.12779C46.7493 3.08422 46.8097 3.19518 46.5816 3.22753C45.8688 3.14583 45.4333 3.27056 44.7785 3.15762C44.6947 3.22927 44.8726 3.42386 44.4388 3.4638C43.784 3.35085 44.1978 3.32393 43.6242 3.30501L43.8038 3.4148C43.3934 3.42607 43.3839 3.39214 43.276 3.34244C42.8794 3.36808 43.2897 3.51075 42.6495 3.48522L42.6764 3.36393C42.4068 3.43015 42.221 3.42472 41.7035 3.45935C41.5644 3.39657 41.7873 3.38769 41.9731 3.39312C41.3226 3.26061 41.6611 3.49713 41.4754 3.4917C41.6196 3.531 42.0283 3.52756 42.1051 3.64114C41.8157 3.64342 41.9115 3.82486 41.4424 3.71735L41.4693 3.59606C41.153 3.71963 41.5038 3.74743 40.8212 3.75969C40.8402 3.75058 40.7607 3.7257 40.715 3.70216C40.6622 3.86387 39.8803 3.7873 39.3109 3.82578L39.3524 3.79191C39.2211 3.84786 39.3178 3.94842 39.1813 3.95087C39.6331 3.9827 39.6253 4.01792 39.9095 4.11609C39.0724 3.98206 39.7686 4.36901 38.8597 4.32883C38.7198 4.26996 38.7051 4.18254 39.0516 4.2299C38.84 4.03397 38.4997 3.88225 38.7122 3.76639C38.5455 3.82882 38.313 3.88073 38.1947 3.80102L38.5143 3.96967C38.3743 3.98778 38.2214 3.9876 38.116 4.00313C38.3129 4.11164 38.8503 4.14096 38.6576 4.2438C38.3828 4.3335 38.0269 4.09826 38.1461 4.17406C37.7633 4.29104 38.3577 4.37 37.6959 4.36532C37.7167 4.34839 37.7426 4.30797 37.8247 4.32111C37.2873 4.29179 36.9658 4.43884 36.3611 4.25289C36.3041 4.20325 36.1642 4.14439 36.3508 4.14591L36.4121 4.17598C36.4693 3.99471 36.1581 4.24875 35.8428 4.06053C36.1435 4.16132 35.5421 4.19064 35.2691 4.19554L35.6526 4.30557C35.7604 4.74011 35.0938 4.06619 34.4371 4.19197C34.1364 4.32208 34.7058 4.20663 34.6133 4.31741C34.2193 4.33131 33.8323 4.23694 33.4694 4.34088C33.2214 4.30929 32.7704 4.27354 32.4076 4.14658C32.2529 4.2312 31.3622 4.18582 31.5168 4.33211C32.303 4.38911 31.6612 4.14051 32.6918 4.24475L32.8628 4.39367C32.43 4.4297 32.08 4.55193 31.6757 4.53581C31.7906 4.5542 31.9029 4.58434 31.9469 4.6157C31.4976 4.72607 31.6686 4.87499 31.0171 4.90033C30.6336 4.7903 31.0111 4.77378 31.2237 4.73489C30.6233 4.68332 30.8245 4.77226 30.1731 4.7976C29.8725 4.6968 30.5723 4.76023 30.358 4.65301L29.8249 4.75806C29.8094 4.75152 29.7938 4.74498 29.7619 4.73581C30.1298 4.91627 29.2434 4.77435 29.0179 4.87194C28.1435 4.98312 28.6168 5.22501 28.5217 5.4245C28.2729 5.39682 28.1122 5.35489 28.0552 5.30525C28.4699 5.35139 28.2773 5.30029 28.222 5.24282C27.9723 5.29602 27.1196 5.15545 27.0886 5.0654C26.7585 5.1746 27.498 5.13501 27.3598 5.22226C27.1343 5.24287 26.9079 5.2674 26.6979 5.29455C27.0201 5.3745 27.2785 5.35915 27.135 5.46987C26.9181 5.52832 26.7479 5.52943 26.3643 5.57335C26.2909 5.52108 25.8805 5.45538 26.176 5.42571C25.9065 5.41497 25.6274 5.44726 25.7578 5.54917C26.3643 5.57335 25.3145 5.70912 25.9901 5.80513C25.7879 5.79707 25.5857 5.78901 25.3836 5.78095C25.4708 5.77061 25.3309 5.71175 25.5011 5.71064C25.0174 5.59267 25.2955 5.7952 25.1874 5.82247C24.9844 5.81832 24.6016 5.85832 24.4254 5.80985C24.4133 5.86463 24.0193 5.87852 23.7774 5.81954C23.6642 5.87029 24.0124 5.90983 24.0703 5.95555L23.424 6.03439C23.1838 5.96758 22.5636 5.77509 22.5731 5.73205C22.5333 5.83507 23.1009 5.95835 22.7337 6.00489C22.5333 5.83507 21.9604 5.96617 21.7696 5.7533C21.2754 5.68229 20.7121 5.77035 20.5055 5.85882C20.6273 5.99986 21.03 5.86986 21.3271 5.98631C20.9504 6.07589 20.9745 6.19725 20.9848 6.30424C21.0116 6.41385 21.0253 6.50519 20.6288 6.53082L20.8828 6.53503C20.684 6.66525 20.6892 6.64178 20.728 6.77358C20.4231 6.61538 19.1644 6.46652 18.6234 6.60679C18.7763 6.68393 19.3725 6.67809 19.5988 6.80751C19.4735 6.83606 19.3637 6.87116 19.2384 6.89972C19.1719 6.89312 19.1452 6.86047 19.1512 6.83308C18.9222 6.94632 17.9063 6.77555 18.2906 6.95864L17.3006 6.82443L17.7118 6.88622C17.8647 6.96336 17.5035 7.05948 17.5113 7.10124C17.3246 7.25366 16.9911 7.22457 16.4909 7.18095C16.7362 7.22428 17.3098 7.32018 17.0532 7.40468C16.3725 7.1782 16.108 7.45186 15.7599 7.33535C15.6346 7.36391 15.181 7.3399 15.4496 7.43153L15.0393 7.28886C15.6069 7.48911 15.1118 7.57595 14.8499 7.68393C14.1131 7.4039 14.5216 7.78531 13.6154 7.57944C14.1164 7.7731 13.1971 7.77987 13.6195 7.94473C13.3836 8.01229 12.8774 7.84212 12.6312 7.8027L12.7123 7.89672C12.3158 7.84538 11.7671 7.9439 11.2885 7.95639L11.5122 8.17451L11.183 8.12587C11.2737 8.17685 11.1207 8.25364 11.4387 8.27619L11.2633 8.30077C11.8032 8.47229 11.2079 8.39725 11.1595 8.53939C11.0091 8.52747 10.883 8.48297 10.8744 8.44513C10.731 8.47888 10.4986 8.37686 10.2351 8.33873C10.4857 8.35858 10.7015 8.76585 11.3512 8.74834C11.6095 8.80995 11.5351 8.91554 11.2967 8.91787L10.7135 8.78805L11.0772 8.98807C10.9242 9.06486 10.5156 8.99133 10.2883 9.01977C10.4361 8.96645 9.7287 8.63037 9.27678 8.75248C9.44789 8.67049 9.30277 8.55812 9.31749 8.4916C9.1948 8.50842 9.10928 8.51093 9.04712 8.4078C8.82933 8.54714 9.24059 8.53196 8.94332 8.64642C8.51486 8.50894 8.26433 8.48909 7.7969 8.52769L8.36622 8.56617C8.41287 8.5858 8.4267 8.60017 8.44051 8.61453C8.57876 8.60425 8.67724 8.62002 8.87075 8.66721C8.79903 8.68409 9.01402 8.94133 8.67192 8.87441C9.73456 8.98782 8.58365 9.19653 9.24888 9.26253C9.33957 9.31351 9.12008 9.3837 8.86178 9.32209C8.81608 9.14462 8.11707 9.23122 7.85189 9.12394C7.87086 9.1918 8.4221 9.15852 8.43588 9.24985C8.28725 9.30708 7.88984 9.25966 7.65484 9.24634L7.64796 9.20068L7.16932 9.21317C7.3559 9.29166 7.8069 9.25043 7.68157 9.35596C7.51397 9.34533 7.38952 9.44694 7.21416 9.39456C7.02069 9.2704 6.51531 9.17328 6.65186 9.09386C6.50322 9.15109 6.00635 9.32272 6.65603 9.38217L6.44001 9.43672C6.75881 9.45535 7.4733 9.45225 7.12073 9.58622L7.02486 9.55871C7.04556 9.61875 7.06626 9.67878 7.08696 9.73882L6.72067 9.70448C6.84938 9.73724 6.90812 9.77905 6.79924 9.81024C6.63596 9.78004 6.48044 9.7916 6.30507 9.73922C6.02855 9.83674 6.28773 9.89445 6.37842 9.94543C6.2462 10.0053 6.07858 9.99465 5.89633 9.8966C5.61292 9.94846 5.26037 10.0824 4.87332 10.065C4.78857 10.2176 5.0245 10.073 5.17995 10.2154C4.65123 10.147 4.31598 10.2027 4.09043 10.3002C3.86402 10.4017 3.71449 10.5399 3.54079 10.6336C4.39086 10.7859 3.49238 10.6988 4.07546 10.9055C3.94418 10.8076 3.08879 10.9096 3.28501 10.7142L3.12512 10.8223C2.55751 10.776 3.22545 10.5993 2.43926 10.5423C2.1947 10.649 2.81403 10.9224 2.22564 10.9699C2.02351 10.8849 1.99931 10.9175 1.9751 10.9501C1.95089 10.9827 1.90941 11.0166 1.67359 10.9302C1.55353 10.8583 1.69436 10.8363 1.73758 10.7946L1.58552 10.7905C0.864874 10.9749 2.02863 11.0154 2.08469 11.2229C1.81246 11.3778 1.40475 11.2234 1.14472 11.1696C0.992663 11.1655 0.90448 11.2567 0.940735 11.3233C0.841459 11.1575 1.65355 11.2511 1.88072 11.3766C1.13688 11.2818 1.32854 11.5677 1.46069 11.6618C2.57264 11.6292 1.8288 11.5344 2.96839 11.5305C2.84833 11.4586 2.30064 11.3223 2.80436 11.2733C2.89328 11.4091 3.11102 11.3467 3.24667 11.3481C2.88555 11.2903 3.30461 11.2399 3.28477 11.176C3.61651 11.2129 3.80823 11.4219 4.23161 11.3519L3.58027 11.1463C3.80404 11.1335 4.05537 11.3034 4.13578 11.1704C4.37503 11.3181 4.75087 11.3094 4.53135 11.4566C5.53009 11.4747 4.80279 11.1516 4.85903 10.9743C4.87112 10.9965 4.96702 11.024 4.9791 11.0462C4.85905 10.9743 4.98693 10.934 5.03101 10.8884C5.22109 10.8743 5.24699 10.9108 5.27203 10.9513C5.29619 10.9957 5.30222 11.0452 5.4344 11.0624C5.52859 11.0207 5.63919 10.9817 5.7498 10.9427C5.78263 10.948 5.79905 10.9506 5.81547 10.9532C5.81117 10.8958 5.83799 10.8515 6.03409 10.8869C6.16537 10.9849 6.3528 11.0595 6.47286 11.1314L6.34167 10.8795C6.52912 10.954 7.03543 10.8933 6.95588 11.0224L7.39142 10.8207L7.90975 10.9361C7.95816 10.8709 7.86229 10.8434 7.6506 10.8784C7.92968 10.8461 7.65601 10.3931 8.47665 10.6784C8.52947 10.4397 8.83618 10.4362 9.12486 10.2069C9.13943 10.4483 10.14 10.2276 9.89628 10.4074C10.3585 10.3923 9.9171 10.2365 10.0372 10.1545C10.4277 10.1562 10.8009 10.3132 10.7603 10.4201L10.7888 10.291L10.8683 10.3159L10.8131 10.1814C11.2865 10.1924 11.3297 10.3047 11.6122 10.2567L11.2511 10.1219L11.6529 10.1498C11.4067 10.1104 11.4542 10.0491 11.602 9.9958L11.6814 10.0207L11.8171 9.94517C11.8568 10.0731 12.0945 9.9207 12.2914 10.0292C12.4875 9.98768 12.4884 9.98377 12.7494 9.87971L12.4237 9.81541C12.6165 9.6356 12.8565 9.93332 13.2151 9.84894L12.9274 9.76642C13.4346 9.77874 13.5703 9.70323 13.6887 9.62901C13.7906 9.55215 13.8598 9.47005 14.2158 9.47437C14.0637 9.54725 14.4844 9.64297 14.4049 9.61809C14.6166 9.50614 15.2344 9.40249 15.2095 9.20808C15.7805 9.31571 15.9585 9.35636 16.5071 9.33481C16.743 9.26725 16.7309 9.24505 16.5659 9.14572C16.991 9.1449 17.2028 8.95598 17.5544 9.05684C17.354 8.96398 17.8334 9.02455 17.7704 8.92533L17.9328 8.95943L17.5968 8.86512C18.7424 8.98776 17.9995 8.58118 19.0501 8.67241L19.057 8.71808L19.1417 8.64251C19.3032 8.68053 19.311 8.72228 19.4682 8.77987L20.4558 8.61793L20.0394 8.57962C20.2027 8.53284 20.0429 8.41003 20.4637 8.42878C20.5344 8.64672 20.7981 8.37698 21.2006 8.4779L21.1159 8.55346C21.3673 8.49244 21.3674 8.49244 21.0477 8.40075C21.3078 8.3006 21.8658 8.54389 21.8858 8.37693L21.6395 8.41448C21.3942 8.37115 21.3174 8.25756 21.4928 8.23297C21.5757 8.2422 21.8254 8.26597 21.7329 8.29978C21.9058 8.20997 22.4889 8.18585 22.5028 8.12325C22.7568 8.12745 22.9097 8.2046 22.9002 8.24764C23.2657 8.05498 23.2302 8.21541 23.5958 8.02275L23.753 8.08033L23.7755 7.9786L24.4399 8.04851L24.1124 7.99204C24.2922 7.94789 24.306 7.88528 24.6473 7.87915L24.795 7.97978C25.2512 7.8381 25.8767 8.00711 26.1083 7.80517C26.1913 7.8144 26.1826 7.85353 26.1774 7.877C26.3261 7.66583 27.0076 7.96537 27.0777 7.72541C27.1218 7.75677 27.2851 7.78696 27.3308 7.81049L27.419 7.71927L27.7326 7.83835L27.4536 7.63974L27.9426 7.73423L27.8735 7.6624C28.7512 7.84344 28.6632 7.62678 29.4882 7.73862L29.0252 7.60371C29.0555 7.3898 29.6923 7.354 30.4086 7.34309C31.1421 7.33089 31.9395 7.33702 32.3111 7.19395L32.6082 7.3104C32.6394 7.24651 32.6714 7.17871 32.7025 7.11482C33.1993 7.1741 32.8131 7.22975 33.0567 7.28091C33.3902 7.15605 32.7941 7.08492 33.2935 6.97852C33.811 7.02086 33.4248 7.07652 33.3945 7.13649C33.7955 7.01432 34.4107 6.84544 34.9844 6.86436C34.9542 6.84737 34.9248 6.82646 34.8756 6.81858C35.1011 6.72099 35.7309 6.7165 36.1336 6.66348C36.258 6.7158 36.1854 6.73659 36.1119 6.7613C36.2839 6.75236 36.5698 6.76574 36.5517 6.69396L36.6614 6.81281C36.8497 6.8065 37.0295 6.76235 37.2066 6.72994C37.3993 6.70407 37.5894 6.68994 37.7803 6.74887C37.6196 6.70694 37.4183 6.61799 37.6957 6.59353C38.3056 6.75599 38.2573 6.43632 38.9433 6.48538C39.0003 6.53502 38.7022 6.57642 38.805 6.57262C39.1567 6.59651 39.1291 6.49081 39.1801 6.4139L39.2993 6.4897L40.0925 6.28449C40.7024 6.44696 41.0049 6.15509 41.2796 6.2963C41.677 6.26675 40.763 6.25004 41.1863 6.18008C41.4956 6.24175 41.5268 6.1009 41.8058 6.22254L41.785 6.23948L42.0996 6.2007L42.1721 6.33385C42.4045 6.28194 42.3156 6.14616 42.1143 6.05722C42.548 6.09425 42.8055 6.00583 43.1925 6.1002L43.1675 6.13671C43.5027 6.08099 44.0029 6.12462 44.4539 6.16036C44.9049 6.19611 45.2919 6.21351 45.3533 6.08965C45.4354 6.10279 45.4976 6.12895 45.4103 6.13929L45.9106 6.10594L46.0082 6.20259L46.4774 6.00223L46.6173 6.0611C47.1997 6.0409 47.9686 5.94524 48.5968 5.87161L48.5553 5.90548C49.0815 5.75475 49.4055 5.90385 49.8029 5.79733C49.8159 5.81561 49.8142 5.82344 49.7969 5.82472L50.2816 5.78484L50.3178 5.85141C50.3862 5.69625 51.7598 5.94048 51.2872 5.84861C51.3547 5.77433 51.5621 5.68195 51.4437 5.60223C51.9803 5.55849 51.7521 5.66781 52.2213 5.69836C52.6334 5.67927 52.4537 5.56947 53.1293 5.58852L53.252 5.64867C53.4792 5.62023 53.5415 5.56942 53.8715 5.53719L53.83 5.57106C54.1049 5.40439 54.9575 5.6989 54.8004 5.41041C55.1503 5.44212 55.5218 5.37602 55.7835 5.49895C56.0522 5.43664 56.3175 5.38998 56.5655 5.34461C56.8299 5.30186 57.1107 5.26174 57.4097 5.21643C57.9625 5.40623 57.5332 5.19569 58.2278 5.2826L57.9618 5.17923C58.9476 5.10209 60.7212 5.30504 61.7641 5.20057L62.0302 5.30393L62.0069 5.17867C62.6877 5.17423 63.4385 5.16075 64.1556 5.14592C64.8727 5.13109 65.5561 5.11492 66.0538 5.09332C66.256 5.02441 66.4764 4.87333 67.0846 4.88968L67.0639 4.90662C67.8501 4.80968 68.7185 4.72588 69.8347 4.75065C69.8589 4.79504 70.0386 4.82786 69.9807 4.8591C69.9747 4.73255 70.5474 4.83236 70.7695 4.8274L70.3436 4.75515C70.4188 4.64566 71.0296 4.72724 71.3363 4.80065L71.5523 4.66914C71.6016 4.67702 71.6828 4.69408 71.7303 4.70979L71.6923 4.65104L72.2236 4.78472C72.2815 4.75347 72.8033 4.69928 72.7153 4.55959C72.8578 4.60672 73.346 4.62815 73.0833 4.66307L74.8354 4.65596L74.4709 4.61379C74.2221 4.50914 74.5971 4.42739 74.9444 4.47084C74.7707 4.56457 75.2173 4.61987 75.5231 4.69719C75.6389 4.63471 75.1353 4.60673 75.1318 4.54541C75.2684 4.46599 75.8067 4.41443 76.052 4.45776L75.9734 4.50594C76.2896 4.45934 76.8286 4.63477 77.1898 4.61562C77.3635 4.52189 77.7721 4.59542 77.3368 4.41228C77.7558 4.36188 77.7696 4.53019 77.97 4.54607C78.0245 4.45351 78.8478 4.49621 79.1173 4.58392C78.9947 4.4468 79.3818 4.46421 79.7507 4.48681C80.1196 4.50941 80.4867 4.53984 80.3252 4.42485L80.9956 4.54434C80.8903 4.48291 80.6994 4.34701 80.9957 4.31343C81.4415 4.37265 81.5711 4.47847 81.7784 4.54002L81.5573 4.31017C82.7072 4.41325 83.8105 4.41973 84.9155 4.4184C86.037 4.41969 87.1766 4.41578 88.3792 4.5111C89.2069 4.45726 90.1504 4.34093 91.2822 4.37224L91.2243 4.40349L92.401 4.46224L91.4377 4.36068C91.6304 4.33481 91.7254 4.28926 91.9622 4.29475C92.6326 4.33727 93.4024 4.39164 94.1782 4.41863C94.9376 4.44299 95.7022 4.44387 96.3261 4.38979C96.8074 4.13465 97.3627 4.62059 97.9304 4.436C97.8916 4.45813 97.9339 4.49731 97.9114 4.52208C98.7288 4.43822 99.1789 4.40091 99.9082 4.25433C100.242 4.51041 100.537 4.25375 100.678 4.38567L100.582 4.2812C100.908 4.3455 101.462 4.37353 101.514 4.44665L101.729 4.32296L101.943 4.43018C102.23 4.43573 102.658 4.42318 103.081 4.43019C103.52 4.44374 103.954 4.48077 104.287 4.59073C104.864 4.51704 105.75 4.50501 106.716 4.51787C107.207 4.52756 107.698 4.53726 108.204 4.5535C108.71 4.56974 109.215 4.5938 109.67 4.60998C109.79 4.52793 110.3 4.52852 110.707 4.5329L111.356 4.66932C111.719 4.64234 111.922 4.49255 112.43 4.57793C112.444 4.5923 112.459 4.60275 112.44 4.61186C112.835 4.59405 113.344 4.67552 113.572 4.5662C114.06 4.58764 114.621 4.66525 114.663 4.78141C114.516 4.67687 114.785 4.69153 115.082 4.73101C115.379 4.77049 115.704 4.8387 115.704 4.8387C115.704 4.8387 116.091 4.85611 116.797 4.89215C117.487 4.92164 118.496 4.96977 119.707 5.02596C122.13 5.13833 125.428 5.28954 128.91 5.4501C132.377 5.60803 136.027 5.77922 139.129 5.89107C142.233 5.99901 144.804 6.05416 146.158 5.92265C146.295 5.84323 146.825 5.8308 146.498 5.69344C146.874 5.68474 147.205 5.8795 147.225 5.78951C146.555 5.66611 147.227 5.55078 146.518 5.37254L146.89 5.3834C146.921 5.31951 146.408 5.41155 146.416 5.29545L146.446 5.4703C146.102 5.4112 145.893 5.35747 145.739 5.28423C145.491 5.32961 145.524 5.56577 144.712 5.39133L144.898 5.39676C144.33 5.35436 144.439 5.24621 144.294 5.20691L144.427 5.2201L143.83 5.07983C144.267 5.17817 144.748 5.07697 144.429 5.05834C143.689 4.9479 144.653 5.12252 144.148 5.09846C143.83 5.07983 143.833 4.98721 143.794 4.93237C143.594 4.91648 143.41 4.90323 143.209 4.88734C143.144 4.79986 143.609 4.92694 143.277 4.81306L142.64 4.84885C142.301 4.61625 141.934 4.88979 141.392 4.65303C141.886 4.64708 141.273 4.57332 141.287 4.51072L139.997 4.42574C139.837 4.38381 140.278 4.38562 140.092 4.38019C139.787 4.29895 139.747 4.40588 139.614 4.39268C139.443 4.32073 138.643 4.32634 138.523 4.17748C137.539 4.01588 138.351 4.34035 137.431 4.19318C137.232 4.09641 138.055 4.21607 137.589 4.09682C137.319 4.08607 137.049 4.07924 136.778 4.07241C136.804 4.03199 136.791 3.93675 137.122 3.97757C135.912 3.8405 134.853 3.63446 133.854 3.46241C133.346 3.37703 132.871 3.29691 132.374 3.23763C131.894 3.18098 131.408 3.1478 130.916 3.14593C130.5 3.02674 131.046 3.0939 131.179 3.03404C130.836 3.048 130.516 3.03328 130.201 2.999C129.884 2.96863 129.589 2.92132 129.294 2.87011C128.689 2.76504 128.103 2.64696 127.463 2.62143L127.562 2.71026C126.481 2.52507 125.446 2.4443 124.437 2.39226C123.933 2.36819 123.412 2.3415 122.891 2.31481C122.37 2.28812 121.851 2.2536 121.301 2.20209L121.625 2.27422C121.472 2.35101 121.033 2.33746 120.755 2.36584C120.646 2.32005 120.728 2.18317 120.198 2.1956C120.359 2.23362 120.656 2.27701 120.647 2.31614C119.627 2.16494 118.221 2.06548 116.727 1.98418C115.971 1.94026 115.197 1.90545 114.424 1.86672C114.037 1.84932 113.651 1.828 113.265 1.80668C112.879 1.78537 112.51 1.76276 112.141 1.74016C108.496 1.69552 104.204 1.43358 100.702 1.43607C101.245 1.438 101.367 1.656 100.87 1.59672C99.1217 1.20334 99.0265 1.63374 97.455 1.36188C95.5974 1.4615 93.175 1.11822 91.7692 1.4036L91.5386 1.29375C91.1757 1.24376 91.2267 1.32079 90.9364 1.32698L90.8923 1.29562C90.5061 1.2743 90.1459 1.28954 89.8193 1.30612C89.4927 1.32271 89.2171 1.33935 88.9682 1.31167L89.1626 1.43191C88.7695 1.44189 88.7756 1.33754 88.4714 1.40633L88.3825 1.34752L88.0852 1.46198C87.922 1.35482 87.617 1.35055 87.2912 1.36322C86.9655 1.37589 86.6363 1.40421 86.3754 1.35434C85.908 1.39294 85.0544 1.48719 84.1783 1.45226C83.8284 1.34358 82.8409 1.35157 82.104 1.30246C80.9229 1.34023 79.2459 1.39179 77.6337 1.3808L77.9266 1.51681L77.549 1.53334C77.5041 1.50589 77.4065 1.48621 77.4436 1.4719C76.8311 1.32117 76.5978 1.53094 76.1071 1.44427C76.5563 1.56481 76.4267 1.45899 76.6643 1.46057C77.1265 1.52241 77.0625 1.65802 76.4811 1.59734L76.437 1.56598L76.2668 1.64405C76.0189 1.53549 75.6543 1.49332 75.4064 1.38476C74.7722 1.40881 74.3169 1.4696 73.846 1.52385C73.3751 1.5781 72.8887 1.62581 72.1603 1.61454C72.068 1.49441 71.248 1.66697 71.1081 1.45417C70.4575 1.55257 71.5815 1.61909 71.4967 1.77163C71.2583 1.77396 71.1425 1.83645 70.955 1.76187C70.9663 1.71101 70.5231 1.64005 70.6639 1.61803L70.1645 1.64746C70.0825 1.63432 70.1412 1.59917 70.1784 1.58486C69.7542 1.65873 69.1978 1.63852 68.6586 1.61703C68.1195 1.59553 67.5969 1.57667 67.24 1.65323C67.3246 1.7316 67.6633 1.66024 67.748 1.73861C67.0792 1.91917 66.5998 1.6277 65.9068 1.76388L65.8801 1.65427C65.7263 1.73498 65.7901 1.83028 65.1422 1.763C64.8114 1.64521 65.3375 1.64842 65.4542 1.58203C65.1129 1.58816 64.3344 1.64988 64.8225 1.74828C64.5046 1.80271 64.1366 1.69922 63.8532 1.67411C63.9145 1.70419 64.3983 1.74519 64.2825 1.80767C63.9482 1.7825 63.5585 1.77683 63.1836 1.78162C62.8086 1.78641 62.4319 1.79902 62.0906 1.80515C62.0293 1.77507 61.8859 1.73186 61.9239 1.71364C61.6957 1.89993 61.1784 1.62667 60.5355 1.68986Z" fill="#FF7080"/>
<path d="M0.397509 3.65507C0.434193 3.65375 0.470884 3.65244 0.507568 3.65112C0.472421 3.6455 0.43573 3.64681 0.397509 3.65507Z" fill="#FF7080"/>
<path d="M1.81783 3.51828C1.85718 3.50341 1.89954 3.47493 1.92902 3.42322C1.85183 3.44613 1.82688 3.4774 1.81783 3.51828Z" fill="#FF7080"/>
<path d="M2.02738 3.30584L2.28286 3.22759C2.26666 3.21799 2.25047 3.20838 2.21658 3.19594L2.02738 3.30584Z" fill="#FF7080"/>
<path d="M0.0827372 3.75114C0.181688 3.71792 0.283631 3.67115 0.397278 3.6543C0.19367 3.66376 0.112415 3.69982 0.0827372 3.75114Z" fill="#FF7080"/>
<path d="M2.30376 2.64268C2.32255 2.63863 2.33984 2.6414 2.34134 2.63459L2.30307 2.56494L2.30376 2.64268Z" fill="#FF7080"/>
<path d="M7.13391 0.961872C7.20739 1.04373 7.26917 1.09568 7.33695 1.12055C7.41521 1.09803 7.38882 1.05175 7.13391 0.961872Z" fill="#FF7080"/>
</svg>
