<svg width="65" height="66" viewBox="0 0 65 66" fill="none" xmlns="http://www.w3.org/2000/svg">
<path d="M40.1036 19.0528C42.679 18.9283 45.1319 18.5547 47.7073 18.0566C45.1319 17.5585 42.679 17.3094 40.1036 17.0603C35.1979 16.6868 30.2922 16.6868 24.896 17.0603C22.3205 17.1849 19.8677 17.5585 17.2922 18.0566C19.8677 18.5547 22.3205 18.8037 24.896 19.0528C30.2922 19.4264 35.1979 19.4264 40.1036 19.0528Z" fill="#008029"/>
<path d="M41.0847 24.6565C36.4243 23.0377 28.33 23.0377 23.7922 24.6565C28.4526 26.2754 36.547 26.2754 41.0847 24.6565Z" fill="#008029"/>
<path d="M59.8489 2.366C59.6037 2.24147 59.2357 2.24147 58.9905 2.11694H58.4999H58.132H55.3112H32.8678H10.4244H7.60367C7.1131 2.11694 6.74518 2.11694 6.13197 2.11694C4.16971 2.49053 2.57537 3.86034 2.0848 5.72826C1.96216 6.22638 1.96216 6.97355 1.96216 7.34713V8.71694L2.0848 20.049C2.45272 44.8302 2.45272 43.8339 2.45272 44.4566C2.45272 44.9547 2.69801 45.5773 2.94329 46.0754C3.43386 47.0717 4.29235 47.8188 5.39612 48.0679C5.88669 48.1924 6.49989 48.1924 6.86782 48.1924C6.99046 48.1924 11.2829 48.0679 11.0376 48.0679C14.349 47.9434 17.6603 47.9434 20.9716 47.8188C21.4622 48.8151 22.198 49.6868 22.9339 50.4339C23.0565 50.5585 23.1791 50.5585 23.1791 50.683C22.3206 51.9283 21.5848 53.049 20.8489 54.4188C19.8678 56.0377 19.0093 57.6566 18.2735 59.2754C18.1508 59.5245 18.1508 59.7736 18.1508 60.0226C18.2735 60.6453 18.8867 61.0188 19.4999 60.7698H19.6225C20.8489 60.3962 22.0754 60.0226 23.3018 59.649C23.7923 60.8943 24.2829 62.0151 24.7735 63.1358V63.2603C24.8961 63.5094 25.0188 63.7585 25.3867 63.7585C25.9999 64.0075 26.6131 63.7585 26.8584 63.1358C27.5942 61.5169 28.2074 59.7735 28.8206 58.0302C29.3112 56.6603 29.6791 55.4151 30.0471 54.0453C30.7829 54.1698 31.5188 54.2943 32.132 54.2943C32.9905 54.2943 33.9716 54.1698 34.8301 53.9207C35.198 55.2905 35.6886 56.6603 36.0565 58.0302C36.6697 59.7735 37.2829 61.5169 38.0188 63.1358C38.1414 63.3849 38.264 63.6339 38.5093 63.7585C38.9999 64.0075 39.7357 63.7585 39.981 63.2603V63.1358C40.4716 62.0151 40.9622 60.7698 41.4527 59.649C41.8206 59.7736 42.3112 59.8981 42.6791 60.0226C44.6414 60.6453 45.0093 60.7698 45.132 60.7698C45.3773 60.8943 45.6225 60.7698 45.9905 60.6453C46.481 60.3962 46.7263 59.649 46.481 59.1509C45.9905 58.2792 45.6225 57.4075 45.132 56.6603C44.6414 55.7886 44.2735 54.9169 43.7829 54.1698C43.0471 52.8 42.1886 51.5547 41.3301 50.3094C42.0659 49.5622 42.5565 48.6905 43.0471 47.8188C46.3584 47.9434 49.6697 48.0679 52.981 48.0679C54.8206 48.0679 56.6603 48.1924 58.6225 48.1924C60.2169 48.0679 61.6886 46.9471 62.0565 45.2037C62.1791 44.7056 62.1791 44.083 62.1791 43.5849L62.5471 20.7962C62.5471 19.4264 62.6697 10.7094 62.6697 7.2226C62.6697 6.97355 62.6697 6.72449 62.6697 6.47543C62.915 4.73204 61.5659 2.98864 59.8489 2.366ZM27.4716 57.532C26.981 58.4037 26.4905 59.1509 26.1225 60.0226C25.8773 59.2754 25.5093 58.4037 25.264 57.6566C25.0188 57.0339 24.4056 56.6603 23.7923 56.9094C23.0565 57.1585 22.198 57.4075 21.4622 57.7811C22.5659 54.9169 23.1791 53.049 23.6697 51.0566C25.3867 52.5509 27.4716 53.6717 29.6791 54.1698C28.8206 55.166 28.0848 56.4113 27.4716 57.532ZM42.5565 54.7924C42.8018 55.6641 43.1697 56.5358 43.5376 57.532C43.5376 57.6566 43.5376 57.6566 43.6603 57.7811C42.9244 57.532 42.1886 57.283 41.3301 57.0339C40.7169 56.7849 40.1037 57.1585 39.8584 57.7811C39.6131 58.5283 39.2452 59.4 38.9999 60.1471C38.5093 59.2754 38.0188 58.4037 37.5282 57.6566C36.7923 56.4113 36.0565 55.2905 35.3206 54.0453C37.5282 53.4226 39.6131 52.3019 41.2074 50.683C41.5754 51.9283 42.0659 53.4226 42.5565 54.7924ZM40.1037 33.1245C42.0659 35.366 43.1697 38.2302 43.0471 41.0943C42.9244 43.9585 41.8206 46.8226 39.7357 48.6905C37.7735 50.683 34.9527 51.8037 32.2546 51.8037C29.4339 51.8037 26.7357 50.683 24.7735 48.6905C22.6886 46.6981 21.5848 43.9585 21.4622 41.0943C21.3395 38.2302 22.4433 35.2415 24.4056 33C26.3678 30.7585 29.1886 29.3886 32.2546 29.0151C29.1886 28.766 25.8773 29.8868 23.5471 32.1283C21.0942 34.3698 19.6225 37.6075 19.6225 40.9698V41.2188C16.4339 41.0943 13.1225 40.9698 9.93386 40.8452C10.0565 38.3547 10.0565 35.8641 10.1791 33.3735L10.4244 25.4037V10.8339L20.8489 10.9585H32.3773C39.7357 10.9585 47.0942 10.9585 54.4527 10.8339C54.5754 18.9283 54.8207 32.6264 55.0659 40.9698C51.632 41.0943 48.198 41.2188 44.764 41.3434C44.764 41.2188 44.764 41.2188 44.764 41.0943C44.6414 37.732 43.1697 34.3698 40.7169 32.2528C38.264 30.0113 35.0754 28.8905 32.0093 29.1396C35.198 29.3886 38.1414 30.883 40.1037 33.1245ZM61.198 44.9547C60.9527 46.2 59.9716 47.0717 58.7452 47.3207C57.0282 47.4452 55.0659 47.4452 53.2263 47.4452C49.915 47.5698 46.6037 47.5698 43.2923 47.6943C44.3961 45.8264 44.8867 43.5849 44.8867 41.4679C48.4433 41.5924 52.1225 41.7169 55.6791 41.8415C55.9244 41.8415 56.1697 41.7169 56.1697 41.4679C56.2923 39.2264 56.2923 39.7245 56.5376 25.5283C56.6603 20.2981 56.7829 14.9434 56.7829 9.71317C56.7829 9.09053 56.2923 8.59242 55.6791 8.59242C47.9527 8.46789 40.2263 8.46789 32.4999 8.46789H20.9716C20.8489 8.46789 9.19801 8.59242 9.32065 8.59242C8.70744 8.59242 8.21687 9.09053 8.21687 9.71317L8.46216 25.5283L8.70744 33.4981C8.70744 36.1132 8.83008 38.7283 8.95272 41.4679C8.95272 41.7169 9.19801 41.8415 9.32065 41.8415C12.632 41.7169 16.0659 41.5924 19.3773 41.4679C19.3773 43.5849 19.9905 45.8264 20.9716 47.6943C13.8584 47.4452 12.1414 47.4452 8.21687 47.3207H6.86782C6.37725 47.3207 6.00933 47.3207 5.6414 47.1962C4.53763 46.6981 3.67914 45.5773 3.67914 44.332C3.67914 43.9585 3.67914 43.4603 3.67914 42.9622L4.04706 20.1735L4.16971 8.84147C4.16971 7.96977 4.16971 6.84902 4.29235 6.35091C4.53763 5.35468 5.39612 4.73204 6.37725 4.60751H7.60367H10.4244L32.8678 4.73204L55.3112 4.60751H58.132H58.4999H58.7452C58.8678 4.60751 59.1131 4.60751 59.2357 4.73204C59.481 4.85657 59.8489 4.98109 60.0942 5.23015C60.5848 5.60374 60.9527 6.22638 60.9527 6.97355V7.59619C60.9527 7.72072 60.9527 9.8377 60.9527 9.71317L61.0754 21.0452L61.3206 43.7094C61.3206 44.2075 61.3206 44.5811 61.198 44.9547Z" fill="#008029"/>
</svg>
