<svg width="178" height="15" viewBox="0 0 178 15" fill="none" xmlns="http://www.w3.org/2000/svg">
<path d="M71.6521 14.9614C70.5546 14.9039 69.3696 14.7805 68.1452 14.6813C66.941 14.5767 65.7176 14.491 64.5216 14.494C64.4772 14.1832 63.7937 14.1457 63.1683 14.0585L62.4966 14.4435L62.0935 14.297C61.6685 14.4034 62.4303 14.3857 61.7804 14.5177L61.9261 14.2661C61.6685 14.4034 60.2783 14.2935 60.8186 14.6162L58.5221 14.5214C58.0055 14.5081 58.7435 14.1809 58.0273 14.2551C57.7262 14.3628 58.0962 14.3466 57.8386 14.4839C56.7742 14.5892 56.593 14.3766 56.4516 14.1466C56.3107 13.9233 56.2098 13.6825 55.3055 13.7245L55.3511 13.781C55.2594 13.6613 54.7428 13.648 54.8211 13.5928C55.6374 13.2104 54.7562 13.8229 55.5859 13.6154C56.0757 13.2789 55.2813 13.4083 55.7156 13.1552C55.1663 13.2536 55.2545 13.0585 54.983 13.0142C54.1098 13.192 53.6 12.9984 52.7925 13.2274C52.7009 13.1077 52.9425 12.7618 52.4233 12.7149C51.6159 12.9439 52.1128 12.9693 51.4163 13.0314L51.6486 12.8322C51.1537 12.8337 51.1376 12.8929 51.0003 12.9844C50.5241 12.9603 51.0397 12.6924 50.2619 12.7694L50.2779 12.9779C49.9608 12.8771 49.7354 12.896 49.1141 12.8625C48.9374 12.9783 49.2058 12.9823 49.4312 12.9634C48.6264 13.226 49.068 12.7993 48.8426 12.8182C49.0224 12.7428 49.5163 12.7279 49.6247 12.5274C49.2749 12.5382 49.4154 12.2193 48.8334 12.4294L48.8494 12.6379C48.4836 12.4403 48.9117 12.3742 48.0878 12.3879C48.1095 12.4027 48.01 12.4498 47.9515 12.4929C47.9096 12.2157 46.9535 12.3882 46.27 12.3508L46.3156 12.4073C46.1643 12.3172 46.295 12.1382 46.1302 12.1409C46.681 12.0627 46.6764 12.0022 47.0335 11.8177C46.0027 12.0925 46.8974 11.3872 45.7926 11.5033C45.6153 11.6123 45.5857 11.7644 46.0112 11.6647C45.7286 12.0146 45.2964 12.2946 45.5378 12.4842C45.3445 12.3847 45.0704 12.3067 44.9165 12.4507L45.326 12.1425C45.1591 12.1183 44.9741 12.1265 44.8487 12.105C45.1017 11.9071 45.7557 11.8289 45.5365 11.6608C45.2164 11.5196 44.754 11.9449 44.9084 11.8076C44.4613 11.6248 45.191 11.4577 44.3899 11.4997C44.4127 11.5279 44.4385 11.5965 44.5396 11.5696C43.8856 11.6478 43.5168 11.4098 42.7601 11.7625C42.6844 11.8513 42.5071 11.9604 42.7331 11.9482L42.8113 11.893C42.8558 12.2038 42.5139 11.7801 42.107 12.1219C42.4844 11.9321 41.761 11.9122 41.4314 11.9176L41.9103 11.7076C42.0997 10.95 41.2018 12.1505 40.4246 11.9664C40.0785 11.7566 40.7516 11.9273 40.6547 11.7403C40.1801 11.7364 39.6991 11.9195 39.2743 11.7582C38.9701 11.8255 38.4197 11.9105 37.9637 12.1488C37.788 12.0102 36.7045 12.1343 36.9113 11.8732C37.87 11.7344 37.0599 12.1975 38.3207 11.9643L38.5478 11.6978C38.0291 11.6576 37.6224 11.464 37.1312 11.5126C37.2727 11.4749 37.4126 11.417 37.4701 11.3605C36.9416 11.1924 37.1687 10.926 36.3842 10.9154C35.9053 11.1255 36.3597 11.1348 36.6116 11.1912C35.8783 11.3112 36.1338 11.1469 35.3493 11.1364C34.972 11.3262 35.827 11.1807 35.5534 11.3772L34.9228 11.2226C34.9031 11.2348 34.8834 11.2469 34.8435 11.2644C35.3131 10.9332 34.2217 11.2242 33.9621 11.0669C32.9196 10.9192 33.525 10.4763 33.4371 10.1359C33.1323 10.1966 32.9323 10.2774 32.8566 10.3662C33.3645 10.2651 33.1245 10.3634 33.0499 10.4657C32.755 10.3864 31.7046 10.6733 31.6548 10.8307C31.2704 10.6586 32.1595 10.6893 32.0042 10.5454C31.7342 10.5213 31.4637 10.4904 31.2134 10.4541C31.6141 10.2993 31.9244 10.3127 31.7659 10.1284C31.5115 10.0383 31.3058 10.0451 30.8478 9.98872C30.7519 10.0829 30.2466 10.2176 30.6 10.2539C30.2725 10.2862 29.9393 10.2446 30.1109 10.0616C30.8478 9.98872 29.5964 9.80746 30.4266 9.60674C30.181 9.63103 29.9354 9.65532 29.6898 9.67962C29.7939 9.69304 29.6167 9.80207 29.8224 9.79528C29.2212 10.0242 29.5851 9.65946 29.4582 9.61779C29.212 9.63535 28.7545 9.58571 28.5347 9.67861C28.5275 9.58443 28.0529 9.58054 27.7523 9.69499C27.6223 9.61296 28.0487 9.52672 28.1249 9.44463L27.3539 9.34126C27.0544 9.46916 26.278 9.83402 26.2837 9.90802C26.2495 9.73177 26.9528 9.48938 26.515 9.42762C26.2495 9.73177 25.5744 9.53419 25.3147 9.91235C24.7073 10.0605 24.0379 9.93695 23.8001 9.7944C23.9665 9.54409 24.4359 9.74846 24.8112 9.53173C24.3676 9.39597 24.4133 9.18472 24.4403 8.99903C24.4876 8.80796 24.5166 8.64919 24.0404 8.62512L24.3482 8.60484C24.1255 8.38963 24.1286 8.43 24.1935 8.1999C23.8032 8.4893 22.2604 8.81132 21.6252 8.59624C21.8206 8.45491 22.5409 8.43451 22.8322 8.19896C22.6845 8.15595 22.5566 8.10083 22.4089 8.05782C22.3276 8.07264 22.2907 8.13051 22.2943 8.1776C22.0327 7.99335 20.7807 8.34085 21.2705 8.00434L20.0547 8.28725L20.5605 8.15928C20.7559 8.01795 20.3321 7.87007 20.3472 7.79742C20.1421 7.54319 19.7347 7.61058 19.1238 7.71167C19.4264 7.62413 20.1333 7.42882 19.8344 7.29571C18.9802 7.72248 18.6975 7.26242 18.2606 7.48186C18.1129 7.43885 17.561 7.50359 17.8984 7.33127L17.3827 7.59917C18.0964 7.22357 17.5093 7.09862 17.2073 6.92515C16.278 7.44747 16.8239 6.7665 15.6998 7.16913C16.3322 6.80835 15.2212 6.84367 15.7545 6.53674C15.4783 6.43188 14.8429 6.75229 14.5398 6.83311L14.6507 6.66624C14.1641 6.77537 13.5138 6.63295 12.9366 6.63581L13.2368 6.24688L12.832 6.34791C12.9486 6.25504 12.7741 6.12997 13.1617 6.07469L12.9529 6.04111C13.6292 5.71665 12.899 5.87698 12.8598 5.63346C12.6763 5.66177 12.5177 5.74524 12.5021 5.81117C12.3332 5.76009 12.0383 5.94854 11.7144 6.02803C12.0202 5.98084 12.3365 5.26496 13.12 5.26203C13.4408 5.14219 13.3652 4.96327 13.0771 4.97143L12.3542 5.22594L12.8212 4.86118C12.6466 4.7361 12.1424 4.88425 11.8714 4.84666C12.0429 4.93137 11.1415 5.54921 10.6115 5.361C10.8073 5.49414 10.6165 5.69603 10.6253 5.81039C10.4792 5.78756 10.3761 5.78759 10.2869 5.96925C10.0424 5.73925 10.5377 5.74449 10.1937 5.56161C9.6568 5.82145 9.35107 5.86862 8.79093 5.82573L9.48481 5.73C9.54388 5.69366 9.56255 5.66809 9.58122 5.64252C9.74702 5.65323 9.8683 5.6209 10.1088 5.52933C10.0243 5.5038 10.3193 5.0476 9.89644 5.18093C11.1972 4.93028 9.83345 4.62796 10.647 4.47971C10.7637 4.38684 10.5077 4.27659 10.1869 4.39643C10.1075 4.70592 9.27381 4.5918 8.93848 4.79103C8.97065 4.67262 9.63289 4.70202 9.66196 4.54325C9.48996 4.4518 9.00283 4.55421 8.71678 4.58928L8.70224 4.66866L8.12499 4.67153C8.36134 4.52614 8.90124 4.57442 8.764 4.39821C8.55983 4.42518 8.42309 4.25569 8.20387 4.35531C7.95298 4.58008 7.32851 4.77402 7.48287 4.90448C7.31086 4.81305 6.73319 4.54144 7.52709 4.40531L7.27324 4.32196C7.66137 4.2734 8.52518 4.2422 8.11694 4.0284L7.99722 4.0809C8.03042 3.97595 8.06361 3.87099 8.09683 3.76604L7.6491 3.84421C7.80924 3.78092 7.88595 3.70555 7.7585 3.65716C7.55691 3.71776 7.37037 3.70571 7.15113 3.80534C6.82992 3.65071 7.15124 3.53759 7.26786 3.44472C7.11608 3.34789 6.91189 3.37486 6.67813 3.55387C6.34237 3.47863 5.93413 3.26483 5.4636 3.31475C5.38183 3.0551 5.64756 3.29317 5.85494 3.03881C5.20612 3.18432 4.80819 3.10505 4.54863 2.94771C4.28858 2.78364 4.12648 2.55227 3.92911 2.39895C4.97803 2.09186 3.8794 2.28863 4.61278 1.90092C4.44067 2.07723 3.4199 1.94433 3.63067 2.27256L3.45198 2.09367C2.75913 2.20286 3.54302 2.47441 2.58434 2.61328C2.30303 2.44115 3.08931 1.93636 2.38409 1.8841C2.12804 2.04159 2.10319 1.98644 2.07833 1.93128C2.05348 1.87613 2.00791 1.81963 1.71093 1.98117C1.55594 2.11173 1.72331 2.14263 1.76991 2.21258L1.58543 2.22743C0.738838 1.94514 2.15196 1.81555 2.24795 1.45359C1.93975 1.19939 1.42559 1.48747 1.10377 1.59386C0.919291 1.60871 0.825038 1.45536 0.877943 1.33829C0.735327 1.6303 1.73031 1.42683 2.02213 1.19802C1.10954 1.40011 1.38022 0.895481 1.55284 0.7259C2.89338 0.725498 1.98079 0.927587 3.35865 0.876045C3.20366 1.0066 2.52267 1.27052 3.12529 1.32954C3.25131 1.09001 3.50621 1.18681 3.67047 1.17734C3.22583 1.29588 3.72585 1.36165 3.69315 1.47334C4.09945 1.39248 4.35972 1.02106 4.86231 1.12047L4.04655 1.50956C4.31548 1.52024 4.64256 1.21338 4.72176 1.43939C5.03121 1.17155 5.48463 1.16738 5.23911 0.923921C6.4496 0.841487 5.52598 1.43781 5.5699 1.74187C5.58755 1.70284 5.70728 1.65033 5.72491 1.61131C5.56992 1.74186 5.71912 1.80506 5.76625 1.88173C5.99424 1.89647 6.03053 1.83187 6.06633 1.76055C6.10158 1.68251 6.11561 1.5964 6.27781 1.56002C6.38609 1.62726 6.51457 1.68911 6.64306 1.75096C6.68348 1.74019 6.7037 1.7348 6.72391 1.72941C6.71092 1.82898 6.73732 1.90432 6.97934 1.83293C7.15143 1.65663 7.38828 1.51798 7.54328 1.38742L7.35035 1.83013C7.58722 1.69148 8.19138 1.77068 8.1127 1.55139L8.6121 1.87819L9.25473 1.65196C9.30443 1.76227 9.18472 1.81478 8.93343 1.76507C9.26659 1.80668 8.87402 2.60467 9.90541 2.06886C9.93686 2.47922 10.3074 2.46969 10.6254 2.8517C10.6758 2.43325 11.8561 2.76388 11.5857 2.46527C12.1428 2.46779 11.5877 2.75993 11.7218 2.89578C12.1944 2.87276 12.6671 2.582 12.6325 2.39903L12.6495 2.62102L12.749 2.5739L12.6639 2.80938C13.2381 2.76616 13.3055 2.5697 13.6408 2.63822L13.1857 2.88996L13.6754 2.82119C13.3722 2.90201 13.4214 3.00559 13.5929 3.09031L13.6924 3.04319L13.8463 3.16692C13.9117 2.94355 14.1784 3.19508 14.4314 2.99722C14.663 3.05904 14.6635 3.06577 14.965 3.23252L14.5623 3.36046C14.771 3.66178 15.1018 3.13425 15.5241 3.26195L15.1649 3.41948C15.7801 3.3722 15.9339 3.49594 16.067 3.61834C16.1799 3.74612 16.2524 3.88468 16.6836 3.85898C16.5095 3.74064 17.0314 3.55346 16.9319 3.60058C17.1728 3.78349 17.9059 3.93127 17.8493 4.269C18.5547 4.05352 18.7754 3.97407 19.4361 3.98329C19.7122 4.08816 19.6946 4.12718 19.4816 4.30753C19.9956 4.2872 20.2261 4.60331 20.6651 4.41078C20.41 4.58173 20.9982 4.45239 20.9085 4.62733L21.1096 4.55999L20.6903 4.74041C22.0926 4.46956 21.1389 5.21119 22.422 4.99957L22.4365 4.92018L22.5287 5.04663C22.7293 4.97257 22.7443 4.89991 22.9423 4.79221L24.1149 5.02193L23.606 5.10954C23.7972 5.18214 23.5872 5.40286 24.0987 5.34889C24.2139 4.96808 24.4961 5.42142 24.9967 5.22618L24.9046 5.09973C25.2004 5.19248 25.2004 5.19248 24.8013 5.36751C25.1023 5.52753 25.8103 5.07793 25.8118 5.36586L25.519 5.31348C25.2164 5.40102 25.108 5.60153 25.3168 5.6351C25.4184 5.61489 25.7236 5.56098 25.6164 5.50719C25.8132 5.65379 26.5154 5.66569 26.5236 5.77333C26.8314 5.75305 27.0268 5.61172 27.0212 5.53772C27.4371 5.85243 27.416 5.57662 27.832 5.89133L28.03 5.78364L28.0434 5.95854L28.8564 5.80357L28.4527 5.91806C28.6641 5.98527 28.6724 6.0929 29.0843 6.08605L29.2766 5.90436C29.8093 6.1262 30.5887 5.80171 30.8415 6.13935C30.943 6.11913 30.9379 6.05186 30.9348 6.0115C31.086 6.36934 31.951 5.8161 32.0032 6.2278C32.0607 6.17127 32.2623 6.11066 32.3209 6.06759L32.4151 6.22094L32.8106 5.99882L32.4462 6.35683L33.0505 6.16828L32.9571 6.29613C34.0434 5.9379 33.9075 6.31737 34.9206 6.08161L34.3422 6.33876C34.3499 6.70742 35.1152 6.73679 35.9801 6.71904C36.8656 6.70263 37.831 6.65121 38.261 6.87982L38.6363 6.66309C38.6652 6.77206 38.6947 6.88776 38.7237 6.99673C39.3326 6.86873 38.873 6.79217 39.1747 6.69117C39.5611 6.89019 38.8304 7.04379 39.4201 7.20238C40.0518 7.10262 39.5922 7.02607 39.5637 6.92383C40.0321 7.11474 40.7533 7.37555 41.4497 7.31344C41.4109 7.3444 41.3725 7.38209 41.3119 7.39825C41.5714 7.5556 42.3326 7.53115 42.8124 7.60231C42.97 7.50539 42.885 7.47312 42.7996 7.43413C43.0063 7.4408 43.354 7.40302 43.3224 7.52816L43.4712 7.31688C43.6981 7.31815 43.9095 7.38536 44.1194 7.43239C44.3489 7.4673 44.5769 7.48204 44.8158 7.37029C44.6158 7.45108 44.3602 7.6153 44.6924 7.64346C45.4522 7.33108 45.3504 7.88679 46.1868 7.76679C46.2625 7.67797 45.9075 7.62157 46.0314 7.62288C46.4599 7.56354 46.4122 7.74789 46.4634 7.87839L46.6179 7.7411L47.5495 8.05566C48.3093 7.74328 48.6355 8.23293 48.9869 7.9745C49.4637 8.0053 48.3558 8.08098 48.8584 8.1804C49.2408 8.05784 49.2594 8.30002 49.6134 8.07522L49.5906 8.04697L49.9657 8.09799L50.0715 7.86384C50.3456 7.9418 50.2196 8.18133 49.9641 8.34555C50.4937 8.25929 50.7932 8.39913 51.2741 8.216L51.2487 8.15411C51.6467 8.23338 52.2576 8.13228 52.808 8.04736C53.3583 7.96242 53.8289 7.9125 53.8863 8.12372C53.9873 8.09678 54.0661 8.04832 53.962 8.0349L54.5625 8.06701L54.6937 7.89475L55.234 8.2175L55.4113 8.10846C56.1129 8.11363 57.03 8.23984 57.7798 8.33514L57.7342 8.27864C58.3503 8.51257 58.7623 8.23797 59.2286 8.40198C59.2468 8.36968 59.2457 8.35623 59.225 8.35489L59.8059 8.39911L59.8588 8.28204C59.9203 8.54708 61.615 8.05413 61.0309 8.23729C61.1024 8.3624 61.3407 8.51167 61.1867 8.65568C61.8298 8.70392 61.5687 8.5264 62.1403 8.44954C62.6362 8.4615 62.4039 8.6607 63.2237 8.59318L63.3803 8.4828C63.6513 8.52039 63.7196 8.60514 64.1145 8.64404L64.0689 8.58754C64.3787 8.86193 65.4499 8.30862 65.2207 8.81593C65.6482 8.74314 66.0887 8.83854 66.4219 8.6124C66.7385 8.70649 67.053 8.77367 67.3468 8.83951C67.6608 8.89996 67.995 8.95503 68.3504 9.01815C69.0449 8.6614 68.4971 9.04771 69.349 8.86178L69.0132 9.05428C70.1951 9.13735 72.368 8.69538 73.6152 8.82283L73.9511 8.63033L73.9059 8.84831C74.7288 8.82115 75.6351 8.80608 76.5005 8.79505C77.3658 8.78403 78.1903 8.77705 78.7893 8.78898C79.0245 8.8979 79.2705 9.14808 80.0084 9.08866L79.9857 9.06041C80.9235 9.18795 81.9624 9.28855 83.316 9.18858C83.3512 9.11053 83.573 9.04453 83.5072 8.99342C83.4828 9.21274 84.1892 9.01071 84.4571 9.00794L83.9321 9.15476C84.0082 9.34041 84.7581 9.16796 85.139 9.02523L85.3824 9.24177C85.4431 9.22561 85.5436 9.19195 85.6032 9.16233L85.5493 9.26594L86.2101 9.00742C86.2759 9.05852 86.8997 9.12561 86.7742 9.37187C86.953 9.28301 87.5464 9.22094 87.2334 9.17395L89.3518 9.09662L88.9051 9.18824C88.5899 9.38209 89.0324 9.50439 89.4584 9.41142C89.261 9.2581 89.8088 9.13954 90.1892 8.99007C90.3208 9.09229 89.7077 9.16647 89.6953 9.27277C89.8496 9.40323 90.4937 9.46493 90.7963 9.37739L90.7078 9.29803C91.0839 9.3625 91.7598 9.03131 92.194 9.04598C92.3914 9.19931 92.8956 9.05115 92.3441 9.39038C92.8442 9.45615 92.8837 9.16418 93.1283 9.12643C93.1816 9.28384 94.1833 9.16782 94.5212 9.00223C94.3542 9.24581 94.8248 9.19589 95.274 9.1379C95.7233 9.07991 96.1716 9.00846 95.9606 9.21573L96.7877 8.97464C96.6519 9.08635 96.4026 9.3313 96.7565 9.37425C97.3037 9.24896 97.4748 9.0592 97.7339 8.94207L97.4353 9.35118C98.8402 9.11395 100.176 9.04628 101.512 8.99206C102.869 8.93245 104.246 8.88091 105.714 8.65443C106.708 8.70526 107.833 8.85831 109.207 8.74622L109.141 8.69511L110.572 8.53323L109.393 8.75828C109.623 8.79319 109.731 8.86716 110.018 8.84554C110.835 8.73766 111.774 8.60418 112.716 8.51779C113.638 8.43678 114.563 8.39614 115.31 8.45781C115.857 8.87474 116.595 8.00534 117.257 8.29577C117.213 8.25945 117.269 8.18947 117.245 8.14777C118.223 8.25108 118.762 8.29262 119.624 8.50899C120.063 8.0487 120.385 8.47781 120.573 8.2423L120.443 8.42801C120.846 8.30007 121.52 8.22318 121.593 8.09399L121.835 8.29708L122.109 8.10056C122.458 8.07624 122.973 8.07609 123.486 8.0423C124.019 7.99639 124.549 7.91012 124.966 7.70279C125.654 7.80081 126.725 7.77627 127.895 7.70461C128.489 7.66272 129.084 7.62083 129.699 7.56683C130.314 7.51282 130.927 7.44537 131.48 7.39407C131.614 7.52993 132.231 7.50283 132.724 7.47443L133.528 7.20509C133.963 7.23322 134.188 7.48206 134.815 7.30831C134.833 7.28274 134.852 7.2639 134.831 7.2491C135.306 7.25972 135.932 7.0927 136.193 7.27022C136.787 7.20815 137.475 7.04514 137.542 6.84196C137.351 7.03038 137.678 6.99126 138.042 6.90774C138.407 6.82421 138.809 6.68954 138.809 6.68954C138.809 6.68954 139.28 6.63962 140.139 6.54114C140.978 6.45478 142.205 6.31986 143.677 6.16066C146.623 5.84224 150.632 5.41184 154.866 4.9558C159.08 4.50515 163.519 4.02214 167.287 3.66984C171.055 3.32427 174.172 3.0973 175.793 3.25558C175.948 3.38604 176.587 3.38047 176.173 3.63489C176.626 3.63071 177.053 3.27673 177.065 3.43145C176.238 3.67927 177.035 3.84452 176.154 4.18922L176.604 4.15142C176.633 4.26039 176.025 4.12737 176.02 4.32785L176.079 4.02375C175.655 4.14363 175.395 4.24731 175.199 4.38191C174.905 4.31607 174.977 3.90568 173.972 4.24908L174.197 4.23018C173.504 4.33264 173.621 4.51424 173.441 4.58964L173.604 4.55999L172.862 4.83334C173.404 4.64078 173.972 4.7913 173.584 4.83986C172.674 5.06886 173.864 4.71733 173.25 4.78479C172.862 4.83334 172.854 4.99346 172.799 5.09035C172.554 5.12809 172.33 5.16045 172.085 5.1982C171.994 5.35296 172.574 5.10925 172.157 5.32331L171.392 5.29394C170.949 5.71385 170.543 5.25921 169.855 5.69669C170.452 5.68171 169.701 5.8407 169.709 5.94834L168.138 6.16139C167.938 6.24218 168.472 6.21646 168.246 6.23536C167.867 6.39155 167.832 6.20858 167.669 6.23822C167.452 6.37149 166.486 6.40273 166.32 6.66649C165.108 6.99649 166.134 6.39341 165.002 6.69514C164.748 6.87282 165.76 6.6236 165.18 6.85385C164.852 6.88624 164.524 6.9119 164.196 6.93756C164.222 7.00617 164.193 7.17168 164.599 7.0841C163.116 7.38324 161.807 7.794 160.576 8.14284C159.95 8.31659 159.364 8.47957 158.756 8.60757C158.167 8.73019 157.575 8.81244 156.979 8.84087C156.46 9.06841 157.13 8.92425 157.282 9.02107C156.869 9.01447 156.48 9.0563 156.094 9.13176C155.707 9.20049 155.344 9.29748 154.98 9.40119C154.234 9.61399 153.509 9.84832 152.731 9.92525L152.863 9.76644C151.531 10.1422 150.267 10.335 149.04 10.4767C148.427 10.5441 147.793 10.617 147.159 10.6898C146.526 10.7626 145.893 10.8489 145.221 10.9662L145.623 10.8248C145.448 10.6997 144.916 10.7456 144.583 10.7108C144.445 10.7956 144.525 11.0283 143.886 11.0339C144.086 10.9598 144.451 10.8696 144.446 10.8023C143.191 11.1162 141.477 11.3602 139.658 11.5774C138.739 11.692 137.798 11.7919 136.858 11.8984C136.387 11.9484 135.917 12.005 135.447 12.0617C134.977 12.1183 134.528 12.1763 134.078 12.2343C129.664 12.498 124.436 13.1709 120.201 13.3458C120.859 13.3146 121.036 12.9311 120.427 13.0591C118.258 13.8294 118.202 13.0894 116.264 13.6403C114.031 13.5629 111.054 14.2809 109.392 13.8589L109.098 14.0608C108.653 14.1659 108.725 14.03 108.374 14.0342L108.317 14.0907C107.847 14.1473 107.413 14.1394 107.02 14.1274C106.628 14.1154 106.296 14.1007 105.992 14.1613L106.243 13.9433C105.769 13.9461 105.762 14.1264 105.404 14.0229L105.288 14.1293L104.944 13.9464C104.732 14.1402 104.363 14.1632 103.97 14.1579C103.578 14.1526 103.184 14.1205 102.861 14.2201C102.301 14.1772 101.282 14.0578 100.217 14.1631C99.7792 14.3691 98.5858 14.4057 97.6877 14.5285C96.2643 14.5235 94.2429 14.5201 92.2914 14.6216L92.664 14.3712L92.2096 14.3619C92.1515 14.4117 92.0308 14.4508 92.0738 14.4736C91.3125 14.7658 91.0587 14.4147 90.4534 14.5898C91.0131 14.3582 90.8421 14.548 91.1296 14.5331C91.6971 14.4024 91.6381 14.171 90.9266 14.3058L90.8691 14.3623L90.6738 14.2359C90.3592 14.4365 89.9124 14.5281 89.5978 14.7287C88.834 14.7195 88.2915 14.6376 87.7293 14.5678C87.1671 14.498 86.5852 14.4403 85.7028 14.4971C85.5747 14.7097 84.6063 14.453 84.4082 14.8284C83.6346 14.6914 85.0032 14.5188 84.9214 14.2592C84.6333 14.2673 84.5017 14.1651 84.2649 14.3038C84.2716 14.3912 83.7259 14.5367 83.8932 14.5676L83.2932 14.5422C83.1921 14.5691 83.2584 14.627 83.3014 14.6498C82.7983 14.5437 82.1226 14.6071 81.4676 14.6719C80.8126 14.7367 80.1778 14.7961 79.7566 14.6818C79.8696 14.5419 80.2696 14.648 80.3826 14.5081C79.5982 14.2298 78.9787 14.7588 78.1591 14.5585L78.1118 14.7496C77.9367 14.6178 78.027 14.4496 77.2341 14.5992C76.8179 14.82 77.4548 14.7875 77.5869 14.8964C77.1749 14.9033 76.2417 14.8363 76.8454 14.641C76.4682 14.5631 76.0091 14.761 75.6629 14.819C75.7411 14.7638 76.3319 14.6681 76.2003 14.5658C75.7925 14.6265 75.3204 14.6563 74.8675 14.6672C74.4146 14.6781 73.9607 14.6755 73.5488 14.6824C73.4705 14.7375 73.2912 14.8197 73.3347 14.8493C73.084 14.5385 72.4211 15.0379 71.6521 14.9614Z" fill="#FF7080"/>
</svg>
