<svg width="251" height="376" viewBox="0 0 251 376" fill="none" xmlns="http://www.w3.org/2000/svg">
<g clip-path="url(#clip0_7_960)">
<path d="M79.0983 28.7354C79.1383 28.6148 79.2183 28.5344 79.3384 28.4138C79.2584 28.5746 79.1783 28.655 79.0983 28.7354Z" fill="#FF7800"/>
<path d="M104.643 74.8982C104.643 74.697 104.643 74.4555 104.643 74.2543C104.723 74.6567 104.683 74.8177 104.643 74.8982Z" fill="#FF7800"/>
<path d="M54.88 8.08949C54.9203 8.12974 54.88 8.16998 54.88 8.21023C54.4368 7.96875 53.8727 7.64678 52.9057 7.12358C53.5906 7.44555 54.2353 7.76752 54.88 8.08949Z" fill="#FF7800"/>
<path d="M107.141 186.783L107.383 186.099C107.262 186.38 107.262 186.622 107.141 186.783Z" fill="#FF7800"/>
<path d="M113.346 119.974C113.225 120.175 113.145 120.537 113.105 120.9C113.064 120.457 113.105 120.135 113.346 119.974Z" fill="#FF7800"/>
<path d="M36.9493 8.85591L37.9164 8.57245C37.7955 8.81542 37.4732 8.9774 36.9493 8.85591Z" fill="#FF7800"/>
<path d="M8.38236 4.34583C8.38236 4.30583 8.38235 4.26584 8.42205 4.22585C8.50145 4.26584 8.46176 4.30583 8.38236 4.34583Z" fill="#FF7800"/>
<path d="M19.9455 1.24763C20.1872 1.28813 20.5096 1.40961 20.7916 1.5311C20.429 1.4906 19.9858 1.4906 19.9455 1.24763Z" fill="#FF7800"/>
<path d="M21.1945 1.69134C21.0737 1.65084 20.9125 1.56985 20.7916 1.52936C21.0334 1.56985 21.2348 1.61035 21.1945 1.69134Z" fill="#FF7800"/>
<path d="M248.371 370.708C248.411 371.634 248.008 372.438 247.686 373.243L248.371 370.708Z" fill="#FF7800"/>
<path d="M49.924 193.464L49.6016 193.504C49.7628 193.383 49.8837 193.423 49.924 193.464Z" fill="#FF7800"/>
<path d="M243.576 371.996L243.697 372.64C243.576 372.398 243.576 372.197 243.576 371.996Z" fill="#FF7800"/>
<path d="M50.0448 16.5814C50.4477 17.4669 52.2207 17.8291 51.8983 18.2718C51.576 17.9901 51.0924 17.7888 50.6895 17.5473C50.2866 17.2656 50.0045 16.9839 50.0448 16.5814Z" fill="#FF7800"/>
<path d="M78.3714 199.34L78.8146 199.219C78.6131 199.259 78.4922 199.3 78.3714 199.34Z" fill="#FF7800"/>
<path d="M243.576 371.996L243.414 371.271C243.535 371.312 243.616 371.392 243.697 371.473C243.616 371.674 243.576 371.835 243.576 371.996Z" fill="#FF7800"/>
<path d="M157.831 198.092C157.751 198.011 157.711 197.931 157.671 197.85L157.831 198.092Z" fill="#FF7800"/>
<path d="M163.109 200.748C162.827 200.466 162.505 200.185 162.182 199.863C162.787 200.225 163.028 200.507 163.109 200.748Z" fill="#FF7800"/>
<path d="M247.686 373.284L247.283 374.732C247.363 374.209 247.524 373.726 247.686 373.284Z" fill="#FF7800"/>
<path d="M206.223 244.536C206.103 244.375 206.022 244.214 205.941 244.053C206.103 244.254 206.183 244.415 206.223 244.536Z" fill="#FF7800"/>
<path d="M112.702 115.708C112.621 115.587 112.581 115.386 112.54 115.225C112.661 115.185 112.742 115.185 112.702 115.708Z" fill="#FF7800"/>
<path d="M97.8332 153.66C97.8735 154.304 97.39 155.189 96.9065 155.632C97.0273 154.988 97.1885 154.384 97.8332 153.66Z" fill="#FF7800"/>
<path d="M97.7526 126.655C97.8735 126.816 97.9541 127.017 97.9944 127.218C97.8735 127.057 97.7929 126.896 97.7526 126.655Z" fill="#FF7800"/>
<path d="M62.8985 216.404C62.8985 216.444 62.8985 216.484 62.8582 216.525C62.8582 216.565 62.8582 216.565 62.8582 216.605C62.8179 216.645 62.8582 216.645 62.8179 216.645L62.7776 216.686C62.697 216.726 62.697 216.766 62.6164 216.847C62.5359 216.927 62.5762 217.008 62.6567 217.209C62.7373 217.289 62.8179 217.45 62.8179 217.491C62.8179 217.531 62.8582 217.571 62.8582 217.611C62.8582 217.611 62.8582 217.652 62.8985 217.692C62.8985 217.732 62.9388 217.732 62.9388 217.772C62.9388 217.813 62.9388 217.853 62.9791 217.853C62.9791 217.853 63.0194 217.893 63.0194 217.933C63.0597 217.933 63.0597 217.973 63.0597 217.973C63.1403 218.014 63.2208 218.134 63.5029 218.094C63.9864 218.134 64.9535 217.853 65.8802 217.289C66.5652 217.611 67.2905 217.531 68.0158 217.249C68.7814 216.967 69.547 216.525 70.3528 216.001L69.547 214.714C69.7887 214.633 70.0305 214.512 70.2723 214.392C70.514 214.271 70.7558 214.19 70.9975 214.029C71.0781 213.627 70.7961 213.788 70.5946 213.909C70.3528 213.989 70.1514 214.029 70.3931 213.466C70.7558 213.546 71.1184 213.627 71.4811 213.748C71.3602 213.506 72.0049 212.741 72.3675 212.138C72.7302 211.534 72.7705 211.132 71.4811 211.776C72.8914 210.286 74.221 208.636 75.3493 206.906C75.7119 206.342 76.0746 206.302 76.4372 206.262C76.7596 206.222 77.1222 206.141 77.3237 205.376C77.0819 204.893 76.7998 205.698 76.3969 205.336C76.7193 204.209 77.1222 203.485 77.646 202.962C77.7266 202.881 77.7669 202.841 77.8475 202.76C77.9281 202.68 78.0087 202.559 78.0892 202.479C78.2504 202.318 78.4116 202.116 78.5728 201.956C78.8951 201.634 79.2175 201.352 79.5801 201.07C80.9098 199.903 82.3201 198.776 83.0857 196.2L82.723 196.563C82.9245 196.402 83.0857 196.16 83.2468 195.919C83.408 195.677 83.5289 195.395 83.6498 195.154C83.8915 194.671 84.093 194.268 84.2139 194.268C84.778 194.872 84.5362 195.033 84.1333 195.275C83.7304 195.516 83.2468 195.838 83.3274 196.764C84.5765 197.126 84.7377 195.114 85.5839 195.556C85.5839 194.188 86.5509 193.745 86.9942 192.739C86.9539 191.693 87.3165 190.606 87.5986 189.56C87.9209 188.513 88.0821 187.467 87.8403 186.622C88.485 185.857 90.0162 185.253 90.6609 183.362C90.1371 181.712 89.6535 183.402 89.8953 181.43L90.7012 181.349C90.9026 180.585 90.9026 180.223 90.8221 180.062C90.7415 179.901 90.5803 179.941 90.4191 179.941C90.8221 178.291 91.7488 178.854 91.8697 176.641L90.8624 177.607C91.5474 176.158 91.5876 175.474 92.0712 173.34C91.6279 173.3 91.4668 174.145 91.3862 174.789C90.6206 173.381 92.3532 172.938 92.4338 172.254C92.7159 172.495 92.4338 174.025 93.3606 173.461C93.5217 172.375 94.8514 171.409 94.2067 170.443L93.28 171.449C94.3276 169.316 94.4485 170.443 94.6903 167.827C94.6097 167.947 94.4485 167.867 94.2873 167.867C95.5364 166.418 95.2544 164.124 95.5364 161.669L95.2544 162.112C95.6573 161.186 96.3826 160.743 96.4229 160.22C96.6244 161.669 96.9064 161.347 97.5511 161.589C96.6647 159.536 99.4046 158.973 99.2032 155.833C98.7599 155.833 98.1555 156.477 98.4376 157.363C97.0273 158.208 95.9797 158.168 95.0932 159.898C95.5767 158.812 95.9394 157.524 95.3753 157.725L96.5841 157.564C96.7452 156.88 96.7453 156.316 96.8258 155.793C97.5914 155.592 97.7929 157.363 98.5182 155.833C99.1226 154.063 97.4705 154.706 97.9944 154.505C98.7599 152.05 99.3643 153.62 99.2435 151.165C99.1226 151.406 98.8808 151.849 98.9614 152.05C98.6793 150.279 99.6464 147.784 98.3167 147.18C97.9944 147.422 97.5511 147.422 97.5914 148.066H97.7929C96.5438 149.837 98.2361 146.496 96.9467 146.979C97.7123 147.18 97.672 144.725 97.6317 143.639L98.4779 144.041C101.298 140.58 96.7855 144.122 97.3497 140.54C98.0749 138.286 97.5108 141.425 98.2361 140.057C98.1958 139.292 98.0347 138.729 97.9138 138.125C97.7526 137.481 97.672 136.797 97.8735 135.67C97.5511 135.026 97.1079 133.738 96.1408 133.617C96.3423 132.933 96.2617 131.887 96.2617 130.961C96.2617 130.478 96.2617 130.036 96.3423 129.633C96.3826 129.231 96.5035 128.909 96.7452 128.748C97.1885 129.915 96.9064 130.478 96.705 131.122C96.5035 131.766 96.3423 132.41 96.9467 133.778L97.9138 133.014C97.9138 132.048 98.0347 131.001 98.1152 129.995C98.1958 128.989 98.1555 128.063 97.9944 127.379C98.1958 127.661 98.4376 127.741 98.6391 127.581C98.9211 124.884 99.8479 124.039 99.4852 121.383C98.6391 121.061 98.8002 122.63 98.7599 123.757C98.3973 122.912 98.357 122.469 98.3973 121.906C98.3973 121.624 98.4376 121.302 98.4376 120.9C98.3973 120.497 98.357 120.014 98.2361 119.33C97.4705 119.25 98.4376 121.101 97.672 121.423C97.7123 120.457 97.672 119.491 97.7123 118.485C97.672 118.485 97.6317 118.485 97.5511 118.485C98.7599 117.962 97.2691 116.271 97.5108 114.46C97.39 112.367 97.5914 111.12 98.0347 110.073C98.4376 109.027 99.042 108.222 99.3643 106.974C98.9614 106.371 98.5988 106.25 98.3167 106.532C99.0017 107.498 98.5585 107.377 98.2764 107.779C98.2361 106.33 96.6647 104.841 96.2617 105.687C96.3423 103.393 97.0273 106.411 97.2288 104.962C97.1079 103.916 96.8661 102.91 96.6647 101.903C97.3497 102.145 97.672 103.232 97.9138 101.541C97.8332 100.173 97.6317 99.5289 97.2691 97.7581C96.987 98.08 96.2214 97.3958 96.4632 98.6837C96.0603 97.8788 95.8185 96.5507 96.3423 95.947C96.7855 96.8726 96.7855 96.0275 96.8258 95.1421C96.8258 94.2566 96.8661 93.2907 97.5108 93.9347L96.5035 92.1236C96.6244 92.5663 96.2214 92.687 96.4632 93.2907C95.3753 92.9688 96.3826 91.6809 96.3423 90.9967C96.02 90.3528 95.5364 88.6222 95.1335 88.5819C95.2544 87.938 94.7306 86.4891 94.1664 86.3281C94.1261 85.4025 94.7709 86.0867 95.0126 85.7647L94.0859 82.7865C93.5218 82.7865 92.0309 82.9072 91.9503 83.4304C92.1115 82.1828 93.3606 82.6255 92.8368 80.8949C92.1115 82.1425 91.4265 78.8423 90.6609 80.6132C90.4191 80.4119 90.1774 80.09 89.9759 79.7278C89.855 79.5265 89.7744 79.3253 89.6938 79.0838C89.573 78.8423 89.4924 78.6411 89.4118 78.3996C89.0491 77.4337 88.7671 76.3471 88.6462 75.5421C89.1297 74.3348 89.6133 77.0313 90.4191 76.669C89.855 74.4957 90.0968 73.1676 90.3385 71.9602C90.54 70.7931 90.7415 69.7467 89.9356 68.2576L90.4594 68.982C90.1774 66.8892 90.1774 67.1307 90.4191 65.7221C90.0162 66.1648 89.17 65.8831 88.2433 65.0781C87.3165 64.2732 86.3898 62.9451 85.8257 61.3755C86.1883 60.8925 87.518 62.7036 88.0418 61.8987L87.2762 59.7656C87.115 59.6449 87.0747 59.9669 87.0747 60.2486C86.6315 58.2363 84.2945 57.3911 85.1406 56.3447C84.3751 55.9422 83.6498 55.5398 82.8842 55.1776L83.8512 55.6203C84.2139 55.1373 83.3274 53.0445 83.2871 52.5616C83.0454 51.3944 82.6827 50.7102 82.2395 50.187C81.8365 49.6638 81.3127 49.3419 80.7486 48.9394C81.3127 49.0601 82.6424 49.5028 81.9171 47.8125C80.4263 48.6577 79.4592 44.8343 78.7339 45.3172C78.3713 44.6733 77.2431 43.8684 77.8072 43.4257L76.961 44.0696C77.5654 43.6269 77.4848 42.822 77.1222 41.9366C76.7999 41.0511 76.1552 40.045 75.7119 39.1193C75.0269 39.884 74.7449 39.401 74.3822 38.7571C74.0196 38.1534 73.5361 37.3485 72.5287 37.5497C72.9719 36.9863 72.569 36.1813 72.0855 35.4167C71.6019 34.652 71.1184 33.8873 71.4811 33.4044C70.5543 32.1567 69.6678 33.0824 69.1037 33.0421L69.0231 32.1567C68.5396 32.0762 67.774 31.5128 67.0085 30.8286C66.6055 30.4664 66.2026 30.1444 65.7594 29.8224C65.3564 29.5005 64.9535 29.2188 64.5908 28.9773C64.5103 28.3333 64.47 27.6491 64.3491 27.0052L63.5432 26.965C63.5835 26.5625 62.7373 25.5161 63.6641 25.7576L62.9791 25.1941C63.8253 24.188 62.3747 24.0672 61.4479 22.4976C61.0047 22.3769 60.8838 22.6989 61.045 23.0611C60.4003 22.4976 60.2391 23.2623 59.5944 23.2623C59.9168 23.3428 59.7556 22.3769 59.7153 21.5317C59.7153 21.089 59.7153 20.7268 59.9168 20.4853C60.0779 20.2841 60.4003 20.2036 60.9644 20.4853C61.2062 20.3243 61.1256 19.9621 60.8838 19.5597C60.642 19.1974 60.1988 18.795 59.7959 18.634L58.6274 19.2377L58.5871 17.6278C58.1035 17.1046 57.62 16.9437 57.1365 16.8229C56.653 16.7022 56.2097 16.6217 55.7262 16.3802C56.1694 16.7424 56.3306 17.5473 56.0889 18.0706C55.8471 18.5938 55.2427 18.795 54.1145 17.9901C54.6786 18.473 55.0009 18.956 55.2427 19.3987C55.4844 19.8414 55.6456 20.2438 55.8471 20.5658C55.6053 20.4048 55.4039 20.3243 55.3233 20.3646C55.2427 20.4451 55.283 20.6463 55.4442 21.089C54.7189 20.2841 54.6786 20.0426 54.6383 19.8011C54.598 19.5597 54.5174 19.3584 53.7115 18.6742C53.4698 19.1572 53.1474 19.3584 52.7042 19.3584C52.4624 19.3584 52.2207 19.3182 51.8983 19.2377C51.576 19.1572 51.2133 19.0365 50.7701 18.8352C51.2939 18.8755 51.8177 18.8755 52.3415 18.956C52.3415 18.795 52.3415 18.6742 52.3012 18.5535C52.7848 18.7547 53.0265 18.7145 53.3489 18.4328C53.0265 18.1913 52.0192 15.9777 51.3342 16.2997C52.7042 16.179 52.0595 15.4143 51.2939 14.6496C50.5283 13.8849 49.5613 13.2008 50.4477 13.1203C50.4074 12.919 50.0851 12.5971 49.6821 12.3958C49.2792 12.1946 48.836 12.0739 48.6748 12.2751C49.9239 13.8447 46.8616 12.6776 46.8213 13.4825C46.3781 12.8788 48.433 13.4825 47.8286 12.6776C46.9019 12.0739 45.8542 12.3153 45.2095 12.3556L45.5319 12.7178C44.9678 12.5971 44.4037 12.5166 43.8396 12.4361C43.7993 11.8324 45.6931 12.3153 44.4037 11.3897C43.9604 11.3897 42.6308 10.5445 42.5099 10.947C42.8725 11.9129 42.0263 12.5568 43.1143 13.2813C42.671 13.0398 41.6637 12.5166 40.9787 12.0739C40.2937 11.6312 39.9311 11.1884 40.7369 10.9872C40.334 10.8262 39.9311 10.6652 39.5281 10.5445C40.4146 10.4238 42.8725 10.5445 40.4952 9.41761L40.4549 9.61884C39.9713 9.13589 39.4878 8.69318 39.0043 8.21023C38.682 8.29072 38.3596 8.37121 38.0775 8.4517C38.1984 8.21023 37.997 7.88826 37.3523 7.68703C37.0702 7.9285 36.4255 7.84801 36.3449 8.29072C34.4914 7.64678 34.7735 7.20407 34.6123 6.84186C33.5646 6.47964 33.1214 6.60038 33.4438 7.32481C31.9529 7.08333 29.4547 6.3589 28.3265 6.76136C26.4326 5.95644 28.7697 6.60038 27.7623 5.71496C27.2385 6.11742 26.5938 6.27841 25.8282 6.31866C25.0627 6.3589 24.2165 6.27841 23.33 6.15767C21.5168 5.87595 19.5424 5.51373 17.9307 5.39299C18.8171 3.7429 17.0442 5.23201 16.3995 3.78314C16.7622 4.02462 15.9966 4.38684 15.513 4.70881C15.0295 5.03078 14.828 5.35275 16.2383 5.51373L14.5057 5.43324C13.9416 5.91619 14.6669 6.03693 15.3116 6.19792C15.9563 6.3589 16.5204 6.60038 15.6742 7.24432C14.7475 7.24432 13.9416 6.8821 13.0954 6.60038C12.6522 6.43939 12.209 6.3589 11.7657 6.31866C11.524 6.31866 11.2822 6.31866 11.0404 6.3589C10.7987 6.39915 10.5569 6.47964 10.2749 6.60038C11.2016 7.60653 8.50192 6.51989 9.3078 7.64678C9.83162 7.96875 10.3957 7.76752 11.0404 7.72727L10.7181 8.009C9.75104 8.25047 9.18692 8.33097 8.82428 8.25047C8.46162 8.21023 8.34076 8.009 8.26018 7.76752C8.099 7.32481 8.17958 6.64063 7.01106 6.51989C6.36636 6.64063 5.96342 6.76136 5.68137 6.92235C5.39931 7.08333 5.27843 7.28456 5.19783 7.44555C5.07695 7.80777 5.27843 8.16998 5.27843 8.4517C5.11725 8.61269 4.75462 8.73343 4.3114 8.81392C3.86816 8.89441 3.38463 8.93466 3.02199 8.89441C3.86816 8.97491 4.43227 8.61269 4.75462 8.16998C5.07697 7.72727 5.07697 7.16383 4.63374 6.92235C4.2711 7.68703 3.38464 8.009 2.49817 8.08949C1.61171 8.16998 0.644653 8.08949 0.241714 7.96875C0.966995 7.32481 1.53111 6.92235 1.93405 6.68087C2.33699 6.43939 2.65935 6.31866 2.94139 6.23816C3.54581 5.99669 4.06961 5.79545 5.60077 4.62831C5.88283 4.7893 6.08432 5.11127 6.44696 5.35275C6.60814 5.47349 6.8499 5.51373 7.13196 5.51373C7.41402 5.51373 7.81694 5.39299 8.30046 5.19176C6.89018 4.86979 8.26018 4.54782 8.58252 4.2661C8.30046 4.99053 10.1137 4.30634 10.7584 4.46733C11.0002 4.14536 10.6375 3.82339 10.4763 3.50142C10.3152 3.17945 10.3152 2.81724 11.4031 2.57576L12.0075 4.10511C12.4104 3.94413 12.2896 3.66241 12.2896 3.46117C12.2896 3.25994 12.4507 3.09896 13.3775 3.17945C12.8537 2.81724 12.894 2.49527 12.7328 2.25379C12.6119 2.01231 12.2896 1.85133 11.0002 1.89157C12.4104 1.00616 13.6595 1.08665 14.7475 1.44886C15.3116 1.65009 15.8354 1.89157 16.3592 2.0928C16.883 2.33428 17.4472 2.57576 18.0113 2.6965C17.7695 2.616 17.7292 2.37453 17.5277 2.29403C18.0516 2.6965 18.938 2.6965 19.623 2.77699C21.1542 2.45502 18.4142 2.05256 18.8171 1.60985C19.6633 1.65009 20.5095 1.65009 21.3153 1.73059C21.3556 1.69034 21.3959 1.65009 21.3959 1.60985C22.0406 1.85133 22.645 2.05256 22.9271 1.69034C22.2018 1.12689 21.9601 0.603693 21.4362 0.160985C22.3227 0.563447 23.2092 1.00616 24.0553 1.44886C23.8136 0.885417 26.3521 0.804924 24.4986 0.201231L26.473 0.523201L28.4473 0.925663L28.7697 0C29.6964 0.362216 29.6964 0.563447 28.5279 0.482955C28.8906 0.482955 29.4144 0.684186 30.0188 0.885417C30.6232 1.12689 31.2679 1.44886 31.832 1.69034C33.0005 2.1733 33.9676 2.45502 33.887 1.32813C35.3376 2.13305 36.3046 2.57576 37.3925 2.97822C37.9164 3.17945 38.4805 3.42093 39.1252 3.66241C39.4475 3.78314 39.7699 3.94413 40.1325 4.10511C40.4952 4.2661 40.8981 4.46733 41.3011 4.70881C40.0922 3.7429 40.9787 3.7429 41.8651 3.78314C42.7113 3.82339 43.5575 3.98438 42.1472 3.17945C44.041 3.42093 43.9604 4.62831 45.2095 5.39299C46.6198 5.51373 46.5392 4.34659 45.2901 3.38068L46.7004 4.54782L46.7407 4.34659L47.8689 5.55398C49.5613 5.75521 48.6345 4.74905 50.206 5.35275L50.0851 6.3589C50.488 6.3589 50.9313 6.39915 51.3342 6.39915C50.7701 6.60038 51.5357 7.20407 52.543 7.84801L52.6236 7.64678L53.7921 8.5322C53.3086 7.9285 53.6309 8.04924 54.0339 8.21023C54.4368 8.37121 54.9203 8.61269 54.8397 8.12974C55.9277 8.73343 55.968 8.77367 57.7812 10.1823L57.0962 10.5043C59.2318 12.6373 57.7409 9.77983 59.7556 11.108L59.1915 11.6312C60.0779 11.8726 60.8032 12.2751 61.4076 12.7178C62.012 13.2008 62.4956 13.724 62.9388 14.2069C63.382 14.7301 63.8253 15.2131 64.2685 15.6558C64.7117 16.0985 65.1952 16.5009 65.7997 16.7827C64.8326 15.696 65.6385 15.2936 65.5579 15.4545C65.9205 15.857 66.3638 16.34 66.8876 16.7827C67.3711 17.2656 67.9352 17.7486 68.3784 18.312C68.862 18.8352 69.3455 19.3987 69.7484 19.9621C70.1514 20.5256 70.514 21.089 70.7558 21.6525C72.0855 21.4915 72.4481 21.411 74.4628 22.8196C75.5507 24.1477 75.6313 24.4295 75.5104 25.2344C76.961 26.2003 78.3713 29.0175 79.016 28.6151C78.8951 28.937 79.1369 29.2188 79.4592 29.5407C79.7816 29.8627 80.1039 30.2249 80.1442 30.7481L80.5069 30.7079L79.8219 31.0298C80.5874 31.3518 81.1113 31.8348 81.5142 32.358C81.7157 32.5994 81.8768 32.8812 82.038 33.1629C82.1589 33.4446 82.2798 33.7263 82.4007 34.0483C82.6424 34.652 82.8842 35.2154 83.2066 35.7789C83.5692 36.3423 84.0527 36.8253 84.7377 37.2277L84.6168 36.7045L85.0198 37.9119C85.3824 37.9119 85.3018 37.3887 85.6242 37.107L87.2359 39.5218C87.7598 40.3267 88.2433 41.1719 88.7671 41.9768L87.7195 41.2926C88.2433 42.3793 88.0821 43.4257 89.1297 44.4318C89.0089 41.8561 90.0565 46.0819 91.0235 46.0014L90.7012 44.7538C91.4265 46.2831 91.4265 46.2831 90.7012 46.4844C91.1041 47.4905 91.5876 47.6918 91.9906 47.8528C92.3935 48.054 92.7562 48.2552 92.8368 49.3419L92.1518 48.054C91.5876 47.8528 91.5071 49.0601 91.9503 49.9053C92.1518 50.0663 92.7562 50.509 92.5144 49.8248C92.6353 50.2273 92.8368 50.67 93.0382 51.1529C93.2397 51.5956 93.4815 52.0384 93.6829 52.4811C94.0859 53.3262 94.4888 54.0909 94.4888 54.4934C95.0932 55.2581 95.4558 54.7349 95.4156 54.2117C95.8588 56.0227 96.0603 56.3849 96.2617 56.7472C96.4632 57.1094 96.6647 57.4716 97.0676 59.3229L97.4302 59.1217V60.4901L98.9211 61.8182L98.1555 61.4157C98.5585 62.5426 98.5182 63.3878 99.2435 64.5952L99.6464 63.8305C99.8479 64.6757 100.13 65.2794 100.372 65.8026C100.613 66.3258 100.896 66.7685 101.137 67.1709C101.621 68.0161 102.064 68.8613 102.145 70.5516C102.306 70.7126 102.346 70.1894 102.386 69.9077C102.386 73.0469 104.2 71.7188 103.958 74.9787C104.119 74.7372 104.441 74.9787 104.603 74.8177L104.562 76.2666L105.328 75.9446L104.441 77.3935L105.489 77.9569L105.247 78.6009C106.214 79.0838 106.577 79.929 106.859 80.8546C107.141 81.7803 107.463 82.7462 108.269 83.5914L107.141 83.5109C106.617 86.2476 107.544 88.9844 108.672 91.8821C108.954 92.6065 109.196 93.331 109.438 94.0554C109.68 94.7798 109.921 95.5445 110.123 96.3092C110.526 97.8386 110.808 99.3679 110.848 100.897L111.654 100.656C111.493 101.541 111.251 102.427 111.009 103.312C111.855 104.56 111.614 102.386 112.097 102.749C111.976 105.526 111.009 104.036 111.13 107.216C111.896 108.745 111.694 106.572 111.896 105.807C111.855 107.296 111.855 109.148 111.976 110.878C112.017 112.609 112.137 114.219 112.42 115.225C112.299 115.265 112.178 115.426 112.097 115.305C111.976 116.312 112.057 117.438 112.178 118.606C112.258 119.169 112.339 119.773 112.379 120.336C112.42 120.9 112.46 121.463 112.46 122.027C112.863 121.946 112.903 121.423 112.943 120.859C113.024 121.624 113.306 122.711 112.943 123.395L113.669 122.55C113.87 124.24 113.266 127.46 114.152 127.822C113.83 127.621 113.185 127.701 113.266 129.15C114.595 129.955 112.661 133.094 113.306 135.388C113.628 135.107 113.709 133.416 113.709 133.899C114.031 135.066 113.387 136.113 112.984 137.119L113.507 136.837L113.306 138.165L113.185 138.849L113.064 139.534L112.54 142.19C113.79 143.075 112.017 147.261 112.984 146.939C112.903 148.871 112.54 145.289 112.218 147.704C112.702 148.388 111.694 149.877 112.581 149.837L112.702 149.595L112.46 151.286L113.387 150.32C113.024 151.768 112.097 152.734 111.452 152.734C111.735 154.183 111.13 156.075 111.815 156.799L112.057 156.316C111.936 156.799 111.936 157.282 111.896 157.725C111.855 158.168 111.855 158.61 111.896 159.053C111.936 159.898 112.057 160.703 112.137 161.508C112.339 163.078 112.379 164.527 111.452 165.935C111.533 166.177 111.735 166.177 111.815 165.734L111.654 166.941L111.412 168.149L112.137 167.706L110.365 171.449L110.808 171.489C110.606 172.817 110.244 174.467 109.8 176.238C109.277 177.969 108.712 179.78 108.229 181.43L108.551 180.987C107.745 182.718 107.625 183.603 107.544 184.368C107.504 184.77 107.504 185.133 107.383 185.535C107.262 185.938 107.101 186.42 106.778 187.064C106.899 187.024 106.98 186.944 107.02 186.823L106.255 189.157L106.819 188.755C105.408 190.204 106.375 194.107 105.973 192.779C105.61 193.222 105.207 193.826 104.804 194.309C104.361 194.792 103.958 195.194 103.635 195.275C102.668 197.77 103.918 196.08 103.676 197.77C103.031 199.621 102.225 199.661 101.661 202.277L102.064 202.398C101.581 203.525 100.976 204.129 100.211 205.658L100.613 205.256C98.6794 207.469 100.372 208.958 97.7929 210.246C97.7526 210.568 97.672 210.89 97.5511 211.252C97.5108 211.413 97.4302 211.615 97.3899 211.776C97.3094 211.977 97.2288 212.178 97.1482 212.379C96.8661 213.144 96.705 213.788 97.1079 213.909C95.9394 215.639 94.8111 217.048 93.7232 218.456C92.6353 219.865 91.4668 221.193 90.1371 222.602C90.8221 223.97 89.573 223.206 88.6059 225.54L88.1627 224.896C86.2689 226.948 84.4557 229.363 82.1589 231.697C80.9904 232.865 79.7413 234.032 78.2907 235.038C77.6057 235.561 76.7998 236.044 75.994 236.487C75.1478 236.929 74.3419 237.332 73.4152 237.654L73.4958 238.419L72.6093 238.338L71.7228 238.217C69.7484 238.982 67.4114 239.666 64.7117 239.908C64.0267 239.988 63.3417 239.988 62.6164 239.988C61.9315 239.988 61.1659 239.948 60.4809 239.908C59.0303 239.787 57.62 239.505 56.25 239.103C53.5101 238.298 50.9313 236.929 48.9569 235.481C47.0228 234.072 45.3707 232.382 44.0813 230.691C43.759 230.088 43.3963 229.403 43.1143 228.599C42.9531 228.196 42.7919 227.794 42.6307 227.391C42.4696 226.948 42.3487 226.506 42.1875 226.063C42.1069 225.822 42.0264 225.62 41.9861 225.379C41.9055 225.137 41.8652 224.896 41.7846 224.695C41.6637 224.212 41.5025 223.729 41.3816 223.246C41.2608 222.763 41.1399 222.28 41.019 221.797C40.8981 221.314 40.7772 220.831 40.6563 220.348L40.6161 220.791C40.3743 219.02 40.3743 217.33 40.4952 215.679C40.6161 214.029 40.8578 212.46 41.1802 210.93C41.8652 207.912 42.8322 205.095 43.9604 202.358C43.5172 202.559 43.5978 201.915 43.1143 202.438C43.7993 201.996 44.2022 201.231 44.5246 200.426C44.8469 199.621 45.129 198.857 45.4513 198.293C45.3707 198.816 45.2498 199.299 45.1692 199.822C45.8945 199.299 46.4184 198.454 46.781 197.649C47.1436 196.844 47.3854 196.039 47.4257 195.516C47.7883 195.234 48.151 194.993 48.5539 194.751C48.9166 194.51 49.2792 194.268 49.6821 194.027C49.7224 193.866 49.803 193.584 49.7627 193.464L50.3671 193.383C50.4074 192.82 50.488 192.296 50.5686 191.733C50.8507 191.572 51.6565 190.928 52.5833 190.324C53.0668 190.043 53.5504 189.761 53.9936 189.56C54.4771 189.358 54.9203 189.238 55.2427 189.278C55.2024 188.875 57.0156 187.185 55.4039 188.191C56.6127 187.185 57.9827 186.179 59.3526 185.294L61.1659 184.207C61.7703 183.845 62.3747 183.442 63.0194 183.161L62.4956 183.603L62.012 184.086C62.1329 184.448 62.7776 184.408 63.5432 184.247C64.3088 184.046 65.1953 183.684 65.6788 183.241C63.8656 183.442 65.0744 182.356 65.5579 181.51C66.1623 181.47 66.0011 181.712 65.7997 181.993C65.5579 182.275 65.3161 182.597 65.6788 182.637C67.2099 182.476 70.0708 181.591 70.6752 181.068H69.7484C71.6825 180.665 72.0855 179.136 73.9793 178.653C75.7925 178.733 76.9207 177.929 76.8804 179.216C79.3383 178.894 77.6057 178.17 78.3713 177.848C79.016 178.009 80.1442 177.848 81.1919 177.566C81.7157 177.405 82.1992 177.244 82.5618 177.043C82.9648 176.882 83.2065 176.681 83.3274 176.52C83.7304 176.922 84.3348 177.043 85.0198 177.003C85.3824 177.003 85.7451 176.922 86.1077 176.842C86.4703 176.761 86.8733 176.681 87.2359 176.6C88.0015 176.439 88.7268 176.238 89.3312 176.238C89.9356 176.238 90.3385 176.359 90.4997 176.721L92.4741 175.755C92.5547 176.158 92.9576 177.124 94.5694 177.285C96.0603 176.842 95.7379 176.117 96.2214 175.675C96.5438 176.198 96.8661 176.761 97.1885 177.285C101.54 176.6 106.617 177.043 111.573 177.969C116.57 178.894 121.486 180.223 126.079 181.108C129.867 182.798 134.339 185.414 138.691 187.266L138.288 186.863C139.054 187.145 139.779 187.427 140.504 187.708L142.72 188.594L139.336 187.708C140.182 188.312 140.746 188.956 141.632 189.399C146.508 191.129 152.874 193.906 157.669 198.172C158.838 200.064 159.604 200.104 160.409 200.144C160.812 200.144 161.215 200.144 161.658 200.346C162.102 200.547 162.626 200.949 163.19 201.795C163.028 201.473 163.069 201.191 162.948 200.869C164.439 202.358 165.567 203.525 166.655 204.692C167.219 205.296 167.743 205.9 168.267 206.584C168.831 207.268 169.395 208.033 169.999 208.878C170.765 207.188 172.054 210.608 172.377 209.643L172.175 210.407C173.142 210.649 174.915 211.937 174.996 211.373L175.761 213.265L176.366 212.822C177.333 213.587 178.582 214.995 179.952 216.122C180.597 216.686 181.282 217.209 181.926 217.571C182.531 217.933 183.095 218.175 183.619 218.094C184.505 219.342 185.593 220.67 186.842 222.038C188.051 223.447 189.381 224.896 190.791 226.345C192.161 227.834 193.571 229.323 194.981 230.812C196.351 232.301 197.721 233.75 199.011 235.159C199.051 235.44 199.212 235.803 199.373 236.125C199.535 236.487 199.776 236.849 200.018 237.211C200.502 237.976 201.106 238.741 201.63 239.425L203.483 240.27C204.37 241.799 204.571 243.973 206.022 244.898C206.102 244.818 206.102 244.737 206.102 244.616C207.029 246.106 208.399 247.192 208.722 249.044C209.89 250.573 211.381 251.821 211.703 250.895C211.139 251.418 211.784 252.223 212.549 252.907C213.315 253.591 214.202 254.155 214.202 254.155C214.202 254.155 214.443 254.477 214.887 255.081C215.33 255.684 215.934 256.57 216.74 257.697C217.506 258.864 218.513 260.232 219.561 261.882C220.084 262.687 220.649 263.572 221.253 264.498C221.857 265.424 222.502 266.39 223.106 267.476C224.356 269.569 225.726 271.823 227.096 274.358C227.781 275.606 228.506 276.854 229.191 278.222C229.876 279.55 230.561 280.919 231.286 282.327C234.066 287.962 236.847 294.24 239.345 300.8C244.301 313.84 247.968 328.288 249.338 341.046C249.741 344.226 249.902 347.285 250.063 350.223C250.103 351.671 250.144 353.08 250.144 354.448C250.144 355.133 250.144 355.817 250.144 356.461C250.144 357.105 250.103 357.749 250.063 358.393C249.942 360.928 249.781 363.262 249.459 365.315C249.297 366.361 249.136 367.327 248.975 368.213C248.894 368.655 248.814 369.098 248.693 369.5C248.572 369.903 248.492 370.305 248.371 370.708C247.686 371.553 247.242 373.767 246.356 372.921C246.114 374.612 247.444 375.376 246.719 375.739C246.154 373.445 244.825 376.463 243.858 374.25L243.737 375.698C243.213 375.98 244.261 373.726 243.334 374.129L244.704 373.686C244.462 372.519 244.18 371.875 243.697 371.513C243.938 370.949 244.543 370.507 244.946 369.822C245.349 369.179 245.55 368.333 245.067 367.045L245.026 367.77C244.946 365.637 244.059 366.522 243.817 366.08L243.858 366.563L243.052 364.832C243.576 366.16 242.609 368.454 242.609 367.287C242.085 364.792 242.971 367.931 243.052 366.039C243.052 364.872 242.327 365.234 241.924 365.315C241.883 364.631 241.883 363.906 241.843 363.222C241.239 363.343 241.964 364.59 241.279 363.786L241.722 361.089C240.916 360.928 241.037 360.163 241.158 359.358C241.279 358.554 241.44 357.628 240.594 357.105C240.433 359.036 240.03 356.984 239.546 357.346L239.103 352.758C238.821 352.356 238.74 354.046 238.74 353.322C238.217 352.517 238.982 351.873 238.861 351.39C238.378 351.068 238.378 347.969 237.33 348.25C236.162 345.272 238.499 346.721 237.37 343.944C236.645 343.662 237.612 346.238 236.726 345.071L236.444 342.053C236.202 342.375 235.517 342.817 235.839 343.904C235.275 341.932 234.59 340.241 233.825 338.712C233.059 337.183 232.293 335.774 231.568 334.406C230.803 333.037 230.118 331.669 229.553 330.22C228.989 328.771 228.466 327.202 228.224 325.391C227.216 324.586 227.901 326.236 227.619 327.081C227.539 325.753 227.257 324.626 226.894 323.7C226.491 322.775 226.008 321.97 225.484 321.205C224.96 320.44 224.436 319.716 223.953 318.911C223.469 318.106 222.986 317.261 222.663 316.174L223.227 315.893C222.744 315.249 222.301 314.524 221.898 313.8C221.495 313.075 221.092 312.351 220.729 311.586C219.964 310.057 219.359 308.447 218.674 306.837C218.352 306.032 218.029 305.187 217.667 304.382C217.344 303.577 217.022 302.732 216.619 301.927C215.894 300.317 215.128 298.707 214.242 297.178C214.484 297.379 214.766 297.581 215.007 297.741C215.169 296.615 214.564 295.166 214.363 293.999C214 293.958 213.476 295.327 212.872 293.355C213.234 293.636 213.839 294.321 214 293.958C213.476 293.355 212.993 292.63 212.429 291.866C211.864 291.101 211.3 290.215 210.736 289.29C209.608 287.398 208.319 285.305 207.029 283.092C204.37 278.705 201.469 273.875 198.406 269.972C195.022 264.257 190.831 258.703 186.359 253.471C181.926 248.198 177.212 243.248 172.78 238.499C174.109 239.948 174.673 238.258 173.344 237.453C172.739 237.332 172.215 237.131 171.772 236.929C171.289 236.728 170.886 236.447 170.523 236.165C169.798 235.601 169.193 234.917 168.629 234.233C167.541 232.824 166.373 231.375 164.237 230.651C162.988 229.202 161.578 228.035 160.208 226.868C158.798 225.701 157.347 224.735 155.896 223.729C155.171 223.206 154.486 222.682 153.801 222.199C153.116 221.676 152.391 221.153 151.746 220.589C151.102 220.026 150.457 219.422 149.812 218.819C149.208 218.215 148.603 217.571 148.079 216.847L147.556 217.37C146.508 217.048 146.589 216.484 145.742 215.8L145.662 216.001C145.098 215.679 144.534 215.317 144.01 214.955C143.486 214.553 142.962 214.15 142.438 213.748C141.431 212.983 140.504 212.299 139.819 212.057L140.182 211.293C138.933 210.447 139.175 211.454 138.087 210.246L137.925 210.649L136.757 209.079C136.193 210.447 132.969 207.107 131.559 207.228C129.947 206.101 126.885 203.968 124.024 203.123C123.218 203.606 119.914 202.277 117.658 201.956C113.588 200.346 107.625 198.494 102.265 198.132L102.507 197.206L101.097 196.965C101.097 197.166 100.896 197.247 101.097 197.408C100.493 197.891 99.727 197.73 98.9211 197.528C98.1152 197.287 97.3497 197.126 96.7452 197.408C97.4705 196.563 97.7123 197.327 98.5182 197.327C99.1226 197.166 99.1629 196.804 98.8405 196.563C98.5182 196.281 97.8735 196.16 97.0676 196.361L97.1079 196.563L96.0603 195.999C95.8991 196.723 94.9723 197.086 94.8514 197.81C94.2873 197.77 93.7635 197.73 93.2397 197.689C92.7159 197.649 92.2323 197.609 91.7488 197.569C90.7415 197.448 89.8147 197.367 88.888 197.287C88.4044 197.247 87.9209 197.247 87.4374 197.247C86.9539 197.247 86.4703 197.247 85.9868 197.287C85.5033 197.327 84.9795 197.408 84.4556 197.488C83.9318 197.569 83.408 197.689 82.8842 197.85C83.2065 198.213 82.4007 198.333 81.6754 198.535C81.5142 198.575 81.3127 198.615 81.1516 198.696C80.9904 198.776 80.8695 198.857 80.7889 198.937C80.6277 199.098 80.6277 199.34 80.9098 199.621C79.5801 199.742 79.5801 199.42 79.7816 199.018C79.9428 198.615 80.3054 198.052 79.5801 197.73C79.2175 197.85 78.8145 197.85 78.4922 197.931C78.1698 198.011 77.9684 198.132 78.0087 198.414C78.4519 198.615 77.7266 199.46 78.331 199.38L76.5984 199.863C76.4775 200.024 76.9207 200.064 77.1222 200.104C76.6387 200.144 76.2357 200.265 75.8328 200.386C75.4299 200.507 75.0269 200.668 74.6643 200.869C73.939 201.231 73.2943 201.714 72.6496 202.157C72.3272 202.358 72.0049 202.64 71.7228 202.841C71.4005 203.082 71.1184 203.284 70.7558 203.485C70.5946 203.565 70.3931 203.686 70.2723 203.767C70.1514 203.847 70.0305 203.887 69.9096 203.968C69.6678 204.089 69.3858 204.209 69.0634 204.29C68.6202 203.968 69.7887 203.606 69.3455 203.284C69.0231 203.324 68.7411 203.445 68.4993 203.525C68.2576 203.646 68.0964 203.767 67.9352 203.887C67.6532 204.129 67.492 204.451 67.3711 204.732C67.1293 205.336 66.9279 205.9 65.7997 206.544C66.0817 206.584 66.4041 206.624 66.6861 206.664C66.2429 206.785 65.7997 206.785 65.4773 206.986C65.3161 207.067 65.155 207.188 64.9938 207.389C64.8729 207.59 64.752 207.831 64.6311 208.194C65.155 208.878 65.8802 207.751 66.6055 207.55C66.4444 207.711 66.2429 207.952 66.0414 208.194C65.7997 208.435 65.5579 208.677 65.3161 208.838C64.8326 209.2 64.3894 209.401 64.3088 208.878C63.4626 209.643 63.8656 210.367 63.8253 210.971C63.7447 210.93 63.7044 210.649 63.6641 210.407C63.6238 210.166 63.5029 210.005 63.1806 210.166C63.0194 210.93 62.697 211.776 62.415 212.621C62.1329 213.466 61.8912 214.231 61.8106 214.875C62.012 214.915 62.2941 215.036 62.4553 214.955C62.1329 215.116 62.0523 215.277 62.012 215.398C62.012 215.518 62.1329 215.639 62.2941 215.76C62.5761 215.961 63.0194 216.162 62.8985 216.404Z" fill="#FF7800"/>
<path d="M97.2691 117.358L97.4706 118.404C97.2691 118.404 97.0676 118.485 96.9065 118.968L97.2691 117.358Z" fill="#FF7800"/>
<path d="M94.3276 167.746C94.247 167.868 94.1262 167.989 94.0053 168.07C94.0859 167.827 94.2068 167.787 94.3276 167.746Z" fill="#FF7800"/>
<path d="M89.9356 179.297C90.3386 178.492 90.3386 179.337 90.4595 179.78C90.258 179.78 90.0968 179.699 89.9356 179.297Z" fill="#FF7800"/>
<path d="M95.1738 88.5417C95.1335 88.7442 95.053 88.8656 94.8515 88.9061C94.9724 88.6227 95.0529 88.5417 95.1738 88.5417Z" fill="#FF7800"/>
<path d="M56.8947 21.3707C57.0156 21.4112 57.0962 21.4517 57.217 21.4517C57.0962 21.4922 57.0156 21.4517 56.8947 21.3707Z" fill="#FF7800"/>
<path d="M61.0047 23.1013C61.1659 23.2221 61.3674 23.4233 61.5688 23.7855C61.2868 23.5843 61.1256 23.3428 61.0047 23.1013Z" fill="#FF7800"/>
<path d="M98.2764 107.699C98.2764 107.981 98.2764 108.303 98.1152 108.584C98.0749 108.101 98.1958 107.86 98.2764 107.699Z" fill="#FF7800"/>
<path d="M62.133 24.5099L62.9791 25.1941C62.9388 25.2344 62.9388 25.2746 62.8582 25.3149L62.133 24.5099Z" fill="#FF7800"/>
<path d="M55.7666 20.6061C56.0889 20.8475 56.5321 21.2098 56.8948 21.3707C56.3307 21.2098 56.0083 20.9683 55.7666 20.6061Z" fill="#FF7800"/>
<path d="M87.0344 60.2486C87.0344 60.2888 87.0747 60.3291 87.0747 60.3693C87.0747 61.3352 86.9941 60.7718 87.0344 60.2486Z" fill="#FF7800"/>
<path d="M64.4296 28.8968C64.4699 28.937 64.5102 28.937 64.5505 28.9773L64.5908 29.3797L64.4296 28.8968Z" fill="#FF7800"/>
<path d="M51.8983 18.2718C52.0595 18.3925 52.1804 18.5133 52.261 18.6743C52.0998 18.5938 51.9386 18.5535 51.6969 18.4328C51.8178 18.3523 51.8581 18.312 51.8983 18.2718Z" fill="#FF7800"/>
<path d="M78.331 46.0014C78.4519 45.5587 78.5728 45.3575 78.6937 45.277C78.8952 45.5989 78.8549 45.8807 78.331 46.0014Z" fill="#FF7800"/>
</g>
<defs>
<clipPath id="clip0_7_960">
<rect width="250.144" height="375.739" fill="white" transform="matrix(-1 0 0 1 250.144 0)"/>
</clipPath>
</defs>
</svg>
