<svg width="362" height="401" viewBox="0 0 362 401" fill="none" xmlns="http://www.w3.org/2000/svg">
<path d="M147.248 276.19C147.181 276.22 147.114 276.25 146.997 276.295C147.097 276.266 147.181 276.22 147.248 276.19Z" fill="#FF7800"/>
<path d="M150.316 286.566L150.137 286.51C150.2 286.578 150.266 286.581 150.316 286.566Z" fill="#FF7800"/>
<path d="M144.62 270.221C144.653 270.222 144.67 270.206 144.687 270.19C144.641 270.106 144.58 269.972 144.489 269.77C144.516 269.936 144.559 270.086 144.62 270.221Z" fill="#FF7800"/>
<path d="M154.954 308.377L154.927 308.243C154.924 308.309 154.907 308.325 154.954 308.377Z" fill="#FF7800"/>
<path d="M152.973 295.359C153.105 295.364 153.152 295.415 153.199 295.466C153.202 295.4 153.156 295.316 152.973 295.359Z" fill="#FF7800"/>
<path d="M147.721 264.02L147.507 264.407C147.628 264.296 147.733 264.136 147.721 264.02Z" fill="#FF7800"/>
<path d="M142.38 259.369C142.363 259.384 142.345 259.4 142.311 259.432C142.361 259.417 142.363 259.384 142.38 259.369Z" fill="#FF7800"/>
<path d="M142.659 262.466C142.723 262.501 142.821 262.505 142.92 262.509C142.857 262.441 142.794 262.373 142.659 262.466Z" fill="#FF7800"/>
<path d="M143.053 262.516C143.02 262.514 142.954 262.511 142.921 262.51C142.953 262.544 143.002 262.563 143.053 262.516Z" fill="#FF7800"/>
<path d="M129.792 381.727C129.671 381.871 129.807 382.189 129.894 382.49L129.792 381.727Z" fill="#FF7800"/>
<path d="M155.627 327.656L155.464 327.617C155.528 327.653 155.577 327.671 155.627 327.656Z" fill="#FF7800"/>
<path d="M132.398 384.083L132.249 384.125C132.33 384.145 132.364 384.114 132.398 384.083Z" fill="#FF7800"/>
<path d="M150.618 266.52C151.063 266.489 150.876 267.075 151.196 266.874C151.037 266.735 151.135 266.327 150.618 266.52Z" fill="#FF7800"/>
<path d="M169.763 334.204L169.773 334.353C169.776 334.287 169.794 334.238 169.763 334.204Z" fill="#FF7800"/>
<path d="M132.4 384.082L132.566 384.023C132.502 383.988 132.453 383.97 132.389 383.934C132.419 384.001 132.401 384.05 132.4 384.082Z" fill="#FF7800"/>
<path d="M150.137 346.739C150.121 346.721 150.123 346.688 150.091 346.654L150.137 346.739Z" fill="#FF7800"/>
<path d="M149.101 347.435C149.088 347.353 149.075 347.27 149.079 347.171C149.009 347.267 149.038 347.367 149.101 347.435Z" fill="#FF7800"/>
<path d="M129.876 382.473L129.926 382.903C129.98 382.79 129.936 382.64 129.876 382.473Z" fill="#FF7800"/>
<path d="M143.959 358.07C143.96 358.037 143.979 357.988 143.98 357.955C143.946 357.987 143.945 358.02 143.959 358.07Z" fill="#FF7800"/>
<path d="M152.928 294.482C152.962 294.45 152.948 294.4 152.982 294.369C152.882 294.398 152.832 294.412 152.928 294.482Z" fill="#FF7800"/>
<path d="M164.9 299.567C164.844 299.746 165.184 299.875 165.494 299.937C165.468 299.771 165.342 299.634 164.9 299.567Z" fill="#FF7800"/>
<path d="M163.559 291.244C163.559 291.244 163.525 291.242 163.508 291.258C163.525 291.242 163.525 291.242 163.559 291.244Z" fill="#FF7800"/>
<path d="M164.24 293.087C164.171 293.15 164.136 293.215 164.117 293.263C164.169 293.216 164.204 293.152 164.24 293.087Z" fill="#FF7800"/>
<path d="M172.043 324.489C171.984 323.497 171.717 322.349 171.516 321.203C171.439 320.64 171.33 320.075 171.252 319.544C171.192 318.997 171.163 318.485 171.216 317.992C170.39 317.614 170.315 317.017 170.093 316.398L171.17 316.259L170.778 315.765C171.101 315.531 171.01 316.154 171.389 315.74L170.703 315.581C171.085 315.514 170.872 314.252 171.697 315.043C171.658 314.382 171.57 313.702 171.531 313.041C171.532 312.596 170.614 312.873 170.833 312.354C171.134 312.234 171.074 312.512 171.44 312.427C171.768 311.648 171.173 311.279 170.576 310.942C169.979 310.605 169.315 310.299 169.459 309.596L169.62 309.701C169.314 309.508 169.298 309.078 169.132 309.105C168.08 309.443 169.753 309.261 169.172 309.766C168.244 309.862 168.612 309.332 167.931 309.453C168.209 309.102 167.669 308.998 167.564 308.746C168.047 308.205 167.543 307.624 168.205 307.139C167.883 306.961 166.963 306.86 166.833 306.409C167.479 305.94 167.527 306.37 167.696 305.866L167.151 305.894C167.166 305.499 167.314 305.521 167.579 305.498C167.513 305.084 166.795 305.303 167.032 304.735L167.585 304.921C167.302 304.581 167.375 304.418 167.314 303.872C167.613 303.818 167.637 304.049 167.582 304.196C168.309 303.746 167.154 303.767 167.193 303.603C166.975 303.71 166.96 304.072 166.401 304.018C166.429 303.738 165.56 303.622 166.15 303.299L166.72 303.469C166.211 303.021 166.017 303.326 166.076 302.669C166.125 302.688 166.242 302.643 166.358 302.631C165.593 302.386 166.113 301.747 166.021 301.166L166.183 301.239C165.944 301.048 165.45 301.029 165.455 300.897C165.241 301.284 165.062 301.228 164.577 301.39C165.328 300.76 163.439 300.983 163.769 300.171C164.068 300.117 164.478 300.182 164.186 300.451C165.126 300.472 165.874 300.32 166.389 300.636C166.118 300.412 165.915 300.123 166.311 300.106L165.466 300.221C165.406 300.054 165.412 299.922 165.4 299.806C164.853 299.867 164.636 300.354 164.202 300.056C163.837 299.696 164.978 299.625 164.598 299.659C164.139 299.163 163.674 299.656 163.798 299.035C163.896 299.071 164.058 299.144 163.989 299.207C164.206 298.721 163.581 298.284 164.52 297.892C164.751 297.901 165.051 297.814 164.994 297.993L164.844 298.037C165.675 298.283 164.56 297.729 165.471 297.616C164.954 297.777 164.927 297.199 164.955 296.919L164.385 297.161C162.369 296.835 165.584 296.878 165.12 296.101C164.576 295.684 165.011 296.361 164.492 296.143C164.49 295.763 164.98 295.469 164.57 295.024C164.759 294.817 164.99 294.414 165.642 294.192C165.272 293.963 165.652 293.137 164.941 293.159C164.55 293.869 165.803 293.473 165.123 294.386L164.413 294.408C164.316 293.959 163.839 293.512 163.969 293.137C163.866 293.232 163.698 293.325 163.566 293.32C163.109 292.791 162.415 292.829 162.424 292.187C162.996 291.912 162.997 292.291 163.12 292.527C163.472 291.98 163.021 292.111 163.015 291.451C163.518 291.24 163.113 291.867 163.645 291.756L163.274 291.148C163.307 291.149 163.341 291.118 163.374 291.119C162.476 291.315 163.297 290.588 162.88 290.275C162.539 289.322 161.358 289.589 160.494 289.341C160.667 289.117 160.87 288.993 161.102 288.969C160.807 289.336 161.077 289.182 161.341 289.192C161.138 288.904 161.909 288.192 162.335 288.242C161.89 287.829 161.959 288.59 161.571 288.377L161.369 287.676C160.963 287.924 160.968 288.205 160.499 287.972C160.262 287.715 160.302 287.552 160.186 287.152C160.418 287.128 160.794 286.78 160.881 287.08C160.974 286.836 160.871 286.519 160.423 286.584C160.202 287.169 159.786 286.031 159.235 286.603L159.456 286.018C159.485 286.118 159.77 286.014 159.746 286.195C160.355 285.823 159.427 285.918 159.299 285.814C159.373 285.619 159.275 285.203 159.51 285.08C159.265 285.021 159.297 284.643 159.586 284.44C159.378 284.284 159.167 284.605 158.935 284.629C158.878 284.396 158.789 284.162 158.715 283.945C159.052 283.76 160.029 283.27 160.208 283.327C159.766 283.227 159.105 283.679 158.989 283.279C159.768 283.194 159.299 282.549 160.274 282.505C160.687 282.059 160.399 281.438 160.063 281.177C159.419 281.202 159.91 281.699 159.341 281.908C158.717 281.026 157.141 281.657 157.091 280.847L157.015 281.108C156.499 280.824 156.597 280.827 156.005 280.804C156.738 280.602 157.642 279.45 157.141 278.804C156.757 278.904 156.683 279.511 156.084 279.653L155.755 279.228C155.79 279.163 155.922 279.168 156.054 279.174C155.62 278.876 156.581 277.957 155.713 278.22L156.509 277.295L156.163 277.677C155.796 277.795 155.466 277.37 155.286 277.346C154.671 277.058 154.882 276.737 155.165 276.253C154.925 276.474 154.393 276.998 154.108 276.69C155.203 276.122 154.115 275.701 154.687 275.426C154.594 275.291 154.794 274.82 154.339 275.05L155.028 274.73C154.053 275.187 153.812 274.617 153.429 274.305C154.756 273.714 153.083 273.896 154.138 273.079C153.232 273.473 153.402 272.523 152.613 272.871C152.394 272.566 153.219 272.153 153.443 271.914L153.029 271.948C153.342 271.564 153.07 270.927 153.124 270.401L152.18 270.513L152.457 270.194C152.223 270.251 151.968 270.043 151.773 270.381L151.715 270.181C150.887 270.66 151.357 270.068 150.785 269.931C150.857 269.768 151.076 269.662 151.224 269.684C151.116 269.498 151.585 269.319 151.809 269.08C151.666 269.338 149.968 269.321 149.89 270.027C149.568 270.262 149.161 270.131 149.22 269.886L149.885 269.335L148.984 269.596C148.711 269.404 149.107 269.007 149.069 268.726C149.242 268.914 150.765 268.363 150.393 267.788C150.68 268.03 151.162 267.933 151.423 268.01C151.379 267.859 151.416 267.762 151.829 267.762C151.314 267.445 151.279 267.888 150.916 267.495C151.575 267.108 151.717 266.85 151.688 266.338L151.384 266.936C151.299 266.982 151.233 266.98 151.183 266.994C151.177 267.159 151.091 267.238 150.853 267.427C150.807 267.342 149.732 267.416 150.074 267.099C149.337 268.192 148.816 266.803 148.376 267.495C148.159 267.569 147.923 267.279 148.213 267.043C148.936 267.104 148.77 266.306 149.258 266.078C148.994 266.068 148.953 266.676 148.608 266.646C148.434 266.458 148.715 266.04 148.84 265.798L149.02 265.821L149.075 265.296C148.706 265.446 148.75 265.976 148.379 265.78C148.451 265.618 148.097 265.406 148.367 265.252C148.901 265.107 149.415 264.633 149.704 264.809C149.515 264.604 148.98 263.956 148.573 264.649C148.527 264.565 148.465 264.464 148.419 264.38C148.257 264.719 148.06 265.503 147.633 265.041L147.752 264.964L147.028 264.935L147.257 264.565C147.104 264.674 146.921 264.717 146.827 264.581C146.999 264.423 146.989 264.241 147.244 264.07C146.945 263.712 146.655 263.948 146.438 264.022C146.247 263.849 146.32 263.654 146.755 263.506C146.638 263.139 146.194 262.693 146.393 262.255C145.84 262.069 146.321 262.418 145.724 262.493C146.576 261.389 145.228 260.891 144.622 260.372C143.795 261.23 144.378 260.28 143.45 260.788C143.85 260.705 143.743 259.662 144.406 260.001L144.07 259.74C144.424 259.128 144.867 260.019 145.315 259.129C145 258.754 143.791 259.301 143.803 258.592C144.576 258.227 143.331 258.425 144.124 257.978C144.425 257.891 144.451 258.057 144.596 258.145L144.652 257.966C144.197 256.991 143.682 258.324 142.91 258.244C142.449 257.814 143.123 257.444 143.414 257.175C143.471 256.996 143.181 256.82 142.901 256.825C143.528 256.817 142.931 257.717 142.396 257.894C142.972 257.108 141.884 257.099 141.483 257.215C141.248 258.542 141.825 257.723 141.492 259.046C141.792 258.959 142.458 258.408 142.483 259.019C141.954 259.031 142.124 259.318 142.069 259.464C142.397 259.098 142.442 259.627 142.689 259.621C142.444 259.974 141.616 260.073 141.76 260.574L142.725 259.968C142.714 260.232 142.015 260.402 142.469 260.585C141.868 260.759 141.768 261.201 141.287 260.852C140.896 261.975 142.323 261.354 142.975 261.545C142.876 261.541 142.757 261.619 142.674 261.632C142.975 261.545 143.1 261.714 143.245 261.803C143.227 262.231 142.664 261.895 142.456 262.151C142.582 262.288 142.691 262.441 142.818 262.577C142.783 262.609 142.766 262.625 142.749 262.641C142.963 262.666 143.125 262.738 142.919 262.928C142.52 263.011 142.167 263.179 141.866 263.266L142.856 263.272C142.503 263.439 142.611 264.037 142.139 263.87L142.758 264.472L142.177 264.977C142.405 265.051 142.539 264.991 142.484 264.725C142.493 264.906 142.953 264.957 143.261 265.085C143.536 265.211 143.677 265.398 143.003 265.767C143.903 265.951 143.822 266.311 144.612 266.754C143.677 266.635 144.255 267.845 143.61 267.49C143.54 267.998 144.282 267.598 144.554 267.79C144.438 268.215 143.733 268.517 143.325 268.419L143.815 268.537L143.696 268.614L144.223 268.635C144.055 269.14 143.611 269.106 143.712 269.456L144.318 269.15L144.103 269.57C144.327 269.332 144.538 269.422 144.729 269.595L144.61 269.673L144.883 269.865C144.373 269.828 144.92 270.179 144.419 270.325C144.525 270.576 144.542 270.56 144.875 270.887L145.218 270.57C145.881 270.877 144.642 270.944 144.871 271.398L145.312 271.085C145.109 271.622 145.382 271.814 145.673 271.957C145.964 272.1 146.272 272.228 146.142 272.602C145.869 272.41 145.392 272.787 145.527 272.726C145.927 273.022 146.163 273.724 146.968 273.805C146.385 274.343 146.198 274.484 146.124 275.091C146.344 275.364 146.426 275.384 146.876 275.253C146.776 275.694 147.472 276.035 146.999 276.313C147.433 276.165 147.068 276.629 147.482 276.596L147.295 276.737L147.752 276.441C146.965 277.548 148.818 277.011 148.183 278.041L148.002 278.018L148.31 278.145C148.123 278.286 147.943 278.263 147.657 278.4C147.824 278.753 147.974 279.122 148.109 279.473L148.355 279.087C148.512 279.291 149.06 279.197 148.895 279.603C147.957 279.55 149.045 279.971 148.537 280.314L148.228 280.187C148.431 280.475 148.431 280.475 148.904 280.197C149.287 280.509 148.116 280.925 148.821 281.035L148.7 280.766C148.94 280.545 149.435 280.531 149.51 280.715C149.457 280.796 149.299 281.037 149.171 280.933C149.509 281.16 149.485 281.753 149.747 281.796C149.688 282.041 149.304 282.142 149.124 282.118C149.88 282.593 149.176 282.45 149.915 282.941L149.646 283.062L150.089 283.129L149.653 283.722L149.961 283.437C150.118 283.641 150.38 283.685 150.334 284.013L149.869 284.093C150.392 284.625 149.497 285.134 150.341 285.464C150.289 285.545 150.125 285.505 150.011 285.484C150.891 285.749 149.453 286.221 150.484 286.443C150.318 286.469 150.181 286.596 150.063 286.641L150.437 286.771L149.868 286.979L150.781 286.834L150.27 287.242L150.583 287.238C149.614 287.975 150.602 288.014 149.93 288.73L150.62 288.377C151.554 288.529 151.578 289.173 151.484 289.862C151.39 290.551 151.195 291.302 151.771 291.754L151.186 291.945L152.051 292.16C151.688 292.591 151.506 292.189 151.234 292.376C151.747 292.759 152.162 292.28 152.537 292.79C152.255 293.24 152.074 292.837 151.829 292.778C152.305 293.226 152.92 293.926 152.734 294.446C152.817 294.433 152.933 294.421 152.952 294.372C153.336 294.651 153.247 295.241 153.413 295.627C153.145 295.716 153.066 295.63 152.971 295.527C152.982 295.676 152.855 295.952 153.183 295.998L152.622 296.009C152.625 296.355 153.299 296.81 152.712 297.067C152.93 296.961 153.364 296.846 153.419 297.112C152.577 297.54 154.021 297.729 153.683 298.326C153.452 298.35 153.316 298.031 153.329 298.114C153.153 298.404 153.628 298.472 153.986 298.585L153.621 298.637C153.89 298.928 154.159 299.218 154.428 299.509C153.57 299.921 154.836 300.432 154.155 300.554C154.222 300.936 154.468 300.137 154.699 300.559C154.36 300.776 154.998 300.917 154.414 301.075L154.332 301.056L154.468 301.374L153.826 301.333C154.031 301.588 154.672 301.63 155.106 301.515C154.86 301.868 155.211 302.178 154.706 302.423L154.544 302.35C154.962 303.043 153.242 303.965 154.383 304.306C154.314 304.37 154.148 304.396 154.152 304.297L154.2 304.761L153.739 304.743L154.572 305.336L154.273 305.39C154.252 305.917 154.585 306.656 154.791 307.291L154.629 307.218C155.231 307.836 154.468 307.938 154.895 308.4C154.796 308.396 154.78 308.379 154.764 308.362L154.862 308.811L154.551 308.749C155.267 308.975 153.863 309.86 154.386 309.567C154.71 309.712 155.094 309.991 155.491 309.973C155.603 310.472 155.121 310.157 154.909 310.511C154.927 310.875 155.455 310.862 155.285 311.4L154.97 311.437C155.044 311.654 155.286 311.779 155.373 312.079L155.211 312.007C155.903 312.446 154.405 312.784 155.781 313.002C155.573 313.258 155.805 313.646 155.192 313.705C155.663 314.317 155.89 314.804 156.195 315.443C155.197 315.635 156.288 315.578 155.743 316.019L156.274 315.94C156.354 316.405 156.069 316.922 155.784 317.438C155.516 317.972 155.281 318.474 155.393 318.973L154.863 319.019L155.467 319.191C155.362 319.731 155.271 320.354 155.182 320.944C155.092 321.534 155.037 322.093 155.019 322.521C155.305 322.796 155.947 323.25 155.715 323.686L155.634 323.633C155.767 324.018 155.899 324.435 155.932 324.849C155.957 325.048 155.965 325.262 155.924 325.459C155.899 325.672 155.825 325.867 155.734 326.078C155.506 326.003 155.354 326.079 155.194 325.974C155.761 326.211 155.174 326.468 155.15 326.649L155.569 326.484C156.052 326.766 155.545 327.076 155.13 327.143L155.69 327.577C155.64 327.591 155.54 327.62 155.457 327.634L155.733 327.727L155.002 327.863C155.13 327.967 155.258 328.483 155.908 328.707C155.661 328.713 155.433 329.051 155.346 328.751L154.962 330.088L155.25 329.918C155.792 329.955 156.07 330.428 155.783 330.598C155.401 330.253 155.029 330.47 154.632 330.52C154.886 330.761 155.13 330.441 155.405 330.567C155.724 330.843 155.817 331.391 155.567 331.464L155.376 331.291C155.51 331.643 154.571 331.623 154.575 331.936C154.957 332.281 154.522 332.429 155.441 332.531C155.539 332.98 154.78 332.571 154.66 332.682C155.045 332.961 154.645 333.456 154.184 333.438C155.467 333.934 153.469 334.416 154.561 334.739L153.861 334.91C154.155 334.987 154.806 335.21 154.875 335.527C154.505 335.71 154.002 335.509 153.671 335.529L154.725 335.982C153.927 336.561 153.614 337.357 153.301 338.186C153.227 338.381 153.152 338.609 153.078 338.804C152.987 339.015 152.88 339.208 152.773 339.402C152.56 339.79 152.298 340.159 151.922 340.474C151.923 340.853 151.971 341.317 151.969 341.762C151.968 342.207 151.884 342.666 151.654 343.036L151.561 342.9L150.956 343.586L151.665 343.185C151.721 343.418 151.878 343.622 151.788 343.8C151.394 344.164 150.949 344.575 150.617 345.04C150.268 345.521 150.015 346.072 150.038 346.716C150.929 347.955 148.786 346.7 149.353 347.761C149.258 347.659 149.098 347.553 149.003 347.451C149.026 347.683 149.036 347.864 149.061 348.063C149.07 348.245 149.079 348.427 149.121 348.61C149.172 348.975 149.257 349.341 149.433 349.875C148.321 349.222 149.233 350.346 148.653 349.993L149.086 350.29C148.723 350.309 148.446 350.628 148.109 350.401L148.546 351.011L148.06 350.795C147.829 351.198 147.737 352.266 146.644 351.976C146.732 352.656 146.504 353.405 146.147 354.084C145.772 354.778 145.252 355.418 144.8 355.994C145.08 356.4 144.9 356.789 144.772 357.097L144.047 357.069C144.031 357.464 144.546 358.194 144.017 358.239C143.952 358.203 143.921 358.169 143.906 358.119C143.826 358.479 143.376 358.577 143.699 359.166C143.472 359.471 142.989 359.6 142.544 359.187C143.426 359.799 141.992 359.792 141.992 359.792C141.992 359.792 141.94 359.84 141.853 359.952C141.766 360.064 141.628 360.223 141.438 360.43C141.092 360.845 140.588 361.469 139.998 362.204C138.8 363.691 137.183 365.755 135.574 368.034C132.373 372.576 129.07 378.037 129.792 381.809C130.087 382.266 130.08 382.843 130.697 383.098C130.631 383.507 129.792 383.046 130.155 383.439C130.739 383.281 131.139 384.401 131.962 384.433L131.883 384.76C132.136 385.034 131.808 384.164 132.284 384.644L131.569 383.973C131.853 383.868 132.084 383.877 132.408 384.022C132.243 383.603 131.275 382.659 132.087 382.575L132.047 382.738C132.294 382.352 132.716 382.913 132.897 382.936L132.828 383L133.455 382.991C133.009 383.023 133.354 383.878 133.462 383.651C134.016 383.392 133.183 383.624 133.347 383.218C133.455 382.991 133.836 383.369 134.076 383.56L134.322 383.173C134.672 383.484 134.115 383.396 134.604 383.547L134.569 382.787C135.55 383.403 134.52 381.944 135.54 382.429C135.487 382.922 135.861 382.64 136.13 382.931L136.691 382.095C136.871 382.119 136.806 382.528 136.845 382.365C137.206 382.412 136.812 381.951 136.882 381.855C137.19 381.983 137.335 381.246 137.925 381.748C138.759 381.516 137.331 380.933 138.067 380.698C138.487 380.912 137.833 381.167 138.408 381.239L138.681 380.606C138.821 380.793 139.202 381.171 138.966 381.294C140.542 380.25 143.103 380.961 143.6 379.265C144.187 379.42 143.8 379.619 143.983 379.989C144.106 378.576 145.971 379.358 146.534 378.489L146.166 378.194C148.174 377.894 148.516 375.961 149.957 374.978L149.579 374.947C149.35 374.493 149.526 374.203 149.508 373.84C149.719 373.93 150.205 374.559 150.324 374.069C150.126 374.062 149.876 374.134 149.735 373.947C150.634 373.719 151.441 372.942 152.27 372.018C153.081 371.11 153.868 370.003 154.775 369.197C155.149 368.503 155.573 367.794 156.046 367.103C156.519 366.412 157.024 365.756 157.513 365.082C158.002 364.409 158.492 363.702 158.932 363.011C159.16 362.673 159.372 362.319 159.585 361.964C159.797 361.61 159.96 361.237 160.124 360.864C159.925 361.301 159.03 360.574 159.433 360.392C160.504 360.417 160.653 359.994 160.722 359.519C160.806 359.06 160.793 358.565 161.608 358.415C161.746 357.431 162.384 356.747 162.907 356.042C163.169 355.673 163.414 355.32 163.546 354.913C163.678 354.505 163.698 354.011 163.539 353.461L164.042 353.662C164.378 353.51 164.056 353.3 164.117 353.022L164.246 353.093C164.695 352.583 164.519 351.636 164.892 351.387L164.341 351.134C164.439 350.759 164.852 351.138 164.692 350.62L164.967 350.746L164.614 350.089C165.586 350.523 165.099 349.102 165.664 348.993C165.67 348.449 165.596 347.407 166.051 346.765C166.609 346.82 166.91 345.908 167.375 345.415C167.498 344.826 167.642 344.123 167.852 343.389C168.03 342.654 168.243 341.887 168.535 341.173L167.849 341.014L167.898 340.62C168.044 340.675 168.128 340.629 168.192 340.698C169.036 340.615 168.196 339.774 168.748 339.581C168.086 339.621 168.59 339.823 168.499 340.033C168.094 340.248 167.519 339.797 167.977 339.469L168.123 339.524L167.842 339.15C168.382 339.254 168.687 339.035 169.227 339.138C169.379 337.825 168.663 336.775 169.208 335.51C169.484 335.636 169.51 335.39 169.568 335.177C169.626 334.965 169.733 334.772 170.219 334.988C169.957 334.121 169.363 334.955 168.69 334.467C168.748 334.255 168.495 333.981 168.89 333.997C169.115 334.137 169.553 333.923 169.611 334.124L169.616 333.58C169.7 333.533 169.827 333.67 169.89 333.739C169.683 333.137 169.932 332.685 170.164 332.249C170.396 331.813 170.612 331.359 170.386 330.839C170.028 330.726 170.222 331.212 169.864 331.099C169.231 330.036 170.655 330.306 170.232 329.333L170.9 329.54C170.584 329.198 170.145 329.032 170.592 328.588C171.22 328.547 171.052 329.051 171.322 329.309C171.385 328.965 171.288 328.104 170.718 328.313C170.554 327.894 171.102 327.8 171.292 327.593C171.144 327.571 170.849 327.938 170.579 327.681C170.962 327.168 171.03 326.313 171.106 325.64C171.254 325.662 171.503 325.622 171.566 325.691C170.814 325.117 172.194 325.237 172.043 324.489Z" fill="#FF7800"/>
<path d="M163.555 290.964L163.544 291.228C163.661 291.183 163.827 291.156 164.006 291.212L163.555 290.964Z" fill="#FF7800"/>
<path d="M166.448 302.734C166.497 302.753 166.546 302.771 166.627 302.791C166.597 302.724 166.514 302.737 166.448 302.734Z" fill="#FF7800"/>
<path d="M168.098 305.427C167.924 305.239 167.8 305.449 167.678 305.592C167.794 305.58 167.945 305.537 168.098 305.427Z" fill="#FF7800"/>
<path d="M159.647 285.187C159.729 285.207 159.812 285.193 159.93 285.148C159.799 285.11 159.732 285.141 159.647 285.187Z" fill="#FF7800"/>
<path d="M151.712 268.299C151.711 268.332 151.71 268.364 151.658 268.412C151.693 268.38 151.711 268.332 151.712 268.299Z" fill="#FF7800"/>
<path d="M151.39 269.671C151.405 269.721 151.469 269.756 151.582 269.811C151.568 269.728 151.488 269.675 151.39 269.671Z" fill="#FF7800"/>
<path d="M161.482 289.324C161.529 289.375 161.592 289.444 161.723 289.449C161.679 289.332 161.58 289.328 161.482 289.324Z" fill="#FF7800"/>
<path d="M151.807 269.92L151.879 270.17C151.913 270.139 151.946 270.14 151.98 270.108L151.807 269.92Z" fill="#FF7800"/>
<path d="M151.595 267.964C151.624 268.064 151.701 268.183 151.697 268.281C151.786 268.104 151.725 268.003 151.595 267.964Z" fill="#FF7800"/>
<path d="M156.19 279.248L156.206 279.265C156.533 279.344 156.371 279.271 156.19 279.248Z" fill="#FF7800"/>
<path d="M153.304 270.38L153.303 270.413L153.484 270.403L153.304 270.38Z" fill="#FF7800"/>
<path d="M151.213 266.891C151.244 266.926 151.293 266.944 151.375 266.931C151.361 266.881 151.379 266.833 151.349 266.766C151.281 266.829 151.247 266.86 151.213 266.891Z" fill="#FF7800"/>
<path d="M155.318 275.332C155.069 275.372 154.919 275.416 154.817 275.478C154.863 275.562 154.979 275.55 155.318 275.332Z" fill="#FF7800"/>
<path d="M242.809 51.4417C242.743 51.439 242.645 51.4349 242.529 51.4466C242.643 51.4677 242.726 51.4547 242.809 51.4417Z" fill="#FF7800"/>
<path d="M242.489 67.7436L242.348 67.5563C242.376 67.6893 242.423 67.7407 242.489 67.7436Z" fill="#FF7800"/>
<path d="M241.449 41.6839C241.482 41.6852 241.482 41.6852 241.515 41.6865C241.472 41.5363 241.446 41.3374 241.361 41.0041L241.449 41.6839Z" fill="#FF7800"/>
<path d="M236.336 101.511L236.394 101.3C236.357 101.397 236.321 101.461 236.336 101.511Z" fill="#FF7800"/>
<path d="M241.212 81.7281C241.308 81.7978 241.353 81.9148 241.382 82.0148C241.42 81.8845 241.424 81.7858 241.212 81.7281Z" fill="#FF7800"/>
<path d="M245.653 34.8209L245.355 35.2214C245.506 35.1777 245.645 35.0183 245.653 34.8209Z" fill="#FF7800"/>
<path d="M240.275 25.6154C240.258 25.6311 240.241 25.6467 240.207 25.6779C240.24 25.6792 240.257 25.6636 240.275 25.6154Z" fill="#FF7800"/>
<path d="M240.385 29.9752C240.448 30.0438 240.544 30.1137 240.656 30.168C240.595 30.0666 240.534 29.9324 240.385 29.9752Z" fill="#FF7800"/>
<path d="M240.799 30.2897C240.75 30.2712 240.703 30.2196 240.654 30.2011C240.701 30.2527 240.732 30.3202 240.799 30.2897Z" fill="#FF7800"/>
<path d="M171.704 210.382C171.497 210.605 171.564 210.987 171.597 211.367L171.704 210.382Z" fill="#FF7800"/>
<path d="M225.4 130.62L225.274 130.482C225.304 130.55 225.352 130.601 225.4 130.62Z" fill="#FF7800"/>
<path d="M174.154 212.912L173.968 213.02C174.051 213.006 174.118 212.976 174.154 212.912Z" fill="#FF7800"/>
<path d="M248.285 39.9332C248.755 40.1332 248.479 40.8653 248.828 40.7634C248.693 40.4444 248.846 39.9221 248.285 39.9332Z" fill="#FF7800"/>
<path d="M235.654 143.449L235.58 143.644C235.617 143.547 235.635 143.498 235.654 143.449Z" fill="#FF7800"/>
<path d="M174.154 212.913L174.391 212.79C174.326 212.754 174.26 212.752 174.195 212.716C174.191 212.815 174.173 212.864 174.154 212.913Z" fill="#FF7800"/>
<path d="M208.825 158.925C208.827 158.892 208.828 158.859 208.814 158.809L208.825 158.925Z" fill="#FF7800"/>
<path d="M207.311 160.031C207.349 159.9 207.37 159.786 207.409 159.656C207.272 159.782 207.266 159.914 207.311 160.031Z" fill="#FF7800"/>
<path d="M171.581 211.35L171.526 211.908C171.599 211.746 171.606 211.549 171.581 211.35Z" fill="#FF7800"/>
<path d="M196.684 175.757C196.703 175.708 196.739 175.644 196.757 175.595C196.706 175.642 196.67 175.707 196.684 175.757Z" fill="#FF7800"/>
<path d="M241.582 80.4392C241.616 80.4078 241.651 80.3436 241.67 80.295C241.588 80.2752 241.522 80.2725 241.582 80.4392Z" fill="#FF7800"/>
<path d="M249.793 94.321C249.67 94.5304 249.886 94.902 250.139 95.1432C250.198 94.8981 250.142 94.6649 249.793 94.321Z" fill="#FF7800"/>
<path d="M252.598 82.0027L252.564 82.0014C252.564 82.0014 252.564 82.0014 252.598 82.0027Z" fill="#FF7800"/>
<path d="M252.339 84.961C252.255 85.007 252.186 85.07 252.134 85.15C252.235 85.0883 252.319 85.0424 252.339 84.961Z" fill="#FF7800"/>
<path d="M242.802 131.416C242.914 131.091 243.027 130.733 243.141 130.375C243.239 130 243.352 129.642 243.467 129.251C243.679 128.485 243.893 127.686 244.09 126.903C244.303 126.104 244.5 125.321 244.761 124.573C244.892 124.2 245.005 123.842 245.152 123.485C245.281 123.144 245.41 122.803 245.555 122.479C245.012 121.618 245.293 120.789 245.412 119.887L246.458 120.159L246.375 119.348C246.778 119.166 246.367 119.957 246.943 119.585L246.401 119.102C246.794 119.183 247.28 117.374 247.601 118.82C247.919 117.893 248.253 116.983 248.538 116.056C248.776 115.455 247.788 115.417 248.257 114.826C248.605 114.79 248.377 115.127 248.77 115.208C249.483 114.297 249.183 113.56 248.799 112.837C248.433 112.098 248.017 111.373 248.547 110.504L248.638 110.705C248.456 110.303 248.662 109.701 248.515 109.646C247.395 109.603 248.99 110.159 248.199 110.54C247.337 110.226 247.937 109.673 247.266 109.532C247.709 109.187 247.279 108.791 247.345 108.382C248.091 107.884 247.936 106.823 248.773 106.526C248.591 106.124 247.79 105.532 247.934 104.83C248.755 104.516 248.582 105.119 249.003 104.509L248.501 104.275C248.721 103.724 248.848 103.86 249.076 103.935C249.249 103.332 248.492 103.27 249.014 102.598L249.421 103.142C249.364 102.53 249.503 102.338 249.716 101.572C250.01 101.649 249.915 101.958 249.791 102.168C250.658 101.938 249.625 101.37 249.749 101.161C249.501 101.168 249.282 101.686 248.835 101.307C249.015 100.951 248.313 100.331 248.995 100.209L249.402 100.752C249.174 99.8536 248.847 100.187 249.246 99.3127C249.276 99.3798 249.408 99.385 249.505 99.4217C248.957 98.6919 249.709 98.0623 249.941 97.2147L250.049 97.4002C249.949 97.0174 249.515 96.7204 249.588 96.5585C249.191 96.9878 249.066 96.8182 248.54 96.7647C249.532 96.2927 247.745 95.597 248.444 94.6358C248.738 94.7132 249.056 95.0221 248.682 95.2711C249.519 95.798 250.238 95.9908 250.522 96.7103C250.392 96.2604 250.379 95.7657 250.735 95.9443L249.937 95.6661C249.964 95.42 250.038 95.2252 250.077 95.062C249.574 94.8611 249.14 95.3878 248.884 94.7683C248.73 94.0869 249.799 94.5899 249.443 94.4112C249.283 93.4824 248.622 93.9014 249.051 93.0945C249.113 93.1957 249.221 93.3812 249.119 93.4431C249.57 92.9006 249.229 91.9483 250.253 91.9223C250.463 92.0458 250.757 92.1232 250.633 92.3325L250.485 92.3103C251.097 93.1084 250.377 91.713 251.254 92.0767C250.711 92.039 250.976 91.1927 251.122 90.836L250.478 90.8603C248.841 89.2973 251.672 91.1211 251.642 89.8185C251.347 88.9503 251.417 90.0897 251.075 89.5492C251.261 89.0293 251.828 88.8867 251.681 88.0408C251.952 87.8537 252.332 87.4402 253.04 87.4843C252.831 86.949 253.544 86.0378 252.915 85.6673C252.224 86.4311 253.521 86.597 252.513 87.4637L251.884 87.0932C251.994 86.4221 251.799 85.5249 252.081 85.0746C251.929 85.1511 251.763 85.1776 251.634 85.1066C251.476 84.112 250.846 83.7744 251.147 82.8636C251.777 82.7894 251.607 83.3264 251.622 83.7553C252.189 83.2009 251.731 83.117 252.031 82.2062C252.576 82.211 251.94 82.8287 252.445 82.9967C252.427 82.6335 252.407 82.3033 252.389 81.9401C252.422 81.9414 252.455 81.9427 252.503 81.9611C251.622 81.729 252.634 81.1754 252.43 80.5085C252.557 78.9979 251.381 78.6884 250.69 77.8048C250.946 77.6006 251.18 77.5438 251.406 77.6515C250.996 77.9979 251.296 77.9437 251.537 78.1014C251.475 77.5883 252.488 77.0348 252.838 77.345C252.623 76.5294 252.349 77.6059 252.105 77.1022L252.232 76.0034C251.765 76.117 251.635 76.4908 251.312 75.9016C251.216 75.4201 251.324 75.1937 251.366 74.5529C251.593 74.6605 252.066 74.3825 252.031 74.8588C252.207 74.5692 252.26 74.0771 251.805 73.8946C251.349 74.5687 251.439 72.7436 250.709 73.2587L251.165 72.5846C251.158 72.7491 251.455 72.7607 251.363 73.0042C252.08 72.818 251.187 72.4372 251.115 72.1873C251.273 71.9464 251.331 71.3226 251.598 71.2671C251.392 71.0449 251.562 70.5079 251.913 70.4063C251.777 70.088 251.452 70.3883 251.225 70.2806L251.286 69.1792C251.668 69.1118 252.761 69.0226 252.903 69.1765C252.541 68.7505 251.754 69.0328 251.796 68.3919C252.169 68.5548 252.309 68.3625 252.482 68.1716C252.655 67.9806 252.81 67.8055 253.278 68.0709C253.821 67.6967 253.765 66.6402 253.557 66.0719C252.96 65.7356 253.234 66.7183 252.625 66.678C252.359 65.0861 250.676 65.0534 250.906 63.8598L250.745 64.1665C250.345 63.459 250.441 63.5286 249.895 63.1449C250.648 63.3061 251.914 62.2023 251.665 61.0065C251.272 60.9253 250.992 61.7216 250.371 61.5655C250.316 61.2998 250.244 61.0499 250.188 60.7841C250.257 60.7209 250.386 60.7918 250.481 60.8944C250.162 60.2065 251.346 59.4949 250.46 59.3615L251.501 58.529L251.042 58.857C250.665 58.7929 250.482 58.0115 250.306 57.8564C249.792 57.095 250.087 56.7605 250.519 56.2667C250.232 56.4367 249.554 56.8715 249.364 56.2546C250.592 56.1048 249.668 54.8661 250.314 54.809C250.274 54.5603 250.592 54.0456 250.079 54.075L250.841 54.0059C249.766 54.0792 249.688 53.1372 249.385 52.4664C250.856 52.4085 249.152 51.6995 250.411 51.172C249.42 51.1992 249.799 49.962 248.957 49.9786C248.814 49.4458 249.726 49.3332 250.015 49.1303L249.61 48.9333C250.004 48.5697 249.915 47.5119 250.09 46.8434L249.116 46.4429L249.458 46.1597C249.228 46.1178 248.999 45.6641 248.737 46.0327L248.733 45.7196C247.785 45.8967 248.385 45.3435 247.862 44.8124C247.984 44.636 248.199 44.6279 248.36 44.733C248.306 44.4344 248.8 44.4537 249.074 44.2008C248.882 44.4734 247.139 43.4828 246.92 44.4133C246.551 44.5636 246.172 44.1534 246.268 43.8112L247.059 43.4302L246.107 43.2942C245.877 42.8734 246.353 42.5295 246.369 42.1348C246.519 42.5031 248.182 42.5845 247.908 41.6018C248.152 42.1056 248.674 42.2577 248.913 42.4812C248.905 42.2668 248.943 42.1365 249.379 42.3676C248.93 41.6417 248.807 42.23 248.508 41.4605C249.257 41.3085 249.45 41.036 249.513 40.2807C249.372 40.5058 249.248 40.7151 249.107 40.9403C249.008 40.9364 248.926 40.9167 248.878 40.8983C248.852 41.1115 248.75 41.2064 248.465 41.3106C248.439 41.1448 247.319 40.6563 247.725 40.4086C246.791 41.4923 246.45 39.3044 245.91 39.9918C245.664 39.9657 245.47 39.4474 245.839 39.2971C246.579 39.7872 246.545 38.5833 247.092 38.5223C246.802 38.3462 246.686 39.1819 246.315 38.9532C246.165 38.585 246.545 38.1715 246.704 37.8976L246.881 38.0198C246.94 37.7751 246.983 37.5461 247.041 37.3342C246.644 37.3516 246.598 38.0912 246.238 37.5994C246.345 37.4058 245.985 36.9141 246.284 36.8598C246.858 36.9646 247.468 36.5601 247.747 36.9993C247.564 36.6298 247.085 35.4249 246.577 36.1464L246.464 35.6807C246.25 36.0678 245.947 37.0444 245.553 36.1723L245.703 36.1288L244.962 35.6715L245.259 35.2713C245.074 35.3464 244.878 35.3058 244.805 35.0559C245.008 34.932 245.019 34.6689 245.303 34.5975C245.032 33.928 244.678 34.1284 244.431 34.1023C244.248 33.7327 244.338 33.555 244.832 33.5743C244.739 33.027 244.345 32.155 244.579 31.6534C244.009 31.0711 244.473 31.847 243.854 31.6251C244.871 30.5611 243.458 29.1715 242.84 28.126C241.886 28.8795 242.586 27.8855 241.521 28.1075C241.962 28.2071 241.907 26.7058 242.616 27.5407L242.242 26.9989C242.648 26.3393 243.118 27.7745 243.668 26.824C243.348 26.169 241.975 26.2636 242.03 25.2938C242.908 25.2128 241.521 24.8127 242.42 24.6172C242.766 24.6471 242.788 24.9116 242.929 25.0983L243.02 24.8877C242.804 24.105 242.523 24.1105 242.204 24.2463C241.885 24.3821 241.512 24.6311 241.077 24.3671C240.566 23.5399 241.331 23.405 241.669 23.1876C241.76 22.977 241.412 22.601 241.121 22.4578C241.834 22.7822 241.122 23.6604 240.545 23.6544C241.204 22.8564 239.987 22.3312 239.545 22.2644C239.246 23.9331 239.906 23.1352 239.494 24.75C239.839 24.78 240.597 24.3977 240.613 25.2385C240.029 24.9851 240.191 25.4692 240.134 25.6482C240.511 25.3005 240.531 26.0425 240.807 26.1686C240.528 26.5202 239.6 26.2039 239.733 26.9998L240.853 26.6646C240.822 27.0094 240.035 26.8798 240.544 27.3609C239.87 27.2852 239.733 27.8235 239.216 27.1279C238.734 28.4599 240.322 28.3572 241.042 28.9289C240.944 28.8922 240.794 28.9357 240.696 28.899C241.042 28.9289 241.162 29.2301 241.286 29.4327C241.229 30.0235 240.666 29.2438 240.409 29.4808L240.741 30.2516C240.707 30.2832 240.689 30.299 240.672 30.3148C240.898 30.4554 241.073 30.6105 240.834 30.7989C240.393 30.6993 240.01 30.7667 239.666 30.7039L240.734 31.2398C240.336 31.2901 240.4 32.1493 239.907 31.6852L240.537 32.8465L239.845 33.2313C240.066 33.4706 240.217 33.4271 240.183 33.0468C240.164 33.5074 242.107 34.4399 240.609 34.7438C241.553 35.489 241.453 35.9299 242.17 36.9793C241.207 36.2828 241.638 38.2929 241.012 37.4448C240.87 38.1147 241.7 37.9823 241.965 38.3716C241.779 38.8915 241.002 38.9106 240.587 38.5649L241.099 38.9803L240.948 39.0238L241.513 39.3588C241.274 39.959 240.806 39.6937 240.835 40.2055L241.515 40.1167L241.233 40.567C241.506 40.347 241.71 40.6021 241.877 40.9546L241.727 40.9981L241.975 41.4032C241.459 41.0865 241.94 41.8466 241.416 41.7602C241.483 42.1418 241.499 42.1589 241.803 42.7967L242.225 42.5661C242.836 43.3643 241.557 42.7706 241.708 43.5179L242.21 43.3398C241.598 44.6009 243.134 44.9903 242.767 45.8985C242.537 45.4777 241.949 45.7348 242.115 45.7083C242.469 46.3317 242.54 47.4382 243.326 48.0125C242.616 48.4132 242.398 48.5199 242.201 49.303C242.346 49.8029 242.409 49.8712 242.901 49.9563C242.68 50.5078 243.289 51.3718 242.74 51.4986C243.2 51.5495 242.721 51.9591 243.142 52.1732L242.923 52.28L243.439 52.1519C242.373 53.2305 244.339 53.5709 243.439 54.623L243.279 54.485L243.546 54.8413C243.311 54.931 243.151 54.793 242.853 54.8143C242.874 55.1116 242.913 55.3932 242.934 55.6905L242.981 56.5655L243.344 56.1678C243.428 56.5335 243.981 56.7199 243.715 57.1872C242.832 56.5761 243.757 57.7819 243.156 57.9561L242.89 57.5998C243.002 58.0984 243.002 58.0984 243.533 58.0203C243.787 58.6727 242.569 58.5922 243.207 59.1443L243.208 58.6995C243.512 58.5466 243.98 58.812 244.001 59.1093C243.915 59.1884 243.708 59.4109 243.617 59.2097C243.861 59.7134 243.646 60.5452 243.884 60.7687C243.74 61.0596 243.346 61.0112 243.204 60.8574C243.479 61.3953 243.474 61.5269 243.452 61.6743C243.446 61.8059 243.425 61.9204 243.683 62.4741L243.37 62.4783L243.751 62.8556L243.132 63.4575L243.521 63.2256C243.605 63.5913 243.811 63.8135 243.678 64.2531L243.222 64.1035C243.382 64.6204 243.204 64.943 243.061 65.2339C242.933 65.5419 242.839 65.8183 243.166 66.3088C243.08 66.3878 242.938 66.234 242.859 66.1485C243.598 67.0505 242.07 66.8756 242.958 67.7669C242.812 67.7117 242.626 67.8198 242.496 67.7818L242.792 68.2052L242.166 68.1807L243.077 68.5128L242.439 68.7845L242.746 68.9447C241.572 69.3931 242.454 70.0371 241.572 70.6286L242.336 70.5266C242.732 70.921 242.897 71.3393 242.88 71.767C242.862 72.1946 242.712 72.65 242.544 73.1212C242.361 73.5753 242.161 74.0452 242.026 74.5177C241.909 74.9744 241.856 75.4666 242.002 75.9336L241.394 75.8604L242.072 76.6611C241.561 77.0366 241.555 76.3774 241.253 76.4974C241.549 77.3326 242.128 76.894 242.255 77.8544C241.806 78.3311 241.817 77.6561 241.613 77.401C241.856 78.3166 242.066 79.6756 241.678 80.2865C241.76 80.3062 241.873 80.36 241.907 80.3284C242.146 80.9637 241.769 81.7233 241.742 82.3812C241.464 82.3209 241.438 82.1551 241.394 82.0052C241.335 82.25 241.108 82.5541 241.379 82.7789L240.88 82.4793C240.728 82.9676 241.1 83.987 240.471 84.0284C240.72 83.9887 241.179 84.0725 241.078 84.5133C240.116 84.6405 241.309 85.7579 240.722 86.3939C240.512 86.2704 240.532 85.777 240.494 85.9073C240.217 86.226 240.598 86.6033 240.848 86.9425L240.491 86.7968C240.6 87.3612 240.677 87.9242 240.769 88.5044C239.808 88.5987 240.657 90.0651 240.005 89.842C239.883 90.4302 240.501 89.4165 240.471 90.1731C240.053 90.3051 240.542 90.8678 239.952 90.746L239.89 90.6447L239.836 91.1697L239.309 90.7373C239.356 91.2004 239.901 91.6171 240.342 91.7167C239.948 92.0802 240.103 92.7287 239.522 92.8213L239.414 92.6359C239.431 93.8556 237.418 94.2548 238.248 95.358C238.146 95.4199 238 95.3648 238.038 95.2345L237.862 95.936L237.46 95.6732C237.607 96.1073 237.77 96.5584 237.901 97.0083L237.607 96.931C237.313 97.6773 237.179 98.9406 237.039 99.9565L236.931 99.771C237.114 100.964 236.38 100.754 236.51 101.616C236.43 101.564 236.414 101.547 236.4 101.497L236.239 102.215L235.984 101.975C236.235 102.314 235.941 102.648 235.652 102.851C235.363 103.054 235.078 103.158 235.395 103.088C235.578 103.458 235.785 104.059 236.123 104.253C235.927 105.036 235.691 104.335 235.311 104.749C235.124 105.302 235.609 105.551 235.12 106.224L234.827 106.114C234.779 106.474 234.916 106.76 234.814 107.266L234.705 107.081C235.078 108.067 233.537 107.81 234.635 108.824C234.311 109.092 234.283 109.783 233.698 109.562C233.751 110.684 233.685 111.506 233.593 112.573C232.592 112.418 233.584 112.803 232.824 113.218L233.347 113.337C233.138 114.038 232.6 114.692 232.029 115.345C231.458 115.998 230.918 116.686 230.755 117.47L230.233 117.318L230.674 117.829C230.247 118.603 229.765 119.491 229.335 120.331C228.921 121.187 228.493 121.994 228.22 122.626C228.297 123.156 228.641 124.043 228.172 124.634L228.143 124.534C227.893 125.809 227.559 127.131 226.705 128.267C226.547 128.096 226.33 128.137 226.255 127.953C226.663 128.496 225.944 128.715 225.819 128.957L226.32 128.812C226.627 129.384 225.937 129.703 225.492 129.702C225.58 129.969 225.668 130.236 225.739 130.519C225.656 130.533 225.573 130.546 225.491 130.526L225.697 130.748L224.905 130.75C224.963 130.95 224.765 131.766 225.255 132.296C225.026 132.254 224.596 132.682 224.68 132.224L223.496 134.171L223.884 133.972C224.387 134.173 224.39 134.931 224.018 135.147C223.828 134.53 223.356 134.775 222.91 134.774C223.026 135.174 223.456 134.746 223.643 135.017C223.716 135.267 223.703 135.596 223.625 135.89C223.564 136.167 223.423 136.392 223.257 136.419L223.17 136.119C223.097 136.693 222.149 136.458 221.932 136.944C222.088 137.559 221.572 137.687 222.45 138.018C222.29 138.704 221.759 137.958 221.587 138.116C221.815 138.603 221.127 139.301 220.652 139.2C221.67 140.162 219.359 140.583 220.289 141.245C220.023 141.301 219.74 141.372 219.458 141.41C219.715 141.585 220.259 142.002 220.141 142.459C219.638 142.669 219.223 142.324 218.894 142.278L219.737 143.085C218.6 143.848 217.793 145.036 217.017 146.257C216.63 146.868 216.209 147.478 215.757 148.053C215.304 148.629 214.82 149.17 214.259 149.593C214.054 150.161 213.862 150.846 213.603 151.528C213.474 151.868 213.345 152.209 213.184 152.516C213.006 152.839 212.812 153.144 212.586 153.415L212.545 153.2L211.514 154.214L212.511 153.643C212.465 153.971 212.502 154.285 212.343 154.526C211.712 155.045 211.01 155.66 210.404 156.378C210.092 156.728 209.796 157.128 209.565 157.531C209.317 157.95 209.102 158.37 208.95 158.858C209.359 160.604 207.529 158.901 207.667 160.389C207.624 160.239 207.497 160.103 207.437 159.969C207.087 161.273 206.894 161.957 206.802 163.436C205.813 162.574 206.361 164.127 205.852 163.646L206.216 164.039C205.785 164.088 205.304 164.564 205.052 164.258L205.265 165.106L204.798 164.841C204.328 165.432 203.77 166.992 202.644 166.668C202.541 167.174 202.357 167.661 202.088 168.194C201.836 168.712 201.485 169.225 201.134 169.739C200.4 170.764 199.534 171.752 198.774 172.612C198.934 173.129 198.581 173.708 198.299 174.158L197.438 174.224C197.268 174.761 197.576 175.712 196.926 175.867C196.878 175.816 196.831 175.765 196.832 175.732C196.613 176.251 196.011 176.458 196.178 177.222C195.78 177.684 195.159 177.94 194.783 177.431C195.596 178.138 193.888 178.352 193.888 178.352C193.888 178.352 193.56 178.718 192.99 179.338C192.403 179.974 191.589 180.914 190.603 182.045C190.118 182.62 189.581 183.241 188.993 183.91C188.422 184.563 187.815 185.281 187.175 186.03C186.551 186.764 185.891 187.561 185.232 188.359C184.573 189.157 183.879 189.987 183.217 190.851C177.793 197.657 172.141 205.624 171.899 210.408C172.141 210.945 171.946 211.695 172.614 211.902C172.411 212.438 171.536 212.041 171.865 212.466C172.622 212.117 172.78 213.523 173.742 213.396L173.543 213.833C173.778 214.155 173.624 213.062 174.081 213.59L173.401 212.856C173.756 212.655 174.054 212.634 174.396 212.73C174.334 212.217 173.436 211.177 174.453 210.903L174.345 211.13C174.763 210.586 175.118 211.209 175.333 211.201L175.213 211.312L175.977 211.177C175.428 211.304 175.583 212.364 175.794 212.043C176.539 211.578 175.48 212.047 175.766 211.498C175.977 211.177 176.307 211.602 176.529 211.808L176.948 211.264C177.298 211.574 176.621 211.597 177.178 211.685L177.35 210.703C178.348 211.335 177.525 209.623 178.615 210.011C178.424 210.663 178.954 210.206 179.172 210.544L180.112 209.329C180.327 209.32 180.139 209.873 180.231 209.663C180.66 209.646 180.319 209.106 180.422 209.011C180.747 209.123 181.151 208.117 181.707 208.649C182.766 208.18 181.234 207.692 182.194 207.219C182.632 207.417 181.788 207.878 182.433 207.854L182.947 206.968C183.054 207.186 183.4 207.595 183.077 207.83C185.291 206.137 188.129 206.561 189.246 204.232C189.903 204.324 189.361 204.665 189.493 205.082C190.08 203.21 192.049 203.897 192.991 202.649L192.64 202.338C195.098 201.561 196.091 199.03 198.085 197.477L197.655 197.493C197.511 196.96 197.827 196.511 197.911 196.053C198.122 196.144 198.504 196.9 198.796 196.22C198.581 196.228 198.262 196.364 198.138 196.161C199.261 195.727 200.462 194.588 201.704 193.253C202.947 191.917 204.213 190.402 205.498 189.216C206.148 188.237 206.88 187.277 207.628 186.334C208.376 185.392 209.172 184.467 209.986 183.527C211.563 181.661 213.124 179.778 214.374 177.834C213.988 178.411 213.249 177.51 213.771 177.25C216.183 177.179 214.967 175.007 216.9 174.555C217.157 173.906 217.525 173.377 217.942 172.866C218.358 172.355 218.805 171.911 219.221 171.433C220.052 170.477 220.785 169.484 220.893 168.022L221.361 168.288C221.78 168.123 221.529 167.817 221.708 167.461L221.82 167.548C222.18 167.216 222.381 166.746 222.58 166.309C222.779 165.872 222.927 165.482 223.197 165.328L222.7 164.963C222.968 164.463 223.26 164.985 223.271 164.31L223.528 164.485L223.398 163.623C224.264 164.25 224.324 162.358 224.972 162.235C225.199 161.519 225.551 160.149 226.295 159.304C226.869 159.409 227.558 158.266 228.259 157.684C228.636 156.925 229.084 156.036 229.617 155.101C230.15 154.167 230.685 153.166 231.314 152.301L230.7 151.981L230.935 151.479C231.064 151.55 231.18 151.538 231.192 151.654C232.099 151.673 231.621 150.435 232.271 150.279C231.58 150.219 231.995 150.565 231.82 150.822C231.299 151.049 230.931 150.342 231.54 149.971L231.67 150.042L231.559 149.51C232.061 149.744 232.466 149.529 232.952 149.746C233.365 148.922 233.48 148.119 233.661 147.319C233.842 146.519 234.054 145.753 234.613 144.984C235.057 145.429 235.126 143.719 235.87 144.522C236.049 143.343 235.021 144.291 234.607 143.501C234.767 143.227 234.668 142.811 235.042 142.941C235.198 143.178 235.733 143.001 235.705 143.28L235.998 142.567C236.098 142.538 236.156 142.738 236.168 142.853C236.333 141.213 238.021 140.702 238.082 139.189C237.779 138.93 237.734 139.636 237.43 139.377C237.362 137.793 238.586 138.566 238.676 137.153L239.019 137.627C238.876 137.094 238.544 136.736 239.239 136.285C239.86 136.441 239.44 137.018 239.555 137.45C239.679 137.241 239.826 136.852 239.873 136.524C239.903 136.179 239.831 135.929 239.498 135.982C239.539 135.374 240.131 135.43 240.404 135.21C240.275 135.139 239.814 135.533 239.699 135.1C240.332 134.548 240.823 133.431 241.253 132.591C241.382 132.662 241.628 132.688 241.673 132.805C241.3 131.819 242.529 132.46 242.802 131.416Z" fill="#FF7800"/>
<path d="M252.728 81.6284L252.597 82.003C252.729 82.0082 252.892 82.0477 253.033 82.2348L252.728 81.6284Z" fill="#FF7800"/>
<path d="M249.552 99.5065C249.599 99.5579 249.63 99.6251 249.677 99.6766C249.681 99.578 249.616 99.5422 249.552 99.5065Z" fill="#FF7800"/>
<path d="M249.588 104.06C249.535 103.729 249.312 103.967 249.126 104.075C249.241 104.096 249.388 104.118 249.588 104.06Z" fill="#FF7800"/>
<path d="M251.642 71.2728C251.705 71.3411 251.785 71.3937 251.918 71.3656C251.806 71.2789 251.725 71.2593 251.642 71.2728Z" fill="#FF7800"/>
<path d="M249.062 43.0178C249.044 43.0665 249.042 43.0995 248.991 43.1469C249.042 43.0995 249.061 43.0507 249.062 43.0178Z" fill="#FF7800"/>
<path d="M248.475 44.7574C248.488 44.8405 248.534 44.9249 248.628 45.0607C248.634 44.8958 248.571 44.8273 248.475 44.7574Z" fill="#FF7800"/>
<path d="M251.578 78.1321C251.59 78.2481 251.636 78.3324 251.763 78.4363C251.77 78.2716 251.691 78.186 251.578 78.1321Z" fill="#FF7800"/>
<path d="M248.829 45.3502L248.847 45.7462C248.88 45.7475 248.913 45.7489 248.963 45.7345L248.829 45.3502Z" fill="#FF7800"/>
<path d="M249.018 42.4874C249.029 42.6363 249.087 42.8366 249.065 42.9842C249.188 42.7747 249.145 42.6245 249.018 42.4874Z" fill="#FF7800"/>
<path d="M250.55 60.9474C250.566 60.9646 250.566 60.9646 250.565 60.9975C250.867 61.2578 250.726 61.0704 250.55 60.9474Z" fill="#FF7800"/>
<path d="M250.216 46.8277C250.199 46.8436 250.215 46.8607 250.198 46.8766L250.393 46.9508L250.216 46.8277Z" fill="#FF7800"/>
<path d="M248.846 40.7485C248.876 40.8156 248.923 40.8668 249.003 40.9194C249.006 40.8536 249.009 40.7879 249.013 40.6892C248.946 40.7195 248.879 40.7498 248.846 40.7485Z" fill="#FF7800"/>
<path d="M250.926 54.9414C250.682 54.8498 250.517 54.8437 250.401 54.8559C250.446 54.9731 250.542 55.0427 250.926 54.9414Z" fill="#FF7800"/>
<path d="M163.743 244.385C163.74 244.451 163.721 244.532 163.7 244.646C163.736 244.549 163.74 244.451 163.743 244.385Z" fill="#FF7800"/>
<path d="M170.984 247.104L170.879 247.232C170.929 247.217 170.981 247.17 170.984 247.104Z" fill="#FF7800"/>
<path d="M159.267 243.367C159.268 243.334 159.268 243.334 159.269 243.301C159.204 243.298 159.106 243.262 158.942 243.255L159.267 243.367Z" fill="#FF7800"/>
<path d="M186.809 252.354L186.709 252.35C186.742 252.351 186.774 252.386 186.809 252.354Z" fill="#FF7800"/>
<path d="M177.387 248.979C177.441 248.867 177.508 248.836 177.559 248.822C177.494 248.786 177.444 248.801 177.387 248.979Z" fill="#FF7800"/>
<path d="M156.786 237.389C156.813 237.522 156.874 237.656 156.934 237.79C156.925 237.608 156.85 237.424 156.786 237.389Z" fill="#FF7800"/>
<path d="M154.268 239.953C154.317 239.971 154.384 239.941 154.469 239.894C154.403 239.892 154.388 239.842 154.268 239.953Z" fill="#FF7800"/>
<path d="M154.568 239.866C154.551 239.882 154.501 239.896 154.451 239.911C154.484 239.912 154.517 239.913 154.568 239.866Z" fill="#FF7800"/>
<path d="M248.202 235.313C248.305 235.185 248.103 234.896 247.965 234.643L248.202 235.313Z" fill="#FF7800"/>
<path d="M202.474 255.222L202.434 255.385C202.453 255.336 202.471 255.288 202.474 255.222Z" fill="#FF7800"/>
<path d="M245.265 233.356L245.383 233.311C245.317 233.309 245.3 233.324 245.265 233.356Z" fill="#FF7800"/>
<path d="M159.472 236.317C159.62 235.926 159.931 236.4 159.93 236.021C159.762 236.08 159.544 235.775 159.472 236.317Z" fill="#FF7800"/>
<path d="M206.83 240.595L206.914 240.582C206.865 240.563 206.848 240.579 206.83 240.595Z" fill="#FF7800"/>
<path d="M245.265 233.356L245.131 233.416C245.195 233.452 245.261 233.454 245.325 233.49C245.295 233.423 245.263 233.389 245.265 233.356Z" fill="#FF7800"/>
<path d="M220.169 254.96C220.152 254.976 220.151 255.009 220.149 255.042L220.169 254.96Z" fill="#FF7800"/>
<path d="M221.237 255.435C221.185 255.482 221.117 255.545 221.065 255.592C221.163 255.629 221.2 255.532 221.237 255.435Z" fill="#FF7800"/>
<path d="M247.966 234.643L247.817 234.275C247.813 234.373 247.873 234.507 247.966 234.643Z" fill="#FF7800"/>
<path d="M231.264 252.055C231.229 252.086 231.212 252.102 231.177 252.134C231.211 252.135 231.245 252.103 231.264 252.055Z" fill="#FF7800"/>
<path d="M176.823 248.642C176.808 248.592 176.792 248.574 176.761 248.54C176.741 248.622 176.738 248.688 176.823 248.642Z" fill="#FF7800"/>
<path d="M184.651 240.038C184.728 240.157 184.937 239.901 185.064 239.626C184.967 239.589 184.865 239.651 184.651 240.038Z" fill="#FF7800"/>
<path d="M185.725 239.968C185.709 239.951 185.693 239.934 185.694 239.9C185.709 239.951 185.725 239.968 185.725 239.968Z" fill="#FF7800"/>
<path d="M179.269 237.793L179.268 237.827C179.268 237.827 179.268 237.827 179.269 237.793Z" fill="#FF7800"/>
<path d="M180.612 238.016C180.625 238.099 180.64 238.15 180.67 238.217C180.657 238.134 180.644 238.051 180.612 238.016Z" fill="#FF7800"/>
<path d="M201.479 238.833C200.884 238.875 200.201 239.03 199.504 239.135C199.156 239.171 198.824 239.224 198.478 239.227C198.149 239.214 197.821 239.168 197.561 239.059C197.184 239.819 196.806 239.788 196.405 239.904L196.548 238.821L196.174 239.104C196.105 238.755 196.444 238.949 196.296 238.515L196.057 239.148C196.105 238.755 195.314 238.757 195.967 238.09L194.772 237.862C194.511 237.785 194.457 238.723 194.19 238.399C194.186 238.086 194.33 238.207 194.378 237.813C193.642 236.845 192.967 239.687 192.202 239.031L192.306 238.903C192.098 239.159 191.854 239.067 191.798 239.213C191.689 240.297 192.052 238.662 192.206 239.344C192.005 240.227 191.793 239.757 191.666 240.444C191.532 240.093 191.315 240.579 191.133 240.588C190.943 239.971 190.436 240.281 190.368 239.52C190.159 239.775 189.829 240.62 189.499 240.607C189.414 239.862 189.69 239.955 189.44 239.615L189.287 240.137C189.045 240.012 189.133 239.867 189.192 239.622C188.932 239.546 188.819 240.284 188.555 239.894L188.854 239.428C188.568 239.565 188.473 239.462 188.148 239.35C188.226 239.057 188.356 239.095 188.434 239.213C188.417 238.405 188.044 239.478 187.949 239.376C187.94 239.606 188.148 239.763 187.93 240.249C187.771 240.111 187.41 240.888 187.419 240.245L187.718 239.779C187.26 240.107 187.397 240.393 187.029 240.098C187.063 240.067 187.069 239.935 187.105 239.837C186.718 240.449 186.498 239.764 186.107 239.65L186.211 239.522C186.024 239.663 185.841 240.118 185.76 240.065C185.928 240.418 185.823 240.546 185.736 241.07C185.625 240.159 185.074 241.968 184.702 241.359C184.78 241.066 184.975 240.727 185.028 241.059C185.376 240.199 185.554 239.463 185.93 239.115C185.709 239.288 185.459 239.361 185.589 238.987L185.359 239.802C185.243 239.814 185.164 239.729 185.082 239.709C184.913 240.213 185.128 240.618 184.804 240.885C184.465 241.103 184.822 240.012 184.709 240.37C184.237 240.616 184.361 241.231 184.029 240.871C184.08 240.824 184.184 240.696 184.198 240.779C183.999 240.392 183.505 240.785 183.627 239.784C183.718 239.573 183.796 239.279 183.858 239.381L183.836 239.528C184.29 238.886 183.55 239.665 183.832 238.803C183.745 239.327 183.373 239.131 183.23 239.01L183.156 239.617C182.198 241.294 183.451 238.425 182.82 238.532C182.362 238.861 182.911 238.734 182.616 239.101C182.408 238.945 182.413 238.401 181.994 238.566C181.939 238.3 181.804 237.948 181.931 237.261C181.658 237.481 181.322 236.808 181.065 237.458C181.32 238.111 181.586 236.819 181.827 237.801L181.554 238.433C181.262 238.323 180.806 238.585 180.636 238.298C180.646 238.447 180.64 238.612 180.584 238.758C180.099 238.92 179.842 239.57 179.459 239.258C179.517 238.634 179.758 238.792 179.94 238.782C179.764 238.248 179.663 238.689 179.279 238.41C179.366 237.886 179.555 238.503 179.708 237.982L179.21 238.061C179.212 238.028 179.213 237.995 179.231 237.947C178.982 238.811 178.892 237.785 178.553 238.003C177.882 237.861 177.538 239.035 177.018 239.674C176.962 239.408 176.972 239.177 177.063 238.967C177.144 239.399 177.19 239.071 177.281 238.86C177.032 238.9 176.957 237.891 177.135 237.568C176.715 237.766 177.181 238.064 176.892 238.3L176.403 238.149C176.384 238.61 176.544 238.749 176.218 239.049C175.984 239.139 175.889 239.036 175.612 238.943C175.703 238.732 175.657 238.236 175.852 238.309C175.744 238.124 175.533 238.033 175.367 238.472C175.612 238.943 174.778 238.762 174.879 239.524L174.635 239.053C174.716 239.073 174.761 238.778 174.856 238.88C174.901 238.173 174.553 239.033 174.436 239.078C174.359 238.927 174.067 238.817 174.094 238.537C173.972 238.714 173.749 238.507 173.747 238.161C173.561 238.269 173.662 238.619 173.571 238.83L173.083 238.679C173.131 238.285 173.257 237.218 173.361 237.091C173.117 237.411 173.101 238.218 172.825 238.125C173.117 237.411 172.52 237.487 172.917 236.645C172.841 236.081 172.365 236.013 172.062 236.166C171.792 236.733 172.294 236.554 172.171 237.143C171.408 237.245 171.095 238.898 170.598 238.533L170.706 238.718C170.315 239.016 170.367 238.936 170.1 239.437C170.311 238.703 170.019 237.356 169.422 237.431C169.324 237.807 169.622 238.198 169.466 238.785L169.084 238.853C169.054 238.786 169.125 238.656 169.178 238.576C168.806 238.792 168.693 237.502 168.493 238.384L168.291 237.239L168.37 237.737C168.273 238.112 167.891 238.179 167.787 238.307C167.36 238.67 167.274 238.337 167.096 237.835C167.133 238.15 167.203 238.878 166.902 238.965C167.05 237.751 166.329 238.448 166.405 237.808C166.273 237.803 166.107 237.417 166.054 237.91L166.15 237.155C166.009 238.205 165.584 238.122 165.215 238.273C165.438 236.83 164.833 238.34 164.787 237.019C164.633 237.986 164.147 237.357 164.015 238.176C163.75 238.199 163.853 237.28 163.816 236.965L163.67 237.322C163.574 236.84 163.084 236.722 162.816 236.398L162.485 237.243L162.402 236.844C162.344 237.056 162.108 237.178 162.227 237.513L162.081 237.458C162.009 238.411 161.857 237.696 161.543 238.113C161.484 237.946 161.509 237.732 161.58 237.603C161.433 237.581 161.518 237.089 161.449 236.773C161.538 237.008 160.837 238.448 161.215 238.891C161.232 239.288 160.974 239.558 160.849 239.388L160.784 238.528L160.584 239.411C160.365 239.518 160.272 238.97 160.111 238.865C160.294 238.822 160.588 237.251 160.094 237.232C160.346 237.126 160.496 236.67 160.652 236.495C160.554 236.458 160.508 236.374 160.687 236.018C160.281 236.266 160.534 236.54 160.151 236.64C160.198 235.867 160.093 235.616 159.757 235.355L159.998 235.925C159.994 236.024 159.959 236.089 159.94 236.137C160.019 236.223 160.064 236.34 160.068 236.654C159.986 236.634 159.601 237.592 159.554 237.128C159.901 238.329 158.874 238.041 159.108 238.776C159.066 239.005 158.801 239.028 158.783 238.664C159.103 238.083 158.554 237.798 158.608 237.272C158.484 237.482 158.849 237.843 158.689 238.117C158.506 238.159 158.36 237.692 158.271 237.457L158.359 237.312L158.076 236.971C158.027 237.365 158.363 237.626 158.091 237.813C158.015 237.662 157.744 237.849 157.756 237.552C157.876 237.03 157.789 236.317 158.025 236.194C157.824 236.253 157.21 236.344 157.479 237.047L157.25 237.005C157.401 237.341 157.807 237.917 157.358 238.015L157.364 237.85L157.061 238.416L156.912 238.014C156.921 238.196 156.865 238.375 156.766 238.371C156.742 238.139 156.663 238.054 156.659 237.74C156.443 237.781 156.444 238.161 156.419 238.374C156.302 238.419 156.259 238.269 156.343 237.811C156.215 237.707 155.998 237.781 156.097 237.372C155.985 237.698 156.057 237.536 155.939 238.026C155.976 237.928 155.997 237.814 156.018 237.699C155.962 237.845 155.941 237.96 155.886 238.106C155.866 238.188 155.831 238.252 155.795 238.317C155.776 238.366 155.757 238.447 155.721 238.512C155.686 238.576 155.65 238.641 155.614 238.705C155.596 238.754 155.56 238.819 155.542 238.868C155.401 239.093 155.33 239.222 155.244 239.301L155.21 239.333C155.193 239.349 155.176 239.364 155.176 239.364C155.193 239.349 155.176 239.364 155.193 239.349C155.193 239.349 155.193 239.349 155.21 239.333C155.227 239.317 155.244 239.301 155.26 239.318L154.591 239.556C154.573 239.572 154.558 239.555 154.54 239.57C154.573 239.572 154.558 239.555 154.508 239.569C154.508 239.569 154.49 239.585 154.475 239.568L154.457 239.584C154.44 239.599 154.425 239.582 154.407 239.598L154.374 239.597C154.374 239.597 154.374 239.597 154.49 239.585C154.407 239.598 154.374 239.597 154.374 239.597C154.39 239.614 154.39 239.614 154.374 239.597L154.44 239.599C154.44 239.599 154.44 239.599 154.39 239.614C154.324 239.611 154.407 239.598 154.519 239.685C154.631 239.772 154.805 239.96 154.913 240.146C154.883 240.078 154.929 240.163 154.959 240.23C154.99 240.297 155.005 240.314 154.99 240.297C154.991 240.264 154.945 240.18 154.867 240.061L154.897 240.128C155.005 240.314 154.972 240.313 154.988 240.33C154.972 240.313 154.972 240.313 154.972 240.313C154.972 240.313 154.957 240.296 154.974 240.28C154.975 240.247 154.959 240.23 154.945 240.18C154.917 240.047 154.924 239.882 154.928 239.783C154.932 239.685 154.934 239.619 154.936 239.586C154.937 239.553 154.937 239.553 154.938 239.52C154.94 239.487 154.958 239.438 154.977 239.39C154.995 239.341 155.013 239.292 155.049 239.228C155.086 239.13 155.136 239.115 155.136 239.115C155.136 239.115 155.119 239.131 155.068 239.179C155.05 239.195 155.032 239.243 155.031 239.276C155.029 239.309 154.995 239.341 154.994 239.374C154.955 239.504 154.953 239.57 154.991 239.44C155.011 239.358 155.049 239.228 155.1 239.18C155.136 239.115 155.203 239.085 155.153 239.1C155.153 239.1 155.12 239.098 155.103 239.114L155.07 239.113C155.053 239.129 155.037 239.112 155.037 239.112C155.004 239.11 154.987 239.126 154.971 239.109C154.938 239.108 154.905 239.106 154.873 239.105C154.84 239.104 154.824 239.087 154.791 239.086C154.758 239.084 154.725 239.083 154.693 239.049C154.66 239.047 154.645 239.03 154.612 239.029C154.612 239.029 154.596 239.012 154.579 239.028L154.563 239.011C153.994 238.807 153.409 238.586 152.873 238.384C153.442 238.588 153.994 238.807 154.563 239.011L154.579 239.028L154.612 239.029C154.628 239.046 154.66 239.047 154.676 239.065C154.725 239.083 154.758 239.084 154.807 239.103C154.855 239.121 154.937 239.141 154.987 239.126C155.02 239.127 155.053 239.129 155.086 239.13C155.119 239.131 155.119 239.131 155.136 239.115C155.136 239.115 155.186 239.101 155.153 239.1L155.136 239.115C155.119 239.131 155.066 239.212 155.029 239.309C154.975 239.422 154.95 239.636 154.955 239.916C154.953 239.982 154.951 240.015 154.965 240.098C154.963 240.131 154.978 240.181 154.976 240.214C154.992 240.231 154.991 240.264 154.991 240.264C154.991 240.264 154.99 240.297 155.007 240.281C154.992 240.231 155.022 240.298 154.991 240.264C154.991 240.264 154.991 240.264 154.961 240.197C154.93 240.13 154.868 240.028 154.838 239.961C154.791 239.91 154.838 239.961 154.854 239.978C154.838 239.961 154.806 239.927 154.792 239.877C154.746 239.793 154.683 239.724 154.634 239.706L154.713 239.792L154.697 239.774L154.666 239.74C154.634 239.706 154.618 239.689 154.618 239.689C154.618 239.689 154.602 239.672 154.587 239.655C154.571 239.638 154.571 239.638 154.555 239.62C154.539 239.603 154.506 239.602 154.49 239.585C154.539 239.603 154.555 239.62 154.555 239.62C154.41 239.532 154.298 239.445 154.338 239.282C154.112 239.141 153.962 239.185 153.942 239.267C153.905 239.364 154 239.467 154.147 239.522C154.228 239.542 154.31 239.561 154.393 239.548C154.426 239.549 154.509 239.536 154.509 239.536C154.526 239.52 154.559 239.522 154.576 239.506L154.609 239.507L154.626 239.491L154.743 239.446L154.76 239.431C154.811 239.416 154.843 239.417 154.894 239.403C154.977 239.39 155.044 239.359 155.078 239.328C155.011 239.358 154.876 239.419 154.809 239.449C154.944 239.388 155.011 239.358 155.061 239.343C155.111 239.329 155.111 239.329 155.145 239.297C155.042 239.392 154.957 239.471 154.838 239.549C154.72 239.627 154.587 239.655 154.451 239.748C154.482 239.782 154.514 239.817 154.53 239.834C154.561 239.868 154.593 239.902 154.626 239.904C154.592 239.935 154.608 239.952 154.59 239.968C154.742 239.892 154.843 239.83 154.701 240.088C154.427 240.341 154.136 240.61 153.866 240.764C154.182 240.694 154.452 240.54 154.689 240.384C154.584 240.545 154.576 240.743 154.57 240.874C154.564 241.039 154.541 241.186 154.31 241.21C154.57 241.286 154.833 241.33 155.08 241.323C155.037 241.585 154.993 241.847 154.967 242.093C155.201 242.004 155.224 241.856 155.031 241.717C155.142 241.836 155.483 241.553 155.703 241.413C155.923 241.273 156.088 241.28 155.976 242.017C156.268 241.716 156.437 241.623 156.637 241.565C156.822 241.49 157.021 241.465 157.292 241.277C156.868 241.986 157.816 242.188 157.342 242.5C157.625 242.84 157.675 242.001 157.878 241.877C158.08 242.199 157.999 242.97 157.774 243.242L158.019 242.889L158.013 243.053L158.244 242.617C158.475 243.039 158.296 243.394 158.522 243.502L158.583 242.812L158.732 243.213C158.662 242.897 158.816 242.755 158.999 242.713L158.993 242.877L159.196 242.753C158.981 243.174 159.388 242.893 159.285 243.4C159.466 243.423 159.466 243.423 159.8 243.305L159.753 242.841C160.197 242.463 159.758 243.534 160.102 243.597L160.107 243.053C160.581 243.978 160.968 242.575 161.306 243.182C161.087 243.289 161.111 243.933 161.118 243.768C161.438 243.6 161.942 243.768 162.298 243.122C162.365 243.916 162.373 244.131 162.688 244.506C162.92 244.482 162.972 244.402 163.089 243.977C163.29 244.299 163.768 243.888 163.746 244.448C163.846 244.007 163.939 244.555 164.103 244.182L164.109 244.429L164.148 243.887C164.461 245.119 164.915 243.274 165.235 244.342L165.146 244.486L165.352 244.297C165.358 244.544 165.271 244.656 165.225 244.984L166.042 245.181L165.927 244.748C166.111 244.706 166.279 244.201 166.447 244.554C166.037 245.313 166.725 244.614 166.699 245.24L166.494 245.43C166.726 245.406 166.726 245.406 166.78 244.88C167.116 244.728 166.869 245.939 167.221 245.392L167.025 245.351C167.005 245.021 167.203 244.616 167.35 244.639C167.364 244.722 167.436 244.972 167.334 245.034C167.606 244.846 167.939 245.173 168.079 244.98C168.187 245.166 168.089 245.541 168.018 245.671C168.611 245.281 168.243 245.811 168.836 245.422L168.791 245.717L169.019 245.38L169.173 246.062L169.141 245.648C169.307 245.622 169.463 245.414 169.636 245.635L169.487 246.058C170.022 245.881 169.932 246.883 170.499 246.328C170.512 246.411 170.424 246.556 170.372 246.603C170.91 245.948 170.553 247.451 171.128 246.666C171.073 246.812 171.098 247.011 171.06 247.142L171.301 246.887L171.194 247.493L171.509 246.631L171.533 247.275L171.659 247C171.677 248.188 172.106 247.38 172.251 248.293L172.331 247.521C172.838 246.799 173.206 247.094 173.569 247.487C173.949 247.898 174.307 248.423 174.813 248.146L174.69 248.734L175.178 248.094C175.273 248.609 174.96 248.58 174.964 248.894C175.42 248.631 175.295 248.049 175.777 247.953C175.941 248.404 175.611 248.391 175.456 248.567C175.926 248.354 176.627 248.151 176.859 248.539C176.879 248.457 176.916 248.36 176.917 248.327C177.256 248.109 177.572 248.451 177.884 248.48C177.823 248.758 177.723 248.787 177.639 248.833C177.752 248.887 177.859 249.106 178.001 248.847L177.784 249.334C177.992 249.49 178.552 249.1 178.494 249.724C178.52 249.478 178.62 249.036 178.815 249.11C178.728 250.047 179.453 248.838 179.694 249.408C179.603 249.619 179.355 249.626 179.421 249.628C179.542 249.897 179.789 249.511 179.997 249.255L179.884 249.614L180.772 249.269C180.685 250.205 181.529 249.299 181.338 249.951C181.615 250.044 181.192 249.483 181.556 249.465C181.573 249.861 181.923 249.347 181.768 249.935L181.716 249.982L181.98 249.992L181.694 250.542C181.928 250.452 182.214 249.902 182.314 249.461C182.447 249.846 182.786 249.628 182.763 250.188L182.659 250.316C183.275 250.191 183.262 252.137 183.909 251.222C183.923 251.305 183.883 251.468 183.819 251.433L184.16 251.561L183.978 251.983L184.709 251.435L184.631 251.728C184.986 251.94 185.63 251.916 186.141 251.919L186.037 252.047C186.677 251.709 186.499 252.444 186.971 252.199C186.951 252.281 186.917 252.312 186.9 252.328L187.261 252.375L187.134 252.651C187.538 252.056 187.737 253.647 187.678 253.068C187.887 252.812 188.228 252.528 188.341 252.17C188.735 252.219 188.358 252.567 188.56 252.888C188.836 252.981 188.989 252.459 189.321 252.819L189.243 253.112C189.442 253.087 189.598 252.912 189.846 252.905L189.741 253.033C190.275 252.477 190.081 254.019 190.676 252.773C190.797 253.041 191.164 252.924 191.042 253.512C191.631 253.222 192.08 253.124 192.631 252.964C192.541 253.967 192.748 252.92 192.97 253.538L193.042 252.997C193.798 253.059 194.416 254.518 195.26 254.436L195.189 254.977L195.442 254.426C195.653 254.517 195.879 254.625 196.123 254.717C196.367 254.809 196.61 254.901 196.838 254.976C197.327 255.127 197.784 255.243 198.144 255.323C198.418 255.07 198.87 254.494 199.207 254.722L199.154 254.802C199.857 254.566 200.555 254.428 201.248 254.835C201.173 255.063 201.232 255.23 201.128 255.358C201.365 254.79 201.556 255.374 201.719 255.414L201.518 255.093C201.768 254.608 202.011 255.145 202.078 255.527L202.462 254.981C202.477 255.031 202.506 255.131 202.503 255.197L202.597 254.92L202.699 255.65C202.804 255.522 203.271 255.375 203.447 254.706C203.453 254.954 203.759 255.147 203.49 255.269C203.881 255.383 204.29 255.481 204.698 255.58L204.527 255.326C204.532 254.782 204.941 254.468 205.095 254.738C204.814 255.155 205.031 255.494 205.097 255.909C205.29 255.636 204.968 255.425 205.079 255.133C205.307 254.795 205.759 254.632 205.848 254.866L205.725 255.076C206.029 254.89 206.106 255.833 206.388 255.794C206.669 255.376 206.818 255.778 206.822 254.855C207.192 254.671 206.929 255.485 207.056 255.589C207.238 255.168 207.739 255.435 207.802 255.915C208.038 254.556 208.787 256.432 208.867 255.281L209.171 255.919C209.183 255.623 209.244 254.933 209.496 254.794C209.731 255.117 209.66 255.658 209.729 255.974L209.875 254.826C210.542 255.445 211.299 255.508 212.088 255.572C212.483 255.587 212.878 255.603 213.288 255.668C213.698 255.734 214.072 255.864 214.459 256.077C214.778 255.941 215.134 255.707 215.487 255.54C215.857 255.356 216.242 255.223 216.636 255.271L216.563 255.433L217.346 255.662L216.737 255.209C216.891 255.067 216.984 254.823 217.148 254.83C218.024 255.194 219.227 255.636 220.148 254.881C220.583 253.496 220.782 255.944 221.252 254.908C221.214 255.038 221.223 255.22 221.201 255.367C221.817 254.798 222.142 254.53 222.673 253.627C222.869 254.905 223.106 253.512 223.194 254.192L223.15 253.663C223.37 253.935 223.748 253.966 223.782 254.347L223.926 253.643L224.086 254.161C224.501 254.095 225.237 253.447 225.724 254.456C226.124 253.927 226.715 253.604 227.383 253.399C228.035 253.177 228.765 253.074 229.413 252.951C229.449 252.474 229.785 252.322 230.055 252.168L230.579 252.667C230.789 252.378 230.807 251.505 231.225 251.785C231.255 251.852 231.252 251.918 231.251 251.951C231.475 251.713 231.895 251.927 231.922 251.268C232.239 251.165 232.694 251.348 232.835 251.947C232.64 251.461 232.823 251.419 233.051 251.494C233.279 251.569 233.567 251.778 233.567 251.778C233.567 251.778 233.634 251.747 233.768 251.72C233.885 251.675 234.085 251.617 234.318 251.56C234.553 251.47 234.837 251.366 235.172 251.247C235.507 251.128 235.876 250.978 236.295 250.813C237.939 250.118 240.145 249.001 242.224 247.334C243.264 246.501 244.274 245.568 245.157 244.53C245.607 244.02 246.024 243.476 246.392 242.946C246.585 242.673 246.744 242.399 246.936 242.127C247.096 241.852 247.24 241.561 247.399 241.287C247.543 240.996 247.669 240.721 247.796 240.445C247.922 240.17 248 239.876 248.094 239.599C248.281 239.046 248.418 238.507 248.472 237.982C248.526 237.456 248.546 236.962 248.483 236.482C248.42 236.001 248.305 235.568 248.125 235.132C247.744 234.754 247.65 234.24 247.03 234.051C246.995 233.703 247.888 234.051 247.456 233.721C246.954 233.899 246.315 232.967 245.556 232.971L245.567 232.707C245.263 232.481 245.779 233.177 245.217 232.809L246.036 233.352C245.801 233.442 245.571 233.433 245.245 233.321C245.496 233.661 246.585 234.462 245.856 234.532L245.862 234.401C245.717 234.725 245.208 234.243 245.028 234.22C245.045 234.204 245.062 234.188 245.063 234.155C244.866 234.147 244.668 234.14 244.471 234.132C244.883 234.131 244.385 233.386 244.327 233.599C243.874 233.795 244.589 233.642 244.527 233.953C244.471 234.132 244.054 233.819 243.797 233.644L243.654 233.935C243.285 233.673 243.792 233.776 243.32 233.609L243.494 234.209C242.496 233.609 243.697 234.91 242.693 234.442C242.643 234.044 242.355 234.247 242.085 233.989L241.714 234.585C241.551 234.545 241.531 234.215 241.526 234.347C241.183 234.251 241.627 234.697 241.576 234.744C241.285 234.601 241.278 235.178 240.688 234.677C239.994 234.715 241.333 235.444 240.688 235.501C240.286 235.238 240.817 235.16 240.328 235.009L240.178 235.465C240.037 235.278 239.656 234.9 239.839 234.858C239.538 234.978 239.157 235.012 238.779 234.981C238.401 234.95 237.975 234.867 237.631 234.804C236.909 234.71 236.319 234.621 236.181 235.193C235.699 234.877 235.996 234.856 235.812 234.519C235.825 235.014 235.447 234.983 234.991 234.833C234.551 234.7 234.082 234.468 233.908 234.692L234.207 235.05C233.427 234.756 233.026 234.905 232.653 235.154C232.467 235.262 232.28 235.403 232.094 235.511C231.908 235.62 231.674 235.709 231.41 235.699L231.666 235.907C231.813 236.341 231.659 236.484 231.648 236.747C231.507 236.56 231.206 235.856 231.078 236.164C231.206 236.268 231.384 236.358 231.49 236.576C230.842 236.287 230.211 236.394 229.576 236.6C229.243 236.686 228.908 236.805 228.591 236.908C228.257 236.994 227.908 237.063 227.562 237.066C227.204 237.332 226.801 237.514 226.399 237.663C225.965 237.811 225.515 237.909 225.066 238.007C224.152 238.185 223.256 238.315 222.465 238.697C222.717 238.591 222.92 239.704 222.647 239.512C222.12 238.667 221.9 238.806 221.726 239.031C221.536 239.237 221.36 239.527 220.904 238.965C220.474 239.394 219.937 239.224 219.427 239.188C218.934 239.136 218.455 239.166 218.108 239.994L217.998 239.462C217.825 239.241 217.826 239.62 217.692 239.681L217.681 239.532C217.291 239.385 216.937 239.998 216.698 239.774L216.773 240.37C216.556 240.444 216.61 239.919 216.414 240.29L216.377 239.976L216.204 240.579C216.099 239.503 215.577 240.588 215.349 240.1C215.094 240.305 214.594 240.829 214.156 240.664C214.029 240.115 213.5 240.16 213.147 239.915C212.513 240.088 211.58 240.316 210.746 240.135L210.784 240.829L210.568 240.87C210.558 240.721 210.544 240.638 210.564 240.556C210.381 239.774 210.059 240.801 209.865 240.315C209.971 240.946 210.025 240.42 210.14 240.441C210.324 240.778 210.149 241.447 209.916 241.092L209.922 240.927L209.759 241.3C209.731 240.755 209.593 240.502 209.566 239.957C208.867 240.094 208.336 240.997 207.588 240.737C207.695 240.131 207.039 240.864 207.246 239.817C206.769 240.194 207.277 240.675 207.05 241.392C206.936 241.371 206.776 241.645 206.775 241.266C206.851 241.005 206.701 240.636 206.821 240.526L206.505 240.596C206.492 240.513 206.547 240.366 206.583 240.302C205.933 240.87 205.541 239.552 204.957 240.123C204.892 240.5 205.167 240.247 205.102 240.623C204.496 241.342 204.686 239.898 204.122 240.387L204.275 239.865C204.08 240.204 203.962 240.661 203.733 240.207C203.758 239.581 204.017 239.723 204.176 239.449C204.013 239.41 203.497 239.505 203.59 240.086C203.335 240.257 203.308 239.712 203.2 239.527C203.177 239.674 203.38 239.962 203.205 240.219C202.923 239.846 202.43 239.793 202.055 239.696C202.077 239.549 202.087 239.318 202.122 239.254C201.727 240.063 201.93 238.702 201.479 238.833Z" fill="#FF7800"/>
<path d="M179.126 237.673L179.269 237.794C179.308 237.663 179.33 237.516 179.452 237.373L179.126 237.673Z" fill="#FF7800"/>
<path d="M187.087 239.763C187.121 239.731 187.14 239.682 187.175 239.618C187.125 239.632 187.107 239.681 187.087 239.763Z" fill="#FF7800"/>
<path d="M189.226 239.096C189.058 239.189 189.148 239.39 189.174 239.556C189.213 239.425 189.251 239.295 189.226 239.096Z" fill="#FF7800"/>
<path d="M174.162 238.399C174.214 238.352 174.234 238.27 174.239 238.138C174.202 238.236 174.166 238.3 174.162 238.399Z" fill="#FF7800"/>
<path d="M161.668 237.4C161.701 237.401 161.752 237.386 161.82 237.323C161.773 237.272 161.721 237.319 161.668 237.4Z" fill="#FF7800"/>
<path d="M177.314 238.732C177.364 238.717 177.432 238.687 177.486 238.574C177.403 238.587 177.35 238.667 177.314 238.732Z" fill="#FF7800"/>
<path d="M161.975 237.182L162.17 237.256C162.171 237.223 162.173 237.19 162.191 237.141L161.975 237.182Z" fill="#FF7800"/>
<path d="M160.726 236.304C160.807 236.324 160.906 236.328 160.969 236.396C160.877 236.227 160.796 236.208 160.726 236.304Z" fill="#FF7800"/>
<path d="M169.263 238.402L169.28 238.386C169.471 238.147 169.368 238.242 169.263 238.402Z" fill="#FF7800"/>
<path d="M162.875 236.165L162.891 236.182L162.964 236.02L162.875 236.165Z" fill="#FF7800"/>
<path d="M159.93 236.022C159.98 236.007 159.997 235.991 160.017 235.91C159.985 235.876 159.952 235.874 159.921 235.84C159.918 235.906 159.915 235.972 159.93 236.022Z" fill="#FF7800"/>
<path d="M166.628 237.118C166.553 237.346 166.515 237.476 166.51 237.607C166.56 237.593 166.629 237.497 166.628 237.118Z" fill="#FF7800"/>
</svg>
