<svg width="74" height="68" viewBox="0 0 74 68" fill="none" xmlns="http://www.w3.org/2000/svg">
<path d="M73.0494 18.2189C72.5852 16.9811 71.9663 15.7434 71.5022 14.6604C70.8833 13.1132 70.2645 11.7207 69.4909 10.1736C68.0984 7.23395 66.706 4.29433 65.3135 1.35471C65.0041 1.04527 64.5399 0.73584 63.9211 0.73584C58.8154 0.73584 10.2343 0.73584 10.0795 0.73584C9.46068 0.73584 8.99653 1.04527 8.6871 1.50942C6.21162 6.61509 3.58143 12.3396 0.951246 18.2189C0.796529 18.2189 0.641812 18.3736 0.641812 18.3736C0.0229441 18.8377 -0.131773 19.6113 0.332378 20.2302C16.1135 41.2717 31.1211 60.1472 37.0003 67.2641C41.1777 54.1132 46.5928 34.3094 49.9965 21.0038C77.2267 20.849 67.9437 20.849 69.955 20.849C55.4116 40.9623 41.7965 60.1472 37.0003 67.2641C42.7248 60.1472 57.8871 40.9623 73.6682 20.3849C73.8229 20.2302 73.9777 19.9207 73.9777 19.6113C73.9777 18.9924 73.6682 18.5283 73.0494 18.2189ZM67.0154 11.4113C67.789 12.8038 68.5626 14.1962 69.3362 15.7434C69.8003 16.517 70.2645 17.4453 70.7286 18.2189C68.7173 18.2189 78.155 18.2189 50.7701 18.0641C53.555 12.9585 55.1022 10.3283 58.3512 3.67546H62.838C64.3852 6.30565 65.7777 8.93584 67.0154 11.4113ZM39.3211 3.67546C42.2607 9.39999 43.8079 12.3396 46.9022 17.9094C44.8909 17.9094 54.3286 17.9094 27.0984 17.9094C30.038 12.649 32.3588 8.31697 34.8343 3.52075C36.2267 3.67546 37.7739 3.67546 39.3211 3.67546ZM55.1022 3.67546C51.5437 10.9472 50.6154 13.1132 48.7588 17.1358C47.2116 13.8868 46.5928 12.0302 42.4154 3.67546C47.0569 3.83018 50.1512 3.83018 55.1022 3.67546ZM31.4305 3.67546C28.1814 10.3283 27.0984 12.649 25.0871 17.2906C22.7663 11.8755 21.6833 9.70942 18.7437 3.67546C23.2305 3.83018 26.4795 3.83018 31.4305 3.67546ZM11.0079 3.67546H15.4946C18.4343 9.55471 20.6003 13.2679 23.2305 18.0641C-4.15442 18.2189 5.28332 18.2189 3.272 18.2189C5.59276 13.8868 7.75879 10.0189 11.0079 3.67546ZM4.04559 21.0038C6.05691 21.0038 -3.38083 21.0038 24.0041 21.1585C27.4079 34.4641 32.8229 54.2679 37.0003 67.4189C32.3588 60.6113 19.5173 42.0453 4.04559 21.0038ZM37.0003 67.2641C34.5248 53.649 30.1928 34.3094 26.9437 21.0038H46.9022C43.8079 34.4641 39.3211 53.8038 37.0003 67.2641Z" fill="#FF7800"/>
</svg>
