<svg width="105" height="88" viewBox="0 0 105 88" fill="none" xmlns="http://www.w3.org/2000/svg">
<path d="M35.4194 11.7646C36.7079 10.3863 37.2448 7.49189 37.2806 7.35405C37.3164 7.21622 37.7459 4.09206 37.1017 2.39214C36.35 0.416568 35.5626 0.370624 35.5626 0.370624C35.5626 0.370624 34.8825 0.0490188 34.1666 0.00307521C33.3076 -0.0428684 32.5917 0.370624 32.5917 0.370624C32.5917 0.370624 28.5828 2.07054 29.4061 8.73236C30.0146 13.8321 33.9519 13.3267 35.4194 11.7646Z" fill="white"/>
<path d="M51.3831 12.7747C52.7432 12.7747 54.4613 11.8099 55.034 10.7991C57.8975 3.54004 52.4211 1.7023 52.4211 1.7023C52.4211 1.7023 50.2377 1.10503 48.9134 2.29956C46.8016 4.22919 46.8731 6.75609 46.8731 6.75609C46.8731 6.75609 46.4794 12.7747 51.3831 12.7747Z" fill="white"/>
<path d="M68.5639 11.5345C68.5639 11.5345 72.6801 11.3967 72.9307 6.11317C73.217 -0.0432714 68.5281 0.0486155 68.5281 0.0486155C68.5281 0.0486155 64.0539 -0.318933 63.9465 5.83751C63.8034 11.7183 68.5639 11.5345 68.5639 11.5345Z" fill="white"/>
<path d="M5.17389 35.884C5.71079 38.5947 6.53404 41.0297 7.53625 43.235C11.4377 51.7346 17.7732 56.4668 17.7732 56.4668C17.7732 56.4668 16.1982 56.3749 14.516 56.6965C12.8337 57.0181 11.044 57.7991 10.2565 58.2126C8.71744 59.1315 6.49825 61.5206 7.42887 61.8881C7.96577 62.0719 8.14474 62.2557 9.25433 61.7043C9.79123 61.4287 10.5071 60.8314 11.5809 60.2801C12.1178 60.0044 12.941 60.0504 13.6569 59.6828C18.7754 57.11 26.8647 62.5773 26.8647 62.5773C26.8647 62.5773 29.3344 64.5069 31.8041 66.4365C34.4171 68.5499 37.9606 71.3525 41.7189 72.593C48.6986 74.8442 56.072 72.547 62.4074 67.1257C68.8503 61.6125 76.2237 58.8099 81.199 57.937C86.21 57.064 88.7514 58.2126 88.7514 58.2126C88.7514 58.2126 89.2883 58.5342 89.503 58.2586C89.7894 57.937 89.0735 57.11 89.0735 57.11C89.0735 57.11 87.6776 55.9154 85.4226 54.8587C83.1676 53.7561 80.4831 53.7561 80.5547 53.7101C82.7381 51.3211 85.7089 48.7942 88.0713 46.1295C91.3643 42.408 93.7266 38.7325 93.7266 38.7325C93.7266 38.7325 98.5229 31.6113 100.849 26.5115C102.031 23.8927 103.498 19.9875 104.142 18.1038C104.357 17.4147 104.393 17.0012 104.393 17.0012C104.393 17.0012 99.203 22.6063 95.5521 25.7305C91.9012 28.8546 85.7447 32.9436 85.7447 32.9436C85.7447 32.9436 85.1004 28.9925 83.9193 24.6278C82.3801 18.7011 79.8388 11.6258 75.5078 11.3961C73.7181 11.3042 70.9263 11.8555 70.9263 11.8555C70.3178 12.1771 66.5595 12.6825 65.1635 19.5281C63.6602 26.5115 65.3425 36.2056 65.8078 38.9622C66.0226 40.2027 66.2373 40.6622 66.0226 40.8C64.8414 41.5351 58.4702 41.9945 58.4702 41.9945C58.4702 41.9945 59.186 33.4031 57.9691 26.3737C56.8595 20.7686 53.4233 15.6229 49.665 15.6688C38.6049 15.8067 38.0322 41.1675 37.7816 40.6622C37.5311 40.2027 34.2381 39.4676 34.2381 39.4676C34.2381 39.4676 35.1329 34.4598 35.7414 29.0844C36.3857 23.5711 36.672 17.0931 31.5178 14.4743C21.2451 9.32861 16.0551 30.8762 16.0551 30.8762C16.0551 30.8762 7.46467 25.1332 3.88533 18.6552C3.70637 18.3336 3.31264 18.4254 3.31264 18.4254C3.31264 18.4254 2.63257 21.6874 4.17168 31.014C4.42223 32.4842 4.81596 34.1382 5.17389 35.884ZM6.39087 27.2926C6.39087 27.2926 20.4219 41.8567 36.4931 45.2565C43.2938 46.6808 53.2444 47.1862 63.8392 44.016C78.3713 39.7433 93.0465 31.1059 93.0465 31.1059C93.0465 31.1059 86.4964 40.754 76.6532 49.2077C71.2484 53.848 64.6982 58.0289 58.0407 60.2341C54.3539 61.4746 50.6672 62.3935 46.8731 61.98C43.7233 61.6584 40.8241 61.5206 38.1396 60.9233C28.9765 58.8099 22.3547 54.3993 17.1647 48.5185C14.9813 46.0376 12.7263 43.1891 11.0082 40.1568C9.14696 36.8488 7.89419 34.6895 6.7488 30.4627C6.2119 28.533 6.39087 27.2926 6.39087 27.2926Z" fill="white"/>
<path d="M85.1006 67.3557C86.067 67.4476 87.284 67.5855 88.3578 68.0449C88.9305 68.2746 89.8969 69.0097 89.8969 69.0097C89.9685 69.0097 94.6574 68.9178 95.1227 68.8719C95.5523 68.8259 95.767 68.0908 95.767 68.0908C95.767 68.0908 93.5121 65.4721 82.7383 64.3694C77.7272 63.864 70.5685 66.8504 64.3405 71.215C60.8685 73.65 57.6829 77.1417 55.2132 78.9335C52.6003 80.8632 50.2379 80.9091 50.2379 80.9091C50.2379 80.9091 47.6966 81.9199 41.3969 78.8876C38.784 77.6471 35.3121 74.9824 31.6969 72.7771C28.9408 71.0772 26.1132 69.6989 23.5718 69.1016C9.64822 65.7018 2.56114 71.5366 1.45154 71.9501C0.341951 72.3636 0.807264 73.2365 0.807264 73.2365H6.74896C6.74896 73.2365 8.57442 72.042 10.3641 71.261C11.76 70.6637 13.156 70.434 13.5497 70.3421C15.411 70.1124 17.2364 70.2502 18.9903 70.8475C22.8918 72.2717 26.0416 75.1662 26.0416 75.1662C26.0416 75.1662 27.1512 75.8094 33.2003 80.7713C37.8534 84.5846 41.9338 86.9277 45.2984 87.6169C52.8508 89.2249 57.0386 84.7684 57.0386 84.7684C57.0386 84.7684 58.6135 83.5279 61.3696 80.7713C63.5172 78.566 66.3091 75.4878 69.2084 72.869C70.8191 71.4447 72.5014 70.2961 74.0405 69.2854C79.1589 66.0693 83.9194 67.2639 85.1006 67.3557Z" fill="white"/>
</svg>
