<svg width="761" height="144" viewBox="0 0 761 144" fill="none" xmlns="http://www.w3.org/2000/svg">
<circle cx="210.113" cy="139.475" r="3.67567" fill="#1A1564"/>
<circle cx="268.653" cy="98.8407" r="3.11019" fill="#FF0000"/>
<circle cx="689.081" cy="98.8407" r="3.11019" fill="#FF0000"/>
<circle cx="435.177" cy="82.3602" r="3.11019" fill="#FF0000"/>
<circle cx="133.772" cy="123.075" r="4.80665" fill="#008029"/>
<circle cx="237.57" cy="45.3521" r="1.72788" fill="#008029"/>
<circle cx="671.865" cy="45.3521" r="1.72788" fill="#008029"/>
<circle cx="126.7" cy="45.3521" r="1.72788" fill="#008029"/>
<circle cx="546.893" cy="83.8055" r="1.72788" fill="#008029"/>
<circle cx="1.72788" cy="83.8055" r="1.72788" fill="#008029"/>
<circle cx="295.728" cy="1.72788" r="1.72788" fill="#008029"/>
<circle cx="281.583" cy="72.9669" r="2.76461" fill="#FF7800"/>
<circle cx="715.88" cy="72.9668" r="2.76461" fill="#FF7800"/>
<circle cx="170.715" cy="72.9668" r="2.76461" fill="#FF7800"/>
<circle cx="482.897" cy="115.944" r="2.76461" fill="#FF7800"/>
<circle cx="322.519" cy="123.075" r="3.80134" fill="#FF7080"/>
<circle cx="756.814" cy="123.075" r="3.80134" fill="#FF7080"/>
<circle cx="335.965" cy="60.0549" r="1.72788" fill="#FF0000"/>
<circle cx="588.738" cy="60.0549" r="1.72788" fill="#FF0000"/>
<circle cx="43.574" cy="60.0549" r="1.72788" fill="#FF0000"/>
<path d="M365.774 98.4722C365.81 98.7071 365.822 98.9455 365.884 99.178C365.91 99.2727 365.946 99.3614 365.978 99.4525C366.109 99.8396 366.245 100.228 366.459 100.58C366.616 100.838 366.796 101.082 366.956 101.338C367.131 101.616 367.35 101.859 367.59 102.078C368.04 102.487 368.511 102.869 369.061 103.144C369.529 103.377 370.012 103.574 370.532 103.664C370.617 103.678 370.698 103.71 370.779 103.739C371.073 103.845 371.375 103.915 371.687 103.947C371.86 103.963 372.031 103.975 372.205 103.981C372.547 103.994 372.883 103.93 373.22 103.9C373.55 103.87 373.859 103.764 374.18 103.704C374.186 103.703 374.192 103.703 374.197 103.701C374.449 103.616 374.687 103.504 374.916 103.362C374.788 103.315 374.671 103.392 374.519 103.382C374.627 103.308 374.735 103.303 374.83 103.265C374.926 103.227 375.024 103.199 375.113 103.169C375.133 103.115 375.076 103.12 375.078 103.069C375.15 102.994 375.223 102.896 375.333 102.843C375.48 102.771 375.602 102.665 375.724 102.564C375.943 102.379 376.156 102.186 376.367 101.994C376.619 101.767 376.821 101.496 377.044 101.243C377.236 101.024 377.389 100.776 377.559 100.539C377.735 100.295 377.854 100.028 377.991 99.7653C378.125 99.5136 378.27 99.2679 378.374 99.0019C378.543 98.5704 378.672 98.133 378.717 97.6692C378.744 97.3912 378.742 97.1132 378.761 96.8351C378.778 96.5799 378.686 96.3306 378.615 96.0849C378.606 96.0574 378.59 96.0322 378.586 96.0046C378.52 95.6127 378.31 95.2832 378.111 94.9524C377.955 94.6936 377.739 94.4755 377.546 94.243C377.355 94.0141 377.142 93.8043 376.909 93.6186C376.694 93.4484 376.481 93.2746 376.243 93.132C376.077 93.0326 375.921 92.9163 375.752 92.8168C375.508 92.6742 375.263 92.5436 374.994 92.4501C374.811 92.3854 374.642 92.2824 374.463 92.2057C374.045 92.0259 373.613 91.8869 373.177 91.7586C372.793 91.6448 372.4 91.5993 372.002 91.5717C371.714 91.5513 371.426 91.5405 371.138 91.5429C370.658 91.5477 370.196 91.652 369.759 91.8341C369.404 91.9828 369.083 92.1985 368.771 92.4238C368.455 92.6515 368.216 92.9475 367.969 93.2411C367.759 93.4904 367.582 93.7636 367.367 94.0105C367.282 94.1075 367.23 94.2334 367.16 94.3436C366.923 94.7175 366.764 95.1262 366.595 95.5301C366.582 95.5612 366.568 95.5936 366.551 95.6223C366.346 95.9627 366.228 96.3354 366.127 96.7165C366.065 96.9418 365.951 97.1527 365.9 97.3792C365.82 97.7363 365.715 98.0911 365.774 98.4722ZM370.511 92.1541C370.513 92.2057 370.472 92.2164 370.429 92.2212C370.338 92.232 370.247 92.2404 370.157 92.2548C370.033 92.274 369.911 92.3099 369.787 92.3159C369.715 92.3195 369.654 92.3267 369.6 92.3806C369.58 92.2919 369.579 92.2895 369.642 92.2656C369.878 92.1757 370.123 92.123 370.37 92.0726C370.387 92.069 370.404 92.0678 370.421 92.069C370.474 92.0738 370.508 92.1026 370.511 92.1541ZM371.129 92.4046C370.824 92.4202 370.519 92.4405 370.216 92.4705C370.516 92.3962 370.817 92.3291 371.129 92.4046ZM371.671 91.6724C371.319 91.6652 370.969 91.7047 370.583 91.7239C370.846 91.6184 371.484 91.5909 371.671 91.6724ZM373.009 91.8497C372.794 91.8162 372.595 91.8054 372.407 91.7371C372.599 91.7203 372.91 91.7802 373.009 91.8497ZM373.818 92.3135C373.81 92.3111 373.805 92.2991 373.799 92.2919C373.801 92.2788 373.808 92.2728 373.822 92.2764C373.831 92.2788 373.846 92.2859 373.847 92.2919C373.851 92.3135 373.834 92.3183 373.818 92.3135ZM374.193 92.4358C374.186 92.4405 374.179 92.4465 374.172 92.4513C374.163 92.4465 374.149 92.4429 374.146 92.4358C374.141 92.4142 374.157 92.4094 374.174 92.4142C374.183 92.4166 374.187 92.4286 374.193 92.4358ZM375.206 93.2854C375.146 93.283 375.097 93.2543 375.048 93.2279C374.942 93.1716 374.835 93.1141 374.726 93.0637C374.433 92.9283 374.125 92.8288 373.829 92.7054C373.104 92.4022 372.345 92.25 371.559 92.2284C371.301 92.2212 371.041 92.2236 370.781 92.22C370.643 92.2188 370.632 92.2081 370.585 92.0403C370.782 92.0511 370.975 91.9468 371.16 92.0846C371.175 92.0966 371.206 92.099 371.225 92.0918C371.296 92.0666 371.371 92.0858 371.448 92.0786C371.414 92.0055 371.336 92.0475 371.285 91.9911C371.333 91.9911 371.369 91.9863 371.401 91.9923C371.585 92.0235 371.772 92.0211 371.954 92.0391C372.088 92.0523 372.222 92.0822 372.36 92.0834C372.48 92.0846 372.598 92.1266 372.716 92.1505C372.834 92.1745 372.938 92.2045 372.977 92.3327C372.98 92.3399 372.998 92.3411 373.019 92.3495C373.117 92.2476 373.246 92.2596 373.364 92.3099C373.478 92.3579 373.625 92.3842 373.628 92.5484C373.68 92.57 373.741 92.5975 373.768 92.57C373.864 92.4729 373.947 92.5412 374.033 92.5736C374.378 92.703 374.71 92.86 375.039 93.023C375.048 93.0278 375.051 93.0398 375.059 93.0493C375.051 93.0805 375.001 93.0637 374.998 93.1141C375.034 93.1967 375.17 93.1872 375.206 93.2854ZM371.985 92.5676C371.897 92.5676 371.808 92.5748 371.726 92.5352C371.812 92.5436 371.903 92.5184 371.985 92.5676ZM372.4 92.6239C372.264 92.6083 372.124 92.6179 371.993 92.5688C372.133 92.558 372.27 92.5652 372.4 92.6239ZM375.452 93.3214C375.423 93.283 375.363 93.2698 375.351 93.1728C375.547 93.2998 375.736 93.3885 375.897 93.5251C375.836 93.5227 375.803 93.5838 375.747 93.5946C375.647 93.5647 375.568 93.4951 375.476 93.4484C375.452 93.4364 375.436 93.4089 375.417 93.3885C375.339 93.3729 375.271 93.3394 375.212 93.289C375.292 93.2986 375.372 93.3106 375.452 93.3214ZM378.562 97.3289C378.553 97.5422 378.524 97.7567 378.443 97.9892C378.424 97.8909 378.431 97.8202 378.441 97.7495C378.448 97.6992 378.463 97.6465 378.456 97.5973C378.415 97.3421 378.439 97.0856 378.429 96.8303C378.426 96.762 378.415 96.6949 378.412 96.6266C378.391 96.2934 378.29 95.9783 378.175 95.6691C378.059 95.3575 377.902 95.0627 377.69 94.8086C377.461 94.533 377.239 94.2478 376.965 94.0093C376.676 93.7576 376.403 93.488 376.073 93.2854C375.922 93.1931 375.767 93.1057 375.642 92.9774C375.798 93.017 375.917 93.1188 376.05 93.1967C376.503 93.4628 376.886 93.8163 377.278 94.1567C377.488 94.3388 377.649 94.5617 377.826 94.7691C378.073 95.0579 378.259 95.3862 378.383 95.7446C378.564 96.2599 378.588 96.7932 378.562 97.3289ZM376.012 93.6258C375.933 93.6258 375.928 93.5671 375.904 93.5275C375.953 93.5419 376.011 93.5467 376.012 93.6258ZM376.249 93.7348C376.263 93.8175 376.243 93.8571 376.191 93.8679C376.131 93.8798 376.051 93.8103 376.013 93.7121C376.092 93.7384 376.163 93.7804 376.249 93.7348ZM376.417 93.9362C376.374 93.9338 376.343 93.9242 376.344 93.8607C376.401 93.8595 376.424 93.8786 376.417 93.9362ZM376.689 94.1531C376.552 94.2046 376.529 94.068 376.429 94.0272C376.578 93.9949 376.591 94.0009 376.689 94.1531ZM376.894 94.3077C376.903 94.3113 376.906 94.3245 376.913 94.3328C376.905 94.3388 376.897 94.352 376.889 94.3508C376.881 94.3496 376.868 94.3388 376.865 94.3304C376.86 94.3089 376.875 94.3005 376.894 94.3077ZM377.102 94.5474C377.068 94.4874 376.982 94.527 376.916 94.4383C377.028 94.4383 377.084 94.4575 377.102 94.5474ZM377.368 94.8086C377.397 94.8338 377.434 94.8458 377.409 94.9081C377.38 94.8817 377.344 94.8697 377.368 94.8086ZM377.52 94.9896C377.527 94.9932 377.535 95.0052 377.535 95.0135C377.535 95.0255 377.525 95.0291 377.512 95.0255C377.504 95.0195 377.491 95.0123 377.49 95.0064C377.488 94.9848 377.504 94.9812 377.52 94.9896ZM377.769 95.6739C377.683 95.6175 377.631 95.5372 377.6 95.4414C377.689 95.4941 377.736 95.5792 377.769 95.6739ZM377.878 95.8668C377.819 95.8177 377.776 95.759 377.772 95.6787C377.838 95.7254 377.87 95.7901 377.878 95.8668ZM378.292 98.8161C378.375 98.5441 378.46 98.272 378.544 97.9988C378.533 98.29 378.428 98.5561 378.292 98.8161ZM377.891 98.7682C377.92 98.5932 377.914 98.417 377.904 98.2409C377.9 98.1726 377.9 98.1055 377.904 98.0371C377.917 97.6968 377.944 97.3516 377.895 97.0149C377.821 96.5068 377.683 96.013 377.384 95.5792C377.365 95.5504 377.338 95.5193 377.358 95.4725C378.126 96.3426 378.558 97.8442 377.892 99.0462C377.868 98.9431 377.876 98.8545 377.891 98.7682ZM377.674 99.2607C377.686 99.2044 377.697 99.1469 377.71 99.0905C377.735 99.1529 377.729 99.2104 377.674 99.2607ZM377.614 99.5603C377.633 99.5951 377.621 99.6238 377.584 99.661C377.573 99.6107 377.582 99.5819 377.614 99.5603ZM377.481 97.4679C377.508 97.5098 377.525 97.5374 377.501 97.5829C377.461 97.5434 377.462 97.5134 377.481 97.4679ZM377.306 96.6937C377.344 96.6865 377.341 96.7201 377.335 96.7644C377.306 96.7321 377.29 96.6973 377.306 96.6937ZM377.198 97.9005C377.226 97.976 377.253 98.0515 377.236 98.163C377.18 98.0611 377.181 97.982 377.198 97.9005ZM377.019 98.4686C377.064 98.9264 377.033 99.377 376.908 99.8455C376.857 99.6334 376.931 98.6459 377.019 98.4686ZM375.339 101.251C375.371 101.118 375.473 101.038 375.562 100.959C375.763 100.779 375.874 100.543 375.999 100.317C376.041 100.239 376.077 100.157 376.164 100.061C376.171 100.205 376.122 100.297 376.101 100.394C376.062 100.578 376.01 100.758 375.913 100.923C375.807 101.1 375.583 101.233 375.339 101.251ZM376.034 94.6912C376.135 94.7079 376.135 94.7079 376.154 94.7906C376.103 94.7643 376.062 94.7427 376.034 94.6912ZM373.254 92.9259C373.31 92.9091 373.347 92.9115 373.377 92.9271C373.535 93.011 373.711 93.0517 373.874 93.1248C374.293 93.3142 374.72 93.4868 375.128 93.7013C375.421 93.8547 375.692 94.038 375.941 94.2478C376.281 94.5342 376.602 94.8422 376.899 95.1741C377.112 95.4102 377.286 95.6715 377.436 95.9459C377.633 96.3042 377.73 96.6973 377.796 97.0976C377.806 97.1575 377.814 97.221 377.792 97.2881C377.744 97.2462 377.742 97.1935 377.741 97.1443C377.739 97.0461 377.713 96.9526 377.69 96.8591C377.559 96.3042 377.279 95.8201 376.919 95.3874C376.611 95.0195 376.3 94.6516 375.941 94.328C375.82 94.2202 375.693 94.1243 375.555 94.0392C375.055 93.73 374.519 93.4928 373.981 93.2567C373.847 93.1979 373.718 93.1069 373.556 93.1356C373.519 93.1416 373.492 93.1141 373.469 93.0865C373.415 93.0218 373.343 92.9726 373.254 92.9259ZM373.106 92.6023C373.064 92.5903 373.022 92.576 373.006 92.5113C373.489 92.6587 373.944 92.8312 374.39 93.0266C374.922 93.2591 375.441 93.5143 375.926 93.8391C376.478 94.2094 376.975 94.636 377.402 95.1394C377.478 95.2293 377.565 95.3155 377.595 95.4354C377.51 95.4018 377.464 95.3287 377.413 95.2616C377.283 95.0938 377.145 94.9344 376.989 94.7894C376.527 94.358 376.029 93.9709 375.476 93.6617C375.146 93.4772 374.812 93.2974 374.464 93.1452C374.017 92.9499 373.577 92.7401 373.106 92.6023ZM372.701 99.3566C372.709 99.2176 372.717 99.0798 372.727 98.9168C372.886 99.033 372.932 99.2511 372.847 99.3782C372.822 99.4153 372.79 99.4333 372.746 99.4201C372.715 99.4117 372.699 99.3866 372.701 99.3566ZM371.401 92.7653C371.161 92.7557 370.92 92.727 370.679 92.7354C370.625 92.7366 370.566 92.7497 370.496 92.6994C370.665 92.6491 370.819 92.6742 370.969 92.6718C371.129 92.6682 371.291 92.6539 371.449 92.6946C371.602 92.7342 371.76 92.6563 371.909 92.7078C372.047 92.7545 372.192 92.7701 372.33 92.8168C372.482 92.8684 372.653 92.8061 372.799 92.8911C372.93 92.9666 373.09 92.9655 373.219 93.0493C372.936 92.999 372.649 92.999 372.37 92.9307C372.053 92.8528 371.731 92.7797 371.401 92.7653ZM370.924 98.1702C371.024 98.1857 371.114 98.2253 371.218 98.2229C371.244 98.314 371.31 98.3619 371.387 98.4075C371.59 98.5309 371.744 98.7083 371.901 98.882C371.924 98.9072 371.96 98.9407 371.903 99.0055C371.637 98.6543 371.287 98.4063 370.924 98.1702ZM369.362 93.15C369.851 92.9702 370.358 92.9139 370.881 92.9738C370.63 93.0098 370.376 93.035 370.123 93.0613C369.869 93.0877 369.619 93.1464 369.368 93.1908C369.365 93.1764 369.364 93.1632 369.362 93.15ZM369.222 93.1009C369.232 93.1476 369.29 93.1884 369.216 93.2291C369.172 93.2531 369.136 93.2363 369.122 93.1896C369.102 93.1141 369.161 93.1141 369.222 93.1009ZM368.806 92.9175C368.827 92.8672 368.854 92.854 368.912 92.866C368.877 92.9019 368.857 92.9259 368.806 92.9175ZM368.464 102.553C368.541 102.55 368.591 102.584 368.606 102.658C368.558 102.623 368.511 102.588 368.464 102.553ZM365.956 98.471C366.135 99.2392 366.395 99.9786 366.753 100.682C366.32 100.004 366.042 99.2703 365.956 98.471Z" fill="#1A1564"/>
<path d="M392.891 45.1228C393.071 45.1945 393.245 45.285 393.434 45.3376C393.512 45.3588 393.59 45.3697 393.667 45.3851C393.995 45.4526 394.326 45.5172 394.664 45.5115C394.911 45.5071 395.159 45.4808 395.406 45.4728C395.676 45.4639 395.939 45.4094 396.194 45.3294C396.671 45.1794 397.138 45.0029 397.563 44.7253C397.924 44.4896 398.265 44.2281 398.546 43.8955C398.592 43.8409 398.649 43.7965 398.703 43.7505C398.901 43.5851 399.077 43.4001 399.23 43.1909C399.315 43.0751 399.395 42.9582 399.472 42.837C399.625 42.5987 399.72 42.3332 399.841 42.0804C399.958 41.8337 400.014 41.5694 400.106 41.3163C400.108 41.3114 400.111 41.3071 400.111 41.3027C400.156 41.0883 400.178 40.8726 400.174 40.6499C400.087 40.7221 400.092 40.837 400.021 40.9411C400.014 40.8332 400.056 40.7543 400.069 40.6709C400.083 40.5872 400.104 40.5052 400.12 40.4296C400.091 40.3934 400.07 40.436 400.035 40.4134C400.012 40.331 399.974 40.2383 399.983 40.1377C399.994 40.0032 399.971 39.8729 399.95 39.7432C399.912 39.5109 399.865 39.2794 399.819 39.0493C399.764 38.7756 399.658 38.5187 399.573 38.2554C399.499 38.0276 399.389 37.8156 399.294 37.5964C399.196 37.3694 399.057 37.1736 398.93 36.9668C398.809 36.7671 398.696 36.5621 398.552 36.3771C398.319 36.0776 398.065 35.8042 397.757 35.5794C397.572 35.4448 397.376 35.3301 397.188 35.2015C397.015 35.0833 396.801 35.0445 396.598 34.9934C396.575 34.988 396.55 34.9888 396.529 34.9808C396.225 34.8646 395.905 34.8771 395.588 34.8814C395.34 34.8845 395.096 34.9477 394.851 34.9885C394.61 35.0291 394.373 35.0932 394.144 35.182C393.934 35.2642 393.722 35.3433 393.521 35.4535C393.381 35.5305 393.234 35.5929 393.093 35.6717C392.89 35.7862 392.695 35.9065 392.517 36.0587C392.394 36.1624 392.25 36.2397 392.121 36.3349C391.819 36.5575 391.54 36.8075 391.266 37.0646C391.025 37.2904 390.828 37.5507 390.642 37.8228C390.506 38.0193 390.378 38.2197 390.259 38.4256C390.061 38.769 389.94 39.1409 389.885 39.5278C389.841 39.842 389.858 40.1599 389.886 40.4758C389.914 40.7952 390.022 41.0886 390.126 41.3861C390.213 41.6393 390.331 41.8791 390.415 42.1347C390.448 42.2356 390.515 42.3242 390.563 42.4202C390.727 42.7442 390.948 43.0273 391.162 43.3154C391.178 43.3378 391.195 43.3608 391.209 43.3849C391.362 43.6724 391.575 43.9112 391.802 44.1414C391.935 44.2792 392.035 44.4481 392.173 44.5786C392.391 44.7841 392.598 45.0059 392.891 45.1228ZM390.426 39.1257C390.464 39.1454 390.454 39.1793 390.439 39.2115C390.409 39.2809 390.376 39.3492 390.349 39.4191C390.31 39.5153 390.284 39.6175 390.236 39.7082C390.209 39.7607 390.188 39.8069 390.203 39.8683C390.133 39.8452 390.131 39.8451 390.14 39.7902C390.176 39.5851 390.242 39.3885 390.31 39.1921C390.314 39.1785 390.321 39.1659 390.329 39.1543C390.354 39.1183 390.389 39.106 390.426 39.1257ZM390.862 38.7898C390.745 39.0133 390.632 39.2387 390.525 39.4673C390.599 39.2229 390.678 38.9806 390.862 38.7898ZM390.574 38.0998C390.421 38.3476 390.302 38.613 390.153 38.8959C390.19 38.6644 390.438 38.1991 390.574 38.0998ZM391.26 37.2217C391.146 37.3608 391.055 37.4981 390.928 37.6028C390.997 37.4593 391.17 37.2629 391.26 37.2217ZM391.927 36.8388C391.921 36.8438 391.911 36.8423 391.903 36.8436C391.895 36.8364 391.894 36.8287 391.902 36.8207C391.908 36.8148 391.919 36.8074 391.924 36.8091C391.94 36.8154 391.937 36.8295 391.927 36.8388ZM392.17 36.6224C392.171 36.6296 392.172 36.6373 392.172 36.6445C392.165 36.6485 392.157 36.6574 392.151 36.6562C392.133 36.6507 392.137 36.6374 392.147 36.6273C392.152 36.6223 392.163 36.6238 392.17 36.6224ZM393.194 36.2555C393.167 36.2969 393.127 36.3195 393.087 36.344C393.003 36.3958 392.918 36.448 392.836 36.5048C392.618 36.6569 392.419 36.8343 392.207 36.9939C391.689 37.384 391.264 37.8602 390.919 38.4105C390.805 38.5917 390.698 38.7777 390.586 38.9612C390.528 39.0584 390.515 39.0617 390.377 39.0257C390.467 38.8901 390.475 38.7093 390.65 38.6352C390.665 38.6289 390.679 38.6083 390.682 38.5915C390.694 38.5309 390.739 38.4852 390.766 38.4278C390.7 38.4216 390.697 38.4944 390.636 38.5073C390.657 38.4727 390.668 38.4456 390.686 38.4248C390.785 38.3072 390.862 38.1731 390.951 38.0508C391.016 37.9612 391.094 37.8786 391.153 37.7805C391.204 37.6954 391.283 37.629 391.349 37.5551C391.416 37.4812 391.481 37.4193 391.587 37.445C391.593 37.4462 391.602 37.4338 391.616 37.4226C391.586 37.3102 391.649 37.2235 391.733 37.1606C391.815 37.0993 391.895 37.0056 392.013 37.0713C392.049 37.0439 392.095 37.0113 392.087 36.9808C392.058 36.8722 392.141 36.8418 392.2 36.7939C392.436 36.6021 392.686 36.4314 392.939 36.2649C392.946 36.2608 392.956 36.2632 392.966 36.262C392.985 36.2801 392.952 36.3086 392.986 36.3321C393.06 36.3405 393.11 36.2397 393.194 36.2555ZM391.336 38.2489C391.3 38.3112 391.267 38.3773 391.205 38.4196C391.247 38.3617 391.267 38.2864 391.336 38.2489ZM391.55 37.9767C391.482 38.067 391.43 38.1704 391.341 38.2434C391.392 38.1395 391.454 38.0448 391.55 37.9767ZM393.323 36.095C393.284 36.0998 393.249 36.1367 393.176 36.1049C393.347 36.0186 393.489 35.9206 393.653 35.8632C393.626 35.9055 393.655 35.9542 393.639 35.9985C393.576 36.0578 393.494 36.0851 393.423 36.1305C393.404 36.1428 393.378 36.1426 393.355 36.1479C393.312 36.1968 393.26 36.2312 393.199 36.2527C393.239 36.1996 393.282 36.1475 393.323 36.095ZM397.453 35.5477C397.599 35.6433 397.738 35.7532 397.868 35.9069C397.79 35.8799 397.744 35.8453 397.698 35.809C397.666 35.7829 397.635 35.7506 397.597 35.7354C397.4 35.6578 397.229 35.5347 397.045 35.4356C396.996 35.4089 396.944 35.3888 396.894 35.363C396.651 35.2392 396.386 35.1799 396.12 35.1335C395.852 35.0861 395.578 35.0759 395.31 35.1208C395.02 35.1696 394.726 35.2084 394.442 35.3046C394.144 35.4057 393.84 35.4873 393.558 35.6383C393.43 35.7071 393.303 35.7814 393.16 35.8171C393.254 35.722 393.375 35.6797 393.486 35.6178C393.864 35.4059 394.273 35.2806 394.678 35.1428C394.895 35.069 395.119 35.0475 395.339 35.0075C395.647 34.9521 395.956 34.9563 396.261 35.0171C396.7 35.1025 397.086 35.3069 397.453 35.5477ZM393.772 35.823C393.739 35.8792 393.696 35.8582 393.658 35.859C393.688 35.8304 393.716 35.7909 393.772 35.823ZM393.949 35.6997C394.013 35.7246 394.032 35.7548 394.018 35.7965C394.001 35.8438 393.919 35.872 393.834 35.858C393.885 35.8127 393.945 35.78 393.949 35.6997ZM394.161 35.6641C394.141 35.6934 394.121 35.7119 394.077 35.6846C394.1 35.6435 394.124 35.635 394.161 35.6641ZM394.428 35.5606C394.407 35.6797 394.301 35.6394 394.23 35.6933C394.27 35.5735 394.28 35.5674 394.428 35.5606ZM394.623 35.4788C394.629 35.4742 394.64 35.4771 394.649 35.4763C394.65 35.484 394.655 35.4955 394.652 35.5002C394.647 35.5057 394.634 35.5108 394.627 35.509C394.61 35.5035 394.61 35.4896 394.623 35.4788ZM394.879 35.4306C394.823 35.4299 394.814 35.5077 394.724 35.5175C394.771 35.438 394.808 35.4062 394.879 35.4306ZM395.175 35.3499C395.205 35.3396 395.229 35.3186 395.263 35.3618C395.232 35.3716 395.208 35.3926 395.175 35.3499ZM395.366 35.317C395.372 35.3133 395.383 35.3131 395.389 35.3166C395.398 35.3216 395.396 35.33 395.388 35.338C395.381 35.3407 395.37 35.3472 395.365 35.3456C395.35 35.3375 395.354 35.3248 395.366 35.317ZM395.953 35.4242C395.877 35.4622 395.799 35.466 395.718 35.4478C395.793 35.4066 395.873 35.4082 395.953 35.4242ZM396.135 35.4266C396.075 35.4486 396.016 35.4544 395.958 35.4245C396.019 35.3964 396.077 35.4008 396.135 35.4266ZM398.387 36.3587C398.23 36.186 398.074 36.0124 397.917 35.8391C398.118 35.968 398.261 36.1538 398.387 36.3587ZM398.185 36.6241C398.074 36.5306 397.947 36.4617 397.819 36.3954C397.769 36.3696 397.722 36.3417 397.675 36.3107C397.441 36.1597 397.209 35.9972 396.951 35.8918C396.562 35.7333 396.156 35.6266 395.725 35.6589C395.696 35.6608 395.663 35.6669 395.639 35.6328C396.574 35.4481 397.814 35.7654 398.381 36.7388C398.298 36.7132 398.24 36.6703 398.185 36.6241ZM398.441 36.9827C398.407 36.9507 398.371 36.919 398.336 36.8869C398.391 36.8946 398.429 36.9229 398.441 36.9827ZM398.627 37.1505C398.659 37.1511 398.675 37.1717 398.686 37.2131C398.645 37.1999 398.629 37.1819 398.627 37.1505ZM397.097 36.3749C397.137 36.3733 397.164 36.3727 397.186 36.4089C397.141 36.421 397.121 36.4077 397.097 36.3749ZM396.478 36.1776C396.488 36.1478 396.511 36.1635 396.54 36.1862C396.505 36.1935 396.474 36.1903 396.478 36.1776ZM397.283 36.7562C397.348 36.7677 397.412 36.78 397.483 36.8385C397.388 36.8359 397.333 36.8022 397.283 36.7562ZM397.608 37.1194C397.95 37.2777 398.254 37.4875 398.532 37.7713C398.361 37.7195 397.696 37.2562 397.608 37.1194ZM398.864 39.4718C398.783 39.394 398.77 39.288 398.751 39.192C398.709 38.9738 398.589 38.797 398.482 38.6138C398.445 38.5511 398.402 38.4922 398.372 38.3901C398.476 38.4447 398.52 38.5185 398.58 38.5735C398.693 38.6774 398.797 38.7893 398.873 38.9272C398.954 39.0762 398.954 39.2905 398.864 39.4718ZM394.532 36.2503C394.587 36.1855 394.587 36.1855 394.653 36.206C394.613 36.2314 394.58 36.2518 394.532 36.2503ZM392.122 37.4945C392.133 37.4477 392.15 37.4228 392.174 37.4076C392.299 37.3301 392.402 37.2217 392.522 37.1363C392.831 36.9167 393.132 36.685 393.454 36.4837C393.685 36.3391 393.928 36.2226 394.181 36.1325C394.525 36.0095 394.877 35.9093 395.236 35.8355C395.491 35.7824 395.749 35.7673 396.005 35.7742C396.34 35.7831 396.658 35.8774 396.968 35.9971C397.014 36.0151 397.062 36.0354 397.1 36.0789C397.051 36.096 397.013 36.075 396.978 36.0554C396.907 36.0163 396.831 35.9956 396.755 35.9731C396.309 35.8358 395.851 35.8334 395.394 35.9103C395.006 35.9761 394.616 36.0445 394.237 36.1659C394.111 36.2066 393.99 36.2576 393.872 36.3199C393.444 36.5475 393.052 36.8301 392.66 37.115C392.562 37.1857 392.444 37.2394 392.396 37.3672C392.385 37.3957 392.354 37.4032 392.325 37.4082C392.257 37.4202 392.192 37.4508 392.122 37.4945ZM391.831 37.4654C391.805 37.4907 391.778 37.5141 391.725 37.4985C392.032 37.2165 392.345 36.9641 392.669 36.728C393.057 36.446 393.454 36.1829 393.887 35.973C394.379 35.7345 394.888 35.5582 395.422 35.4631C395.517 35.4469 395.615 35.4205 395.712 35.4487C395.653 35.4953 395.582 35.4978 395.513 35.5062C395.34 35.5289 395.17 35.5612 395.003 35.6116C394.505 35.7608 394.023 35.9543 393.573 36.2192C393.304 36.3776 393.037 36.5406 392.784 36.7246C392.459 36.9615 392.126 37.1873 391.831 37.4654ZM396.422 40.561C396.327 40.498 396.233 40.4347 396.122 40.36C396.271 40.2951 396.444 40.3529 396.498 40.4662C396.513 40.4998 396.513 40.5298 396.485 40.5554C396.466 40.5744 396.442 40.5752 396.422 40.561ZM391.231 38.7461C391.123 38.9133 391.002 39.0725 390.906 39.248C390.885 39.2866 390.869 39.3344 390.804 39.3628C390.84 39.2217 390.922 39.1223 390.983 39.015C391.048 38.8994 391.106 38.7784 391.201 38.683C391.293 38.5905 391.304 38.4457 391.403 38.3608C391.494 38.2826 391.566 38.1853 391.657 38.107C391.757 38.0204 391.785 37.8726 391.906 37.8042C392.014 37.7422 392.081 37.6276 392.194 37.5708C392.04 37.7514 391.919 37.9554 391.754 38.1258C391.566 38.3191 391.379 38.5178 391.231 38.7461ZM394.839 41.3326C394.892 41.2682 394.958 41.2207 395 41.1453C395.075 41.165 395.137 41.1374 395.201 41.1019C395.373 41.0088 395.563 40.9727 395.751 40.9334C395.779 40.9275 395.817 40.9155 395.839 40.983C395.48 41.0264 395.158 41.1723 394.839 41.3326ZM390.646 40.3575C390.725 39.9344 390.898 39.5505 391.16 39.2028C391.079 39.3967 390.99 39.5878 390.903 39.7786C390.815 39.9703 390.751 40.1728 390.677 40.3701C390.666 40.3659 390.656 40.3613 390.646 40.3575ZM390.552 40.4365C390.59 40.449 390.643 40.4245 390.64 40.4941C390.639 40.5352 390.612 40.5542 390.573 40.5443C390.511 40.5276 390.536 40.4852 390.552 40.4365ZM390.249 40.656C390.222 40.6203 390.224 40.5958 390.257 40.5593C390.267 40.5993 390.276 40.6231 390.249 40.656ZM396.895 44.9051C396.926 44.8487 396.971 44.8272 397.029 44.8477C396.985 44.867 396.94 44.8858 396.895 44.9051ZM392.966 44.9926C393.583 45.1849 394.213 45.3072 394.859 45.3446C394.199 45.3704 393.566 45.2635 392.966 44.9926Z" fill="#1A1564"/>
<path d="M202.186 92.8838C202.153 92.949 202.149 93.0157 202.176 93.0875C202.346 93.5366 202.502 93.994 202.672 94.4415C202.864 94.9456 203.137 95.4198 203.542 95.8004C203.716 95.964 203.85 96.1643 204.042 96.3146C204.324 96.535 204.539 96.8338 204.857 97.0174C204.968 97.0809 205.052 97.1894 205.15 97.2779C205.186 97.3113 205.223 97.3714 205.262 97.373C205.6 97.3947 205.803 97.6619 206.061 97.8204C206.528 98.1093 207.035 98.2912 207.542 98.4749C208.236 98.7286 208.924 99.0108 209.657 99.1544C209.851 99.1928 210.033 99.2829 210.239 99.2412C210.281 99.2328 210.334 99.2679 210.378 99.2862C210.434 99.3079 210.487 99.353 210.544 99.3547C210.934 99.368 211.319 99.4582 211.706 99.4582C212.196 99.4582 212.686 99.4165 213.174 99.3747C213.402 99.3547 213.63 99.3063 213.852 99.2462C214.442 99.0859 215.006 98.8572 215.521 98.5166C215.822 98.318 216.153 98.176 216.445 97.9573C216.588 97.8505 216.712 97.722 216.859 97.6184C217.029 97.4982 217.196 97.3664 217.372 97.2512C217.6 97.1026 217.815 96.944 217.999 96.7386C218.111 96.6134 218.232 96.4899 218.402 96.4331C218.463 96.4131 218.534 96.3563 218.559 96.2979C218.682 96.0174 218.955 95.8972 219.158 95.7036C219.219 95.6451 219.257 95.5817 219.277 95.4999C219.325 95.3179 219.413 95.1927 219.629 95.2044C219.798 95.2127 219.805 95.0725 219.815 94.949C219.973 94.7369 220.028 94.4799 220.107 94.2361C220.16 94.0725 220.212 93.9172 220.309 93.7687C220.442 93.5683 220.478 93.3129 220.577 93.1009C220.743 92.7503 220.719 92.3964 220.721 92.0358C220.721 92.0191 220.706 92.0007 220.698 91.9823C220.597 91.9673 220.625 92.0892 220.516 92.1343C220.579 91.7686 220.42 91.4314 220.523 91.0675C220.402 90.9756 220.361 90.8321 220.311 90.6885C220.174 90.2878 220.026 89.8922 219.882 89.4932C219.876 89.4748 219.871 89.4548 219.861 89.4364C219.773 89.2544 219.581 89.1209 219.527 88.9539C219.464 88.7586 219.388 88.5883 219.277 88.418C219.13 88.1926 219.014 87.9472 218.87 87.7168C218.606 87.2995 218.278 86.9289 218.007 86.5198C217.787 86.1859 217.492 85.9355 217.219 85.6601C217.185 85.625 217.152 85.5833 217.112 85.5566C216.636 85.2427 216.217 84.8487 215.729 84.5515C215.541 84.4363 215.354 84.3212 215.139 84.2577C214.809 84.1609 214.525 83.9672 214.221 83.8203C213.974 83.7018 213.718 83.6417 213.458 83.5682C213.182 83.4898 212.907 83.3879 212.626 83.3312C212.199 83.2443 211.771 83.1241 211.328 83.211C211.255 83.2243 211.187 83.2176 211.124 83.1809C210.904 83.0507 210.663 83.0574 210.423 83.064C209.985 83.0774 209.546 83.1125 209.108 83.1041C208.704 83.0958 208.35 83.2694 207.97 83.3462C207.856 83.3696 207.752 83.4464 207.623 83.4013C207.581 83.3863 207.523 83.4046 207.477 83.423C207.009 83.6016 206.533 83.7736 206.127 84.0741C205.725 84.3712 205.32 84.6667 204.968 85.0273C204.847 85.1509 204.731 85.2727 204.692 85.4514C204.677 85.5165 204.63 85.5783 204.586 85.6317C204.311 85.9522 204.195 86.3379 204.073 86.7369C203.911 87.2611 203.75 87.8003 203.378 88.231C203.284 88.3412 203.218 88.4614 203.213 88.6117C203.21 88.6851 203.183 88.7502 203.119 88.792C203.066 88.827 203.029 88.8771 203.018 88.9372C202.956 89.2578 202.778 89.5182 202.594 89.777C202.561 89.8237 202.551 89.8888 202.535 89.9473C202.452 90.2377 202.34 90.5149 202.227 90.797C202.03 91.2895 202.002 91.8137 202.177 92.3296C202.24 92.5149 202.278 92.6969 202.186 92.8838ZM220.22 93.1276C220.24 93.0508 220.218 92.9757 220.301 92.9406C220.339 93.0458 220.339 93.0458 220.22 93.1276ZM219.882 90.1509C220.289 90.9122 220.425 92.2528 220.145 92.7436C220.045 92.5516 220.056 92.3496 220.053 92.1509C220.048 91.8805 220.111 91.5984 220.028 91.3413C219.934 91.0508 219.887 90.7569 219.841 90.4598C219.826 90.3613 219.783 90.2628 219.882 90.1509ZM219.763 89.8955C219.699 89.8571 219.681 89.8137 219.744 89.7569C219.808 89.797 219.825 89.8404 219.763 89.8955ZM219.633 94.949C219.699 94.8638 219.753 94.8705 219.81 94.9506C219.757 94.9556 219.704 95.0041 219.633 94.949ZM218.786 88.3579C218.94 88.5199 219.047 88.7085 219.095 88.9272C218.988 88.7386 218.804 88.5916 218.786 88.3579ZM218.563 88.0257C218.649 88.0274 218.682 88.0658 218.662 88.1542C218.571 88.1559 218.548 88.1092 218.563 88.0257ZM218.281 88.782C218.501 88.8638 218.528 89.014 218.543 89.1726C218.452 89.0674 218.329 88.9823 218.281 88.782ZM217.646 87.9706C217.731 87.9155 217.787 87.9255 217.815 87.9673C217.946 88.1693 218.068 88.378 218.194 88.5833C218.174 88.595 218.154 88.6083 218.134 88.62C217.974 88.4097 217.815 88.196 217.646 87.9706ZM217.532 86.403C217.779 86.5198 217.808 86.5566 217.828 86.7552C217.679 86.6734 217.6 86.5432 217.532 86.403ZM216.88 87.0524C217.09 87.0925 217.332 87.3446 217.388 87.6117C217.084 87.4214 216.923 87.2394 216.88 87.0524ZM216.26 86.5532C216.412 86.5299 216.457 86.5849 216.46 86.7085C216.349 86.7152 216.296 86.6701 216.26 86.5532ZM215.785 85.6985C215.809 85.6801 215.835 85.65 215.87 85.6317C215.903 85.6133 215.943 85.605 216.045 85.5682C215.987 85.7586 216.086 85.8187 216.191 85.8871C216.353 85.994 216.533 86.0858 216.621 86.2945C216.278 86.1976 215.784 85.8487 215.785 85.6985ZM215.448 84.827C215.698 84.812 215.694 84.8187 215.847 84.9121C216.065 85.0457 216.222 85.2744 216.493 85.3278C216.535 85.3362 216.564 85.3963 216.601 85.4297C216.697 85.5182 216.794 85.6033 216.89 85.6918C217.12 85.9088 217.405 86.0758 217.524 86.393C217.301 86.2811 217.112 86.1225 216.93 85.9506C216.662 85.6968 216.402 85.4347 216.06 85.2677C215.848 85.1642 215.67 84.9906 215.448 84.827ZM215.038 84.4998C215.142 84.5215 215.248 84.5365 215.316 84.6701C215.168 84.6634 215.092 84.5966 215.038 84.4998ZM214.275 84.428C214.408 84.5933 214.58 84.6734 214.733 84.7803C214.876 84.8804 214.93 84.9689 214.869 85.1125C214.836 85.1893 214.805 85.3045 214.685 85.2627C214.576 85.2243 214.639 85.1308 214.649 85.0557C214.652 85.029 214.637 85.0006 214.626 84.9606C214.482 84.9823 214.388 84.8838 214.277 84.8237C214.027 84.6868 214.027 84.6617 214.275 84.428ZM213.569 84.2761C213.657 84.3746 213.782 84.418 213.905 84.5065C213.655 84.5315 213.59 84.4898 213.569 84.2761ZM213.364 83.7452C213.43 83.7385 213.453 83.7769 213.45 83.8337C213.45 83.8437 213.417 83.8637 213.407 83.8604C213.356 83.8387 213.327 83.8036 213.364 83.7452ZM212.995 84.0657C212.997 84.054 213.021 84.0357 213.033 84.0373C213.063 84.039 213.083 84.059 213.081 84.0924C213.068 84.1025 213.053 84.1225 213.04 84.1208C213.01 84.1191 212.988 84.0974 212.995 84.0657ZM211.152 83.7869C211.521 83.8153 211.845 83.9138 212.176 83.9689C212.403 84.0056 212.633 84.0991 212.803 84.2828C212.856 84.3412 212.884 84.4063 212.816 84.4664C212.755 84.5198 212.679 84.5182 212.638 84.4414C212.56 84.3028 212.429 84.2327 212.292 84.2293C211.956 84.221 211.673 83.9973 211.331 84.014C211.222 84.0206 211.124 83.9489 211.152 83.7869ZM204.766 86.0624C204.865 85.8537 204.969 85.7118 205.085 85.5699C205.474 85.0975 206.002 84.797 206.453 84.4063C206.483 84.3813 206.521 84.3629 206.559 84.3529C206.779 84.2944 206.974 84.1659 207.202 84.1308C207.424 84.0958 207.623 84.0073 207.801 83.8721C207.839 83.8437 207.891 83.8203 207.937 83.8153C208.254 83.7786 208.564 83.7118 208.868 83.61C208.951 83.5816 209.047 83.5933 209.072 83.7352C208.873 83.812 208.673 83.8771 208.476 83.9305C208.159 84.0173 207.929 84.2544 207.624 84.3729C207.277 84.5098 206.933 84.6734 206.594 84.8437C205.965 85.1626 205.353 85.4948 204.865 86.0207C204.857 86.0324 204.834 86.0357 204.766 86.0624ZM203.732 89.8387C203.704 89.7736 203.694 89.7235 203.787 89.6601C203.797 89.7436 203.827 89.7987 203.732 89.8387ZM202.894 94.0775C203.107 94.1827 203.157 94.4114 203.287 94.58C203.428 94.762 203.55 94.9607 203.691 95.1426C203.827 95.3163 203.979 95.4765 204.118 95.6485C204.255 95.8188 204.468 95.9289 204.513 96.1693C203.815 95.5967 203.277 94.8989 202.894 94.0775Z" fill="#FF7800"/>
<path d="M617.605 94.739C617.614 94.8455 617.632 94.9503 617.619 95.0586C617.598 95.227 617.635 95.3902 617.742 95.5225C617.848 95.6514 617.881 95.7923 617.878 95.9469C617.874 96.0913 617.913 96.2253 617.982 96.3542C618.21 96.7855 618.414 97.2271 618.69 97.6395C618.861 97.8938 619.102 98.1051 619.232 98.3611C619.453 98.7959 619.849 99.0691 620.125 99.4471C620.378 99.7942 620.776 100.004 621.089 100.299C621.168 100.375 621.263 100.435 621.338 100.514C621.843 101.042 622.441 101.451 623.063 101.83C623.767 102.262 624.509 102.598 625.323 102.774C625.75 102.867 626.185 102.87 626.619 102.82C627.509 102.717 628.328 102.409 629.079 101.944C629.422 101.731 629.795 101.592 630.16 101.44C630.774 101.186 631.261 100.793 631.655 100.279C631.995 99.8354 632.327 99.387 632.67 98.9454C633.145 98.3371 633.401 97.6309 633.472 96.8645C633.502 96.5397 633.545 96.2167 633.544 95.8885C633.542 95.6703 633.604 95.4572 633.672 95.2493C633.862 94.6634 633.962 94.0637 633.945 93.4468C633.911 92.3488 633.686 91.2972 633.208 90.292C632.436 88.6716 631.245 87.4224 629.71 86.4859C628.756 85.9034 627.699 85.5615 626.586 85.3862C625.793 85.2625 625.012 85.3312 624.233 85.491C623.674 85.6062 623.125 85.7591 622.627 86.034C622.005 86.3777 621.414 86.7677 621.036 87.3881C620.902 87.6063 620.691 87.7575 620.526 87.9482C620.31 88.1957 620.093 88.4465 619.925 88.7283C619.722 89.0686 619.397 89.3194 619.212 89.6717C619.193 89.7095 619.165 89.749 619.132 89.7748C618.664 90.1167 618.49 90.6563 618.198 91.1151C618.068 91.3212 618.047 91.591 617.955 91.8247C617.728 92.4072 617.714 93.0361 617.582 93.6392C617.505 93.9898 617.575 94.373 617.605 94.739ZM632.251 97.8336C632.213 98.124 632.183 98.3869 632.058 98.6395C631.801 98.3732 631.836 98.2202 632.251 97.8336ZM631.036 88.5788C631.052 88.5634 631.068 88.5479 631.085 88.5342C631.289 88.7163 631.502 88.8916 631.58 89.1751C631.397 88.9758 631.216 88.7782 631.036 88.5788ZM629.272 100.226C629.325 100.169 629.38 100.124 629.461 100.176C629.469 100.232 629.436 100.26 629.394 100.274C629.345 100.286 629.287 100.308 629.272 100.226ZM624.381 86.4103C624.894 86.1973 626.255 86.3296 627.518 86.766C628.785 87.2042 629.884 87.9207 630.794 88.9019C630.171 88.4603 629.601 87.9448 628.914 87.5908C628.212 87.2282 627.474 86.9619 626.712 86.7557C625.967 86.553 625.202 86.4688 624.381 86.4103ZM621.201 91.4347C621.451 91.3436 621.713 91.2903 621.975 91.2456C622.072 91.2285 622.184 91.1941 622.249 91.2938C622.321 91.402 622.246 91.5 622.186 91.591C622.163 91.6271 622.131 91.6649 622.095 91.6838C621.822 91.8333 621.709 92.091 621.607 92.3574C621.546 92.5172 621.491 92.6839 621.342 92.7818C621.184 92.7526 621.175 92.6323 621.152 92.5309C621.096 92.2766 621.043 92.0223 620.997 91.7663C620.957 91.5463 620.978 91.5154 621.201 91.4347Z" fill="#FF0000"/>
<path d="M72.4405 87.8053C72.4493 87.9119 72.4669 88.0167 72.4546 88.1249C72.4335 88.2933 72.4704 88.4566 72.5777 88.5889C72.6832 88.7178 72.7166 88.8587 72.7131 89.0133C72.7095 89.1576 72.7482 89.2917 72.8168 89.4205C73.0454 89.8518 73.2494 90.2934 73.5255 90.7058C73.696 90.9601 73.9369 91.1715 74.0671 91.4275C74.2886 91.8622 74.6843 92.1355 74.9603 92.5135C75.2136 92.8606 75.611 93.0702 75.924 93.3658C76.0031 93.4414 76.098 93.5015 76.1737 93.5806C76.6783 94.1081 77.2762 94.517 77.8987 94.8968C78.6021 95.3281 79.3441 95.6649 80.1583 95.8401C80.5856 95.9329 81.0199 95.9363 81.4542 95.8865C82.344 95.7834 83.1634 95.4758 83.9143 95.0102C84.2572 94.7971 84.63 94.6579 84.9957 94.5067C85.6094 94.2524 86.0965 93.8589 86.4904 93.3451C86.8298 92.9018 87.1621 92.4533 87.505 92.0117C87.9798 91.4035 88.2365 90.6972 88.3069 89.9309C88.3368 89.6061 88.3807 89.2831 88.379 88.9549C88.3772 88.7367 88.4387 88.5236 88.5073 88.3157C88.6972 87.7297 88.7975 87.13 88.7799 86.5132C88.7465 85.4152 88.5214 84.3636 88.0431 83.3584C87.2711 81.738 86.0807 80.4888 84.5456 79.5523C83.5907 78.9698 82.5339 78.6279 81.4208 78.4526C80.6278 78.3289 79.847 78.3976 79.068 78.5574C78.5089 78.6725 77.9602 78.8255 77.4626 79.1004C76.8401 79.4441 76.2493 79.8341 75.8712 80.4544C75.7376 80.6727 75.5266 80.8239 75.3613 81.0146C75.145 81.262 74.9287 81.5129 74.7599 81.7947C74.5577 82.1349 74.2323 82.3858 74.0477 82.7381C74.0284 82.7759 74.0002 82.8154 73.9668 82.8412C73.4991 83.1831 73.325 83.7226 73.0331 84.1814C72.903 84.3876 72.8819 84.6574 72.7904 84.8911C72.5636 85.4736 72.5495 86.1025 72.4176 86.7056C72.3403 87.0562 72.4106 87.4393 72.4405 87.8053ZM87.0865 90.9C87.0478 91.1904 87.0179 91.4533 86.8931 91.7059C86.6363 91.4395 86.6715 91.2866 87.0865 90.9ZM85.8714 81.6452C85.8873 81.6297 85.9031 81.6143 85.9207 81.6005C86.1246 81.7827 86.3374 81.9579 86.4148 82.2415C86.2319 82.0421 86.0508 81.8445 85.8714 81.6452ZM84.1077 93.2919C84.1605 93.2352 84.215 93.1905 84.2959 93.242C84.3047 93.2987 84.2712 93.3262 84.229 93.34C84.1798 93.352 84.1218 93.3744 84.1077 93.2919ZM79.2157 79.4767C79.7292 79.2636 81.0902 79.396 82.3528 79.8324C83.6206 80.2706 84.7197 80.9871 85.6288 81.9683C85.0063 81.5266 84.4365 81.0112 83.749 80.6572C83.0474 80.2946 82.3088 80.0283 81.5474 79.8221C80.8019 79.6193 80.0369 79.5351 79.2157 79.4767ZM76.0365 84.501C76.2862 84.41 76.5482 84.3567 76.8102 84.312C76.9069 84.2948 77.0195 84.2605 77.0845 84.3601C77.1566 84.4684 77.081 84.5663 77.0212 84.6574C76.9984 84.6935 76.9667 84.7313 76.9298 84.7502C76.6572 84.8997 76.5447 85.1574 76.4427 85.4238C76.3812 85.5836 76.3266 85.7502 76.1772 85.8482C76.0189 85.819 76.0101 85.6987 75.9873 85.5973C75.931 85.343 75.8782 85.0887 75.8325 84.8327C75.7921 84.6127 75.8132 84.5818 76.0365 84.501Z" fill="#FF0000"/>
<path d="M488.182 84.4503C488.266 84.7966 488.404 85.1266 488.47 85.4783C488.476 85.5034 488.479 85.5321 488.495 85.55C488.724 85.7922 488.854 86.1008 489.035 86.3753C489.283 86.7556 489.616 87.057 489.905 87.3978C490.207 87.753 490.572 88.0437 490.963 88.2984C491.199 88.4527 491.38 88.6751 491.619 88.8151C491.998 89.0357 492.297 89.3748 492.706 89.5506C492.772 89.5793 492.822 89.6457 492.883 89.6923C493.067 89.8376 493.24 90.0009 493.46 90.0978C493.53 90.1301 493.593 90.1821 493.621 90.2538C493.698 90.453 493.871 90.5032 494.048 90.514C494.15 90.5194 494.232 90.5463 494.304 90.6001C494.477 90.7328 494.652 90.8602 494.872 90.9069C494.901 90.914 494.931 90.9427 494.951 90.9678C495.055 91.1042 495.199 91.1365 495.357 91.1311C495.496 91.1257 495.625 91.1526 495.739 91.2387C495.816 91.2961 495.898 91.3338 495.998 91.3195C496.023 91.3159 496.057 91.3141 496.072 91.3284C496.25 91.4935 496.467 91.4361 496.674 91.4361C496.69 91.4361 496.71 91.4325 496.724 91.4379C496.954 91.5383 497.201 91.5617 497.446 91.6011C497.553 91.6191 497.653 91.6549 497.764 91.6388C497.925 91.6155 498.082 91.6711 498.243 91.6765C498.563 91.6872 498.885 91.6819 499.205 91.6603C499.591 91.637 499.975 91.6029 500.366 91.6298C500.828 91.6603 501.296 91.6514 501.759 91.6244C502.17 91.6011 502.543 91.4217 502.897 91.2226C503.249 91.0235 503.61 90.8351 503.941 90.5983C504.134 90.4601 504.295 90.2861 504.441 90.1031C504.659 89.8323 504.863 89.5524 505.112 89.3084C505.558 88.8689 505.866 88.3343 506.096 87.7548C506.334 87.1556 506.558 86.5529 506.649 85.907C506.704 85.5124 506.745 85.1213 506.69 84.7194C506.62 84.2261 506.563 83.7309 506.434 83.2483C506.375 83.0259 506.307 82.8088 506.197 82.6079C506.146 82.5182 506.134 82.4106 506.082 82.3262C505.9 82.0177 505.785 81.6696 505.55 81.3916C505.441 81.2624 505.34 81.1261 505.24 80.9879C504.901 80.5215 504.531 80.0766 504.105 79.6945C503.819 79.4379 503.508 79.2011 503.201 78.9625C502.49 78.41 501.696 77.9974 500.926 77.5399C500.608 77.3515 500.304 77.1363 499.968 76.9766C499.478 76.7452 498.996 76.4904 498.479 76.3361C498.129 76.2303 497.777 76.1173 497.407 76.067C496.922 76.0007 496.438 75.9486 495.954 75.8912C495.657 75.8554 495.364 75.8356 495.072 75.8518C494.467 75.8876 493.857 75.9522 493.332 76.2895C493.083 76.4492 492.822 76.5371 492.542 76.6088C491.913 76.7721 491.301 76.9981 490.701 77.2439C490.32 77.3982 489.963 77.6224 489.644 77.8826C489.339 78.1337 489.09 78.4423 488.955 78.8352C488.849 79.1383 488.731 79.4326 488.685 79.7555C488.66 79.9295 488.597 80.1196 488.509 80.2811C488.447 80.3941 488.436 80.4784 488.543 80.5951C488.368 80.674 488.313 80.787 488.304 80.9341C488.297 81.0525 488.266 81.1691 488.261 81.2875C488.238 81.8526 488.238 82.4213 488.109 82.9775C487.995 83.4816 488.064 83.9695 488.182 84.4503ZM505.737 82.3693C505.641 82.294 505.612 82.215 505.61 82.1235C505.689 82.1773 505.759 82.2347 505.737 82.3693ZM505.528 84.1292C505.548 84.1274 505.567 84.1238 505.587 84.122C505.601 84.1418 505.625 84.1579 505.632 84.1812C505.868 84.8719 505.95 85.5823 505.907 86.3089C505.9 86.447 505.846 86.5744 505.746 86.6838C505.7 85.8263 505.773 84.9652 505.528 84.1292ZM504.059 80.7332C504.824 81.5566 505.487 82.4429 505.784 83.5605C505.517 83.0618 505.137 82.642 504.842 82.1648C504.72 81.9692 504.554 81.8096 504.438 81.6158C504.282 81.3557 504.154 81.0812 504.014 80.8103C504.004 80.7888 504.012 80.7619 504.059 80.7332ZM503.576 87.9809C503.625 87.927 503.662 87.9109 503.701 87.9665C503.669 88.0078 503.634 88.0185 503.576 87.9809ZM502.929 79.7913C503.23 79.9743 503.576 80.4569 503.614 80.7475C503.385 80.4282 503.158 80.1089 502.929 79.7913ZM502.334 78.6719C502.438 78.6324 502.481 78.6881 502.524 78.7185C503.008 79.0576 503.458 79.4361 503.911 79.8147C504.048 79.9295 504.175 80.0515 504.282 80.1932C504.559 80.5663 504.886 80.9 505.151 81.2821C505.331 81.5441 505.53 81.797 505.605 82.1163C505.557 82.0984 505.517 82.0733 505.492 82.0266C505.189 81.4526 504.781 80.9592 504.327 80.5018C504.197 80.3708 504.068 80.2345 503.945 80.0981C503.66 79.7842 503.357 79.4935 502.999 79.2639C502.749 79.1043 502.574 78.8692 502.334 78.6719ZM498.193 77.556C499.594 77.8072 500.849 78.2503 501.837 79.2693C501.666 79.1545 501.43 79.1294 501.296 78.9697C501.139 78.7831 500.915 78.7275 500.722 78.6288C500.477 78.5051 500.213 78.4046 499.959 78.2934C499.466 78.0781 498.972 77.8646 498.456 77.7085C498.375 77.6834 498.288 77.6601 498.193 77.556ZM497.546 77.2331C497.621 77.208 497.691 77.1327 497.775 77.1973C497.891 77.2887 498.027 77.2798 498.161 77.2834C498.248 77.2852 498.345 77.2798 498.402 77.382C498.231 77.4359 497.698 77.339 497.546 77.2331ZM497.037 77.1452C497.16 77.1237 497.283 77.1291 497.405 77.1363C497.469 77.1398 497.512 77.1739 497.539 77.2313C497.36 77.2744 497.194 77.2511 497.037 77.1452ZM491.518 82.7048C491.525 82.6276 491.576 82.5846 491.655 82.5953C491.73 82.6061 491.743 82.6653 491.73 82.7281C491.703 82.8626 491.682 83.0008 491.607 83.1784C491.532 82.9936 491.503 82.8519 491.518 82.7048ZM489.217 83.0133C489.308 83.1766 489.403 83.3363 489.419 83.5246C489.317 83.3668 489.194 83.2179 489.217 83.0133ZM489.426 81.2893C489.526 81.5477 489.444 81.7988 489.434 82.1056C489.273 81.8777 489.228 81.6696 489.232 81.4526C489.235 81.3593 489.298 81.2839 489.426 81.2893ZM489.505 80.1214C489.507 80.1591 489.487 80.1878 489.45 80.1932C489.421 80.1986 489.401 80.1788 489.401 80.1501C489.4 80.1125 489.419 80.0874 489.457 80.0784C489.485 80.0766 489.503 80.0927 489.505 80.1214ZM489.557 78.6952C489.864 78.2772 490.207 77.9687 490.72 77.7803C490.677 77.9902 490.554 78.0548 490.452 78.1355C490.302 78.2539 490.132 78.3382 489.993 78.4817C489.898 78.5822 489.75 78.6629 489.557 78.6952ZM489.409 86.2246C489.585 86.2891 489.63 86.4004 489.627 86.5941C489.505 86.4775 489.423 86.3896 489.409 86.2246ZM489.407 84.8845C489.303 84.8091 489.26 84.7122 489.239 84.5544C489.451 84.6943 489.455 84.7015 489.407 84.8845ZM489.189 85.1069C489.296 85.1984 489.355 85.2702 489.373 85.376C489.258 85.3437 489.21 85.263 489.189 85.1069ZM489.072 85.4065C489.196 85.4227 489.226 85.4729 489.167 85.5859C489.069 85.5572 489.044 85.5034 489.072 85.4065ZM488.89 82.7963C488.937 82.9272 488.978 83.06 489.031 83.1874C489.14 83.4529 489.269 83.7076 489.412 83.9552C489.493 84.0933 489.512 84.2422 489.428 84.4108C489.005 83.939 488.829 83.4098 488.89 82.7963ZM488.819 83.8529C488.881 83.948 488.926 84.0305 488.937 84.1328C488.804 84.0233 488.804 84.0233 488.819 83.8529Z" fill="#008029"/>
<path d="M166.657 13.7093C166.825 14.0909 167.055 14.4313 167.297 14.7717C167.866 15.5718 168.614 16.1464 169.413 16.671C169.963 17.0335 170.574 17.2545 171.194 17.4608C171.948 17.7113 172.722 17.8174 173.847 17.8336C174.436 17.838 175.291 17.5831 176.1 17.1484C176.175 17.1071 176.254 17.0644 176.317 17.007C176.633 16.7196 177.013 16.5266 177.346 16.2628C177.505 16.1361 177.661 16.0153 177.786 15.8488C177.915 15.6764 178.096 15.5614 178.271 15.4421C178.652 15.1783 178.979 14.8512 179.284 14.5035C179.394 14.3782 179.516 14.2707 179.657 14.1867C180.309 13.7962 180.629 13.1862 180.758 12.4568C180.79 12.28 180.852 12.1326 180.944 11.9779C181.122 11.6773 181.202 11.3325 181.265 10.9877C181.278 10.9184 181.252 10.8536 181.218 10.7932C181.069 10.5235 181.077 10.2288 181.118 9.94004C181.271 8.84081 181.128 7.79168 180.656 6.78675C180.019 5.42524 179.123 4.27001 177.951 3.35497C177.391 2.91734 176.769 2.54307 176.085 2.33531C174.971 1.9964 173.84 1.87557 172.683 2.15554C171.791 2.37067 170.93 2.65358 170.142 3.13247C169.812 3.33287 169.498 3.56273 169.214 3.82059C168.626 4.354 168.081 4.93014 167.794 5.70078C167.675 6.02053 167.503 6.31376 167.341 6.60993C167.117 7.01809 166.941 7.45277 166.713 7.85357C166.494 8.23962 166.376 8.63894 166.27 9.06184C166.131 9.62177 166.031 10.1743 166.005 10.7549C165.96 11.8084 166.241 12.7706 166.657 13.7093ZM180.19 12.2859C180.269 12.0324 180.334 11.8202 180.399 11.608C180.565 11.916 180.52 12.0471 180.19 12.2859ZM179.805 13.3085C179.81 13.2274 179.849 13.1935 179.951 13.1994C179.914 13.276 179.887 13.3232 179.805 13.3085ZM174.21 2.86135C174.652 2.86429 175.101 2.89229 175.516 3.10005C175.082 3.02048 174.646 2.94092 174.21 2.86135ZM171.539 17.256C171.671 17.2516 171.735 17.2633 171.8 17.3223C171.711 17.3562 171.655 17.3252 171.539 17.256ZM167.545 14.5609C167.656 14.5359 167.678 14.6022 167.707 14.6464C168.17 15.3345 168.816 15.8164 169.488 16.2687C169.978 16.5973 170.506 16.8419 171.051 17.057C171.131 17.088 171.224 17.1116 171.293 17.2132C171.097 17.2029 170.956 17.1116 170.807 17.0556C169.658 16.6342 168.681 15.9534 167.859 15.0398C167.733 14.8984 167.627 14.7437 167.545 14.5609Z" fill="#FF7080"/>
</svg>
