<svg width="24" height="35" viewBox="0 0 24 35" fill="none" xmlns="http://www.w3.org/2000/svg">
<path d="M13.3516 15.8375C15.0487 10.8608 14.123 5.80868 14.4316 0.756563C14.4316 0.530349 13.8916 0.153325 13.583 0.0779207C12.8116 -0.148294 12.1945 0.153326 11.7317 0.530349C10.1889 1.96304 9.49461 3.62194 9.34033 5.35625C8.87749 9.50351 8.26038 13.7262 8.72322 17.8734C8.64608 18.4013 8.56894 18.9291 8.56894 19.4569C8.41466 21.5683 8.33751 23.6796 8.41465 25.7155C6.87186 24.132 5.32907 22.7747 3.47772 21.5683C2.70632 21.0404 1.7035 20.965 0.777827 22.0207C-0.0707083 22.9256 -0.22499 23.9812 0.314988 24.8107C1.3178 26.168 2.32062 27.5252 3.55485 28.7317C5.56049 30.6168 7.7204 32.2757 9.80317 34.0855C10.1889 34.9149 11.1917 35.2165 12.0402 34.8395L12.8888 34.4625C17.44 32.2003 20.217 28.1285 23.9197 25.0369C24.074 24.8861 23.9969 24.2828 23.7655 23.9812C23.3798 23.3026 22.7626 23.0764 22.1455 23.0764C20.0627 22.9256 18.3657 23.6796 17.0543 24.7353C15.9743 25.6401 14.8173 26.4696 13.7373 27.299C13.8916 26.3188 13.9687 25.3385 13.9687 24.3583C13.8916 21.3421 13.583 18.6275 13.3516 15.8375Z" fill="#FF7800"/>
</svg>
