<svg width="96" height="62" viewBox="0 0 96 62" fill="none" xmlns="http://www.w3.org/2000/svg">
<path d="M32.6028 8.25897C33.7762 7.29141 34.2651 5.25955 34.2977 5.16279C34.3303 5.06604 34.7214 2.87291 34.1347 1.6796C33.4502 0.292768 32.7331 0.260516 32.7331 0.260516C32.7331 0.260516 32.1138 0.0347533 31.4619 0.00250153C30.6797 -0.0297503 30.0278 0.260516 30.0278 0.260516C30.0278 0.260516 26.3772 1.45383 27.1269 6.13035C27.681 9.7103 31.2664 9.35553 32.6028 8.25897Z" fill="white"/>
<path d="M47.1411 8.96851C48.3797 8.96851 49.9443 8.29122 50.4658 7.58168C53.0734 2.48589 48.0864 1.19582 48.0864 1.19582C48.0864 1.19582 46.0981 0.776548 44.8921 1.6151C42.969 2.96967 43.0342 4.74352 43.0342 4.74352C43.0342 4.74352 42.6757 8.96851 47.1411 8.96851Z" fill="white"/>
<path d="M62.7857 8.09769C62.7857 8.09769 66.5341 8.00094 66.7623 4.29198C67.023 -0.0297684 62.7531 0.0347349 62.7531 0.0347349C62.7531 0.0347349 58.6788 -0.22328 58.581 4.09846C58.4506 8.2267 62.7857 8.09769 62.7857 8.09769Z" fill="white"/>
<path d="M5.05974 25.1912C5.54866 27.0941 6.29833 28.8034 7.21098 30.3515C10.7638 36.3181 16.5331 39.6401 16.5331 39.6401C16.5331 39.6401 15.0989 39.5756 13.5669 39.8013C12.035 40.0271 10.4053 40.5754 9.68818 40.8656C8.28661 41.5107 6.26574 43.1878 7.1132 43.4458C7.60212 43.5748 7.76509 43.7038 8.77553 43.3168C9.26445 43.1233 9.91634 42.704 10.8942 42.317C11.3831 42.1234 12.1328 42.1557 12.7847 41.8977C17.4457 40.0916 24.8121 43.9296 24.8121 43.9296C24.8121 43.9296 27.0611 45.2841 29.3102 46.6387C31.6896 48.1223 34.9164 50.0896 38.3389 50.9604C44.6948 52.5408 51.4093 50.9282 57.1786 47.1225C63.0456 43.2523 69.7601 41.2849 74.2908 40.6721C78.854 40.0593 81.1682 40.8656 81.1682 40.8656C81.1682 40.8656 81.6572 41.0914 81.8527 40.8979C82.1135 40.6721 81.4616 40.0916 81.4616 40.0916C81.4616 40.0916 80.1904 39.253 78.1369 38.5112C76.0835 37.7372 73.6389 37.7372 73.7041 37.705C75.6923 36.0279 78.3977 34.254 80.5489 32.3834C83.5476 29.771 85.6989 27.1909 85.6989 27.1909C85.6989 27.1909 90.0666 22.1918 92.1852 18.6119C93.2608 16.7735 94.5972 14.0321 95.1839 12.7098C95.3795 12.226 95.4121 11.9357 95.4121 11.9357C95.4121 11.9357 90.6859 15.8705 87.3612 18.0636C84.0366 20.2567 78.4303 23.1271 78.4303 23.1271C78.4303 23.1271 77.8436 20.3535 76.768 17.2895C75.3664 13.1291 73.0522 8.16229 69.1082 8.00103C67.4785 7.93652 64.9361 8.32354 64.9361 8.32354C64.382 8.54931 60.9595 8.90408 59.6884 13.7096C58.3194 18.6119 59.8513 25.417 60.2751 27.3521C60.4706 28.2229 60.6662 28.5454 60.4706 28.6422C59.395 29.1582 53.5932 29.4807 53.5932 29.4807C53.5932 29.4807 54.2451 23.4496 53.1368 18.5151C52.1264 14.5804 48.9973 10.9682 45.5749 11.0004C35.5031 11.0972 34.9816 28.9002 34.7535 28.5454C34.5253 28.2229 31.5266 27.7069 31.5266 27.7069C31.5266 27.7069 32.3415 24.1914 32.8956 20.418C33.4823 16.5478 33.743 12.0003 29.0494 10.1619C19.6947 6.54969 14.9685 21.6758 14.9685 21.6758C14.9685 21.6758 7.14579 17.6443 3.88633 13.0968C3.72336 12.8711 3.36482 12.9356 3.36482 12.9356C3.36482 12.9356 2.74552 15.2254 4.14709 21.7726C4.37525 22.8046 4.73379 23.9657 5.05974 25.1912ZM6.16795 19.1602C6.16795 19.1602 18.9451 29.384 33.58 31.7706C39.773 32.7704 48.8343 33.1252 58.4824 30.8998C71.7158 27.9004 85.0796 21.8371 85.0796 21.8371C85.0796 21.8371 79.1148 28.6099 70.1512 34.5443C65.2294 37.8017 59.2646 40.7366 53.202 42.2847C49.8448 43.1555 46.4875 43.8005 43.0325 43.5103C40.1642 43.2845 37.524 43.1878 35.0794 42.7685C26.7352 41.2849 20.7052 38.1887 15.9789 34.0605C13.9907 32.3189 11.9372 30.3193 10.3727 28.1907C8.67774 25.8685 7.53693 24.3527 6.4939 21.3855C6.00498 20.031 6.16795 19.1602 6.16795 19.1602Z" fill="white"/>
<path d="M77.8447 47.2837C78.7247 47.3482 79.8329 47.445 80.8108 47.7675C81.3323 47.9288 82.2123 48.4448 82.2123 48.4448C82.2775 48.4448 86.5474 48.3803 86.9711 48.348C87.3623 48.3158 87.5579 47.7997 87.5579 47.7997C87.5579 47.7997 85.5044 45.9614 75.6934 45.1873C71.1301 44.8326 64.6112 46.9289 58.9398 49.9929C55.7781 51.7022 52.8772 54.1534 50.6281 55.4112C48.2487 56.7657 46.0975 56.798 46.0975 56.798C46.0975 56.798 43.7832 57.5075 38.0466 55.3789C35.6672 54.5081 32.5055 52.6375 29.2134 51.0894C26.7036 49.8961 24.1287 48.9286 21.8145 48.5093C9.13513 46.1226 2.68139 50.2186 1.67096 50.5089C0.660526 50.7992 1.08426 51.4119 1.08426 51.4119H6.49497C6.49497 51.4119 8.15729 50.5734 9.78703 50.0251C11.0582 49.6058 12.3294 49.4446 12.688 49.3801C14.3829 49.2188 16.0452 49.3156 17.6423 49.7349C21.1952 50.7347 24.0635 52.7665 24.0635 52.7665C24.0635 52.7665 25.0739 53.2181 30.5824 56.7012C34.8197 59.3781 38.5355 61.023 41.5994 61.5068C48.4769 62.6356 52.2904 59.5072 52.2904 59.5072C52.2904 59.5072 53.7246 58.6364 56.2344 56.7012C58.1901 55.1532 60.7325 52.9923 63.3726 51.1539C64.8394 50.1541 66.3713 49.3478 67.7729 48.6383C72.4339 46.3807 76.769 47.2192 77.8447 47.2837Z" fill="white"/>
</svg>
