<svg width="44" height="44" viewBox="0 0 44 44" fill="none" xmlns="http://www.w3.org/2000/svg">
<g clip-path="url(#clip0_196_50951)">
<path d="M20.4325 25.4346C20.4222 25.3113 20.0203 25.346 19.9058 25.3585C17.6425 25.9669 17.7555 29.5663 21.5535 29.8923C21.3012 31.3893 21.1199 35.2162 21.1199 37.2221C21.1199 41.836 21.4079 41.9325 21.7631 41.9325C22.1183 41.9325 22.4063 41.836 22.4063 37.2221C22.4063 35.2244 22.2264 31.4198 21.9757 29.9102C24.5861 29.9138 25.5031 28.1536 24.4613 26.4006C24.1323 25.8893 23.9662 25.9607 23.8099 26.0331C23.3242 26.2572 23.793 27.0281 23.6748 27.7803C23.4839 29.193 18.4636 28.8856 19.3916 26.5098C19.7022 25.7076 20.4511 25.5798 20.4325 25.4346Z" fill="#334DB5"/>
<path d="M8.24689 25.5543C6.16525 26.8883 7.0297 29.3477 8.84415 29.354C9.28836 29.3648 9.72316 29.2727 10.1741 29.1727C10.1278 29.7748 10.1192 30.7644 10.1065 31.8812C10.0923 33.6987 10.0474 35.8499 10.0246 37.2171C9.98462 39.7121 9.95053 40.9865 10.0283 41.6452C10.097 42.3034 10.2553 42.3434 10.4323 42.3574C10.6094 42.3715 10.7716 42.3591 10.9356 41.7101C11.0905 41.061 11.2702 39.7725 11.3109 37.2351C11.3341 35.845 11.2343 33.6569 11.0148 31.8314C10.8794 30.6704 10.7042 29.6593 10.5497 29.0797C13.2721 28.3334 12.9881 26.166 11.9081 25.7262C13.2627 25.4549 14.7788 24.7221 15.3651 23.4918C15.3779 23.4645 15.3879 23.441 15.3971 23.4189C23.6349 28.1404 34.5385 24.4196 32.1635 12.1083C31.8534 10.5948 31.5977 9.8432 31.4423 9.45525C31.2805 9.07004 31.1914 9.05857 31.1047 9.07776C30.7983 9.14554 30.9997 10.1483 31.2655 12.2545C33.4345 31.1101 8.18504 24.9443 10.5967 11.6731C11.862 4.53468 19.5148 0.81159 26.3473 4.80163C26.406 4.83635 26.9256 5.15909 26.9578 5.11686C27.0062 5.05315 26.0865 4.26727 24.883 3.6914C30.7615 1.4093 35.0748 2.46601 38.0617 5.12084C40.0946 6.9255 41.1279 9.82752 41.2694 12.5194C41.5856 17.7681 38.3901 22.0063 33.0675 23.0922C31.5655 23.4508 29.8161 23.2873 29.4947 23.3294C29.217 23.3529 29.1751 23.4317 29.1546 23.5191C29.0578 23.9317 30.4904 24.162 30.9125 24.2061C28.2623 25.5142 28.3381 28.6064 32.0278 28.624C31.775 30.2734 31.5932 34.5095 31.5932 36.7284C31.5932 41.8259 31.8812 41.9325 32.2364 41.9325C32.5917 41.9325 32.8796 41.8259 32.8796 36.7284C32.8796 34.503 32.6967 30.2489 32.4428 28.6098C35.1902 28.3981 35.623 26.0025 34.0928 24.4716C33.6492 24.0422 33.5036 24.1442 33.3661 24.2503C32.6913 24.7701 34.8863 26.6373 32.8994 27.2193C32.4555 27.3528 31.7338 27.4033 31.0155 27.3129C30.3545 27.2232 29.9874 26.8915 30.0597 26.2234C30.1264 25.4466 31.0796 24.6866 31.4168 24.2462C37.5765 24.5074 43.0395 19.4799 42.5272 12.4394C42.3226 9.38316 41.0669 6.22959 38.7587 4.30375C34.2416 0.533238 27.2446 1.1912 24.7771 3.64014C21.9657 2.33364 18.3335 2.14574 15.4339 3.56531C13.5063 1.31129 6.95082 1.68465 3.38976 6.21632C-1.61383 12.6479 1.52918 23.4934 8.24689 25.5543ZM11.2353 27.3708C10.7261 27.7715 9.1316 28.1344 8.83903 28.1547C8.60537 28.1714 8.43606 28.1343 8.26987 28.0145C7.40839 27.3868 8.3615 26.1099 8.5178 25.6339C9.44744 25.8817 10.3886 25.9359 11.2937 25.8274C11.1779 26.1458 11.3615 26.3323 11.4418 26.4976C11.5886 26.7674 11.574 27.0885 11.2353 27.3708ZM14.8445 3.87328C8.20654 7.71042 6.66893 18.3365 15.3069 23.3652C15.291 23.3811 15.2746 23.3976 15.2559 23.4177C11.8785 27.2218 4.05031 25.1326 2.40881 16.5615C0.656421 7.62143 8.14426 1.35007 14.8445 3.87328Z" fill="#334DB5"/>
</g>
<defs>
<clipPath id="clip0_196_50951">
<rect width="42.9577" height="43.4648" fill="white" transform="translate(0.267578 0.267578)"/>
</clipPath>
</defs>
</svg>
