<svg width="44" height="44" viewBox="0 0 44 44" fill="none" xmlns="http://www.w3.org/2000/svg">
<path d="M26.7711 12.815C28.4732 12.733 30.0942 12.487 31.7963 12.159C30.0942 11.8309 28.4732 11.6669 26.7711 11.5029C23.529 11.2569 20.2869 11.2569 16.7206 11.5029C15.0185 11.5849 13.3974 11.8309 11.6953 12.159C13.3974 12.487 15.0185 12.651 16.7206 12.815C20.2869 13.0611 23.529 13.0611 26.7711 12.815Z" fill="#008029"/>
<path d="M27.4206 16.5054C24.3406 15.4393 18.9911 15.4393 15.9922 16.5054C19.0722 17.5715 24.4216 17.5715 27.4206 16.5054Z" fill="#008029"/>
<path d="M39.8212 1.82576C39.6591 1.74375 39.4159 1.74375 39.2538 1.66174H38.9296H38.6864H36.8222H21.9896H7.15707H5.29286C4.96865 1.66174 4.7255 1.66174 4.32023 1.66174C3.0234 1.90777 1.96971 2.80987 1.64551 4.04001C1.56445 4.36804 1.56445 4.8601 1.56445 5.10612V6.00822L1.64551 13.471C1.88866 29.7908 1.88866 29.1348 1.88866 29.5448C1.88866 29.8729 2.05077 30.2829 2.21287 30.6109C2.53708 31.267 3.10445 31.7591 3.83392 31.9231C4.15813 32.0051 4.56339 32.0051 4.80655 32.0051C4.8876 32.0051 7.72443 31.9231 7.56233 31.9231C9.75074 31.8411 11.9392 31.8411 14.1276 31.7591C14.4518 32.4151 14.9381 32.9892 15.4244 33.4813C15.5055 33.5633 15.5865 33.5633 15.5865 33.6453C15.0191 34.4654 14.5328 35.2034 14.0465 36.1055C13.3981 37.1717 12.8307 38.2378 12.3444 39.3039C12.2634 39.4679 12.2634 39.6319 12.2634 39.7959C12.3444 40.206 12.7497 40.452 13.1549 40.288H13.236C14.0465 40.042 14.857 39.7959 15.6676 39.5499C15.9918 40.37 16.316 41.1081 16.6402 41.8462V41.9282C16.7212 42.0922 16.8023 42.2562 17.0455 42.2562C17.4507 42.4202 17.856 42.2562 18.0181 41.8462C18.5044 40.7801 18.9097 39.6319 19.3149 38.4838C19.6391 37.5817 19.8823 36.7616 20.1254 35.8595C20.6118 35.9415 21.0981 36.0235 21.5033 36.0235C22.0707 36.0235 22.7191 35.9415 23.2865 35.7775C23.5296 36.6796 23.8539 37.5817 24.097 38.4838C24.5023 39.6319 24.9075 40.7801 25.3938 41.8462C25.4749 42.0102 25.556 42.1742 25.7181 42.2562C26.0423 42.4202 26.5286 42.2562 26.6907 41.9282V41.8462C27.0149 41.1081 27.3391 40.288 27.6633 39.5499C27.9065 39.6319 28.2307 39.7139 28.4738 39.7959C29.7707 40.206 30.0138 40.288 30.0949 40.288C30.257 40.37 30.4191 40.288 30.6623 40.206C30.9865 40.042 31.1486 39.5499 30.9865 39.2219C30.6623 38.6478 30.4191 38.0738 30.0949 37.5817C29.7707 37.0076 29.5275 36.4336 29.2033 35.9415C28.717 35.0394 28.1496 34.2193 27.5823 33.3992C28.0686 32.9072 28.3928 32.3331 28.717 31.7591C30.9054 31.8411 33.0938 31.9231 35.2822 31.9231C36.498 31.9231 37.7138 32.0051 39.0106 32.0051C40.0643 31.9231 41.037 31.185 41.2801 30.0369C41.3612 29.7088 41.3612 29.2988 41.3612 28.9708L41.6043 13.9631C41.6043 13.061 41.6854 7.32037 41.6854 5.02411C41.6854 4.8601 41.6854 4.69608 41.6854 4.53206C41.8475 3.38393 40.9559 2.23581 39.8212 1.82576ZM18.4233 38.1558C18.0991 38.7298 17.7749 39.2219 17.5318 39.7959C17.3697 39.3039 17.1265 38.7298 16.9644 38.2378C16.8023 37.8277 16.397 37.5817 15.9918 37.7457C15.5055 37.9097 14.9381 38.0738 14.4518 38.3198C15.1812 36.4336 15.5865 35.2034 15.9107 33.8913C17.0455 34.8754 18.4233 35.6135 19.8823 35.9415C19.3149 36.5976 18.8286 37.4177 18.4233 38.1558ZM28.3928 36.3516C28.5549 36.9256 28.798 37.4997 29.0412 38.1558C29.0412 38.2378 29.0412 38.2378 29.1223 38.3198C28.6359 38.1558 28.1496 37.9917 27.5823 37.8277C27.177 37.6637 26.7717 37.9097 26.6096 38.3198C26.4475 38.8118 26.2044 39.3859 26.0423 39.878C25.7181 39.3039 25.3938 38.7298 25.0696 38.2378C24.5833 37.4177 24.097 36.6796 23.6107 35.8595C25.0696 35.4495 26.4475 34.7114 27.5012 33.6453C27.7444 34.4654 28.0686 35.4495 28.3928 36.3516ZM26.7717 22.082C28.0686 23.5582 28.798 25.4444 28.717 27.3306C28.6359 29.2168 27.9065 31.103 26.5286 32.3331C25.2317 33.6453 23.3675 34.3833 21.5844 34.3833C19.7202 34.3833 17.937 33.6453 16.6402 32.3331C15.2623 31.021 14.5328 29.2168 14.4518 27.3306C14.3707 25.4444 15.1002 23.4761 16.397 22C17.6939 20.5238 19.5581 19.6217 21.5844 19.3757C19.5581 19.2117 17.3697 19.9498 15.8297 21.4259C14.2086 22.9021 13.236 25.0343 13.236 27.2486V27.4126C11.1286 27.3306 8.94022 27.2486 6.83286 27.1666C6.91391 25.5264 6.91391 23.8862 6.99496 22.246L7.15707 16.9974V7.40238L14.0465 7.48439H21.6654C26.5286 7.48439 31.3917 7.48439 36.2549 7.40238C36.3359 12.733 36.498 21.754 36.6601 27.2486C34.3907 27.3306 32.1212 27.4126 29.8517 27.4946C29.8517 27.4126 29.8517 27.4126 29.8517 27.3306C29.7707 25.1163 28.798 22.9021 27.177 21.5079C25.556 20.0318 23.4486 19.2937 21.4223 19.4577C23.5296 19.6217 25.4749 20.6058 26.7717 22.082ZM40.7127 29.8729C40.5506 30.6929 39.9022 31.267 39.0917 31.431C37.957 31.513 36.6601 31.513 35.4443 31.513C33.2559 31.595 31.0675 31.595 28.8791 31.6771C29.6086 30.4469 29.9328 28.9708 29.9328 27.5766C32.2833 27.6586 34.7149 27.7406 37.0654 27.8226C37.2275 27.8226 37.3896 27.7406 37.3896 27.5766C37.4706 26.1004 37.4706 26.4285 37.6328 17.0794C37.7138 13.6351 37.7949 10.1087 37.7949 6.66429C37.7949 6.25425 37.4706 5.92621 37.0654 5.92621C31.9591 5.8442 26.8528 5.8442 21.7465 5.8442H14.1276C14.0465 5.8442 6.34654 5.92621 6.42759 5.92621C6.02233 5.92621 5.69812 6.25425 5.69812 6.66429L5.86023 17.0794L6.02233 22.328C6.02233 24.0502 6.10339 25.7724 6.18444 27.5766C6.18444 27.7406 6.34654 27.8226 6.42759 27.8226C8.61601 27.7406 10.8855 27.6586 13.0739 27.5766C13.0739 28.9708 13.4791 30.4469 14.1276 31.6771C9.42653 31.513 8.2918 31.513 5.69812 31.431H4.80655C4.48234 31.431 4.23918 31.431 3.99602 31.349C3.26655 31.021 2.69919 30.2829 2.69919 29.4628C2.69919 29.2168 2.69919 28.8887 2.69919 28.5607L2.94234 13.5531L3.0234 6.09023C3.0234 5.51617 3.0234 4.77809 3.10445 4.45005C3.26655 3.79398 3.83392 3.38393 4.48234 3.30192H5.29286H7.15707L21.9896 3.38393L36.8222 3.30192H38.6864H38.9296H39.0917C39.1727 3.30192 39.3349 3.30192 39.4159 3.38393C39.578 3.46594 39.8212 3.54795 39.9833 3.71197C40.3075 3.958 40.5506 4.36804 40.5506 4.8601V5.27014C40.5506 5.35215 40.5506 6.7463 40.5506 6.66429L40.6317 14.1271L40.7938 29.0528C40.7938 29.3808 40.7938 29.6268 40.7127 29.8729Z" fill="#008029"/>
</svg>
