<svg width="44" height="44" viewBox="0 0 44 44" fill="none" xmlns="http://www.w3.org/2000/svg">
<g clip-path="url(#clip0_196_50941)">
<path d="M1.91986 34.8723C4.23297 34.7887 6.54608 34.7887 8.77658 34.7051C8.9418 34.7051 9.10702 34.6215 9.18963 34.4543C14.8072 34.2872 17.9464 34.2036 21.6639 34.0364C17.9464 33.8692 14.8898 33.7857 9.35486 33.6185C9.43747 32.6155 9.60269 31.5288 9.85052 30.6094C11.0897 27.0988 13.7332 24.424 16.9551 23.0866C17.0377 23.0866 17.1203 23.003 17.2029 22.9195C17.4507 22.6687 17.4507 22.1672 17.2029 21.9164C16.2942 20.997 15.6333 19.8268 15.3855 18.573C15.1376 17.3192 15.2202 15.9818 15.7159 14.8116C16.2116 13.6414 17.0377 12.5548 18.029 11.8861C18.5247 11.5517 19.103 11.301 19.7638 11.0502C20.3421 10.8831 21.003 10.7995 21.6639 10.7995C22.3248 10.7995 22.9031 10.8831 23.564 11.0502C24.1422 11.2174 24.7205 11.5517 25.2988 11.8861C26.3727 12.6384 27.1988 13.6414 27.6119 14.8116C28.1076 15.9818 28.1902 17.3192 27.9423 18.573C27.6945 19.8268 27.0336 20.997 26.1249 21.9164C26.0423 22 25.9597 22.0836 25.9597 22.1672C25.7945 22.5015 25.9597 22.9195 26.3727 23.0866C28.5206 23.9225 30.5033 25.427 31.8251 27.4331C32.486 28.3526 33.0642 29.3556 33.3947 30.4422C33.7251 31.4452 33.8903 32.5319 33.973 33.6185C32.0729 33.7021 30.0902 33.7021 28.1902 33.7857C26.0423 33.8692 23.8944 33.9528 21.7465 34.0364C23.8944 34.12 26.0423 34.2036 28.1902 34.2872C30.1728 34.3708 32.1555 34.4543 34.1382 34.4543C34.2208 34.6215 34.386 34.7051 34.5512 34.7051C36.8643 34.7887 39.1774 34.7887 41.4079 34.8723C41.821 34.8723 42.1514 34.5379 42.1514 34.12C42.0688 31.9468 41.4079 29.7735 40.1688 27.9346C39.1774 26.4301 37.7731 25.1763 36.2035 24.3404C36.947 23.421 37.36 22.2508 37.4426 21.0806C37.6078 19.4924 37.1948 17.9043 36.2861 16.6505C35.3773 15.3967 34.0556 14.4773 32.5686 14.1429C31.412 13.8086 30.0902 13.8922 29.0163 14.3101C28.438 12.8055 27.3641 11.5517 26.1249 10.6323C25.464 10.2144 24.7205 9.79644 23.977 9.62927C23.2335 9.37851 22.4074 9.29492 21.6639 9.29492C20.8378 9.29492 20.0943 9.46209 19.3508 9.62927C18.6073 9.88002 17.8638 10.2144 17.2029 10.6323C15.8811 11.5517 14.8898 12.8055 14.3115 14.3101C13.155 13.8922 11.9158 13.8086 10.6766 14.1429C9.18963 14.4773 7.86786 15.3967 6.95914 16.6505C6.05041 17.9043 5.63736 19.4924 5.80258 21.0806C5.88519 22.2508 6.38086 23.421 7.04175 24.3404C5.47214 25.1763 4.06775 26.4301 3.07642 27.9346C1.83725 29.7735 1.09375 31.8632 1.09375 34.12C1.17636 34.5379 1.50681 34.8723 1.91986 34.8723ZM29.4293 15.146C30.4207 14.8952 31.4946 14.8952 32.4033 15.2295C33.5599 15.5639 34.6338 16.3997 35.2947 17.4028C35.9556 18.4058 36.2035 19.6596 36.1208 20.9134C35.9556 22.0836 35.3773 23.2538 34.5512 24.0061C34.1382 24.424 34.2208 25.0927 34.7991 25.3435C36.5339 26.0957 38.0209 27.2659 39.0948 28.8541C40.0036 30.1915 40.5818 31.696 40.8297 33.2841C39.0122 33.2841 37.1948 33.3677 35.3773 33.3677C35.2947 32.1975 34.9643 31.1109 34.5512 30.0243C34.1382 28.8541 33.6425 27.6839 32.9816 26.6808C31.7425 24.7584 30.0076 23.2538 28.025 22.1672C29.512 20.2447 30.0902 17.6535 29.4293 15.146ZM4.4808 28.8541C5.55475 27.3495 7.04175 26.0957 8.77658 25.3435C9.35486 25.0927 9.43747 24.424 9.02441 24.0061C8.11569 23.1702 7.62002 22.0836 7.4548 20.9134C7.28958 19.7432 7.62002 18.4894 8.28091 17.4028C8.9418 16.3997 9.93313 15.5639 11.1723 15.2295C12.1636 14.8952 13.155 14.8952 14.1463 15.146C13.4854 17.6535 14.0637 20.2447 15.7159 22.2508C13.7332 23.3374 11.9984 24.8419 10.7592 26.7644C10.0984 27.6839 9.60269 28.7705 9.27224 29.8571C8.77658 31.0273 8.52875 32.1975 8.36352 33.4513C6.54608 33.3677 4.72864 33.3677 2.91119 33.3677C2.9938 31.696 3.57208 30.1915 4.4808 28.8541Z" fill="#FF7800"/>
</g>
<defs>
<clipPath id="clip0_196_50941">
<rect width="42.9577" height="43.4648" fill="white" transform="translate(0.267578 0.267578)"/>
</clipPath>
</defs>
</svg>
