<svg width="390" height="155" viewBox="0 0 390 155" fill="none" xmlns="http://www.w3.org/2000/svg">
<circle cx="357.274" cy="122.738" r="3.20546" fill="#FF0000"/>
<circle cx="95.5923" cy="91.4603" r="3.20546" fill="#FF0000"/>
<circle cx="339.531" cy="53.3189" r="1.78081" fill="#008029"/>
<circle cx="210.73" cy="92.9498" r="1.78081" fill="#008029"/>
<circle cx="384.893" cy="81.779" r="2.8493" fill="#FF7800"/>
<circle cx="144.775" cy="126.073" r="2.8493" fill="#FF7800"/>
<circle cx="253.858" cy="68.4722" r="1.78081" fill="#FF0000"/>
<path d="M31.2092 115.212C31.2468 115.454 31.2593 115.7 31.3231 115.94C31.3494 116.037 31.387 116.129 31.4196 116.222C31.5548 116.621 31.695 117.022 31.9154 117.385C32.077 117.65 32.2623 117.902 32.4276 118.165C32.6079 118.452 32.8333 118.703 33.0812 118.929C33.5445 119.35 34.0304 119.744 34.5976 120.027C35.0797 120.268 35.5768 120.47 36.1128 120.563C36.2004 120.578 36.2843 120.611 36.3682 120.641C36.6712 120.749 36.9818 120.822 37.3036 120.854C37.4814 120.872 37.658 120.884 37.837 120.89C38.1901 120.904 38.5357 120.837 38.8839 120.806C39.2232 120.775 39.5425 120.666 39.8731 120.605C39.8793 120.603 39.8856 120.603 39.8906 120.601C40.1498 120.513 40.3952 120.398 40.6319 120.251C40.4992 120.203 40.379 120.282 40.2224 120.272C40.3339 120.196 40.4453 120.191 40.543 120.151C40.6419 120.113 40.7433 120.083 40.8348 120.053C40.8548 119.997 40.7959 120.002 40.7984 119.95C40.8723 119.872 40.9475 119.771 41.0614 119.717C41.2129 119.643 41.3381 119.534 41.4646 119.429C41.69 119.239 41.9091 119.04 42.127 118.842C42.3862 118.608 42.5953 118.328 42.8245 118.068C43.0223 117.842 43.1801 117.586 43.3554 117.343C43.537 117.091 43.6597 116.815 43.8012 116.545C43.9389 116.285 44.0879 116.032 44.1956 115.758C44.3697 115.313 44.5024 114.863 44.5487 114.385C44.5763 114.098 44.575 113.812 44.5938 113.525C44.6114 113.262 44.5174 113.005 44.4436 112.752C44.4348 112.723 44.4185 112.697 44.4135 112.669C44.3459 112.265 44.1293 111.925 43.9239 111.585C43.7636 111.318 43.5407 111.093 43.3416 110.853C43.145 110.617 42.9259 110.401 42.6855 110.21C42.4639 110.035 42.2447 109.855 41.9993 109.708C41.8277 109.606 41.6675 109.486 41.4934 109.384C41.2417 109.237 40.9888 109.102 40.712 109.006C40.523 108.939 40.3489 108.833 40.1648 108.754C39.7341 108.568 39.2883 108.425 38.8388 108.293C38.4431 108.176 38.0386 108.129 37.6279 108.1C37.3311 108.079 37.0344 108.068 36.7376 108.071C36.243 108.076 35.7672 108.183 35.3164 108.371C34.9507 108.524 34.6202 108.746 34.2983 108.978C33.9728 109.213 33.7261 109.518 33.4719 109.821C33.2553 110.078 33.0725 110.359 32.8508 110.614C32.7632 110.714 32.7106 110.844 32.6379 110.957C32.3938 111.343 32.2297 111.764 32.0557 112.18C32.0419 112.212 32.0281 112.245 32.0106 112.275C31.799 112.626 31.6775 113.01 31.5736 113.403C31.5097 113.635 31.392 113.852 31.3394 114.086C31.2568 114.454 31.1491 114.819 31.2092 115.212ZM36.0915 108.701C36.094 108.754 36.0514 108.765 36.0076 108.77C35.9137 108.781 35.8198 108.789 35.7271 108.804C35.5994 108.824 35.4729 108.861 35.3452 108.867C35.2713 108.871 35.2087 108.878 35.1523 108.934C35.1323 108.843 35.131 108.84 35.1962 108.815C35.4391 108.723 35.692 108.668 35.9462 108.617C35.9638 108.613 35.9813 108.612 35.9988 108.613C36.0539 108.618 36.089 108.647 36.0915 108.701ZM36.7288 108.959C36.4145 108.975 36.1002 108.996 35.7872 109.027C36.0965 108.95 36.407 108.881 36.7288 108.959ZM37.2873 108.204C36.9242 108.197 36.5635 108.237 36.1654 108.257C36.4371 108.148 37.0945 108.12 37.2873 108.204ZM38.666 108.387C38.4443 108.352 38.239 108.341 38.0461 108.271C38.244 108.253 38.5645 108.315 38.666 108.387ZM39.4999 108.865C39.4912 108.862 39.4862 108.85 39.4799 108.843C39.4824 108.829 39.4899 108.823 39.5037 108.827C39.5137 108.829 39.5287 108.836 39.53 108.843C39.5337 108.865 39.5162 108.87 39.4999 108.865ZM39.8869 108.991C39.8793 108.996 39.8718 109.002 39.8643 109.007C39.8555 109.002 39.8405 108.998 39.838 108.991C39.833 108.969 39.8493 108.964 39.8668 108.969C39.8756 108.971 39.8806 108.983 39.8869 108.991ZM40.9299 109.867C40.8686 109.864 40.8185 109.834 40.7671 109.807C40.6582 109.749 40.548 109.69 40.4353 109.638C40.1335 109.498 39.8167 109.396 39.5112 109.269C38.7636 108.956 37.9823 108.799 37.1721 108.777C36.9054 108.77 36.6374 108.772 36.3695 108.768C36.228 108.767 36.2167 108.756 36.1679 108.583C36.3707 108.594 36.5698 108.487 36.7601 108.629C36.7764 108.641 36.8077 108.644 36.8278 108.636C36.9004 108.61 36.978 108.63 37.0569 108.623C37.0218 108.547 36.9417 108.591 36.8891 108.533C36.9392 108.533 36.9755 108.528 37.0093 108.534C37.1984 108.566 37.3912 108.563 37.5791 108.582C37.7168 108.596 37.8546 108.626 37.9973 108.628C38.1213 108.629 38.2427 108.672 38.3642 108.697C38.4857 108.722 38.5933 108.752 38.6334 108.885C38.6359 108.892 38.6547 108.893 38.676 108.902C38.7774 108.797 38.9101 108.809 39.0316 108.861C39.1493 108.911 39.3008 108.938 39.3046 109.107C39.3572 109.129 39.421 109.158 39.4486 109.129C39.5475 109.029 39.6327 109.1 39.7216 109.133C40.0772 109.266 40.419 109.428 40.7584 109.596C40.7671 109.601 40.7709 109.613 40.7784 109.623C40.7709 109.655 40.7196 109.638 40.7158 109.69C40.7534 109.775 40.8936 109.765 40.9299 109.867ZM37.6104 109.127C37.5202 109.127 37.4288 109.134 37.3437 109.093C37.4326 109.102 37.5265 109.076 37.6104 109.127ZM38.0386 109.185C37.8984 109.169 37.7544 109.179 37.6191 109.128C37.7631 109.117 37.9046 109.124 38.0386 109.185ZM41.1841 109.904C41.1541 109.864 41.0927 109.85 41.0802 109.75C41.2818 109.881 41.4771 109.973 41.6424 110.114C41.5798 110.111 41.546 110.174 41.4884 110.185C41.3845 110.154 41.3031 110.083 41.2092 110.035C41.1841 110.022 41.1678 109.994 41.1478 109.973C41.0677 109.957 40.9975 109.922 40.9362 109.87C41.0188 109.88 41.1015 109.892 41.1841 109.904ZM44.3897 114.034C44.3797 114.254 44.3496 114.475 44.267 114.714C44.247 114.613 44.2545 114.54 44.2645 114.467C44.272 114.415 44.287 114.361 44.2795 114.311C44.2382 114.047 44.262 113.783 44.252 113.52C44.2495 113.45 44.2382 113.38 44.2344 113.31C44.2132 112.967 44.1092 112.642 43.9903 112.323C43.8713 112.002 43.7085 111.698 43.4906 111.436C43.254 111.152 43.0261 110.858 42.7431 110.613C42.4451 110.353 42.1646 110.075 41.824 109.867C41.6687 109.771 41.5084 109.681 41.3795 109.549C41.541 109.59 41.6637 109.695 41.8002 109.775C42.2673 110.049 42.6617 110.414 43.0662 110.764C43.2828 110.952 43.4481 111.182 43.6309 111.396C43.8851 111.693 44.0767 112.032 44.2044 112.401C44.391 112.932 44.416 113.482 44.3897 114.034ZM41.7614 110.217C41.68 110.217 41.675 110.157 41.6499 110.116C41.7 110.131 41.7601 110.136 41.7614 110.217ZM42.0056 110.33C42.0193 110.415 41.9993 110.456 41.9454 110.467C41.8841 110.479 41.8014 110.408 41.7626 110.306C41.844 110.333 41.9166 110.377 42.0056 110.33ZM42.1784 110.537C42.1345 110.535 42.102 110.525 42.1032 110.459C42.1621 110.458 42.1859 110.478 42.1784 110.537ZM42.4588 110.761C42.3173 110.814 42.2936 110.673 42.1909 110.631C42.3449 110.598 42.3574 110.604 42.4588 110.761ZM42.6705 110.92C42.6792 110.924 42.683 110.937 42.6892 110.946C42.6817 110.952 42.673 110.966 42.6655 110.965C42.6567 110.963 42.6429 110.952 42.6404 110.944C42.6354 110.921 42.6504 110.913 42.6705 110.92ZM42.8846 111.167C42.8495 111.105 42.7606 111.146 42.693 111.055C42.8082 111.055 42.8658 111.074 42.8846 111.167ZM43.1588 111.436C43.1889 111.462 43.2264 111.475 43.2014 111.539C43.1713 111.512 43.1338 111.499 43.1588 111.436ZM43.3153 111.623C43.3229 111.627 43.3304 111.639 43.3304 111.648C43.3304 111.66 43.3203 111.664 43.3066 111.66C43.2991 111.654 43.2853 111.646 43.284 111.64C43.2828 111.618 43.2991 111.614 43.3153 111.623ZM43.572 112.328C43.4831 112.27 43.4293 112.187 43.398 112.089C43.4894 112.143 43.5382 112.231 43.572 112.328ZM43.6847 112.527C43.6234 112.476 43.5796 112.416 43.5745 112.333C43.6434 112.381 43.676 112.448 43.6847 112.527ZM44.1105 115.567C44.1969 115.286 44.2845 115.006 44.3709 114.724C44.3597 115.024 44.2507 115.299 44.1105 115.567ZM43.6973 115.517C43.7273 115.337 43.721 115.155 43.711 114.974C43.7073 114.903 43.7073 114.834 43.711 114.764C43.7248 114.413 43.7524 114.057 43.7023 113.71C43.6259 113.187 43.4831 112.678 43.1751 112.231C43.1551 112.201 43.1275 112.169 43.1488 112.121C43.9402 113.017 44.3847 114.565 43.6985 115.804C43.6735 115.698 43.6822 115.606 43.6973 115.517ZM43.4744 116.025C43.4869 115.967 43.4982 115.908 43.5107 115.849C43.537 115.914 43.5307 115.973 43.4744 116.025ZM43.4118 116.334C43.4318 116.369 43.4193 116.399 43.3817 116.437C43.3704 116.386 43.3792 116.356 43.4118 116.334ZM43.2753 114.177C43.3028 114.22 43.3203 114.249 43.2953 114.296C43.254 114.255 43.2552 114.224 43.2753 114.177ZM43.095 113.379C43.1338 113.372 43.1313 113.406 43.125 113.452C43.095 113.419 43.0787 113.383 43.095 113.379ZM42.9835 114.623C43.0123 114.701 43.0399 114.779 43.0223 114.893C42.9647 114.789 42.966 114.707 42.9835 114.623ZM42.7994 115.208C42.8458 115.68 42.8132 116.145 42.6842 116.628C42.6316 116.409 42.708 115.391 42.7994 115.208ZM41.0677 118.076C41.1002 117.939 41.2054 117.857 41.2968 117.775C41.5047 117.59 41.6186 117.346 41.7476 117.113C41.7914 117.033 41.8277 116.949 41.9179 116.85C41.9254 116.998 41.8741 117.093 41.8528 117.193C41.8127 117.382 41.7589 117.568 41.6587 117.738C41.5498 117.921 41.3194 118.058 41.0677 118.076ZM41.7839 111.315C41.8878 111.333 41.8878 111.333 41.9079 111.418C41.8553 111.391 41.8127 111.368 41.7839 111.315ZM38.9189 109.496C38.9765 109.479 39.0141 109.481 39.0454 109.497C39.2082 109.584 39.3897 109.626 39.5575 109.701C39.9895 109.896 40.429 110.074 40.8498 110.295C41.1516 110.453 41.4308 110.642 41.6875 110.858C42.0381 111.154 42.3687 111.471 42.6755 111.813C42.8946 112.056 43.0737 112.326 43.2289 112.609C43.4318 112.978 43.532 113.383 43.5996 113.795C43.6096 113.857 43.6184 113.923 43.5958 113.992C43.5457 113.949 43.5445 113.894 43.5432 113.844C43.5407 113.742 43.5144 113.646 43.4906 113.55C43.3554 112.978 43.0674 112.479 42.6955 112.033C42.3787 111.654 42.0581 111.275 41.6875 110.941C41.5635 110.83 41.4321 110.731 41.2906 110.643C40.7747 110.325 40.2224 110.08 39.6677 109.837C39.53 109.776 39.3972 109.682 39.2295 109.712C39.1919 109.718 39.1643 109.69 39.1405 109.661C39.0842 109.595 39.0103 109.544 38.9189 109.496ZM38.7661 109.163C38.7223 109.15 38.6797 109.135 38.6635 109.069C39.1606 109.221 39.6302 109.398 40.0897 109.6C40.6382 109.839 41.1728 110.102 41.6725 110.437C42.241 110.819 42.7531 111.259 43.1939 111.777C43.2715 111.87 43.3617 111.959 43.393 112.082C43.3053 112.048 43.2577 111.972 43.2051 111.903C43.0712 111.73 42.9284 111.566 42.7681 111.417C42.2923 110.972 41.7789 110.573 41.2092 110.254C40.8686 110.064 40.5242 109.879 40.1661 109.722C39.7053 109.521 39.252 109.305 38.7661 109.163ZM38.3492 116.124C38.3567 115.98 38.3654 115.838 38.3755 115.67C38.5395 115.79 38.5871 116.015 38.4994 116.146C38.4731 116.184 38.4406 116.203 38.3955 116.189C38.3629 116.18 38.3467 116.155 38.3492 116.124ZM37.0093 109.33C36.7614 109.321 36.5135 109.291 36.2643 109.3C36.2092 109.301 36.1478 109.314 36.0764 109.263C36.2505 109.211 36.4095 109.237 36.5635 109.234C36.7288 109.23 36.8954 109.216 37.0582 109.258C37.2159 109.298 37.3787 109.218 37.5327 109.271C37.6742 109.319 37.8245 109.335 37.966 109.384C38.1225 109.437 38.2991 109.372 38.4493 109.46C38.5846 109.538 38.7499 109.537 38.8826 109.623C38.5908 109.571 38.2953 109.571 38.0073 109.501C37.6805 109.421 37.3487 109.345 37.0093 109.33ZM36.5172 114.901C36.6199 114.917 36.7126 114.958 36.8202 114.955C36.8465 115.049 36.9154 115.099 36.9943 115.145C37.2034 115.273 37.3624 115.455 37.524 115.635C37.5478 115.661 37.5853 115.695 37.5265 115.762C37.2523 115.4 36.8916 115.144 36.5172 114.901ZM34.9069 109.727C35.4115 109.542 35.9337 109.484 36.4734 109.545C36.2142 109.582 35.9525 109.608 35.692 109.636C35.4303 109.663 35.1724 109.723 34.9132 109.769C34.9107 109.754 34.9094 109.741 34.9069 109.727ZM34.7629 109.676C34.7729 109.724 34.833 109.766 34.7566 109.808C34.7116 109.833 34.674 109.816 34.6602 109.768C34.6389 109.69 34.7003 109.69 34.7629 109.676ZM34.3347 109.487C34.3559 109.435 34.3835 109.422 34.4436 109.434C34.4073 109.471 34.3872 109.496 34.3347 109.487ZM33.9815 119.418C34.0617 119.415 34.113 119.45 34.128 119.526C34.0792 119.491 34.0304 119.454 33.9815 119.418ZM31.397 115.211C31.5811 116.003 31.8491 116.765 32.2185 117.49C31.7727 116.791 31.4859 116.035 31.397 115.211Z" fill="#1A1564"/>
<path d="M283.609 111.365C283.618 111.475 283.636 111.583 283.623 111.694C283.602 111.868 283.64 112.036 283.75 112.172C283.859 112.305 283.893 112.45 283.89 112.61C283.886 112.759 283.926 112.897 283.997 113.03C284.232 113.474 284.442 113.929 284.727 114.354C284.903 114.616 285.151 114.834 285.285 115.098C285.514 115.546 285.921 115.828 286.206 116.217C286.467 116.575 286.876 116.791 287.199 117.096C287.281 117.174 287.378 117.236 287.456 117.317C287.976 117.861 288.593 118.282 289.234 118.674C289.959 119.118 290.724 119.465 291.563 119.646C292.003 119.741 292.451 119.745 292.899 119.694C293.816 119.587 294.66 119.27 295.434 118.79C295.787 118.571 296.172 118.427 296.549 118.272C297.181 118.009 297.683 117.604 298.089 117.074C298.439 116.617 298.781 116.155 299.135 115.7C299.624 115.073 299.889 114.345 299.961 113.556C299.992 113.221 300.037 112.888 300.035 112.55C300.034 112.325 300.097 112.105 300.168 111.891C300.364 111.287 300.467 110.669 300.449 110.033C300.414 108.901 300.182 107.818 299.689 106.782C298.894 105.112 297.667 103.824 296.085 102.859C295.101 102.259 294.011 101.906 292.864 101.726C292.047 101.598 291.242 101.669 290.439 101.834C289.863 101.952 289.298 102.11 288.785 102.393C288.143 102.747 287.534 103.149 287.145 103.789C287.007 104.014 286.789 104.17 286.619 104.366C286.396 104.621 286.173 104.88 285.999 105.17C285.791 105.521 285.456 105.779 285.265 106.142C285.245 106.181 285.216 106.222 285.182 106.249C284.7 106.601 284.52 107.157 284.22 107.63C284.085 107.842 284.064 108.121 283.969 108.361C283.736 108.962 283.721 109.61 283.585 110.231C283.505 110.593 283.578 110.988 283.609 111.365ZM298.703 114.554C298.664 114.854 298.633 115.125 298.504 115.385C298.239 115.11 298.276 114.953 298.703 114.554ZM297.451 105.016C297.467 105 297.484 104.984 297.502 104.97C297.712 105.158 297.931 105.338 298.011 105.631C297.823 105.425 297.636 105.221 297.451 105.016ZM295.633 117.019C295.688 116.961 295.744 116.915 295.827 116.968C295.836 117.027 295.802 117.055 295.758 117.069C295.708 117.081 295.648 117.104 295.633 117.019ZM290.592 102.781C291.121 102.562 292.523 102.698 293.825 103.148C295.131 103.599 296.264 104.338 297.201 105.349C296.559 104.894 295.972 104.363 295.264 103.998C294.541 103.624 293.779 103.35 292.995 103.137C292.226 102.928 291.438 102.841 290.592 102.781ZM287.315 107.959C287.572 107.865 287.842 107.811 288.112 107.765C288.212 107.747 288.328 107.711 288.395 107.814C288.469 107.926 288.391 108.027 288.33 108.121C288.306 108.158 288.274 108.197 288.236 108.216C287.955 108.37 287.839 108.636 287.734 108.91C287.67 109.075 287.614 109.247 287.46 109.348C287.297 109.318 287.288 109.194 287.264 109.089C287.206 108.827 287.152 108.565 287.105 108.301C287.063 108.074 287.085 108.043 287.315 107.959Z" fill="#FF0000"/>
<path d="M150.221 93.6149C150.308 93.9717 150.45 94.3119 150.518 94.6743C150.523 94.7002 150.527 94.7298 150.544 94.7483C150.78 94.9979 150.914 95.3159 151.1 95.5988C151.356 95.9908 151.699 96.3014 151.997 96.6527C152.308 97.0188 152.684 97.3183 153.088 97.5809C153.331 97.7399 153.517 97.9691 153.764 98.1134C154.154 98.3408 154.462 98.6902 154.884 98.8714C154.952 98.901 155.003 98.9694 155.066 99.0175C155.256 99.1673 155.434 99.3355 155.661 99.4353C155.733 99.4686 155.797 99.5222 155.827 99.5962C155.906 99.8014 156.085 99.8532 156.267 99.8643C156.372 99.8698 156.457 99.8976 156.53 99.953C156.709 100.09 156.89 100.221 157.116 100.269C157.146 100.277 157.177 100.306 157.197 100.332C157.304 100.473 157.453 100.506 157.615 100.5C157.759 100.495 157.892 100.523 158.01 100.611C158.089 100.67 158.173 100.709 158.277 100.694C158.302 100.691 158.337 100.689 158.352 100.704C158.536 100.874 158.759 100.815 158.973 100.815C158.989 100.815 159.01 100.811 159.024 100.817C159.262 100.92 159.516 100.944 159.769 100.985C159.879 101.003 159.982 101.04 160.097 101.024C160.262 101 160.424 101.057 160.59 101.062C160.92 101.074 161.252 101.068 161.581 101.046C161.979 101.022 162.375 100.987 162.779 101.014C163.254 101.046 163.736 101.037 164.214 101.009C164.637 100.985 165.022 100.8 165.387 100.595C165.75 100.389 166.122 100.195 166.463 99.9512C166.662 99.8088 166.827 99.6295 166.978 99.4409C167.203 99.1617 167.413 98.8733 167.669 98.6218C168.13 98.1688 168.447 97.6178 168.684 97.0206C168.929 96.4031 169.159 95.7818 169.253 95.1162C169.31 94.7095 169.353 94.3064 169.296 93.8922C169.224 93.3838 169.165 92.8735 169.032 92.3761C168.972 92.1468 168.902 91.9231 168.787 91.716C168.736 91.6236 168.723 91.5127 168.669 91.4258C168.482 91.1077 168.364 90.749 168.12 90.4625C168.008 90.3293 167.905 90.1888 167.802 90.0464C167.452 89.5657 167.071 89.1072 166.632 88.7134C166.337 88.449 166.017 88.2049 165.7 87.959C164.967 87.3895 164.149 86.9643 163.355 86.4928C163.027 86.2987 162.714 86.0768 162.368 85.9122C161.863 85.6737 161.366 85.4112 160.833 85.2522C160.472 85.1431 160.109 85.0266 159.728 84.9748C159.229 84.9064 158.73 84.8528 158.231 84.7936C157.925 84.7566 157.623 84.7363 157.322 84.7529C156.698 84.7899 156.07 84.8565 155.528 85.2041C155.272 85.3686 155.003 85.4592 154.714 85.5332C154.066 85.7014 153.436 85.9344 152.817 86.1877C152.424 86.3467 152.056 86.5778 151.728 86.8459C151.413 87.1048 151.157 87.4228 151.017 87.8277C150.908 88.1402 150.787 88.4434 150.739 88.7762C150.713 88.9556 150.649 89.1516 150.558 89.318C150.494 89.4345 150.483 89.5214 150.593 89.6415C150.413 89.7229 150.356 89.8394 150.347 89.991C150.339 90.113 150.308 90.2332 150.302 90.3552C150.278 90.9376 150.278 91.5237 150.146 92.0969C150.028 92.6165 150.1 93.1194 150.221 93.6149ZM168.314 91.4701C168.214 91.3925 168.185 91.3111 168.183 91.2168C168.264 91.2723 168.336 91.3315 168.314 91.4701ZM168.098 93.2839C168.119 93.2821 168.139 93.2784 168.159 93.2765C168.174 93.2969 168.198 93.3135 168.205 93.3376C168.448 94.0494 168.533 94.7816 168.489 95.5304C168.482 95.6728 168.426 95.804 168.323 95.9168C168.275 95.033 168.351 94.1455 168.098 93.2839ZM166.584 89.7839C167.373 90.6326 168.056 91.5459 168.362 92.6978C168.087 92.1838 167.695 91.7512 167.391 91.2594C167.266 91.0578 167.094 90.8933 166.975 90.6936C166.814 90.4255 166.682 90.1426 166.538 89.8634C166.527 89.8412 166.536 89.8135 166.584 89.7839ZM166.087 97.2536C166.137 97.1981 166.175 97.1815 166.216 97.2388C166.183 97.2813 166.146 97.2924 166.087 97.2536ZM165.42 88.8132C165.73 89.0018 166.087 89.4992 166.126 89.7987C165.89 89.4696 165.656 89.1405 165.42 88.8132ZM164.807 87.6595C164.914 87.6188 164.958 87.6761 165.002 87.7075C165.501 88.057 165.965 88.4471 166.431 88.8372C166.573 88.9556 166.704 89.0813 166.814 89.2274C167.1 89.6119 167.437 89.9558 167.71 90.3497C167.896 90.6196 168.1 90.8803 168.178 91.2094C168.128 91.1909 168.087 91.1651 168.062 91.117C167.748 90.5253 167.328 90.0169 166.861 89.5454C166.726 89.4104 166.593 89.2699 166.466 89.1294C166.173 88.8058 165.86 88.5063 165.492 88.2696C165.234 88.1051 165.053 87.8629 164.807 87.6595ZM160.539 86.5094C161.983 86.7683 163.276 87.225 164.295 88.2752C164.118 88.1568 163.875 88.1309 163.736 87.9664C163.574 87.7741 163.344 87.7168 163.145 87.6151C162.893 87.4875 162.62 87.384 162.359 87.2693C161.85 87.0475 161.342 86.8274 160.809 86.6666C160.727 86.6407 160.636 86.6167 160.539 86.5094ZM159.872 86.1766C159.949 86.1507 160.021 86.0731 160.108 86.1396C160.227 86.2339 160.367 86.2247 160.505 86.2284C160.596 86.2302 160.695 86.2247 160.754 86.3301C160.577 86.3856 160.028 86.2857 159.872 86.1766ZM159.347 86.086C159.474 86.0638 159.601 86.0694 159.726 86.0768C159.793 86.0805 159.837 86.1156 159.864 86.1748C159.68 86.2191 159.509 86.1951 159.347 86.086ZM153.659 91.8159C153.666 91.7364 153.719 91.692 153.8 91.7031C153.878 91.7142 153.891 91.7752 153.878 91.8399C153.85 91.9786 153.828 92.121 153.751 92.304C153.673 92.1136 153.644 91.9675 153.659 91.8159ZM151.288 92.1339C151.382 92.3022 151.479 92.4667 151.496 92.6608C151.391 92.4981 151.264 92.3447 151.288 92.1339ZM151.503 90.3571C151.607 90.6233 151.522 90.8822 151.511 91.1983C151.345 90.9635 151.299 90.749 151.303 90.5253C151.306 90.4292 151.371 90.3515 151.503 90.3571ZM151.584 89.1534C151.586 89.1922 151.566 89.2218 151.527 89.2274C151.498 89.2329 151.478 89.2126 151.478 89.183C151.476 89.1442 151.496 89.1183 151.535 89.109C151.564 89.1072 151.583 89.1238 151.584 89.1534ZM151.638 87.6835C151.955 87.2527 152.308 86.9347 152.837 86.7405C152.793 86.9569 152.666 87.0234 152.561 87.1066C152.406 87.2287 152.231 87.3156 152.087 87.4635C151.99 87.567 151.837 87.6502 151.638 87.6835ZM151.485 95.4435C151.667 95.5101 151.713 95.6247 151.71 95.8244C151.584 95.7042 151.5 95.6136 151.485 95.4435ZM151.483 94.0623C151.376 93.9847 151.332 93.8848 151.31 93.7221C151.529 93.8664 151.533 93.8737 151.483 94.0623ZM151.258 94.2916C151.369 94.3859 151.43 94.4599 151.448 94.5689C151.33 94.5357 151.281 94.4525 151.258 94.2916ZM151.139 94.6004C151.266 94.617 151.297 94.6688 151.236 94.7853C151.135 94.7557 151.109 94.7002 151.139 94.6004ZM150.951 91.9102C150.999 92.0451 151.041 92.182 151.096 92.3132C151.209 92.5869 151.341 92.8494 151.489 93.1046C151.572 93.247 151.592 93.4004 151.505 93.5742C151.069 93.0879 150.888 92.5425 150.951 91.9102ZM150.877 92.9992C150.942 93.0972 150.988 93.1822 150.999 93.2876C150.862 93.1748 150.862 93.1748 150.877 92.9992Z" fill="#008029"/>
</svg>
