<svg width="911" height="216" viewBox="0 0 911 216" fill="none" xmlns="http://www.w3.org/2000/svg">
<circle cx="117.035" cy="209.811" r="5.30125" fill="#1A1564"/>
<circle cx="181.466" cy="171.207" r="4.48568" fill="#FF0000"/>
<circle cx="807.829" cy="171.207" r="4.48568" fill="#FF0000"/>
<circle cx="441.635" cy="127.438" r="4.48568" fill="#FF0000"/>
<circle cx="6.93241" cy="186.159" r="6.93241" fill="#008029"/>
<circle cx="156.636" cy="74.0628" r="2.49204" fill="#008029"/>
<circle cx="783" cy="74.0628" r="2.49204" fill="#008029"/>
<circle cx="602.757" cy="129.522" r="2.49204" fill="#008029"/>
<circle cx="292.838" cy="9.63218" r="2.49204" fill="#008029"/>
<circle cx="220.115" cy="113.89" r="3.98727" fill="#FF7800"/>
<circle cx="846.479" cy="113.89" r="3.98727" fill="#FF7800"/>
<circle cx="510.461" cy="175.874" r="3.98727" fill="#FF7800"/>
<circle cx="279.154" cy="186.16" r="5.48249" fill="#FF7080"/>
<circle cx="905.517" cy="186.16" r="5.48249" fill="#FF7080"/>
<circle cx="298.547" cy="95.2679" r="2.49204" fill="#FF0000"/>
<circle cx="663.11" cy="95.2679" r="2.49204" fill="#FF0000"/>
<path d="M351.538 160.675C351.591 161.014 351.609 161.358 351.698 161.693C351.735 161.83 351.787 161.958 351.833 162.089C352.022 162.647 352.218 163.207 352.527 163.716C352.753 164.087 353.012 164.44 353.243 164.808C353.496 165.209 353.811 165.56 354.158 165.876C354.806 166.466 355.486 167.017 356.28 167.413C356.955 167.75 357.65 168.033 358.4 168.163C358.523 168.184 358.64 168.23 358.758 168.272C359.182 168.424 359.616 168.526 360.067 168.571C360.316 168.595 360.563 168.612 360.813 168.621C361.307 168.64 361.791 168.547 362.278 168.503C362.753 168.46 363.2 168.308 363.663 168.222C363.671 168.22 363.68 168.22 363.687 168.216C364.05 168.094 364.393 167.933 364.724 167.727C364.539 167.66 364.37 167.77 364.151 167.757C364.307 167.65 364.463 167.643 364.6 167.587C364.738 167.534 364.88 167.492 365.008 167.449C365.036 167.371 364.954 167.378 364.957 167.306C365.061 167.197 365.166 167.055 365.325 166.979C365.537 166.875 365.713 166.723 365.89 166.576C366.205 166.31 366.512 166.032 366.817 165.755C367.179 165.427 367.472 165.036 367.793 164.671C368.07 164.355 368.29 163.997 368.536 163.657C368.79 163.304 368.961 162.919 369.159 162.54C369.352 162.177 369.561 161.823 369.711 161.439C369.955 160.817 370.141 160.186 370.206 159.517C370.244 159.116 370.242 158.715 370.269 158.314C370.293 157.946 370.162 157.587 370.058 157.232C370.046 157.193 370.023 157.156 370.016 157.117C369.922 156.551 369.619 156.076 369.331 155.599C369.107 155.226 368.795 154.911 368.516 154.576C368.241 154.246 367.935 153.943 367.598 153.675C367.288 153.43 366.981 153.179 366.638 152.974C366.398 152.83 366.174 152.662 365.93 152.519C365.578 152.313 365.224 152.125 364.837 151.99C364.572 151.897 364.328 151.748 364.071 151.637C363.468 151.378 362.844 151.178 362.215 150.993C361.661 150.829 361.095 150.763 360.521 150.723C360.105 150.694 359.69 150.678 359.275 150.682C358.583 150.689 357.917 150.839 357.286 151.102C356.774 151.316 356.312 151.627 355.861 151.952C355.406 152.28 355.061 152.707 354.705 153.131C354.402 153.49 354.146 153.884 353.836 154.24C353.713 154.38 353.639 154.562 353.538 154.721C353.196 155.26 352.967 155.85 352.723 156.432C352.704 156.477 352.684 156.524 352.66 156.565C352.364 157.056 352.194 157.594 352.048 158.143C351.959 158.468 351.794 158.772 351.721 159.099C351.605 159.614 351.454 160.126 351.538 160.675ZM358.371 151.563C358.374 151.637 358.315 151.653 358.253 151.66C358.122 151.675 357.99 151.688 357.861 151.708C357.682 151.736 357.505 151.788 357.326 151.796C357.223 151.802 357.135 151.812 357.056 151.89C357.028 151.762 357.027 151.758 357.118 151.724C357.458 151.594 357.812 151.518 358.167 151.446C358.192 151.44 358.216 151.439 358.241 151.44C358.318 151.447 358.367 151.489 358.371 151.563ZM359.263 151.924C358.823 151.947 358.383 151.976 357.945 152.019C358.378 151.912 358.812 151.815 359.263 151.924ZM360.044 150.868C359.536 150.858 359.031 150.915 358.474 150.943C358.854 150.791 359.774 150.751 360.044 150.868ZM361.973 151.124C361.663 151.076 361.376 151.06 361.106 150.962C361.383 150.937 361.831 151.024 361.973 151.124ZM363.14 151.793C363.128 151.79 363.121 151.772 363.112 151.762C363.116 151.743 363.126 151.734 363.146 151.739C363.16 151.743 363.181 151.753 363.182 151.762C363.188 151.793 363.163 151.8 363.14 151.793ZM363.682 151.969C363.671 151.976 363.661 151.985 363.65 151.992C363.638 151.985 363.617 151.98 363.613 151.969C363.606 151.938 363.629 151.931 363.654 151.938C363.666 151.942 363.673 151.959 363.682 151.969ZM365.141 153.195C365.056 153.191 364.986 153.15 364.914 153.112C364.761 153.031 364.607 152.948 364.449 152.875C364.027 152.68 363.584 152.536 363.156 152.358C362.11 151.921 361.017 151.701 359.883 151.67C359.51 151.66 359.135 151.663 358.76 151.658C358.562 151.656 358.546 151.641 358.478 151.399C358.761 151.414 359.04 151.264 359.306 151.463C359.329 151.48 359.373 151.484 359.401 151.473C359.503 151.437 359.611 151.465 359.722 151.454C359.673 151.349 359.56 151.409 359.487 151.328C359.557 151.328 359.608 151.321 359.655 151.33C359.92 151.375 360.189 151.371 360.452 151.397C360.645 151.416 360.838 151.459 361.038 151.461C361.211 151.463 361.381 151.523 361.551 151.558C361.721 151.593 361.872 151.636 361.928 151.821C361.931 151.831 361.958 151.833 361.987 151.845C362.129 151.698 362.315 151.715 362.485 151.788C362.65 151.857 362.862 151.895 362.867 152.132C362.941 152.163 363.03 152.203 363.069 152.163C363.207 152.023 363.326 152.121 363.451 152.168C363.948 152.355 364.427 152.581 364.901 152.816C364.914 152.823 364.919 152.84 364.929 152.854C364.919 152.899 364.847 152.875 364.842 152.948C364.894 153.067 365.091 153.053 365.141 153.195ZM360.496 152.159C360.37 152.159 360.242 152.17 360.123 152.113C360.247 152.125 360.379 152.089 360.496 152.159ZM361.095 152.241C360.899 152.218 360.698 152.232 360.508 152.161C360.71 152.146 360.908 152.156 361.095 152.241ZM365.497 153.247C365.455 153.191 365.369 153.172 365.352 153.032C365.634 153.215 365.907 153.343 366.139 153.54C366.051 153.537 366.004 153.625 365.923 153.641C365.778 153.597 365.664 153.497 365.532 153.43C365.497 153.413 365.474 153.373 365.446 153.343C365.334 153.321 365.236 153.273 365.15 153.2C365.266 153.214 365.382 153.231 365.497 153.247ZM369.983 159.026C369.969 159.334 369.927 159.643 369.811 159.979C369.783 159.837 369.794 159.735 369.808 159.633C369.818 159.561 369.839 159.484 369.829 159.414C369.771 159.045 369.804 158.676 369.79 158.307C369.787 158.209 369.771 158.112 369.766 158.014C369.736 157.533 369.591 157.079 369.424 156.633C369.258 156.183 369.03 155.758 368.725 155.392C368.394 154.994 368.075 154.583 367.679 154.239C367.262 153.876 366.869 153.487 366.393 153.195C366.175 153.062 365.951 152.935 365.771 152.751C365.997 152.808 366.168 152.954 366.359 153.067C367.013 153.451 367.565 153.96 368.131 154.451C368.434 154.714 368.665 155.036 368.921 155.335C369.277 155.751 369.545 156.225 369.724 156.741C369.985 157.485 370.02 158.254 369.983 159.026ZM366.305 153.686C366.191 153.686 366.184 153.601 366.149 153.544C366.219 153.565 366.303 153.572 366.305 153.686ZM366.647 153.843C366.666 153.962 366.638 154.019 366.563 154.035C366.477 154.052 366.361 153.952 366.307 153.81C366.421 153.848 366.522 153.909 366.647 153.843ZM366.889 154.133C366.827 154.13 366.782 154.116 366.783 154.024C366.866 154.023 366.899 154.05 366.889 154.133ZM367.281 154.446C367.083 154.52 367.05 154.323 366.906 154.265C367.122 154.218 367.139 154.227 367.281 154.446ZM367.577 154.669C367.589 154.674 367.595 154.693 367.603 154.705C367.593 154.714 367.581 154.733 367.57 154.731C367.558 154.73 367.539 154.714 367.535 154.702C367.528 154.671 367.549 154.659 367.577 154.669ZM367.877 155.015C367.828 154.928 367.703 154.985 367.609 154.857C367.77 154.857 367.851 154.885 367.877 155.015ZM368.261 155.392C368.303 155.428 368.355 155.445 368.32 155.535C368.278 155.497 368.226 155.48 368.261 155.392ZM368.48 155.653C368.49 155.658 368.501 155.675 368.501 155.687C368.501 155.704 368.487 155.71 368.467 155.704C368.457 155.696 368.438 155.685 368.436 155.677C368.434 155.646 368.457 155.64 368.48 155.653ZM368.839 156.639C368.714 156.558 368.639 156.442 368.595 156.304C368.723 156.38 368.791 156.503 368.839 156.639ZM368.997 156.918C368.911 156.847 368.849 156.762 368.842 156.646C368.939 156.714 368.984 156.807 368.997 156.918ZM369.592 161.171C369.713 160.779 369.836 160.387 369.957 159.993C369.941 160.413 369.789 160.796 369.592 161.171ZM369.014 161.102C369.056 160.85 369.047 160.596 369.033 160.342C369.028 160.243 369.028 160.146 369.033 160.048C369.053 159.557 369.091 159.059 369.021 158.574C368.914 157.841 368.714 157.129 368.283 156.503C368.255 156.461 368.217 156.417 368.247 156.349C369.354 157.604 369.976 159.77 369.016 161.503C368.981 161.355 368.993 161.227 369.014 161.102ZM368.702 161.813C368.72 161.731 368.735 161.648 368.753 161.567C368.79 161.657 368.781 161.74 368.702 161.813ZM368.615 162.245C368.643 162.295 368.625 162.336 368.572 162.39C368.557 162.317 368.569 162.276 368.615 162.245ZM368.424 159.227C368.462 159.287 368.487 159.327 368.452 159.393C368.394 159.336 368.395 159.293 368.424 159.227ZM368.171 158.11C368.226 158.1 368.222 158.148 368.213 158.212C368.171 158.166 368.148 158.116 368.171 158.11ZM368.015 159.851C368.056 159.96 368.094 160.069 368.07 160.229C367.989 160.082 367.991 159.968 368.015 159.851ZM367.758 160.67C367.822 161.33 367.777 161.98 367.596 162.656C367.523 162.35 367.63 160.926 367.758 160.67ZM365.334 164.684C365.38 164.492 365.527 164.376 365.655 164.262C365.946 164.003 366.105 163.662 366.286 163.335C366.347 163.223 366.398 163.105 366.524 162.967C366.535 163.175 366.463 163.308 366.433 163.448C366.377 163.712 366.301 163.971 366.161 164.21C366.009 164.466 365.686 164.658 365.334 164.684ZM366.337 155.222C366.482 155.246 366.482 155.246 366.51 155.366C366.436 155.328 366.377 155.297 366.337 155.222ZM362.327 152.676C362.408 152.652 362.46 152.655 362.504 152.678C362.732 152.799 362.986 152.858 363.221 152.963C363.825 153.236 364.441 153.485 365.029 153.795C365.452 154.016 365.842 154.28 366.202 154.583C366.692 154.996 367.155 155.44 367.584 155.919C367.891 156.259 368.141 156.636 368.359 157.032C368.643 157.549 368.783 158.116 368.877 158.693C368.891 158.779 368.904 158.871 368.872 158.968C368.802 158.907 368.8 158.831 368.799 158.76C368.795 158.619 368.758 158.484 368.725 158.349C368.536 157.549 368.133 156.85 367.612 156.226C367.169 155.696 366.72 155.165 366.202 154.698C366.028 154.543 365.844 154.405 365.646 154.282C364.924 153.836 364.151 153.494 363.375 153.153C363.182 153.069 362.997 152.937 362.762 152.979C362.709 152.987 362.671 152.948 362.637 152.908C362.559 152.814 362.455 152.744 362.327 152.676ZM362.114 152.21C362.052 152.192 361.993 152.172 361.97 152.078C362.665 152.291 363.323 152.54 363.966 152.821C364.733 153.157 365.481 153.525 366.181 153.993C366.976 154.527 367.693 155.143 368.31 155.869C368.418 155.998 368.544 156.123 368.588 156.296C368.466 156.247 368.399 156.142 368.325 156.045C368.138 155.803 367.938 155.573 367.714 155.364C367.048 154.742 366.33 154.183 365.532 153.737C365.056 153.471 364.574 153.212 364.073 152.993C363.428 152.711 362.793 152.408 362.114 152.21ZM361.53 161.951C361.541 161.75 361.553 161.552 361.567 161.317C361.796 161.484 361.863 161.799 361.74 161.982C361.703 162.036 361.658 162.062 361.595 162.043C361.549 162.03 361.526 161.994 361.53 161.951ZM359.655 152.445C359.308 152.431 358.961 152.389 358.612 152.401C358.535 152.403 358.449 152.422 358.35 152.35C358.593 152.277 358.816 152.313 359.031 152.31C359.263 152.305 359.496 152.284 359.723 152.343C359.944 152.4 360.172 152.287 360.388 152.362C360.586 152.429 360.796 152.452 360.994 152.519C361.213 152.593 361.46 152.503 361.67 152.626C361.859 152.735 362.091 152.733 362.276 152.854C361.868 152.782 361.455 152.782 361.052 152.683C360.594 152.571 360.13 152.465 359.655 152.445ZM358.966 160.24C359.11 160.262 359.24 160.319 359.39 160.316C359.427 160.447 359.524 160.516 359.634 160.582C359.927 160.76 360.149 161.016 360.375 161.266C360.409 161.303 360.461 161.351 360.379 161.444C359.995 160.938 359.49 160.58 358.966 160.24ZM356.713 152.999C357.419 152.74 358.15 152.659 358.905 152.745C358.542 152.797 358.176 152.834 357.812 152.872C357.445 152.91 357.084 152.994 356.722 153.058C356.718 153.037 356.716 153.018 356.713 152.999ZM356.511 152.929C356.525 152.996 356.61 153.055 356.503 153.114C356.44 153.148 356.387 153.124 356.368 153.056C356.338 152.948 356.424 152.948 356.511 152.929ZM355.912 152.664C355.942 152.592 355.98 152.573 356.065 152.59C356.014 152.642 355.986 152.676 355.912 152.664ZM355.418 166.561C355.53 166.557 355.602 166.606 355.623 166.713C355.555 166.663 355.486 166.611 355.418 166.561ZM351.801 160.674C352.059 161.782 352.434 162.848 352.951 163.863C352.327 162.884 351.926 161.826 351.801 160.674Z" fill="#1A1564"/>
<path d="M179.892 17.4843C180.153 17.5877 180.403 17.7182 180.676 17.794C180.788 17.8246 180.9 17.8403 181.012 17.8625C181.485 17.9599 181.962 18.0531 182.449 18.0449C182.806 18.0385 183.163 18.0006 183.52 17.989C183.909 17.9762 184.288 17.8976 184.657 17.7822C185.344 17.5659 186.018 17.3113 186.63 16.911C187.151 16.5711 187.643 16.1939 188.049 15.7141C188.115 15.6355 188.197 15.5713 188.276 15.505C188.561 15.2665 188.815 14.9997 189.036 14.6979C189.157 14.531 189.273 14.3623 189.384 14.1876C189.605 13.8439 189.742 13.461 189.916 13.0964C190.085 12.7405 190.165 12.3594 190.299 11.9943C190.301 11.9873 190.305 11.9811 190.305 11.9747C190.371 11.6656 190.402 11.3544 190.396 11.0332C190.271 11.1374 190.278 11.303 190.176 11.4531C190.166 11.2976 190.227 11.1838 190.245 11.0635C190.266 10.9428 190.296 10.8245 190.319 10.7155C190.276 10.6633 190.246 10.7247 190.197 10.6921C190.163 10.5732 190.108 10.4395 190.121 10.2944C190.137 10.1005 190.103 9.91254 190.074 9.72554C190.019 9.39046 189.951 9.05659 189.884 8.72468C189.805 8.33007 189.653 7.95947 189.53 7.57969C189.424 7.25121 189.264 6.94538 189.127 6.62927C188.985 6.30191 188.786 6.0195 188.602 5.72125C188.427 5.43322 188.265 5.13755 188.058 4.87082C187.722 4.43885 187.355 4.04444 186.911 3.72025C186.644 3.52613 186.361 3.36068 186.089 3.17529C185.84 3.0048 185.532 2.94886 185.239 2.87514C185.205 2.86734 185.17 2.86846 185.139 2.85692C184.701 2.68931 184.239 2.70743 183.782 2.71361C183.425 2.71801 183.072 2.80918 182.719 2.86804C182.371 2.92657 182.029 3.01903 181.699 3.14706C181.396 3.26572 181.091 3.37974 180.802 3.53862C180.6 3.6498 180.387 3.73971 180.184 3.85338C179.891 4.0185 179.61 4.19204 179.353 4.41156C179.176 4.56103 178.969 4.67255 178.783 4.80986C178.347 5.131 177.944 5.49153 177.549 5.86227C177.201 6.18801 176.917 6.56344 176.648 6.95588C176.453 7.23917 176.268 7.52821 176.096 7.82515C175.81 8.32052 175.637 8.85683 175.557 9.41491C175.494 9.86808 175.519 10.3266 175.559 10.7821C175.599 11.2428 175.755 11.6659 175.904 12.095C176.03 12.4602 176.201 12.806 176.321 13.1747C176.368 13.3202 176.465 13.448 176.535 13.5864C176.771 14.0537 177.09 14.4621 177.399 14.8775C177.422 14.9099 177.447 14.943 177.466 14.9777C177.688 15.3925 177.995 15.7369 178.322 16.0689C178.513 16.2675 178.658 16.5112 178.858 16.6993C179.172 16.9957 179.469 17.3156 179.892 17.4843ZM176.338 8.83495C176.392 8.86335 176.378 8.91221 176.357 8.95872C176.313 9.0587 176.266 9.15724 176.226 9.25813C176.171 9.39681 176.133 9.54429 176.064 9.67506C176.024 9.75078 175.995 9.81744 176.016 9.90588C175.915 9.87266 175.911 9.87247 175.925 9.79326C175.977 9.49749 176.072 9.21401 176.17 8.93072C176.176 8.91111 176.185 8.89294 176.197 8.8762C176.234 8.82421 176.284 8.80655 176.338 8.83495ZM176.967 8.35047C176.798 8.67277 176.634 8.99794 176.481 9.32761C176.587 8.97509 176.701 8.62564 176.967 8.35047ZM176.55 7.35538C176.33 7.71265 176.158 8.09545 175.944 8.50345C175.996 8.16965 176.354 7.49853 176.55 7.35538ZM177.541 6.08894C177.376 6.28951 177.245 6.48753 177.062 6.63859C177.161 6.43153 177.41 6.14826 177.541 6.08894ZM178.502 5.53659C178.494 5.54388 178.479 5.54169 178.468 5.54361C178.456 5.53321 178.454 5.52214 178.466 5.51058C178.474 5.50204 178.491 5.49139 178.497 5.49374C178.522 5.50293 178.516 5.52326 178.502 5.53659ZM178.853 5.2246C178.854 5.23496 178.855 5.24603 178.856 5.25639C178.846 5.26224 178.833 5.27505 178.825 5.27323C178.8 5.26529 178.804 5.2462 178.82 5.23162C178.827 5.22433 178.842 5.22653 178.853 5.2246ZM180.329 4.69539C180.291 4.75505 180.232 4.78768 180.175 4.82299C180.054 4.8977 179.931 4.97294 179.814 5.05498C179.499 5.27428 179.212 5.53009 178.907 5.76032C178.159 6.32291 177.546 7.00969 177.048 7.80347C176.884 8.06473 176.729 8.333 176.568 8.59766C176.484 8.73784 176.466 8.74259 176.267 8.69063C176.397 8.49511 176.408 8.23435 176.66 8.12746C176.682 8.11844 176.702 8.0887 176.707 8.06444C176.724 7.97704 176.789 7.91123 176.828 7.82836C176.733 7.81945 176.729 7.92439 176.641 7.94299C176.67 7.89312 176.687 7.85409 176.712 7.82401C176.855 7.65442 176.966 7.46097 177.095 7.28472C177.189 7.15547 177.3 7.03628 177.385 6.89486C177.459 6.77214 177.573 6.67634 177.669 6.56977C177.765 6.46319 177.858 6.37393 178.012 6.41091C178.021 6.41272 178.033 6.39474 178.054 6.37857C178.01 6.21651 178.101 6.09153 178.223 6.00076C178.341 5.91229 178.457 5.77723 178.626 5.87193C178.679 5.83249 178.744 5.78543 178.732 5.74147C178.692 5.58477 178.811 5.54094 178.896 5.47181C179.237 5.19531 179.597 4.94904 179.962 4.70886C179.972 4.70301 179.986 4.70645 180.001 4.70472C180.028 4.73088 179.981 4.77194 180.03 4.80586C180.136 4.81803 180.208 4.67263 180.329 4.69539ZM177.65 7.5704C177.597 7.66018 177.551 7.75551 177.461 7.81658C177.521 7.73309 177.551 7.62448 177.65 7.5704ZM177.959 7.17775C177.861 7.30806 177.786 7.45719 177.657 7.56239C177.73 7.41254 177.821 7.27596 177.959 7.17775ZM180.515 4.46384C180.459 4.47077 180.409 4.52396 180.303 4.47823C180.551 4.35365 180.756 4.21231 180.992 4.12964C180.952 4.19054 180.995 4.26085 180.972 4.32467C180.88 4.4102 180.762 4.44957 180.659 4.51506C180.632 4.53281 180.595 4.5325 180.562 4.54023C180.499 4.61069 180.424 4.66039 180.337 4.69131C180.395 4.61477 180.456 4.53966 180.515 4.46384ZM186.471 3.67454C186.682 3.81241 186.883 3.97095 187.07 4.19262C186.959 4.15366 186.891 4.10378 186.825 4.05142C186.779 4.01376 186.734 3.96719 186.679 3.94521C186.396 3.83332 186.149 3.65587 185.884 3.51281C185.813 3.47435 185.738 3.44533 185.666 3.40812C185.315 3.22957 184.934 3.1441 184.55 3.07718C184.163 3.00882 183.768 2.99416 183.382 3.05879C182.963 3.1292 182.539 3.18512 182.13 3.32393C181.699 3.46979 181.26 3.58743 180.855 3.80514C180.67 3.90443 180.487 4.01158 180.28 4.06312C180.416 3.92599 180.591 3.86487 180.75 3.77567C181.295 3.4701 181.886 3.2893 182.47 3.09062C182.782 2.98412 183.106 2.95318 183.424 2.89544C183.867 2.81548 184.313 2.82158 184.752 2.90923C185.386 3.0324 185.942 3.3272 186.471 3.67454ZM181.164 4.07154C181.116 4.15258 181.053 4.12236 180.998 4.12359C181.042 4.08234 181.083 4.02536 181.164 4.07154ZM181.418 3.89379C181.51 3.92965 181.539 3.97331 181.518 4.03339C181.494 4.10167 181.375 4.14229 181.252 4.12202C181.327 4.05678 181.412 4.00961 181.418 3.89379ZM181.724 3.84243C181.696 3.88463 181.667 3.9113 181.603 3.87197C181.637 3.81265 181.67 3.80046 181.724 3.84243ZM182.109 3.69318C182.079 3.86497 181.926 3.80675 181.824 3.88456C181.882 3.7118 181.895 3.70293 182.109 3.69318ZM182.391 3.57515C182.4 3.56858 182.415 3.57274 182.427 3.57153C182.429 3.58261 182.437 3.59924 182.432 3.606C182.425 3.61401 182.406 3.62126 182.396 3.61873C182.371 3.61078 182.372 3.59079 182.391 3.57515ZM182.76 3.50564C182.679 3.50462 182.667 3.61686 182.537 3.63102C182.604 3.51631 182.658 3.47045 182.76 3.50564ZM183.187 3.38921C183.23 3.37437 183.264 3.34415 183.313 3.40645C183.268 3.42057 183.234 3.45079 183.187 3.38921ZM183.463 3.34185C183.471 3.33652 183.487 3.33622 183.496 3.34125C183.508 3.34844 183.506 3.36057 183.494 3.37213C183.484 3.37602 183.468 3.38542 183.461 3.38307C183.439 3.37139 183.445 3.35302 183.463 3.34185ZM184.309 3.4965C184.199 3.55126 184.086 3.55673 183.97 3.53042C184.078 3.47102 184.193 3.4734 184.309 3.4965ZM184.571 3.49996C184.485 3.5316 184.4 3.54003 184.315 3.49688C184.403 3.45632 184.488 3.46271 184.571 3.49996ZM187.819 4.84424C187.593 4.59511 187.368 4.34473 187.141 4.09488C187.431 4.2807 187.637 4.54868 187.819 4.84424ZM187.528 5.22696C187.367 5.09213 187.185 4.99275 187 4.89711C186.928 4.85989 186.86 4.81966 186.793 4.77496C186.455 4.5572 186.12 4.32284 185.748 4.17082C185.187 3.94224 184.601 3.78836 183.98 3.83499C183.939 3.83769 183.891 3.84644 183.856 3.79723C185.205 3.53084 186.992 3.98848 187.811 5.3924C187.691 5.35555 187.606 5.29365 187.528 5.22696ZM187.897 5.74419C187.847 5.69796 187.796 5.65225 187.746 5.60601C187.824 5.61719 187.879 5.65791 187.897 5.74419ZM188.165 5.98616C188.212 5.98705 188.234 6.01676 188.25 6.07644C188.192 6.05748 188.168 6.03151 188.165 5.98616ZM185.958 4.86758C186.017 4.8653 186.055 4.86437 186.087 4.91661C186.022 4.93404 185.993 4.91483 185.958 4.86758ZM185.065 4.58298C185.081 4.54002 185.113 4.56263 185.155 4.59545C185.104 4.60597 185.059 4.60135 185.065 4.58298ZM186.226 5.41747C186.32 5.43406 186.413 5.45189 186.516 5.53617C186.379 5.53245 186.299 5.48378 186.226 5.41747ZM186.696 5.94132C187.188 6.16965 187.627 6.47222 188.028 6.88158C187.781 6.80677 186.822 6.13868 186.696 5.94132ZM188.507 9.33404C188.391 9.22187 188.371 9.069 188.344 8.93056C188.284 8.61581 188.111 8.3608 187.956 8.09658C187.903 8.00624 187.841 7.92123 187.797 7.77398C187.947 7.85271 188.011 7.95916 188.097 8.03855C188.26 8.18838 188.411 8.34977 188.52 8.54867C188.637 8.76348 188.637 9.07265 188.507 9.33404ZM182.26 4.68783C182.338 4.5944 182.338 4.5944 182.434 4.62403C182.376 4.66059 182.329 4.69005 182.26 4.68783ZM178.783 6.48228C178.8 6.41486 178.824 6.3789 178.858 6.35707C179.039 6.24527 179.187 6.08891 179.36 5.96566C179.806 5.64902 180.24 5.31484 180.705 5.02451C181.038 4.81598 181.389 4.64787 181.753 4.518C182.25 4.3406 182.757 4.19609 183.274 4.08963C183.643 4.01298 184.014 3.99131 184.384 4.00123C184.867 4.01407 185.326 4.14999 185.772 4.32264C185.839 4.34858 185.909 4.37794 185.964 4.44062C185.892 4.46534 185.837 4.43498 185.787 4.40676C185.685 4.35034 185.575 4.32048 185.466 4.28813C184.822 4.09013 184.161 4.08663 183.503 4.19757C182.943 4.29245 182.381 4.39106 181.834 4.56614C181.652 4.62491 181.477 4.69835 181.307 4.78823C180.69 5.11656 180.125 5.52416 179.559 5.93497C179.418 6.03692 179.248 6.11448 179.178 6.2988C179.162 6.33979 179.118 6.3507 179.076 6.35786C178.977 6.37517 178.884 6.41928 178.783 6.48228ZM178.364 6.4404C178.326 6.47686 178.287 6.51063 178.211 6.48804C178.653 6.08141 179.104 5.71731 179.573 5.37683C180.131 4.9701 180.705 4.59074 181.328 4.28796C182.039 3.9439 182.773 3.68972 183.544 3.5526C183.681 3.52918 183.821 3.49114 183.961 3.53182C183.876 3.59898 183.774 3.60253 183.674 3.61466C183.425 3.64749 183.179 3.69407 182.938 3.76673C182.22 3.98187 181.525 4.26101 180.876 4.64295C180.488 4.87145 180.103 5.10655 179.738 5.3719C179.269 5.71363 178.79 6.03925 178.364 6.4404ZM184.985 10.905C184.848 10.8142 184.713 10.7228 184.553 10.6151C184.767 10.5215 185.017 10.6049 185.095 10.7683C185.117 10.8168 185.116 10.86 185.076 10.897C185.049 10.9243 185.013 10.9255 184.985 10.905ZM177.498 8.28744C177.343 8.52857 177.168 8.7582 177.03 9.01135C176.999 9.06693 176.976 9.13593 176.883 9.17682C176.934 8.97333 177.053 8.83007 177.141 8.67527C177.235 8.50854 177.318 8.33408 177.455 8.19642C177.588 8.06303 177.604 7.85424 177.747 7.73177C177.878 7.6189 177.982 7.47862 178.112 7.36575C178.257 7.24078 178.297 7.02762 178.472 6.92901C178.628 6.83962 178.724 6.67431 178.887 6.59244C178.665 6.85278 178.491 7.14704 178.252 7.39286C177.981 7.67158 177.712 7.95817 177.498 8.28744ZM182.703 12.0178C182.779 11.9249 182.873 11.8564 182.934 11.7477C183.042 11.7761 183.131 11.7363 183.224 11.6851C183.472 11.5508 183.746 11.4988 184.017 11.4422C184.057 11.4336 184.113 11.4163 184.144 11.5137C183.626 11.5762 183.162 11.7866 182.703 12.0178ZM176.654 10.6115C176.768 10.0013 177.017 9.44757 177.395 8.94611C177.28 9.22576 177.151 9.50144 177.025 9.77659C176.898 10.053 176.807 10.345 176.699 10.6297C176.683 10.6236 176.669 10.6169 176.654 10.6115ZM176.52 10.7255C176.573 10.7435 176.65 10.7081 176.646 10.8086C176.644 10.8678 176.605 10.8952 176.55 10.8809C176.46 10.8568 176.496 10.7957 176.52 10.7255ZM176.082 11.0419C176.043 10.9906 176.046 10.9552 176.093 10.9026C176.109 10.9603 176.121 10.9946 176.082 11.0419ZM185.668 17.1702C185.712 17.089 185.777 17.058 185.861 17.0876C185.797 17.1154 185.732 17.1424 185.668 17.1702ZM180.001 17.2965C180.89 17.5738 181.799 17.7503 182.731 17.8042C181.78 17.8414 180.866 17.6872 180.001 17.2965Z" fill="#1A1564"/>
<path d="M95.6039 152.616C95.5562 152.71 95.5514 152.806 95.5896 152.909C95.8353 153.557 96.0595 154.217 96.3052 154.862C96.582 155.589 96.9756 156.273 97.56 156.822C97.8105 157.058 98.0038 157.347 98.2805 157.564C98.6884 157.881 98.9985 158.312 99.4566 158.577C99.6164 158.669 99.7381 158.825 99.8788 158.953C99.9313 159.001 99.9838 159.088 100.041 159.09C100.528 159.121 100.821 159.507 101.193 159.735C101.866 160.152 102.598 160.414 103.328 160.679C104.33 161.045 105.323 161.452 106.38 161.659C106.659 161.715 106.921 161.845 107.219 161.784C107.279 161.772 107.355 161.823 107.42 161.85C107.501 161.881 107.577 161.946 107.658 161.948C108.221 161.967 108.777 162.098 109.335 162.098C110.041 162.098 110.748 162.037 111.451 161.977C111.78 161.948 112.11 161.878 112.429 161.792C113.281 161.561 114.094 161.231 114.836 160.74C115.271 160.453 115.748 160.248 116.17 159.933C116.375 159.779 116.554 159.593 116.766 159.444C117.012 159.271 117.253 159.081 117.506 158.914C117.835 158.7 118.145 158.471 118.41 158.175C118.572 157.995 118.746 157.816 118.992 157.735C119.08 157.706 119.183 157.624 119.219 157.54C119.395 157.135 119.789 156.962 120.082 156.682C120.171 156.598 120.225 156.507 120.254 156.389C120.323 156.126 120.45 155.946 120.762 155.962C121.005 155.974 121.015 155.772 121.029 155.594C121.258 155.288 121.337 154.917 121.452 154.566C121.528 154.33 121.602 154.106 121.743 153.892C121.933 153.603 121.986 153.234 122.129 152.929C122.368 152.423 122.334 151.913 122.337 151.392C122.337 151.368 122.315 151.342 122.303 151.315C122.158 151.294 122.198 151.47 122.041 151.535C122.131 151.007 121.902 150.521 122.05 149.996C121.876 149.864 121.817 149.656 121.745 149.449C121.547 148.872 121.335 148.301 121.127 147.725C121.118 147.699 121.11 147.67 121.096 147.644C120.97 147.381 120.693 147.188 120.614 146.948C120.524 146.666 120.414 146.42 120.254 146.175C120.042 145.85 119.875 145.496 119.667 145.164C119.285 144.562 118.813 144.027 118.422 143.437C118.105 142.956 117.68 142.594 117.286 142.197C117.236 142.147 117.189 142.086 117.131 142.048C116.444 141.595 115.841 141.027 115.137 140.598C114.865 140.432 114.595 140.266 114.285 140.175C113.811 140.035 113.4 139.756 112.961 139.544C112.606 139.373 112.236 139.286 111.862 139.18C111.463 139.067 111.067 138.92 110.662 138.838C110.046 138.713 109.428 138.54 108.789 138.665C108.684 138.684 108.586 138.675 108.496 138.622C108.178 138.434 107.83 138.443 107.484 138.453C106.852 138.472 106.22 138.523 105.588 138.511C105.005 138.499 104.495 138.749 103.946 138.86C103.782 138.894 103.631 139.004 103.445 138.939C103.386 138.918 103.302 138.944 103.235 138.971C102.56 139.228 101.873 139.476 101.289 139.91C100.709 140.338 100.125 140.764 99.6164 141.285C99.4423 141.463 99.2753 141.638 99.218 141.896C99.1965 141.99 99.1298 142.079 99.0653 142.156C98.6693 142.618 98.5023 143.175 98.3258 143.75C98.092 144.506 97.8606 145.284 97.3239 145.905C97.1879 146.064 97.0925 146.237 97.0853 146.454C97.0805 146.56 97.0424 146.654 96.9493 146.714C96.873 146.765 96.8205 146.837 96.8038 146.924C96.7155 147.386 96.4579 147.762 96.1931 148.135C96.1454 148.202 96.1311 148.296 96.1072 148.38C95.9879 148.799 95.8257 149.199 95.6635 149.606C95.3796 150.316 95.3391 151.072 95.5919 151.816C95.6826 152.083 95.7375 152.346 95.6039 152.616ZM121.614 152.967C121.642 152.856 121.611 152.748 121.731 152.697C121.786 152.849 121.786 152.849 121.614 152.967ZM121.127 148.674C121.714 149.772 121.91 151.705 121.506 152.413C121.361 152.136 121.378 151.845 121.373 151.559C121.366 151.169 121.456 150.762 121.337 150.391C121.201 149.972 121.134 149.548 121.067 149.12C121.046 148.977 120.984 148.835 121.127 148.674ZM120.955 148.306C120.862 148.25 120.836 148.188 120.927 148.106C121.02 148.164 121.044 148.226 120.955 148.306ZM120.767 155.594C120.862 155.471 120.941 155.481 121.022 155.596C120.946 155.604 120.869 155.674 120.767 155.594ZM119.546 146.088C119.767 146.322 119.922 146.594 119.992 146.909C119.837 146.637 119.572 146.425 119.546 146.088ZM119.223 145.609C119.347 145.611 119.395 145.667 119.367 145.794C119.235 145.797 119.202 145.729 119.223 145.609ZM118.818 146.7C119.135 146.818 119.173 147.034 119.195 147.263C119.064 147.111 118.887 146.989 118.818 146.7ZM117.902 145.529C118.024 145.45 118.105 145.464 118.145 145.525C118.334 145.816 118.51 146.117 118.691 146.413C118.663 146.43 118.634 146.449 118.606 146.466C118.374 146.163 118.145 145.855 117.902 145.529ZM117.737 143.269C118.093 143.437 118.136 143.49 118.164 143.777C117.95 143.659 117.835 143.471 117.737 143.269ZM116.797 144.205C117.1 144.263 117.449 144.627 117.53 145.012C117.091 144.737 116.859 144.475 116.797 144.205ZM115.903 143.485C116.122 143.452 116.187 143.531 116.191 143.709C116.032 143.719 115.955 143.654 115.903 143.485ZM115.218 142.252C115.251 142.226 115.29 142.183 115.34 142.156C115.387 142.13 115.445 142.118 115.593 142.065C115.509 142.339 115.652 142.426 115.803 142.525C116.036 142.679 116.296 142.811 116.423 143.112C115.929 142.972 115.216 142.469 115.218 142.252ZM114.731 140.996C115.092 140.974 115.087 140.984 115.306 141.118C115.621 141.311 115.848 141.641 116.239 141.718C116.299 141.73 116.342 141.817 116.394 141.865C116.533 141.992 116.673 142.115 116.812 142.243C117.143 142.556 117.554 142.797 117.725 143.254C117.403 143.093 117.131 142.864 116.869 142.616C116.482 142.25 116.108 141.872 115.614 141.631C115.309 141.482 115.051 141.232 114.731 140.996ZM114.14 140.524C114.29 140.555 114.443 140.577 114.541 140.769C114.328 140.76 114.219 140.663 114.14 140.524ZM113.04 140.42C113.231 140.659 113.479 140.774 113.701 140.928C113.906 141.073 113.985 141.2 113.896 141.407C113.849 141.518 113.803 141.684 113.632 141.624C113.474 141.569 113.565 141.434 113.579 141.325C113.584 141.287 113.562 141.246 113.546 141.188C113.338 141.22 113.202 141.077 113.042 140.991C112.682 140.793 112.682 140.757 113.04 140.42ZM112.021 140.201C112.148 140.343 112.329 140.406 112.506 140.533C112.145 140.569 112.052 140.509 112.021 140.201ZM111.726 139.435C111.821 139.426 111.854 139.481 111.85 139.563C111.85 139.577 111.802 139.606 111.788 139.602C111.714 139.57 111.673 139.52 111.726 139.435ZM111.194 139.898C111.196 139.881 111.232 139.854 111.248 139.857C111.291 139.859 111.32 139.888 111.318 139.936C111.299 139.951 111.277 139.98 111.258 139.977C111.215 139.975 111.184 139.943 111.194 139.898ZM108.536 139.496C109.068 139.536 109.536 139.679 110.013 139.758C110.34 139.811 110.671 139.946 110.917 140.211C110.993 140.295 111.034 140.389 110.936 140.476C110.848 140.553 110.738 140.55 110.678 140.439C110.566 140.24 110.378 140.138 110.18 140.134C109.695 140.122 109.288 139.799 108.794 139.823C108.636 139.833 108.496 139.729 108.536 139.496ZM99.3254 142.777C99.4685 142.476 99.6188 142.272 99.7858 142.067C100.346 141.386 101.107 140.952 101.759 140.389C101.802 140.353 101.856 140.326 101.911 140.312C102.229 140.228 102.51 140.042 102.839 139.992C103.159 139.941 103.445 139.813 103.703 139.618C103.758 139.577 103.832 139.544 103.899 139.536C104.357 139.484 104.803 139.387 105.242 139.24C105.361 139.199 105.499 139.216 105.535 139.421C105.249 139.532 104.96 139.626 104.676 139.703C104.218 139.828 103.887 140.17 103.448 140.341C102.947 140.538 102.45 140.774 101.961 141.02C101.055 141.48 100.172 141.959 99.4685 142.717C99.4566 142.734 99.4232 142.739 99.3254 142.777ZM97.8344 148.224C97.7938 148.13 97.7795 148.058 97.9131 147.966C97.9274 148.087 97.9704 148.166 97.8344 148.224ZM96.6249 154.337C96.9326 154.489 97.0042 154.819 97.1927 155.062C97.3954 155.324 97.572 155.611 97.7747 155.873C97.9704 156.124 98.1898 156.355 98.3902 156.603C98.5882 156.849 98.896 157.007 98.9604 157.354C97.9537 156.528 97.1784 155.522 96.6249 154.337Z" fill="#FF7800"/>
<path d="M704.743 155.291C704.755 155.445 704.781 155.596 704.763 155.752C704.733 155.995 704.786 156.23 704.941 156.421C705.093 156.607 705.141 156.81 705.136 157.033C705.131 157.241 705.187 157.435 705.286 157.621C705.615 158.243 705.909 158.88 706.308 159.474C706.554 159.841 706.901 160.146 707.089 160.515C707.408 161.142 707.979 161.536 708.377 162.081C708.742 162.582 709.315 162.884 709.767 163.311C709.881 163.42 710.018 163.506 710.127 163.62C710.855 164.381 711.717 164.971 712.615 165.519C713.629 166.141 714.7 166.627 715.874 166.879C716.49 167.013 717.116 167.018 717.743 166.946C719.026 166.798 720.208 166.354 721.291 165.682C721.785 165.375 722.323 165.174 722.851 164.956C723.736 164.589 724.438 164.022 725.006 163.281C725.496 162.642 725.975 161.995 726.47 161.358C727.154 160.48 727.525 159.462 727.626 158.357C727.669 157.888 727.733 157.422 727.73 156.949C727.728 156.634 727.816 156.327 727.915 156.027C728.189 155.182 728.334 154.317 728.308 153.427C728.26 151.844 727.935 150.327 727.246 148.877C726.132 146.54 724.415 144.739 722.201 143.388C720.824 142.548 719.3 142.055 717.695 141.802C716.551 141.624 715.425 141.723 714.301 141.953C713.495 142.119 712.704 142.34 711.986 142.736C711.088 143.232 710.236 143.795 709.691 144.689C709.498 145.004 709.194 145.222 708.955 145.497C708.643 145.854 708.331 146.216 708.088 146.622C707.796 147.113 707.327 147.475 707.061 147.983C707.033 148.037 706.992 148.094 706.944 148.131C706.27 148.625 706.018 149.403 705.597 150.065C705.41 150.362 705.379 150.751 705.247 151.088C704.92 151.928 704.9 152.835 704.71 153.705C704.598 154.211 704.7 154.763 704.743 155.291ZM725.866 159.754C725.81 160.173 725.767 160.552 725.587 160.917C725.217 160.533 725.268 160.312 725.866 159.754ZM724.114 146.407C724.136 146.384 724.159 146.362 724.185 146.342C724.479 146.605 724.786 146.858 724.897 147.267C724.633 146.979 724.372 146.694 724.114 146.407ZM721.57 163.204C721.646 163.122 721.725 163.058 721.841 163.132C721.854 163.214 721.806 163.254 721.745 163.273C721.674 163.291 721.59 163.323 721.57 163.204ZM714.514 143.279C715.255 142.972 717.218 143.163 719.039 143.792C720.867 144.424 722.452 145.457 723.764 146.873C722.866 146.236 722.044 145.492 721.052 144.982C720.041 144.459 718.975 144.075 717.877 143.777C716.802 143.485 715.699 143.363 714.514 143.279ZM709.929 150.525C710.289 150.394 710.667 150.317 711.045 150.253C711.184 150.228 711.347 150.178 711.441 150.322C711.545 150.478 711.436 150.62 711.349 150.751C711.316 150.803 711.271 150.858 711.217 150.885C710.824 151.1 710.662 151.472 710.515 151.856C710.426 152.087 710.348 152.327 710.132 152.468C709.904 152.426 709.891 152.253 709.858 152.107C709.777 151.74 709.701 151.373 709.635 151.004C709.577 150.687 709.607 150.642 709.929 150.525Z" fill="#FF0000"/>
<path d="M518.082 130.452C518.204 130.952 518.402 131.428 518.497 131.935C518.505 131.971 518.51 132.013 518.534 132.039C518.864 132.388 519.052 132.833 519.312 133.229C519.67 133.777 520.15 134.212 520.567 134.704C521.003 135.216 521.529 135.635 522.093 136.002C522.434 136.225 522.694 136.546 523.039 136.748C523.586 137.066 524.016 137.555 524.607 137.808C524.702 137.85 524.774 137.946 524.862 138.013C525.127 138.222 525.377 138.458 525.695 138.598C525.795 138.644 525.885 138.719 525.926 138.823C526.037 139.11 526.287 139.182 526.543 139.198C526.69 139.206 526.808 139.244 526.911 139.322C527.161 139.513 527.414 139.697 527.731 139.764C527.772 139.775 527.816 139.816 527.844 139.852C527.994 140.049 528.203 140.096 528.429 140.088C528.631 140.08 528.816 140.119 528.981 140.243C529.092 140.326 529.211 140.38 529.355 140.36C529.391 140.354 529.44 140.352 529.461 140.372C529.718 140.611 530.03 140.528 530.329 140.528C530.352 140.528 530.381 140.523 530.401 140.53C530.734 140.675 531.09 140.709 531.443 140.766C531.598 140.792 531.742 140.843 531.902 140.82C532.134 140.786 532.361 140.867 532.593 140.874C533.054 140.89 533.518 140.882 533.979 140.851C534.536 140.817 535.09 140.768 535.655 140.807C536.32 140.851 536.995 140.838 537.663 140.799C538.256 140.766 538.795 140.507 539.305 140.22C539.813 139.933 540.333 139.661 540.81 139.319C541.089 139.12 541.321 138.869 541.532 138.605C541.847 138.215 542.14 137.811 542.499 137.459C543.143 136.825 543.587 136.054 543.919 135.218C544.262 134.354 544.584 133.485 544.716 132.553C544.795 131.984 544.855 131.42 544.775 130.841C544.674 130.129 544.592 129.415 544.406 128.719C544.321 128.398 544.223 128.085 544.063 127.795C543.991 127.666 543.973 127.511 543.898 127.389C543.635 126.944 543.471 126.442 543.13 126.041C542.973 125.855 542.829 125.658 542.684 125.459C542.195 124.786 541.661 124.144 541.047 123.593C540.635 123.223 540.186 122.882 539.743 122.538C538.717 121.741 537.573 121.146 536.462 120.486C536.003 120.214 535.565 119.904 535.08 119.673C534.374 119.34 533.678 118.972 532.933 118.75C532.428 118.597 531.92 118.434 531.386 118.362C530.688 118.266 529.989 118.191 529.29 118.108C528.863 118.056 528.44 118.028 528.02 118.051C527.146 118.103 526.267 118.196 525.509 118.683C525.151 118.913 524.774 119.04 524.37 119.143C523.462 119.379 522.581 119.705 521.714 120.059C521.165 120.282 520.65 120.605 520.191 120.98C519.75 121.342 519.392 121.787 519.196 122.354C519.044 122.791 518.874 123.216 518.807 123.681C518.771 123.932 518.681 124.207 518.554 124.439C518.464 124.602 518.449 124.724 518.603 124.892C518.351 125.006 518.271 125.169 518.258 125.381C518.247 125.552 518.204 125.72 518.196 125.891C518.162 126.706 518.162 127.526 517.977 128.328C517.812 129.055 517.912 129.759 518.082 130.452ZM543.401 127.451C543.262 127.342 543.22 127.229 543.218 127.097C543.331 127.174 543.432 127.257 543.401 127.451ZM543.099 129.989C543.128 129.987 543.156 129.982 543.184 129.979C543.205 130.007 543.239 130.031 543.249 130.064C543.589 131.061 543.708 132.085 543.646 133.133C543.635 133.332 543.558 133.516 543.414 133.674C543.347 132.437 543.452 131.195 543.099 129.989ZM540.98 125.091C542.084 126.279 543.04 127.557 543.468 129.169C543.084 128.45 542.535 127.844 542.109 127.156C541.934 126.874 541.694 126.644 541.527 126.364C541.303 125.989 541.117 125.593 540.916 125.203C540.901 125.172 540.913 125.133 540.98 125.091ZM540.284 135.544C540.354 135.467 540.408 135.444 540.465 135.524C540.418 135.583 540.367 135.599 540.284 135.544ZM539.351 123.733C539.784 123.997 540.284 124.693 540.339 125.112C540.009 124.652 539.681 124.191 539.351 123.733ZM538.493 122.119C538.642 122.062 538.704 122.142 538.766 122.186C539.465 122.675 540.114 123.221 540.766 123.767C540.965 123.932 541.148 124.108 541.303 124.313C541.702 124.851 542.174 125.332 542.555 125.883C542.816 126.261 543.102 126.626 543.21 127.086C543.141 127.06 543.084 127.024 543.048 126.957C542.61 126.129 542.022 125.417 541.367 124.758C541.179 124.569 540.993 124.372 540.815 124.176C540.406 123.723 539.967 123.304 539.452 122.972C539.091 122.742 538.838 122.403 538.493 122.119ZM532.52 120.509C534.541 120.871 536.351 121.511 537.776 122.98C537.529 122.815 537.189 122.778 536.995 122.548C536.768 122.279 536.446 122.199 536.168 122.056C535.815 121.878 535.433 121.733 535.067 121.573C534.356 121.262 533.644 120.954 532.899 120.729C532.783 120.693 532.657 120.659 532.52 120.509ZM531.587 120.043C531.695 120.007 531.796 119.899 531.917 119.992C532.085 120.124 532.281 120.111 532.474 120.116C532.6 120.118 532.739 120.111 532.822 120.258C532.574 120.336 531.806 120.196 531.587 120.043ZM530.853 119.917C531.03 119.886 531.208 119.893 531.384 119.904C531.476 119.909 531.538 119.958 531.577 120.041C531.319 120.103 531.079 120.069 530.853 119.917ZM522.893 127.935C522.903 127.824 522.978 127.762 523.091 127.777C523.199 127.793 523.217 127.878 523.199 127.969C523.161 128.163 523.13 128.362 523.021 128.618C522.913 128.352 522.872 128.147 522.893 127.935ZM519.575 128.38C519.706 128.615 519.843 128.846 519.866 129.117C519.719 128.89 519.541 128.675 519.575 128.38ZM519.877 125.894C520.021 126.266 519.902 126.628 519.887 127.071C519.655 126.742 519.59 126.442 519.596 126.129C519.601 125.994 519.691 125.886 519.877 125.894ZM519.99 124.209C519.993 124.263 519.964 124.305 519.91 124.313C519.869 124.32 519.84 124.292 519.84 124.251C519.838 124.196 519.866 124.16 519.92 124.147C519.962 124.144 519.987 124.168 519.99 124.209ZM520.065 122.152C520.508 121.549 521.003 121.104 521.743 120.833C521.681 121.135 521.503 121.228 521.356 121.345C521.14 121.516 520.895 121.637 520.694 121.844C520.557 121.989 520.343 122.106 520.065 122.152ZM519.851 133.011C520.106 133.105 520.17 133.265 520.165 133.544C519.99 133.376 519.871 133.249 519.851 133.011ZM519.848 131.079C519.699 130.97 519.637 130.83 519.606 130.603C519.913 130.804 519.918 130.815 519.848 131.079ZM519.534 131.399C519.688 131.531 519.773 131.635 519.799 131.788C519.634 131.741 519.565 131.625 519.534 131.399ZM519.366 131.832C519.544 131.855 519.588 131.927 519.503 132.09C519.361 132.049 519.325 131.971 519.366 131.832ZM519.103 128.067C519.17 128.256 519.23 128.447 519.307 128.631C519.464 129.014 519.65 129.381 519.856 129.738C519.972 129.938 520 130.152 519.879 130.396C519.268 129.715 519.016 128.952 519.103 128.067ZM519 129.591C519.09 129.728 519.155 129.847 519.17 129.995C518.98 129.837 518.98 129.837 519 129.591Z" fill="#008029"/>
<path d="M228.493 45.233C228.736 45.7834 229.067 46.2743 229.417 46.7652C230.238 47.9192 231.316 48.748 232.468 49.5046C233.262 50.0273 234.144 50.3461 235.038 50.6436C236.125 51.0049 237.241 51.1579 238.864 51.1813C239.712 51.1877 240.946 50.82 242.112 50.1931C242.221 50.1336 242.334 50.072 242.427 49.9891C242.881 49.5747 243.43 49.2963 243.909 48.9159C244.14 48.7331 244.364 48.5589 244.544 48.3187C244.73 48.0701 244.992 47.9043 245.243 47.7322C245.794 47.3518 246.265 46.88 246.705 46.3784C246.864 46.1978 247.04 46.0427 247.243 45.9215C248.184 45.3584 248.644 44.4785 248.831 43.4266C248.877 43.1716 248.967 42.9591 249.099 42.7359C249.357 42.3024 249.472 41.8051 249.562 41.3078C249.581 41.2079 249.543 41.1144 249.495 41.0273C249.279 40.6384 249.292 40.2133 249.35 39.7968C249.57 38.2114 249.365 36.6983 248.684 35.249C247.765 33.2853 246.473 31.6192 244.783 30.2995C243.974 29.6683 243.078 29.1285 242.091 28.8289C240.485 28.3401 238.854 28.1658 237.185 28.5696C235.899 28.8799 234.657 29.2879 233.52 29.9786C233.044 30.2676 232.592 30.5991 232.181 30.971C231.333 31.7403 230.548 32.5713 230.133 33.6827C229.961 34.1439 229.714 34.5668 229.48 34.9939C229.157 35.5826 228.904 36.2095 228.575 36.7876C228.259 37.3444 228.089 37.9203 227.936 38.5302C227.735 39.3378 227.591 40.1347 227.553 40.972C227.488 42.4915 227.894 43.8792 228.493 45.233ZM248.012 43.1801C248.125 42.8145 248.219 42.5085 248.314 42.2025C248.552 42.6467 248.487 42.8358 248.012 43.1801ZM247.457 44.6549C247.463 44.538 247.52 44.4892 247.666 44.4977C247.614 44.6082 247.574 44.6762 247.457 44.6549ZM239.388 29.5875C240.024 29.5918 240.672 29.6322 241.271 29.9318C240.644 29.8171 240.016 29.7023 239.388 29.5875ZM235.534 50.3482C235.725 50.3419 235.817 50.3589 235.911 50.4439C235.783 50.4928 235.702 50.4481 235.534 50.3482ZM229.775 46.4613C229.934 46.4252 229.966 46.5208 230.007 46.5846C230.676 47.577 231.607 48.272 232.577 48.9244C233.283 49.3983 234.045 49.7511 234.831 50.0613C234.946 50.106 235.08 50.14 235.18 50.2866C234.898 50.2717 234.694 50.14 234.479 50.0592C232.822 49.4514 231.413 48.4696 230.227 47.152C230.045 46.948 229.892 46.7248 229.775 46.4613Z" fill="#FF7080"/>
</svg>
