<svg width="302" height="216" viewBox="0 0 302 216" fill="none" xmlns="http://www.w3.org/2000/svg">
<circle cx="117.036" cy="209.811" r="5.30125" fill="#1A1564"/>
<circle cx="181.466" cy="171.207" r="4.48568" fill="#FF0000"/>
<circle cx="6.93241" cy="186.159" r="6.93241" fill="#008029"/>
<circle cx="156.637" cy="74.0628" r="2.49204" fill="#008029"/>
<circle cx="292.838" cy="9.6323" r="2.49204" fill="#008029"/>
<circle cx="220.115" cy="113.89" r="3.98727" fill="#FF7800"/>
<circle cx="279.154" cy="186.16" r="5.48249" fill="#FF7080"/>
<circle cx="298.547" cy="95.2679" r="2.49204" fill="#FF0000"/>
<path d="M179.892 17.4842C180.153 17.5876 180.403 17.7181 180.677 17.7939C180.788 17.8245 180.901 17.8402 181.012 17.8624C181.485 17.9598 181.962 18.053 182.45 18.0448C182.807 18.0384 183.164 18.0004 183.52 17.9889C183.909 17.976 184.289 17.8975 184.657 17.7821C185.345 17.5657 186.019 17.3112 186.631 16.9109C187.151 16.5709 187.643 16.1938 188.049 15.714C188.115 15.6354 188.197 15.5712 188.276 15.5049C188.561 15.2664 188.815 14.9996 189.036 14.6978C189.158 14.5308 189.273 14.3622 189.385 14.1875C189.606 13.8438 189.743 13.4609 189.917 13.0963C190.086 12.7404 190.166 12.3593 190.299 11.9942C190.302 11.9872 190.305 11.981 190.306 11.9745C190.372 11.6654 190.402 11.3542 190.396 11.0331C190.271 11.1372 190.278 11.3029 190.177 11.453C190.167 11.2975 190.227 11.1837 190.246 11.0634C190.266 10.9426 190.296 10.8244 190.32 10.7154C190.276 10.6631 190.247 10.7246 190.197 10.6919C190.164 10.5731 190.108 10.4394 190.121 10.2943C190.137 10.1003 190.104 9.91242 190.074 9.72542C190.019 9.39034 189.952 9.05646 189.885 8.72455C189.806 8.32994 189.653 7.95934 189.531 7.57957C189.424 7.25108 189.265 6.94525 189.128 6.62915C188.986 6.30179 188.786 6.01937 188.602 5.72113C188.428 5.43309 188.265 5.13743 188.058 4.8707C187.722 4.43873 187.355 4.04431 186.911 3.72012C186.645 3.526 186.361 3.36056 186.09 3.17517C185.841 3.00467 185.532 2.94874 185.239 2.87501C185.206 2.86722 185.171 2.86834 185.14 2.8568C184.702 2.68918 184.24 2.7073 183.783 2.71348C183.425 2.71789 183.073 2.80906 182.72 2.86792C182.372 2.92644 182.03 3.0189 181.7 3.14693C181.396 3.2656 181.091 3.37962 180.802 3.5385C180.6 3.64968 180.388 3.73958 180.185 3.85326C179.892 4.01838 179.61 4.19192 179.353 4.41143C179.176 4.56091 178.969 4.67243 178.783 4.80973C178.347 5.13087 177.944 5.49141 177.55 5.86214C177.202 6.18789 176.918 6.56332 176.649 6.95576C176.454 7.23905 176.268 7.52808 176.097 7.82502C175.811 8.3204 175.637 8.85671 175.558 9.41479C175.494 9.86796 175.519 10.3265 175.559 10.782C175.599 11.2427 175.755 11.6658 175.904 12.0949C176.031 12.46 176.201 12.8059 176.322 13.1746C176.369 13.3201 176.466 13.4479 176.535 13.5863C176.772 14.0536 177.091 14.462 177.399 14.8774C177.423 14.9098 177.448 14.9429 177.467 14.9776C177.688 15.3924 177.996 15.7368 178.322 16.0687C178.513 16.2674 178.659 16.5111 178.858 16.6992C179.172 16.9956 179.47 17.3155 179.892 17.4842ZM176.338 8.83483C176.392 8.86323 176.378 8.91209 176.357 8.9586C176.313 9.05858 176.266 9.15712 176.227 9.25801C176.171 9.39668 176.133 9.54417 176.064 9.67494C176.025 9.75066 175.995 9.81731 176.017 9.90575C175.915 9.87254 175.912 9.87235 175.926 9.79314C175.977 9.49736 176.072 9.21389 176.17 8.9306C176.177 8.91099 176.186 8.89282 176.197 8.87608C176.235 8.82409 176.284 8.80642 176.338 8.83483ZM176.967 8.35035C176.798 8.67264 176.635 8.99782 176.481 9.32749C176.587 8.97497 176.701 8.62552 176.967 8.35035ZM176.551 7.35526C176.33 7.71253 176.159 8.09533 175.944 8.50332C175.997 8.16953 176.355 7.49841 176.551 7.35526ZM177.541 6.08881C177.377 6.28939 177.245 6.4874 177.062 6.63847C177.162 6.4314 177.411 6.14814 177.541 6.08881ZM178.502 5.53647C178.495 5.54376 178.479 5.54157 178.468 5.54349C178.457 5.53309 178.455 5.52202 178.467 5.51046C178.475 5.50192 178.491 5.49127 178.498 5.49361C178.522 5.50281 178.517 5.52314 178.502 5.53647ZM178.854 5.22448C178.854 5.23484 178.856 5.24591 178.856 5.25627C178.846 5.26212 178.834 5.27493 178.825 5.27311C178.8 5.26516 178.805 5.24608 178.82 5.2315C178.828 5.22421 178.843 5.22641 178.854 5.22448ZM180.33 4.69527C180.291 4.75493 180.233 4.78756 180.176 4.82287C180.055 4.89758 179.931 4.97281 179.814 5.05485C179.499 5.27415 179.212 5.52997 178.907 5.7602C178.16 6.32278 177.546 7.00957 177.048 7.80334C176.884 8.06461 176.73 8.33287 176.568 8.59754C176.484 8.73772 176.467 8.74247 176.267 8.69051C176.397 8.49499 176.408 8.23423 176.66 8.12734C176.682 8.11831 176.703 8.08858 176.707 8.06432C176.724 7.97691 176.79 7.91111 176.829 7.82824C176.734 7.81933 176.729 7.92427 176.641 7.94287C176.67 7.893 176.687 7.85396 176.713 7.82389C176.856 7.6543 176.966 7.46085 177.095 7.2846C177.189 7.15535 177.301 7.03616 177.386 6.89474C177.46 6.77202 177.574 6.67622 177.669 6.56965C177.765 6.46307 177.859 6.37381 178.013 6.41078C178.021 6.4126 178.034 6.39462 178.055 6.37845C178.011 6.21638 178.101 6.0914 178.223 6.00064C178.341 5.91217 178.457 5.77711 178.626 5.8718C178.679 5.83237 178.745 5.7853 178.733 5.74135C178.692 5.58465 178.812 5.54082 178.897 5.47169C179.237 5.19519 179.597 4.94892 179.962 4.70874C179.972 4.70288 179.987 4.70633 180.001 4.7046C180.028 4.73076 179.981 4.77182 180.03 4.80574C180.136 4.81791 180.209 4.67251 180.33 4.69527ZM177.651 7.57028C177.598 7.66005 177.551 7.75538 177.461 7.81646C177.522 7.73296 177.551 7.62436 177.651 7.57028ZM177.959 7.17763C177.861 7.30794 177.786 7.45707 177.657 7.56227C177.731 7.41242 177.821 7.27584 177.959 7.17763ZM180.516 4.46371C180.459 4.47065 180.41 4.52384 180.304 4.47811C180.551 4.35353 180.756 4.21219 180.992 4.12951C180.953 4.19042 180.995 4.26073 180.972 4.32455C180.881 4.41007 180.762 4.44945 180.66 4.51494C180.633 4.53269 180.595 4.53237 180.563 4.54011C180.5 4.61057 180.424 4.66027 180.337 4.69119C180.396 4.61465 180.456 4.53954 180.516 4.46371ZM186.472 3.67442C186.683 3.81229 186.883 3.97082 187.071 4.1925C186.959 4.15354 186.892 4.10366 186.826 4.0513C186.779 4.01364 186.734 3.96706 186.68 3.94509C186.396 3.83319 186.149 3.65575 185.884 3.51268C185.813 3.47422 185.738 3.44521 185.667 3.408C185.316 3.22945 184.934 3.14398 184.55 3.07706C184.164 3.0087 183.768 2.99404 183.382 3.05867C182.963 3.12907 182.539 3.185 182.131 3.32381C181.7 3.46967 181.261 3.58731 180.855 3.80502C180.67 3.90431 180.487 4.01145 180.281 4.063C180.416 3.92587 180.592 3.86475 180.751 3.77554C181.296 3.46998 181.887 3.28917 182.47 3.09049C182.783 2.984 183.106 2.95306 183.424 2.89532C183.867 2.81536 184.313 2.82146 184.753 2.90911C185.386 3.03228 185.943 3.32707 186.472 3.67442ZM181.164 4.07142C181.116 4.15246 181.054 4.12224 180.999 4.12347C181.043 4.08222 181.083 4.02524 181.164 4.07142ZM181.418 3.89366C181.511 3.92952 181.539 3.97318 181.518 4.03327C181.494 4.10155 181.375 4.14216 181.253 4.1219C181.327 4.05666 181.413 4.00949 181.418 3.89366ZM181.725 3.84231C181.696 3.88451 181.668 3.91118 181.604 3.87185C181.637 3.81253 181.671 3.80034 181.725 3.84231ZM182.11 3.69306C182.079 3.86485 181.926 3.80663 181.825 3.88444C181.882 3.71168 181.896 3.70281 182.11 3.69306ZM182.391 3.57503C182.4 3.56845 182.416 3.57262 182.428 3.57141C182.43 3.58249 182.438 3.59912 182.432 3.60588C182.426 3.61389 182.407 3.62114 182.397 3.6186C182.372 3.61066 182.372 3.59067 182.391 3.57503ZM182.761 3.50552C182.679 3.5045 182.667 3.61674 182.537 3.6309C182.605 3.51619 182.658 3.47033 182.761 3.50552ZM183.187 3.38909C183.23 3.37425 183.265 3.34403 183.313 3.40633C183.269 3.42045 183.235 3.45067 183.187 3.38909ZM183.463 3.34172C183.471 3.3364 183.488 3.3361 183.496 3.34113C183.508 3.34832 183.506 3.36045 183.494 3.37201C183.484 3.37589 183.469 3.3853 183.462 3.38295C183.439 3.37127 183.445 3.3529 183.463 3.34172ZM184.309 3.49638C184.2 3.55113 184.087 3.55661 183.971 3.5303C184.078 3.4709 184.193 3.47328 184.309 3.49638ZM184.572 3.49984C184.486 3.53148 184.4 3.53991 184.316 3.49676C184.404 3.4562 184.489 3.46258 184.572 3.49984ZM187.819 4.84412C187.594 4.59499 187.369 4.34461 187.142 4.09476C187.431 4.28058 187.637 4.54856 187.819 4.84412ZM187.528 5.22683C187.368 5.09201 187.185 4.99263 187 4.89698C186.928 4.85977 186.86 4.81954 186.793 4.77484C186.455 4.55707 186.121 4.32272 185.749 4.1707C185.188 3.94211 184.602 3.78824 183.98 3.83487C183.939 3.83757 183.891 3.84632 183.856 3.7971C185.205 3.53072 186.993 3.98836 187.811 5.39228C187.692 5.35542 187.607 5.29353 187.528 5.22683ZM187.898 5.74407C187.848 5.69784 187.796 5.65213 187.746 5.60589C187.825 5.61707 187.88 5.65779 187.898 5.74407ZM188.165 5.98604C188.213 5.98692 188.234 6.01664 188.25 6.07632C188.192 6.05736 188.168 6.03139 188.165 5.98604ZM185.959 4.86746C186.017 4.86518 186.056 4.86425 186.087 4.91649C186.023 4.93392 185.993 4.91471 185.959 4.86746ZM185.066 4.58286C185.081 4.5399 185.114 4.56251 185.155 4.59533C185.105 4.60585 185.06 4.60123 185.066 4.58286ZM186.227 5.41735C186.321 5.43394 186.413 5.45177 186.516 5.53605C186.379 5.53233 186.299 5.48366 186.227 5.41735ZM186.696 5.9412C187.189 6.16953 187.628 6.4721 188.028 6.88146C187.782 6.80665 186.823 6.13856 186.696 5.9412ZM188.507 9.33392C188.391 9.22175 188.371 9.06888 188.345 8.93044C188.284 8.61569 188.111 8.36068 187.957 8.09646C187.903 8.00612 187.842 7.92111 187.797 7.77385C187.948 7.85259 188.011 7.95903 188.098 8.03843C188.26 8.18826 188.412 8.34965 188.521 8.54854C188.637 8.76336 188.637 9.07253 188.507 9.33392ZM182.26 4.68771C182.338 4.59428 182.338 4.59428 182.434 4.62391C182.377 4.66047 182.33 4.68993 182.26 4.68771ZM178.783 6.48216C178.8 6.41474 178.825 6.37877 178.859 6.35694C179.04 6.24515 179.188 6.08878 179.361 5.96554C179.807 5.64889 180.24 5.31471 180.706 5.02438C181.039 4.81586 181.389 4.64774 181.753 4.51788C182.25 4.34048 182.757 4.19596 183.275 4.08951C183.643 4.01285 184.014 3.99118 184.384 4.00111C184.868 4.01395 185.326 4.14987 185.773 4.32251C185.839 4.34846 185.909 4.37782 185.964 4.44049C185.892 4.46522 185.838 4.43485 185.787 4.40664C185.686 4.35022 185.575 4.32036 185.466 4.28801C184.823 4.09001 184.162 4.08651 183.503 4.19745C182.943 4.29233 182.381 4.39094 181.835 4.56602C181.652 4.62479 181.477 4.69823 181.308 4.78811C180.691 5.11644 180.125 5.52404 179.559 5.93485C179.419 6.03679 179.248 6.11435 179.179 6.29867C179.163 6.33967 179.119 6.35058 179.077 6.35774C178.978 6.37505 178.885 6.41916 178.783 6.48216ZM178.365 6.44028C178.327 6.47673 178.287 6.5105 178.212 6.48791C178.654 6.08129 179.105 5.71719 179.573 5.37671C180.132 4.96998 180.705 4.59061 181.329 4.28783C182.039 3.94378 182.774 3.6896 183.544 3.55248C183.681 3.52906 183.822 3.49102 183.962 3.5317C183.876 3.59886 183.774 3.60241 183.675 3.61454C183.426 3.64737 183.18 3.69395 182.938 3.76661C182.22 3.98175 181.525 4.26089 180.876 4.64283C180.489 4.87132 180.104 5.10643 179.739 5.37178C179.27 5.71351 178.79 6.03913 178.365 6.44028ZM184.985 10.9049C184.848 10.8141 184.713 10.7227 184.553 10.615C184.768 10.5214 185.017 10.6048 185.095 10.7682C185.117 10.8167 185.117 10.8599 185.077 10.8968C185.049 10.9242 185.014 10.9253 184.985 10.9049ZM177.499 8.28732C177.343 8.52845 177.168 8.75808 177.03 9.01123C176.999 9.06681 176.977 9.13581 176.884 9.1767C176.935 8.97321 177.054 8.82995 177.142 8.67515C177.235 8.50841 177.318 8.33396 177.455 8.1963C177.588 8.06291 177.605 7.85412 177.747 7.73165C177.878 7.61878 177.982 7.4785 178.113 7.36562C178.257 7.24066 178.297 7.0275 178.472 6.92889C178.628 6.83949 178.724 6.67419 178.887 6.59232C178.665 6.85266 178.491 7.14691 178.253 7.39273C177.982 7.67146 177.712 7.95804 177.499 8.28732ZM182.703 12.0177C182.779 11.9248 182.874 11.8563 182.935 11.7476C183.043 11.776 183.132 11.7362 183.224 11.6849C183.473 11.5507 183.746 11.4987 184.018 11.442C184.057 11.4334 184.114 11.4161 184.145 11.5135C183.627 11.5761 183.163 11.7865 182.703 12.0177ZM176.655 10.6114C176.768 10.0012 177.018 9.44745 177.396 8.94598C177.28 9.22564 177.152 9.50132 177.026 9.77647C176.899 10.0529 176.807 10.3449 176.7 10.6296C176.684 10.6235 176.67 10.6168 176.655 10.6114ZM176.52 10.7253C176.574 10.7434 176.65 10.708 176.647 10.8084C176.645 10.8677 176.606 10.8951 176.55 10.8807C176.461 10.8567 176.497 10.7956 176.52 10.7253ZM176.082 11.0418C176.044 10.9905 176.046 10.9551 176.094 10.9025C176.109 10.9602 176.122 10.9945 176.082 11.0418ZM185.668 17.1701C185.713 17.0889 185.777 17.0579 185.862 17.0874C185.798 17.1152 185.732 17.1423 185.668 17.1701ZM180.002 17.2964C180.89 17.5737 181.799 17.7502 182.731 17.8041C181.78 17.8413 180.866 17.6871 180.002 17.2964Z" fill="#1A1564"/>
<path d="M95.6034 152.615C95.5557 152.709 95.551 152.806 95.5891 152.909C95.8348 153.557 96.0591 154.217 96.3048 154.862C96.5815 155.589 96.9751 156.273 97.5596 156.822C97.8101 157.058 98.0033 157.347 98.2801 157.564C98.688 157.881 98.9981 158.312 99.4561 158.577C99.616 158.669 99.7376 158.825 99.8784 158.953C99.9309 159.001 99.9834 159.088 100.041 159.09C100.527 159.121 100.821 159.507 101.193 159.735C101.866 160.152 102.598 160.414 103.328 160.679C104.33 161.045 105.322 161.452 106.379 161.659C106.658 161.715 106.921 161.845 107.219 161.784C107.278 161.772 107.355 161.823 107.419 161.849C107.5 161.881 107.577 161.946 107.658 161.948C108.221 161.967 108.777 162.097 109.335 162.097C110.041 162.097 110.747 162.037 111.451 161.977C111.78 161.948 112.109 161.878 112.429 161.792C113.281 161.56 114.094 161.231 114.836 160.739C115.27 160.453 115.747 160.248 116.169 159.933C116.375 159.779 116.554 159.593 116.766 159.444C117.012 159.271 117.253 159.08 117.505 158.914C117.835 158.7 118.145 158.471 118.41 158.175C118.572 157.995 118.746 157.816 118.992 157.734C119.08 157.706 119.182 157.624 119.218 157.539C119.395 157.135 119.788 156.962 120.082 156.682C120.17 156.598 120.225 156.506 120.254 156.389C120.323 156.126 120.449 155.945 120.762 155.962C121.005 155.974 121.015 155.772 121.029 155.594C121.258 155.288 121.337 154.917 121.451 154.566C121.527 154.33 121.601 154.106 121.742 153.892C121.933 153.603 121.986 153.234 122.129 152.929C122.367 152.423 122.334 151.912 122.336 151.392C122.336 151.368 122.315 151.342 122.303 151.315C122.157 151.294 122.198 151.469 122.04 151.534C122.131 151.007 121.902 150.521 122.05 149.996C121.876 149.863 121.816 149.656 121.745 149.449C121.547 148.871 121.334 148.301 121.127 147.725C121.117 147.699 121.11 147.67 121.096 147.643C120.969 147.381 120.693 147.188 120.614 146.948C120.523 146.666 120.413 146.42 120.254 146.175C120.041 145.85 119.874 145.496 119.667 145.163C119.285 144.561 118.813 144.027 118.421 143.437C118.104 142.955 117.68 142.594 117.286 142.197C117.236 142.146 117.188 142.086 117.131 142.048C116.444 141.595 115.84 141.027 115.137 140.598C114.865 140.432 114.595 140.266 114.285 140.174C113.81 140.035 113.4 139.755 112.961 139.544C112.605 139.373 112.236 139.286 111.861 139.18C111.463 139.067 111.067 138.92 110.661 138.838C110.046 138.713 109.428 138.54 108.789 138.665C108.684 138.684 108.586 138.674 108.495 138.621C108.178 138.434 107.83 138.443 107.484 138.453C106.851 138.472 106.219 138.523 105.587 138.511C105.005 138.499 104.494 138.749 103.946 138.86C103.781 138.893 103.631 139.004 103.445 138.939C103.385 138.918 103.302 138.944 103.235 138.971C102.56 139.228 101.873 139.476 101.288 139.91C100.709 140.338 100.124 140.764 99.616 141.284C99.4418 141.463 99.2748 141.638 99.2176 141.896C99.1961 141.99 99.1293 142.079 99.0649 142.156C98.6689 142.618 98.5019 143.175 98.3254 143.75C98.0916 144.506 97.8602 145.284 97.3234 145.905C97.1875 146.064 97.092 146.237 97.0849 146.454C97.0801 146.56 97.0419 146.654 96.9489 146.714C96.8726 146.765 96.8201 146.837 96.8034 146.923C96.7151 147.386 96.4575 147.761 96.1927 148.135C96.145 148.202 96.1307 148.296 96.1068 148.38C95.9875 148.799 95.8253 149.199 95.6631 149.606C95.3792 150.316 95.3386 151.072 95.5915 151.816C95.6822 152.083 95.737 152.346 95.6034 152.615ZM121.613 152.967C121.642 152.856 121.611 152.748 121.73 152.697C121.785 152.849 121.785 152.849 121.613 152.967ZM121.127 148.674C121.714 149.772 121.909 151.705 121.506 152.413C121.36 152.136 121.377 151.845 121.372 151.558C121.365 151.168 121.456 150.761 121.337 150.391C121.201 149.972 121.134 149.548 121.067 149.119C121.046 148.977 120.984 148.835 121.127 148.674ZM120.955 148.306C120.862 148.25 120.836 148.188 120.926 148.106C121.019 148.163 121.043 148.226 120.955 148.306ZM120.766 155.594C120.862 155.471 120.941 155.481 121.022 155.596C120.945 155.604 120.869 155.673 120.766 155.594ZM119.545 146.088C119.767 146.322 119.922 146.594 119.991 146.909C119.836 146.637 119.571 146.425 119.545 146.088ZM119.223 145.609C119.347 145.611 119.395 145.667 119.366 145.794C119.235 145.797 119.202 145.729 119.223 145.609ZM118.817 146.7C119.135 146.818 119.173 147.034 119.194 147.263C119.063 147.111 118.887 146.988 118.817 146.7ZM117.901 145.529C118.023 145.45 118.104 145.464 118.145 145.525C118.333 145.816 118.51 146.117 118.691 146.413C118.662 146.43 118.634 146.449 118.605 146.466C118.374 146.163 118.145 145.854 117.901 145.529ZM117.737 143.268C118.092 143.437 118.135 143.49 118.164 143.776C117.949 143.659 117.835 143.471 117.737 143.268ZM116.797 144.205C117.1 144.263 117.448 144.626 117.529 145.012C117.09 144.737 116.859 144.475 116.797 144.205ZM115.902 143.485C116.122 143.451 116.186 143.531 116.191 143.709C116.031 143.719 115.955 143.654 115.902 143.485ZM115.218 142.252C115.251 142.226 115.289 142.183 115.339 142.156C115.387 142.13 115.444 142.118 115.592 142.065C115.509 142.339 115.652 142.426 115.802 142.524C116.036 142.679 116.296 142.811 116.422 143.112C115.929 142.972 115.215 142.469 115.218 142.252ZM114.731 140.995C115.091 140.974 115.086 140.983 115.306 141.118C115.621 141.311 115.847 141.641 116.239 141.718C116.298 141.73 116.341 141.817 116.394 141.865C116.532 141.992 116.673 142.115 116.811 142.243C117.143 142.556 117.553 142.797 117.725 143.254C117.403 143.093 117.131 142.864 116.868 142.616C116.482 142.25 116.107 141.872 115.614 141.631C115.308 141.482 115.051 141.231 114.731 140.995ZM114.139 140.524C114.29 140.555 114.442 140.577 114.54 140.769C114.328 140.76 114.218 140.663 114.139 140.524ZM113.04 140.42C113.23 140.658 113.479 140.774 113.7 140.928C113.906 141.073 113.984 141.2 113.896 141.407C113.848 141.518 113.803 141.684 113.631 141.624C113.474 141.569 113.564 141.434 113.579 141.325C113.584 141.287 113.562 141.246 113.545 141.188C113.338 141.219 113.202 141.077 113.042 140.991C112.682 140.793 112.682 140.757 113.04 140.42ZM112.021 140.201C112.147 140.343 112.329 140.406 112.505 140.533C112.145 140.569 112.052 140.509 112.021 140.201ZM111.725 139.435C111.821 139.426 111.854 139.481 111.849 139.563C111.849 139.577 111.801 139.606 111.787 139.601C111.713 139.57 111.673 139.52 111.725 139.435ZM111.193 139.898C111.196 139.881 111.231 139.854 111.248 139.857C111.291 139.859 111.32 139.888 111.317 139.936C111.298 139.951 111.277 139.979 111.258 139.977C111.215 139.975 111.184 139.943 111.193 139.898ZM108.536 139.495C109.068 139.536 109.535 139.678 110.012 139.758C110.339 139.811 110.671 139.946 110.916 140.211C110.993 140.295 111.033 140.389 110.936 140.475C110.847 140.552 110.738 140.55 110.678 140.439C110.566 140.239 110.377 140.138 110.179 140.134C109.695 140.121 109.287 139.799 108.793 139.823C108.636 139.833 108.495 139.729 108.536 139.495ZM99.3249 142.777C99.4681 142.476 99.6184 142.272 99.7854 142.067C100.346 141.386 101.107 140.952 101.758 140.389C101.801 140.353 101.856 140.326 101.911 140.312C102.228 140.227 102.51 140.042 102.839 139.991C103.159 139.941 103.445 139.813 103.702 139.618C103.757 139.577 103.831 139.544 103.898 139.536C104.356 139.483 104.802 139.387 105.241 139.24C105.36 139.199 105.499 139.216 105.535 139.421C105.248 139.532 104.96 139.625 104.676 139.703C104.218 139.828 103.886 140.17 103.447 140.341C102.946 140.538 102.45 140.774 101.961 141.02C101.054 141.479 100.172 141.959 99.4681 142.717C99.4561 142.734 99.4227 142.739 99.3249 142.777ZM97.834 148.224C97.7934 148.13 97.7791 148.058 97.9127 147.966C97.927 148.086 97.9699 148.166 97.834 148.224ZM96.6245 154.337C96.9322 154.489 97.0038 154.819 97.1922 155.062C97.395 155.324 97.5715 155.611 97.7743 155.873C97.9699 156.124 98.1894 156.355 98.3898 156.603C98.5878 156.848 98.8955 157.007 98.9599 157.354C97.9532 156.528 97.1779 155.522 96.6245 154.337Z" fill="#FF7800"/>
<path d="M228.493 45.233C228.736 45.7834 229.067 46.2743 229.417 46.7652C230.238 47.9192 231.316 48.748 232.468 49.5046C233.262 50.0273 234.143 50.3461 235.038 50.6436C236.125 51.0049 237.241 51.1579 238.864 51.1813C239.712 51.1877 240.946 50.82 242.112 50.1931C242.221 50.1336 242.334 50.072 242.426 49.9891C242.881 49.5747 243.429 49.2963 243.909 48.9159C244.139 48.7331 244.364 48.5589 244.544 48.3187C244.73 48.0701 244.992 47.9043 245.243 47.7322C245.794 47.3518 246.265 46.88 246.705 46.3784C246.864 46.1978 247.04 46.0427 247.243 45.9215C248.184 45.3584 248.644 44.4785 248.831 43.4266C248.877 43.1716 248.967 42.9591 249.099 42.7359C249.356 42.3024 249.471 41.8051 249.562 41.3078C249.58 41.2079 249.543 41.1144 249.495 41.0273C249.279 40.6384 249.291 40.2133 249.35 39.7968C249.57 38.2114 249.365 36.6983 248.684 35.249C247.765 33.2853 246.472 31.6192 244.782 30.2995C243.974 29.6683 243.078 29.1285 242.091 28.8289C240.485 28.3401 238.853 28.1658 237.184 28.5696C235.898 28.8799 234.657 29.2879 233.519 29.9786C233.044 30.2676 232.592 30.5991 232.181 30.971C231.333 31.7403 230.548 32.5713 230.133 33.6827C229.961 34.1439 229.714 34.5668 229.479 34.9939C229.157 35.5826 228.904 36.2095 228.575 36.7876C228.258 37.3444 228.089 37.9203 227.936 38.5302C227.735 39.3378 227.59 40.1347 227.553 40.972C227.488 42.4915 227.894 43.8792 228.493 45.233ZM248.012 43.1801C248.125 42.8145 248.219 42.5085 248.313 42.2025C248.552 42.6467 248.487 42.8358 248.012 43.1801ZM247.457 44.6549C247.463 44.538 247.52 44.4892 247.666 44.4977C247.614 44.6082 247.574 44.6762 247.457 44.6549ZM239.388 29.5875C240.024 29.5918 240.671 29.6322 241.27 29.9318C240.644 29.8171 240.016 29.7023 239.388 29.5875ZM235.534 50.3482C235.725 50.3419 235.817 50.3589 235.911 50.4439C235.783 50.4928 235.702 50.4481 235.534 50.3482ZM229.775 46.4613C229.934 46.4252 229.965 46.5208 230.007 46.5846C230.675 47.577 231.607 48.272 232.577 48.9244C233.283 49.3983 234.045 49.7511 234.83 50.0613C234.946 50.106 235.08 50.14 235.18 50.2866C234.897 50.2717 234.694 50.14 234.479 50.0592C232.822 49.4514 231.412 48.4696 230.227 47.152C230.045 46.948 229.892 46.7248 229.775 46.4613Z" fill="#FF7080"/>
</svg>
