<svg width="66" height="66" viewBox="0 0 66 66" fill="none" xmlns="http://www.w3.org/2000/svg">
<path d="M21.4282 7.81151C21.4718 8.14904 23.6348 7.9166 25.1703 8.46635C29.9016 10.0766 26.0291 19.1227 28.2771 18.9715C28.9059 18.9311 28.9574 18.2855 29.2848 16.4049C31.3595 4.17469 21.3514 7.22174 21.4282 7.81151Z" fill="#FF7080"/>
<path d="M26.5471 21.1887C26.4561 21.0999 26.1534 21.198 25.8328 21.5881C24.2654 23.4843 26.4986 26.3916 28.7485 25.4324C30.2756 24.8088 30.824 22.95 29.6404 21.5914C28.2061 20.0481 27.2834 21.2163 27.7507 21.986C28.0139 22.4549 28.6036 22.9939 28.249 23.4326C27.6499 24.2028 26.2714 23.5332 26.515 21.9228C26.5627 21.5505 26.65 21.2836 26.5471 21.1887Z" fill="#FF7080"/>
<path d="M8.22482 48.5539C7.53514 48.3062 3.7853 60.1323 13.0829 58.8913C14.1078 58.7421 14.3156 58.6408 16.403 58.3351C17.1311 58.2488 17.2397 58.0732 17.3128 57.7962C17.5834 56.814 15.504 56.7218 14.4331 56.8079C13.4868 56.857 12.3195 57.1382 11.0153 56.9676C8.89122 56.6657 8.45987 54.9182 8.3207 52.7337C8.15256 50.4967 8.48969 48.6309 8.22482 48.5539Z" fill="#FF7080"/>
<path d="M20.6542 56.7539C20.6541 56.6279 20.3821 56.3967 19.9212 56.5655C18.85 56.9666 18.7953 59.028 20.1571 60.0424C21.5055 61.071 23.5534 60.4171 23.9325 58.7844C24.0811 58.1051 23.8236 57.1758 23.2993 57.1945C23.1202 57.2017 22.671 57.4495 22.4339 57.8733C22.2101 58.2336 22.2022 58.4205 21.7427 58.5487C20.7556 58.7577 20.1769 57.6199 20.389 57.1614C20.4829 56.9491 20.669 56.8712 20.6542 56.7539Z" fill="#FF7080"/>
<path d="M50.9746 55.6877C50.1679 55.6159 50.0591 55.8372 49.9777 56.098C49.8967 56.3575 49.8474 56.6035 50.5631 57.0213C52.9492 58.3737 58.2678 59.0802 58.7723 56.265C58.8326 55.9013 58.6689 53.387 58.6715 53.4357C58.1429 45.6515 57.587 45.6358 57.0575 53.4378C57.0314 53.8786 56.9768 54.8177 56.9816 55.2589C56.9901 55.7942 57.1449 56.0786 56.0022 56.2052C54.2643 56.3701 51.8212 55.7531 50.9746 55.6877Z" fill="#FF7080"/>
<path d="M58.7276 43.4543C59.2352 43.252 59.6486 42.8167 59.8189 42.2405C60.0155 41.5268 59.7317 41.3075 59.2622 41.1729C58.7509 41.026 58.5938 41.1104 58.2349 41.473C58.0022 41.7039 58.076 41.5743 58.0474 41.6002C58.0461 41.5975 58.0466 41.5981 58.0466 41.5981C58.0466 41.5981 58.0484 41.6064 58.0401 41.6167C58.0157 41.6228 57.9599 41.6178 57.8996 41.5998C57.1646 41.3968 57.2686 39.4182 56.5029 40.4635C56.009 41.1462 56.0151 42.2726 56.7597 43.0057C56.9653 43.2088 57.9825 43.7346 58.7276 43.4543Z" fill="#FF7080"/>
<path d="M18.7458 64.3079C30.8848 63.5865 32.4172 64.6718 33.0501 63.168C33.9692 63.8513 35.0454 63.7026 38.2463 63.7003C61.0186 63.8085 63.8981 65.0107 63.9957 57.6923C64.1021 51.5324 64.1947 44.1504 64.2483 38.7273C64.25 38.4149 64.2585 38.1181 64.2473 37.7579C64.1654 35.7924 63.2877 34.2148 62.1014 33.3477C59.1573 31.1429 55.8199 33.3254 54.5566 32.872C52.7754 32.2501 54.8004 29.0144 53.5914 27.6125C53.4237 27.422 53.2986 27.372 53.2809 27.3924C53.2162 27.4459 53.6233 27.8033 53.5948 28.6573C53.5791 29.5475 53.1995 30.321 53.1061 31.2449C52.9736 32.6154 53.5137 33.3645 54.2448 33.6682C55.9328 34.3936 58.9889 32.3936 61.3509 34.3476C62.7133 35.436 62.8927 37.0538 62.808 38.6895C62.7106 40.9925 62.7582 39.8376 62.5717 44.428C62.03 59.3694 62.4238 60.41 60.8886 61.1705C58.7092 62.2402 44.249 61.7675 38.2082 62.062C34.9412 62.2256 33.719 62.706 33.2219 61.7237C33.4853 59.0689 33.2571 53.7116 33.3932 53.6657C33.5744 53.6028 36.6737 55.0695 40.0373 53.5114C46.0864 50.6719 45.025 41.9571 38.0522 41.9465C36.8625 41.9372 33.9974 42.3002 33.9785 42.2363C33.9786 42.2849 33.9954 36.4243 33.9396 36.007C33.8682 35.3489 33.64 34.4382 33.7656 34.0265C34.0897 32.9834 36.678 33.4379 37.7307 33.4951C42.8893 33.6652 43.2453 33.7479 43.9309 33.4162C44.902 32.9409 44.8653 31.8537 44.633 30.785C44.2427 29.3182 43.8082 28.7919 44.205 27.2414C44.3908 26.5181 44.7186 25.8609 45.1293 25.3182C46.4768 23.5507 47.5112 23.5997 49.4588 23.8228C51.0648 24.03 51.0069 24.645 51.1479 24.5666C51.2126 24.5392 51.0761 24.0873 50.6006 23.7795C49.8862 23.2929 47.5214 22.706 46.1773 23.342C44.9506 23.9334 43.7411 25.2404 43.2049 26.946C42.6186 28.8198 43.1346 29.6776 43.4407 31.0798C43.7693 32.659 43.7323 32.3516 38.5881 32.004L37.8405 31.9544C36.6219 31.8493 35.3328 31.5243 33.9864 31.9064C35.6851 27.6353 34.0215 13.737 34.0039 9.73691C33.9519 1.81485 30.7505 1.58457 22.8566 1.35836C18.0507 1.22731 9.5858 1.71498 9.67737 2.60584C9.74677 3.28249 14.4787 2.53696 22.7905 2.99587C28.607 3.32472 31.322 3.35308 31.9847 6.81567C32.2303 8.21272 32.0966 9.6779 32.1735 11.4375C32.301 13.589 33.6163 30.0312 32.0069 31.4994C32.0049 31.5065 32.0059 31.503 32.0059 31.503C32.1391 31.4832 31.6883 31.5614 31.3674 31.5562C30.0839 31.5849 31.8617 31.4473 22.116 30.9618C22.3939 33.1814 22.4182 33.5637 22.4135 33.5151C23.1306 42.1881 15.6217 42.8494 15.0663 37.5759C15.171 35.9338 15.3695 35.7166 15.3696 34.7014C15.3847 33.0988 14.4174 31.8769 13.0016 31.3432C11.746 30.876 10.4657 30.8652 9.25389 31.1076C8.20601 31.3206 3.75178 32.7348 3.36932 31.1526C3.14229 30.1979 3.27656 26.0101 3.46822 23.9626C3.75873 20.7365 5.35999 23.3678 9.27725 21.7697C14.1215 19.8479 13.6091 14.392 10.5579 12.7909C8.49275 11.7869 6.17525 13.0614 4.39379 12.4073C3.01227 11.8669 3.2593 11.0661 3.34736 10.2354C3.61125 8.1146 2.26332 5.34555 4.37804 3.66552C5.51736 2.76215 6.30725 3.32312 6.3515 3.15203C6.37097 3.09494 5.33605 2.58968 4.16952 3.3698C2.03168 4.77066 2.6604 7.55262 2.68459 9.19901C2.69803 10.6489 1.74627 12.2143 4.08883 13.216C6.61825 14.1698 9.21767 12.3709 10.9374 14.4633C13.1952 17.3383 10.5714 21.2663 6.06944 20.9696C5.26469 20.9395 3.48713 20.4047 2.56286 21.9682C1.72569 23.4256 1.71684 28.8471 1.761 30.5198C1.80623 32.1118 2.31673 33.1853 4.39175 33.4771C6.18845 33.7378 7.98476 33.0561 9.56547 32.765C11.322 32.4206 13.6333 32.831 13.6249 34.7028C13.6228 35.3127 13.3579 36.3357 13.3016 37.1271C13.3032 37.3053 13.2682 37.6237 13.3287 38.1336C13.5846 40.1371 14.9264 41.9539 16.7889 42.5772C18.6325 43.1985 20.6068 42.5293 22.05 41.1667C25.194 38.1896 24.2694 33.4339 24.3014 33.0319C31.5596 33.4433 31.1119 33.628 32.1873 33.474C31.8469 34.5051 32.2002 35.4658 32.2343 36.4895C32.1844 39.0284 32.2857 33.8328 32.1671 39.9157C32.1196 42.5069 32.1067 42.4876 32.1649 42.7959C32.7586 46.0203 38.6327 42.0636 41.196 45.1924C41.6587 45.7561 41.9417 46.4577 42.0356 47.1447C42.4606 50.0261 39.2353 53.3198 34.5415 52.1108C34.2698 52.0476 33.9563 51.9276 33.6635 51.8606C33.1953 51.7504 32.7378 51.8019 32.372 52.0306C31.9002 52.324 31.668 52.8563 31.6323 53.4018C31.6207 53.5358 31.6196 53.681 31.6237 53.806C31.6862 55.09 31.9683 61.7513 32.4743 62.7334C30.9855 63.3699 31.7038 61.7676 18.6482 62.3743C11.1856 62.7087 5.47255 63.2493 4.39035 60.6545C3.52913 58.5131 3.64652 21.3125 2.65586 37.4544C2.11764 46.2089 2.2781 58.2287 2.35717 59.6046C2.72481 65.6753 10.0319 64.811 18.7458 64.3079Z" fill="#FF7080"/>
</svg>
