<svg width="66" height="66" viewBox="0 0 66 66" fill="none" xmlns="http://www.w3.org/2000/svg">
<g clip-path="url(#clip0_241_28556)">
<path d="M56.098 22.425C56.2307 16.9846 53.8422 11.5442 49.9942 7.56344C48.0038 5.57306 45.748 3.98075 43.2269 2.91921C40.7057 1.85767 37.9192 1.3269 35.1326 1.3269C32.3461 1.3269 29.5595 1.85767 27.0384 2.91921C24.5172 3.98075 22.1288 5.57306 20.1384 7.56344C16.1576 11.4115 13.9019 16.9846 13.9019 22.425C13.9019 25.2115 14.4326 27.9981 15.4942 30.5192C16.5557 33.0404 18.148 35.4288 19.873 37.2865C22.9249 40.8692 25.1807 45.2481 26.2422 49.8923C25.9769 49.8923 25.5788 49.8923 25.1807 49.8923C23.7211 50.1577 22.6595 51.75 22.7922 53.2096C22.7922 53.8731 23.1903 54.6692 23.7211 55.2C23.0576 55.8634 22.6595 57.0577 22.9249 57.9865C23.0576 58.7827 23.4557 59.4461 24.1192 59.9769C24.3845 60.2423 24.7826 60.375 25.1807 60.5077C25.3134 60.5077 25.5788 60.6404 25.7115 60.6404H27.1711C27.3038 61.3038 27.4365 61.9673 27.7019 62.4981C28.0999 63.4269 28.7634 64.3558 29.4269 65.1519C30.8865 66.6115 33.1422 67.5404 35.2653 67.5404C37.3884 67.5404 39.5115 66.6115 41.1038 65.1519C42.298 63.9577 43.0942 62.3654 43.3596 60.6404H43.7576H44.5538C45.748 60.6404 46.9422 59.8442 47.473 58.7827C47.8711 58.1192 47.8711 57.1904 47.7384 56.5269C47.6057 55.9961 47.3403 55.5981 46.9422 55.2C47.6057 54.4038 48.0038 53.475 47.7384 52.4134C47.473 50.8211 46.0134 49.6269 44.5538 49.7596H43.7576C44.8192 44.9827 47.0749 40.4711 50.3922 36.8884C53.8422 33.3058 56.2307 27.8654 56.098 22.425ZM39.2461 63.4269C38.0519 64.3558 36.5922 65.0192 35.1326 64.8865C33.673 64.8865 32.2134 64.3558 31.0192 63.2942C30.223 62.6308 29.5596 61.7019 29.1615 60.6404H29.2942L35.6634 60.7731H41.2365C40.7057 61.8346 40.0422 62.7635 39.2461 63.4269ZM44.2884 58.3846C44.1557 58.3846 41.7672 58.2519 41.8999 58.2519L35.5307 58.1192L29.1615 58.2519L26.1095 58.3846H25.8442H25.7115C25.5788 58.3846 25.4461 58.2519 25.3134 58.2519C25.048 58.1192 24.9153 57.8538 24.7826 57.5885C24.6499 57.0577 24.7826 56.5269 25.3134 56.2615C25.4461 56.2615 25.7115 56.2615 25.8442 56.3942L29.0288 56.5269L35.398 56.6596L41.7672 56.5269C41.8999 56.5269 44.2884 56.3942 44.1557 56.3942H44.2884C44.6865 56.3942 44.6865 56.3942 44.8192 56.2615C45.0846 56.5269 45.3499 56.7923 45.3499 57.0577C45.4826 57.7211 44.9519 58.3846 44.2884 58.3846ZM44.2884 51.4846C44.9519 51.6173 45.4826 52.1481 45.4826 52.6788C45.4826 53.3423 44.9519 53.8731 44.4211 53.8731H44.1557C44.023 53.8731 41.6346 53.7404 41.7672 53.7404L35.398 53.6077L29.0288 53.7404L25.8442 53.8731C25.3134 53.8731 24.7826 53.475 24.6499 52.9442C24.5172 52.4135 24.7826 51.75 25.4461 51.4846C25.7115 51.3519 26.2422 51.3519 26.773 51.3519L28.3653 51.2192C29.0288 51.2192 29.6922 51.0865 30.3557 51.0865L36.7249 50.8211C38.1845 50.9538 39.5115 51.0865 40.9711 51.2192L44.2884 51.4846ZM43.3596 49.8923L41.1038 50.025C39.6442 50.1577 38.3172 50.2904 36.8576 50.4231L30.4884 50.1577C29.8249 50.1577 29.1615 50.025 28.498 50.025L27.4365 49.8923C26.6403 44.85 24.5172 39.9404 21.3326 35.9596C17.8826 32.1115 16.1576 27.3346 16.2903 22.425C16.423 17.5154 18.5461 12.7384 21.9961 9.28844C25.4461 5.97114 30.223 3.98075 35.1326 3.98075C40.0422 3.98075 44.8192 5.97114 48.4019 9.28844C51.9846 12.7384 54.1076 17.5154 54.2403 22.425C54.373 24.9461 53.9749 27.4673 53.0461 29.7231C52.2499 32.1115 50.7903 34.2346 49.198 36.225C46.0134 40.2058 44.023 44.9827 43.3596 49.8923Z" fill="#008029"/>
<path d="M23.721 12.4731C22.6595 13.6673 21.7306 15.127 21.3325 16.7193C20.8018 18.3116 20.6691 19.9039 21.0672 21.4962C21.7306 20.0366 22.3941 18.8424 23.1902 17.6481C24.6498 15.3923 26.3748 13.402 28.6306 11.5443C29.6922 10.6154 30.8864 9.95197 32.2133 9.02312C29.5595 8.49235 26.1095 9.68658 23.721 12.4731Z" fill="#008029"/>
</g>
<defs>
<clipPath id="clip0_241_28556">
<rect width="65" height="66" fill="white" transform="translate(0.5)"/>
</clipPath>
</defs>
</svg>
