<?xml version="1.0" encoding="UTF-8"?>
<svg width="205px" height="66px" viewBox="0 0 205 66" version="1.1" xmlns="http://www.w3.org/2000/svg" xmlns:xlink="http://www.w3.org/1999/xlink">
    <title>Logo / Color</title>
    <g id="Desktop" stroke="none" stroke-width="1" fill="none" fill-rule="evenodd">
        <g id="004---Company-/-Bio" transform="translate(-40.000000, -31.000000)" fill="#FFFFFF" fill-rule="nonzero">
            <g id="Logo-/-Color" transform="translate(40.927775, 31.000000)">
                <g id="g10" transform="translate(101.946283, 32.841771) scale(-1, 1) rotate(-180.000000) translate(-101.946283, -32.841771) translate(0.000000, 0.000000)">
                    <polyline id="path12" points="54.8833306 58.3907474 65.322752 58.3907474 77.2762108 32.2971102 89.2296696 58.3907474 99.9933151 58.3907474 99.9933151 21.9683327 92.9073823 21.9683327 92.9073823 50.9976828 79.7099738 21.9683327 74.6800383 21.9683327 61.6985809 50.5083475 61.6985809 21.9683327 54.8833306 21.9683327 54.8833306 58.3907474"></polyline>
                    <path d="M125.576085,29.3070467 L125.576085,32.7322144 C122.169054,33.0582585 119.464609,33.1671392 117.89584,33.1671392 C113.785035,33.1671392 112.486949,32.4056919 112.486949,30.0681951 C112.486949,27.5677061 114.001581,26.8067968 117.084387,26.8067968 C120.113652,26.8067968 122.547415,27.5132956 125.576085,29.3070467 Z M105.834108,29.7421509 C105.834108,35.8306204 109.079919,38.0051251 117.733431,38.0051251 C119.734696,38.0051251 122.3856,37.8962444 125.576085,37.5702002 L125.576085,37.7876627 C125.576085,42.0279707 123.845501,43.277976 118.05825,43.277976 C114.434078,43.277976 111.729633,42.7888799 108.700963,41.7560978 L108.213735,47.4097022 C111.946179,48.4424843 114.921307,48.8229389 118.923839,48.8229389 C129.037846,48.8229389 132.283657,46.2680395 132.283657,38.0051251 L132.283657,21.9683327 L125.576085,21.9683327 L125.576085,24.6865233 C121.627689,22.2402055 119.248063,21.3161846 115.299668,21.3161846 C108.700963,21.3161846 105.834108,23.9797255 105.834108,29.7421509" id="path14"></path>
                    <path d="M141.911031,30.4487095 L141.911031,43.1677201 L135.802529,43.1677201 L135.802529,48.6041013 L142.127577,48.6041013 L142.127577,56.6466235 L148.618008,56.6466235 L148.618008,48.6041013 L156.189979,48.6041013 L156.189979,43.1677201 L148.618008,43.1677201 L148.618008,31.210097 C148.618008,28.3286751 149.321188,27.6221165 152.025633,27.6221165 L157.052594,27.6221165 L157.052594,21.9683327 L150.240913,21.9683327 C144.237116,21.9683327 141.911031,24.1430167 141.911031,30.4487095" id="path16"></path>
                    <path d="M165.597833,30.4487095 L165.597833,43.1677201 L159.489332,43.1677201 L159.489332,48.6041013 L165.814379,48.6041013 L165.814379,56.6466235 L172.305405,56.6466235 L172.305405,48.6041013 L179.877376,48.6041013 L179.877376,43.1677201 L172.305405,43.1677201 L172.305405,31.210097 C172.305405,28.3286751 173.00799,27.6221165 175.712435,27.6221165 L180.739396,27.6221165 L180.739396,21.9683327 L173.927715,21.9683327 C167.923918,21.9683327 165.597833,24.1430167 165.597833,30.4487095" id="path18"></path>
                    <path d="M186.552824,48.6041013 L193.33,48.6041013 L193.33,45.1282302 C196.876238,47.7932062 199.294534,48.8229389 202.432071,48.8229389 L203.892567,48.8229389 L203.892567,42.7344694 L202.648022,42.7344694 C199.132124,42.7344694 196.29204,42.0749071 193.33,40.0513167 L193.33,21.9683327 L186.552824,21.9683327 L186.552824,48.6041013" id="path20"></path>
                    <path d="M36.7371319,19.623601 C34.3047371,19.623601 32.3326812,21.6053372 32.3326812,24.0502798 C32.3326812,26.4952223 34.3047371,28.4769585 36.7371319,28.4769585 C39.169705,28.4769585 41.141523,26.4952223 41.141523,24.0502798 C41.141523,21.6053372 39.169705,19.623601 36.7371319,19.623601 Z M6.4477586,2.0532112 C4.01512593,2.0532112 2.04336742,4.03524636 2.04336742,6.48018889 C2.04336742,8.92507162 4.01512593,10.9068676 6.4477586,10.9068676 C8.88039128,10.9068676 10.8521498,8.92507162 10.8521498,6.48018889 C10.8521498,4.03524636 8.88039128,2.0532112 6.4477586,2.0532112 L6.4477586,2.0532112 Z M6.4477586,37.2107325 C4.01512593,37.2107325 2.04336742,39.1927677 2.04336742,41.6377102 C2.04336742,44.0823538 4.01512593,46.0643889 6.4477586,46.0643889 C8.88039128,46.0643889 10.8521498,44.0823538 10.8521498,41.6377102 C10.8521498,39.1927677 8.88039128,37.2107325 6.4477586,37.2107325 L6.4477586,37.2107325 Z M36.7371319,63.6302944 C39.169705,63.6302944 41.141523,61.6481994 41.141523,59.2033167 C41.141523,56.758434 39.169705,54.7766978 36.7371319,54.7766978 C34.3047371,54.7766978 32.3326812,56.758434 32.3326812,59.2033167 C32.3326812,61.6481994 34.3047371,63.6302944 36.7371319,63.6302944 Z M36.7371319,30.5306839 C34.7188516,30.5306839 32.9187832,29.5973354 31.7364063,28.1382983 L12.4604798,39.3121119 C12.7375279,40.0347544 12.8955351,40.8169495 12.8955351,41.6377102 C12.8955351,42.4488444 12.7472843,43.2251799 12.4763044,43.9408268 C12.4755905,43.9426804 12.4746981,43.9445937 12.4739842,43.9464472 L31.7354544,55.1165538 C32.9175934,53.6567394 34.7183757,52.7229723 36.7371319,52.7229723 C40.2981834,52.7229723 43.1848488,55.6241854 43.1848488,59.2033167 C43.1848488,62.782448 40.2981834,65.6835415 36.7371319,65.6835415 C33.1762588,65.6835415 30.2893554,62.782448 30.2893554,59.2033167 C30.2893554,58.3919433 30.4443286,57.6182386 30.7155465,56.902532 L11.4449742,45.7271039 C10.2628353,47.1847659 8.464849,48.1178154 6.4477586,48.1178154 C2.88694501,48.1178154 -4.7348916e-15,45.2165426 -4.7348916e-15,41.6377102 C-4.7348916e-15,38.0585789 2.88694501,35.1573061 6.4477586,35.1573061 C8.4571747,35.1573061 10.2514726,36.0817456 11.434028,37.5300202 L30.7160224,26.3527386 C30.4445665,25.6361351 30.2893554,24.8623707 30.2893554,24.0502798 C30.2893554,23.2414774 30.4434362,22.4702242 30.7129884,21.7564907 L11.443368,10.5716753 C10.261229,12.0282012 8.46395664,12.9602941 6.4477586,12.9602941 C2.88694501,12.9602941 -4.7348916e-15,10.0592604 -4.7348916e-15,6.48018889 C-4.7348916e-15,2.90105755 2.88694501,0 6.4477586,0 C10.0088102,0 12.8955351,2.90105755 12.8955351,6.48018889 C12.8955351,7.2915623 12.7472843,8.0676586 12.4763044,8.78330549 C12.4753525,8.78635487 12.4739842,8.78868675 12.4730324,8.79125779 L31.7310521,19.969496 C32.9131911,18.5062137 34.7155797,17.5698756 36.7371319,17.5698756 C40.2981834,17.5698756 43.1848488,20.4714474 43.1848488,24.0502798 C43.1848488,27.6293513 40.2981834,30.5306839 36.7371319,30.5306839" id="path22"></path>
                    <polyline id="path24" points="54.8833306 12.3016885 56.3259792 12.3016885 56.3259792 4.8867998 54.8833306 4.8867998 54.8833306 12.3016885"></polyline>
                    <path d="M58.0428797,10.2213557 L59.066714,10.2213557 L59.1993782,9.71193043 C60.003097,10.1879322 60.5867004,10.3540335 61.3130814,10.3540335 C62.6783921,10.3540335 63.2953103,9.7561165 63.2953103,8.41755965 L63.2953103,4.8867998 L61.9299996,4.8867998 L61.9299996,8.05205297 C61.9299996,8.82701323 61.6432546,9.11449174 60.894862,9.11449174 C60.366585,9.11449174 59.9477707,8.9706329 59.4081904,8.66067271 L59.4081904,4.8867998 L58.0428797,4.8867998 L58.0428797,10.2213557" id="path26"></path>
                    <path d="M65.1990114,9.11449174 L64.1305592,9.11449174 L64.1305592,10.2213557 L65.1990114,10.2213557 L65.1990114,10.9736549 C65.1990114,12.2575622 65.6719622,12.7001404 66.8944953,12.7001404 L68.1610515,12.7001404 L68.1610515,11.5493893 L67.2579833,11.5493893 C66.7070997,11.5493893 66.5643221,11.4052912 66.5643221,10.8185553 L66.5643221,10.2213557 L68.1057252,10.2213557 L68.1057252,9.11449174 L66.5643221,9.11449174 L66.5643221,4.8867998 L65.1990114,4.8867998 L65.1990114,9.11449174" id="path28"></path>
                    <path d="M69.0522216,10.2213557 L70.0760559,10.2213557 L70.2194284,9.68974771 C71.0118441,10.1879322 71.5841442,10.3540335 72.2230739,10.3540335 L72.5205273,10.3540335 L72.5205273,9.11449174 L72.267097,9.11449174 C71.5514244,9.11449174 71.0118441,8.99257645 70.4175323,8.68285543 L70.4175323,4.8867998 L69.0522216,4.8867998 L69.0522216,10.2213557" id="path30"></path>
                    <path d="M77.2541993,6.38087487 L77.2541993,7.07810592 C76.5605381,7.14441492 76.0096546,7.16659764 75.6907847,7.16659764 C74.853751,7.16659764 74.5896125,7.01173713 74.5896125,6.53573538 C74.5896125,6.02702757 74.8977741,5.87222685 75.5254006,5.87222685 C76.1423188,5.87222685 76.637876,6.01560736 77.2541993,6.38087487 Z M73.2350101,6.46942638 C73.2350101,7.70890838 73.8959514,8.15130719 75.6574699,8.15130719 C76.0649809,8.15130719 76.6045612,8.12978218 77.2541993,8.06275568 L77.2541993,8.10759946 C77.2541993,8.9706329 76.9020145,9.22522597 75.7235045,9.22522597 C74.9858203,9.22522597 74.4355317,9.12549341 73.8186135,8.91550495 L73.719859,10.0657777 C74.4795548,10.2764837 75.0851697,10.3540335 75.8995969,10.3540335 C77.9591636,10.3540335 78.61951,9.83384571 78.61951,8.15130719 L78.61951,4.8867998 L77.6069789,4.8867998 L77.4523032,5.44035138 C76.6485843,4.94240608 75.9662264,4.75388284 75.1625076,4.75388284 C73.8186135,4.75388284 73.2350101,5.29625338 73.2350101,6.46942638" id="path32"></path>
                    <path d="M79.7855269,5.07508387 L79.8848763,6.23749437 C80.6665836,5.98266213 81.2942101,5.86074685 82.2740213,5.86074685 C83.2871473,5.86074685 83.5405775,5.98266213 83.5405775,6.4138201 C83.5405775,6.7791474 83.3751935,6.87905934 82.5274516,6.96761085 L81.7457443,7.04516069 C80.3691303,7.17801785 79.82955,7.54334516 79.82955,8.63872916 C79.82955,9.92239723 80.5011996,10.3540335 82.4501137,10.3540335 C83.2098095,10.3540335 83.8707507,10.2876647 84.6084349,10.0879605 L84.5203887,8.95963122 C83.7386814,9.15885718 83.1877979,9.24740869 82.3840791,9.24740869 C81.4262794,9.24740869 81.1728492,9.12549341 81.1728492,8.71651816 C81.1728492,8.37271587 81.3489415,8.28416436 82.2079867,8.19567264 L82.989694,8.11860113 C84.3877246,7.97450313 84.8832818,7.57629039 84.8832818,6.46942638 C84.8832818,5.19652082 84.2342387,4.75388284 82.2299982,4.75388284 C81.2388838,4.75388284 80.4684797,4.85385457 79.7855269,5.07508387" id="path34"></path>
                    <path d="M86.4347983,6.61280688 L86.4347983,9.11449174 L85.3669409,9.11449174 L85.3669409,10.2213557 L86.4794163,10.2213557 L86.6114855,11.6818279 L87.8007039,11.6818279 L87.8007039,10.2213557 L89.3421069,10.2213557 L89.3421069,9.11449174 L87.8007039,9.11449174 L87.8007039,6.7683849 C87.8007039,6.18188808 87.9434815,6.03779008 88.494365,6.03779008 L89.3421069,6.03779008 L89.3421069,4.8867998 L88.130877,4.8867998 C86.9083439,4.8867998 86.4347983,5.32985632 86.4347983,6.61280688" id="path36"></path>
                    <path d="M90.4206726,10.2213557 L91.4445069,10.2213557 L91.5872845,9.68974771 C92.380295,10.1879322 92.9525952,10.3540335 93.5915249,10.3540335 L93.8889782,10.3540335 L93.8889782,9.11449174 L93.635548,9.11449174 C92.9198754,9.11449174 92.380295,8.99257645 91.7853884,8.68285543 L91.7853884,4.8867998 L90.4206726,4.8867998 L90.4206726,10.2213557" id="path38"></path>
                    <path d="M94.724822,6.69059589 L94.724822,10.2213557 L96.0901327,10.2213557 L96.0901327,7.0558634 C96.0901327,6.28114231 96.3875861,5.99342463 97.1472818,5.99342463 C97.6868621,5.99342463 98.0943732,6.13752264 98.6446618,6.43648115 L98.6446618,10.2213557 L100.010567,10.2213557 L100.010567,4.8867998 L98.9861382,4.8867998 L98.8540689,5.40692782 C98.0503501,4.92022336 97.4667467,4.75388284 96.7290625,4.75388284 C95.3524485,4.75388284 94.724822,5.35179987 94.724822,6.69059589" id="path40"></path>
                    <path d="M101.352677,7.55404787 C101.352677,9.56783243 102.167104,10.3540335 104.215367,10.3540335 C104.875714,10.3540335 105.382574,10.2764837 105.998897,10.0994405 L105.910851,8.91550495 C105.404586,9.07036546 104.920332,9.14743696 104.358145,9.14743696 C103.124904,9.14743696 102.739999,8.77140694 102.739999,7.56481038 C102.739999,6.34798943 103.124904,5.96047941 104.358145,5.96047941 C104.920332,5.96047941 105.404586,6.03779008 105.910851,6.19265059 L105.998897,5.00871508 C105.382574,4.83167185 104.875714,4.75388284 104.215367,4.75388284 C102.167104,4.75388284 101.352677,5.5288431 101.352677,7.55404787" id="path42"></path>
                    <path d="M107.732455,6.61280688 L107.732455,9.11449174 L106.664598,9.11449174 L106.664598,10.2213557 L107.776478,10.2213557 L107.908548,11.6818279 L109.097766,11.6818279 L109.097766,10.2213557 L110.639764,10.2213557 L110.639764,9.11449174 L109.097766,9.11449174 L109.097766,6.7683849 C109.097766,6.18188808 109.241139,6.03779008 109.791427,6.03779008 L110.639764,6.03779008 L110.639764,4.8867998 L109.428534,4.8867998 C108.206001,4.8867998 107.732455,5.32985632 107.732455,6.61280688" id="path44"></path>
                    <path d="M111.706432,6.69059589 L111.706432,10.2213557 L113.071742,10.2213557 L113.071742,7.0558634 C113.071742,6.28114231 113.369196,5.99342463 114.128891,5.99342463 C114.668472,5.99342463 115.075983,6.13752264 115.626866,6.43648115 L115.626866,10.2213557 L116.992177,10.2213557 L116.992177,4.8867998 L115.967748,4.8867998 L115.835678,5.40692782 C115.03196,4.92022336 114.448356,4.75388284 113.710672,4.75388284 C112.334058,4.75388284 111.706432,5.35179987 111.706432,6.69059589" id="path46"></path>
                    <path d="M118.587122,10.2213557 L119.610956,10.2213557 L119.754328,9.68974771 C120.546744,10.1879322 121.119639,10.3540335 121.757974,10.3540335 L122.055427,10.3540335 L122.055427,9.11449174 L121.801997,9.11449174 C121.086324,9.11449174 120.546744,8.99257645 119.952432,8.68285543 L119.952432,4.8867998 L118.587122,4.8867998 L118.587122,10.2213557" id="path48"></path>
                    <path d="M127.031226,8.0849384 C126.955078,8.99257645 126.602299,9.24740869 125.611779,9.24740869 C124.58735,9.24740869 124.202445,8.9706329 124.113804,8.0849384 L127.031226,8.0849384 Z M122.70447,7.54334516 C122.70447,9.59001515 123.497481,10.3540335 125.600476,10.3540335 C127.593413,10.3540335 128.37512,9.65680248 128.37512,7.86376889 C128.37512,7.65378043 128.364412,7.35482192 128.3424,7.08880863 L124.113804,7.08880863 C124.223862,6.14828514 124.686104,5.88292957 125.95266,5.88292957 C126.734368,5.88292957 127.284656,5.98266213 127.978318,6.23749437 L128.066959,5.08578658 C127.306668,4.84243435 126.734368,4.75388284 125.886626,4.75388284 C123.552212,4.75388284 122.70447,5.44035138 122.70447,7.54334516" id="path50"></path>
                    <polyline id="path52" points="134.132032 11.0068393 131.423422 11.0068393 131.423422 12.3016885 138.28329 12.3016885 138.28329 11.0068393 135.57468 11.0068393 135.57468 4.8867998 134.132032 4.8867998 134.132032 11.0068393"></polyline>
                    <path d="M142.102591,8.0849384 C142.026443,8.99257645 141.673663,9.24740869 140.683143,9.24740869 C139.658714,9.24740869 139.27381,8.9706329 139.185169,8.0849384 L142.102591,8.0849384 Z M137.775835,7.54334516 C137.775835,9.59001515 138.568845,10.3540335 140.67184,10.3540335 C142.664777,10.3540335 143.446485,9.65680248 143.446485,7.86376889 C143.446485,7.65378043 143.435776,7.35482192 143.413765,7.08880863 L139.185169,7.08880863 C139.295226,6.14828514 139.757469,5.88292957 141.024025,5.88292957 C141.805732,5.88292957 142.356021,5.98266213 143.049682,6.23749437 L143.138323,5.08578658 C142.378032,4.84243435 141.805732,4.75388284 140.95799,4.75388284 C138.623577,4.75388284 137.775835,5.44035138 137.775835,7.54334516" id="path54"></path>
                    <path d="M144.513152,7.55404787 C144.513152,9.56783243 145.327579,10.3540335 147.376438,10.3540335 C148.036784,10.3540335 148.543645,10.2764837 149.159968,10.0994405 L149.071327,8.91550495 C148.565656,9.07036546 148.080807,9.14743696 147.519215,9.14743696 C146.285974,9.14743696 145.900474,8.77140694 145.900474,7.56481038 C145.900474,6.34798943 146.285974,5.96047941 147.519215,5.96047941 C148.080807,5.96047941 148.565656,6.03779008 149.071327,6.19265059 L149.159968,5.00871508 C148.543645,4.83167185 148.036784,4.75388284 147.376438,4.75388284 C145.327579,4.75388284 144.513152,5.5288431 144.513152,7.55404787" id="path56"></path>
                    <path d="M150.271253,12.7001404 L151.636564,12.7001404 L151.636564,9.83384571 C152.340934,10.2098757 152.881109,10.3540335 153.541455,10.3540335 C154.906766,10.3540335 155.523089,9.7561165 155.523089,8.41755965 L155.523089,4.8867998 L154.157778,4.8867998 L154.157778,8.05205297 C154.157778,8.82701323 153.871628,9.11449174 153.123236,9.11449174 C152.594364,9.11449174 152.176144,8.9706329 151.636564,8.66067271 L151.636564,4.8867998 L150.271253,4.8867998 L150.271253,12.7001404" id="path58"></path>
                    <path d="M157.030582,10.2213557 L158.054417,10.2213557 L158.187081,9.71193043 C158.990205,10.1879322 159.574403,10.3540335 160.300784,10.3540335 C161.666095,10.3540335 162.282418,9.7561165 162.282418,8.41755965 L162.282418,4.8867998 L160.917107,4.8867998 L160.917107,8.05205297 C160.917107,8.82701323 160.630957,9.11449174 159.882565,9.11449174 C159.354288,9.11449174 158.935473,8.9706329 158.395893,8.66067271 L158.395893,4.8867998 L157.030582,4.8867998 L157.030582,10.2213557" id="path60"></path>
                    <path d="M168.062531,7.55404787 C168.062531,8.78216945 167.68774,9.15885718 166.498521,9.15885718 C165.309303,9.15885718 164.924398,8.78216945 164.924398,7.55404787 C164.924398,6.33674859 165.309303,5.94929836 166.498521,5.94929836 C167.68774,5.94929836 168.062531,6.33674859 168.062531,7.55404787 Z M163.537076,7.55404787 C163.537076,9.60125599 164.3402,10.3540335 166.498521,10.3540335 C168.656843,10.3540335 169.449853,9.60125599 169.449853,7.55404787 C169.449853,5.51766205 168.656843,4.75388284 166.498521,4.75388284 C164.3402,4.75388284 163.537076,5.51766205 163.537076,7.55404787" id="path62"></path>
                    <polyline id="path64" points="170.736636 12.7001404 172.101947 12.7001404 172.101947 4.8867998 170.736636 4.8867998 170.736636 12.7001404"></polyline>
                    <path d="M177.915969,7.55404787 C177.915969,8.78216945 177.541178,9.15885718 176.35196,9.15885718 C175.162741,9.15885718 174.777242,8.78216945 174.777242,7.55404787 C174.777242,6.33674859 175.162741,5.94929836 176.35196,5.94929836 C177.541178,5.94929836 177.915969,6.33674859 177.915969,7.55404787 Z M173.38992,7.55404787 C173.38992,9.60125599 174.193639,10.3540335 176.35196,10.3540335 C178.510281,10.3540335 179.303292,9.60125599 179.303292,7.55404787 C179.303292,5.51766205 178.510281,4.75388284 176.35196,4.75388284 C174.193639,4.75388284 173.38992,5.51766205 173.38992,7.55404787" id="path66"></path>
                    <path d="M184.609264,6.4253001 L184.609264,8.69361794 C184.047077,9.02623918 183.606846,9.15885718 183.045254,9.15885718 C182.054735,9.15885718 181.723967,8.75992694 181.723967,7.55404787 C181.723967,6.36969382 182.054735,5.96047941 183.045254,5.96047941 C183.606846,5.96047941 184.047077,6.09339636 184.609264,6.4253001 L184.609264,6.4253001 Z M180.821493,2.77310331 L180.920248,3.94627631 C181.603201,3.72504701 182.153489,3.62513507 182.869162,3.62513507 C184.168438,3.62513507 184.609264,3.94627631 184.609264,4.8867998 L184.609264,5.27430982 C183.959031,4.90874335 183.375427,4.76536285 182.671058,4.76536285 C181.008294,4.76536285 180.336644,5.57326834 180.336644,7.56481038 C180.336644,9.54636721 181.008294,10.3540335 182.671058,10.3540335 C183.452765,10.3540335 184.080392,10.176512 184.818076,9.73411315 L184.950145,10.2213557 L185.974574,10.2213557 L185.974574,4.89804064 C185.974574,3.13837082 185.159552,2.48556501 182.968511,2.48556501 C182.175501,2.48556501 181.569886,2.56335401 180.821493,2.77310331" id="path68"></path>
                    <path d="M187.569519,10.2213557 L188.93483,10.2213557 L188.93483,4.8867998 L187.569519,4.8867998 L187.569519,10.2213557 Z M187.525496,12.4455473 L188.990156,12.4455473 L188.990156,11.1396965 L187.525496,11.1396965 L187.525496,12.4455473" id="path70"></path>
                    <path d="M194.604885,8.0849384 C194.528737,8.99257645 194.175957,9.24740869 193.185438,9.24740869 C192.161008,9.24740869 191.776104,8.9706329 191.687463,8.0849384 L194.604885,8.0849384 Z M190.278129,7.54334516 C190.278129,9.59001515 191.071139,10.3540335 193.174134,10.3540335 C195.167072,10.3540335 195.948779,9.65680248 195.948779,7.86376889 C195.948779,7.65378043 195.938071,7.35482192 195.916059,7.08880863 L191.687463,7.08880863 C191.79752,6.14828514 192.259763,5.88292957 193.526319,5.88292957 C194.308026,5.88292957 194.858315,5.98266213 195.551976,6.23749437 L195.640617,5.08578658 C194.880327,4.84243435 194.308026,4.75388284 193.460284,4.75388284 C191.125871,4.75388284 190.278129,5.44035138 190.278129,7.54334516" id="path72"></path>
                    <path d="M196.971423,5.07508387 L197.070773,6.23749437 C197.85248,5.98266213 198.480107,5.86074685 199.460513,5.86074685 C200.473044,5.86074685 200.726474,5.98266213 200.726474,6.4138201 C200.726474,6.7791474 200.56109,6.87905934 199.713348,6.96761085 L198.931641,7.04516069 C197.555027,7.17801785 197.015446,7.54334516 197.015446,8.63872916 C197.015446,9.92239723 197.687096,10.3540335 199.63601,10.3540335 C200.396301,10.3540335 201.056647,10.2876647 201.794331,10.0879605 L201.706285,8.95963122 C200.924578,9.15885718 200.374289,9.24740869 199.569975,9.24740869 C198.612176,9.24740869 198.358746,9.12549341 198.358746,8.71651816 C198.358746,8.37271587 198.535433,8.28416436 199.393883,8.19567264 L200.176185,8.11860113 C201.574216,7.97450313 202.069773,7.57629039 202.069773,6.46942638 C202.069773,5.19652082 201.420135,4.75388284 199.415895,4.75388284 C198.42478,4.75388284 197.653781,4.85385457 196.971423,5.07508387" id="path74"></path>
                </g>
            </g>
        </g>
    </g>
</svg>