<svg width="243" height="74" viewBox="0 0 243 74" fill="none" xmlns="http://www.w3.org/2000/svg">
<path d="M37.8938 0.154711C37.8938 0.154711 34.4092 -1.0991 32.3501 3.60269C31.5581 5.32667 32.1917 10.0285 35.2012 10.3419C36.1515 10.4986 39.3194 10.8121 40.1113 5.79685C41.2201 0.781616 37.8938 0.154711 37.8938 0.154711Z" fill="#1A1564"/>
<path d="M56.1089 1.40851C53.0995 1.09506 51.1988 3.28922 51.0404 5.16994C50.882 6.89393 51.8323 10.3419 55.4753 10.4986C59.1184 10.6554 60.3855 7.67756 60.3855 6.42375C60.3855 4.69976 59.1184 1.72196 56.1089 1.40851Z" fill="#1A1564"/>
<path d="M57.2175 51.8745C42.3286 53.1283 29.974 49.6803 19.5201 41.5305C12.5509 36.2018 7.48234 28.5223 6.84877 22.0965C6.84877 22.0965 28.5485 39.3364 51.8321 38.5527C75.1158 37.7691 98.3994 26.6415 101.567 25.231C99.1914 28.0521 79.5508 49.9937 57.2175 51.8745ZM113.288 13.79C107.586 17.7081 103.943 22.7234 92.8557 27.5819C92.6973 27.2684 90.0046 17.3947 88.2623 14.4169C86.3616 11.4391 83.3522 7.36422 77.0165 9.55839C74.3238 10.6555 69.0969 12.5362 70.364 25.0743C70.9976 31.8135 71.7895 33.8509 71.9479 34.1644C69.4137 34.6346 66.4042 34.948 63.2364 35.2615C63.2364 34.6346 63.5531 28.8357 63.2364 25.231C62.9196 21.4696 60.2269 14.2602 54.8416 13.4765C48.8227 12.5362 46.4468 17.238 44.3877 21.3129C42.3286 25.5445 41.3783 34.0077 41.3783 34.0077V34.1644C39.9527 33.8509 38.5272 33.6942 36.9433 33.224C37.2601 31.9702 38.052 27.8953 38.844 22.4099C39.6359 15.6707 36.3097 13.1631 34.409 12.2227C31.2412 10.6555 27.9149 11.4391 24.2719 14.7303C20.6289 18.0216 17.7778 25.8579 17.7778 25.8579C12.8677 23.0368 8.2743 19.5889 4.15611 15.0438C4.15611 15.0438 1.14666 34.7913 19.8369 47.4861C16.0355 47.4861 10.8086 47.9563 8.11591 51.7177C9.06626 51.8745 9.06626 52.1879 9.06626 52.1879C9.06626 52.1879 16.1939 47.0159 26.331 50.9341C36.4681 54.8523 40.5863 62.0617 51.5153 61.7482C62.4444 61.278 68.6217 55.1657 77.8084 51.2476C89.6878 46.0756 97.2907 49.2101 97.2907 49.2101C97.2907 49.2101 92.0637 45.1352 86.8368 45.4487C88.4207 44.0381 105.685 32.127 113.288 13.79Z" fill="#1A1564"/>
<path d="M0.988281 61.278C0.988281 61.278 8.27432 56.8897 18.7282 57.5166C29.1821 58.1435 32.6667 60.4944 33.7754 61.1213C34.7258 61.7482 44.0709 68.0172 52.1489 68.3307C59.9101 68.4874 62.6028 65.9798 64.3451 64.5692C65.929 63.3154 76.3829 55.1657 86.9952 54.382C95.2316 53.7551 103.785 57.5166 103.785 57.5166L97.7659 57.6733C97.7659 57.6733 94.4396 56.4195 90.0046 56.106C85.7281 55.7926 80.0259 57.0464 72.1063 63.3154C64.1867 69.5845 60.3853 73.8161 53.0993 73.8161C45.9716 73.9728 40.1111 70.8383 29.4989 63.6289C18.8866 56.4195 11.7589 58.6136 7.48236 61.4347C3.04738 61.4347 0.988281 61.278 0.988281 61.278Z" fill="#1A1564"/>
<path d="M78.9173 4.38634C78.9173 6.89396 76.6998 9.24485 74.0071 9.24485C71.4729 9.24485 69.2554 7.20741 69.2554 4.69979C69.2554 2.19217 71.4729 0.154732 74.0071 0.154732C76.6998 0.154732 78.9173 1.87872 78.9173 4.38634Z" fill="#1A1564"/>
<path d="M141.799 62.0617C139.74 62.8453 134.196 66.2933 129.603 65.353C127.86 65.0395 124.376 61.5915 123.901 59.8675C122.792 55.6359 126.593 46.7025 130.711 44.1949C131.662 43.568 132.77 43.0978 134.354 43.2546C136.414 43.4113 138.631 46.5458 139.423 49.2102C140.373 52.3447 137.364 51.561 137.047 50.9341C136.572 49.9938 135.463 48.8967 134.83 48.1131C132.929 48.2698 130.395 51.561 129.761 52.9716C128.177 56.4196 127.544 59.2406 128.336 60.4944C129.286 62.0617 139.581 58.457 142.274 57.3599C144.333 56.733 143.858 61.2781 141.799 62.0617Z" fill="#1A1564"/>
<path d="M154.787 64.5693C154.787 65.0395 154.787 65.0395 154.629 65.3529C153.837 66.6067 152.411 65.9798 151.303 64.726C150.035 65.8231 148.452 66.9202 146.392 67.0769C144.967 67.2337 142.433 65.5097 141.799 63.6289C141.166 61.7482 141.007 60.9646 141.166 58.3003C141.482 55.1657 144.333 53.285 147.184 54.5388C148.293 55.009 149.244 55.3225 150.352 55.7926C150.511 54.6956 150.669 53.5985 150.827 52.3447C150.986 50.464 147.184 50.6207 146.234 51.561C145.125 52.5014 143.541 53.1283 143.066 52.5014C142.591 51.7178 143.541 50.3072 144.492 49.2101C145.759 47.9563 147.66 47.1727 149.719 47.3294C151.303 47.3294 155.262 50.7774 155.104 52.5014C154.629 58.3003 154.47 60.9646 154.787 64.5693ZM145.917 58.7704C144.809 59.5541 143.541 61.4348 144.175 62.6886C144.809 63.7857 147.976 61.5915 149.719 60.0242C149.719 59.8675 149.719 59.5541 149.719 59.3973C148.61 58.9272 146.709 58.3003 145.917 58.7704Z" fill="#1A1564"/>
<path d="M170.309 61.7482C170.309 64.5693 171.26 66.1366 170.468 66.45C169.201 67.0769 166.666 64.5693 166.35 61.4348C166.191 60.3377 166.191 56.733 166.666 53.7552C164.924 54.3821 162.707 58.7704 161.439 64.726C161.281 65.1962 161.439 65.6664 161.439 65.9798C161.915 69.1144 157.638 65.9798 157.321 62.8453C156.846 59.3973 156.688 54.2254 157.163 50.3072C157.638 45.9189 161.915 51.0908 161.598 52.3447C161.281 53.285 161.123 54.5388 161.123 56.2628C162.39 52.6581 163.815 49.9938 164.607 49.3669C165.558 48.4265 166.033 47.7996 168.25 49.0534C169.993 49.9938 171.735 52.0312 171.418 53.4417C170.468 56.2628 170.309 59.8675 170.309 61.7482Z" fill="#1A1564"/>
<path d="M186.307 64.5693C186.307 65.0395 186.307 65.0395 186.148 65.3529C185.356 66.6067 183.931 65.9798 182.822 64.726C181.555 65.8231 179.971 66.9202 177.912 67.0769C176.486 67.2337 173.952 65.5097 173.319 63.6289C172.685 61.7482 172.527 60.9646 172.685 58.3003C173.002 55.1657 175.853 53.285 178.704 54.5388C179.813 55.009 180.763 55.3225 181.872 55.7926C182.03 54.6956 182.189 53.5985 182.347 52.3447C182.505 50.464 178.704 50.6207 177.754 51.561C176.645 52.5014 175.061 53.1283 174.586 52.5014C174.111 51.7178 175.061 50.3072 176.011 49.2101C177.278 47.9563 179.179 47.1727 181.238 47.3294C182.822 47.3294 186.782 50.7774 186.624 52.5014C186.148 58.3003 185.99 60.9646 186.307 64.5693ZM177.278 58.7704C176.17 59.5541 174.903 61.2781 175.536 62.5319C176.17 63.629 179.338 61.4348 181.08 59.8675C181.08 59.7108 181.08 59.3973 181.08 59.2406C179.971 58.9272 178.07 58.3003 177.278 58.7704Z" fill="#1A1564"/>
<path d="M201.988 57.5166C201.988 60.0243 201.988 62.2184 202.621 65.0395C203.096 67.2337 200.404 65.9798 198.978 63.7857C197.553 65.3529 195.969 66.9202 193.593 67.0769C192.009 67.2337 189.316 65.5097 188.524 63.4722C187.732 61.4348 187.574 58.6137 188.524 54.3821C189 52.0312 191.534 49.5236 194.702 50.3072C195.652 50.6207 196.761 50.9341 197.869 51.4043C198.186 47.9563 198.661 44.5084 198.82 41.6873C199.137 37.7691 203.572 43.4113 203.255 44.6651C202.463 48.1131 201.988 53.9119 201.988 57.5166ZM197.553 56.1061C196.286 55.6359 195.018 55.1657 194.068 55.7926C191.534 57.3599 190.742 60.4944 191.375 62.3751C191.534 63.1588 192.801 63.002 194.226 62.3751C195.018 62.0617 196.602 60.0243 197.553 57.6734C197.553 57.0465 197.553 56.5763 197.553 56.1061Z" fill="#1A1564"/>
<path d="M217.986 64.5693C217.986 65.0395 217.985 65.0395 217.827 65.3529C217.035 66.6067 215.61 65.9798 214.501 64.726C213.234 65.8231 211.65 66.9202 209.591 67.0769C208.165 67.2337 205.631 65.5097 204.997 63.6289C204.364 61.7482 204.205 60.9646 204.364 58.3003C204.681 55.1657 207.532 53.285 210.383 54.5388C211.491 55.009 212.442 55.3225 213.551 55.7926C213.709 54.6956 213.867 53.5985 214.026 52.3447C214.184 50.464 210.383 50.6207 209.432 51.561C208.324 52.5014 206.74 53.1283 206.264 52.5014C205.789 51.7178 206.74 50.3072 207.69 49.2101C208.957 47.9563 210.858 47.1727 212.917 47.3294C214.501 47.3294 218.461 50.7774 218.302 52.5014C217.985 58.3003 217.827 60.9646 217.986 64.5693ZM209.116 58.7704C208.007 59.5541 206.74 61.2781 207.373 62.5319C208.007 63.629 211.175 61.4348 212.917 59.8675C212.917 59.7108 212.917 59.3973 212.917 59.2406C211.808 58.9272 209.907 58.3003 209.116 58.7704Z" fill="#1A1564"/>
<path d="M166.666 23.5069C168.092 22.7233 169.359 21.6262 170.151 20.3724C170.943 19.1186 171.418 17.5513 171.418 15.9841C171.418 14.4168 170.943 13.0063 170.151 11.7525C169.359 10.4987 168.092 9.40159 166.666 8.61796C165.241 7.83433 163.657 7.36415 161.915 7.36415C160.964 7.20742 159.856 7.20742 158.588 7.20742V31.9702H161.915V10.6554C163.023 10.6554 163.974 10.9688 164.924 11.439C165.874 11.9092 166.666 12.5361 167.142 13.4765C167.775 14.2601 167.934 15.2005 167.934 16.1408C167.934 17.0812 167.617 17.8648 167.142 18.8052C166.666 19.5888 165.874 20.2157 165.082 20.6859C164.29 21.1561 163.182 21.4695 162.231 21.6262C163.182 24.4473 164.449 26.7982 166.033 28.6789C167.617 30.5596 169.834 31.9702 172.685 33.0672V29.9327C171.577 29.4625 170.309 28.5222 169.201 27.4251C168.409 26.1713 167.458 24.9175 166.666 23.5069Z" fill="#1A1564"/>
<path d="M238.26 9.4017C238.418 9.24498 238.576 8.93152 238.576 8.61807C238.576 8.30462 238.418 7.99117 238.26 7.83444C238.101 7.67771 237.784 7.52099 237.309 7.52099H235.884V11.2824H236.517V9.71515H237.151L238.26 11.2824H238.893L237.784 9.71515C237.784 9.71515 237.943 9.55843 238.26 9.4017ZM236.834 9.24498H236.201V8.14789H236.993C237.151 8.14789 237.151 8.14789 237.309 8.14789C237.468 8.14789 237.468 8.14789 237.626 8.14789C237.784 8.14789 237.784 8.30462 237.784 8.30462C237.784 8.30462 237.943 8.46135 237.943 8.61807C237.943 8.7748 237.943 8.93152 237.784 8.93152C237.784 9.08825 237.626 9.08825 237.626 9.08825C237.468 9.08825 237.468 9.08825 237.309 9.08825C237.151 9.24498 236.993 9.24498 236.834 9.24498Z" fill="#1A1564"/>
<path d="M127.86 7.20742H124.534V31.9702H135.463V28.6789H127.86V7.20742Z" fill="#1A1564"/>
<path d="M140.848 7.83436C140.373 7.36418 139.74 7.05073 139.106 7.05073C138.472 7.05073 137.839 7.36418 137.364 7.83436C136.889 8.30454 136.572 8.93144 136.572 9.55835C136.572 10.1853 136.73 10.6554 137.047 11.1256C137.364 11.5958 137.839 11.9092 138.472 12.066L136.572 15.5139H138.789L140.69 12.3794C141.324 11.5958 141.64 10.6554 141.64 9.71507C141.482 8.93144 141.324 8.30454 140.848 7.83436Z" fill="#1A1564"/>
<path d="M145.601 18.335C144.175 20.5291 143.225 22.88 142.274 25.0742C141.482 27.4251 140.849 29.6193 140.69 31.8134H144.017C144.333 29.6193 144.809 27.4251 145.759 25.3877H153.52V31.8134H156.846V7.20742C154.471 8.61796 152.411 10.3419 150.511 12.2227C148.61 14.1034 147.026 16.1408 145.601 18.335ZM153.52 22.2531H147.185C148.768 19.1186 150.986 16.1408 153.52 13.6332V22.2531Z" fill="#1A1564"/>
<path d="M186.307 6.11041C183.773 6.11041 181.556 6.73732 179.496 7.8344C177.437 9.08821 175.695 10.6555 174.586 12.6929C173.319 14.7304 172.686 16.9245 172.686 19.4321C172.686 21.783 173.319 24.1339 174.586 26.1714C175.853 28.2088 177.437 29.7761 179.496 31.0299C181.556 32.2837 183.931 32.7539 186.307 32.7539C187.891 32.7539 189.475 32.4404 191.059 31.8135C192.643 31.1866 193.91 30.403 195.177 29.4626V24.4474C194.544 25.3877 193.752 26.3281 192.96 27.1117C192.009 27.8953 191.059 28.5223 189.95 28.8357C188.842 29.3059 187.574 29.4626 186.307 29.4626C184.407 29.4626 182.664 28.9924 181.08 28.0521C179.496 27.1117 178.229 25.8579 177.279 24.2906C176.329 22.7234 175.853 20.9994 175.853 19.2754C175.853 17.3947 176.329 15.8274 177.279 14.2602C178.229 12.6929 179.496 11.4391 181.08 10.4987C182.664 9.55839 184.407 9.08821 186.307 9.08821C187.258 9.08821 188.208 9.24494 189 9.40166C189.95 9.71511 190.742 10.0286 191.534 10.4987C192.326 10.9689 192.96 11.4391 193.593 12.066C194.227 12.6929 194.702 13.3198 195.177 14.1034V9.55839C193.91 8.4613 192.643 7.67767 191.059 7.05077C189.475 6.42386 187.891 6.11041 186.307 6.11041Z" fill="#1A1564"/>
<path d="M219.411 12.8496C218.461 14.5736 217.827 16.2976 217.669 18.1783H213.075V7.2075H209.749V18.1783H200.404V7.2075H197.078V31.9702H200.404V21.4696H209.749V31.9702H213.075V21.4696H217.669C217.827 23.1936 218.461 24.7608 219.411 26.3281C220.678 28.3655 222.262 29.9328 224.321 31.1866C226.38 32.4404 228.756 32.9106 231.132 32.9106V29.6193C229.39 29.6193 227.806 29.3059 226.38 28.5223C224.955 27.7386 223.688 26.7983 222.737 25.5445C221.787 24.2906 221.153 22.8801 220.836 21.3129H231.132V18.0216H220.836C221.153 16.4543 221.787 15.0438 222.737 13.79C223.688 12.5362 224.955 11.4391 226.38 10.8122C227.806 10.0286 229.39 9.71511 231.132 9.71511V6.11041C228.598 6.11041 226.38 6.73732 224.321 7.8344C222.262 9.08821 220.678 10.8122 219.411 12.8496Z" fill="#1A1564"/>
<path d="M240.002 8.30454C239.844 7.99109 239.527 7.52091 239.369 7.36418C239.052 7.05073 238.735 6.894 238.26 6.73728C237.785 6.42382 237.468 6.2671 236.993 6.2671C236.518 6.2671 236.042 6.42382 235.726 6.58055C235.409 6.73728 234.934 6.894 234.617 7.20745C234.3 7.52091 234.142 7.83436 233.983 8.14781C233.825 8.46126 233.667 8.93144 233.667 9.40162C233.667 9.8718 233.825 10.342 233.983 10.6554C234.142 10.9689 234.458 11.4391 234.617 11.5958C234.934 11.9092 235.25 12.066 235.726 12.2227C236.201 12.3794 236.518 12.5361 236.993 12.5361C237.468 12.5361 237.785 12.3794 238.26 12.2227C238.577 12.066 239.052 11.9092 239.369 11.5958C239.685 11.2823 239.844 10.9689 240.002 10.6554C240.161 10.342 240.319 9.8718 240.319 9.40162C240.161 9.08817 240.161 8.61799 240.002 8.30454ZM239.369 10.4987C239.21 10.8122 239.052 11.1256 238.735 11.2823C238.577 11.5958 238.26 11.7525 237.943 11.9092C237.626 12.066 237.31 12.066 236.834 12.066C236.518 12.066 236.042 12.066 235.726 11.9092C235.409 11.7525 235.092 11.5958 234.934 11.2823C234.617 10.9689 234.458 10.8122 234.3 10.4987C234.142 10.1853 234.142 9.8718 234.142 9.40162C234.142 9.08817 234.142 8.61799 234.3 8.30454C234.458 7.99109 234.617 7.67763 234.934 7.52091C235.25 7.20745 235.409 7.05073 235.726 6.894C236.042 6.73728 236.359 6.73728 236.834 6.73728C237.151 6.73728 237.626 6.73728 237.943 6.894C238.26 7.05073 238.577 7.20745 238.735 7.52091C239.052 7.83436 239.21 7.99109 239.369 8.30454C239.527 8.61799 239.527 8.93144 239.527 9.40162C239.685 9.8718 239.527 10.1853 239.369 10.4987Z" fill="#1A1564"/>
</svg>
