<svg width="66" height="66" viewBox="0 0 66 66" fill="none" xmlns="http://www.w3.org/2000/svg">
<path d="M31.0114 38.2155C30.9959 38.0283 30.3878 38.081 30.2145 38.1C26.7899 39.0237 26.9609 44.4893 32.7077 44.9844C32.3259 47.2576 32.0516 53.0687 32.0516 56.1144C32.0516 63.1205 32.4873 63.2671 33.0248 63.2671C33.5623 63.2671 33.998 63.1205 33.998 56.1144C33.998 53.081 33.7259 47.3039 33.3465 45.0115C37.2964 45.0171 38.6839 42.3443 37.1075 39.6823C36.6097 38.9059 36.3584 39.0144 36.1219 39.1244C35.387 39.4647 36.0963 40.6351 35.9174 41.7774C35.6285 43.9225 28.0324 43.4557 29.4365 39.8482C29.9065 38.6301 31.0396 38.4361 31.0114 38.2155Z" fill="#334DB5"/>
<path d="M12.5742 38.3972C9.42443 40.4228 10.7324 44.1574 13.4779 44.1669C14.15 44.1833 14.8079 44.0435 15.4903 43.8916C15.4202 44.8059 15.4072 46.3085 15.388 48.0044C15.3665 50.7642 15.2986 54.0308 15.2641 56.1068C15.2036 59.8954 15.152 61.8306 15.2697 62.8308C15.3736 63.8302 15.6131 63.8909 15.881 63.9123C16.1489 63.9336 16.3943 63.9148 16.6426 62.9292C16.8769 61.9437 17.1488 59.9871 17.2103 56.1342C17.2455 54.0233 17.0945 50.7008 16.7624 47.9288C16.5575 46.1659 16.2924 44.6305 16.0586 43.7504C20.178 42.6172 19.7482 39.3261 18.114 38.6583C20.1636 38.2463 22.4577 37.1335 23.3449 35.2653C23.3642 35.2239 23.3794 35.1882 23.3933 35.1547C35.858 42.3241 52.3564 36.6742 48.7628 17.9798C48.2935 15.6817 47.9067 14.5403 47.6715 13.9513C47.4267 13.3663 47.2919 13.3489 47.1607 13.3781C46.697 13.481 47.0019 15.0036 47.4039 18.2019C50.6859 46.8335 12.4806 37.471 16.1298 17.3189C18.0442 6.47951 29.6238 0.826113 39.9622 6.88488C40.051 6.93759 40.8373 7.42767 40.8859 7.36354C40.9592 7.26679 39.5675 6.07346 37.7465 5.19903C46.6414 1.73372 53.1679 3.3383 57.6875 7.36958C60.7635 10.1099 62.3269 14.5165 62.5411 18.6041C63.0195 26.5741 58.1843 33.0096 50.1307 34.6586C47.8579 35.203 45.2108 34.9548 44.7245 35.0188C44.3043 35.0544 44.2409 35.1741 44.21 35.3068C44.0634 35.9333 46.2311 36.283 46.8699 36.35C42.8598 38.3364 42.9745 43.0317 48.5575 43.0585C48.175 45.563 47.8999 51.9954 47.8999 55.3648C47.8999 63.1052 48.3356 63.267 48.873 63.267C49.4106 63.267 49.8463 63.1052 49.8463 55.3648C49.8463 51.9856 49.5696 45.5258 49.1853 43.0369C53.3425 42.7154 53.9974 39.0778 51.6821 36.7532C51.0108 36.1011 50.7904 36.256 50.5824 36.4171C49.5614 37.2065 52.8827 40.0416 49.8762 40.9254C49.2045 41.1282 48.1125 41.2049 47.0257 41.0675C46.0255 40.9313 45.47 40.4276 45.5794 39.4132C45.6804 38.2336 47.1227 37.0797 47.633 36.4109C56.9532 36.8074 65.2193 29.1735 64.4442 18.4825C64.1347 13.8418 62.2346 9.05318 58.7421 6.12886C51.9072 0.403444 41.3199 1.40253 37.5863 5.12118C33.3324 3.1373 27.8364 2.85198 23.449 5.00756C20.5322 1.5849 10.6131 2.15183 5.22479 9.03304C-2.34621 18.7992 2.40952 35.2678 12.5742 38.3972ZM17.096 41.1555C16.3255 41.764 13.9129 42.315 13.4702 42.3458C13.1166 42.3712 12.8604 42.3148 12.609 42.1329C11.3054 41.1798 12.7476 39.2408 12.9841 38.5181C14.3907 38.8944 15.8148 38.9767 17.1843 38.8119C17.0091 39.2954 17.287 39.5786 17.4084 39.8295C17.6306 40.2393 17.6084 40.7268 17.096 41.1555ZM22.5571 5.4752C12.5131 11.3018 10.1865 27.4372 23.2569 35.0732C23.2328 35.0972 23.2079 35.1223 23.1796 35.1528C18.0693 40.9292 6.22428 37.7568 3.7405 24.7418C1.08893 11.1667 12.4189 1.64379 22.5571 5.4752Z" fill="#334DB5"/>
</svg>
