<svg width="1097" height="216" viewBox="0 0 1097 216" fill="none" xmlns="http://www.w3.org/2000/svg">
<circle cx="303.035" cy="209.811" r="5.30125" fill="#1A1564"/>
<circle cx="387.466" cy="151.207" r="4.48568" fill="#FF0000"/>
<circle cx="993.829" cy="151.207" r="4.48568" fill="#FF0000"/>
<circle cx="627.635" cy="127.438" r="4.48568" fill="#FF0000"/>
<circle cx="192.932" cy="186.159" r="6.93241" fill="#008029"/>
<circle cx="342.636" cy="74.0629" r="2.49204" fill="#008029"/>
<circle cx="969" cy="74.0628" r="2.49204" fill="#008029"/>
<circle cx="182.735" cy="74.0628" r="2.49204" fill="#008029"/>
<circle cx="788.757" cy="129.522" r="2.49204" fill="#008029"/>
<circle cx="2.49204" cy="129.522" r="2.49204" fill="#008029"/>
<circle cx="478.838" cy="9.63227" r="2.49204" fill="#008029"/>
<circle cx="406.115" cy="113.89" r="3.98727" fill="#FF7800"/>
<circle cx="1032.48" cy="113.89" r="3.98727" fill="#FF7800"/>
<circle cx="246.214" cy="113.89" r="3.98727" fill="#FF7800"/>
<circle cx="696.461" cy="175.874" r="3.98727" fill="#FF7800"/>
<circle cx="465.154" cy="186.16" r="5.48249" fill="#FF7080"/>
<circle cx="1091.52" cy="186.16" r="5.48249" fill="#FF7080"/>
<circle cx="484.547" cy="95.2679" r="2.49204" fill="#FF0000"/>
<circle cx="849.11" cy="95.2679" r="2.49204" fill="#FF0000"/>
<circle cx="62.8446" cy="95.2679" r="2.49204" fill="#FF0000"/>
<path d="M527.539 150.675C527.591 151.014 527.609 151.358 527.698 151.693C527.735 151.83 527.787 151.958 527.833 152.089C528.022 152.647 528.219 153.207 528.527 153.716C528.753 154.087 529.012 154.44 529.244 154.808C529.496 155.209 529.811 155.56 530.158 155.876C530.807 156.466 531.487 157.017 532.28 157.413C532.955 157.75 533.651 158.033 534.401 158.163C534.523 158.184 534.641 158.23 534.758 158.272C535.182 158.424 535.617 158.526 536.067 158.571C536.316 158.595 536.563 158.612 536.813 158.621C537.308 158.64 537.791 158.547 538.278 158.503C538.753 158.46 539.2 158.308 539.663 158.222C539.671 158.22 539.68 158.22 539.687 158.216C540.05 158.094 540.393 157.933 540.725 157.727C540.539 157.66 540.371 157.77 540.152 157.757C540.308 157.65 540.464 157.643 540.6 157.587C540.739 157.534 540.881 157.492 541.008 157.449C541.037 157.371 540.954 157.378 540.958 157.306C541.061 157.197 541.166 157.055 541.326 156.979C541.538 156.875 541.713 156.723 541.89 156.576C542.205 156.31 542.512 156.032 542.817 155.755C543.18 155.427 543.472 155.036 543.793 154.671C544.07 154.355 544.291 153.997 544.536 153.657C544.79 153.304 544.962 152.919 545.16 152.54C545.352 152.177 545.561 151.823 545.712 151.439C545.955 150.817 546.141 150.186 546.206 149.517C546.244 149.116 546.243 148.715 546.269 148.314C546.293 147.946 546.162 147.587 546.059 147.232C546.046 147.193 546.024 147.156 546.017 147.117C545.922 146.551 545.619 146.076 545.331 145.599C545.107 145.226 544.795 144.911 544.517 144.576C544.241 144.246 543.935 143.943 543.598 143.675C543.288 143.43 542.982 143.179 542.638 142.974C542.398 142.83 542.174 142.662 541.93 142.519C541.578 142.313 541.224 142.125 540.837 141.99C540.572 141.897 540.329 141.748 540.071 141.637C539.468 141.378 538.844 141.178 538.215 140.993C537.662 140.829 537.096 140.763 536.521 140.723C536.106 140.694 535.69 140.678 535.275 140.682C534.583 140.689 533.917 140.839 533.286 141.102C532.774 141.316 532.312 141.627 531.862 141.952C531.406 142.28 531.061 142.707 530.705 143.131C530.402 143.49 530.146 143.884 529.836 144.24C529.713 144.38 529.64 144.562 529.538 144.721C529.196 145.26 528.967 145.85 528.723 146.432C528.704 146.477 528.685 146.524 528.66 146.565C528.364 147.056 528.194 147.594 528.049 148.143C527.959 148.468 527.794 148.772 527.721 149.099C527.605 149.614 527.455 150.126 527.539 150.675ZM534.371 141.563C534.374 141.637 534.315 141.653 534.253 141.66C534.122 141.675 533.991 141.688 533.861 141.708C533.682 141.736 533.505 141.788 533.326 141.796C533.223 141.802 533.135 141.812 533.057 141.89C533.029 141.762 533.027 141.758 533.118 141.724C533.458 141.594 533.812 141.518 534.168 141.446C534.192 141.44 534.217 141.439 534.241 141.44C534.318 141.447 534.367 141.489 534.371 141.563ZM535.263 141.924C534.823 141.947 534.383 141.976 533.945 142.019C534.378 141.912 534.812 141.815 535.263 141.924ZM536.044 140.868C535.536 140.858 535.031 140.915 534.474 140.943C534.854 140.791 535.774 140.751 536.044 140.868ZM537.974 141.124C537.663 141.076 537.376 141.06 537.106 140.962C537.383 140.937 537.832 141.024 537.974 141.124ZM539.141 141.793C539.128 141.79 539.121 141.772 539.112 141.762C539.116 141.743 539.127 141.734 539.146 141.739C539.16 141.743 539.181 141.753 539.183 141.762C539.188 141.793 539.163 141.8 539.141 141.793ZM539.682 141.969C539.671 141.976 539.661 141.985 539.65 141.992C539.638 141.985 539.617 141.98 539.614 141.969C539.607 141.938 539.629 141.931 539.654 141.938C539.666 141.942 539.673 141.959 539.682 141.969ZM541.142 143.195C541.056 143.191 540.986 143.15 540.914 143.112C540.761 143.031 540.607 142.948 540.449 142.875C540.027 142.68 539.584 142.536 539.156 142.358C538.11 141.921 537.017 141.701 535.883 141.67C535.51 141.66 535.135 141.663 534.76 141.658C534.562 141.656 534.546 141.641 534.478 141.399C534.762 141.414 535.04 141.264 535.307 141.463C535.329 141.48 535.373 141.484 535.401 141.473C535.503 141.437 535.611 141.465 535.722 141.454C535.673 141.349 535.561 141.409 535.487 141.328C535.557 141.328 535.608 141.321 535.655 141.33C535.92 141.375 536.19 141.371 536.453 141.397C536.645 141.416 536.838 141.459 537.038 141.461C537.211 141.463 537.381 141.523 537.551 141.558C537.721 141.593 537.872 141.636 537.928 141.821C537.931 141.831 537.958 141.833 537.988 141.845C538.129 141.698 538.315 141.715 538.485 141.788C538.65 141.857 538.862 141.895 538.867 142.132C538.941 142.163 539.03 142.203 539.069 142.163C539.207 142.023 539.326 142.121 539.451 142.168C539.948 142.355 540.427 142.581 540.902 142.816C540.914 142.823 540.919 142.84 540.93 142.854C540.919 142.899 540.847 142.875 540.842 142.948C540.895 143.067 541.091 143.053 541.142 143.195ZM536.496 142.159C536.37 142.159 536.242 142.17 536.123 142.113C536.248 142.125 536.379 142.089 536.496 142.159ZM537.096 142.241C536.899 142.218 536.698 142.232 536.509 142.161C536.71 142.146 536.908 142.156 537.096 142.241ZM541.497 143.247C541.455 143.191 541.369 143.172 541.352 143.032C541.634 143.215 541.907 143.343 542.139 143.54C542.051 143.537 542.004 143.625 541.923 143.641C541.778 143.597 541.664 143.497 541.532 143.43C541.497 143.413 541.475 143.373 541.447 143.343C541.334 143.321 541.236 143.273 541.15 143.2C541.266 143.214 541.382 143.231 541.497 143.247ZM545.983 149.026C545.969 149.334 545.927 149.643 545.812 149.979C545.783 149.837 545.794 149.735 545.808 149.633C545.819 149.561 545.84 149.484 545.829 149.414C545.771 149.045 545.805 148.676 545.79 148.307C545.787 148.209 545.771 148.112 545.766 148.014C545.736 147.533 545.591 147.079 545.424 146.633C545.258 146.183 545.03 145.758 544.725 145.392C544.394 144.994 544.075 144.583 543.679 144.239C543.262 143.876 542.869 143.487 542.393 143.195C542.176 143.062 541.951 142.935 541.771 142.751C541.997 142.808 542.168 142.954 542.359 143.067C543.013 143.451 543.565 143.96 544.131 144.451C544.434 144.714 544.666 145.036 544.921 145.335C545.277 145.751 545.545 146.225 545.724 146.741C545.985 147.485 546.02 148.254 545.983 149.026ZM542.305 143.686C542.191 143.686 542.184 143.601 542.149 143.544C542.219 143.565 542.303 143.572 542.305 143.686ZM542.647 143.843C542.666 143.962 542.638 144.019 542.563 144.035C542.477 144.052 542.361 143.952 542.307 143.81C542.421 143.848 542.522 143.909 542.647 143.843ZM542.889 144.133C542.827 144.13 542.782 144.116 542.784 144.024C542.866 144.023 542.899 144.05 542.889 144.133ZM543.281 144.446C543.083 144.52 543.05 144.323 542.906 144.265C543.122 144.218 543.139 144.227 543.281 144.446ZM543.577 144.669C543.59 144.674 543.595 144.693 543.604 144.705C543.593 144.714 543.581 144.733 543.57 144.731C543.558 144.73 543.539 144.714 543.535 144.702C543.528 144.671 543.549 144.659 543.577 144.669ZM543.877 145.015C543.828 144.928 543.704 144.985 543.609 144.857C543.77 144.857 543.851 144.885 543.877 145.015ZM544.261 145.392C544.303 145.428 544.355 145.445 544.32 145.535C544.278 145.497 544.226 145.48 544.261 145.392ZM544.48 145.653C544.49 145.658 544.501 145.675 544.501 145.687C544.501 145.704 544.487 145.71 544.468 145.704C544.457 145.696 544.438 145.685 544.436 145.677C544.434 145.646 544.457 145.64 544.48 145.653ZM544.839 146.639C544.715 146.558 544.639 146.442 544.595 146.304C544.723 146.38 544.792 146.503 544.839 146.639ZM544.997 146.918C544.911 146.847 544.85 146.762 544.842 146.646C544.939 146.714 544.984 146.807 544.997 146.918ZM545.592 151.171C545.713 150.779 545.836 150.387 545.957 149.993C545.941 150.413 545.789 150.796 545.592 151.171ZM545.014 151.102C545.056 150.85 545.048 150.596 545.033 150.342C545.028 150.243 545.028 150.146 545.033 150.048C545.053 149.557 545.091 149.059 545.021 148.574C544.914 147.841 544.715 147.129 544.284 146.503C544.255 146.461 544.217 146.417 544.247 146.349C545.354 147.604 545.976 149.77 545.016 151.503C544.981 151.355 544.993 151.227 545.014 151.102ZM544.702 151.813C544.72 151.731 544.736 151.648 544.753 151.567C544.79 151.657 544.781 151.74 544.702 151.813ZM544.615 152.245C544.643 152.295 544.625 152.336 544.573 152.39C544.557 152.317 544.569 152.276 544.615 152.245ZM544.424 149.227C544.462 149.287 544.487 149.327 544.452 149.393C544.394 149.336 544.396 149.293 544.424 149.227ZM544.171 148.11C544.226 148.1 544.222 148.148 544.213 148.212C544.171 148.166 544.149 148.116 544.171 148.11ZM544.015 149.851C544.056 149.96 544.094 150.069 544.07 150.229C543.989 150.082 543.991 149.968 544.015 149.851ZM543.758 150.67C543.823 151.33 543.777 151.98 543.597 152.656C543.523 152.35 543.63 150.926 543.758 150.67ZM541.334 154.684C541.38 154.492 541.527 154.376 541.655 154.262C541.946 154.003 542.105 153.662 542.286 153.335C542.347 153.223 542.398 153.105 542.524 152.967C542.535 153.175 542.463 153.308 542.433 153.448C542.377 153.712 542.302 153.971 542.161 154.21C542.009 154.466 541.687 154.658 541.334 154.684ZM542.337 145.222C542.482 145.246 542.482 145.246 542.51 145.366C542.437 145.328 542.377 145.297 542.337 145.222ZM538.327 142.676C538.408 142.652 538.461 142.655 538.504 142.678C538.732 142.799 538.986 142.858 539.221 142.963C539.826 143.236 540.441 143.485 541.03 143.795C541.452 144.016 541.843 144.28 542.202 144.583C542.692 144.996 543.155 145.44 543.584 145.919C543.891 146.259 544.142 146.636 544.359 147.032C544.643 147.549 544.783 148.116 544.878 148.693C544.892 148.779 544.904 148.871 544.872 148.968C544.802 148.907 544.8 148.831 544.799 148.76C544.795 148.619 544.758 148.484 544.725 148.349C544.536 147.549 544.133 146.85 543.612 146.226C543.169 145.696 542.72 145.165 542.202 144.698C542.028 144.543 541.844 144.405 541.646 144.282C540.924 143.836 540.152 143.494 539.375 143.153C539.183 143.069 538.997 142.937 538.762 142.979C538.709 142.987 538.671 142.948 538.638 142.908C538.559 142.814 538.455 142.744 538.327 142.676ZM538.114 142.21C538.052 142.192 537.993 142.172 537.97 142.078C538.666 142.291 539.323 142.54 539.966 142.821C540.733 143.157 541.482 143.525 542.181 143.993C542.976 144.527 543.693 145.143 544.31 145.869C544.418 145.998 544.545 146.123 544.588 146.296C544.466 146.247 544.399 146.142 544.326 146.045C544.138 145.803 543.938 145.573 543.714 145.364C543.048 144.742 542.33 144.183 541.532 143.737C541.056 143.471 540.574 143.212 540.073 142.993C539.428 142.711 538.794 142.408 538.114 142.21ZM537.53 151.951C537.541 151.75 537.553 151.552 537.567 151.317C537.797 151.484 537.863 151.799 537.74 151.982C537.704 152.036 537.658 152.062 537.595 152.043C537.549 152.03 537.527 151.994 537.53 151.951ZM535.655 142.445C535.308 142.431 534.961 142.389 534.613 142.401C534.536 142.403 534.45 142.422 534.35 142.35C534.593 142.277 534.816 142.313 535.031 142.31C535.263 142.305 535.496 142.284 535.724 142.343C535.944 142.4 536.172 142.287 536.388 142.362C536.586 142.429 536.796 142.452 536.994 142.519C537.213 142.593 537.46 142.503 537.67 142.626C537.86 142.735 538.091 142.733 538.277 142.854C537.868 142.782 537.455 142.782 537.052 142.683C536.594 142.571 536.13 142.465 535.655 142.445ZM534.967 150.24C535.11 150.262 535.24 150.319 535.391 150.316C535.427 150.447 535.524 150.516 535.634 150.582C535.927 150.76 536.149 151.016 536.375 151.266C536.409 151.303 536.461 151.351 536.379 151.444C535.995 150.938 535.491 150.58 534.967 150.24ZM532.713 142.999C533.419 142.74 534.15 142.659 534.905 142.745C534.543 142.797 534.176 142.834 533.812 142.872C533.446 142.91 533.085 142.994 532.722 143.058C532.718 143.037 532.717 143.018 532.713 142.999ZM532.512 142.929C532.526 142.996 532.61 143.055 532.503 143.114C532.44 143.148 532.387 143.124 532.368 143.056C532.338 142.948 532.424 142.948 532.512 142.929ZM531.912 142.664C531.942 142.592 531.981 142.573 532.065 142.59C532.014 142.642 531.986 142.676 531.912 142.664ZM531.418 156.561C531.53 156.557 531.602 156.606 531.623 156.713C531.555 156.663 531.487 156.611 531.418 156.561ZM527.801 150.674C528.059 151.782 528.434 152.848 528.951 153.863C528.327 152.884 527.926 151.826 527.801 150.674Z" fill="#1A1564"/>
<path d="M365.892 17.4842C366.153 17.5876 366.403 17.7181 366.676 17.7939C366.788 17.8245 366.9 17.8402 367.012 17.8624C367.485 17.9598 367.962 18.053 368.449 18.0448C368.806 18.0384 369.163 18.0004 369.52 17.9889C369.909 17.976 370.288 17.8975 370.657 17.7821C371.344 17.5657 372.018 17.3112 372.63 16.9109C373.151 16.571 373.643 16.1938 374.049 15.714C374.115 15.6354 374.197 15.5712 374.276 15.5049C374.561 15.2664 374.815 14.9996 375.036 14.6978C375.157 14.5308 375.273 14.3622 375.384 14.1875C375.605 13.8438 375.742 13.4609 375.916 13.0963C376.085 12.7404 376.165 12.3593 376.299 11.9942C376.301 11.9872 376.305 11.981 376.305 11.9746C376.371 11.6655 376.402 11.3543 376.396 11.0331C376.271 11.1372 376.278 11.3029 376.176 11.453C376.166 11.2975 376.227 11.1837 376.245 11.0634C376.266 10.9427 376.296 10.8244 376.319 10.7154C376.276 10.6632 376.246 10.7246 376.197 10.692C376.163 10.5731 376.108 10.4394 376.121 10.2943C376.137 10.1003 376.103 9.91244 376.074 9.72543C376.019 9.39035 375.951 9.05648 375.884 8.72457C375.805 8.32996 375.653 7.95936 375.53 7.57958C375.424 7.2511 375.264 6.94527 375.127 6.62917C374.985 6.3018 374.786 6.01939 374.602 5.72115C374.427 5.43311 374.265 5.13744 374.058 4.87071C373.722 4.43874 373.355 4.04433 372.911 3.72014C372.644 3.52602 372.361 3.36058 372.089 3.17518C371.84 3.00469 371.532 2.94876 371.239 2.87503C371.205 2.86723 371.17 2.86835 371.139 2.85681C370.701 2.6892 370.239 2.70732 369.782 2.7135C369.425 2.7179 369.072 2.80907 368.719 2.86794C368.371 2.92646 368.029 3.01892 367.699 3.14695C367.396 3.26561 367.091 3.37963 366.802 3.53851C366.6 3.6497 366.387 3.7396 366.184 3.85328C365.891 4.01839 365.61 4.19194 365.353 4.41145C365.176 4.56092 364.969 4.67245 364.783 4.80975C364.347 5.13089 363.944 5.49142 363.549 5.86216C363.201 6.18791 362.917 6.56334 362.648 6.95578C362.453 7.23906 362.268 7.5281 362.096 7.82504C361.81 8.32042 361.637 8.85673 361.557 9.4148C361.494 9.86797 361.519 10.3265 361.559 10.782C361.599 11.2427 361.755 11.6658 361.904 12.0949C362.03 12.4601 362.201 12.8059 362.321 13.1746C362.368 13.3201 362.465 13.4479 362.535 13.5863C362.771 14.0536 363.09 14.462 363.399 14.8774C363.422 14.9098 363.447 14.9429 363.466 14.9776C363.688 15.3924 363.995 15.7368 364.322 16.0688C364.513 16.2674 364.658 16.5111 364.858 16.6992C365.172 16.9956 365.469 17.3155 365.892 17.4842ZM362.338 8.83484C362.392 8.86324 362.378 8.9121 362.357 8.95861C362.313 9.05859 362.266 9.15714 362.226 9.25803C362.171 9.3967 362.133 9.54419 362.064 9.67496C362.024 9.75068 361.995 9.81733 362.016 9.90577C361.915 9.87255 361.911 9.87236 361.925 9.79315C361.977 9.49738 362.072 9.2139 362.17 8.93062C362.176 8.91101 362.185 8.89283 362.197 8.87609C362.234 8.82411 362.284 8.80644 362.338 8.83484ZM362.967 8.35036C362.798 8.67266 362.634 8.99783 362.481 9.32751C362.587 8.97499 362.701 8.62553 362.967 8.35036ZM362.55 7.35527C362.33 7.71254 362.158 8.09535 361.944 8.50334C361.996 8.16955 362.354 7.49843 362.55 7.35527ZM363.541 6.08883C363.376 6.2894 363.245 6.48742 363.062 6.63848C363.161 6.43142 363.41 6.14815 363.541 6.08883ZM364.502 5.53649C364.494 5.54378 364.479 5.54158 364.468 5.5435C364.456 5.53311 364.454 5.52203 364.466 5.51047C364.474 5.50194 364.491 5.49128 364.497 5.49363C364.522 5.50282 364.516 5.52315 364.502 5.53649ZM364.853 5.2245C364.854 5.23485 364.855 5.24593 364.856 5.25628C364.846 5.26214 364.833 5.27494 364.825 5.27312C364.8 5.26518 364.804 5.2461 364.82 5.23151C364.827 5.22422 364.842 5.22642 364.853 5.2245ZM366.329 4.69529C366.291 4.75494 366.232 4.78757 366.175 4.82289C366.054 4.89759 365.931 4.97283 365.814 5.05487C365.499 5.27417 365.212 5.52999 364.907 5.76021C364.159 6.3228 363.546 7.00958 363.048 7.80336C362.884 8.06463 362.729 8.33289 362.568 8.59756C362.484 8.73773 362.466 8.74249 362.267 8.69053C362.397 8.495 362.408 8.23425 362.66 8.12735C362.682 8.11833 362.702 8.08859 362.707 8.06433C362.724 7.97693 362.789 7.91112 362.828 7.82826C362.733 7.81934 362.729 7.92429 362.641 7.94289C362.67 7.89301 362.687 7.85398 362.712 7.82391C362.855 7.65431 362.966 7.46086 363.095 7.28461C363.189 7.15536 363.3 7.03617 363.385 6.89475C363.459 6.77203 363.573 6.67624 363.669 6.56966C363.765 6.46309 363.858 6.37382 364.012 6.4108C364.021 6.41262 364.033 6.39463 364.054 6.37847C364.01 6.2164 364.101 6.09142 364.223 6.00065C364.341 5.91219 364.457 5.77713 364.626 5.87182C364.679 5.83238 364.744 5.78532 364.732 5.74136C364.692 5.58467 364.811 5.54083 364.896 5.47171C365.237 5.1952 365.597 4.94893 365.962 4.70875C365.972 4.7029 365.986 4.70634 366.001 4.70461C366.028 4.73077 365.981 4.77183 366.03 4.80575C366.136 4.81792 366.208 4.67253 366.329 4.69529ZM363.65 7.5703C363.597 7.66007 363.551 7.7554 363.461 7.81648C363.521 7.73298 363.551 7.62438 363.65 7.5703ZM363.959 7.17764C363.861 7.30795 363.786 7.45709 363.657 7.56229C363.73 7.41243 363.821 7.27585 363.959 7.17764ZM366.515 4.46373C366.459 4.47066 366.409 4.52385 366.303 4.47813C366.551 4.35354 366.756 4.2122 366.992 4.12953C366.952 4.19043 366.995 4.26074 366.972 4.32456C366.88 4.41009 366.762 4.44946 366.659 4.51495C366.632 4.53271 366.595 4.53239 366.562 4.54012C366.499 4.61058 366.424 4.66029 366.337 4.69121C366.395 4.61466 366.456 4.53956 366.515 4.46373ZM372.471 3.67444C372.682 3.8123 372.883 3.97084 373.07 4.19252C372.959 4.15355 372.891 4.10368 372.825 4.05131C372.779 4.01365 372.734 3.96708 372.679 3.9451C372.396 3.83321 372.149 3.65576 371.884 3.5127C371.813 3.47424 371.738 3.44522 371.666 3.40801C371.315 3.22947 370.934 3.14399 370.55 3.07707C370.163 3.00872 369.768 2.99406 369.382 3.05869C368.963 3.12909 368.539 3.18501 368.13 3.32382C367.699 3.46969 367.26 3.58732 366.855 3.80504C366.67 3.90432 366.487 4.01147 366.28 4.06302C366.416 3.92588 366.591 3.86476 366.75 3.77556C367.295 3.46999 367.886 3.28919 368.47 3.09051C368.782 2.98402 369.106 2.95307 369.424 2.89533C369.867 2.81538 370.313 2.82148 370.752 2.90913C371.386 3.0323 371.942 3.32709 372.471 3.67444ZM367.164 4.07143C367.116 4.15248 367.053 4.12226 366.998 4.12348C367.042 4.08223 367.083 4.02526 367.164 4.07143ZM367.418 3.89368C367.51 3.92954 367.539 3.9732 367.518 4.03328C367.494 4.10156 367.375 4.14218 367.252 4.12192C367.327 4.05668 367.412 4.00951 367.418 3.89368ZM367.724 3.84232C367.696 3.88452 367.667 3.91119 367.603 3.87187C367.637 3.81255 367.67 3.80035 367.724 3.84232ZM368.109 3.69307C368.079 3.86486 367.926 3.80664 367.824 3.88446C367.882 3.7117 367.895 3.70282 368.109 3.69307ZM368.391 3.57504C368.4 3.56847 368.415 3.57263 368.427 3.57143C368.429 3.5825 368.437 3.59913 368.432 3.6059C368.425 3.61391 368.406 3.62115 368.396 3.61862C368.371 3.61067 368.372 3.59068 368.391 3.57504ZM368.76 3.50553C368.679 3.50452 368.667 3.61675 368.537 3.63091C368.604 3.51621 368.658 3.47035 368.76 3.50553ZM369.187 3.3891C369.23 3.37427 369.264 3.34405 369.313 3.40634C369.268 3.42046 369.234 3.45068 369.187 3.3891ZM369.463 3.34174C369.471 3.33641 369.487 3.33612 369.496 3.34115C369.508 3.34833 369.506 3.36046 369.494 3.37202C369.484 3.37591 369.468 3.38531 369.461 3.38297C369.439 3.37128 369.445 3.35292 369.463 3.34174ZM370.309 3.49639C370.199 3.55115 370.086 3.55663 369.97 3.53032C370.078 3.47091 370.193 3.4733 370.309 3.49639ZM370.571 3.49985C370.485 3.53149 370.4 3.53992 370.315 3.49677C370.403 3.45622 370.488 3.4626 370.571 3.49985ZM373.819 4.84413C373.593 4.595 373.368 4.34462 373.141 4.09478C373.431 4.28059 373.637 4.54857 373.819 4.84413ZM373.528 5.22685C373.367 5.09203 373.185 4.99264 373 4.897C372.928 4.85979 372.86 4.81955 372.793 4.77486C372.455 4.55709 372.12 4.32273 371.748 4.17071C371.187 3.94213 370.601 3.78825 369.98 3.83488C369.939 3.83759 369.891 3.84634 369.856 3.79712C371.205 3.53074 372.992 3.98838 373.811 5.39229C373.691 5.35544 373.606 5.29354 373.528 5.22685ZM373.897 5.74409C373.847 5.69785 373.796 5.65214 373.746 5.6059C373.824 5.61708 373.879 5.6578 373.897 5.74409ZM374.165 5.98605C374.212 5.98694 374.234 6.01665 374.25 6.07633C374.192 6.05738 374.168 6.0314 374.165 5.98605ZM371.958 4.86747C372.017 4.86519 372.055 4.86426 372.087 4.9165C372.022 4.93394 371.993 4.91473 371.958 4.86747ZM371.065 4.58288C371.081 4.53991 371.113 4.56252 371.155 4.59534C371.104 4.60587 371.059 4.60124 371.065 4.58288ZM372.226 5.41737C372.32 5.43395 372.413 5.45179 372.516 5.53606C372.379 5.53235 372.299 5.48368 372.226 5.41737ZM372.696 5.94122C373.188 6.16955 373.627 6.47212 374.028 6.88147C373.781 6.80667 372.822 6.13857 372.696 5.94122ZM374.507 9.33394C374.391 9.22177 374.371 9.06889 374.344 8.93045C374.284 8.6157 374.111 8.3607 373.956 8.09648C373.903 8.00614 373.841 7.92112 373.797 7.77387C373.947 7.85261 374.011 7.95905 374.097 8.03844C374.26 8.18827 374.411 8.34966 374.52 8.54856C374.637 8.76337 374.637 9.07254 374.507 9.33394ZM368.26 4.68773C368.338 4.5943 368.338 4.5943 368.434 4.62392C368.376 4.66048 368.329 4.68994 368.26 4.68773ZM364.783 6.48217C364.8 6.41476 364.824 6.37879 364.858 6.35696C365.039 6.24516 365.187 6.0888 365.36 5.96555C365.806 5.64891 366.24 5.31473 366.705 5.0244C367.038 4.81588 367.389 4.64776 367.753 4.51789C368.25 4.34049 368.757 4.19598 369.274 4.08952C369.643 4.01287 370.014 3.9912 370.384 4.00113C370.867 4.01397 371.326 4.14988 371.772 4.32253C371.839 4.34848 371.909 4.37783 371.964 4.44051C371.892 4.46524 371.837 4.43487 371.787 4.40666C371.685 4.35023 371.575 4.32038 371.466 4.28802C370.822 4.09002 370.161 4.08653 369.503 4.19747C368.943 4.29234 368.381 4.39096 367.834 4.56603C367.652 4.6248 367.477 4.69824 367.307 4.78812C366.69 5.11645 366.125 5.52405 365.559 5.93486C365.418 6.03681 365.248 6.11437 365.178 6.29869C365.162 6.33969 365.118 6.35059 365.076 6.35776C364.977 6.37507 364.884 6.41917 364.783 6.48217ZM364.364 6.44029C364.326 6.47675 364.287 6.51052 364.211 6.48793C364.653 6.08131 365.104 5.7172 365.573 5.37672C366.131 4.96999 366.705 4.59063 367.328 4.28785C368.039 3.94379 368.773 3.68962 369.544 3.55249C369.681 3.52908 369.821 3.49103 369.961 3.53171C369.876 3.59887 369.774 3.60243 369.674 3.61456C369.425 3.64738 369.179 3.69396 368.938 3.76662C368.22 3.98177 367.525 4.2609 366.876 4.64284C366.488 4.87134 366.103 5.10645 365.738 5.3718C365.269 5.71352 364.79 6.03914 364.364 6.44029ZM370.985 10.9049C370.848 10.8141 370.713 10.7227 370.553 10.615C370.767 10.5214 371.017 10.6048 371.095 10.7682C371.117 10.8167 371.116 10.8599 371.076 10.8969C371.049 10.9242 371.013 10.9254 370.985 10.9049ZM363.498 8.28733C363.343 8.52846 363.168 8.75809 363.03 9.01124C362.999 9.06682 362.976 9.13582 362.883 9.17672C362.934 8.97323 363.053 8.82997 363.141 8.67517C363.235 8.50843 363.318 8.33398 363.455 8.19632C363.588 8.06292 363.604 7.85413 363.747 7.73166C363.878 7.61879 363.982 7.47851 364.112 7.36564C364.257 7.24068 364.297 7.02751 364.472 6.9289C364.628 6.83951 364.724 6.67421 364.887 6.59233C364.665 6.85267 364.491 7.14693 364.252 7.39275C363.981 7.67147 363.712 7.95806 363.498 8.28733ZM368.703 12.0177C368.779 11.9248 368.873 11.8563 368.934 11.7476C369.042 11.776 369.131 11.7362 369.224 11.6849C369.472 11.5507 369.746 11.4987 370.017 11.4421C370.057 11.4335 370.113 11.4162 370.144 11.5136C369.626 11.5761 369.162 11.7865 368.703 12.0177ZM362.654 10.6114C362.768 10.0012 363.017 9.44747 363.395 8.946C363.28 9.22565 363.151 9.50133 363.025 9.77648C362.898 10.0529 362.807 10.3449 362.699 10.6296C362.683 10.6235 362.669 10.6168 362.654 10.6114ZM362.52 10.7254C362.573 10.7434 362.65 10.708 362.646 10.8085C362.644 10.8677 362.605 10.8951 362.55 10.8808C362.46 10.8567 362.496 10.7956 362.52 10.7254ZM362.082 11.0418C362.043 10.9905 362.046 10.9551 362.093 10.9025C362.109 10.9602 362.121 10.9945 362.082 11.0418ZM371.668 17.1701C371.712 17.0889 371.777 17.0579 371.861 17.0875C371.797 17.1153 371.732 17.1423 371.668 17.1701ZM366.001 17.2964C366.89 17.5737 367.799 17.7502 368.731 17.8041C367.78 17.8413 366.866 17.6871 366.001 17.2964Z" fill="#1A1564"/>
<path d="M291.604 142.616C291.556 142.71 291.551 142.806 291.59 142.909C291.835 143.557 292.06 144.217 292.305 144.862C292.582 145.589 292.976 146.273 293.56 146.822C293.811 147.058 294.004 147.347 294.281 147.564C294.688 147.881 294.999 148.312 295.457 148.577C295.616 148.669 295.738 148.825 295.879 148.953C295.931 149.001 295.984 149.088 296.041 149.09C296.528 149.121 296.821 149.507 297.193 149.735C297.866 150.152 298.598 150.414 299.328 150.679C300.33 151.045 301.323 151.452 302.38 151.659C302.659 151.715 302.921 151.845 303.219 151.784C303.279 151.772 303.355 151.823 303.42 151.85C303.501 151.881 303.577 151.946 303.658 151.948C304.221 151.967 304.777 152.098 305.335 152.098C306.041 152.098 306.748 152.037 307.451 151.977C307.781 151.948 308.11 151.878 308.429 151.792C309.281 151.561 310.095 151.231 310.836 150.74C311.271 150.453 311.748 150.248 312.17 149.933C312.375 149.779 312.554 149.593 312.766 149.444C313.012 149.271 313.253 149.081 313.506 148.914C313.835 148.7 314.145 148.471 314.41 148.175C314.572 147.995 314.746 147.816 314.992 147.735C315.08 147.706 315.183 147.624 315.219 147.54C315.395 147.135 315.789 146.962 316.082 146.682C316.171 146.598 316.225 146.507 316.254 146.389C316.323 146.126 316.45 145.946 316.762 145.962C317.006 145.974 317.015 145.772 317.029 145.594C317.258 145.288 317.337 144.917 317.452 144.566C317.528 144.33 317.602 144.106 317.743 143.892C317.934 143.603 317.986 143.234 318.129 142.929C318.368 142.423 318.334 141.913 318.337 141.392C318.337 141.368 318.315 141.342 318.303 141.315C318.158 141.294 318.198 141.47 318.041 141.535C318.132 141.007 317.903 140.521 318.05 139.996C317.876 139.864 317.817 139.656 317.745 139.449C317.547 138.872 317.335 138.301 317.127 137.725C317.118 137.699 317.11 137.67 317.096 137.644C316.97 137.381 316.693 137.188 316.614 136.948C316.524 136.666 316.414 136.42 316.254 136.175C316.042 135.85 315.875 135.496 315.667 135.164C315.286 134.562 314.813 134.027 314.422 133.437C314.105 132.956 313.68 132.594 313.286 132.197C313.236 132.147 313.189 132.086 313.131 132.048C312.444 131.595 311.841 131.027 311.137 130.598C310.865 130.432 310.595 130.266 310.285 130.175C309.811 130.035 309.4 129.756 308.961 129.544C308.606 129.373 308.236 129.286 307.862 129.18C307.463 129.067 307.067 128.92 306.662 128.838C306.046 128.713 305.428 128.54 304.789 128.665C304.684 128.684 304.586 128.675 304.496 128.622C304.178 128.434 303.83 128.443 303.484 128.453C302.852 128.472 302.22 128.523 301.588 128.511C301.005 128.499 300.495 128.749 299.946 128.86C299.782 128.894 299.631 129.004 299.445 128.939C299.386 128.918 299.302 128.944 299.235 128.971C298.56 129.228 297.873 129.476 297.289 129.91C296.709 130.338 296.125 130.764 295.616 131.285C295.442 131.463 295.275 131.638 295.218 131.896C295.197 131.99 295.13 132.079 295.065 132.156C294.669 132.618 294.502 133.175 294.326 133.75C294.092 134.506 293.861 135.284 293.324 135.905C293.188 136.064 293.093 136.237 293.085 136.454C293.081 136.56 293.042 136.654 292.949 136.714C292.873 136.765 292.821 136.837 292.804 136.924C292.716 137.386 292.458 137.762 292.193 138.135C292.145 138.202 292.131 138.296 292.107 138.38C291.988 138.799 291.826 139.199 291.664 139.606C291.38 140.316 291.339 141.072 291.592 141.816C291.683 142.083 291.738 142.346 291.604 142.616ZM317.614 142.967C317.642 142.856 317.611 142.748 317.731 142.697C317.786 142.849 317.786 142.849 317.614 142.967ZM317.127 138.674C317.714 139.772 317.91 141.705 317.507 142.413C317.361 142.136 317.378 141.845 317.373 141.559C317.366 141.169 317.456 140.762 317.337 140.391C317.201 139.972 317.134 139.548 317.068 139.12C317.046 138.977 316.984 138.835 317.127 138.674ZM316.955 138.306C316.862 138.25 316.836 138.188 316.927 138.106C317.02 138.164 317.044 138.226 316.955 138.306ZM316.767 145.594C316.862 145.471 316.941 145.481 317.022 145.596C316.946 145.604 316.87 145.674 316.767 145.594ZM315.546 136.088C315.767 136.322 315.922 136.594 315.992 136.909C315.837 136.637 315.572 136.425 315.546 136.088ZM315.224 135.609C315.348 135.611 315.395 135.667 315.367 135.794C315.235 135.797 315.202 135.729 315.224 135.609ZM314.818 136.7C315.135 136.818 315.173 137.034 315.195 137.263C315.064 137.111 314.887 136.989 314.818 136.7ZM313.902 135.529C314.024 135.45 314.105 135.464 314.145 135.525C314.334 135.816 314.51 136.117 314.692 136.413C314.663 136.43 314.634 136.449 314.606 136.466C314.374 136.163 314.145 135.855 313.902 135.529ZM313.737 133.269C314.093 133.437 314.136 133.49 314.164 133.777C313.95 133.659 313.835 133.471 313.737 133.269ZM312.797 134.205C313.1 134.263 313.449 134.627 313.53 135.012C313.091 134.737 312.859 134.475 312.797 134.205ZM311.903 133.485C312.122 133.452 312.187 133.531 312.191 133.709C312.032 133.719 311.955 133.654 311.903 133.485ZM311.218 132.252C311.252 132.226 311.29 132.183 311.34 132.156C311.388 132.13 311.445 132.118 311.593 132.065C311.509 132.339 311.652 132.426 311.803 132.525C312.036 132.679 312.296 132.811 312.423 133.112C311.929 132.972 311.216 132.469 311.218 132.252ZM310.731 130.996C311.092 130.974 311.087 130.984 311.306 131.118C311.621 131.311 311.848 131.641 312.239 131.718C312.299 131.73 312.342 131.817 312.394 131.865C312.533 131.992 312.673 132.115 312.812 132.243C313.143 132.556 313.554 132.797 313.725 133.254C313.403 133.093 313.131 132.864 312.869 132.616C312.482 132.25 312.108 131.872 311.614 131.631C311.309 131.482 311.051 131.232 310.731 130.996ZM310.14 130.524C310.29 130.555 310.443 130.577 310.541 130.769C310.328 130.76 310.219 130.663 310.14 130.524ZM309.04 130.42C309.231 130.659 309.479 130.774 309.701 130.928C309.906 131.073 309.985 131.2 309.897 131.407C309.849 131.518 309.803 131.684 309.632 131.624C309.474 131.569 309.565 131.434 309.579 131.325C309.584 131.287 309.563 131.246 309.546 131.188C309.338 131.22 309.202 131.077 309.042 130.991C308.682 130.793 308.682 130.757 309.04 130.42ZM308.021 130.201C308.148 130.343 308.329 130.406 308.506 130.533C308.146 130.569 308.052 130.509 308.021 130.201ZM307.726 129.435C307.821 129.426 307.854 129.481 307.85 129.563C307.85 129.577 307.802 129.606 307.788 129.602C307.714 129.57 307.673 129.52 307.726 129.435ZM307.194 129.898C307.196 129.881 307.232 129.854 307.249 129.857C307.291 129.859 307.32 129.888 307.318 129.936C307.299 129.951 307.277 129.98 307.258 129.977C307.215 129.975 307.184 129.943 307.194 129.898ZM304.536 129.496C305.068 129.536 305.536 129.679 306.013 129.758C306.34 129.811 306.671 129.946 306.917 130.211C306.993 130.295 307.034 130.389 306.936 130.476C306.848 130.553 306.738 130.55 306.678 130.439C306.566 130.24 306.378 130.138 306.18 130.134C305.696 130.122 305.288 129.799 304.794 129.823C304.636 129.833 304.496 129.729 304.536 129.496ZM295.325 132.777C295.469 132.476 295.619 132.272 295.786 132.067C296.346 131.386 297.107 130.952 297.759 130.389C297.802 130.353 297.857 130.326 297.911 130.312C298.229 130.228 298.51 130.042 298.839 129.992C299.159 129.941 299.445 129.813 299.703 129.618C299.758 129.577 299.832 129.544 299.899 129.536C300.357 129.484 300.803 129.387 301.242 129.24C301.361 129.199 301.499 129.216 301.535 129.421C301.249 129.532 300.96 129.626 300.676 129.703C300.218 129.828 299.887 130.17 299.448 130.341C298.947 130.538 298.451 130.774 297.961 131.02C297.055 131.48 296.172 131.959 295.469 132.717C295.457 132.734 295.423 132.739 295.325 132.777ZM293.834 138.224C293.794 138.13 293.78 138.058 293.913 137.966C293.927 138.087 293.97 138.166 293.834 138.224ZM292.625 144.337C292.933 144.489 293.004 144.819 293.193 145.062C293.395 145.324 293.572 145.611 293.775 145.873C293.97 146.124 294.19 146.355 294.39 146.603C294.588 146.849 294.896 147.007 294.96 147.354C293.954 146.528 293.178 145.522 292.625 144.337Z" fill="#FF7800"/>
<path d="M890.743 145.291C890.755 145.445 890.781 145.596 890.763 145.752C890.733 145.995 890.786 146.23 890.941 146.421C891.093 146.607 891.141 146.81 891.136 147.033C891.131 147.241 891.187 147.435 891.286 147.621C891.615 148.243 891.909 148.88 892.308 149.474C892.554 149.841 892.901 150.146 893.089 150.515C893.408 151.142 893.979 151.536 894.377 152.081C894.742 152.582 895.315 152.884 895.767 153.311C895.881 153.42 896.018 153.506 896.127 153.62C896.855 154.381 897.717 154.971 898.615 155.519C899.629 156.141 900.7 156.627 901.874 156.879C902.49 157.013 903.116 157.018 903.743 156.946C905.026 156.798 906.208 156.354 907.291 155.682C907.785 155.375 908.323 155.174 908.851 154.956C909.736 154.589 910.438 154.022 911.006 153.281C911.496 152.642 911.975 151.995 912.47 151.358C913.154 150.48 913.525 149.462 913.626 148.357C913.669 147.888 913.733 147.422 913.73 146.949C913.728 146.634 913.816 146.327 913.915 146.027C914.189 145.182 914.334 144.317 914.308 143.427C914.26 141.844 913.935 140.327 913.246 138.877C912.132 136.54 910.415 134.739 908.201 133.388C906.824 132.548 905.3 132.055 903.695 131.802C902.551 131.624 901.425 131.723 900.301 131.953C899.495 132.119 898.704 132.34 897.986 132.736C897.088 133.232 896.236 133.795 895.691 134.689C895.498 135.004 895.194 135.222 894.955 135.497C894.643 135.854 894.331 136.216 894.088 136.622C893.796 137.113 893.327 137.475 893.061 137.983C893.033 138.037 892.992 138.094 892.944 138.131C892.27 138.625 892.018 139.403 891.597 140.065C891.41 140.362 891.379 140.751 891.247 141.088C890.92 141.928 890.9 142.835 890.71 143.705C890.598 144.211 890.7 144.763 890.743 145.291ZM911.866 149.754C911.81 150.173 911.767 150.552 911.587 150.917C911.217 150.533 911.268 150.312 911.866 149.754ZM910.114 136.407C910.136 136.384 910.159 136.362 910.185 136.342C910.479 136.605 910.786 136.858 910.897 137.267C910.633 136.979 910.372 136.694 910.114 136.407ZM907.57 153.204C907.646 153.122 907.725 153.058 907.841 153.132C907.854 153.214 907.806 153.254 907.745 153.273C907.674 153.291 907.59 153.323 907.57 153.204ZM900.514 133.279C901.255 132.972 903.218 133.163 905.039 133.792C906.867 134.424 908.452 135.457 909.764 136.873C908.866 136.236 908.044 135.492 907.052 134.982C906.041 134.459 904.975 134.075 903.877 133.777C902.802 133.485 901.699 133.363 900.514 133.279ZM895.929 140.525C896.289 140.394 896.667 140.317 897.045 140.253C897.184 140.228 897.347 140.178 897.441 140.322C897.545 140.478 897.436 140.62 897.349 140.751C897.316 140.803 897.271 140.858 897.217 140.885C896.824 141.1 896.662 141.472 896.515 141.856C896.426 142.087 896.348 142.327 896.132 142.468C895.904 142.426 895.891 142.253 895.858 142.107C895.777 141.74 895.701 141.373 895.635 141.004C895.577 140.687 895.607 140.642 895.929 140.525Z" fill="#FF0000"/>
<path d="M104.478 135.291C104.49 135.445 104.516 135.596 104.498 135.752C104.467 135.995 104.521 136.23 104.675 136.421C104.828 136.607 104.876 136.81 104.871 137.033C104.866 137.241 104.921 137.435 105.02 137.621C105.35 138.243 105.644 138.88 106.042 139.474C106.288 139.841 106.636 140.146 106.824 140.515C107.143 141.142 107.714 141.536 108.112 142.081C108.477 142.582 109.05 142.884 109.502 143.311C109.616 143.42 109.753 143.506 109.862 143.62C110.59 144.381 111.452 144.971 112.35 145.519C113.364 146.141 114.434 146.627 115.609 146.879C116.225 147.013 116.851 147.018 117.478 146.946C118.761 146.798 119.943 146.354 121.026 145.682C121.52 145.375 122.058 145.174 122.585 144.956C123.471 144.589 124.173 144.022 124.741 143.281C125.231 142.642 125.71 141.995 126.204 141.358C126.889 140.48 127.26 139.462 127.361 138.357C127.404 137.888 127.467 137.422 127.465 136.949C127.462 136.634 127.551 136.327 127.65 136.027C127.924 135.182 128.069 134.317 128.043 133.427C127.995 131.844 127.67 130.327 126.981 128.877C125.867 126.54 124.15 124.739 121.936 123.388C120.559 122.548 119.035 122.055 117.43 121.802C116.286 121.624 115.16 121.723 114.036 121.953C113.23 122.119 112.438 122.34 111.721 122.736C110.823 123.232 109.971 123.795 109.426 124.689C109.233 125.004 108.929 125.222 108.69 125.497C108.378 125.854 108.066 126.216 107.823 126.622C107.531 127.113 107.062 127.475 106.796 127.983C106.768 128.037 106.727 128.094 106.679 128.131C106.004 128.625 105.753 129.403 105.332 130.065C105.145 130.362 105.114 130.751 104.982 131.088C104.655 131.928 104.635 132.835 104.445 133.705C104.333 134.211 104.435 134.763 104.478 135.291ZM125.601 139.754C125.545 140.173 125.502 140.552 125.322 140.917C124.952 140.533 125.002 140.312 125.601 139.754ZM123.848 126.407C123.871 126.384 123.894 126.362 123.919 126.342C124.214 126.605 124.521 126.858 124.632 127.267C124.368 126.979 124.107 126.694 123.848 126.407ZM121.305 143.204C121.381 143.122 121.459 143.058 121.576 143.132C121.589 143.214 121.541 143.254 121.48 143.273C121.409 143.291 121.325 143.323 121.305 143.204ZM114.249 123.279C114.99 122.972 116.953 123.163 118.774 123.792C120.602 124.424 122.187 125.457 123.498 126.873C122.601 126.236 121.779 125.492 120.787 124.982C119.775 124.459 118.71 124.075 117.612 123.777C116.537 123.485 115.434 123.363 114.249 123.279ZM109.664 130.525C110.024 130.394 110.402 130.317 110.78 130.253C110.919 130.228 111.082 130.178 111.176 130.322C111.279 130.478 111.17 130.62 111.084 130.751C111.051 130.803 111.006 130.858 110.952 130.885C110.559 131.1 110.397 131.472 110.25 131.856C110.161 132.087 110.082 132.327 109.867 132.468C109.639 132.426 109.626 132.253 109.593 132.107C109.512 131.74 109.436 131.373 109.37 131.004C109.311 130.687 109.342 130.642 109.664 130.525Z" fill="#FF0000"/>
<path d="M704.082 130.452C704.204 130.952 704.402 131.428 704.497 131.935C704.505 131.971 704.51 132.013 704.534 132.038C704.864 132.388 705.052 132.833 705.312 133.229C705.67 133.777 706.15 134.212 706.567 134.703C707.003 135.216 707.529 135.635 708.093 136.002C708.434 136.225 708.694 136.546 709.039 136.747C709.586 137.066 710.016 137.555 710.607 137.808C710.702 137.85 710.774 137.945 710.862 138.013C711.127 138.222 711.377 138.458 711.695 138.597C711.795 138.644 711.885 138.719 711.926 138.822C712.037 139.11 712.287 139.182 712.543 139.198C712.69 139.205 712.808 139.244 712.911 139.322C713.161 139.513 713.414 139.697 713.731 139.764C713.772 139.775 713.816 139.816 713.844 139.852C713.994 140.049 714.203 140.095 714.429 140.088C714.631 140.08 714.816 140.119 714.981 140.243C715.092 140.326 715.211 140.38 715.355 140.359C715.391 140.354 715.44 140.352 715.461 140.372C715.718 140.61 716.03 140.528 716.329 140.528C716.352 140.528 716.381 140.522 716.401 140.53C716.734 140.675 717.09 140.709 717.443 140.766C717.598 140.791 717.742 140.843 717.902 140.82C718.134 140.786 718.361 140.867 718.593 140.874C719.054 140.89 719.518 140.882 719.979 140.851C720.536 140.817 721.09 140.768 721.655 140.807C722.32 140.851 722.995 140.838 723.663 140.799C724.256 140.766 724.795 140.507 725.305 140.22C725.813 139.932 726.333 139.661 726.81 139.319C727.089 139.12 727.321 138.869 727.532 138.605C727.847 138.214 728.14 137.811 728.499 137.459C729.143 136.825 729.587 136.054 729.919 135.218C730.262 134.354 730.584 133.485 730.716 132.553C730.795 131.984 730.855 131.42 730.775 130.84C730.674 130.129 730.592 129.415 730.406 128.719C730.321 128.398 730.223 128.085 730.063 127.795C729.991 127.666 729.973 127.51 729.898 127.389C729.635 126.944 729.471 126.442 729.13 126.041C728.973 125.855 728.829 125.658 728.684 125.459C728.195 124.786 727.661 124.144 727.047 123.593C726.635 123.223 726.186 122.882 725.743 122.538C724.717 121.741 723.573 121.146 722.462 120.486C722.003 120.214 721.565 119.904 721.08 119.673C720.374 119.34 719.678 118.972 718.933 118.75C718.428 118.597 717.92 118.434 717.386 118.362C716.688 118.266 715.989 118.191 715.29 118.108C714.863 118.056 714.44 118.028 714.02 118.051C713.146 118.103 712.267 118.196 711.509 118.682C711.151 118.913 710.774 119.039 710.37 119.143C709.462 119.378 708.581 119.704 707.714 120.059C707.165 120.281 706.65 120.605 706.191 120.98C705.75 121.342 705.392 121.787 705.196 122.354C705.044 122.791 704.874 123.215 704.807 123.681C704.771 123.932 704.681 124.206 704.554 124.439C704.464 124.602 704.449 124.724 704.603 124.892C704.351 125.006 704.271 125.169 704.258 125.381C704.247 125.552 704.204 125.72 704.196 125.891C704.162 126.706 704.162 127.526 703.977 128.328C703.812 129.055 703.912 129.759 704.082 130.452ZM729.401 127.451C729.262 127.342 729.22 127.228 729.218 127.096C729.331 127.174 729.432 127.257 729.401 127.451ZM729.099 129.989C729.128 129.987 729.156 129.981 729.184 129.979C729.205 130.007 729.239 130.031 729.249 130.064C729.589 131.06 729.708 132.085 729.646 133.133C729.635 133.332 729.558 133.516 729.414 133.674C729.347 132.437 729.452 131.195 729.099 129.989ZM726.98 125.091C728.084 126.279 729.04 127.557 729.468 129.169C729.084 128.45 728.535 127.844 728.109 127.156C727.934 126.874 727.694 126.644 727.527 126.364C727.303 125.989 727.117 125.593 726.916 125.203C726.901 125.171 726.913 125.133 726.98 125.091ZM726.284 135.544C726.354 135.467 726.408 135.443 726.465 135.524C726.418 135.583 726.367 135.599 726.284 135.544ZM725.351 123.733C725.784 123.997 726.284 124.693 726.339 125.112C726.009 124.651 725.681 124.191 725.351 123.733ZM724.493 122.118C724.642 122.061 724.704 122.142 724.766 122.186C725.465 122.675 726.114 123.221 726.766 123.767C726.965 123.932 727.148 124.108 727.303 124.312C727.702 124.851 728.174 125.332 728.555 125.883C728.816 126.261 729.102 126.626 729.21 127.086C729.141 127.06 729.084 127.024 729.048 126.957C728.61 126.129 728.022 125.417 727.367 124.758C727.179 124.569 726.993 124.372 726.815 124.175C726.406 123.723 725.967 123.303 725.452 122.972C725.091 122.742 724.838 122.403 724.493 122.118ZM718.52 120.509C720.541 120.871 722.351 121.51 723.776 122.98C723.529 122.814 723.189 122.778 722.995 122.548C722.768 122.279 722.446 122.199 722.168 122.056C721.815 121.878 721.433 121.733 721.067 121.572C720.356 121.262 719.644 120.954 718.899 120.729C718.783 120.693 718.657 120.659 718.52 120.509ZM717.587 120.043C717.695 120.007 717.796 119.898 717.917 119.992C718.085 120.124 718.281 120.111 718.474 120.116C718.6 120.118 718.739 120.111 718.822 120.258C718.574 120.336 717.806 120.196 717.587 120.043ZM716.853 119.917C717.03 119.885 717.208 119.893 717.384 119.904C717.476 119.909 717.538 119.958 717.577 120.041C717.319 120.103 717.079 120.069 716.853 119.917ZM708.893 127.935C708.903 127.824 708.978 127.761 709.091 127.777C709.199 127.792 709.217 127.878 709.199 127.968C709.161 128.162 709.13 128.362 709.021 128.618C708.913 128.351 708.872 128.147 708.893 127.935ZM705.575 128.38C705.706 128.615 705.843 128.846 705.866 129.117C705.719 128.89 705.541 128.675 705.575 128.38ZM705.877 125.893C706.021 126.266 705.902 126.628 705.887 127.071C705.655 126.742 705.59 126.442 705.596 126.129C705.601 125.994 705.691 125.886 705.877 125.893ZM705.99 124.209C705.993 124.263 705.964 124.305 705.91 124.312C705.869 124.32 705.84 124.292 705.84 124.25C705.838 124.196 705.866 124.16 705.92 124.147C705.962 124.144 705.987 124.168 705.99 124.209ZM706.065 122.152C706.508 121.549 707.003 121.104 707.743 120.832C707.681 121.135 707.503 121.228 707.356 121.345C707.14 121.516 706.895 121.637 706.694 121.844C706.557 121.989 706.343 122.105 706.065 122.152ZM705.851 133.011C706.106 133.104 706.17 133.265 706.165 133.544C705.99 133.376 705.871 133.249 705.851 133.011ZM705.848 131.078C705.699 130.97 705.637 130.83 705.606 130.602C705.913 130.804 705.918 130.815 705.848 131.078ZM705.534 131.399C705.688 131.531 705.773 131.635 705.799 131.787C705.634 131.741 705.565 131.624 705.534 131.399ZM705.366 131.831C705.544 131.855 705.588 131.927 705.503 132.09C705.361 132.049 705.325 131.971 705.366 131.831ZM705.103 128.067C705.17 128.256 705.23 128.447 705.307 128.631C705.464 129.014 705.65 129.381 705.856 129.738C705.972 129.937 706 130.152 705.879 130.395C705.268 129.715 705.016 128.952 705.103 128.067ZM705 129.591C705.09 129.728 705.155 129.847 705.17 129.994C704.98 129.837 704.98 129.837 705 129.591Z" fill="#008029"/>
<path d="M414.493 45.233C414.736 45.7834 415.067 46.2743 415.417 46.7652C416.238 47.9192 417.316 48.748 418.468 49.5046C419.262 50.0274 420.144 50.3461 421.038 50.6437C422.125 51.0049 423.241 51.1579 424.864 51.1813C425.712 51.1877 426.946 50.82 428.112 50.1931C428.221 50.1336 428.334 50.072 428.427 49.9891C428.881 49.5747 429.43 49.2963 429.909 48.9159C430.14 48.7331 430.364 48.5589 430.544 48.3187C430.73 48.0701 430.992 47.9043 431.243 47.7322C431.794 47.3518 432.265 46.88 432.705 46.3785C432.864 46.1978 433.04 46.0427 433.243 45.9215C434.184 45.3584 434.644 44.4786 434.831 43.4266C434.877 43.1716 434.967 42.9591 435.099 42.7359C435.357 42.3024 435.472 41.8051 435.562 41.3078C435.581 41.2079 435.543 41.1144 435.495 41.0273C435.279 40.6384 435.292 40.2134 435.35 39.7968C435.57 38.2115 435.365 36.6983 434.684 35.249C433.765 33.2853 432.473 31.6192 430.783 30.2995C429.974 29.6683 429.078 29.1285 428.091 28.8289C426.485 28.3401 424.854 28.1658 423.185 28.5696C421.899 28.8799 420.657 29.2879 419.52 29.9786C419.044 30.2676 418.592 30.5991 418.181 30.971C417.333 31.7403 416.548 32.5713 416.133 33.6827C415.961 34.1439 415.714 34.5668 415.48 34.994C415.157 35.5826 414.904 36.2096 414.575 36.7876C414.259 37.3444 414.089 37.9203 413.936 38.5302C413.735 39.3378 413.591 40.1347 413.553 40.972C413.488 42.4915 413.894 43.8793 414.493 45.233ZM434.012 43.1801C434.125 42.8146 434.219 42.5085 434.314 42.2025C434.552 42.6467 434.487 42.8358 434.012 43.1801ZM433.457 44.6549C433.463 44.5381 433.52 44.4892 433.666 44.4977C433.614 44.6082 433.574 44.6762 433.457 44.6549ZM425.388 29.5876C426.024 29.5918 426.672 29.6322 427.27 29.9318C426.644 29.8171 426.016 29.7023 425.388 29.5876ZM421.534 50.3483C421.725 50.3419 421.817 50.3589 421.911 50.4439C421.783 50.4928 421.702 50.4481 421.534 50.3483ZM415.775 46.4613C415.934 46.4252 415.966 46.5208 416.007 46.5846C416.675 47.577 417.607 48.272 418.577 48.9244C419.283 49.3983 420.045 49.7511 420.831 50.0614C420.946 50.106 421.08 50.14 421.18 50.2866C420.898 50.2717 420.694 50.14 420.479 50.0592C418.822 49.4514 417.413 48.4696 416.227 47.152C416.045 46.948 415.892 46.7249 415.775 46.4613Z" fill="#FF7080"/>
</svg>
