<svg width="1097" height="216" viewBox="0 0 1097 216" fill="none" xmlns="http://www.w3.org/2000/svg">
<circle cx="5.30125" cy="5.30125" r="5.30125" transform="matrix(-1 0 0 1 799.266 204.51)" fill="#1A1564"/>
<circle cx="4.48568" cy="4.48568" r="4.48568" transform="matrix(-1 0 0 1 714.02 146.721)" fill="#FF0000"/>
<circle cx="4.48568" cy="4.48568" r="4.48568" transform="matrix(-1 0 0 1 107.656 146.721)" fill="#FF0000"/>
<circle cx="4.48568" cy="4.48568" r="4.48568" transform="matrix(-1 0 0 1 473.85 122.952)" fill="#FF0000"/>
<circle cx="6.93241" cy="6.93241" r="6.93241" transform="matrix(-1 0 0 1 542.865 137)" fill="#008029"/>
<circle cx="2.49204" cy="2.49204" r="2.49204" transform="matrix(-1 0 0 1 756.856 71.5708)" fill="#008029"/>
<circle cx="2.49204" cy="2.49204" r="2.49204" transform="matrix(-1 0 0 1 130.492 71.5708)" fill="#008029"/>
<circle cx="2.49204" cy="2.49204" r="2.49204" transform="matrix(-1 0 0 1 916.757 71.5708)" fill="#008029"/>
<circle cx="2.49204" cy="2.49204" r="2.49204" transform="matrix(-1 0 0 1 310.735 127.03)" fill="#008029"/>
<circle cx="2.49204" cy="2.49204" r="2.49204" transform="matrix(-1 0 0 1 1097 127.03)" fill="#008029"/>
<circle cx="2.49204" cy="2.49204" r="2.49204" transform="matrix(-1 0 0 1 620.654 7.14022)" fill="#008029"/>
<circle cx="3.98727" cy="3.98727" r="3.98727" transform="matrix(-1 0 0 1 694.872 109.903)" fill="#FF7800"/>
<circle cx="3.98727" cy="3.98727" r="3.98727" transform="matrix(-1 0 0 1 68.5082 109.903)" fill="#FF7800"/>
<circle cx="3.98727" cy="3.98727" r="3.98727" transform="matrix(-1 0 0 1 854.773 109.903)" fill="#FF7800"/>
<circle cx="3.98727" cy="3.98727" r="3.98727" transform="matrix(-1 0 0 1 404.526 171.887)" fill="#FF7800"/>
<circle cx="5.48249" cy="5.48249" r="5.48249" transform="matrix(-1 0 0 1 637.328 180.677)" fill="#FF7080"/>
<circle cx="5.48249" cy="5.48249" r="5.48249" transform="matrix(-1 0 0 1 10.9652 180.677)" fill="#FF7080"/>
<circle cx="2.49204" cy="2.49204" r="2.49204" transform="matrix(-1 0 0 1 614.945 92.7758)" fill="#FF0000"/>
<circle cx="2.49204" cy="2.49204" r="2.49204" transform="matrix(-1 0 0 1 250.382 92.7759)" fill="#FF0000"/>
<circle cx="2.49204" cy="2.49204" r="2.49204" transform="matrix(-1 0 0 1 1036.65 92.7759)" fill="#FF0000"/>
<path d="M825.733 150.994C825.681 151.333 825.663 151.677 825.574 152.012C825.537 152.149 825.485 152.277 825.439 152.408C825.25 152.966 825.053 153.526 824.745 154.034C824.519 154.406 824.26 154.759 824.028 155.127C823.776 155.528 823.461 155.879 823.114 156.195C822.465 156.784 821.785 157.336 820.992 157.732C820.317 158.069 819.621 158.352 818.871 158.482C818.749 158.502 818.631 158.549 818.514 158.591C818.09 158.743 817.655 158.845 817.205 158.89C816.956 158.914 816.709 158.931 816.458 158.94C815.964 158.959 815.481 158.865 814.994 158.822C814.519 158.779 814.072 158.627 813.609 158.54C813.6 158.539 813.592 158.539 813.585 158.535C813.222 158.413 812.879 158.252 812.547 158.046C812.733 157.979 812.901 158.089 813.12 158.076C812.964 157.968 812.808 157.961 812.672 157.906C812.533 157.853 812.391 157.811 812.263 157.768C812.235 157.69 812.318 157.697 812.314 157.624C812.211 157.516 812.106 157.374 811.946 157.298C811.734 157.194 811.559 157.042 811.382 156.895C811.067 156.629 810.76 156.351 810.455 156.074C810.092 155.746 809.8 155.355 809.479 154.99C809.202 154.674 808.981 154.316 808.736 153.976C808.482 153.623 808.31 153.238 808.112 152.859C807.92 152.496 807.711 152.142 807.56 151.758C807.317 151.136 807.131 150.505 807.066 149.836C807.028 149.435 807.029 149.034 807.003 148.633C806.979 148.265 807.11 147.906 807.213 147.551C807.226 147.511 807.248 147.475 807.255 147.435C807.35 146.87 807.653 146.395 807.941 145.918C808.165 145.544 808.477 145.23 808.755 144.895C809.031 144.564 809.337 144.262 809.674 143.994C809.984 143.749 810.29 143.498 810.634 143.292C810.874 143.149 811.098 142.981 811.342 142.838C811.694 142.632 812.048 142.444 812.435 142.309C812.7 142.216 812.943 142.067 813.201 141.956C813.804 141.697 814.428 141.497 815.057 141.312C815.61 141.147 816.176 141.082 816.751 141.042C817.166 141.013 817.582 140.997 817.997 141C818.689 141.007 819.355 141.158 819.986 141.42C820.498 141.635 820.96 141.946 821.41 142.271C821.866 142.599 822.211 143.026 822.567 143.45C822.87 143.809 823.126 144.203 823.436 144.559C823.559 144.699 823.632 144.881 823.734 145.04C824.076 145.579 824.305 146.168 824.549 146.751C824.568 146.796 824.587 146.843 824.612 146.884C824.908 147.375 825.078 147.912 825.223 148.462C825.313 148.787 825.478 149.091 825.551 149.418C825.667 149.933 825.817 150.445 825.733 150.994ZM818.901 141.882C818.898 141.956 818.957 141.972 819.019 141.979C819.15 141.994 819.281 142.006 819.411 142.027C819.59 142.055 819.767 142.107 819.946 142.115C820.049 142.12 820.137 142.131 820.215 142.209C820.243 142.081 820.245 142.077 820.154 142.043C819.814 141.913 819.46 141.837 819.104 141.764C819.08 141.759 819.055 141.758 819.031 141.759C818.954 141.766 818.905 141.808 818.901 141.882ZM818.009 142.243C818.449 142.266 818.889 142.295 819.327 142.338C818.894 142.231 818.46 142.134 818.009 142.243ZM817.228 141.187C817.736 141.177 818.241 141.234 818.798 141.261C818.418 141.109 817.498 141.07 817.228 141.187ZM815.298 141.443C815.609 141.395 815.896 141.379 816.166 141.28C815.889 141.256 815.44 141.343 815.298 141.443ZM814.131 142.112C814.144 142.108 814.151 142.091 814.159 142.081C814.156 142.062 814.145 142.053 814.126 142.058C814.112 142.062 814.091 142.072 814.089 142.081C814.084 142.112 814.109 142.119 814.131 142.112ZM813.59 142.288C813.6 142.295 813.611 142.304 813.622 142.311C813.634 142.304 813.655 142.299 813.658 142.288C813.665 142.257 813.643 142.25 813.618 142.257C813.606 142.26 813.599 142.278 813.59 142.288ZM812.13 143.514C812.216 143.51 812.286 143.469 812.358 143.431C812.511 143.349 812.665 143.266 812.822 143.194C813.245 142.999 813.688 142.855 814.116 142.677C815.162 142.24 816.255 142.02 817.389 141.989C817.762 141.979 818.137 141.982 818.512 141.977C818.71 141.975 818.726 141.96 818.794 141.718C818.51 141.733 818.232 141.583 817.965 141.782C817.943 141.799 817.899 141.802 817.871 141.792C817.769 141.756 817.661 141.783 817.55 141.773C817.599 141.668 817.711 141.728 817.785 141.647C817.715 141.647 817.664 141.64 817.617 141.649C817.352 141.694 817.082 141.69 816.819 141.716C816.627 141.735 816.434 141.778 816.234 141.78C816.061 141.782 815.891 141.842 815.721 141.877C815.551 141.911 815.4 141.955 815.344 142.14C815.341 142.15 815.314 142.152 815.284 142.164C815.143 142.017 814.957 142.034 814.787 142.107C814.622 142.176 814.41 142.214 814.405 142.451C814.331 142.482 814.242 142.521 814.203 142.482C814.065 142.342 813.946 142.44 813.821 142.487C813.324 142.674 812.845 142.9 812.37 143.135C812.358 143.142 812.353 143.159 812.342 143.173C812.353 143.218 812.425 143.194 812.43 143.266C812.377 143.386 812.181 143.372 812.13 143.514ZM816.776 142.478C816.902 142.478 817.03 142.489 817.149 142.432C817.024 142.444 816.893 142.407 816.776 142.478ZM816.176 142.56C816.373 142.537 816.574 142.551 816.763 142.48C816.562 142.464 816.364 142.475 816.176 142.56ZM811.775 143.565C811.817 143.51 811.903 143.491 811.92 143.351C811.638 143.534 811.365 143.662 811.133 143.859C811.221 143.856 811.268 143.944 811.349 143.96C811.494 143.916 811.608 143.816 811.74 143.749C811.775 143.731 811.797 143.692 811.825 143.662C811.938 143.64 812.036 143.591 812.122 143.519C812.006 143.533 811.89 143.55 811.775 143.565ZM807.289 149.345C807.303 149.653 807.345 149.962 807.46 150.298C807.489 150.156 807.478 150.054 807.464 149.952C807.453 149.879 807.432 149.803 807.443 149.732C807.501 149.364 807.467 148.994 807.481 148.626C807.485 148.528 807.501 148.431 807.506 148.332C807.536 147.852 807.681 147.397 807.848 146.951C808.014 146.502 808.242 146.077 808.547 145.71C808.878 145.313 809.197 144.902 809.593 144.558C810.01 144.195 810.403 143.806 810.879 143.514C811.096 143.381 811.321 143.254 811.501 143.069C811.275 143.126 811.103 143.273 810.912 143.386C810.259 143.769 809.707 144.279 809.141 144.77C808.838 145.033 808.606 145.354 808.351 145.653C807.995 146.07 807.727 146.544 807.548 147.06C807.287 147.804 807.252 148.573 807.289 149.345ZM810.967 144.004C811.081 144.004 811.088 143.92 811.123 143.863C811.053 143.883 810.969 143.89 810.967 144.004ZM810.625 144.162C810.606 144.281 810.634 144.338 810.709 144.354C810.795 144.371 810.911 144.271 810.965 144.129C810.851 144.167 810.75 144.227 810.625 144.162ZM810.383 144.452C810.445 144.449 810.49 144.435 810.488 144.343C810.406 144.342 810.373 144.369 810.383 144.452ZM809.991 144.765C810.189 144.839 810.222 144.642 810.366 144.583C810.15 144.537 810.133 144.545 809.991 144.765ZM809.695 144.988C809.682 144.993 809.677 145.012 809.668 145.024C809.679 145.033 809.691 145.052 809.702 145.05C809.714 145.048 809.733 145.033 809.737 145.021C809.744 144.99 809.723 144.978 809.695 144.988ZM809.395 145.334C809.444 145.247 809.568 145.304 809.663 145.176C809.502 145.176 809.421 145.204 809.395 145.334ZM809.011 145.71C808.969 145.747 808.917 145.764 808.952 145.854C808.994 145.816 809.046 145.799 809.011 145.71ZM808.792 145.971C808.782 145.977 808.771 145.994 808.771 146.006C808.771 146.023 808.785 146.028 808.804 146.023C808.815 146.015 808.834 146.004 808.836 145.996C808.838 145.964 808.815 145.959 808.792 145.971ZM808.433 146.958C808.557 146.877 808.633 146.761 808.677 146.623C808.549 146.699 808.48 146.822 808.433 146.958ZM808.275 147.237C808.361 147.166 808.422 147.081 808.429 146.965C808.333 147.033 808.288 147.126 808.275 147.237ZM807.68 151.49C807.559 151.098 807.436 150.706 807.315 150.311C807.331 150.731 807.483 151.115 807.68 151.49ZM808.258 151.421C808.216 151.169 808.224 150.915 808.238 150.661C808.244 150.562 808.244 150.465 808.238 150.367C808.219 149.876 808.181 149.378 808.251 148.892C808.358 148.16 808.557 147.447 808.988 146.822C809.016 146.78 809.055 146.735 809.025 146.668C807.918 147.923 807.296 150.088 808.256 151.822C808.291 151.673 808.279 151.546 808.258 151.421ZM808.57 152.131C808.552 152.05 808.536 151.967 808.519 151.886C808.482 151.976 808.491 152.059 808.57 152.131ZM808.657 152.564C808.629 152.614 808.647 152.655 808.699 152.709C808.715 152.636 808.703 152.595 808.657 152.564ZM808.848 149.546C808.81 149.606 808.785 149.646 808.82 149.712C808.878 149.655 808.876 149.611 808.848 149.546ZM809.101 148.429C809.046 148.419 809.05 148.467 809.059 148.531C809.101 148.485 809.123 148.434 809.101 148.429ZM809.257 150.17C809.216 150.279 809.178 150.388 809.202 150.548C809.283 150.401 809.281 150.287 809.257 150.17ZM809.514 150.989C809.449 151.649 809.495 152.299 809.675 152.975C809.749 152.669 809.642 151.245 809.514 150.989ZM811.938 155.002C811.892 154.811 811.745 154.695 811.617 154.581C811.326 154.321 811.167 153.981 810.986 153.654C810.925 153.542 810.874 153.424 810.748 153.286C810.737 153.493 810.809 153.627 810.839 153.767C810.895 154.031 810.97 154.29 811.11 154.529C811.263 154.785 811.585 154.976 811.938 155.002ZM810.935 145.541C810.79 145.565 810.79 145.565 810.762 145.684C810.835 145.646 810.895 145.615 810.935 145.541ZM814.945 142.995C814.864 142.971 814.811 142.974 814.768 142.997C814.54 143.118 814.286 143.177 814.051 143.282C813.446 143.555 812.831 143.804 812.242 144.113C811.82 144.335 811.429 144.599 811.07 144.902C810.58 145.315 810.117 145.759 809.688 146.238C809.381 146.578 809.13 146.955 808.913 147.351C808.629 147.867 808.489 148.434 808.394 149.012C808.38 149.098 808.368 149.19 808.4 149.287C808.47 149.226 808.472 149.15 808.473 149.079C808.477 148.937 808.514 148.803 808.547 148.668C808.736 147.867 809.139 147.169 809.66 146.545C810.103 146.015 810.552 145.484 811.07 145.017C811.244 144.862 811.428 144.723 811.626 144.601C812.348 144.155 813.12 143.813 813.897 143.472C814.089 143.387 814.275 143.256 814.51 143.298C814.563 143.306 814.601 143.266 814.634 143.227C814.713 143.133 814.817 143.062 814.945 142.995ZM815.158 142.528C815.22 142.511 815.279 142.49 815.302 142.397C814.606 142.61 813.949 142.859 813.306 143.14C812.539 143.476 811.79 143.844 811.091 144.312C810.296 144.846 809.579 145.462 808.962 146.187C808.854 146.317 808.727 146.442 808.684 146.614C808.806 146.566 808.873 146.461 808.946 146.364C809.134 146.122 809.334 145.892 809.558 145.683C810.224 145.061 810.942 144.502 811.74 144.056C812.216 143.79 812.698 143.531 813.199 143.311C813.844 143.03 814.478 142.727 815.158 142.528ZM815.742 152.27C815.731 152.069 815.719 151.87 815.705 151.635C815.475 151.803 815.409 152.118 815.532 152.301C815.568 152.354 815.614 152.38 815.677 152.361C815.723 152.349 815.745 152.313 815.742 152.27ZM817.617 142.763C817.964 142.75 818.311 142.708 818.659 142.72C818.736 142.722 818.822 142.741 818.922 142.668C818.679 142.596 818.456 142.632 818.241 142.629C818.009 142.623 817.776 142.603 817.548 142.661C817.328 142.719 817.1 142.606 816.884 142.68C816.686 142.748 816.476 142.77 816.278 142.838C816.059 142.912 815.812 142.822 815.602 142.945C815.412 143.054 815.181 143.052 814.995 143.173C815.404 143.101 815.817 143.101 816.22 143.002C816.678 142.89 817.142 142.784 817.617 142.763ZM818.305 150.559C818.162 150.581 818.032 150.638 817.881 150.635C817.845 150.766 817.748 150.835 817.638 150.901C817.345 151.079 817.123 151.335 816.897 151.585C816.863 151.622 816.811 151.67 816.893 151.763C817.277 151.257 817.781 150.899 818.305 150.559ZM820.559 143.318C819.853 143.059 819.122 142.978 818.367 143.064C818.729 143.116 819.096 143.152 819.46 143.19C819.826 143.228 820.187 143.313 820.55 143.377C820.554 143.356 820.555 143.337 820.559 143.318ZM820.76 143.247C820.746 143.315 820.662 143.374 820.769 143.432C820.832 143.467 820.885 143.443 820.904 143.375C820.934 143.266 820.848 143.266 820.76 143.247ZM821.36 142.983C821.33 142.91 821.291 142.891 821.207 142.909C821.258 142.961 821.286 142.995 821.36 142.983ZM821.854 156.879C821.742 156.876 821.67 156.924 821.649 157.032C821.717 156.981 821.785 156.93 821.854 156.879ZM825.471 150.992C825.213 152.1 824.838 153.167 824.321 154.181C824.945 153.203 825.346 152.145 825.471 150.992Z" fill="#1A1564"/>
<path d="M731.108 17.4842C730.847 17.5876 730.597 17.7181 730.324 17.7939C730.212 17.8245 730.1 17.8402 729.988 17.8624C729.515 17.9598 729.038 18.053 728.551 18.0448C728.194 18.0384 727.836 18.0004 727.48 17.9889C727.091 17.976 726.712 17.8975 726.343 17.7821C725.656 17.5657 724.982 17.3112 724.37 16.9109C723.849 16.5709 723.357 16.1938 722.951 15.714C722.885 15.6354 722.803 15.5712 722.724 15.5049C722.439 15.2664 722.185 14.9996 721.964 14.6978C721.843 14.5308 721.727 14.3622 721.616 14.1875C721.395 13.8438 721.258 13.4609 721.084 13.0963C720.915 12.7404 720.834 12.3593 720.701 11.9942C720.699 11.9872 720.695 11.981 720.695 11.9746C720.629 11.6654 720.598 11.3542 720.604 11.0331C720.729 11.1372 720.722 11.3029 720.824 11.453C720.834 11.2975 720.773 11.1837 720.755 11.0634C720.734 10.9426 720.704 10.8244 720.681 10.7154C720.724 10.6631 720.754 10.7246 720.803 10.692C720.837 10.5731 720.892 10.4394 720.879 10.2943C720.863 10.1003 720.897 9.91243 720.926 9.72543C720.981 9.39035 721.049 9.05647 721.116 8.72456C721.195 8.32995 721.347 7.95935 721.47 7.57958C721.576 7.25109 721.736 6.94526 721.873 6.62916C722.015 6.3018 722.214 6.01938 722.398 5.72114C722.573 5.4331 722.735 5.13744 722.942 4.8707C723.278 4.43873 723.645 4.04432 724.089 3.72013C724.356 3.52601 724.639 3.36057 724.911 3.17518C725.16 3.00468 725.468 2.94875 725.761 2.87502C725.794 2.86722 725.83 2.86835 725.861 2.85681C726.299 2.68919 726.761 2.70731 727.218 2.71349C727.575 2.71789 727.927 2.80907 728.281 2.86793C728.629 2.92645 728.971 3.01891 729.301 3.14694C729.604 3.26561 729.909 3.37962 730.198 3.53851C730.4 3.64969 730.612 3.73959 730.816 3.85327C731.109 4.01838 731.39 4.19193 731.647 4.41144C731.824 4.56092 732.031 4.67244 732.217 4.80974C732.653 5.13088 733.056 5.49141 733.451 5.86215C733.799 6.1879 734.082 6.56333 734.352 6.95577C734.547 7.23906 734.732 7.52809 734.904 7.82503C735.189 8.32041 735.363 8.85672 735.443 9.41479C735.506 9.86796 735.481 10.3265 735.441 10.782C735.401 11.2427 735.245 11.6658 735.096 12.0949C734.97 12.4601 734.799 12.8059 734.679 13.1746C734.632 13.3201 734.534 13.4479 734.465 13.5863C734.228 14.0536 733.909 14.462 733.601 14.8774C733.578 14.9098 733.553 14.9429 733.534 14.9776C733.312 15.3924 733.005 15.7368 732.678 16.0687C732.487 16.2674 732.342 16.5111 732.142 16.6992C731.828 16.9956 731.531 17.3155 731.108 17.4842ZM734.662 8.83483C734.608 8.86323 734.622 8.91209 734.643 8.95861C734.687 9.05859 734.734 9.15713 734.774 9.25802C734.829 9.39669 734.867 9.54418 734.936 9.67495C734.976 9.75067 735.005 9.81732 734.984 9.90576C735.085 9.87254 735.089 9.87235 735.075 9.79315C735.023 9.49737 734.928 9.2139 734.83 8.93061C734.824 8.911 734.815 8.89282 734.803 8.87609C734.766 8.8241 734.716 8.80643 734.662 8.83483ZM734.033 8.35035C734.202 8.67265 734.366 8.99782 734.519 9.3275C734.413 8.97498 734.299 8.62553 734.033 8.35035ZM734.449 7.35526C734.67 7.71254 734.842 8.09534 735.056 8.50333C735.004 8.16954 734.646 7.49842 734.449 7.35526ZM733.459 6.08882C733.624 6.2894 733.755 6.48741 733.938 6.63847C733.839 6.43141 733.59 6.14814 733.459 6.08882ZM732.498 5.53648C732.506 5.54377 732.521 5.54157 732.532 5.5435C732.544 5.5331 732.546 5.52203 732.534 5.51047C732.525 5.50193 732.509 5.49128 732.502 5.49362C732.478 5.50281 732.484 5.52314 732.498 5.53648ZM732.147 5.22449C732.146 5.23484 732.145 5.24592 732.144 5.25627C732.154 5.26213 732.167 5.27493 732.175 5.27312C732.2 5.26517 732.196 5.24609 732.18 5.23151C732.173 5.22422 732.158 5.22641 732.147 5.22449ZM730.67 4.69528C730.709 4.75494 730.768 4.78757 730.825 4.82288C730.946 4.89759 731.069 4.97282 731.186 5.05486C731.501 5.27416 731.788 5.52998 732.093 5.7602C732.841 6.32279 733.454 7.00958 733.952 7.80335C734.116 8.06462 734.271 8.33288 734.432 8.59755C734.516 8.73773 734.534 8.74248 734.733 8.69052C734.603 8.495 734.592 8.23424 734.34 8.12734C734.318 8.11832 734.297 8.08859 734.293 8.06433C734.276 7.97692 734.211 7.91111 734.172 7.82825C734.267 7.81933 734.271 7.92428 734.359 7.94288C734.33 7.893 734.313 7.85397 734.287 7.8239C734.145 7.65431 734.034 7.46085 733.905 7.28461C733.811 7.15536 733.7 7.03617 733.615 6.89474C733.541 6.77202 733.427 6.67623 733.331 6.56965C733.235 6.46308 733.142 6.37381 732.988 6.41079C732.979 6.41261 732.967 6.39463 732.946 6.37846C732.99 6.21639 732.899 6.09141 732.777 6.00064C732.659 5.91218 732.543 5.77712 732.374 5.87181C732.321 5.83238 732.256 5.78531 732.268 5.74136C732.308 5.58466 732.189 5.54083 732.104 5.4717C731.763 5.19519 731.403 4.94893 731.038 4.70875C731.028 4.70289 731.014 4.70634 730.999 4.7046C730.972 4.73077 731.019 4.77183 730.97 4.80574C730.864 4.81791 730.792 4.67252 730.67 4.69528ZM733.35 7.57029C733.403 7.66006 733.449 7.75539 733.539 7.81647C733.479 7.73297 733.449 7.62437 733.35 7.57029ZM733.041 7.17764C733.139 7.30794 733.214 7.45708 733.343 7.56228C733.27 7.41243 733.179 7.27584 733.041 7.17764ZM730.485 4.46372C730.541 4.47066 730.591 4.52385 730.697 4.47812C730.449 4.35354 730.244 4.2122 730.008 4.12952C730.048 4.19043 730.005 4.26073 730.028 4.32455C730.12 4.41008 730.238 4.44945 730.341 4.51495C730.368 4.5327 730.405 4.53238 730.438 4.54012C730.501 4.61057 730.576 4.66028 730.663 4.6912C730.605 4.61465 730.544 4.53955 730.485 4.46372ZM724.529 3.67443C724.318 3.8123 724.117 3.97083 723.929 4.19251C724.041 4.15354 724.109 4.10367 724.175 4.0513C724.221 4.01365 724.266 3.96707 724.32 3.94509C724.604 3.8332 724.851 3.65575 725.116 3.51269C725.187 3.47423 725.262 3.44522 725.334 3.408C725.685 3.22946 726.066 3.14399 726.45 3.07706C726.837 3.00871 727.232 2.99405 727.618 3.05868C728.037 3.12908 728.461 3.18501 728.87 3.32381C729.301 3.46968 729.739 3.58731 730.145 3.80503C730.33 3.90432 730.513 4.01146 730.719 4.06301C730.584 3.92588 730.409 3.86476 730.249 3.77555C729.705 3.46998 729.114 3.28918 728.53 3.0905C728.218 2.98401 727.894 2.95306 727.576 2.89532C727.133 2.81537 726.687 2.82147 726.248 2.90912C725.614 3.03229 725.058 3.32708 724.529 3.67443ZM729.836 4.07142C729.884 4.15247 729.947 4.12225 730.002 4.12348C729.957 4.08222 729.917 4.02525 729.836 4.07142ZM729.582 3.89367C729.49 3.92953 729.461 3.97319 729.482 4.03327C729.506 4.10155 729.625 4.14217 729.748 4.12191C729.673 4.05667 729.588 4.0095 729.582 3.89367ZM729.276 3.84231C729.304 3.88452 729.333 3.91119 729.397 3.87186C729.363 3.81254 729.33 3.80034 729.276 3.84231ZM728.891 3.69307C728.921 3.86486 729.074 3.80664 729.176 3.88445C729.118 3.71169 729.105 3.70281 728.891 3.69307ZM728.609 3.57503C728.6 3.56846 728.585 3.57263 728.573 3.57142C728.571 3.58249 728.563 3.59913 728.568 3.60589C728.575 3.6139 728.594 3.62115 728.604 3.61861C728.629 3.61067 728.628 3.59067 728.609 3.57503ZM728.24 3.50552C728.321 3.50451 728.333 3.61675 728.463 3.63091C728.395 3.5162 728.342 3.47034 728.24 3.50552ZM727.813 3.38909C727.77 3.37426 727.736 3.34404 727.687 3.40634C727.732 3.42045 727.766 3.45067 727.813 3.38909ZM727.537 3.34173C727.529 3.3364 727.513 3.33611 727.504 3.34114C727.492 3.34832 727.494 3.36045 727.506 3.37201C727.516 3.3759 727.532 3.38531 727.539 3.38296C727.561 3.37127 727.555 3.35291 727.537 3.34173ZM726.691 3.49638C726.8 3.55114 726.914 3.55662 727.03 3.53031C726.922 3.4709 726.807 3.47329 726.691 3.49638ZM726.429 3.49985C726.515 3.53148 726.6 3.53992 726.685 3.49676C726.597 3.45621 726.512 3.46259 726.429 3.49985ZM723.181 4.84412C723.407 4.59499 723.632 4.34462 723.859 4.09477C723.569 4.28058 723.363 4.54856 723.181 4.84412ZM723.472 5.22684C723.633 5.09202 723.815 4.99263 724 4.89699C724.072 4.85978 724.14 4.81954 724.207 4.77485C724.545 4.55708 724.88 4.32273 725.251 4.1707C725.813 3.94212 726.399 3.78824 727.02 3.83487C727.061 3.83758 727.109 3.84633 727.144 3.79711C725.795 3.53073 724.008 3.98837 723.189 5.39229C723.309 5.35543 723.394 5.29354 723.472 5.22684ZM723.103 5.74408C723.153 5.69784 723.204 5.65213 723.254 5.6059C723.176 5.61707 723.121 5.6578 723.103 5.74408ZM722.835 5.98604C722.788 5.98693 722.766 6.01664 722.75 6.07632C722.808 6.05737 722.832 6.0314 722.835 5.98604ZM725.042 4.86747C724.983 4.86518 724.945 4.86425 724.913 4.91649C724.978 4.93393 725.007 4.91472 725.042 4.86747ZM725.935 4.58287C725.919 4.53991 725.887 4.56252 725.845 4.59534C725.896 4.60586 725.941 4.60123 725.935 4.58287ZM724.773 5.41736C724.68 5.43395 724.587 5.45178 724.484 5.53606C724.621 5.53234 724.701 5.48367 724.773 5.41736ZM724.304 5.94121C723.812 6.16954 723.373 6.47211 722.972 6.88146C723.219 6.80666 724.178 6.13856 724.304 5.94121ZM722.493 9.33393C722.609 9.22176 722.629 9.06889 722.656 8.93045C722.716 8.6157 722.889 8.36069 723.044 8.09647C723.097 8.00613 723.159 7.92111 723.203 7.77386C723.053 7.8526 722.989 7.95904 722.903 8.03844C722.74 8.18826 722.589 8.34965 722.48 8.54855C722.363 8.76336 722.363 9.07254 722.493 9.33393ZM728.74 4.68772C728.662 4.59429 728.662 4.59429 728.566 4.62392C728.624 4.66048 728.671 4.68994 728.74 4.68772ZM732.217 6.48216C732.2 6.41475 732.176 6.37878 732.142 6.35695C731.961 6.24516 731.813 6.08879 731.64 5.96554C731.194 5.6489 730.76 5.31472 730.295 5.02439C729.962 4.81587 729.611 4.64775 729.247 4.51788C728.75 4.34049 728.243 4.19597 727.726 4.08952C727.357 4.01286 726.986 3.99119 726.616 4.00112C726.133 4.01396 725.674 4.14987 725.228 4.32252C725.161 4.34847 725.091 4.37782 725.036 4.4405C725.108 4.46523 725.163 4.43486 725.213 4.40665C725.315 4.35023 725.425 4.32037 725.534 4.28802C726.178 4.09002 726.839 4.08652 727.497 4.19746C728.057 4.29233 728.619 4.39095 729.166 4.56602C729.348 4.6248 729.523 4.69824 729.692 4.78812C730.31 5.11645 730.875 5.52404 731.441 5.93485C731.582 6.0368 731.752 6.11436 731.821 6.29868C731.837 6.33968 731.882 6.35059 731.924 6.35775C732.023 6.37506 732.116 6.41917 732.217 6.48216ZM732.636 6.44029C732.674 6.47674 732.713 6.51051 732.789 6.48792C732.347 6.0813 731.896 5.7172 731.427 5.37672C730.869 4.96999 730.295 4.59062 729.672 4.28784C728.961 3.94379 728.227 3.68961 727.456 3.55249C727.319 3.52907 727.179 3.49103 727.039 3.5317C727.124 3.59887 727.226 3.60242 727.326 3.61455C727.575 3.64737 727.821 3.69396 728.062 3.76661C728.78 3.98176 729.475 4.26089 730.124 4.64284C730.512 4.87133 730.897 5.10644 731.262 5.37179C731.731 5.71351 732.21 6.03914 732.636 6.44029ZM726.015 10.9049C726.152 10.8141 726.287 10.7227 726.447 10.615C726.233 10.5214 725.983 10.6048 725.905 10.7682C725.883 10.8167 725.884 10.8599 725.924 10.8968C725.951 10.9242 725.986 10.9254 726.015 10.9049ZM733.502 8.28733C733.657 8.52845 733.832 8.75808 733.97 9.01124C734.001 9.06682 734.024 9.13581 734.117 9.17671C734.066 8.97322 733.947 8.82996 733.859 8.67516C733.765 8.50842 733.682 8.33397 733.545 8.19631C733.412 8.06292 733.396 7.85412 733.253 7.73166C733.122 7.61878 733.018 7.4785 732.888 7.36563C732.743 7.24067 732.703 7.0275 732.528 6.92889C732.372 6.8395 732.276 6.6742 732.113 6.59233C732.335 6.85267 732.509 7.14692 732.748 7.39274C733.019 7.67147 733.288 7.95805 733.502 8.28733ZM728.297 12.0177C728.221 11.9248 728.127 11.8563 728.066 11.7476C727.958 11.776 727.869 11.7362 727.776 11.6849C727.528 11.5507 727.254 11.4987 726.982 11.442C726.943 11.4334 726.887 11.4162 726.856 11.5136C727.373 11.5761 727.837 11.7865 728.297 12.0177ZM734.346 10.6114C734.232 10.0012 733.983 9.44746 733.605 8.94599C733.72 9.22564 733.848 9.50132 733.975 9.77647C734.102 10.0529 734.193 10.3449 734.301 10.6296C734.317 10.6235 734.331 10.6168 734.346 10.6114ZM734.48 10.7253C734.427 10.7434 734.35 10.708 734.354 10.8085C734.356 10.8677 734.395 10.8951 734.45 10.8808C734.54 10.8567 734.504 10.7956 734.48 10.7253ZM734.918 11.0418C734.957 10.9905 734.954 10.9551 734.906 10.9025C734.891 10.9602 734.879 10.9945 734.918 11.0418ZM725.332 17.1701C725.287 17.0889 725.223 17.0579 725.139 17.0875C725.203 17.1152 725.268 17.1423 725.332 17.1701ZM730.999 17.2964C730.11 17.5737 729.201 17.7502 728.269 17.8041C729.22 17.8413 730.134 17.6871 730.999 17.2964Z" fill="#1A1564"/>
<path d="M815.733 58.1669C815.781 58.2608 815.786 58.3571 815.748 58.4606C815.502 59.1083 815.278 59.7681 815.032 60.4134C814.755 61.1405 814.362 61.8243 813.777 62.3733C813.527 62.6093 813.334 62.8982 813.057 63.1149C812.649 63.4327 812.339 63.8637 811.881 64.1286C811.721 64.2201 811.599 64.3766 811.459 64.5042C811.406 64.5524 811.354 64.639 811.296 64.6414C810.81 64.6727 810.516 65.058 810.144 65.2867C809.471 65.7033 808.739 65.9657 808.009 66.2306C807.007 66.5966 806.015 67.0035 804.958 67.2106C804.679 67.2659 804.416 67.396 804.118 67.3358C804.058 67.3237 803.982 67.3743 803.918 67.4008C803.837 67.4321 803.76 67.4971 803.679 67.4995C803.116 67.5188 802.56 67.6488 802.002 67.6488C801.296 67.6488 800.59 67.5886 799.886 67.5284C799.557 67.4995 799.228 67.4297 798.908 67.343C798.056 67.1118 797.243 66.782 796.501 66.2908C796.067 66.0043 795.59 65.7996 795.167 65.4842C794.962 65.3301 794.783 65.1447 794.571 64.9954C794.325 64.822 794.084 64.6318 793.832 64.4657C793.502 64.2514 793.192 64.0226 792.927 63.7265C792.765 63.5459 792.591 63.3677 792.345 63.2859C792.257 63.257 792.154 63.1751 792.119 63.0908C791.942 62.6863 791.549 62.513 791.255 62.2337C791.167 62.1494 791.112 62.0579 791.083 61.9399C791.014 61.6775 790.888 61.4969 790.575 61.5137C790.332 61.5258 790.322 61.3235 790.308 61.1453C790.079 60.8395 790 60.4687 789.886 60.1172C789.809 59.8812 789.735 59.6573 789.595 59.443C789.404 59.1541 789.351 58.7857 789.208 58.4799C788.97 57.9743 789.003 57.4638 789.001 56.9437C789.001 56.9197 789.022 56.8932 789.034 56.8667C789.18 56.845 789.139 57.0208 789.297 57.0858C789.206 56.5585 789.435 56.0721 789.287 55.5472C789.461 55.4148 789.521 55.2077 789.592 55.0006C789.79 54.4228 790.003 53.8521 790.21 53.2767C790.22 53.2502 790.227 53.2213 790.241 53.1948C790.368 52.9323 790.644 52.7397 790.723 52.4989C790.814 52.2172 790.923 51.9716 791.083 51.726C791.296 51.401 791.463 51.047 791.67 50.7148C792.052 50.1128 792.524 49.5783 792.915 48.9884C793.233 48.5068 793.657 48.1457 794.051 47.7484C794.101 47.6978 794.149 47.6376 794.206 47.5991C794.893 47.1464 795.497 46.5782 796.2 46.1496C796.472 45.9835 796.742 45.8173 797.052 45.7258C797.527 45.5862 797.937 45.3069 798.376 45.095C798.731 44.924 799.101 44.8374 799.476 44.7314C799.874 44.6182 800.27 44.4714 800.676 44.3895C801.291 44.2643 801.909 44.0909 802.548 44.2161C802.653 44.2354 802.751 44.2258 802.842 44.1728C803.159 43.985 803.507 43.9946 803.853 44.0043C804.485 44.0235 805.118 44.0741 805.75 44.062C806.332 44.05 806.842 44.3004 807.391 44.4112C807.556 44.4449 807.706 44.5556 807.892 44.4906C807.952 44.469 808.035 44.4954 808.102 44.5219C808.777 44.7796 809.464 45.0276 810.049 45.461C810.628 45.8896 811.213 46.3157 811.721 46.8358C811.895 47.014 812.062 47.1898 812.119 47.4474C812.141 47.5413 812.208 47.6304 812.272 47.7074C812.668 48.1697 812.835 48.7259 813.012 49.3014C813.245 50.0574 813.477 50.8352 814.013 51.4564C814.149 51.6153 814.245 51.7886 814.252 52.0053C814.257 52.1113 814.295 52.2052 814.388 52.2654C814.464 52.316 814.517 52.3882 814.534 52.4749C814.622 52.9372 814.879 53.3128 815.144 53.686C815.192 53.7534 815.206 53.8473 815.23 53.9316C815.349 54.3505 815.512 54.7502 815.674 55.1571C815.958 55.8674 815.998 56.6235 815.745 57.3675C815.655 57.6348 815.6 57.8972 815.733 58.1669ZM789.724 58.5184C789.695 58.4077 789.726 58.2993 789.607 58.2488C789.552 58.4004 789.552 58.4004 789.724 58.5184ZM790.21 54.2253C789.623 55.3233 789.428 57.2567 789.831 57.9646C789.976 57.6877 789.96 57.3964 789.964 57.1099C789.972 56.7198 789.881 56.3129 790 55.9421C790.136 55.5231 790.203 55.0994 790.27 54.6708C790.291 54.5287 790.353 54.3867 790.21 54.2253ZM790.382 53.8569C790.475 53.8016 790.501 53.739 790.411 53.6571C790.318 53.7149 790.294 53.7775 790.382 53.8569ZM790.57 61.1453C790.475 61.0225 790.396 61.0322 790.315 61.1477C790.392 61.155 790.468 61.2248 790.57 61.1453ZM791.792 51.6394C791.57 51.8729 791.415 52.145 791.346 52.4604C791.501 52.1883 791.766 51.9765 791.792 51.6394ZM792.114 51.1602C791.99 51.1626 791.942 51.218 791.971 51.3456C792.102 51.348 792.135 51.2806 792.114 51.1602ZM792.519 52.2509C792.202 52.3689 792.164 52.5856 792.143 52.8144C792.274 52.6627 792.45 52.5399 792.519 52.2509ZM793.436 51.0808C793.314 51.0013 793.233 51.0157 793.192 51.0759C793.004 51.3673 792.827 51.6683 792.646 51.9644C792.675 51.9813 792.703 52.0005 792.732 52.0174C792.963 51.714 793.192 51.4058 793.436 51.0808ZM793.6 48.8198C793.245 48.9884 793.202 49.0414 793.173 49.3279C793.388 49.2099 793.502 49.0221 793.6 48.8198ZM794.54 49.7565C794.237 49.8143 793.889 50.1778 793.808 50.5631C794.247 50.2886 794.478 50.0261 794.54 49.7565ZM795.435 49.0365C795.215 49.0028 795.151 49.0823 795.146 49.2605C795.306 49.2701 795.382 49.2051 795.435 49.0365ZM796.119 47.8038C796.086 47.7773 796.048 47.7339 795.998 47.7074C795.95 47.681 795.893 47.6689 795.745 47.6159C795.828 47.8904 795.685 47.9771 795.535 48.0758C795.301 48.2299 795.041 48.3624 794.915 48.6633C795.408 48.5237 796.122 48.0205 796.119 47.8038ZM796.606 46.5469C796.246 46.5252 796.25 46.5348 796.031 46.6697C795.716 46.8623 795.489 47.1922 795.098 47.2692C795.039 47.2813 794.996 47.3679 794.943 47.4161C794.805 47.5437 794.664 47.6665 794.526 47.7941C794.194 48.1071 793.784 48.3479 793.612 48.8054C793.934 48.6441 794.206 48.4153 794.468 48.1673C794.855 47.8013 795.229 47.4233 795.723 47.1825C796.029 47.0333 796.286 46.7828 796.606 46.5469ZM797.198 46.075C797.047 46.1063 796.895 46.1279 796.797 46.3206C797.009 46.3109 797.119 46.2146 797.198 46.075ZM798.297 45.9714C798.106 46.2098 797.858 46.3254 797.636 46.4795C797.431 46.6239 797.353 46.7515 797.441 46.9586C797.489 47.0694 797.534 47.2355 797.706 47.1753C797.863 47.1199 797.772 46.9851 797.758 46.8768C797.753 46.8382 797.775 46.7973 797.792 46.7395C797.999 46.7708 798.135 46.6287 798.295 46.5421C798.655 46.3446 798.655 46.3085 798.297 45.9714ZM799.316 45.7523C799.19 45.8944 799.008 45.957 798.832 46.0846C799.192 46.1207 799.285 46.0605 799.316 45.7523ZM799.612 44.9866C799.516 44.977 799.483 45.0324 799.488 45.1142C799.488 45.1287 799.535 45.1576 799.55 45.1528C799.624 45.1215 799.664 45.0709 799.612 44.9866ZM800.144 45.4489C800.141 45.4321 800.106 45.4056 800.089 45.408C800.046 45.4104 800.017 45.4393 800.02 45.4875C800.039 45.5019 800.06 45.5308 800.079 45.5284C800.122 45.526 800.153 45.4947 800.144 45.4489ZM802.801 45.0468C802.269 45.0878 801.802 45.2298 801.325 45.3093C800.998 45.3622 800.666 45.4971 800.42 45.7619C800.344 45.8462 800.304 45.9401 800.401 46.0268C800.49 46.1038 800.599 46.1014 800.659 45.9907C800.771 45.7908 800.96 45.6897 801.158 45.6849C801.642 45.6729 802.05 45.3502 802.544 45.3743C802.701 45.3839 802.842 45.2804 802.801 45.0468ZM812.012 48.3286C811.869 48.0277 811.719 47.823 811.552 47.6184C810.991 46.9369 810.23 46.5035 809.579 45.9401C809.536 45.904 809.481 45.8775 809.426 45.8631C809.109 45.7788 808.827 45.5934 808.498 45.5428C808.178 45.4923 807.892 45.3647 807.634 45.1696C807.58 45.1287 807.506 45.095 807.439 45.0878C806.981 45.0348 806.535 44.9385 806.096 44.7916C805.976 44.7507 805.838 44.7675 805.802 44.9722C806.089 45.0829 806.377 45.1768 806.661 45.2539C807.119 45.3791 807.451 45.721 807.89 45.892C808.391 46.0894 808.887 46.3254 809.376 46.571C810.282 47.0308 811.165 47.51 811.869 48.2685C811.881 48.2853 811.914 48.2901 812.012 48.3286ZM813.503 53.7751C813.544 53.6812 813.558 53.6089 813.424 53.5174C813.41 53.6378 813.367 53.7173 813.503 53.7751ZM814.712 59.8885C814.405 60.0402 814.333 60.37 814.145 60.6132C813.942 60.8757 813.765 61.1622 813.563 61.4246C813.367 61.675 813.148 61.9062 812.947 62.1542C812.749 62.3998 812.441 62.5587 812.377 62.9054C813.384 62.0796 814.159 61.0731 814.712 59.8885Z" fill="#FF7800"/>
<path d="M206.257 145.291C206.245 145.445 206.219 145.596 206.237 145.752C206.267 145.995 206.214 146.23 206.059 146.421C205.907 146.607 205.859 146.81 205.864 147.033C205.869 147.241 205.813 147.435 205.714 147.621C205.385 148.243 205.091 148.88 204.692 149.474C204.446 149.841 204.099 150.146 203.911 150.515C203.592 151.142 203.021 151.536 202.623 152.081C202.258 152.582 201.685 152.884 201.233 153.311C201.119 153.42 200.982 153.506 200.873 153.62C200.145 154.381 199.283 154.971 198.385 155.519C197.371 156.141 196.3 156.627 195.126 156.879C194.51 157.013 193.884 157.018 193.257 156.946C191.974 156.798 190.792 156.354 189.709 155.682C189.215 155.375 188.677 155.174 188.149 154.956C187.264 154.589 186.562 154.022 185.994 153.281C185.504 152.642 185.025 151.995 184.53 151.358C183.846 150.48 183.475 149.462 183.374 148.357C183.331 147.888 183.267 147.422 183.27 146.949C183.272 146.634 183.184 146.327 183.085 146.027C182.811 145.182 182.666 144.317 182.692 143.427C182.74 141.844 183.065 140.327 183.754 138.877C184.868 136.54 186.585 134.739 188.799 133.388C190.176 132.548 191.7 132.055 193.305 131.802C194.449 131.624 195.575 131.723 196.699 131.953C197.505 132.119 198.296 132.34 199.014 132.736C199.912 133.232 200.764 133.795 201.309 134.689C201.502 135.004 201.806 135.222 202.045 135.497C202.357 135.854 202.669 136.216 202.912 136.622C203.204 137.113 203.673 137.475 203.939 137.983C203.967 138.037 204.008 138.094 204.056 138.131C204.73 138.625 204.982 139.403 205.403 140.065C205.59 140.362 205.621 140.751 205.753 141.088C206.08 141.928 206.1 142.835 206.29 143.705C206.402 144.211 206.3 144.763 206.257 145.291ZM185.134 149.754C185.19 150.173 185.233 150.552 185.413 150.917C185.783 150.533 185.732 150.312 185.134 149.754ZM186.886 136.407C186.864 136.384 186.841 136.362 186.815 136.342C186.521 136.605 186.214 136.858 186.103 137.267C186.367 136.979 186.628 136.694 186.886 136.407ZM189.43 153.204C189.354 153.122 189.275 153.058 189.159 153.132C189.146 153.214 189.194 153.254 189.255 153.273C189.326 153.291 189.41 153.323 189.43 153.204ZM196.486 133.279C195.745 132.972 193.782 133.163 191.961 133.792C190.133 134.424 188.548 135.457 187.236 136.873C188.134 136.236 188.956 135.492 189.948 134.982C190.959 134.459 192.025 134.075 193.123 133.777C194.198 133.485 195.301 133.363 196.486 133.279ZM201.071 140.525C200.711 140.394 200.333 140.317 199.955 140.253C199.816 140.228 199.653 140.178 199.559 140.322C199.455 140.478 199.564 140.62 199.651 140.751C199.684 140.803 199.729 140.858 199.783 140.885C200.176 141.1 200.338 141.472 200.485 141.856C200.574 142.087 200.652 142.327 200.868 142.468C201.096 142.426 201.109 142.253 201.142 142.107C201.223 141.74 201.299 141.373 201.365 141.004C201.423 140.687 201.393 140.642 201.071 140.525Z" fill="#FF0000"/>
<path d="M539.569 72.5806C539.556 72.7343 539.531 72.8855 539.548 73.0416C539.579 73.2845 539.526 73.5199 539.371 73.7107C539.219 73.8966 539.171 74.0998 539.176 74.3228C539.181 74.531 539.125 74.7243 539.026 74.9102C538.696 75.5322 538.402 76.1691 538.004 76.7639C537.758 77.1307 537.411 77.4355 537.223 77.8047C536.903 78.4317 536.333 78.8258 535.935 79.371C535.569 79.8716 534.996 80.1739 534.545 80.6002C534.431 80.7092 534.294 80.796 534.185 80.91C533.457 81.6708 532.594 82.2606 531.697 82.8083C530.682 83.4303 529.612 83.9161 528.438 84.1688C527.821 84.3027 527.195 84.3076 526.569 84.2357C525.285 84.0871 524.104 83.6435 523.021 82.9719C522.526 82.6646 521.988 82.4638 521.461 82.2457C520.576 81.879 519.873 81.3114 519.305 80.5704C518.816 79.9311 518.336 79.2842 517.842 78.6473C517.157 77.77 516.787 76.7515 516.685 75.6462C516.642 75.1778 516.579 74.7119 516.581 74.2386C516.584 73.9238 516.495 73.6165 516.396 73.3167C516.122 72.4716 515.978 71.6067 516.003 70.717C516.051 69.1334 516.376 67.6167 517.066 66.167C518.179 63.83 519.896 62.0283 522.11 60.6777C523.487 59.8376 525.011 59.3444 526.617 59.0916C527.761 58.9132 528.887 59.0123 530.01 59.2428C530.817 59.4088 531.608 59.6294 532.326 60.0259C533.223 60.5216 534.076 61.0841 534.621 61.9788C534.814 62.2935 535.118 62.5116 535.356 62.7867C535.668 63.1435 535.98 63.5054 536.224 63.9118C536.515 64.4025 536.984 64.7643 537.251 65.2723C537.279 65.3269 537.319 65.3839 537.367 65.421C538.042 65.9142 538.293 66.6924 538.714 67.354C538.902 67.6514 538.932 68.0405 539.064 68.3776C539.391 69.2177 539.412 70.1247 539.602 70.9946C539.713 71.5001 539.612 72.0528 539.569 72.5806ZM518.445 77.0439C518.501 77.4627 518.544 77.8419 518.724 78.2062C519.095 77.8221 519.044 77.6015 518.445 77.0439ZM520.198 63.6962C520.175 63.6739 520.152 63.6516 520.127 63.6317C519.833 63.8944 519.526 64.1472 519.414 64.5561C519.678 64.2687 519.939 63.9837 520.198 63.6962ZM522.742 80.4936C522.666 80.4118 522.587 80.3474 522.47 80.4218C522.458 80.5035 522.506 80.5432 522.567 80.563C522.638 80.5804 522.721 80.6126 522.742 80.4936ZM529.797 60.5687C529.057 60.2614 527.094 60.4522 525.273 61.0816C523.444 61.7136 521.859 62.747 520.548 64.1621C521.446 63.5252 522.267 62.7817 523.259 62.2712C524.271 61.7483 525.336 61.3642 526.434 61.0668C527.51 60.7743 528.613 60.6529 529.797 60.5687ZM534.382 67.815C534.022 67.6837 533.644 67.6068 533.267 67.5424C533.127 67.5176 532.965 67.468 532.871 67.6118C532.767 67.7679 532.876 67.9092 532.962 68.0405C532.995 68.0926 533.041 68.1471 533.094 68.1743C533.487 68.3899 533.649 68.7617 533.797 69.1458C533.885 69.3763 533.964 69.6167 534.18 69.7579C534.408 69.7158 534.42 69.5423 534.453 69.3961C534.535 69.0293 534.611 68.6626 534.677 68.2933C534.735 67.9761 534.704 67.9315 534.382 67.815Z" fill="#FF0000"/>
<path d="M392.918 130.452C392.796 130.952 392.598 131.428 392.503 131.935C392.495 131.971 392.49 132.012 392.466 132.038C392.136 132.388 391.948 132.833 391.688 133.229C391.33 133.777 390.85 134.212 390.433 134.703C389.997 135.216 389.471 135.635 388.907 136.002C388.566 136.225 388.306 136.546 387.961 136.747C387.414 137.066 386.984 137.555 386.393 137.808C386.298 137.85 386.226 137.945 386.138 138.013C385.873 138.222 385.623 138.458 385.305 138.597C385.205 138.644 385.115 138.719 385.074 138.822C384.963 139.11 384.713 139.182 384.457 139.198C384.31 139.205 384.192 139.244 384.089 139.322C383.839 139.513 383.586 139.697 383.269 139.764C383.228 139.775 383.184 139.816 383.156 139.852C383.006 140.049 382.797 140.095 382.571 140.088C382.369 140.08 382.184 140.119 382.019 140.243C381.908 140.326 381.789 140.38 381.645 140.359C381.609 140.354 381.56 140.352 381.539 140.372C381.282 140.61 380.97 140.528 380.671 140.528C380.648 140.528 380.619 140.522 380.599 140.53C380.266 140.675 379.91 140.709 379.557 140.766C379.402 140.791 379.258 140.843 379.098 140.82C378.866 140.786 378.639 140.866 378.407 140.874C377.946 140.89 377.482 140.882 377.021 140.851C376.464 140.817 375.91 140.768 375.345 140.807C374.68 140.851 374.005 140.838 373.337 140.799C372.744 140.766 372.205 140.507 371.695 140.22C371.187 139.932 370.667 139.661 370.19 139.319C369.911 139.12 369.679 138.869 369.468 138.605C369.153 138.214 368.86 137.811 368.501 137.459C367.857 136.825 367.413 136.054 367.081 135.218C366.738 134.354 366.416 133.485 366.284 132.553C366.205 131.984 366.145 131.42 366.225 130.84C366.326 130.129 366.408 129.415 366.594 128.719C366.679 128.398 366.777 128.085 366.937 127.795C367.009 127.666 367.027 127.51 367.102 127.389C367.365 126.944 367.529 126.442 367.87 126.041C368.027 125.855 368.171 125.658 368.316 125.459C368.805 124.786 369.339 124.144 369.953 123.593C370.365 123.223 370.814 122.882 371.257 122.538C372.283 121.741 373.427 121.146 374.538 120.486C374.997 120.214 375.435 119.904 375.92 119.673C376.626 119.34 377.322 118.972 378.067 118.75C378.572 118.597 379.08 118.434 379.614 118.362C380.312 118.266 381.011 118.191 381.71 118.108C382.137 118.056 382.56 118.028 382.98 118.051C383.854 118.103 384.733 118.196 385.491 118.682C385.849 118.913 386.226 119.039 386.63 119.143C387.538 119.378 388.419 119.704 389.286 120.059C389.835 120.281 390.35 120.605 390.809 120.98C391.25 121.342 391.608 121.787 391.804 122.354C391.956 122.791 392.126 123.215 392.193 123.681C392.229 123.932 392.319 124.206 392.446 124.439C392.536 124.602 392.551 124.724 392.397 124.892C392.649 125.006 392.729 125.169 392.742 125.381C392.753 125.552 392.796 125.72 392.804 125.891C392.838 126.706 392.838 127.526 393.023 128.328C393.188 129.055 393.088 129.759 392.918 130.452ZM367.599 127.451C367.738 127.342 367.78 127.228 367.782 127.096C367.669 127.174 367.568 127.257 367.599 127.451ZM367.901 129.989C367.872 129.987 367.844 129.981 367.816 129.979C367.795 130.007 367.761 130.031 367.751 130.064C367.411 131.06 367.292 132.085 367.354 133.133C367.365 133.332 367.442 133.516 367.586 133.674C367.653 132.437 367.548 131.195 367.901 129.989ZM370.02 125.091C368.916 126.279 367.96 127.557 367.532 129.169C367.916 128.45 368.465 127.844 368.891 127.156C369.066 126.874 369.306 126.644 369.473 126.364C369.697 125.989 369.883 125.593 370.084 125.203C370.099 125.171 370.087 125.133 370.02 125.091ZM370.716 135.544C370.646 135.467 370.592 135.443 370.535 135.524C370.582 135.583 370.633 135.599 370.716 135.544ZM371.649 123.733C371.216 123.997 370.716 124.693 370.661 125.112C370.991 124.651 371.319 124.191 371.649 123.733ZM372.507 122.118C372.358 122.061 372.296 122.142 372.234 122.186C371.535 122.675 370.886 123.221 370.234 123.767C370.035 123.932 369.852 124.108 369.697 124.312C369.298 124.851 368.826 125.332 368.445 125.883C368.184 126.261 367.898 126.626 367.79 127.086C367.859 127.06 367.916 127.024 367.952 126.957C368.39 126.129 368.978 125.417 369.633 124.758C369.821 124.569 370.007 124.372 370.185 124.175C370.594 123.723 371.033 123.303 371.548 122.972C371.909 122.742 372.162 122.403 372.507 122.118ZM378.48 120.509C376.459 120.871 374.649 121.51 373.224 122.98C373.471 122.814 373.811 122.778 374.005 122.548C374.232 122.279 374.554 122.199 374.832 122.056C375.185 121.878 375.567 121.733 375.933 121.572C376.644 121.262 377.356 120.954 378.101 120.729C378.217 120.693 378.343 120.659 378.48 120.509ZM379.413 120.043C379.305 120.007 379.204 119.898 379.083 119.992C378.915 120.124 378.719 120.111 378.526 120.116C378.4 120.118 378.261 120.111 378.178 120.258C378.426 120.336 379.194 120.196 379.413 120.043ZM380.147 119.917C379.97 119.885 379.792 119.893 379.616 119.904C379.524 119.909 379.462 119.958 379.423 120.041C379.681 120.103 379.921 120.069 380.147 119.917ZM388.107 127.935C388.097 127.824 388.022 127.761 387.909 127.777C387.801 127.792 387.783 127.878 387.801 127.968C387.839 128.162 387.87 128.362 387.979 128.618C388.087 128.351 388.128 128.147 388.107 127.935ZM391.425 128.38C391.294 128.615 391.157 128.846 391.134 129.117C391.281 128.89 391.459 128.675 391.425 128.38ZM391.123 125.893C390.979 126.266 391.098 126.628 391.113 127.071C391.345 126.742 391.41 126.442 391.404 126.129C391.399 125.994 391.309 125.886 391.123 125.893ZM391.01 124.209C391.007 124.263 391.036 124.305 391.09 124.312C391.131 124.32 391.16 124.292 391.16 124.25C391.162 124.196 391.134 124.16 391.08 124.147C391.038 124.144 391.013 124.168 391.01 124.209ZM390.935 122.152C390.492 121.549 389.997 121.104 389.257 120.832C389.319 121.135 389.497 121.228 389.644 121.345C389.86 121.516 390.105 121.637 390.306 121.844C390.443 121.989 390.657 122.105 390.935 122.152ZM391.149 133.011C390.894 133.104 390.83 133.265 390.835 133.544C391.01 133.376 391.129 133.249 391.149 133.011ZM391.152 131.078C391.301 130.97 391.363 130.83 391.394 130.602C391.087 130.804 391.082 130.815 391.152 131.078ZM391.466 131.399C391.312 131.531 391.227 131.635 391.201 131.787C391.366 131.741 391.435 131.624 391.466 131.399ZM391.634 131.831C391.456 131.855 391.412 131.927 391.497 132.09C391.639 132.049 391.675 131.971 391.634 131.831ZM391.897 128.067C391.83 128.256 391.77 128.447 391.693 128.631C391.536 129.014 391.35 129.381 391.144 129.738C391.028 129.937 391 130.152 391.121 130.395C391.732 129.715 391.984 128.952 391.897 128.067ZM392 129.591C391.91 129.728 391.845 129.847 391.83 129.994C392.02 129.837 392.02 129.837 392 129.591Z" fill="#008029"/>
<path d="M975.073 130.888C974.83 131.438 974.5 131.929 974.15 132.42C973.329 133.574 972.25 134.403 971.098 135.159C970.305 135.682 969.423 136.001 968.529 136.298C967.442 136.66 966.326 136.813 964.702 136.836C963.854 136.842 962.621 136.475 961.454 135.848C961.345 135.788 961.232 135.727 961.14 135.644C960.686 135.229 960.137 134.951 959.657 134.571C959.427 134.388 959.203 134.214 959.023 133.973C958.836 133.725 958.575 133.559 958.323 133.387C957.772 133.007 957.301 132.535 956.861 132.033C956.702 131.853 956.526 131.697 956.323 131.576C955.383 131.013 954.922 130.133 954.736 129.081C954.69 128.826 954.6 128.614 954.468 128.391C954.21 127.957 954.095 127.46 954.005 126.963C953.986 126.863 954.024 126.769 954.072 126.682C954.288 126.293 954.275 125.868 954.216 125.452C953.996 123.866 954.202 122.353 954.882 120.904C955.802 118.94 957.094 117.274 958.784 115.954C959.592 115.323 960.489 114.783 961.475 114.484C963.081 113.995 964.713 113.821 966.382 114.224C967.668 114.535 968.91 114.943 970.047 115.633C970.522 115.922 970.975 116.254 971.385 116.626C972.234 117.395 973.019 118.226 973.434 119.338C973.605 119.799 973.852 120.222 974.087 120.649C974.409 121.237 974.663 121.864 974.992 122.442C975.308 122.999 975.478 123.575 975.63 124.185C975.832 124.993 975.976 125.789 976.014 126.627C976.079 128.146 975.672 129.534 975.073 130.888ZM955.555 128.835C955.442 128.469 955.347 128.163 955.253 127.857C955.014 128.301 955.079 128.491 955.555 128.835ZM956.11 130.31C956.103 130.193 956.047 130.144 955.9 130.152C955.953 130.263 955.992 130.331 956.11 130.31ZM964.179 115.242C963.542 115.247 962.895 115.287 962.296 115.587C962.922 115.472 963.551 115.357 964.179 115.242ZM968.032 136.003C967.842 135.997 967.75 136.014 967.655 136.099C967.783 136.148 967.865 136.103 968.032 136.003ZM973.792 132.116C973.633 132.08 973.601 132.176 973.559 132.239C972.891 133.232 971.959 133.927 970.99 134.579C970.284 135.053 969.521 135.406 968.736 135.716C968.621 135.761 968.487 135.795 968.386 135.941C968.669 135.927 968.872 135.795 969.088 135.714C970.744 135.106 972.154 134.124 973.339 132.807C973.522 132.603 973.674 132.38 973.792 132.116Z" fill="#FF7080"/>
</svg>
