<svg width="66" height="66" viewBox="0 0 66 66" fill="none" xmlns="http://www.w3.org/2000/svg">
<path d="M7.375 54.45L7.5 54.5769C7.5 54.7038 7.625 54.8307 7.625 54.8307C7.75 54.9577 7.875 55.2115 8 55.3384C8.375 55.5923 8.75 55.8461 9.125 55.973C9.5 56.1 10 56.1 10.5 55.973C10.75 55.973 11 55.8461 11.125 55.7192C11.75 55.7192 14.5 54.5769 14.25 54.5769C15.875 53.9423 17.625 54.0692 19 54.9577L21.5 56.6077L24 58.2577C24.875 58.7654 25.75 59.4 26.75 59.9077C30.75 61.8115 35.375 61.8115 39.375 60.1615C40.375 59.7807 41.375 59.273 42.25 58.6384C43.125 58.0038 43.875 57.3692 44.75 56.7346L49.375 52.8C49.5 52.673 58.875 44.8038 58.75 44.9307C59.125 44.55 59.5 44.0423 59.75 43.5346C60 43.0269 60.25 42.3923 60.25 41.7577C60.25 41.123 59.875 40.3615 59.5 39.9807C58.625 39.2192 57.625 38.8384 56.375 38.9654C59 36.0461 61.125 32.7461 62.5 29.0653C64 24.75 64.125 19.8 62.625 15.3577C61.875 13.2 60.625 11.0423 59.125 9.26535C57.5 7.48843 55.5 6.09227 53.125 5.33073C50.75 4.56919 48.25 4.69612 45.875 5.45766C44 6.09227 42.375 7.23458 40.875 8.63073C39.5 7.23458 37.875 6.21919 36 5.58458C33.75 4.82304 31.25 4.69612 28.875 5.33073C26.5 5.96535 24.5 7.3615 22.875 9.13842C18.5 13.9615 16.75 21.5769 19.125 28.6846C20 31.4769 21.375 33.8884 23 36.173C22.875 36.0461 22.75 36.0461 22.5 35.9192C18.25 34.2692 13.75 34.65 9.875 36.8077L4.625 39.8538L3.375 40.6154C2.625 40.9961 2.125 41.8846 2 42.773C2 43.1538 2 43.6615 2.125 44.0423C2.125 44.1692 2.25 44.2961 2.25 44.2961L2.5 44.423C2.5 44.55 3.375 46.3269 3.375 46.2C3.375 46.2 7.625 54.9577 7.375 54.45ZM21.5 15.7384C22.25 13.8346 23.375 12.0577 24.75 10.5346C26.125 9.13843 27.875 7.99612 29.75 7.48842C31.625 6.98073 33.625 6.98073 35.375 7.74227C37.25 8.37689 38.75 9.64612 40.125 11.1692C40.625 11.8038 41.5 11.6769 42 11.1692C45 7.61535 49.125 6.47304 52.5 7.61535C56.25 8.75766 59.25 12.1846 60.625 15.9923C62.125 19.9269 62.125 24.3692 60.875 28.4307C59.625 32.4923 57.25 36.173 54.375 39.473C54.125 39.6 53.875 39.8538 53.625 39.9807L53.125 40.6154C52.625 40.9961 52.125 41.3769 51.625 41.6307C50.625 42.2654 49.5 42.9 48.5 43.4077C46.5 44.2961 44.375 45.0577 42.25 45.4384C41.875 44.6769 41.25 44.0423 40.5 43.9153C40.25 43.9153 40 43.7884 39.875 43.7884C39.375 43.6615 39.125 43.7884 38.625 43.6615C37.875 43.5346 37.125 43.4077 36.375 43.2807C33.375 42.3923 30.5 41.25 28.25 39.2192C28.25 39.2192 28.25 39.2192 28.125 39.0923C28 38.9653 26.25 37.823 26.375 37.823C24 34.9038 22.125 31.4769 21 27.923C19.875 23.9884 20.125 19.5461 21.5 15.7384ZM4.75 42.6461L6 41.8846L11.25 38.7115C12.875 37.6961 14.625 37.1884 16.5 36.9346C18.375 36.8077 20.25 37.0615 22 37.6961C22.875 38.0769 23.75 38.4577 24.5 38.9654L27 40.6154H26.875C29.5 42.9 32.625 44.0423 35.875 44.8038C36.75 44.9307 37.5 45.0577 38.375 45.1846H39.5H40C40.125 45.1846 40.25 45.3115 40.375 45.3115C40.875 45.5654 41.125 46.073 40.875 46.5807C40.75 47.0884 40.25 47.5961 39.625 47.9769C36.875 49.1192 33.625 49.7538 30.625 48.9923C29.125 48.4846 27.75 47.723 26.375 46.9615C25 46.2 23.625 45.3115 22.375 44.423C23.625 45.4384 24.875 46.4538 26.25 47.3423C27.625 48.2307 29 49.1192 30.5 49.6269C33.75 50.5153 37 50.1346 40.25 48.9923C41 48.6115 41.875 47.9769 42.25 46.9615C42.375 46.4538 42.375 45.8192 42.25 45.3115H42.375C42.625 45.3115 42.75 45.3115 43 45.1846C44.875 44.9307 46.875 44.423 48.625 43.7884C49.75 43.2807 50.875 42.773 52 42.1384C52.5 41.8846 53.125 41.5038 53.625 41.123L54.375 40.6154C54.625 40.4884 54.875 40.3615 55.125 40.2346H55.25C55.25 40.2346 55.25 40.2346 55.375 40.1077C56.625 39.6 58 39.8538 58.875 40.7423C59.125 40.9961 59.25 41.3769 59.25 41.6307C59.25 42.2654 58.625 43.1538 58.125 43.6615L48.5 51.023L43.75 54.7038C43 55.3384 42.125 55.973 41.375 56.4807C40.625 56.9884 39.75 57.4961 38.875 57.75C35.375 59.1461 31.375 59.0192 28 57.3692C26.375 56.6077 24.625 55.3384 23 54.1961L20.375 52.5461C18.375 51.2769 15.75 51.15 13.5 52.0384C13.375 52.0384 10.125 53.4346 10.375 53.4346H10.25H10.125C10.125 53.4346 10 53.4346 10 53.3077C10 53.3077 10 53.3077 10 53.1807C10 53.1807 10 53.1807 9.875 53.0538C9.75 52.9269 5 43.2807 5.125 43.4077L5 43.0269L4.625 43.1538C4.625 43.1538 4.625 43.0269 4.625 42.9C4.625 42.9 4.625 42.773 4.75 42.6461Z" fill="#FF0000"/>
</svg>
