<svg width="110" height="37" viewBox="0 0 110 37" fill="none" xmlns="http://www.w3.org/2000/svg">
<path d="M17.4705 19.8643C17.5081 19.8917 17.5863 19.9252 17.6625 19.9729C17.6067 19.9282 17.5294 19.8877 17.4705 19.8643Z" fill="#FF7800"/>
<path d="M25.4432 19.1841L25.4546 19.2515C25.4989 19.2362 25.4814 19.2117 25.4432 19.1841Z" fill="#FF7800"/>
<path d="M13.0926 20.5335C13.0733 20.5234 13.0743 20.5163 13.055 20.5061C12.9909 20.5184 12.9055 20.5347 12.757 20.5562L13.0926 20.5335Z" fill="#FF7800"/>
<path d="M42.1602 17.9829L42.0536 17.9962C42.1161 17.9982 42.1571 18.0044 42.1602 17.9829Z" fill="#FF7800"/>
<path d="M31.9886 18.482C31.9333 18.4299 31.9569 18.4115 31.9815 18.386C31.9179 18.3911 31.8954 18.4024 31.9886 18.482Z" fill="#FF7800"/>
<path d="M6.22145 18.8966L6.6617 19.0131C6.50515 18.9462 6.32621 18.8904 6.22145 18.8966Z" fill="#FF7800"/>
<path d="M3.88921 20.6541C3.90863 20.6638 3.94937 20.6699 3.96879 20.6795C3.94937 20.6699 3.92996 20.6602 3.88921 20.6541Z" fill="#FF7800"/>
<path d="M6.67904 20.7661C6.68213 20.7446 6.64528 20.7099 6.62995 20.6711C6.58589 20.6865 6.54079 20.709 6.67904 20.7661Z" fill="#FF7800"/>
<path d="M6.59413 20.6217C6.61269 20.639 6.61063 20.6533 6.62919 20.6707C6.63125 20.6564 6.65393 20.6452 6.59413 20.6217Z" fill="#FF7800"/>
<path d="M107.781 19.9239C107.942 19.9553 108.101 19.8627 108.258 19.7843L107.781 19.9239Z" fill="#FF7800"/>
<path d="M57.5132 17.2876L57.5451 17.3581C57.5688 17.3397 57.5513 17.3152 57.5132 17.2876Z" fill="#FF7800"/>
<path d="M108.239 18.6146L108.356 18.6684C108.32 18.6339 108.28 18.6207 108.239 18.6146Z" fill="#FF7800"/>
<path d="M7.42271 17.9125C7.21951 17.7369 7.82758 17.8421 7.51551 17.7011C7.44425 17.7632 7.0375 17.7025 7.42271 17.9125Z" fill="#FF7800"/>
<path d="M55.1148 10.9995L55.2207 10.993C55.159 10.9838 55.1374 10.988 55.1148 10.9995Z" fill="#FF7800"/>
<path d="M108.239 18.6141L108.122 18.5603C108.118 18.5888 108.135 18.6131 108.152 18.6446C108.175 18.6263 108.197 18.6151 108.239 18.6141Z" fill="#FF7800"/>
<path d="M74.4316 17.564C74.4296 17.5783 74.4083 17.5824 74.4073 17.5895L74.4316 17.564Z" fill="#FF7800"/>
<path d="M75.5098 17.8724C75.466 17.8877 75.4019 17.9 75.3582 17.9152C75.4588 17.9375 75.4833 17.9121 75.5098 17.8724Z" fill="#FF7800"/>
<path d="M108.237 19.7866L108.518 19.7122C108.434 19.7143 108.326 19.7418 108.237 19.7866Z" fill="#FF7800"/>
<path d="M85.3066 18.2542C85.285 18.2583 85.2429 18.2595 85.2213 18.2637C85.2624 18.2698 85.284 18.2656 85.3066 18.2542Z" fill="#FF7800"/>
<path d="M31.2607 18.4709C31.221 18.4577 31.1804 18.4516 31.1397 18.4456C31.1966 18.4831 31.2342 18.5105 31.2607 18.4709Z" fill="#FF7800"/>
<path d="M30.7454 13.6999C30.9081 13.7241 30.8859 13.59 30.7996 13.4682C30.6744 13.4713 30.6256 13.5222 30.7454 13.6999Z" fill="#FF7800"/>
<path d="M31.6514 13.462C31.6308 13.4589 31.6103 13.4559 31.5703 13.443C31.6308 13.4589 31.6514 13.462 31.6514 13.462Z" fill="#FF7800"/>
<path d="M24.261 13.9929C24.261 13.9929 24.2803 14.0027 24.2793 14.0095C24.2803 14.0027 24.2803 14.0027 24.261 13.9929Z" fill="#FF7800"/>
<path d="M25.5583 13.7802C25.6376 13.8066 25.6966 13.8299 25.7576 13.839C25.6987 13.8157 25.6194 13.7893 25.5583 13.7802Z" fill="#FF7800"/>
<path d="M47.2535 10.6179C47.0845 10.6371 46.8951 10.6532 46.7251 10.6795C46.555 10.7059 46.3636 10.7364 46.1935 10.7628C45.832 10.8197 45.4685 10.891 45.0866 10.9449C44.3422 11.0629 43.5613 11.1459 42.8133 11.1452C42.9078 11.499 42.4659 11.5366 42.0982 11.6369L41.5186 11.1886L41.3084 11.3493C40.9943 11.2212 41.5092 11.2537 41.0131 11.0911L41.2004 11.3775C40.974 11.2182 40.1065 11.3252 40.3448 10.9693L39.6119 11.0078C39.3605 11.022 39.1294 11.0393 38.878 11.0535C38.5441 11.0628 39.1545 11.4418 38.6683 11.3546C38.4367 11.2314 38.6829 11.2534 38.4554 11.1013C36.9551 10.8407 38.3189 12.0485 37.0705 11.9141L37.0799 11.849C37.0612 11.9792 36.7273 11.9885 36.8014 12.0512C37.5072 12.4888 36.6516 11.7926 37.3022 12.0373C37.767 12.4167 37.1864 12.2637 37.6017 12.5546C37.2031 12.4361 37.357 12.6658 37.1859 12.6994C36.5302 12.4909 36.2923 12.6992 35.646 12.4256C35.6476 12.5588 35.9658 12.9459 35.6278 12.9842C34.9814 12.7106 35.2949 12.6982 34.8088 12.611L35.0472 12.8312C34.7164 12.8188 34.6841 12.7549 34.5532 12.6541C34.2386 12.6737 34.7149 12.9737 34.1484 12.8671L34.0576 12.632C33.8964 12.7409 33.7336 12.7166 33.3367 12.7313C33.1682 12.6028 33.3351 12.5981 33.4978 12.6224C32.8353 12.3168 33.3273 12.7964 33.1849 12.7752C33.3586 12.8675 33.6679 12.8841 33.8432 13.1096C33.597 13.0877 33.8574 13.4441 33.3524 13.199L33.2605 12.9711C33.1062 13.177 33.4265 13.2617 32.8709 13.2232C32.874 13.2015 32.7775 13.1502 32.7217 13.105C32.8438 13.4112 32.1056 13.1978 31.6455 13.2178L31.6346 13.1497C31.5793 13.2449 31.7588 13.4415 31.655 13.4408C32.077 13.5406 32.1083 13.6118 32.4312 13.8224C32.0186 13.6575 32.0436 13.772 32.0859 13.9112C32.1282 14.0505 32.1673 14.2114 31.7636 14.1291C31.594 14.0078 31.4938 13.8378 31.8303 13.9544C31.4703 13.5684 31.0175 13.2498 31.0884 13.0461C31.0117 13.1455 30.8547 13.2255 30.6904 13.0681L31.139 13.4156C31.0321 13.4366 30.909 13.4256 30.8245 13.4352C31.0833 13.6584 31.5877 13.7631 31.521 13.9378C31.376 14.0787 30.8412 13.6075 31.0259 13.768C30.8126 13.9504 31.4062 14.1571 30.8345 14.0866C30.8387 14.0577 30.8277 13.9896 30.907 14.0162C30.4229 13.9145 30.305 14.1554 29.594 13.754C29.5037 13.6593 29.3138 13.535 29.4776 13.552L29.572 13.6178C29.4338 13.2796 29.4312 13.7297 28.9664 13.3503C29.33 13.5669 28.8323 13.5592 28.5851 13.5445L29.028 13.7878C29.5544 14.6049 28.3101 13.2894 27.8495 13.4571C27.7155 13.666 28.1119 13.5109 28.1448 13.7153C27.8141 13.7029 27.3873 13.4916 27.1771 13.6523C26.9189 13.5695 26.4979 13.4624 26.0399 13.1799C25.9987 13.3215 25.1515 13.1435 25.4426 13.4307C26.2053 13.6182 25.3675 13.0871 26.4035 13.3966L26.6946 13.6837C26.3587 13.7075 26.1647 13.9002 25.8005 13.8311C25.9388 13.8813 26.0546 13.9429 26.1287 14.0056C25.8564 14.1644 26.1475 14.4516 25.5899 14.4275C25.1256 14.1885 25.4563 14.2008 25.6091 14.1497C25.0092 13.9865 25.2946 14.1693 24.7359 14.1525C24.3509 13.94 25.0515 14.1257 24.751 13.9037C24.6206 13.9433 24.5095 13.9932 24.378 14.0401C24.3587 14.0298 24.3405 14.0123 24.3018 13.9918C24.8298 14.3659 23.8835 14.0107 23.7781 14.1649C23.099 14.2631 23.7954 14.7657 23.9123 15.1081C23.6541 15.0253 23.459 14.9371 23.3484 14.8394C23.7855 14.9784 23.5336 14.8522 23.4444 14.7503C23.2884 14.8231 22.3421 14.4678 22.2408 14.305C22.052 14.4615 22.6942 14.476 22.653 14.6176L22.1063 14.6616C22.4762 14.8349 22.7234 14.8496 22.6974 15.0304C22.5607 15.1134 22.398 15.0892 22.1017 15.1263C21.9911 15.0285 21.5367 14.8648 21.7688 14.8403C21.5257 14.7967 21.2936 14.8212 21.5158 15.0094C22.1017 15.1263 21.2942 15.2496 22.0068 15.4962L21.4209 15.3793C21.5055 15.3697 21.2942 15.2496 21.458 15.2666C20.893 15.0052 21.3578 15.3847 21.2895 15.4262C21.0871 15.3886 20.7725 15.4082 20.5581 15.3098C20.6067 15.4056 20.2566 15.383 19.965 15.2435C19.9128 15.317 20.2718 15.4222 20.3824 15.5199L19.855 15.5743C19.5644 15.4276 18.7527 15.0037 18.7203 14.9398C18.7991 15.1141 19.4648 15.3979 19.1685 15.435C18.7991 15.1141 18.4016 15.2764 18.0009 14.8843C17.4469 14.691 17.0171 14.7894 16.917 14.9074C17.1909 15.1698 17.4245 14.9904 17.8461 15.2379C17.3171 15.4471 18.4883 16.1165 17.7851 16.093L18.0282 16.1366C17.9797 16.3288 17.9432 16.2938 18.1389 16.5223C17.9114 16.3703 17.4602 16.1848 16.9995 16.0645C16.5603 15.9399 16.1127 15.8732 15.914 15.9544C16.1618 16.1095 16.7132 16.1769 17.0716 16.4297L16.8269 16.541C16.7669 16.5247 16.6928 16.4619 16.6777 16.4227C16.5917 16.5872 15.4075 16.1522 15.9792 16.5106L14.8681 16.1456L15.3438 16.3052C15.5713 16.4572 15.3267 16.5685 15.3783 16.6427C15.3449 16.874 14.986 16.7688 14.4461 16.6219C14.7419 16.7324 15.4138 16.9729 15.2333 17.0716C14.3037 16.6007 14.3277 17.0105 13.8645 16.7641C13.7769 16.7954 13.2938 16.6865 13.6809 16.8845L13.1211 16.5869C13.9136 17.0004 13.4879 17.0699 13.3439 17.2036C12.3037 16.6349 13.1197 17.3178 11.9621 16.8425C12.6752 17.2294 11.7372 17.1044 12.3335 17.437C12.1572 17.5067 11.4603 17.1517 11.1634 17.0484L11.3481 17.2089C11.1092 17.1363 10.8833 17.1175 10.636 17.1028C10.3877 17.0953 10.1587 17.0981 9.91355 17.0689L10.3773 17.4556L9.97983 17.3299C10.1118 17.4234 10.0362 17.5156 10.3972 17.6063L10.2292 17.6182C10.9669 17.9793 10.2715 17.7574 10.3451 17.9678C10.1641 17.9261 10.0107 17.8367 9.95694 17.777C9.82862 17.8022 9.50256 17.6133 9.18538 17.5069C9.46604 17.5783 10.0968 18.2484 10.7703 18.334C11.1036 18.4723 11.1438 18.626 10.8783 18.5938L10.1312 18.2979L10.7009 18.6708C10.6253 18.7629 10.1109 18.5829 9.88296 18.5784C9.99511 18.5213 8.90322 17.8785 8.53338 17.9932C8.65074 17.8999 8.3685 17.6954 8.34032 17.6025C8.23547 17.6091 8.1134 17.5909 7.97149 17.422C7.86301 17.5979 8.29234 17.6471 8.06804 17.7614C7.4655 17.4722 7.18483 17.4008 6.70961 17.3816L7.3523 17.5365C7.40917 17.5745 7.46708 17.6053 7.48534 17.6228C7.6288 17.6368 7.74878 17.6695 8.00283 17.7812C7.93867 17.7938 8.41656 18.2269 8.00287 18.0692C9.26062 18.4266 8.22411 18.5528 9.00401 18.765C9.15738 18.8543 8.98003 18.9313 8.64669 18.793C8.41765 18.5077 7.74993 18.5264 7.36493 18.3139C7.4531 18.4231 8.02797 18.4718 8.13231 18.6129C8.02017 18.6701 7.54127 18.5322 7.26062 18.4608L7.20792 18.3939L6.69721 18.3326C6.9664 18.4835 7.44059 18.5098 7.40148 18.6369C7.22047 18.5952 7.15997 18.7265 6.9273 18.6106C6.60541 18.3927 5.95384 18.1553 6.03051 18.0559C5.91732 18.1203 5.51984 18.2826 6.30078 18.4877L6.1083 18.5254C6.49068 18.612 7.28308 18.7375 7.01393 18.8746L6.89708 18.8203L7.12715 19.0983L6.68686 18.981C6.84337 19.0486 6.9571 19.1246 6.85017 19.1456C6.63263 19.0689 6.48813 19.0621 6.23407 18.9504C6.0129 19.043 6.34729 19.1741 6.49963 19.2706C6.40679 19.338 6.20542 19.2933 5.89972 19.1074C5.62585 19.133 5.35669 19.2701 4.89397 19.1643C4.92686 19.3686 5.07499 19.206 5.37341 19.4425C4.02019 19.0266 4.07347 19.522 3.79597 19.717C4.90505 20.0965 3.80381 19.8068 4.61972 20.2017C4.39331 20.0424 3.46216 20.0144 3.53828 19.7746L3.4178 19.8896C2.71616 19.7112 3.37707 19.5955 2.39269 19.3601C2.17048 19.4599 3.11629 19.9628 2.45901 19.9092C1.84133 19.5808 2.47571 20.0815 1.75631 19.738C1.56641 19.6136 1.71196 19.6132 1.7396 19.5656L1.55858 19.5238C0.816289 19.6274 2.2493 19.9222 2.45591 20.2189C2.22641 20.3693 1.62491 20.0729 1.26912 19.946C1.08707 19.9115 1.03178 20.0066 1.11995 20.1158C0.884653 19.8739 1.94313 20.172 2.30675 20.3887C1.35 20.1058 1.74651 20.5268 1.99327 20.6891C3.31673 20.879 2.35998 20.5961 3.71891 20.8281C3.52901 20.7038 2.78198 20.4078 3.33858 20.4391C3.5384 20.6388 3.75122 20.604 3.91294 20.6355C3.43613 20.4832 3.91136 20.5023 3.8211 20.4076C4.24104 20.5219 4.62867 20.8603 5.06842 20.8373L4.13148 20.417C4.37771 20.4389 4.81331 20.7328 4.7966 20.5604C5.19674 20.8121 5.62398 20.8758 5.4962 21.0414C6.68925 21.2709 5.59005 20.6787 5.50134 20.4291C5.53786 20.4641 5.65471 20.5184 5.69124 20.5534C5.50134 20.4291 5.61036 20.3937 5.638 20.3461C6.04802 20.385 5.93745 20.5754 6.23533 20.6714L6.52066 20.5663C6.56031 20.5796 6.58065 20.5826 6.59995 20.5929C6.54935 20.5115 6.53734 20.4506 6.81487 20.5436C7.04129 20.703 7.33187 20.8497 7.52177 20.974L7.16178 20.588C7.45235 20.7347 7.97035 20.7454 7.98811 20.9105L8.32872 20.7102L9.01785 20.9754C9.00897 20.8928 8.89212 20.8385 8.68346 20.8443C8.99281 20.8609 8.26552 20.1395 9.45027 20.7149C9.29164 20.3737 9.61716 20.4222 9.75954 20.1554C9.9985 20.5159 10.9129 20.3716 10.7972 20.5981C11.2865 20.6636 10.6474 20.3394 10.723 20.2473C11.1482 20.3254 11.708 20.623 11.7695 20.7725L11.6918 20.5911L11.8086 20.6454L11.6313 20.4343C12.1571 20.5349 12.299 20.7037 12.5911 20.6956L12.0679 20.4329L12.5296 20.5461C12.2327 20.4427 12.2238 20.3602 12.336 20.303L12.4528 20.3574L12.5285 20.2653C12.6866 20.4661 12.7971 20.2757 13.1211 20.4791C13.2912 20.4528 13.2922 20.4456 13.4544 20.3294L13.0407 20.1717C13.0751 19.9331 13.6067 20.426 13.9276 20.363L13.4773 20.1703C14.6083 20.398 13.7798 19.8018 14.5488 19.946C14.4732 20.0381 15.0027 20.2574 14.8858 20.203C14.9891 20.0633 15.5368 20.012 15.2916 19.6948C16.0011 19.963 16.2176 20.047 16.77 20.1072C16.9453 20.0447 16.9098 20.0025 16.6244 19.8196C17.072 19.8863 17.0881 19.6302 17.5352 19.8446C17.2285 19.6659 17.7856 19.8376 17.602 19.6699L17.7981 19.7508L17.3693 19.554C18.6453 19.9288 17.4684 19.1551 18.6275 19.4756L18.6802 19.5425L18.6755 19.4311C18.8716 19.512 18.9233 19.5862 19.156 19.7021C19.4116 19.6589 19.6672 19.6158 19.9421 19.5829L19.5028 19.4584C19.6139 19.4084 19.3348 19.1822 19.7579 19.2748C20.0579 19.6445 20.0338 19.2347 20.5409 19.4654L20.5456 19.5769C20.7209 19.5144 20.7209 19.5144 20.2931 19.3103C20.436 19.1839 21.2394 19.6655 21.0714 19.3893L20.88 19.4199C20.5842 19.3093 20.4047 19.1127 20.532 19.0948C20.6316 19.1244 20.892 19.1927 20.844 19.2373C20.9034 19.1132 21.4386 19.1487 21.3901 19.0528C21.6332 19.0964 21.881 19.2515 21.9134 19.3154C22.0364 19.0383 22.2044 19.3145 22.3275 19.0374L22.5388 19.1575L22.4386 18.9875L23.1361 19.1949L22.761 19.0577C22.8721 19.0078 22.8246 18.9047 23.1309 18.943L23.3734 19.1342C23.6489 18.9537 24.4251 19.3353 24.3886 19.0123C24.4678 19.0388 24.5205 19.1058 24.5357 19.145C24.4198 18.7953 25.4121 19.4085 25.1804 18.9973C25.2545 19.0601 25.4324 19.1235 25.5075 19.179L25.4866 19.0356L25.9092 19.2758L25.424 18.8933L25.9728 19.1228L25.845 19.0004C26.8633 19.4328 26.5258 19.0354 27.3959 19.3423L26.8148 19.0489C26.5982 18.6769 27.1345 18.7051 27.7693 18.7702C28.4042 18.8353 29.0959 18.9384 29.2706 18.7355L29.6718 18.9799L29.5335 18.6417C30.05 18.8073 29.7709 18.8691 30.0453 18.9839C30.1762 18.7966 29.6019 18.6002 29.9117 18.4691C30.412 18.6028 30.134 18.6574 30.1815 18.7604C30.3734 18.5823 30.7375 18.3633 31.244 18.4535C31.1872 18.4155 31.1517 18.3733 31.112 18.36C31.196 18.21 31.7281 18.2672 32.0051 18.2198C32.1757 18.3339 32.1298 18.364 32.1042 18.3971C32.2294 18.3936 32.5111 18.4577 32.425 18.3341L32.6624 18.5615C32.9514 18.5751 33.0917 18.3227 33.5346 18.566C33.3609 18.4736 33.0755 18.2908 33.2863 18.2705C33.9822 18.6327 33.569 18.0393 34.2106 18.2014C34.3212 18.2992 34.1063 18.3484 34.1898 18.3461C34.5111 18.4235 34.3723 18.2329 34.3301 18.0937L34.5158 18.2469C34.6556 18.1422 34.7943 18.0447 34.9331 17.9472C35.6279 18.3167 35.5554 17.811 35.93 18.0958C36.2231 18.0804 35.4511 17.958 35.7333 17.8745C36.0656 18.02 35.9362 17.7644 36.2753 18.007L36.2915 18.0389L36.5053 17.9969L36.7172 18.2575C36.8528 18.1817 36.641 17.9211 36.3566 17.731C36.7562 17.8423 36.8595 17.7026 37.2862 17.9139L37.2972 17.982C37.4959 17.9009 37.9738 18.0459 38.3744 18.15C38.7751 18.254 39.0974 18.3242 39.026 18.0994C39.1042 18.1332 39.1997 18.1917 39.1162 18.1941L39.4725 18.1733L39.653 18.3627L39.8058 18.0236L39.9743 18.1521C40.4089 18.1652 40.9039 18.0469 41.3316 17.963L41.3426 18.0311C41.606 17.7897 42.0171 18.1094 42.2284 17.9415C42.2649 17.9765 42.2628 17.991 42.2617 17.9982L42.5998 17.9599L42.6848 18.0908C42.581 17.802 43.8899 18.3812 43.4224 18.1638C43.3995 18.0348 43.4652 17.8674 43.3008 17.7099C43.6602 17.6675 43.6107 17.8669 43.9931 17.9534C44.2852 17.9453 44.0468 17.7251 44.5758 17.8039L44.7239 17.9294C44.8747 17.8928 44.8679 17.7958 45.0807 17.761L45.0917 17.8291C45.1548 17.5357 46.0818 18.1687 45.6868 17.5929C45.9858 17.6817 46.208 17.5819 46.5246 17.8359C46.8235 17.6367 47.1292 17.5346 47.5022 17.3982C48.087 17.8103 47.5898 17.3669 48.1814 17.588L47.8809 17.366C48.5762 17.2997 50.0614 17.8092 50.7458 17.6748L51.0249 17.9011L50.8955 17.6454C51.8835 17.7115 53.0823 17.7572 53.7714 17.7343C53.8726 17.6091 53.9143 17.3199 54.3608 17.3938L54.3567 17.4227C54.8559 17.2756 55.4333 17.1622 56.2492 17.2691C56.2977 17.3649 56.4339 17.4295 56.4245 17.4946C56.3368 17.2378 56.8225 17.4727 56.968 17.4722L56.6175 17.3092C56.5867 17.0904 57.0979 17.2922 57.3457 17.4473L57.4229 17.2003C57.4615 17.2208 57.5397 17.2546 57.5752 17.2969L57.5095 17.1763L57.9654 17.4732C57.9748 17.4081 58.3191 17.3265 58.1725 17.0461C58.3034 17.1469 58.6675 17.2159 58.4923 17.2784L59.7286 17.3519L59.4521 17.2516C59.2147 17.0242 59.4229 16.878 59.6993 16.9783C59.6316 17.1602 59.9852 17.3016 60.232 17.4639C60.2711 17.3368 59.907 17.2677 59.883 17.146C59.9466 16.993 60.2909 16.9114 60.4839 17.014L60.45 17.1049C60.6488 17.0238 61.1329 17.4135 61.3854 17.3921C61.4532 17.2101 61.7823 17.3774 61.3817 16.9853C61.6628 16.909 61.7594 17.2484 61.8997 17.2841C61.9054 17.1003 62.4912 17.2172 62.7125 17.4126C62.3999 16.8416 63.8262 17.6156 63.4798 17.1355L64.002 17.4054C63.8955 17.2788 63.7082 16.9923 63.9028 16.9401C64.2362 17.0784 64.3697 17.3051 64.5586 17.4367L64.3149 16.9646C65.171 17.2251 65.9321 17.2795 66.6963 17.3122C67.088 17.3336 67.4798 17.3551 67.8684 17.3982C68.2774 17.4444 68.6833 17.5123 69.1043 17.6194C69.3802 17.5793 69.6614 17.503 69.9801 17.4545C70.1501 17.4281 70.3192 17.409 70.4871 17.3971C70.6551 17.3852 70.8606 17.4011 71.0448 17.4211L71.0151 17.4832L71.8236 17.6406L71.1507 17.4074C71.2618 17.3575 71.3364 17.2726 71.5012 17.2824C71.9629 17.3955 72.5059 17.5208 73.0359 17.5924C73.5659 17.664 74.0626 17.6789 74.4913 17.5877C74.7944 17.0716 75.2082 18.0934 75.5738 17.7195C75.5461 17.7671 75.5764 17.8455 75.5691 17.8961C76.11 17.7478 76.4126 17.6673 76.9113 17.3797C77.1252 17.9138 77.3458 17.3928 77.4303 17.6713L77.2988 17.4301C77.5273 17.575 77.8925 17.6368 77.9317 17.7977L78.073 17.5381L78.2269 17.7679C78.6166 17.8038 79.363 17.6713 79.795 18.1345C80.5848 17.846 82.1748 18.0609 83.4179 18.2314C83.505 18.0597 83.8571 18.0679 84.1268 18.0712L84.5217 18.359C84.7794 18.3014 84.9484 17.9942 85.2745 18.1831C85.2906 18.2151 85.2875 18.2368 85.2651 18.2482C85.54 18.2153 85.8488 18.3795 86.047 18.1579C86.3736 18.1992 86.7241 18.3623 86.7111 18.5967C86.6589 18.3821 86.8217 18.4064 87.0168 18.4945C87.2119 18.5827 87.4008 18.7142 87.4008 18.7142C87.4008 18.7142 87.6653 18.7537 88.1128 18.8204C88.5604 18.8871 89.2328 18.9799 90.008 19.0807C90.3956 19.1311 90.8442 19.1906 91.2939 19.2428C91.7629 19.3053 92.2319 19.3678 92.7426 19.4292C93.2533 19.4905 93.7843 19.5549 94.3164 19.6121C94.8688 19.6723 95.4192 19.7469 95.9716 19.8071C96.5444 19.8703 97.0979 19.9233 97.6717 19.9792C98.2455 20.0352 98.8194 20.0912 99.3942 20.14C99.9691 20.1887 100.525 20.2272 101.081 20.2585C101.35 20.269 101.638 20.2898 101.905 20.3075C102.174 20.318 102.442 20.3357 102.71 20.3462C103.227 20.3642 103.746 20.3677 104.225 20.3651C104.474 20.3654 104.704 20.3553 104.934 20.3453C105.164 20.3353 105.374 20.3222 105.604 20.3122C106.464 20.2558 107.189 20.1275 107.758 19.9316C107.929 19.7504 108.335 19.6778 108.248 19.4138C108.564 19.387 108.614 19.7564 108.725 19.5661C108.358 19.3711 108.964 19.0626 108.614 18.7519L108.906 18.7437C108.988 18.6082 108.516 18.8555 108.636 18.6001L108.479 18.9681C108.284 18.8799 108.193 18.7852 108.131 18.643C107.905 18.7645 107.689 19.2566 107.253 18.9627L107.378 18.9592C106.99 18.9161 107.19 18.68 107.118 18.6028L107.199 18.615L106.943 18.3773C107.168 18.5438 107.62 18.2936 107.413 18.2849C106.981 18.1098 107.522 18.3971 107.17 18.389C106.963 18.3803 107.054 18.1797 107.071 18.0641L106.682 18.0209C106.729 17.8432 106.946 18.0675 106.809 17.8625L106.294 17.9777C106.277 17.5173 105.734 18.1158 105.571 17.6559C105.932 17.6062 105.552 17.498 105.634 17.3625C105.349 17.3272 105.062 17.2992 104.776 17.264C104.704 17.1868 105.019 17.16 104.894 17.1635C104.749 17.0163 104.614 17.2325 104.533 17.2204C104.469 17.0853 103.881 17.1306 103.944 16.8372C103.361 16.551 103.666 17.1798 103.139 16.9389C103.084 16.746 103.573 16.9592 103.356 16.7348L102.776 16.7222C102.829 16.6415 102.9 16.4379 103.117 16.5146C102.339 16.2879 101.753 15.8902 101.174 15.5823C100.595 15.2672 100.009 15.0099 99.2772 15.0412C99.0633 14.7951 99.4202 14.9148 99.5631 14.7883C99.0326 14.8644 98.6617 14.6983 98.2959 14.4961C98.1233 14.3965 97.9313 14.2866 97.7565 14.2015C97.5614 14.1133 97.3632 14.0469 97.1373 14.028L97.093 14.1912C96.4377 13.8351 95.7309 13.6928 94.9974 13.5908C94.6302 13.5435 94.2629 13.4961 93.8957 13.4488C93.5295 13.3942 93.1633 13.3396 92.783 13.2386L92.9698 13.3846C92.8013 13.5442 92.4919 13.5276 92.276 13.584C92.2275 13.4882 92.3719 13.2069 91.9718 13.2433C92.0652 13.3163 92.2603 13.4044 92.2275 13.4882C91.5853 13.1856 90.5946 12.9937 89.5174 12.8257C88.4391 12.665 87.2743 12.5283 86.2236 12.32C85.5429 12.285 84.8428 12.2398 84.1459 12.1728C83.4286 12.1028 82.7134 12.0184 81.9789 11.9237C80.5271 11.759 79.0957 11.5973 77.7707 11.5623C78.1635 11.5766 78.223 12.0286 77.8673 11.9017C77.2631 11.4793 76.9079 11.4928 76.5699 11.5311C76.2308 11.5765 75.9293 11.6498 75.3481 11.3563C74.6293 11.4412 73.8421 11.2796 73.0862 11.1891C72.3314 11.0913 71.612 11.0358 71.0737 11.3101L70.8984 11.0846C70.624 10.9698 70.6642 11.1235 70.4545 11.1366L70.4222 11.0727C69.8353 10.963 69.3481 11.1711 68.9709 11.0484L69.1217 11.2998C68.8296 11.308 68.8395 11.0952 68.6121 11.2312L68.5474 11.1034L68.3278 11.3292C68.0596 10.883 67.4232 11.2608 67.0372 11.0556C66.6746 11.1197 66.0481 11.2848 65.3768 11.1848C65.0987 10.9513 64.3527 10.9361 63.7893 10.8078C63.3506 10.8237 62.8071 10.8461 62.2249 10.8479C61.6417 10.857 61.0199 10.8456 60.4033 10.798L60.6527 11.0863L60.3595 11.1016C60.3068 11.0347 60.2489 11.0039 60.2734 10.978C59.7606 10.6431 59.6574 11.0708 59.2296 10.8668C59.6073 11.1299 59.4727 10.9104 59.6589 10.916C60.033 11.0604 60.0137 11.3381 59.5572 11.1889L59.5045 11.1219L59.4002 11.2689C59.1832 11.0445 58.8874 10.9339 58.6704 10.7095C58.1899 10.7266 57.8618 10.8401 57.5155 10.9362C57.1701 11.0251 56.8066 11.0965 56.2531 11.0435C56.1237 10.7879 55.5781 11.1128 55.372 10.6684C54.9114 10.8361 55.7982 11.0274 55.7951 11.3371C55.6089 11.3315 55.5505 11.4484 55.3658 11.2879C55.3397 11.1806 54.9881 11.0248 55.0778 10.9791L54.6991 11.0113C54.6208 10.9775 54.6709 10.9185 54.6751 10.8895C54.0768 11.1475 52.9265 10.6215 52.4309 10.8874C52.5321 11.0502 52.7778 10.9317 52.8598 11.0843C52.4373 11.4201 51.9223 10.8116 51.4523 11.0444L51.3798 10.8268C51.2958 10.9767 51.3929 11.1684 50.8561 10.9998C50.5201 10.7355 50.9494 10.7848 51.0089 10.6607C50.8847 10.6569 50.6536 10.6742 50.5425 10.7241C50.4111 10.771 50.3793 10.8475 50.5906 10.9676C50.3694 11.0602 50.0282 10.8321 49.7882 10.7668C49.842 10.8265 50.2426 10.9305 50.1832 11.0546C49.6208 10.9191 48.9938 10.9438 48.4758 10.9331C48.422 10.8733 48.2708 10.7696 48.2953 10.7437C48.3052 11.1071 47.7433 10.5358 47.2535 10.6179Z" fill="#FF7800"/>
<path d="M24.0124 13.9753L24.2392 13.9873C24.1436 13.9295 24.0481 13.8716 24.038 13.7975L24.0124 13.9753Z" fill="#FF7800"/>
<path d="M32.7182 13.133C32.7213 13.1116 32.7038 13.087 32.6873 13.0554C32.6636 13.0737 32.7017 13.1013 32.7182 13.133Z" fill="#FF7800"/>
<path d="M34.2254 12.4868C34.1531 12.5559 34.3737 12.6106 34.5323 12.6633C34.4764 12.6187 34.4023 12.5567 34.2254 12.4868Z" fill="#FF7800"/>
<path d="M20.5756 15.333C20.5593 15.3016 20.5228 15.267 20.4252 15.2234C20.4597 15.2722 20.5176 15.3026 20.5756 15.333Z" fill="#FF7800"/>
<path d="M8.63167 17.6015C8.67242 17.6076 8.69279 17.6106 8.75293 17.6265C8.71316 17.6137 8.67242 17.6076 8.63167 17.6015Z" fill="#FF7800"/>
<path d="M9.99142 17.8109C10.0131 17.8069 10.0368 17.7885 10.043 17.7456C9.97904 17.7507 9.97492 17.7793 9.99142 17.8109Z" fill="#FF7800"/>
<path d="M23.4229 14.7606C23.467 14.7452 23.47 14.7238 23.4158 14.6646C23.3707 14.6871 23.386 14.7258 23.4229 14.7606Z" fill="#FF7800"/>
<path d="M10.0774 17.6608L10.2869 17.6484C10.2473 17.6353 10.229 17.618 10.1893 17.6048L10.0774 17.6608Z" fill="#FF7800"/>
<path d="M8.37841 17.6221C8.46283 17.6129 8.52795 17.5935 8.63067 17.6016C8.42832 17.5641 8.36422 17.5764 8.37841 17.6221Z" fill="#FF7800"/>
<path d="M16.7161 16.4424C16.7171 16.4353 16.7171 16.4353 16.7171 16.4353C16.6717 16.3117 16.6635 16.3688 16.7161 16.4424Z" fill="#FF7800"/>
<path d="M9.90976 17.0971C9.93025 17.1002 9.93025 17.1002 9.95074 17.1032L9.85655 17.0308L9.90976 17.0971Z" fill="#FF7800"/>
<path d="M7.51555 17.7002C7.53794 17.689 7.53999 17.6748 7.50341 17.6402C7.46171 17.6413 7.42104 17.6352 7.35798 17.6404C7.43728 17.6667 7.4759 17.687 7.51555 17.7002Z" fill="#FF7800"/>
<path d="M13.5789 16.5812C13.71 16.6807 13.8055 16.7385 13.9031 16.7821C13.9469 16.7668 13.9113 16.7252 13.5789 16.5812Z" fill="#FF7800"/>
</svg>
