<svg width="37" height="38" viewBox="0 0 37 38" fill="none" xmlns="http://www.w3.org/2000/svg">
<path d="M0.293932 30.401C0.487838 32.5503 0.521726 36.1573 2.78836 37.1255C2.88437 37.2488 2.98603 37.3628 3.10275 37.4506C5.35809 39.1364 8.50201 36.5087 10.3997 35.378C15.6653 32.2494 34.0939 20.3573 36.8293 16.1709C37.1136 15.7335 37.0138 15.3205 36.7427 15.0327C36.7239 14.7337 36.5902 14.4384 36.257 14.2328C33.2034 12.3788 19.5584 6.20193 15.7556 4.80396C13.7902 4.07694 5.22631 0.430637 4.06099 0.402603C-0.406392 -2.44753 0.256281 10.7285 0.23369 11.9003C0.111321 18.0379 -0.255784 24.2783 0.293932 30.401ZM6.36339 17.6604C6.19772 17.7333 6.05841 17.851 5.95487 18.0006C5.94734 17.4417 5.93793 16.8867 5.93416 16.3353C6.11489 16.4381 6.30503 16.5297 6.49517 16.6232C6.45564 16.9633 6.40857 17.3109 6.36339 17.6604ZM6.75309 26.3734C6.87169 25.9099 7.03736 25.4427 7.23691 24.9755C10.217 24.2821 13.0503 22.8336 15.9608 21.901C17.3803 21.5142 18.8016 21.1273 20.2136 20.718C15.8159 22.7645 11.324 24.5886 6.75309 26.3734ZM13.1915 19.0229C12.8527 19.1761 12.51 19.3256 12.1768 19.4901C11.8794 19.307 11.5763 19.1649 11.2675 19.0341C11.9076 19.0154 12.5496 19.0079 13.1915 19.0229ZM12.2898 16.2624C12.3331 16.2363 12.3801 16.2157 12.4291 16.1933C13.6377 16.4493 14.8463 16.625 16.0888 16.6418C16.9529 16.7446 17.817 16.853 18.683 16.9521C18.6002 16.982 18.5174 17.0063 18.4327 17.0362C16.6065 16.8474 14.402 16.6418 12.2898 16.2624ZM21.2622 14.059C19.8295 13.5544 18.395 13.0329 16.9492 12.4629C14.5677 11.5247 12.1956 10.8575 9.70875 10.2762C8.93124 10.0968 8.29116 9.7903 7.72827 9.40717C12.4159 10.1379 16.9266 11.9377 21.2622 14.059ZM10.0081 12.4741C8.59614 12.3395 7.16726 12.2741 5.71955 12.2779C5.6706 11.7228 5.61412 11.1714 5.55953 10.6164C6.9677 11.5901 8.43424 12.0798 10.0081 12.4741Z" fill="white"/>
</svg>
