<svg width="390" height="259" viewBox="0 0 390 259" fill="none" xmlns="http://www.w3.org/2000/svg">
<circle cx="150.237" cy="156.854" r="3.94291" fill="#1A1564"/>
<circle cx="213.034" cy="113.266" r="3.33631" fill="#FF0000"/>
<circle cx="82.8888" cy="16.7832" r="3.33631" fill="#FF0000"/>
<circle cx="391.664" cy="95.5872" r="3.33631" fill="#FF0000"/>
<circle cx="67.4864" cy="148.243" r="5.15611" fill="#008029"/>
<circle cx="179.691" cy="55.8885" r="1.8535" fill="#008029"/>
<circle cx="148.345" cy="180.417" r="1.8535" fill="#008029"/>
<circle cx="60.7607" cy="55.8885" r="1.8535" fill="#008029"/>
<circle cx="329.081" cy="64.3892" r="1.8535" fill="#008029"/>
<circle cx="280.993" cy="7.96703" r="1.8535" fill="#008029"/>
<circle cx="226.904" cy="85.5109" r="2.96561" fill="#FF7800"/>
<circle cx="374.075" cy="33.5192" r="2.96561" fill="#FF7800"/>
<circle cx="107.975" cy="85.5108" r="2.96561" fill="#FF7800"/>
<circle cx="290.03" cy="207.561" r="2.96561" fill="#FF7800"/>
<circle cx="270.816" cy="139.263" r="4.07771" fill="#FF7080"/>
<circle cx="165.445" cy="10.0869" r="4.07771" fill="#FF7080"/>
<circle cx="285.24" cy="71.6602" r="1.8535" fill="#FF0000"/>
<circle cx="139.42" cy="256.282" r="1.8535" fill="#FF0000"/>
<path d="M317.215 112.87C317.254 113.122 317.267 113.378 317.334 113.628C317.361 113.729 317.4 113.824 317.434 113.922C317.575 114.337 317.721 114.754 317.95 115.132C318.118 115.408 318.311 115.67 318.483 115.944C318.671 116.242 318.905 116.503 319.163 116.739C319.646 117.177 320.151 117.587 320.742 117.882C321.243 118.132 321.761 118.343 322.319 118.439C322.41 118.455 322.497 118.49 322.585 118.52C322.9 118.634 323.223 118.709 323.558 118.743C323.743 118.761 323.927 118.774 324.113 118.78C324.481 118.794 324.841 118.725 325.203 118.693C325.556 118.661 325.888 118.547 326.232 118.483C326.239 118.482 326.246 118.482 326.251 118.479C326.521 118.388 326.776 118.268 327.022 118.116C326.884 118.065 326.759 118.148 326.596 118.137C326.712 118.058 326.828 118.053 326.93 118.011C327.033 117.972 327.138 117.941 327.233 117.909C327.254 117.851 327.193 117.856 327.196 117.802C327.273 117.721 327.351 117.615 327.469 117.559C327.627 117.482 327.757 117.369 327.889 117.259C328.124 117.061 328.352 116.854 328.578 116.649C328.848 116.404 329.066 116.114 329.304 115.843C329.51 115.607 329.675 115.341 329.857 115.088C330.046 114.826 330.174 114.539 330.321 114.258C330.464 113.988 330.619 113.724 330.731 113.439C330.913 112.976 331.051 112.507 331.099 112.009C331.128 111.711 331.126 111.413 331.146 111.114C331.164 110.841 331.066 110.573 330.99 110.31C330.98 110.28 330.963 110.253 330.958 110.224C330.888 109.803 330.662 109.45 330.449 109.095C330.282 108.817 330.05 108.583 329.843 108.334C329.638 108.088 329.41 107.863 329.16 107.664C328.929 107.482 328.701 107.295 328.445 107.142C328.267 107.035 328.1 106.911 327.919 106.804C327.657 106.651 327.394 106.511 327.106 106.411C326.909 106.341 326.728 106.231 326.536 106.148C326.088 105.956 325.624 105.806 325.156 105.669C324.744 105.547 324.323 105.498 323.896 105.468C323.587 105.446 323.278 105.435 322.969 105.437C322.454 105.443 321.959 105.554 321.49 105.75C321.109 105.909 320.765 106.141 320.43 106.382C320.091 106.627 319.835 106.944 319.57 107.259C319.345 107.526 319.154 107.82 318.924 108.084C318.832 108.189 318.778 108.324 318.702 108.442C318.448 108.843 318.277 109.281 318.096 109.714C318.082 109.748 318.067 109.783 318.049 109.813C317.829 110.179 317.702 110.578 317.594 110.987C317.528 111.229 317.405 111.455 317.351 111.698C317.264 112.081 317.152 112.462 317.215 112.87ZM322.297 106.093C322.299 106.148 322.255 106.16 322.209 106.165C322.111 106.177 322.014 106.186 321.917 106.201C321.784 106.222 321.653 106.26 321.52 106.267C321.443 106.271 321.378 106.278 321.319 106.336C321.298 106.241 321.297 106.238 321.365 106.213C321.618 106.116 321.881 106.06 322.145 106.006C322.164 106.002 322.182 106.001 322.2 106.002C322.257 106.007 322.294 106.038 322.297 106.093ZM322.96 106.362C322.633 106.379 322.306 106.4 321.98 106.432C322.302 106.353 322.625 106.281 322.96 106.362ZM323.541 105.576C323.163 105.569 322.788 105.611 322.373 105.632C322.656 105.518 323.34 105.489 323.541 105.576ZM324.976 105.767C324.745 105.731 324.532 105.719 324.331 105.646C324.537 105.628 324.871 105.692 324.976 105.767ZM325.844 106.264C325.835 106.262 325.83 106.249 325.823 106.241C325.826 106.227 325.834 106.22 325.848 106.224C325.858 106.227 325.874 106.235 325.875 106.241C325.879 106.264 325.861 106.269 325.844 106.264ZM326.247 106.395C326.239 106.4 326.231 106.407 326.223 106.412C326.214 106.407 326.199 106.403 326.196 106.395C326.191 106.372 326.208 106.367 326.226 106.372C326.235 106.375 326.24 106.388 326.247 106.395ZM327.332 107.307C327.269 107.304 327.216 107.273 327.163 107.245C327.05 107.185 326.935 107.123 326.818 107.069C326.504 106.924 326.174 106.817 325.856 106.684C325.078 106.359 324.265 106.196 323.421 106.173C323.144 106.165 322.865 106.168 322.586 106.164C322.439 106.163 322.427 106.151 322.376 105.971C322.587 105.983 322.794 105.871 322.992 106.019C323.009 106.031 323.042 106.034 323.063 106.026C323.138 105.999 323.219 106.02 323.301 106.012C323.265 105.934 323.181 105.979 323.127 105.918C323.179 105.918 323.217 105.913 323.252 105.92C323.449 105.953 323.649 105.95 323.845 105.97C323.988 105.984 324.132 106.016 324.28 106.017C324.409 106.019 324.536 106.064 324.662 106.089C324.788 106.115 324.901 106.147 324.942 106.285C324.945 106.292 324.964 106.294 324.987 106.303C325.092 106.193 325.23 106.206 325.357 106.26C325.479 106.312 325.637 106.34 325.641 106.516C325.696 106.539 325.762 106.569 325.791 106.539C325.894 106.435 325.982 106.508 326.075 106.543C326.445 106.682 326.801 106.85 327.154 107.025C327.163 107.03 327.167 107.043 327.175 107.053C327.167 107.087 327.114 107.069 327.11 107.123C327.149 107.212 327.295 107.201 327.332 107.307ZM323.877 106.537C323.784 106.537 323.688 106.544 323.6 106.502C323.692 106.511 323.79 106.484 323.877 106.537ZM324.323 106.597C324.177 106.58 324.027 106.591 323.887 106.538C324.036 106.526 324.184 106.534 324.323 106.597ZM327.597 107.345C327.566 107.304 327.502 107.29 327.489 107.186C327.699 107.322 327.902 107.417 328.074 107.564C328.009 107.561 327.974 107.627 327.914 107.638C327.806 107.606 327.721 107.532 327.623 107.482C327.597 107.469 327.58 107.439 327.559 107.417C327.476 107.401 327.403 107.365 327.339 107.311C327.425 107.321 327.511 107.334 327.597 107.345ZM330.933 111.644C330.923 111.873 330.892 112.103 330.806 112.352C330.785 112.247 330.793 112.171 330.803 112.095C330.811 112.041 330.827 111.985 330.819 111.932C330.776 111.658 330.801 111.383 330.79 111.109C330.788 111.036 330.776 110.964 330.772 110.891C330.75 110.533 330.642 110.195 330.518 109.864C330.394 109.529 330.224 109.213 329.998 108.941C329.751 108.645 329.514 108.339 329.22 108.083C328.909 107.813 328.618 107.524 328.263 107.307C328.101 107.208 327.935 107.114 327.8 106.976C327.968 107.019 328.096 107.128 328.238 107.212C328.724 107.497 329.135 107.876 329.556 108.241C329.781 108.437 329.953 108.676 330.144 108.898C330.408 109.208 330.608 109.56 330.741 109.945C330.935 110.497 330.961 111.069 330.933 111.644ZM328.198 107.672C328.113 107.672 328.108 107.609 328.082 107.566C328.134 107.582 328.197 107.587 328.198 107.672ZM328.452 107.789C328.466 107.877 328.445 107.92 328.389 107.931C328.326 107.944 328.24 107.87 328.199 107.764C328.284 107.793 328.359 107.838 328.452 107.789ZM328.632 108.005C328.586 108.002 328.552 107.992 328.554 107.924C328.615 107.922 328.64 107.943 328.632 108.005ZM328.924 108.237C328.777 108.293 328.752 108.146 328.645 108.102C328.805 108.068 328.818 108.074 328.924 108.237ZM329.144 108.403C329.153 108.407 329.157 108.421 329.164 108.43C329.156 108.437 329.147 108.451 329.139 108.45C329.13 108.448 329.115 108.437 329.113 108.428C329.108 108.405 329.123 108.396 329.144 108.403ZM329.367 108.66C329.33 108.596 329.238 108.638 329.168 108.543C329.287 108.543 329.347 108.564 329.367 108.66ZM329.652 108.941C329.684 108.968 329.723 108.98 329.697 109.047C329.665 109.019 329.626 109.006 329.652 108.941ZM329.815 109.135C329.823 109.139 329.831 109.151 329.831 109.16C329.831 109.173 329.82 109.177 329.806 109.173C329.798 109.167 329.784 109.159 329.783 109.153C329.781 109.13 329.798 109.126 329.815 109.135ZM330.082 109.869C329.99 109.808 329.934 109.722 329.901 109.619C329.996 109.676 330.047 109.767 330.082 109.869ZM330.2 110.076C330.136 110.023 330.09 109.96 330.085 109.874C330.157 109.924 330.191 109.993 330.2 110.076ZM330.643 113.239C330.733 112.948 330.824 112.656 330.914 112.363C330.902 112.675 330.789 112.96 330.643 113.239ZM330.213 113.188C330.244 113 330.238 112.811 330.227 112.622C330.223 112.549 330.223 112.477 330.227 112.404C330.241 112.039 330.27 111.669 330.218 111.307C330.138 110.762 329.99 110.233 329.669 109.767C329.648 109.736 329.62 109.703 329.642 109.653C330.466 110.586 330.928 112.197 330.214 113.486C330.188 113.376 330.197 113.281 330.213 113.188ZM329.981 113.716C329.994 113.656 330.006 113.594 330.019 113.534C330.046 113.601 330.039 113.662 329.981 113.716ZM329.916 114.038C329.936 114.075 329.923 114.106 329.884 114.146C329.873 114.092 329.882 114.061 329.916 114.038ZM329.774 111.793C329.802 111.838 329.82 111.868 329.794 111.917C329.751 111.874 329.753 111.842 329.774 111.793ZM329.586 110.963C329.626 110.955 329.624 110.991 329.617 111.039C329.586 111.004 329.569 110.967 329.586 110.963ZM329.47 112.257C329.5 112.338 329.529 112.419 329.51 112.539C329.45 112.43 329.452 112.345 329.47 112.257ZM329.278 112.867C329.327 113.358 329.293 113.841 329.158 114.344C329.104 114.116 329.183 113.057 329.278 112.867ZM327.476 115.852C327.51 115.709 327.619 115.623 327.714 115.538C327.931 115.345 328.049 115.092 328.184 114.849C328.229 114.765 328.267 114.678 328.361 114.575C328.369 114.729 328.315 114.828 328.293 114.933C328.251 115.129 328.195 115.322 328.091 115.499C327.978 115.69 327.738 115.832 327.476 115.852ZM328.221 108.815C328.33 108.833 328.33 108.833 328.35 108.921C328.296 108.893 328.251 108.87 328.221 108.815ZM325.239 106.921C325.299 106.903 325.338 106.906 325.371 106.922C325.54 107.012 325.729 107.056 325.904 107.134C326.354 107.338 326.811 107.523 327.249 107.753C327.563 107.917 327.854 108.114 328.121 108.339C328.486 108.646 328.83 108.977 329.149 109.333C329.377 109.586 329.564 109.866 329.725 110.161C329.936 110.545 330.041 110.967 330.111 111.396C330.122 111.46 330.131 111.528 330.107 111.6C330.055 111.555 330.054 111.499 330.052 111.446C330.05 111.341 330.022 111.24 329.998 111.14C329.857 110.545 329.557 110.026 329.17 109.562C328.84 109.167 328.507 108.772 328.121 108.425C327.992 108.309 327.855 108.207 327.708 108.115C327.171 107.784 326.596 107.529 326.019 107.276C325.875 107.213 325.737 107.115 325.563 107.146C325.523 107.152 325.495 107.123 325.47 107.093C325.411 107.024 325.335 106.971 325.239 106.921ZM325.08 106.574C325.035 106.561 324.99 106.546 324.974 106.476C325.491 106.634 325.98 106.819 326.458 107.029C327.029 107.278 327.585 107.552 328.105 107.901C328.697 108.298 329.23 108.755 329.689 109.295C329.77 109.392 329.863 109.484 329.896 109.613C329.805 109.577 329.755 109.499 329.701 109.427C329.561 109.247 329.413 109.076 329.246 108.92C328.75 108.457 328.216 108.042 327.623 107.71C327.269 107.512 326.91 107.32 326.537 107.156C326.058 106.947 325.586 106.722 325.08 106.574ZM324.646 113.819C324.654 113.67 324.663 113.522 324.674 113.347C324.844 113.472 324.894 113.706 324.803 113.842C324.775 113.882 324.742 113.902 324.695 113.887C324.661 113.878 324.644 113.851 324.646 113.819ZM323.252 106.749C322.994 106.738 322.736 106.708 322.476 106.717C322.419 106.718 322.355 106.732 322.281 106.678C322.462 106.624 322.628 106.651 322.788 106.648C322.96 106.645 323.133 106.629 323.303 106.673C323.467 106.715 323.636 106.632 323.797 106.687C323.944 106.737 324.1 106.754 324.248 106.804C324.41 106.859 324.594 106.792 324.751 106.884C324.891 106.965 325.063 106.963 325.202 107.053C324.898 106.999 324.59 106.999 324.291 106.926C323.95 106.843 323.605 106.764 323.252 106.749ZM322.74 112.547C322.847 112.563 322.943 112.606 323.055 112.603C323.082 112.701 323.154 112.752 323.236 112.801C323.454 112.933 323.619 113.124 323.788 113.31C323.812 113.337 323.851 113.373 323.79 113.443C323.505 113.066 323.129 112.8 322.74 112.547ZM321.064 107.161C321.589 106.969 322.132 106.908 322.694 106.972C322.424 107.011 322.152 107.038 321.881 107.066C321.608 107.095 321.34 107.158 321.07 107.205C321.068 107.19 321.066 107.176 321.064 107.161ZM320.914 107.109C320.924 107.159 320.987 107.203 320.907 107.246C320.86 107.272 320.821 107.254 320.807 107.204C320.785 107.123 320.849 107.123 320.914 107.109ZM320.468 106.912C320.49 106.858 320.519 106.844 320.581 106.857C320.544 106.895 320.523 106.921 320.468 106.912ZM320.1 117.248C320.184 117.245 320.237 117.281 320.253 117.361C320.202 117.324 320.151 117.285 320.1 117.248ZM317.41 112.869C317.602 113.693 317.881 114.486 318.265 115.241C317.801 114.513 317.503 113.727 317.41 112.869Z" fill="#1A1564"/>
<path d="M196.988 13.807C197.182 13.884 197.368 13.981 197.571 14.0374C197.654 14.0601 197.738 14.0719 197.821 14.0884C198.173 14.1608 198.527 14.2301 198.89 14.224C199.155 14.2193 199.421 14.191 199.686 14.1824C199.975 14.1729 200.258 14.1144 200.532 14.0286C201.043 13.8677 201.544 13.6784 202 13.3806C202.387 13.1278 202.753 12.8473 203.055 12.4905C203.104 12.432 203.165 12.3842 203.223 12.3349C203.435 12.1575 203.625 11.9591 203.789 11.7346C203.879 11.6104 203.965 11.485 204.048 11.3551C204.212 11.0994 204.314 10.8146 204.444 10.5435C204.569 10.2788 204.629 9.99529 204.728 9.72375C204.73 9.71858 204.733 9.71394 204.733 9.70916C204.782 9.47926 204.805 9.24779 204.801 9.00893C204.707 9.08639 204.713 9.20962 204.637 9.32126C204.63 9.20559 204.675 9.12092 204.688 9.03149C204.703 8.94166 204.726 8.85372 204.743 8.77266C204.711 8.73377 204.689 8.7795 204.652 8.7552C204.627 8.66682 204.586 8.56736 204.596 8.45945C204.608 8.31518 204.583 8.17541 204.561 8.03633C204.52 7.78711 204.47 7.53878 204.42 7.29192C204.361 6.99842 204.248 6.72278 204.157 6.44031C204.077 6.196 203.959 5.96853 203.857 5.73342C203.751 5.48994 203.603 5.27989 203.466 5.05806C203.336 4.84383 203.215 4.62393 203.061 4.42554C202.811 4.10425 202.539 3.8109 202.208 3.56978C202.01 3.4254 201.799 3.30234 201.597 3.16446C201.412 3.03765 201.183 2.99605 200.965 2.94121C200.94 2.93541 200.914 2.93625 200.891 2.92766C200.565 2.803 200.221 2.81647 199.881 2.82107C199.616 2.82434 199.353 2.89216 199.091 2.93594C198.832 2.97946 198.578 3.04823 198.332 3.14346C198.107 3.23172 197.88 3.31652 197.664 3.43469C197.514 3.51738 197.356 3.58425 197.205 3.6688C196.987 3.79161 196.778 3.92069 196.587 4.08395C196.455 4.19513 196.301 4.27807 196.163 4.38019C195.839 4.61905 195.539 4.8872 195.246 5.16295C194.987 5.40523 194.776 5.68446 194.575 5.97634C194.43 6.18704 194.292 6.40202 194.165 6.62287C193.952 6.99132 193.823 7.39021 193.764 7.80529C193.717 8.14234 193.735 8.48336 193.765 8.82216C193.795 9.1648 193.911 9.47949 194.022 9.79867C194.116 10.0703 194.242 10.3275 194.332 10.6017C194.367 10.7099 194.439 10.805 194.491 10.9079C194.667 11.2555 194.904 11.5592 195.134 11.8682C195.151 11.8923 195.17 11.9169 195.184 11.9427C195.348 12.2512 195.577 12.5074 195.82 12.7543C195.962 12.902 196.07 13.0833 196.219 13.2232C196.452 13.4437 196.674 13.6816 196.988 13.807ZM194.344 7.37393C194.384 7.39506 194.374 7.4314 194.359 7.46599C194.326 7.54035 194.291 7.61365 194.261 7.68868C194.22 7.79183 194.192 7.90152 194.141 7.99878C194.111 8.0551 194.089 8.10468 194.105 8.17046C194.03 8.14575 194.027 8.14561 194.038 8.0867C194.076 7.86671 194.146 7.65587 194.219 7.44517C194.224 7.43058 194.231 7.41706 194.24 7.40462C194.267 7.36595 194.304 7.35281 194.344 7.37393ZM194.812 7.01359C194.687 7.25331 194.565 7.49516 194.451 7.74036C194.53 7.47817 194.615 7.21826 194.812 7.01359ZM194.503 6.27347C194.339 6.5392 194.211 6.82392 194.051 7.12737C194.09 6.87911 194.357 6.37995 194.503 6.27347ZM195.239 5.33154C195.117 5.48072 195.019 5.62799 194.883 5.74035C194.957 5.58634 195.142 5.37566 195.239 5.33154ZM195.954 4.92072C195.948 4.92614 195.937 4.92451 195.929 4.92594C195.92 4.91821 195.919 4.90997 195.927 4.90137C195.934 4.89502 195.946 4.8871 195.951 4.88884C195.969 4.89568 195.965 4.9108 195.954 4.92072ZM196.215 4.68867C196.216 4.69637 196.217 4.70461 196.217 4.71231C196.21 4.71667 196.201 4.72619 196.194 4.72484C196.175 4.71893 196.179 4.70474 196.19 4.69389C196.196 4.68847 196.207 4.6901 196.215 4.68867ZM197.313 4.29506C197.285 4.33943 197.241 4.3637 197.199 4.38997C197.109 4.44553 197.017 4.50149 196.93 4.56251C196.695 4.72562 196.482 4.91588 196.255 5.08712C195.699 5.50555 195.243 6.01636 194.873 6.60675C194.751 6.80107 194.635 7.0006 194.516 7.19745C194.453 7.30171 194.44 7.30524 194.292 7.2666C194.388 7.12117 194.397 6.92723 194.584 6.84772C194.6 6.84101 194.616 6.8189 194.619 6.80085C194.632 6.73584 194.68 6.6869 194.709 6.62527C194.639 6.61864 194.635 6.69669 194.57 6.71052C194.592 6.67343 194.604 6.6444 194.623 6.62203C194.729 6.49589 194.812 6.35201 194.907 6.22092C194.977 6.12479 195.06 6.03614 195.124 5.93095C195.179 5.83968 195.263 5.76843 195.335 5.68916C195.406 5.6099 195.475 5.5435 195.59 5.57101C195.596 5.57236 195.605 5.55898 195.621 5.54696C195.588 5.42642 195.655 5.33346 195.747 5.26595C195.834 5.20015 195.92 5.0997 196.046 5.17013C196.085 5.1408 196.134 5.10579 196.125 5.0731C196.095 4.95655 196.184 4.92395 196.247 4.87254C196.5 4.66688 196.768 4.48372 197.04 4.30508C197.047 4.30072 197.058 4.30329 197.069 4.302C197.089 4.32146 197.054 4.352 197.09 4.37722C197.169 4.38627 197.223 4.27813 197.313 4.29506ZM195.321 6.4334C195.281 6.50017 195.247 6.57108 195.18 6.6165C195.225 6.5544 195.247 6.47363 195.321 6.4334ZM195.55 6.14136C195.477 6.23828 195.421 6.3492 195.325 6.42745C195.38 6.31599 195.447 6.2144 195.55 6.14136ZM197.452 4.12284C197.409 4.12799 197.373 4.16756 197.294 4.13354C197.478 4.04088 197.63 3.93576 197.806 3.87427C197.777 3.91957 197.808 3.97186 197.791 4.01933C197.723 4.08294 197.635 4.11222 197.558 4.16094C197.538 4.17414 197.511 4.1739 197.486 4.17966C197.44 4.23206 197.384 4.26903 197.319 4.29203C197.362 4.2351 197.407 4.17923 197.452 4.12284ZM201.881 3.53579C202.038 3.63833 202.187 3.75624 202.327 3.92112C202.244 3.89214 202.194 3.85504 202.145 3.81609C202.11 3.78808 202.077 3.75344 202.036 3.7371C201.825 3.65388 201.642 3.5219 201.444 3.41549C201.392 3.38688 201.336 3.3653 201.283 3.33763C201.022 3.20483 200.738 3.14126 200.452 3.09148C200.165 3.04064 199.871 3.02974 199.583 3.07781C199.272 3.13017 198.956 3.17177 198.653 3.27501C198.332 3.3835 198.006 3.47099 197.704 3.63292C197.566 3.70677 197.43 3.78646 197.277 3.8248C197.377 3.7228 197.508 3.67734 197.626 3.611C198.032 3.38372 198.471 3.24925 198.905 3.10148C199.137 3.02227 199.378 2.99926 199.615 2.95631C199.944 2.89684 200.276 2.90138 200.603 2.96657C201.074 3.05818 201.488 3.27744 201.881 3.53579ZM197.934 3.83106C197.898 3.89134 197.852 3.86886 197.811 3.86977C197.844 3.83909 197.873 3.79672 197.934 3.83106ZM198.123 3.69885C198.191 3.72552 198.213 3.758 198.197 3.80268C198.179 3.85347 198.091 3.88368 198 3.86861C198.055 3.82008 198.119 3.785 198.123 3.69885ZM198.351 3.66065C198.33 3.69204 198.308 3.71188 198.261 3.68263C198.286 3.63851 198.31 3.62944 198.351 3.66065ZM198.637 3.54965C198.614 3.67742 198.501 3.63412 198.425 3.69199C198.468 3.5635 198.478 3.5569 198.637 3.54965ZM198.846 3.46186C198.853 3.45697 198.865 3.46007 198.874 3.45917C198.875 3.46741 198.881 3.47978 198.877 3.48481C198.872 3.49076 198.858 3.49616 198.851 3.49427C198.832 3.48836 198.832 3.47349 198.846 3.46186ZM199.121 3.41016C199.061 3.4094 199.052 3.49288 198.955 3.50342C199.005 3.4181 199.045 3.38399 199.121 3.41016ZM199.438 3.32356C199.471 3.31253 199.496 3.29005 199.532 3.33639C199.499 3.34689 199.474 3.36936 199.438 3.32356ZM199.644 3.28833C199.65 3.28437 199.662 3.28415 199.668 3.28789C199.677 3.29324 199.676 3.30226 199.667 3.31086C199.659 3.31375 199.648 3.32074 199.643 3.319C199.626 3.31031 199.63 3.29665 199.644 3.28833ZM200.273 3.40336C200.192 3.44409 200.107 3.44816 200.021 3.42859C200.101 3.38441 200.187 3.38618 200.273 3.40336ZM200.468 3.40594C200.404 3.42947 200.341 3.43574 200.278 3.40364C200.343 3.37348 200.406 3.37823 200.468 3.40594ZM202.884 4.40577C202.716 4.22047 202.548 4.03425 202.38 3.84842C202.595 3.98662 202.748 4.18594 202.884 4.40577ZM202.667 4.69042C202.548 4.59014 202.412 4.51623 202.274 4.44509C202.221 4.41741 202.17 4.38749 202.12 4.35424C201.869 4.19228 201.62 4.01797 201.344 3.9049C200.926 3.73489 200.491 3.62044 200.028 3.65512C199.998 3.65713 199.962 3.66364 199.936 3.62703C200.939 3.42891 202.269 3.76928 202.878 4.81347C202.789 4.78606 202.726 4.74003 202.667 4.69042ZM202.942 5.07513C202.905 5.04074 202.866 5.00674 202.829 4.97235C202.888 4.98066 202.929 5.01095 202.942 5.07513ZM203.141 5.25509C203.176 5.25575 203.192 5.27785 203.204 5.32224C203.161 5.30814 203.143 5.28882 203.141 5.25509ZM201.5 4.42313C201.543 4.42143 201.572 4.42074 201.595 4.45959C201.547 4.47256 201.525 4.45827 201.5 4.42313ZM200.836 4.21145C200.847 4.1795 200.871 4.19632 200.902 4.22073C200.865 4.22855 200.831 4.22511 200.836 4.21145ZM201.699 4.83212C201.769 4.84446 201.838 4.85772 201.915 4.9204C201.812 4.91764 201.753 4.88144 201.699 4.83212ZM202.048 5.22174C202.415 5.39157 202.741 5.61661 203.039 5.92108C202.856 5.86544 202.142 5.36853 202.048 5.22174ZM203.395 7.74514C203.309 7.66172 203.294 7.54801 203.275 7.44505C203.229 7.21094 203.101 7.02128 202.986 6.82476C202.946 6.75757 202.9 6.69434 202.867 6.58481C202.979 6.64338 203.027 6.72255 203.091 6.7816C203.212 6.89304 203.324 7.01307 203.405 7.16101C203.492 7.32078 203.492 7.55073 203.395 7.74514ZM198.749 4.28944C198.807 4.21995 198.807 4.21995 198.878 4.24198C198.836 4.26918 198.801 4.29109 198.749 4.28944ZM196.163 5.62409C196.175 5.57395 196.194 5.5472 196.219 5.53096C196.354 5.44781 196.464 5.33151 196.592 5.23984C196.924 5.00434 197.247 4.75578 197.593 4.53985C197.84 4.38475 198.101 4.25971 198.372 4.16312C198.741 4.03118 199.119 3.92369 199.504 3.84451C199.778 3.7875 200.054 3.77138 200.329 3.77877C200.688 3.78832 201.029 3.88941 201.361 4.01782C201.411 4.03712 201.463 4.05895 201.504 4.10557C201.45 4.12396 201.41 4.10137 201.372 4.08039C201.297 4.03842 201.215 4.01622 201.134 3.99215C200.655 3.84489 200.163 3.84228 199.674 3.9248C199.257 3.99536 198.839 4.06871 198.432 4.19892C198.297 4.24264 198.167 4.29726 198.041 4.36411C197.582 4.60831 197.161 4.91147 196.74 5.21702C196.636 5.29284 196.509 5.35053 196.457 5.48762C196.445 5.51811 196.412 5.52623 196.381 5.53156C196.308 5.54443 196.238 5.57723 196.163 5.62409ZM195.852 5.59294C195.823 5.62006 195.794 5.64518 195.738 5.62837C196.067 5.32594 196.402 5.05513 196.751 4.80189C197.166 4.49938 197.592 4.21722 198.056 3.99202C198.585 3.73613 199.131 3.54708 199.704 3.44509C199.806 3.42767 199.91 3.39938 200.015 3.42963C199.951 3.47958 199.875 3.48223 199.801 3.49125C199.616 3.51566 199.433 3.55031 199.253 3.60435C198.719 3.76437 198.202 3.97198 197.72 4.25606C197.431 4.426 197.145 4.60087 196.874 4.79823C196.525 5.05239 196.168 5.29458 195.852 5.59294ZM200.776 8.91358C200.674 8.84603 200.573 8.77808 200.455 8.69799C200.614 8.62834 200.8 8.69036 200.858 8.81192C200.874 8.84796 200.873 8.88008 200.844 8.90759C200.823 8.92796 200.797 8.9288 200.776 8.91358ZM195.207 6.96671C195.092 7.14606 194.962 7.31685 194.859 7.50513C194.836 7.54647 194.819 7.59779 194.75 7.62821C194.788 7.47686 194.877 7.37031 194.942 7.25517C195.012 7.13116 195.073 7.0014 195.175 6.89902C195.274 6.7998 195.286 6.64451 195.393 6.55342C195.49 6.46947 195.567 6.36514 195.664 6.28119C195.772 6.18824 195.802 6.0297 195.932 5.95636C196.048 5.88987 196.119 5.76692 196.24 5.70603C196.075 5.89966 195.946 6.11852 195.768 6.30135C195.567 6.50866 195.367 6.72181 195.207 6.96671ZM199.078 9.74127C199.135 9.67217 199.205 9.62118 199.251 9.54036C199.331 9.5615 199.397 9.53187 199.466 9.49375C199.651 9.39392 199.854 9.35524 200.056 9.3131C200.086 9.3067 200.128 9.29384 200.151 9.36628C199.765 9.4128 199.42 9.56926 199.078 9.74127ZM194.58 8.6953C194.664 8.24141 194.85 7.82958 195.131 7.45661C195.045 7.66461 194.95 7.86965 194.856 8.07429C194.761 8.27987 194.693 8.49709 194.613 8.70883C194.601 8.70427 194.591 8.69932 194.58 8.6953ZM194.48 8.78003C194.519 8.79346 194.577 8.76711 194.574 8.84185C194.572 8.88592 194.543 8.90626 194.502 8.89562C194.436 8.87772 194.462 8.83228 194.48 8.78003ZM194.154 9.01543C194.125 8.97722 194.127 8.95094 194.163 8.91177C194.174 8.9547 194.183 8.98022 194.154 9.01543ZM201.284 13.5734C201.317 13.513 201.365 13.49 201.428 13.512C201.38 13.5326 201.331 13.5528 201.284 13.5734ZM197.069 13.6674C197.73 13.8736 198.406 14.0049 199.099 14.045C198.392 14.0727 197.712 13.958 197.069 13.6674Z" fill="#1A1564"/>
<path d="M141.734 106.876C141.699 106.946 141.695 107.017 141.724 107.094C141.906 107.576 142.073 108.067 142.256 108.547C142.462 109.088 142.754 109.596 143.189 110.005C143.375 110.18 143.519 110.395 143.725 110.556C144.028 110.792 144.259 111.113 144.6 111.31C144.719 111.378 144.809 111.494 144.914 111.589C144.953 111.625 144.992 111.69 145.034 111.691C145.396 111.715 145.615 112.001 145.891 112.171C146.392 112.481 146.936 112.676 147.479 112.873C148.225 113.146 148.963 113.448 149.749 113.602C149.956 113.643 150.152 113.74 150.373 113.695C150.418 113.686 150.474 113.724 150.522 113.744C150.583 113.767 150.639 113.815 150.7 113.817C151.119 113.832 151.532 113.928 151.947 113.928C152.472 113.928 152.998 113.883 153.521 113.839C153.766 113.817 154.011 113.765 154.248 113.701C154.882 113.529 155.487 113.284 156.039 112.918C156.362 112.705 156.717 112.553 157.031 112.318C157.183 112.204 157.316 112.066 157.474 111.955C157.657 111.826 157.836 111.684 158.024 111.561C158.269 111.401 158.5 111.231 158.697 111.011C158.817 110.877 158.947 110.744 159.13 110.683C159.195 110.662 159.272 110.601 159.298 110.538C159.429 110.237 159.722 110.108 159.94 109.901C160.006 109.838 160.047 109.77 160.068 109.682C160.12 109.487 160.214 109.353 160.446 109.365C160.627 109.374 160.634 109.224 160.645 109.091C160.815 108.864 160.874 108.588 160.959 108.326C161.016 108.151 161.071 107.984 161.175 107.825C161.317 107.61 161.356 107.336 161.463 107.109C161.64 106.733 161.615 106.353 161.617 105.966C161.617 105.948 161.601 105.929 161.592 105.909C161.484 105.893 161.514 106.023 161.397 106.072C161.465 105.68 161.294 105.318 161.404 104.927C161.275 104.829 161.23 104.675 161.177 104.521C161.03 104.091 160.872 103.667 160.718 103.239C160.71 103.219 160.705 103.198 160.695 103.178C160.6 102.983 160.395 102.839 160.336 102.66C160.269 102.451 160.187 102.268 160.068 102.085C159.91 101.844 159.786 101.58 159.632 101.333C159.348 100.886 158.996 100.488 158.706 100.049C158.47 99.6911 158.154 99.4224 157.861 99.1269C157.824 99.0893 157.788 99.0446 157.746 99.0159C157.235 98.6792 156.786 98.2566 156.262 97.9378C156.06 97.8143 155.86 97.6907 155.629 97.6226C155.276 97.5188 154.971 97.311 154.644 97.1534C154.38 97.0263 154.105 96.9618 153.826 96.883C153.53 96.7988 153.235 96.6896 152.934 96.6287C152.476 96.5356 152.016 96.4067 151.541 96.4998C151.463 96.5141 151.39 96.5069 151.323 96.4675C151.087 96.3279 150.828 96.335 150.57 96.3422C150.1 96.3565 149.63 96.3941 149.16 96.3852C148.727 96.3762 148.347 96.5625 147.939 96.6448C147.817 96.6699 147.705 96.7523 147.566 96.7039C147.522 96.6878 147.46 96.7075 147.41 96.7272C146.908 96.9188 146.397 97.1033 145.962 97.4256C145.531 97.7444 145.097 98.0614 144.719 98.4482C144.589 98.5807 144.465 98.7115 144.422 98.9031C144.406 98.9729 144.357 99.0392 144.309 99.0965C144.014 99.4403 143.89 99.854 143.759 100.282C143.585 100.844 143.413 101.423 143.013 101.885C142.912 102.003 142.841 102.132 142.836 102.293C142.832 102.372 142.804 102.442 142.735 102.487C142.678 102.524 142.639 102.578 142.627 102.642C142.561 102.986 142.369 103.266 142.172 103.543C142.137 103.593 142.126 103.663 142.109 103.726C142.02 104.037 141.899 104.335 141.779 104.637C141.567 105.166 141.537 105.728 141.725 106.281C141.793 106.48 141.834 106.675 141.734 106.876ZM161.08 107.137C161.101 107.055 161.078 106.974 161.166 106.937C161.207 107.05 161.207 107.05 161.08 107.137ZM160.718 103.944C161.154 104.761 161.3 106.199 161 106.725C160.891 106.52 160.904 106.303 160.9 106.09C160.895 105.8 160.962 105.497 160.874 105.221C160.773 104.91 160.723 104.594 160.673 104.276C160.657 104.17 160.611 104.064 160.718 103.944ZM160.59 103.67C160.521 103.629 160.501 103.583 160.569 103.522C160.638 103.565 160.655 103.611 160.59 103.67ZM160.45 109.091C160.521 109 160.579 109.007 160.64 109.093C160.583 109.098 160.526 109.15 160.45 109.091ZM159.541 102.021C159.706 102.195 159.822 102.397 159.873 102.632C159.758 102.429 159.561 102.272 159.541 102.021ZM159.302 101.665C159.394 101.666 159.429 101.708 159.408 101.802C159.311 101.804 159.286 101.754 159.302 101.665ZM159 102.476C159.236 102.564 159.264 102.725 159.28 102.895C159.183 102.782 159.052 102.691 159 102.476ZM158.319 101.605C158.409 101.546 158.47 101.557 158.5 101.602C158.64 101.819 158.771 102.042 158.906 102.263C158.885 102.275 158.863 102.29 158.842 102.302C158.67 102.076 158.5 101.847 158.319 101.605ZM158.196 99.9239C158.461 100.049 158.493 100.089 158.514 100.302C158.354 100.214 158.269 100.074 158.196 99.9239ZM157.497 100.621C157.723 100.663 157.982 100.934 158.042 101.22C157.715 101.016 157.543 100.821 157.497 100.621ZM156.832 100.085C156.995 100.06 157.043 100.119 157.047 100.252C156.928 100.259 156.871 100.21 156.832 100.085ZM156.323 99.1681C156.347 99.1484 156.376 99.1162 156.413 99.0965C156.449 99.0768 156.491 99.0678 156.601 99.0284C156.539 99.2326 156.646 99.2971 156.757 99.3705C156.931 99.4851 157.125 99.5836 157.219 99.8075C156.851 99.7036 156.321 99.3293 156.323 99.1681ZM155.961 98.2333C156.229 98.2172 156.225 98.2244 156.388 98.3246C156.622 98.4679 156.791 98.7133 157.082 98.7706C157.126 98.7795 157.158 98.844 157.197 98.8798C157.3 98.9747 157.405 99.0661 157.508 99.161C157.754 99.3938 158.06 99.5729 158.187 99.9131C157.948 99.7931 157.746 99.623 157.55 99.4385C157.263 99.1663 156.984 98.8852 156.617 98.7061C156.39 98.5951 156.198 98.4088 155.961 98.2333ZM155.521 97.8823C155.632 97.9056 155.746 97.9217 155.819 98.065C155.661 98.0578 155.579 97.9862 155.521 97.8823ZM154.703 97.8053C154.845 97.9826 155.029 98.0686 155.194 98.1832C155.347 98.2906 155.405 98.3855 155.34 98.5395C155.304 98.6219 155.27 98.7455 155.143 98.7007C155.026 98.6595 155.093 98.5592 155.104 98.4787C155.107 98.45 155.091 98.4196 155.079 98.3766C154.924 98.3999 154.823 98.2942 154.704 98.2297C154.437 98.0829 154.437 98.056 154.703 97.8053ZM153.945 97.6423C154.039 97.748 154.174 97.7946 154.305 97.8895C154.037 97.9163 153.968 97.8716 153.945 97.6423ZM153.725 97.0728C153.796 97.0657 153.821 97.1069 153.817 97.1678C153.817 97.1785 153.782 97.2 153.771 97.1964C153.716 97.1731 153.686 97.1355 153.725 97.0728ZM153.329 97.4167C153.331 97.4042 153.358 97.3845 153.37 97.3862C153.402 97.388 153.423 97.4095 153.422 97.4453C153.407 97.4561 153.391 97.4776 153.377 97.4758C153.345 97.474 153.322 97.4507 153.329 97.4167ZM151.353 97.1176C151.748 97.1481 152.096 97.2537 152.451 97.3128C152.694 97.3522 152.941 97.4525 153.124 97.6495C153.18 97.7122 153.21 97.782 153.138 97.8465C153.072 97.9038 152.99 97.902 152.946 97.8196C152.863 97.671 152.723 97.5958 152.575 97.5922C152.215 97.5832 151.912 97.3433 151.544 97.3612C151.427 97.3683 151.323 97.2913 151.353 97.1176ZM144.502 99.5585C144.609 99.3347 144.72 99.1825 144.845 99.0302C145.262 98.5234 145.828 98.2011 146.312 97.782C146.344 97.7552 146.385 97.7355 146.425 97.7247C146.661 97.662 146.871 97.5241 147.116 97.4865C147.353 97.4489 147.566 97.354 147.758 97.209C147.799 97.1785 147.854 97.1534 147.903 97.1481C148.244 97.1087 148.576 97.037 148.902 96.9278C148.991 96.8973 149.094 96.9099 149.121 97.0621C148.908 97.1445 148.693 97.2143 148.482 97.2716C148.141 97.3648 147.895 97.6191 147.568 97.7462C147.196 97.8931 146.826 98.0686 146.463 98.2512C145.788 98.5933 145.132 98.9496 144.609 99.5138C144.6 99.5263 144.575 99.5299 144.502 99.5585ZM143.393 103.609C143.363 103.54 143.352 103.486 143.452 103.418C143.462 103.507 143.494 103.566 143.393 103.609ZM142.494 108.156C142.722 108.269 142.776 108.515 142.916 108.695C143.067 108.891 143.198 109.104 143.349 109.299C143.494 109.485 143.658 109.657 143.807 109.842C143.954 110.024 144.183 110.142 144.231 110.4C143.482 109.786 142.905 109.037 142.494 108.156Z" fill="#FF7800"/>
<path d="M213.493 188.664C213.503 188.779 213.521 188.891 213.508 189.007C213.486 189.188 213.525 189.363 213.64 189.505C213.753 189.643 213.789 189.794 213.785 189.96C213.782 190.115 213.823 190.259 213.897 190.397C214.142 190.86 214.361 191.333 214.657 191.776C214.84 192.049 215.098 192.275 215.238 192.55C215.476 193.016 215.9 193.309 216.196 193.715C216.468 194.087 216.894 194.312 217.23 194.629C217.315 194.71 217.417 194.775 217.498 194.86C218.039 195.425 218.68 195.864 219.348 196.271C220.103 196.734 220.899 197.095 221.772 197.283C222.23 197.383 222.696 197.387 223.162 197.333C224.117 197.223 224.996 196.893 225.801 196.393C226.169 196.165 226.569 196.015 226.961 195.853C227.619 195.58 228.142 195.158 228.564 194.607C228.929 194.131 229.285 193.65 229.653 193.177C230.162 192.524 230.438 191.767 230.513 190.945C230.545 190.596 230.592 190.25 230.59 189.898C230.588 189.663 230.654 189.435 230.728 189.212C230.932 188.583 231.039 187.94 231.02 187.278C230.985 186.101 230.743 184.972 230.23 183.894C229.402 182.156 228.125 180.816 226.478 179.811C225.454 179.187 224.32 178.82 223.126 178.632C222.276 178.499 221.438 178.573 220.602 178.744C220.003 178.868 219.414 179.032 218.88 179.327C218.213 179.695 217.579 180.114 217.173 180.779C217.03 181.013 216.804 181.175 216.626 181.38C216.394 181.645 216.162 181.915 215.981 182.217C215.764 182.582 215.415 182.851 215.217 183.229C215.196 183.269 215.166 183.312 215.13 183.339C214.629 183.706 214.442 184.285 214.129 184.777C213.989 184.998 213.967 185.288 213.868 185.538C213.625 186.163 213.61 186.838 213.469 187.485C213.386 187.861 213.461 188.272 213.493 188.664ZM229.204 191.984C229.162 192.296 229.13 192.578 228.996 192.849C228.721 192.563 228.759 192.399 229.204 191.984ZM227.9 182.056C227.917 182.04 227.934 182.023 227.953 182.009C228.172 182.204 228.4 182.392 228.483 182.696C228.287 182.482 228.093 182.27 227.9 182.056ZM226.009 194.55C226.065 194.489 226.124 194.441 226.21 194.496C226.22 194.557 226.184 194.587 226.139 194.601C226.086 194.614 226.024 194.638 226.009 194.55ZM220.761 179.73C221.312 179.502 222.772 179.644 224.126 180.112C225.486 180.582 226.665 181.351 227.64 182.403C226.972 181.929 226.361 181.376 225.624 180.997C224.871 180.608 224.079 180.322 223.262 180.101C222.462 179.883 221.642 179.793 220.761 179.73ZM217.351 185.12C217.618 185.022 217.899 184.965 218.18 184.917C218.284 184.899 218.405 184.862 218.475 184.969C218.552 185.085 218.471 185.19 218.407 185.288C218.382 185.326 218.348 185.367 218.309 185.387C218.016 185.548 217.896 185.824 217.786 186.11C217.72 186.281 217.662 186.46 217.501 186.565C217.332 186.534 217.322 186.405 217.298 186.296C217.237 186.023 217.181 185.75 217.132 185.476C217.088 185.24 217.111 185.207 217.351 185.12Z" fill="#FF0000"/>
<path d="M-7.2491 126.773C-7.23967 126.887 -7.22081 126.999 -7.23401 127.115C-7.25665 127.296 -7.21703 127.471 -7.10197 127.613C-6.9888 127.751 -6.95296 127.902 -6.95673 128.068C-6.9605 128.223 -6.919 128.367 -6.84544 128.505C-6.60022 128.968 -6.38141 129.442 -6.08527 129.884C-5.9023 130.157 -5.64388 130.383 -5.50429 130.658C-5.26662 131.124 -4.84221 131.417 -4.54606 131.823C-4.27444 132.195 -3.84814 132.42 -3.51238 132.737C-3.4275 132.818 -3.32564 132.883 -3.24453 132.968C-2.70317 133.534 -2.06184 133.972 -1.39409 134.38C-0.639583 134.842 0.156427 135.203 1.02977 135.391C1.48814 135.491 1.95405 135.495 2.41996 135.441C3.37442 135.331 4.25342 135.001 5.05886 134.501C5.42669 134.273 5.82658 134.123 6.21892 133.961C6.87724 133.688 7.39974 133.266 7.82226 132.715C8.18631 132.24 8.54282 131.758 8.91064 131.285C9.41994 130.632 9.69534 129.875 9.77079 129.053C9.80285 128.704 9.85001 128.358 9.84813 128.006C9.84624 127.772 9.91226 127.543 9.98582 127.32C10.1895 126.691 10.2971 126.048 10.2782 125.386C10.2424 124.209 10.0009 123.081 9.48784 122.002C8.65977 120.264 7.38276 118.924 5.73604 117.92C4.71179 117.295 3.57814 116.928 2.38412 116.74C1.53341 116.607 0.695902 116.681 -0.139719 116.852C-0.739555 116.976 -1.32807 117.14 -1.86189 117.435C-2.52963 117.803 -3.16342 118.222 -3.56897 118.887C-3.71233 119.121 -3.93868 119.284 -4.11599 119.488C-4.34801 119.754 -4.58002 120.023 -4.7611 120.325C-4.97802 120.69 -5.32698 120.959 -5.52504 121.337C-5.54579 121.377 -5.57597 121.42 -5.61181 121.447C-6.11356 121.814 -6.3003 122.393 -6.61343 122.885C-6.75301 123.106 -6.77565 123.396 -6.87373 123.646C-7.11706 124.271 -7.13215 124.946 -7.27362 125.593C-7.35662 125.969 -7.28117 126.38 -7.2491 126.773ZM8.46171 130.092C8.42021 130.404 8.38815 130.686 8.25422 130.957C7.97882 130.671 8.01655 130.507 8.46171 130.092ZM7.15829 120.165C7.17527 120.148 7.19225 120.131 7.21111 120.117C7.42992 120.312 7.65816 120.5 7.74115 120.804C7.54498 120.59 7.35069 120.378 7.15829 120.165ZM5.26635 132.658C5.32294 132.597 5.38142 132.549 5.46819 132.605C5.47762 132.665 5.44178 132.695 5.39651 132.71C5.34369 132.722 5.28144 132.746 5.26635 132.658ZM0.0187283 117.838C0.569521 117.61 2.0295 117.752 3.38385 118.22C4.74386 118.69 5.92278 119.459 6.89799 120.511C6.23024 120.037 5.61909 119.484 4.88155 119.105C4.12893 118.716 3.33669 118.43 2.51993 118.209C1.72015 117.991 0.89962 117.901 0.0187283 117.838ZM-3.39166 123.228C-3.12381 123.13 -2.84276 123.073 -2.5617 123.025C-2.45795 123.007 -2.33723 122.97 -2.26744 123.077C-2.1901 123.193 -2.27121 123.298 -2.33535 123.396C-2.35987 123.434 -2.39382 123.475 -2.43343 123.495C-2.72581 123.656 -2.84653 123.932 -2.95593 124.218C-3.02195 124.389 -3.08043 124.568 -3.24076 124.673C-3.41053 124.642 -3.41996 124.513 -3.44448 124.404C-3.50484 124.131 -3.56143 123.858 -3.61047 123.584C-3.65386 123.348 -3.63122 123.315 -3.39166 123.228Z" fill="#FF0000"/>
<path d="M328.856 143.167C328.946 143.539 329.094 143.893 329.165 144.27C329.171 144.297 329.174 144.328 329.192 144.347C329.437 144.607 329.577 144.938 329.771 145.232C330.037 145.64 330.394 145.963 330.704 146.329C331.028 146.71 331.42 147.022 331.839 147.295C332.093 147.461 332.286 147.699 332.543 147.849C332.95 148.086 333.27 148.45 333.709 148.638C333.78 148.669 333.833 148.74 333.899 148.79C334.096 148.946 334.282 149.121 334.518 149.225C334.593 149.26 334.66 149.316 334.69 149.393C334.773 149.606 334.959 149.66 335.149 149.672C335.258 149.678 335.346 149.706 335.423 149.764C335.609 149.907 335.797 150.043 336.032 150.093C336.063 150.101 336.096 150.132 336.117 150.159C336.228 150.305 336.383 150.34 336.552 150.334C336.702 150.328 336.84 150.357 336.962 150.449C337.045 150.511 337.133 150.551 337.24 150.536C337.267 150.532 337.304 150.53 337.319 150.545C337.511 150.723 337.743 150.661 337.965 150.661C337.982 150.661 338.003 150.657 338.019 150.663C338.266 150.771 338.531 150.796 338.793 150.838C338.908 150.857 339.016 150.896 339.135 150.878C339.307 150.853 339.476 150.913 339.648 150.919C339.992 150.93 340.337 150.925 340.68 150.901C341.094 150.876 341.506 150.84 341.926 150.869C342.421 150.901 342.923 150.892 343.42 150.863C343.861 150.838 344.261 150.646 344.641 150.432C345.019 150.218 345.406 150.016 345.76 149.762C345.968 149.614 346.14 149.427 346.297 149.231C346.531 148.941 346.75 148.64 347.016 148.379C347.496 147.907 347.825 147.334 348.073 146.712C348.328 146.069 348.567 145.423 348.665 144.73C348.725 144.307 348.769 143.887 348.709 143.456C348.634 142.927 348.573 142.396 348.435 141.878C348.372 141.639 348.299 141.406 348.18 141.191C348.126 141.095 348.113 140.979 348.057 140.889C347.862 140.558 347.739 140.184 347.486 139.886C347.369 139.748 347.262 139.601 347.154 139.453C346.79 138.953 346.393 138.476 345.937 138.066C345.63 137.79 345.297 137.536 344.967 137.281C344.204 136.688 343.352 136.245 342.526 135.754C342.185 135.552 341.859 135.321 341.498 135.15C340.973 134.902 340.455 134.629 339.901 134.463C339.526 134.35 339.148 134.228 338.751 134.175C338.232 134.103 337.712 134.048 337.192 133.986C336.874 133.947 336.56 133.926 336.247 133.944C335.597 133.982 334.943 134.051 334.38 134.413C334.113 134.584 333.833 134.679 333.532 134.756C332.858 134.931 332.202 135.173 331.558 135.437C331.149 135.602 330.766 135.843 330.425 136.122C330.097 136.391 329.83 136.722 329.684 137.144C329.571 137.469 329.445 137.785 329.395 138.131C329.368 138.318 329.301 138.522 329.207 138.695C329.14 138.816 329.128 138.907 329.244 139.032C329.056 139.116 328.996 139.238 328.987 139.395C328.979 139.522 328.946 139.648 328.941 139.775C328.916 140.381 328.916 140.991 328.778 141.587C328.655 142.128 328.73 142.652 328.856 143.167ZM347.687 140.935C347.584 140.854 347.553 140.769 347.551 140.671C347.636 140.729 347.71 140.791 347.687 140.935ZM347.463 142.823C347.484 142.821 347.505 142.817 347.526 142.815C347.542 142.836 347.567 142.854 347.574 142.879C347.827 143.62 347.915 144.382 347.869 145.161C347.862 145.309 347.804 145.446 347.697 145.563C347.647 144.643 347.726 143.72 347.463 142.823ZM345.887 139.18C346.708 140.063 347.419 141.014 347.737 142.213C347.451 141.678 347.043 141.227 346.727 140.716C346.596 140.506 346.418 140.335 346.293 140.127C346.127 139.848 345.989 139.553 345.839 139.263C345.828 139.24 345.837 139.211 345.887 139.18ZM345.369 146.955C345.421 146.897 345.461 146.879 345.504 146.939C345.469 146.983 345.431 146.995 345.369 146.955ZM344.675 138.17C344.997 138.366 345.369 138.884 345.41 139.195C345.164 138.853 344.921 138.51 344.675 138.17ZM344.037 136.969C344.148 136.926 344.194 136.986 344.24 137.019C344.76 137.383 345.243 137.789 345.728 138.195C345.876 138.318 346.012 138.449 346.127 138.601C346.424 139.001 346.775 139.359 347.058 139.769C347.252 140.05 347.465 140.321 347.545 140.664C347.494 140.644 347.451 140.617 347.425 140.567C347.099 139.952 346.662 139.422 346.175 138.932C346.035 138.791 345.897 138.645 345.764 138.499C345.459 138.162 345.134 137.85 344.75 137.604C344.482 137.433 344.294 137.18 344.037 136.969ZM339.595 135.772C341.098 136.041 342.444 136.517 343.504 137.61C343.32 137.486 343.067 137.459 342.923 137.288C342.754 137.088 342.515 137.028 342.308 136.923C342.045 136.79 341.761 136.682 341.489 136.563C340.96 136.332 340.431 136.103 339.876 135.935C339.79 135.908 339.696 135.883 339.595 135.772ZM338.901 135.425C338.981 135.398 339.056 135.318 339.146 135.387C339.271 135.485 339.416 135.475 339.56 135.479C339.654 135.481 339.758 135.475 339.819 135.585C339.635 135.643 339.064 135.539 338.901 135.425ZM338.354 135.331C338.486 135.308 338.619 135.314 338.749 135.321C338.818 135.325 338.864 135.362 338.893 135.423C338.701 135.47 338.523 135.445 338.354 135.331ZM332.434 141.295C332.441 141.212 332.497 141.166 332.581 141.177C332.662 141.189 332.675 141.253 332.662 141.32C332.633 141.464 332.61 141.612 332.53 141.803C332.449 141.605 332.418 141.453 332.434 141.295ZM329.966 141.626C330.064 141.801 330.166 141.972 330.183 142.174C330.074 142.005 329.941 141.845 329.966 141.626ZM330.191 139.776C330.298 140.054 330.21 140.323 330.198 140.652C330.026 140.408 329.978 140.184 329.982 139.952C329.985 139.852 330.053 139.771 330.191 139.776ZM330.275 138.524C330.277 138.564 330.256 138.595 330.216 138.601C330.185 138.606 330.164 138.585 330.164 138.554C330.162 138.514 330.183 138.487 330.223 138.478C330.254 138.476 330.273 138.493 330.275 138.524ZM330.331 136.994C330.66 136.545 331.028 136.214 331.579 136.012C331.533 136.237 331.4 136.307 331.291 136.393C331.13 136.52 330.948 136.611 330.798 136.765C330.697 136.873 330.538 136.959 330.331 136.994ZM330.171 145.071C330.361 145.14 330.409 145.259 330.405 145.467C330.275 145.342 330.187 145.248 330.171 145.071ZM330.17 143.633C330.058 143.552 330.012 143.448 329.989 143.279C330.217 143.429 330.221 143.437 330.17 143.633ZM329.936 143.872C330.051 143.97 330.114 144.047 330.133 144.16C330.01 144.126 329.959 144.039 329.936 143.872ZM329.811 144.193C329.943 144.21 329.976 144.264 329.913 144.385C329.807 144.355 329.78 144.297 329.811 144.193ZM329.615 141.393C329.665 141.533 329.709 141.676 329.767 141.813C329.884 142.097 330.022 142.371 330.175 142.636C330.262 142.784 330.283 142.944 330.193 143.125C329.738 142.619 329.55 142.051 329.615 141.393ZM329.539 142.526C329.606 142.628 329.654 142.717 329.665 142.827C329.523 142.709 329.523 142.709 329.539 142.526Z" fill="#008029"/>
<path d="M233.136 34.4457C233.316 34.8551 233.562 35.2202 233.823 35.5854C234.433 36.4436 235.235 37.0601 236.092 37.6228C236.682 38.0116 237.338 38.2487 238.003 38.47C238.812 38.7387 239.642 38.8525 240.849 38.8699C241.48 38.8746 242.397 38.6012 243.265 38.1349C243.346 38.0907 243.43 38.0448 243.499 37.9832C243.837 37.6749 244.245 37.4679 244.602 37.185C244.773 37.049 244.94 36.9194 245.074 36.7408C245.212 36.5559 245.407 36.4326 245.594 36.3045C246.003 36.0216 246.354 35.6707 246.681 35.2977C246.799 35.1633 246.93 35.0479 247.081 34.9578C247.781 34.539 248.123 33.8846 248.262 33.1022C248.296 32.9125 248.363 32.7544 248.461 32.5885C248.653 32.266 248.739 31.8962 248.806 31.5263C248.82 31.452 248.792 31.3825 248.756 31.3177C248.595 31.0284 248.605 30.7123 248.648 30.4025C248.812 29.2233 248.659 28.0979 248.153 27.0199C247.469 25.5594 246.508 24.3202 245.251 23.3386C244.65 22.8692 243.983 22.4677 243.25 22.2448C242.055 21.8813 240.841 21.7517 239.6 22.052C238.644 22.2828 237.72 22.5863 236.874 23.1C236.52 23.3149 236.184 23.5615 235.879 23.8381C235.248 24.4103 234.664 25.0283 234.355 25.855C234.228 26.198 234.044 26.5125 233.869 26.8303C233.629 27.2681 233.441 27.7344 233.196 28.1643C232.961 28.5784 232.835 29.0068 232.721 29.4604C232.572 30.0611 232.464 30.6538 232.436 31.2766C232.388 32.4067 232.69 33.4389 233.136 34.4457ZM247.653 32.9188C247.737 32.647 247.807 32.4194 247.877 32.1917C248.055 32.5221 248.007 32.6628 247.653 32.9188ZM247.24 34.0158C247.245 33.9289 247.287 33.8925 247.396 33.8988C247.357 33.981 247.327 34.0316 247.24 34.0158ZM241.239 22.8091C241.712 22.8123 242.193 22.8423 242.639 23.0652C242.173 22.9798 241.706 22.8945 241.239 22.8091ZM238.372 38.2503C238.514 38.2456 238.583 38.2582 238.653 38.3214C238.558 38.3578 238.497 38.3246 238.372 38.2503ZM234.089 35.3593C234.207 35.3325 234.231 35.4036 234.262 35.451C234.759 36.1892 235.452 36.706 236.173 37.1913C236.698 37.5438 237.265 37.8061 237.849 38.0369C237.935 38.0701 238.034 38.0954 238.109 38.2045C237.899 38.1934 237.748 38.0954 237.587 38.0353C236.355 37.5833 235.307 36.853 234.425 35.873C234.29 35.7213 234.176 35.5553 234.089 35.3593Z" fill="#FF7080"/>
</svg>
