<svg width="28" height="26" viewBox="0 0 28 26" fill="none" xmlns="http://www.w3.org/2000/svg">
<path d="M4.64843 25.7964C4.55215 25.7967 4.45819 25.7668 4.37971 25.711C4.30122 25.6552 4.24212 25.5763 4.21066 25.4853C4.17921 25.3943 4.17697 25.2958 4.20426 25.2034C4.23156 25.1111 4.28702 25.0296 4.36289 24.9703L6.58624 23.2266L2.42046 25.631C2.31883 25.6897 2.19867 25.7076 2.08437 25.6809C1.97007 25.6542 1.87021 25.5851 1.80505 25.4874C1.73989 25.3898 1.71433 25.2711 1.73354 25.1553C1.75276 25.0395 1.81532 24.9354 1.90852 24.864L5.99205 21.7499L1.28753 24.4658C1.18491 24.5238 1.064 24.5403 0.949551 24.5121C0.835102 24.4839 0.735772 24.413 0.671891 24.3139C0.60801 24.2148 0.584409 24.0951 0.605921 23.9792C0.627432 23.8633 0.692428 23.76 0.787604 23.6904L4.06811 21.3405L1.20344 22.9955C1.10231 23.0527 0.983357 23.0696 0.870285 23.043C0.757213 23.0164 0.658315 22.9482 0.593289 22.8519C0.528264 22.7556 0.501881 22.6384 0.519396 22.5236C0.536911 22.4088 0.597038 22.3047 0.687803 22.2322L5.74717 18.2642L1.20067 20.8886C1.09977 20.9451 0.981349 20.9618 0.868788 20.9352C0.756227 20.9087 0.657714 20.8409 0.592709 20.7452C0.527703 20.6496 0.500932 20.533 0.517682 20.4186C0.534433 20.3042 0.593488 20.2002 0.683182 20.1272L3.54785 17.8622L1.20067 19.2151C1.09982 19.2734 0.980662 19.2915 0.867051 19.2657C0.75344 19.2399 0.653765 19.1722 0.587987 19.076C0.522208 18.9799 0.495182 18.8624 0.512321 18.7472C0.529459 18.6319 0.589496 18.5274 0.68041 18.4546L1.62945 17.6922L1.20067 17.9399C1.10221 18.0008 0.984478 18.0225 0.87077 18.0007C0.757062 17.979 0.655666 17.9153 0.58665 17.8224C0.517634 17.7294 0.486028 17.6139 0.498086 17.4988C0.510144 17.3836 0.564988 17.2772 0.651764 17.2006L2.42046 15.5262L1.20529 16.2275C1.10702 16.2803 0.992994 16.2957 0.884252 16.2709C0.77551 16.2462 0.679392 16.1829 0.613636 16.0928C0.54788 16.0027 0.516923 15.8919 0.526478 15.7808C0.536033 15.6697 0.585456 15.5658 0.665625 15.4883L2.08132 14.2158L1.20529 14.7203C1.10583 14.7862 0.984765 14.811 0.867433 14.7896C0.7501 14.7682 0.645587 14.7022 0.575757 14.6055C0.505927 14.5089 0.47619 14.3889 0.492768 14.2708C0.509345 14.1527 0.570952 14.0456 0.664701 13.9718L2.19314 12.6097L1.25704 13.1503C1.15599 13.2082 1.0368 13.2258 0.923324 13.1996C0.809851 13.1734 0.710465 13.1053 0.645056 13.0089C0.579648 12.9126 0.553042 12.795 0.570563 12.6799C0.588084 12.5648 0.64844 12.4605 0.739552 12.388L1.14338 12.0691C1.06859 12.0673 0.995114 12.0491 0.928076 12.0159C0.861039 11.9827 0.80206 11.9353 0.755261 11.8769C0.688345 11.7842 0.658203 11.6699 0.670663 11.5562C0.683124 11.4426 0.737303 11.3375 0.822719 11.2615L3.00171 9.32923L1.65902 10.1045C1.5582 10.1618 1.43955 10.179 1.32661 10.1529C1.21367 10.1267 1.11469 10.0591 1.04931 9.96331C0.983932 9.86757 0.956935 9.75075 0.973675 9.63603C0.990416 9.52132 1.04967 9.41709 1.13968 9.34402L2.36687 8.36449L2.01387 8.56779C1.91405 8.62379 1.797 8.64075 1.68539 8.61538C1.57378 8.59001 1.47556 8.52412 1.40976 8.43048C1.34395 8.33683 1.31524 8.2221 1.3292 8.1085C1.34315 7.9949 1.39878 7.89052 1.48529 7.81558L4.47378 5.28821L2.75036 6.28345C2.64959 6.33726 2.53246 6.35182 2.42157 6.32434C2.31069 6.29685 2.21392 6.22926 2.14995 6.13462C2.08597 6.03998 2.05932 5.92499 2.07515 5.81186C2.09098 5.69872 2.14816 5.59546 2.23565 5.522L3.18376 4.77072C3.10692 4.77474 3.03035 4.75892 2.9614 4.72477C2.89245 4.69062 2.83346 4.6393 2.7901 4.57574C2.72347 4.48169 2.6944 4.36614 2.70859 4.25176C2.72278 4.13739 2.77921 4.03244 2.8668 3.95753L3.74653 3.20347C3.67616 3.17378 3.61424 3.12711 3.56633 3.06763C3.4974 2.98193 3.4613 2.87446 3.46452 2.76453C3.46774 2.6546 3.51006 2.54942 3.58389 2.4679L4.56896 1.3858C4.55496 1.36764 4.5423 1.3485 4.53107 1.3285C4.47002 1.22258 4.45344 1.09677 4.48497 0.978645C4.51649 0.860518 4.59355 0.759701 4.69926 0.698277L5.80169 0.0615826C5.89709 0.0066781 6.00896 -0.0123631 6.11716 0.00788728C6.22535 0.0281377 6.32277 0.0863493 6.39185 0.172041C6.46094 0.257733 6.49717 0.365274 6.49401 0.475303C6.49085 0.585331 6.44852 0.690617 6.37462 0.772204L6.26096 0.896956L6.84498 0.560589C6.94475 0.502968 7.06244 0.484696 7.17498 0.509357C7.28751 0.534018 7.38678 0.599832 7.4533 0.693892C7.51983 0.787952 7.54881 0.903472 7.53457 1.0178C7.52033 1.13212 7.4639 1.237 7.37633 1.31187L7.25343 1.41629L7.85224 1.07161C7.95313 1.01509 8.07156 0.998456 8.18412 1.025C8.29668 1.05155 8.39519 1.11935 8.4602 1.215C8.5252 1.31065 8.55198 1.4272 8.53522 1.54163C8.51847 1.65606 8.45942 1.76005 8.36973 1.83305L7.72287 2.345L8.49355 1.89959C8.59351 1.84247 8.71119 1.82473 8.82355 1.84983C8.93591 1.87494 9.03484 1.94109 9.10098 2.03532C9.16712 2.12956 9.19569 2.24509 9.18111 2.35929C9.16652 2.47349 9.10983 2.57813 9.02213 2.65272L6.03549 5.17917L7.19336 4.51198C7.29418 4.45473 7.41283 4.43748 7.52577 4.46364C7.63871 4.4898 7.73769 4.55747 7.80307 4.65321C7.86845 4.74895 7.89545 4.86577 7.87871 4.98049C7.86197 5.0952 7.80271 5.19944 7.7127 5.2725L6.48644 6.25295H6.49568C6.59481 6.1956 6.71172 6.17711 6.82372 6.20107C6.93571 6.22502 7.03482 6.28973 7.10181 6.38262C7.16881 6.47551 7.19891 6.58998 7.18629 6.70381C7.17367 6.81764 7.11922 6.92273 7.0335 6.99869L4.85266 8.92633L5.90519 8.31921C6.00624 8.26131 6.12543 8.24371 6.2389 8.26993C6.35238 8.29615 6.45176 8.36426 6.51717 8.46062C6.58258 8.55698 6.60919 8.67449 6.59167 8.78963C6.57414 8.90476 6.51379 9.00904 6.42268 9.08158L5.91535 9.48171C6.00686 9.48651 6.09487 9.51841 6.1682 9.57336C6.24153 9.6283 6.29686 9.70381 6.32717 9.79028C6.35748 9.87675 6.3614 9.97028 6.33842 10.059C6.31544 10.1477 6.26661 10.2276 6.19812 10.2884L4.66969 11.6478L5.43668 11.2051C5.53495 11.1524 5.64898 11.137 5.75772 11.1617C5.86646 11.1865 5.96258 11.2498 6.02833 11.3398C6.09409 11.4299 6.12505 11.5407 6.11549 11.6518C6.10593 11.763 6.05651 11.8669 5.97634 11.9444L4.56342 13.2178L5.32579 12.7788C5.42382 12.7053 5.54705 12.6738 5.66836 12.6911C5.78967 12.7084 5.89912 12.7732 5.97265 12.8713C6.04617 12.9693 6.07774 13.0925 6.06041 13.2138C6.04308 13.3351 5.97827 13.4446 5.88024 13.5181L4.10784 15.1972L6.3469 13.9035C6.4476 13.8465 6.566 13.8294 6.67869 13.8555C6.79139 13.8817 6.89019 13.9491 6.95556 14.0445C7.02093 14.14 7.04812 14.2565 7.03175 14.371C7.01539 14.4855 6.95665 14.5897 6.86716 14.6631L5.91997 15.4254L8.55731 13.9035C8.65825 13.8459 8.77716 13.8285 8.89036 13.8547C9.00356 13.8809 9.10274 13.9488 9.16813 14.0448C9.23352 14.1408 9.26032 14.258 9.2432 14.3729C9.22607 14.4878 9.16628 14.5921 9.07573 14.6649L6.21106 16.9289L10.9405 14.1992C11.0417 14.1409 11.1612 14.1231 11.2749 14.1493C11.3887 14.1756 11.4883 14.2439 11.5538 14.3406C11.6192 14.4373 11.6456 14.5552 11.6277 14.6705C11.6097 14.7859 11.5488 14.8902 11.4571 14.9625L6.39403 18.9296L11.7704 15.8265C11.873 15.7685 11.9939 15.7519 12.1083 15.7801C12.2228 15.8084 12.3221 15.8793 12.386 15.9783C12.4499 16.0774 12.4735 16.1971 12.452 16.313C12.4305 16.4289 12.3655 16.5322 12.2703 16.6018L8.98886 18.9527L11.7722 17.3466C11.8738 17.2891 11.9934 17.2722 12.1069 17.2993C12.2205 17.3264 12.3195 17.3954 12.3843 17.4925C12.449 17.5897 12.4745 17.7077 12.4558 17.8229C12.4371 17.9381 12.3754 18.042 12.2832 18.1136L8.20247 21.2259L11.7722 19.1707C11.8733 19.1136 11.9923 19.0967 12.1054 19.1233C12.2184 19.1499 12.3173 19.2181 12.3824 19.3144C12.4474 19.4106 12.4738 19.5278 12.4563 19.6427C12.4387 19.7575 12.3786 19.8615 12.2878 19.934L10.0626 21.675L11.7722 20.6881C11.8721 20.6302 11.99 20.6119 12.1027 20.6366C12.2155 20.6613 12.3149 20.7273 12.3814 20.8216C12.4479 20.916 12.4767 21.0318 12.4621 21.1463C12.4476 21.2608 12.3907 21.3656 12.3026 21.4403L11.1826 22.393L11.7722 22.053C11.8656 21.9996 11.9747 21.9806 12.0806 21.999C12.1866 22.0175 12.2828 22.0724 12.3527 22.1541C12.4225 22.2359 12.4616 22.3395 12.4633 22.4471C12.465 22.5546 12.4291 22.6593 12.3618 22.7433L11.5957 23.6914L11.6927 23.6368C11.7983 23.5816 11.9212 23.5693 12.0356 23.6025C12.1501 23.6357 12.2473 23.7119 12.3069 23.815C12.3666 23.9182 12.384 24.0404 12.3557 24.1562C12.3273 24.2719 12.2553 24.3722 12.1548 24.4362L9.90555 25.7318C9.81214 25.7856 9.70283 25.8051 9.59655 25.7869C9.49027 25.7686 9.39372 25.7138 9.32363 25.6318C9.25353 25.5499 9.21431 25.446 9.21274 25.3382C9.21118 25.2304 9.24738 25.1254 9.31506 25.0415L10.0821 24.0933L7.24326 25.7318C7.14353 25.7884 7.02627 25.806 6.9143 25.781C6.80233 25.756 6.70367 25.6903 6.6375 25.5966C6.57133 25.5028 6.5424 25.3878 6.55632 25.274C6.57025 25.1601 6.62604 25.0555 6.71284 24.9805L7.83468 24.0268L4.87945 25.7318C4.80961 25.7736 4.72984 25.7959 4.64843 25.7964Z" fill="white"/>
<path d="M20.9648 25.7964C20.872 25.7965 20.7813 25.7686 20.7046 25.7164C20.6278 25.6642 20.5686 25.5901 20.5346 25.5037C20.5006 25.4173 20.4934 25.3227 20.5139 25.2322C20.5344 25.1417 20.5818 25.0594 20.6497 24.9962L23.4903 22.3496L17.6501 25.7225C17.5475 25.7805 17.4266 25.7971 17.3121 25.7689C17.1977 25.7406 17.0984 25.6697 17.0345 25.5707C16.9706 25.4716 16.947 25.3518 16.9685 25.2359C16.99 25.12 17.055 25.0168 17.1502 24.9472L18.8699 23.7163L16.447 25.1145C16.3453 25.1712 16.226 25.1875 16.1128 25.16C15.9997 25.1325 15.9011 25.0634 15.8367 24.9663C15.7724 24.8693 15.747 24.7515 15.7658 24.6366C15.7845 24.5217 15.846 24.4181 15.9378 24.3465L20.6081 20.8082L15.9877 23.4761C15.8852 23.5349 15.764 23.5522 15.649 23.5244C15.5341 23.4966 15.4342 23.4258 15.37 23.3266C15.3057 23.2274 15.2819 23.1073 15.3034 22.991C15.325 22.8748 15.3903 22.7712 15.4859 22.7017L18.9263 20.2205L15.9877 21.9162C15.8863 21.9741 15.7668 21.9914 15.6531 21.9647C15.5395 21.9381 15.4402 21.8694 15.3751 21.7725C15.31 21.6756 15.284 21.5576 15.3024 21.4424C15.3207 21.3271 15.382 21.223 15.4739 21.1511L19.4373 18.0702L15.9868 20.0616C15.8843 20.1213 15.7628 20.1394 15.6474 20.1121C15.532 20.0847 15.4315 20.014 15.3668 19.9146C15.302 19.8152 15.278 19.6947 15.2997 19.5781C15.3213 19.4615 15.387 19.3576 15.4831 19.2881L15.9091 18.9776C15.8109 19.0119 15.704 19.0121 15.6057 18.9781C15.5073 18.9441 15.4234 18.8779 15.3673 18.7902C15.3113 18.7026 15.2865 18.5986 15.297 18.495C15.3074 18.3915 15.3525 18.2946 15.4249 18.2199L17.6769 15.9097L15.9868 16.8846C15.8901 16.9396 15.7769 16.958 15.6678 16.9363C15.5588 16.9146 15.4612 16.8543 15.393 16.7665C15.3248 16.6786 15.2906 16.5691 15.2966 16.4581C15.3026 16.347 15.3485 16.2419 15.4258 16.1619L17.761 13.7787L15.9868 14.8007C15.8891 14.8586 15.7736 14.8786 15.6622 14.8567C15.5508 14.8349 15.4514 14.7728 15.3828 14.6823C15.3143 14.5919 15.2814 14.4793 15.2906 14.3662C15.2997 14.253 15.3502 14.1472 15.4323 14.0689L17.7194 11.8566L16.0644 12.8121C15.9648 12.8693 15.8476 12.8874 15.7354 12.8629C15.6233 12.8383 15.5243 12.7729 15.4577 12.6794C15.3912 12.5858 15.3618 12.4708 15.3754 12.3568C15.389 12.2428 15.4445 12.138 15.5312 12.0627L17.152 10.6692L16.2557 11.1857C16.1574 11.2391 16.043 11.2551 15.9339 11.2306C15.8247 11.206 15.7282 11.1428 15.6621 11.0525C15.5961 10.9622 15.5651 10.851 15.5748 10.7395C15.5846 10.6281 15.6344 10.5239 15.7151 10.4465L18.4661 7.95235L16.7002 8.96885C16.5983 9.0272 16.4781 9.0446 16.3639 9.01752C16.2497 8.99045 16.1501 8.92092 16.0852 8.82306C16.0204 8.7252 15.9953 8.60635 16.0149 8.49063C16.0346 8.37491 16.0975 8.271 16.191 8.20001L16.8379 7.70839C16.7612 7.71156 16.685 7.69473 16.6168 7.65958C16.5486 7.62442 16.4907 7.57214 16.4488 7.50787C16.3832 7.41175 16.3562 7.2944 16.3733 7.17927C16.3905 7.06414 16.4504 6.95972 16.5412 6.88688L18.4079 5.39541L17.7268 5.78814C17.6274 5.84428 17.5107 5.86162 17.3993 5.83683C17.2879 5.81204 17.1896 5.74687 17.1233 5.65388C17.0571 5.5609 17.0276 5.44669 17.0406 5.33327C17.0536 5.21985 17.1081 5.11525 17.1936 5.03963L18.4448 3.95568C18.3615 3.97544 18.2743 3.97193 18.1929 3.94553C18.1114 3.91913 18.0387 3.87086 17.9828 3.80598C17.9129 3.72361 17.874 3.61933 17.873 3.51128C17.872 3.40323 17.9089 3.29824 17.9772 3.21457L19.4142 1.44956C19.358 1.40159 19.3141 1.34083 19.2862 1.27239C19.2584 1.20395 19.2473 1.12982 19.254 1.05623C19.2607 0.982634 19.285 0.911719 19.3247 0.849435C19.3645 0.787152 19.4186 0.735318 19.4826 0.698282L20.5878 0.061587C20.6813 0.00831058 20.7904 -0.0106664 20.8964 0.00793001C21.0024 0.0265264 21.0986 0.0815299 21.1683 0.163451C21.2381 0.245373 21.2771 0.349075 21.2786 0.456667C21.28 0.564259 21.2439 0.668994 21.1764 0.752803L20.2847 1.84969L22.1042 0.799931C22.2036 0.742927 22.3207 0.724915 22.4327 0.749394C22.5447 0.773874 22.6435 0.839097 22.7101 0.932395C22.7767 1.02569 22.8062 1.14041 22.7929 1.25425C22.7797 1.3681 22.7246 1.47295 22.6383 1.54844L21.4574 2.56771L23.1946 1.566C23.2953 1.50905 23.4137 1.49194 23.5264 1.51807C23.6391 1.54419 23.7379 1.61164 23.8033 1.70709C23.8687 1.80253 23.8959 1.91903 23.8795 2.03355C23.8631 2.14807 23.8044 2.25228 23.7149 2.3256L21.851 3.81984L22.5413 3.42249C22.6431 3.36414 22.7634 3.34673 22.8776 3.37381C22.9918 3.40088 23.0914 3.47041 23.1562 3.56827C23.221 3.66613 23.2462 3.78499 23.2265 3.9007C23.2069 4.01642 23.1439 4.12033 23.0505 4.19132L22.0811 4.92135C22.1665 4.93607 22.2461 4.97454 22.3107 5.03235C22.3753 5.09016 22.4224 5.16498 22.4465 5.24826C22.4706 5.33154 22.4708 5.41992 22.447 5.5033C22.4232 5.58668 22.3765 5.66169 22.3121 5.71976L19.563 8.20648L20.9168 7.4247C21.0162 7.36857 21.1328 7.35122 21.2443 7.37602C21.3557 7.40081 21.454 7.46598 21.5203 7.55896C21.5865 7.65194 21.616 7.76615 21.603 7.87958C21.59 7.993 21.5355 8.0976 21.45 8.17321L19.8319 9.57135L20.5111 9.17954C20.6087 9.12164 20.7243 9.10171 20.8357 9.12355C20.947 9.14539 21.0465 9.20747 21.115 9.29795C21.1836 9.38843 21.2164 9.50098 21.2073 9.61413C21.1982 9.72727 21.1477 9.83309 21.0655 9.91141L18.7784 12.1292L20.2172 11.2975C20.314 11.241 20.4279 11.2216 20.5379 11.2429C20.6479 11.2642 20.7465 11.3247 20.8152 11.4132C20.8839 11.5016 20.9181 11.6121 20.9115 11.7239C20.9048 11.8358 20.8578 11.9414 20.7791 12.0211L18.4458 14.4052L20.1128 13.4414C20.2093 13.3857 20.3228 13.3668 20.4322 13.3881C20.5416 13.4094 20.6396 13.4696 20.7081 13.5575C20.7767 13.6454 20.8111 13.7551 20.8051 13.8664C20.7992 13.9777 20.7531 14.0831 20.6756 14.1631L18.4227 16.4733L22.8703 13.9035C22.9727 13.8452 23.0935 13.8283 23.2079 13.8561C23.3224 13.884 23.4219 13.9545 23.4861 14.0533C23.5503 14.1521 23.5744 14.2716 23.5533 14.3876C23.5323 14.5035 23.4678 14.607 23.373 14.6769L23.0089 14.9421L24.8007 13.9035C24.902 13.846 25.0212 13.8288 25.1345 13.8555C25.2479 13.8821 25.347 13.9506 25.412 14.0472C25.4771 14.1437 25.5033 14.2613 25.4854 14.3764C25.4674 14.4914 25.4067 14.5955 25.3154 14.6677L21.352 17.7486L26.3421 14.8664C26.4444 14.8094 26.5646 14.7935 26.6782 14.8217C26.7919 14.85 26.8906 14.9204 26.9543 15.0186C27.0181 15.1169 27.0421 15.2357 27.0216 15.351C27.0011 15.4663 26.9376 15.5696 26.8438 15.6398L23.4035 18.1228L26.5583 16.3061C26.66 16.2493 26.7793 16.2331 26.8925 16.2605C27.0056 16.288 27.1042 16.3572 27.1686 16.4542C27.2329 16.5513 27.2582 16.669 27.2395 16.7839C27.2207 16.8988 27.1593 17.0024 27.0675 17.074L22.3971 20.6123L26.5555 18.2097C26.6582 18.1517 26.7791 18.1351 26.8935 18.1634C27.008 18.1916 27.1073 18.2625 27.1712 18.3616C27.2351 18.4606 27.2587 18.5804 27.2371 18.6963C27.2156 18.8122 27.1506 18.9155 27.0555 18.985L25.3385 20.215L26.5546 19.5136C26.653 19.4556 26.7695 19.4361 26.8814 19.4589C26.9934 19.4817 27.0929 19.5452 27.1608 19.6371C27.2287 19.729 27.2602 19.8428 27.2491 19.9565C27.238 20.0702 27.1851 20.1758 27.1007 20.2529L24.2564 22.8994L26.5583 21.5734C26.6521 21.5197 26.7617 21.5006 26.8681 21.5193C26.9744 21.5381 27.0709 21.5936 27.1407 21.676C27.2104 21.7585 27.249 21.8629 27.2499 21.9709C27.2507 22.0789 27.2136 22.1838 27.1451 22.2674L25.9992 23.6535L26.5398 23.3421C26.6459 23.2818 26.7715 23.2659 26.8893 23.2978C27.007 23.3298 27.1073 23.407 27.1683 23.5127C27.2293 23.6184 27.2461 23.7439 27.2149 23.8618C27.1837 23.9798 27.1071 24.0806 27.0019 24.1423L24.2472 25.7318C24.1534 25.786 24.0436 25.8055 23.9368 25.787C23.8301 25.7685 23.7333 25.713 23.6633 25.6304C23.5933 25.5477 23.5546 25.4431 23.5539 25.3348C23.5532 25.2264 23.5905 25.1213 23.6594 25.0378L24.8053 23.6516L21.1958 25.7318C21.126 25.7737 21.0462 25.796 20.9648 25.7964Z" fill="white"/>
<path d="M12.7038 16.0471C12.4117 12.871 8.42247 14.1065 6.2444 13.8607C5.86183 9.51195 8.15726 5.62063 9.3521 1.83003C3.46845 -4.16359 0.810777 8.19143 0.345962 12.4977C1.07044 16.4204 -2.47619 26.3784 3.87135 25.774C13.7702 26.4754 12.9144 25.0209 12.7038 16.0471ZM10.412 24.9497C8.15079 24.5089 2.14423 26.3035 1.61473 23.4213C1.62582 16.5636 0.901337 9.25598 4.40454 3.03781C5.22421 0.790433 5.97919 0.296047 7.88835 2.08692C8.34115 2.77352 7.1269 4.23173 6.80439 4.92479C5.76572 7.73401 4.07742 12.1022 5.31107 14.685C7.26089 15.062 10.8778 13.5354 11.3601 16.2873C10.8584 18.8055 12.5864 23.2365 10.412 24.9497Z" fill="white"/>
<path d="M27.4937 16.0676C27.222 12.8444 23.2429 14.0143 21.0371 13.7935C20.6508 9.45859 23.0165 5.62086 24.1365 1.83026C18.3092 -4.50157 15.5951 8.28777 15.1248 12.4776C15.8456 16.4327 12.3017 26.3555 18.6677 25.8417C28.6053 26.5708 27.6868 25.0239 27.4937 16.0676ZM25.0254 24.8825C22.876 24.5729 16.8935 26.1374 16.4046 23.4418C16.4176 16.5888 15.6829 9.28486 19.1991 3.07593C20.0169 0.842413 20.7562 0.343407 22.6783 2.10564C21.4899 5.85465 19.2591 9.9964 19.6713 14.3276C24.7612 16.1138 26.6796 11.9324 26.1399 20.4469C26.139 21.5992 26.6638 24.67 25.0254 24.8825Z" fill="white"/>
</svg>
