<svg width="69" height="69" viewBox="0 0 69 69" fill="none" xmlns="http://www.w3.org/2000/svg">
<path d="M44.9828 37.1539L45.6462 37.95L45.9116 38.3481L46.0443 38.4808C46.177 38.6135 46.177 38.7462 46.3097 38.7462C46.7078 39.1442 47.3712 39.4096 48.0347 39.4096H49.0962L51.0866 39.2769H52.0154H52.5462C52.6789 39.2769 52.9443 39.2769 53.2097 39.1442C54.5366 38.8789 55.4654 37.6846 55.3328 36.3577L55.2001 34.3673L55.0674 32.3769C55.0674 31.9789 55.0674 31.8462 54.9347 31.05C54.802 30.3866 54.4039 29.8558 53.7404 29.4577L53.8731 29.5904C50.5558 26.9366 47.2385 24.4154 43.9212 21.8942C40.6039 19.3731 37.2866 16.9846 33.9693 14.5962C33.8366 14.0654 33.7039 13.5346 33.7039 12.8712C33.8366 12.7385 33.9693 12.6058 34.102 12.4731L36.4904 8.09424C36.6231 7.96155 37.8174 5.4404 37.8174 5.57309L37.9501 5.4404L38.0828 5.17501C38.4808 4.37886 38.3481 3.18463 37.8174 2.52117C37.4193 1.9904 36.8885 1.72501 36.3577 1.45963C36.0924 1.32693 35.6943 1.32693 35.5616 1.45963H34.8981L32.377 1.59232C30.7847 1.72501 29.0597 1.8577 27.4674 2.12309C31.3154 2.65386 33.0404 2.65386 34.8981 2.78655H35.5616C35.827 2.78655 35.827 2.78655 35.9597 2.91924C36.2251 3.05193 36.3577 3.18463 36.4904 3.31732C36.6231 3.45001 36.6231 3.7154 36.6231 3.84809C36.6231 3.98078 36.4904 4.11347 36.2251 4.51155L34.8981 6.63463L32.2443 10.6154H27.202H22.1597L19.9039 7.0327L18.577 4.90963C18.3116 4.51155 18.1789 4.37886 18.1789 4.24617C18.1789 4.11347 18.1789 3.84809 18.3116 3.7154C18.4443 3.45001 18.577 3.31732 18.8424 3.31732C18.9751 3.31732 18.9751 3.18463 19.2404 3.18463H19.9039L22.4251 3.05193C23.8847 2.78655 25.6097 2.65386 27.202 2.38847C25.6097 2.12309 23.8847 1.9904 22.2924 1.8577L19.7712 1.72501H19.1077C18.8424 1.72501 18.577 1.72501 18.3116 1.72501C17.7808 1.8577 17.2501 2.12309 16.852 2.65386C16.3212 3.45001 16.1885 4.51155 16.5866 5.3077L16.7193 5.57309C17.1174 6.23655 18.1789 8.35963 18.0462 8.22693L20.4347 12.6058C20.5674 12.8712 20.8327 13.1365 21.2308 13.1365C19.3731 22.2923 17.5154 31.7135 15.7904 41.4L14.4635 48.9635L13.8001 52.8116C13.402 54.4039 14.0654 56.2616 15.2597 57.3231L20.5674 62.7635L23.2212 65.4173L23.8847 66.0808C24.8135 67.0096 26.0077 67.4077 27.3347 67.5404C28.6616 67.5404 29.8558 67.0096 30.7847 66.2135L31.4481 65.55L34.102 62.8962L39.4097 57.5885C40.6039 56.5269 41.2674 54.6692 40.8693 53.0769L40.2058 49.3615C39.6751 46.0442 38.2154 37.1539 36.3577 27.0692C37.552 28.5289 38.6135 29.9885 39.8078 31.4481C41.5328 33.0404 43.2578 35.0308 44.9828 37.1539ZM21.3635 13.2692C21.8943 13.2692 27.4674 13.2692 27.202 13.2692H32.7751C32.7751 13.5346 32.9077 13.8 32.9077 14.0654C31.5808 14.8616 30.2539 15.6577 29.0597 16.7192C26.1404 18.975 23.8847 21.3635 21.7616 24.0173C20.9654 25.0789 20.1693 26.1404 19.5058 27.2019C20.0366 22.5577 20.7001 17.9135 21.2308 13.2692H21.3635ZM19.3731 27.9981C20.7001 27.2019 22.027 26.4058 23.0885 25.4769C25.7424 23.3539 28.1308 20.9654 30.3866 18.1789C31.3154 17.1173 32.1116 15.9231 32.9077 14.5962C33.5712 19.5058 34.102 24.4154 34.8981 29.325C33.0404 30.5192 31.4481 31.8462 29.8558 33.1731C26.0077 36.3577 22.8231 39.675 19.9039 43.125C18.8424 44.3192 17.9135 45.5135 16.9847 46.8404C17.2501 44.5846 17.9135 39.9404 19.3731 27.9981ZM37.552 55.4654L32.2443 60.7731C32.1116 60.9058 28.6616 64.3558 28.927 64.0904C28.5289 64.4885 27.9981 64.7539 27.3347 64.7539C26.6712 64.7539 26.1404 64.4885 25.6097 64.0904L24.9462 63.4269L22.2924 60.7731L21.6289 60.1096C23.0885 59.1808 24.4154 58.2519 25.6097 57.1904C28.7943 54.5365 31.5808 51.75 34.3674 48.4327C35.2962 47.2385 36.2251 46.0442 37.0212 44.85L37.6847 49.3615L38.2154 53.0769C38.4808 54.0058 38.2154 54.8019 37.552 55.4654ZM37.0212 44.0539C35.5616 44.9827 34.2347 45.9116 33.0404 46.9731C29.7231 49.7596 26.8039 52.6789 24.2827 55.7308C23.2212 57.0577 22.2924 58.3846 21.3635 59.7116L16.9847 55.3327C16.3212 54.6692 16.0558 53.8731 16.1885 52.9442L16.7193 49.2289L16.9847 47.7692C18.577 46.7077 20.0366 45.5135 21.4962 44.3192C25.0789 41.2673 28.2635 38.0827 31.4481 34.3673C32.7751 32.775 33.9693 31.1827 35.1635 29.4577C35.6943 33.5712 36.3577 37.6846 36.8885 41.7981L37.0212 44.0539ZM34.3674 16.3212C37.0212 18.8423 39.8077 21.2308 42.5943 23.6192C45.7789 26.2731 48.9635 29.0596 52.2808 31.7135L52.4135 31.8462V32.5096C52.4135 32.6423 52.6789 36.7558 52.6789 36.4904C52.6789 36.4904 52.6789 36.6231 52.5462 36.6231L48.8308 36.8885L47.902 37.0212H47.7693L46.5751 35.6942C43.7885 32.9077 41.002 29.9885 35.9597 25.2116C35.5616 22.1596 35.0308 19.2404 34.3674 16.3212Z" fill="#334DB5"/>
</svg>
