<svg width="69" height="69" viewBox="0 0 69 69" fill="none" xmlns="http://www.w3.org/2000/svg">
<path d="M42.5717 19.9189C45.3057 19.7887 47.9094 19.3981 50.6434 18.8773C47.9094 18.3566 45.3057 18.0962 42.5717 17.8358C37.3641 17.4453 32.1566 17.4453 26.4283 17.8358C23.6943 17.966 21.0906 18.3566 18.3566 18.8773C21.0906 19.3981 23.6943 19.6585 26.4283 19.9189C32.1566 20.3094 37.3641 20.3094 42.5717 19.9189Z" fill="#FF7080"/>
<path d="M43.6132 25.7773C38.666 24.0849 30.0736 24.0849 25.2566 25.7773C30.2038 27.4698 38.7962 27.4698 43.6132 25.7773Z" fill="#FF7080"/>
<path d="M63.5321 2.47357C63.2717 2.34338 62.8811 2.34338 62.6207 2.2132H62.1H61.7094H58.7151H34.8906H11.066H8.07169C7.55093 2.2132 7.16037 2.2132 6.50942 2.2132C4.4264 2.60376 2.73395 4.03584 2.2132 5.98867C2.08301 6.50942 2.08301 7.29055 2.08301 7.68112V9.1132L2.2132 20.9604C2.60376 46.8679 2.60376 45.8264 2.60376 46.4774C2.60376 46.9981 2.86414 47.649 3.12452 48.1698C3.64527 49.2113 4.55659 49.9924 5.72829 50.2528C6.24905 50.383 6.89999 50.383 7.29056 50.383C7.42074 50.383 11.9773 50.2528 11.717 50.2528C15.2321 50.1226 18.7472 50.1226 22.2623 49.9924C22.783 51.034 23.5641 51.9453 24.3453 52.7264C24.4755 52.8566 24.6056 52.8566 24.6056 52.9868C23.6943 54.2887 22.9132 55.4604 22.1321 56.8924C21.0906 58.5849 20.1792 60.2773 19.3981 61.9698C19.2679 62.2302 19.2679 62.4906 19.2679 62.7509C19.3981 63.4019 20.049 63.7924 20.7 63.5321H20.8302C22.1321 63.1415 23.434 62.7509 24.7358 62.3604C25.2566 63.6623 25.7773 64.834 26.2981 66.0057V66.1358C26.4283 66.3962 26.5585 66.6566 26.949 66.6566C27.6 66.917 28.2509 66.6566 28.5113 66.0057C29.2924 64.3132 29.9434 62.4906 30.5943 60.6679C31.1151 59.2358 31.5056 57.934 31.8962 56.5019C32.6773 56.6321 33.4585 56.7623 34.1094 56.7623C35.0207 56.7623 36.0623 56.6321 36.9736 56.3717C37.3641 57.8038 37.8849 59.2358 38.2755 60.6679C38.9264 62.4906 39.5773 64.3132 40.3585 66.0057C40.4887 66.266 40.6189 66.5264 40.8792 66.6566C41.4 66.917 42.1811 66.6566 42.4415 66.1358V66.0057C42.9623 64.834 43.483 63.5321 44.0038 62.3604C44.3943 62.4906 44.9151 62.6207 45.3057 62.7509C47.3887 63.4019 47.7792 63.5321 47.9094 63.5321C48.1698 63.6623 48.4302 63.5321 48.8207 63.4019C49.3415 63.1415 49.6019 62.3604 49.3415 61.8396C48.8207 60.9283 48.4302 60.017 47.9094 59.2358C47.3887 58.3245 46.9981 57.4132 46.4774 56.6321C45.6962 55.2 44.7849 53.8981 43.8736 52.5962C44.6547 51.8151 45.1755 50.9038 45.6962 49.9924C49.2113 50.1226 52.7264 50.2528 56.2415 50.2528C58.1943 50.2528 60.1472 50.383 62.2302 50.383C63.9226 50.2528 65.4849 49.0811 65.8755 47.2585C66.0056 46.7377 66.0057 46.0868 66.0057 45.566L66.3962 21.7415C66.3962 20.3094 66.5264 11.1962 66.5264 7.55093C66.5264 7.29056 66.5264 7.03018 66.5264 6.7698C66.7868 4.94716 65.3547 3.12452 63.5321 2.47357ZM29.1623 60.1472C28.6415 61.0585 28.1207 61.8396 27.7302 62.7509C27.4698 61.9698 27.0792 61.0585 26.8189 60.2774C26.5585 59.6264 25.9075 59.2358 25.2566 59.4962C24.4755 59.7566 23.5641 60.017 22.783 60.4075C23.9547 57.4132 24.6056 55.4604 25.1264 53.3774C26.949 54.9396 29.1623 56.1113 31.5056 56.6321C30.5943 57.6736 29.8132 58.9755 29.1623 60.1472ZM45.1755 57.283C45.4358 58.1943 45.8264 59.1057 46.217 60.1472C46.217 60.2774 46.217 60.2774 46.3472 60.4075C45.566 60.1472 44.7849 59.8868 43.8736 59.6264C43.2226 59.366 42.5717 59.7566 42.3113 60.4075C42.0509 61.1887 41.6604 62.1 41.4 62.8811C40.8792 61.9698 40.3585 61.0585 39.8377 60.2774C39.0566 58.9755 38.2755 57.8038 37.4943 56.5019C39.8377 55.8509 42.0509 54.6792 43.7434 52.9868C44.1339 54.2887 44.6547 55.8509 45.1755 57.283ZM42.5717 34.6302C44.6547 36.9736 45.8264 39.9679 45.6962 42.9623C45.566 45.9566 44.3943 48.9509 42.1811 50.9038C40.0981 52.9868 37.1038 54.1585 34.2396 54.1585C31.2453 54.1585 28.3811 52.9868 26.2981 50.9038C24.0849 48.8207 22.9132 45.9566 22.783 42.9623C22.6528 39.9679 23.8245 36.8434 25.9075 34.5C27.9906 32.1566 30.9849 30.7245 34.2396 30.334C30.9849 30.0736 27.4698 31.2453 24.9962 33.5887C22.3924 35.9321 20.8302 39.317 20.8302 42.8321V43.0924C17.4453 42.9623 13.9302 42.8321 10.5453 42.7019C10.6755 40.0981 10.6755 37.4943 10.8056 34.8906L11.066 26.5585V11.3264L22.1321 11.4566H34.3698C42.1811 11.4566 49.9924 11.4566 57.8038 11.3264C57.934 19.7887 58.1943 34.1094 58.4547 42.8321C54.8094 42.9623 51.1641 43.0924 47.5189 43.2226C47.5189 43.0924 47.5189 43.0924 47.5189 42.9623C47.3887 39.4472 45.8264 35.9321 43.2226 33.7189C40.6189 31.3755 37.234 30.2038 33.9792 30.4641C37.3641 30.7245 40.4887 32.2868 42.5717 34.6302ZM64.9641 46.9981C64.7038 48.3 63.6623 49.2113 62.3604 49.4717C60.5377 49.6019 58.4547 49.6019 56.5019 49.6019C52.9868 49.7321 49.4717 49.7321 45.9566 49.8623C47.1283 47.9094 47.649 45.566 47.649 43.3528C51.4245 43.483 55.3302 43.6132 59.1057 43.7434C59.366 43.7434 59.6264 43.6132 59.6264 43.3528C59.7566 41.0094 59.7566 41.5302 60.017 26.6887C60.1472 21.2207 60.2773 15.6226 60.2773 10.1547C60.2773 9.50376 59.7566 8.98301 59.1057 8.98301C50.9038 8.85282 42.7019 8.85282 34.5 8.85282H22.2623C22.1321 8.85282 9.76414 8.98301 9.89433 8.98301C9.24339 8.98301 8.72263 9.50376 8.72263 10.1547L8.98301 26.6887L9.24339 35.0207C9.24339 37.7547 9.37357 40.4887 9.50376 43.3528C9.50376 43.6132 9.76414 43.7434 9.89433 43.7434C13.4094 43.6132 17.0547 43.483 20.5698 43.3528C20.5698 45.566 21.2207 47.9094 22.2623 49.8623C14.7113 49.6019 12.8887 49.6019 8.72263 49.4717H7.29056C6.7698 49.4717 6.37923 49.4717 5.98867 49.3415C4.81697 48.8207 3.90565 47.649 3.90565 46.3472C3.90565 45.9566 3.90565 45.4358 3.90565 44.9151L4.29622 21.0906L4.4264 9.24338C4.4264 8.33206 4.4264 7.16037 4.55659 6.63961C4.81697 5.5981 5.72829 4.94716 6.7698 4.81697H8.07169H11.066L34.8906 4.94716L58.7151 4.81697H61.7094H62.1H62.3604C62.4906 4.81697 62.7509 4.81697 62.8811 4.94716C63.1415 5.07735 63.5321 5.20754 63.7924 5.46791C64.3132 5.85848 64.7038 6.50942 64.7038 7.29055V7.9415C64.7038 8.07169 64.7038 10.2849 64.7038 10.1547L64.834 22.0019L65.0943 45.6962C65.0943 46.217 65.0943 46.6075 64.9641 46.9981Z" fill="#FF7080"/>
</svg>
