<svg width="49" height="63" viewBox="0 0 49 63" fill="none" xmlns="http://www.w3.org/2000/svg">
<path d="M2.37667 17.3911C3.17546 18.6561 4.18643 19.7792 5.40759 20.597C6.59154 21.4564 8.02893 21.9614 9.31778 22.2825C10.5702 22.6044 11.7766 22.8837 12.8277 23.6691C12.8564 23.7161 12.8815 23.7652 12.9104 23.8121C13.9733 25.459 15.2763 26.9546 16.6598 28.2891C19.2728 30.7775 21.1535 34.1027 21.789 37.8031C21.962 38.7195 22.0182 39.6406 22.0717 40.5878L22.1872 42.2048C21.68 42.215 21.1728 42.2127 20.6657 42.233L18.791 42.3212L17.8411 42.3713C17.4242 42.3998 17.0141 42.4977 16.6287 42.6451C15.0564 43.2289 14.0854 44.8723 14.2249 46.38C14.335 47.2465 14.4623 48.0895 14.6095 48.9327L13.6515 48.9367L12.8529 48.9437C12.4823 48.9486 12.1124 49.0228 11.7573 49.1324C10.3278 49.5883 9.26457 50.9352 9.13953 52.4161C9.11173 52.8296 9.13057 53.0428 9.13348 53.3036C9.13716 53.4715 9.18684 55.7382 9.18401 55.6094C9.21541 57.6592 9.31074 59.7089 9.37988 61.7586L9.38218 61.8267L9.38241 61.8339C9.40255 62.3119 9.80623 62.6831 10.2842 62.6629C14.9937 62.465 19.7032 62.2186 24.4128 61.7587C20.015 61.3293 15.6174 61.0886 11.2197 60.897C11.4368 54.9401 11.3115 58.1019 11.4572 52.6544C11.5217 52.0807 11.9592 51.5764 12.4983 51.419C12.6331 51.3831 12.7699 51.3504 12.913 51.3531L13.6515 51.3533C13.8915 51.3543 24.6229 51.3997 24.4125 51.3988C24.5434 51.3982 35.3004 51.354 35.1736 51.3545L35.9121 51.3542C36.0551 51.3514 36.1917 51.3844 36.3264 51.4201C36.8628 51.5816 37.3005 52.0813 37.3647 52.6547C37.5054 57.9438 37.399 55.3802 37.602 60.8984C33.4059 61.0715 28.6092 61.3365 24.4128 61.7587C26.7674 61.9956 29.1221 62.1653 31.4769 62.3116C35.7612 62.5713 38.4148 62.6605 38.5432 62.6662C39.0252 62.6831 39.4296 62.3058 39.4462 61.8238L39.4485 61.7586C39.5196 59.7089 39.612 57.6592 39.644 55.6094C39.6477 55.4415 39.6976 53.1748 39.6948 53.3036C39.6977 53.0426 39.7166 52.8297 39.6888 52.4158C39.5635 50.9346 38.5004 49.5833 37.0682 49.1313C36.7129 49.0215 36.343 48.9474 35.9723 48.9425L35.1736 48.9355L34.2223 48.9315C34.3701 48.0887 34.4976 47.2462 34.6086 46.38C34.7484 44.8704 33.7764 43.2265 32.2027 42.6416C31.817 42.4938 31.4066 42.3957 30.9892 42.3672L30.0393 42.3185L28.1646 42.2297C27.7281 42.2128 27.2916 42.216 26.8551 42.2065L26.9473 40.5569C26.9862 39.6088 27.0325 38.6873 27.1934 37.7683C27.7761 34.103 29.5749 30.7655 32.2043 28.1885C33.5741 26.8379 34.8569 25.327 35.9024 23.668C37.9226 20.312 39.1766 16.4329 39.2731 12.4683C39.363 10.2023 39.0873 7.92705 38.5038 5.72884C39.1558 5.17217 39.9897 4.91734 40.7803 4.95593C41.9243 4.98855 42.9992 5.57325 43.7481 6.36301C44.4924 7.18783 45.0332 8.23257 45.3082 9.38237C45.6125 10.5161 45.7148 11.7095 45.5615 12.8734C45.3459 15.2147 44.1643 17.3991 42.3789 19.0605C41.478 19.8998 40.4498 20.5276 39.234 21.135C38.072 21.7687 36.706 22.498 36.0521 23.7469C37.1299 22.8917 38.3833 22.6164 39.6822 22.2825C40.971 21.9614 42.4084 21.4564 43.5924 20.597C44.8136 19.7792 45.8246 18.6561 46.6234 17.3911C47.4011 16.1047 47.8715 14.6344 48.0544 13.1442C48.3245 10.1821 47.5119 6.96715 45.0522 4.91259C43.8228 3.9167 42.1915 3.43982 40.6559 3.73691C39.9012 3.90782 39.1962 4.2357 38.6534 4.7619C38.538 4.87109 38.4386 4.99268 38.3442 5.11673C37.9243 3.69005 37.3698 2.30089 36.6901 0.974985C36.4937 0.593813 36.0955 0.332091 35.6372 0.33301L35.6157 0.333164L24.2508 0.35736L12.8865 0.473289H12.8649C12.4346 0.478496 12.0226 0.71893 11.8181 1.13073C11.2331 2.30932 10.7576 3.53936 10.3767 4.79651C10.3657 4.78564 10.3578 4.77247 10.3465 4.7619C9.80378 4.2357 9.09871 3.90782 8.3441 3.73691C6.80846 3.43982 5.17726 3.9167 3.94783 4.91259C1.48806 6.96715 0.67548 10.1821 0.945624 13.1442C1.1284 14.6344 1.59893 16.1047 2.37667 17.3911ZM30.9641 44.4718C31.1725 44.4492 31.3827 44.4637 31.5925 44.502C32.4205 44.6735 33.2139 45.4014 33.377 46.4114C33.4987 47.235 33.6251 48.0823 33.7717 48.9296C33.1412 48.9271 24.1841 48.8903 24.4125 48.8912C24.0168 48.8929 14.6628 48.9325 15.1888 48.9303L15.057 48.9309C15.2031 48.0831 15.329 47.2353 15.4499 46.4112C15.6128 45.3996 16.4071 44.6709 17.2365 44.4985C17.4468 44.4599 17.6572 44.445 17.8661 44.4675L18.791 44.5139L20.6657 44.6021C22.7992 44.6879 25.8281 44.6954 28.1646 44.6055C28.2933 44.5994 31.1456 44.4631 30.9641 44.4718ZM13.6612 2.88881L24.2664 2.86507L34.874 2.75588C36.3276 5.74753 37.172 9.06536 37.1096 12.4229C37.1126 16.0188 36.1583 19.6103 34.4085 22.7879C33.5109 24.372 32.4301 25.8248 31.1847 27.1981C29.852 28.6424 28.7656 30.3041 28.0022 32.0948C27.2323 33.8811 26.7512 35.7797 26.5986 37.6959C26.4519 39.2195 26.5905 40.7132 26.7061 42.2039C25.9424 42.1886 25.1788 42.1661 24.4151 42.1635C23.7237 42.1669 23.0323 42.1892 22.3409 42.2019C22.4343 40.7198 22.5486 39.2345 22.3861 37.7228C22.2106 35.8088 21.7056 33.9165 20.9151 32.1392C20.1287 30.3593 19.023 28.7087 17.6728 27.2831C16.4116 25.923 15.3168 24.4835 14.3988 22.911C12.611 19.7549 11.6139 16.1772 11.5642 12.5826C11.4549 9.22693 12.2538 5.90036 13.6612 2.88881ZM3.69186 9.38237C3.96675 8.23257 4.50765 7.18783 5.25192 6.36301C6.00071 5.57325 7.0757 4.98855 8.2196 4.95593C8.88516 4.92346 9.57637 5.10969 10.1719 5.49254C9.54237 7.82705 9.26778 10.2519 9.39612 12.6579C9.53586 16.3896 10.7117 20.0249 12.5672 23.2185C11.8466 22.2929 10.7466 21.6698 9.76603 21.135C8.55023 20.5276 7.52203 19.8998 6.62109 19.0605C4.8356 17.3991 3.65411 15.2147 3.43856 12.8734C3.28519 11.7095 3.38748 10.5161 3.69186 9.38237Z" fill="#008029"/>
<path d="M24.3285 21.6171C26.1333 21.6016 27.9328 20.8469 29.165 19.5446C30.386 18.2432 31.0824 16.4494 30.959 14.708C30.8825 12.9663 30.0284 11.3251 28.7607 10.2759C27.487 9.22995 25.8149 8.76762 24.3285 9.05277C25.8083 9.32797 27.0784 10.0831 27.8943 11.1422C28.7319 12.1827 29.095 13.4838 29.0086 14.708C28.8554 17.1902 26.6673 19.185 24.3285 19.1095C21.9905 19.1821 19.8046 17.1877 19.6522 14.708C19.5653 13.4847 19.9286 12.1845 20.7651 11.1445C21.5796 10.085 22.849 9.33011 24.3285 9.05277C22.842 8.76547 21.1692 9.22796 19.894 10.2735C18.6253 11.3233 17.7713 12.9653 17.6942 14.708C17.5698 16.4506 18.2697 18.2442 19.4895 19.547C20.7251 20.8457 22.5225 21.6053 24.3285 21.6171Z" fill="#008029"/>
</svg>
