<svg width="69" height="69" viewBox="0 0 69 69" fill="none" xmlns="http://www.w3.org/2000/svg">
<path d="M64.834 21.2208C64.4434 20.1793 63.9227 19.1378 63.5321 18.2265C63.0113 16.9246 62.4906 15.7529 61.8396 14.451C60.6679 11.9774 59.4963 9.50386 58.3246 7.03028C58.0642 6.7699 57.6736 6.50952 57.1529 6.50952C52.8566 6.50952 11.9774 6.50952 11.8472 6.50952C11.3264 6.50952 10.9359 6.7699 10.6755 7.16046C8.59248 11.4567 6.37927 16.2737 4.16606 21.2208C4.03587 21.2208 3.90568 21.351 3.90568 21.351C3.38493 21.7416 3.25474 22.3925 3.64531 22.9133C16.9246 40.619 29.5529 56.502 34.5 62.4907C38.0151 51.4246 42.5717 34.7605 45.4359 23.5642C68.3491 23.434 60.5378 23.434 62.2302 23.434C49.9925 40.3586 38.5359 56.502 34.5 62.4907C39.317 56.502 52.0755 40.3586 65.3547 23.0435C65.4849 22.9133 65.6151 22.6529 65.6151 22.3925C65.6151 21.8718 65.3547 21.4812 64.834 21.2208ZM59.7566 15.4925C60.4076 16.6642 61.0585 17.8359 61.7095 19.1378C62.1 19.7888 62.4906 20.5699 62.8812 21.2208C61.1887 21.2208 69.1302 21.2208 46.0868 21.0907C48.4302 16.7944 49.7321 14.5812 52.4661 8.98311H56.2415C57.5434 11.1963 58.7151 13.4095 59.7566 15.4925ZM36.4529 8.98311C38.9264 13.8001 40.2283 16.2737 42.8321 20.9605C41.1397 20.9605 49.0812 20.9605 26.1679 20.9605C28.6415 16.534 30.5944 12.8888 32.6774 8.85292C33.8491 8.98311 35.151 8.98311 36.4529 8.98311ZM49.7321 8.98311C46.7378 15.102 45.9566 16.9246 44.3944 20.3095C43.0925 17.5756 42.5717 16.0133 39.0566 8.98311C42.9623 9.1133 45.5661 9.1133 49.7321 8.98311ZM29.8132 8.98311C27.0793 14.5812 26.1679 16.534 24.4755 20.4397C22.5227 15.8831 21.6113 14.0605 19.1378 8.98311C22.9132 9.1133 25.6472 9.1133 29.8132 8.98311ZM12.6283 8.98311H16.4038C18.8774 13.9303 20.7 17.0548 22.9132 21.0907C-0.130167 21.2208 7.81134 21.2208 6.11889 21.2208C8.07172 17.5756 9.89436 14.3208 12.6283 8.98311ZM6.76983 23.5642C8.46229 23.5642 0.520777 23.5642 23.5642 23.6944C26.4283 34.8907 30.9849 51.5548 34.5 62.6208C30.5944 56.8925 19.7887 41.2699 6.76983 23.5642ZM34.5 62.4907C32.417 51.034 28.7717 34.7605 26.0378 23.5642H42.8321C40.2283 34.8907 36.4529 51.1642 34.5 62.4907Z" fill="#FF0000"/>
</svg>
