<svg width="69" height="69" viewBox="0 0 69 69" fill="none" xmlns="http://www.w3.org/2000/svg">
<path d="M32.389 39.9526C32.3726 39.7568 31.727 39.812 31.543 39.8318C27.9077 40.7975 28.0892 46.5116 34.1897 47.0291C33.7844 49.4056 33.4932 55.4809 33.4932 58.6651C33.4932 65.9896 33.9557 66.1428 34.5262 66.1428C35.0969 66.1428 35.5594 65.9896 35.5594 58.6651C35.5594 55.4937 35.2705 49.4541 34.8678 47.0575C39.0607 47.0633 40.5336 44.269 38.8602 41.486C38.3317 40.6744 38.0651 40.7878 37.8139 40.9028C37.0339 41.2585 37.7868 42.4822 37.5969 43.6764C37.2902 45.919 29.2266 45.431 30.7172 41.6595C31.216 40.386 32.4189 40.1831 32.389 39.9526Z" fill="#FF7800"/>
<path d="M12.8172 40.1426C9.47358 42.2602 10.8621 46.1646 13.7765 46.1745C14.49 46.1916 15.1884 46.0455 15.9127 45.8867C15.8384 46.8426 15.8246 48.4135 15.8042 50.1865C15.7813 53.0717 15.7092 56.4868 15.6726 58.6571C15.6084 62.618 15.5536 64.6411 15.6785 65.6868C15.7888 66.7316 16.0431 66.7951 16.3275 66.8174C16.6119 66.8397 16.8724 66.82 17.1359 65.7897C17.3847 64.7594 17.6733 62.7139 17.7386 58.6857C17.7759 56.479 17.6157 53.0054 17.2631 50.1074C17.0456 48.2643 16.7641 46.6592 16.516 45.7391C20.8889 44.5543 20.4326 41.1136 18.6979 40.4155C20.8736 39.9848 23.3089 38.8214 24.2507 36.8683C24.2711 36.825 24.2873 36.7877 24.302 36.7526C37.5338 44.248 55.0475 38.3412 51.2327 18.7971C50.7346 16.3945 50.3239 15.2013 50.0743 14.5854C49.8144 13.9739 49.6714 13.9557 49.5321 13.9862C49.0398 14.0938 49.3635 15.6856 49.7903 19.0292C53.2742 48.9623 12.7178 39.1742 16.5915 18.1062C18.6238 6.77406 30.916 0.863686 41.8906 7.19785C41.9849 7.25295 42.8195 7.76531 42.8711 7.69827C42.949 7.59712 41.4717 6.34955 39.5385 5.43537C48.9808 1.81255 55.9089 3.49006 60.7067 7.70458C63.9719 10.5695 65.6316 15.1764 65.859 19.4498C66.3668 27.7821 61.2341 34.5101 52.6848 36.234C50.2722 36.8032 47.4622 36.5437 46.9459 36.6106C46.4999 36.6479 46.4327 36.773 46.3998 36.9117C46.2442 37.5666 48.5453 37.9322 49.2234 38.0023C44.9665 40.0789 45.0883 44.9878 51.0148 45.0157C50.6088 47.6341 50.3168 54.3589 50.3168 57.8814C50.3168 65.9736 50.7793 66.1428 51.3498 66.1428C51.9204 66.1428 52.383 65.9736 52.383 57.8814C52.383 54.3486 52.0892 47.5952 51.6813 44.9932C56.0943 44.6571 56.7895 40.8541 54.3317 38.4238C53.6191 37.7421 53.3852 37.904 53.1644 38.0724C52.0805 38.8977 55.6062 41.8617 52.4147 42.7856C51.7017 42.9977 50.5425 43.0778 49.3888 42.9343C48.327 42.7918 47.7374 42.2653 47.8535 41.2047C47.9606 39.9715 49.4918 38.7651 50.0334 38.066C59.9272 38.4805 68.702 30.4995 67.8792 19.3227C67.5506 14.471 65.5336 9.46471 61.8262 6.40746C54.5707 0.421805 43.3319 1.46631 39.3685 5.35399C34.8528 3.27993 29.0186 2.98164 24.3612 5.2352C21.2649 1.65696 10.7354 2.24967 5.01551 9.44365C-3.02141 19.6537 2.02698 36.8709 12.8172 40.1426ZM17.6173 43.0262C16.7994 43.6624 14.2382 44.2385 13.7683 44.2707C13.393 44.2972 13.121 44.2382 12.8541 44.0481C11.4704 43.0517 13.0013 41.0245 13.2523 40.2689C14.7455 40.6623 16.2572 40.7484 17.711 40.5761C17.525 41.0816 17.82 41.3776 17.9489 41.64C18.1848 42.0683 18.1612 42.578 17.6173 43.0262ZM23.4144 5.7241C12.7524 11.8155 10.2826 28.6844 24.1572 36.6674C24.1317 36.6926 24.1053 36.7188 24.0752 36.7507C18.6504 42.7897 6.0765 39.4731 3.43988 25.8665C0.625134 11.6743 12.6523 1.71853 23.4144 5.7241Z" fill="#FF7800"/>
</svg>
