<svg width="38" height="26" viewBox="0 0 38 26" fill="none" xmlns="http://www.w3.org/2000/svg">
<path d="M17.195 14.4642C11.7917 16.3027 6.30657 15.2999 0.821411 15.6342C0.575807 15.6342 0.166467 15.0492 0.0845991 14.7149C-0.161005 13.8793 0.166467 13.2107 0.575807 12.7093C2.1313 11.0379 3.9324 10.2858 5.81536 10.1187C10.3181 9.61729 14.9027 8.94874 19.4055 9.45015C19.9785 9.36658 20.5516 9.28301 21.1247 9.28301C23.417 9.11588 25.7093 9.03231 27.9197 9.11588C26.2005 7.44452 24.7269 5.77316 23.417 3.76753C22.8439 2.93185 22.762 1.84546 23.9082 0.842647C24.8906 -0.0766013 26.0368 -0.243739 26.9373 0.341238C28.4109 1.42762 29.8846 2.514 31.1944 3.85109C33.2411 6.02386 35.0422 8.36376 37.0071 10.6201C37.9076 11.0379 38.2351 12.1243 37.8258 13.0436L37.4164 13.9628C34.9604 18.8933 30.5395 21.9018 27.1829 25.913C27.0192 26.0802 26.3642 25.9966 26.0368 25.7459C25.3 25.3281 25.0543 24.6595 25.0543 23.991C24.8906 21.7346 25.7093 19.8961 26.8554 18.4755C27.8379 17.3055 28.7384 16.052 29.639 14.8821C28.5747 15.0492 27.5104 15.1328 26.4461 15.1328C23.1714 15.0492 20.2241 14.7149 17.195 14.4642Z" fill="#FF7800"/>
</svg>
