<svg width="66" height="66" viewBox="0 0 66 66" fill="none" xmlns="http://www.w3.org/2000/svg">
<path d="M61.5754 20.2981C61.2075 19.3019 60.7169 18.3057 60.349 17.434C59.8584 16.1887 59.3679 15.068 58.7547 13.8227C57.6509 11.4566 56.5471 9.09059 55.4433 6.72455C55.198 6.4755 54.8301 6.22644 54.3396 6.22644C50.2924 6.22644 11.783 6.22644 11.6603 6.22644C11.1697 6.22644 10.8018 6.4755 10.5565 6.84908C8.59428 10.9585 6.50937 15.5661 4.42446 20.2981C4.30182 20.2981 4.17918 20.4227 4.17918 20.4227C3.68862 20.7963 3.56597 21.4189 3.9339 21.917C16.4433 38.8529 28.3396 54.0453 32.9999 59.7736C36.3113 49.1887 40.6037 33.2491 43.3018 22.5396C64.8867 22.4151 57.5282 22.4151 59.1226 22.4151C47.5943 38.6038 36.8018 54.0453 32.9999 59.7736C37.5377 54.0453 49.5565 38.6038 62.066 22.0415C62.1886 21.917 62.3113 21.668 62.3113 21.4189C62.3113 20.9208 62.066 20.5472 61.5754 20.2981ZM56.7924 14.8189C57.4056 15.9396 58.0188 17.0604 58.632 18.3057C58.9999 18.9283 59.3679 19.6755 59.7358 20.2981C58.1414 20.2981 65.6226 20.2981 43.915 20.1736C46.1226 16.0642 47.349 13.9472 49.9245 8.59248H53.4811C54.7075 10.7095 55.8113 12.8264 56.7924 14.8189ZM34.8396 8.59248C37.1697 13.2 38.3962 15.5661 40.849 20.0491C39.2547 20.0491 46.7358 20.0491 25.1509 20.0491C27.4811 15.8151 29.3207 12.3283 31.283 8.46795C32.3867 8.59248 33.6131 8.59248 34.8396 8.59248ZM47.349 8.59248C44.5282 14.4453 43.7924 16.1887 42.3207 19.4264C41.0943 16.8113 40.6037 15.317 37.2924 8.59248C40.9716 8.71701 43.4245 8.71701 47.349 8.59248ZM28.5848 8.59248C26.0094 13.9472 25.1509 15.8151 23.5565 19.551C21.7169 15.1925 20.8584 13.4491 18.5282 8.59248C22.0848 8.71701 24.6603 8.71701 28.5848 8.59248ZM12.3962 8.59248H15.9528C18.283 13.3246 19.9999 16.3132 22.0848 20.1736C0.377294 20.2981 7.85843 20.2981 6.26409 20.2981C8.10371 16.8113 9.82069 13.6981 12.3962 8.59248ZM6.87729 22.5396C8.47163 22.5396 0.990502 22.5396 22.6981 22.6642C25.3962 33.3736 29.6886 49.3132 32.9999 59.8981C29.3207 54.4189 19.1414 39.4755 6.87729 22.5396ZM32.9999 59.7736C31.0377 48.8151 27.6037 33.2491 25.0282 22.5396H40.849C38.3962 33.3736 34.8396 48.9396 32.9999 59.7736Z" fill="#FF7080"/>
</svg>
