<svg width="1097" height="168" viewBox="0 0 1097 168" fill="none" xmlns="http://www.w3.org/2000/svg">
<circle cx="514.486" cy="132.486" r="4.48568" fill="#FF0000"/>
<circle cx="1059.49" cy="86.4857" r="4.48568" fill="#FF0000"/>
<circle cx="627.636" cy="127.438" r="4.48568" fill="#FF0000"/>
<circle cx="342.637" cy="74.0629" r="2.49204" fill="#008029"/>
<circle cx="969" cy="74.0628" r="2.49204" fill="#008029"/>
<circle cx="182.734" cy="74.0628" r="2.49204" fill="#008029"/>
<circle cx="788.758" cy="129.522" r="2.49204" fill="#008029"/>
<circle cx="2.49204" cy="129.522" r="2.49204" fill="#008029"/>
<circle cx="478.838" cy="9.63224" r="2.49204" fill="#008029"/>
<circle cx="406.116" cy="113.89" r="3.98727" fill="#FF7800"/>
<circle cx="995.987" cy="111.987" r="3.98727" fill="#FF7800"/>
<circle cx="246.214" cy="113.89" r="3.98727" fill="#FF7800"/>
<circle cx="484.547" cy="95.2679" r="2.49204" fill="#FF0000"/>
<circle cx="849.109" cy="95.2679" r="2.49204" fill="#FF0000"/>
<circle cx="62.8436" cy="95.2679" r="2.49204" fill="#FF0000"/>
<path d="M365.891 17.4842C366.152 17.5876 366.402 17.7181 366.676 17.7939C366.787 17.8245 366.9 17.8402 367.011 17.8624C367.484 17.9598 367.961 18.053 368.449 18.0448C368.806 18.0384 369.163 18.0004 369.519 17.9889C369.908 17.976 370.288 17.8975 370.656 17.7821C371.344 17.5657 372.018 17.3112 372.63 16.9109C373.15 16.5709 373.642 16.1938 374.048 15.714C374.114 15.6354 374.196 15.5712 374.275 15.5049C374.56 15.2664 374.814 14.9996 375.035 14.6978C375.157 14.5308 375.272 14.3622 375.384 14.1875C375.605 13.8438 375.742 13.4609 375.916 13.0963C376.085 12.7404 376.165 12.3593 376.298 11.9942C376.301 11.9872 376.304 11.981 376.305 11.9746C376.371 11.6654 376.401 11.3542 376.396 11.0331C376.27 11.1372 376.277 11.3029 376.176 11.453C376.166 11.2975 376.226 11.1837 376.245 11.0634C376.265 10.9426 376.295 10.8244 376.319 10.7154C376.276 10.6631 376.246 10.7246 376.196 10.6919C376.163 10.5731 376.107 10.4394 376.12 10.2943C376.136 10.1003 376.103 9.91242 376.073 9.72542C376.018 9.39034 375.951 9.05646 375.884 8.72455C375.805 8.32994 375.652 7.95934 375.53 7.57957C375.423 7.25108 375.264 6.94525 375.127 6.62915C374.985 6.30179 374.785 6.01937 374.601 5.72113C374.427 5.43309 374.264 5.13743 374.057 4.8707C373.721 4.43873 373.354 4.04431 372.91 3.72012C372.644 3.526 372.36 3.36056 372.089 3.17517C371.84 3.00467 371.531 2.94874 371.238 2.87501C371.205 2.86722 371.17 2.86834 371.139 2.8568C370.701 2.68918 370.239 2.7073 369.782 2.71348C369.425 2.71789 369.072 2.80906 368.719 2.86792C368.371 2.92644 368.029 3.0189 367.699 3.14693C367.396 3.2656 367.09 3.37962 366.801 3.5385C366.599 3.64968 366.387 3.73958 366.184 3.85326C365.891 4.01838 365.61 4.19192 365.352 4.41143C365.175 4.56091 364.968 4.67243 364.782 4.80973C364.346 5.13087 363.943 5.49141 363.549 5.86214C363.201 6.18789 362.917 6.56332 362.648 6.95576C362.453 7.23905 362.267 7.52808 362.096 7.82502C361.81 8.3204 361.636 8.85671 361.557 9.41479C361.493 9.86796 361.518 10.3265 361.558 10.782C361.598 11.2427 361.754 11.6658 361.903 12.0949C362.03 12.46 362.2 12.8059 362.321 13.1746C362.368 13.3201 362.465 13.4479 362.534 13.5863C362.771 14.0536 363.09 14.462 363.398 14.8774C363.422 14.9098 363.447 14.9429 363.466 14.9776C363.687 15.3924 363.995 15.7368 364.321 16.0687C364.512 16.2674 364.658 16.5111 364.857 16.6992C365.171 16.9956 365.469 17.3155 365.891 17.4842ZM362.337 8.83483C362.391 8.86323 362.377 8.91209 362.356 8.9586C362.312 9.05858 362.265 9.15712 362.226 9.25801C362.17 9.39668 362.132 9.54417 362.063 9.67494C362.024 9.75066 361.994 9.81731 362.016 9.90575C361.914 9.87254 361.911 9.87235 361.925 9.79314C361.976 9.49736 362.071 9.21389 362.169 8.9306C362.176 8.91099 362.185 8.89282 362.196 8.87608C362.234 8.82409 362.283 8.80642 362.337 8.83483ZM362.966 8.35035C362.797 8.67264 362.634 8.99782 362.48 9.32749C362.586 8.97497 362.7 8.62552 362.966 8.35035ZM362.55 7.35526C362.329 7.71253 362.158 8.09533 361.943 8.50332C361.996 8.16953 362.354 7.49841 362.55 7.35526ZM363.54 6.08881C363.376 6.28939 363.244 6.4874 363.061 6.63846C363.161 6.4314 363.41 6.14814 363.54 6.08881ZM364.501 5.53647C364.494 5.54376 364.478 5.54156 364.467 5.54349C364.456 5.53309 364.454 5.52202 364.466 5.51046C364.474 5.50192 364.49 5.49127 364.497 5.49361C364.521 5.50281 364.516 5.52314 364.501 5.53647ZM364.853 5.22448C364.853 5.23484 364.855 5.24591 364.855 5.25627C364.845 5.26212 364.833 5.27493 364.824 5.27311C364.799 5.26516 364.804 5.24608 364.819 5.2315C364.827 5.22421 364.842 5.22641 364.853 5.22448ZM366.329 4.69527C366.29 4.75493 366.232 4.78756 366.175 4.82287C366.054 4.89758 365.93 4.97281 365.813 5.05485C365.498 5.27415 365.211 5.52997 364.906 5.7602C364.159 6.32278 363.545 7.00957 363.047 7.80334C362.884 8.06461 362.729 8.33287 362.568 8.59754C362.483 8.73772 362.466 8.74247 362.266 8.69051C362.397 8.49499 362.407 8.23423 362.659 8.12734C362.681 8.11831 362.702 8.08858 362.706 8.06432C362.723 7.97691 362.789 7.9111 362.828 7.82824C362.733 7.81933 362.728 7.92427 362.64 7.94287C362.67 7.893 362.686 7.85396 362.712 7.82389C362.855 7.6543 362.965 7.46085 363.094 7.2846C363.188 7.15535 363.3 7.03616 363.385 6.89474C363.459 6.77202 363.573 6.67622 363.668 6.56965C363.764 6.46307 363.858 6.37381 364.012 6.41078C364.021 6.4126 364.033 6.39462 364.054 6.37845C364.01 6.21638 364.1 6.0914 364.222 6.00064C364.34 5.91217 364.456 5.77711 364.625 5.8718C364.678 5.83237 364.744 5.7853 364.732 5.74135C364.691 5.58465 364.811 5.54082 364.896 5.47169C365.236 5.19519 365.596 4.94892 365.961 4.70874C365.971 4.70288 365.986 4.70633 366 4.7046C366.027 4.73076 365.98 4.77182 366.029 4.80574C366.135 4.81791 366.208 4.67251 366.329 4.69527ZM363.65 7.57028C363.597 7.66005 363.55 7.75538 363.46 7.81646C363.521 7.73296 363.55 7.62436 363.65 7.57028ZM363.958 7.17763C363.86 7.30794 363.785 7.45707 363.656 7.56227C363.73 7.41242 363.82 7.27584 363.958 7.17763ZM366.515 4.46372C366.458 4.47065 366.409 4.52384 366.303 4.47811C366.55 4.35353 366.755 4.21219 366.991 4.12951C366.952 4.19042 366.994 4.26073 366.971 4.32455C366.88 4.41007 366.761 4.44945 366.659 4.51494C366.632 4.53269 366.594 4.53237 366.562 4.54011C366.499 4.61057 366.423 4.66027 366.336 4.69119C366.395 4.61465 366.455 4.53954 366.515 4.46372ZM372.471 3.67442C372.682 3.81229 372.882 3.97082 373.07 4.1925C372.958 4.15354 372.891 4.10366 372.825 4.0513C372.778 4.01364 372.733 3.96706 372.679 3.94509C372.395 3.83319 372.149 3.65575 371.883 3.51268C371.812 3.47422 371.737 3.44521 371.666 3.408C371.315 3.22945 370.933 3.14398 370.549 3.07706C370.163 3.0087 369.767 2.99404 369.381 3.05867C368.962 3.12907 368.538 3.185 368.13 3.32381C367.699 3.46967 367.26 3.58731 366.854 3.80502C366.669 3.90431 366.486 4.01145 366.28 4.063C366.415 3.92587 366.591 3.86475 366.75 3.77554C367.295 3.46998 367.886 3.28917 368.469 3.09049C368.782 2.984 369.105 2.95306 369.423 2.89532C369.866 2.81536 370.312 2.82146 370.752 2.90911C371.385 3.03228 371.942 3.32707 372.471 3.67442ZM367.163 4.07142C367.115 4.15246 367.053 4.12224 366.998 4.12347C367.042 4.08222 367.082 4.02524 367.163 4.07142ZM367.417 3.89366C367.51 3.92952 367.538 3.97318 367.517 4.03326C367.494 4.10155 367.374 4.14216 367.252 4.1219C367.326 4.05666 367.412 4.00949 367.417 3.89366ZM367.724 3.84231C367.695 3.88451 367.667 3.91118 367.603 3.87185C367.636 3.81253 367.67 3.80034 367.724 3.84231ZM368.109 3.69306C368.078 3.86485 367.925 3.80663 367.824 3.88444C367.881 3.71168 367.895 3.70281 368.109 3.69306ZM368.39 3.57503C368.399 3.56845 368.415 3.57262 368.427 3.57141C368.429 3.58249 368.437 3.59912 368.431 3.60588C368.425 3.61389 368.406 3.62114 368.396 3.6186C368.371 3.61066 368.371 3.59067 368.39 3.57503ZM368.76 3.50551C368.678 3.5045 368.666 3.61674 368.536 3.6309C368.604 3.51619 368.657 3.47033 368.76 3.50551ZM369.186 3.38909C369.229 3.37425 369.264 3.34403 369.312 3.40633C369.268 3.42045 369.234 3.45067 369.186 3.38909ZM369.462 3.34172C369.47 3.3364 369.487 3.3361 369.495 3.34113C369.507 3.34832 369.505 3.36045 369.493 3.37201C369.483 3.37589 369.468 3.3853 369.461 3.38295C369.438 3.37127 369.444 3.3529 369.462 3.34172ZM370.308 3.49638C370.199 3.55113 370.086 3.55661 369.97 3.5303C370.077 3.4709 370.192 3.47328 370.308 3.49638ZM370.571 3.49984C370.485 3.53148 370.399 3.53991 370.315 3.49676C370.403 3.4562 370.488 3.46258 370.571 3.49984ZM373.818 4.84412C373.593 4.59499 373.368 4.34461 373.141 4.09476C373.43 4.28058 373.636 4.54856 373.818 4.84412ZM373.527 5.22684C373.367 5.09201 373.184 4.99263 372.999 4.89698C372.928 4.85977 372.859 4.81954 372.792 4.77484C372.454 4.55707 372.12 4.32272 371.748 4.1707C371.187 3.94211 370.601 3.78824 369.979 3.83487C369.938 3.83757 369.89 3.84632 369.855 3.7971C371.204 3.53072 372.992 3.98836 373.81 5.39228C373.691 5.35542 373.606 5.29353 373.527 5.22684ZM373.897 5.74407C373.847 5.69784 373.795 5.65213 373.745 5.60589C373.824 5.61707 373.879 5.65779 373.897 5.74407ZM374.164 5.98604C374.212 5.98692 374.233 6.01664 374.249 6.07632C374.191 6.05736 374.167 6.03139 374.164 5.98604ZM371.958 4.86746C372.016 4.86518 372.055 4.86425 372.086 4.91649C372.022 4.93392 371.992 4.91471 371.958 4.86746ZM371.065 4.58286C371.08 4.5399 371.113 4.56251 371.154 4.59533C371.104 4.60585 371.059 4.60123 371.065 4.58286ZM372.226 5.41735C372.32 5.43394 372.412 5.45177 372.515 5.53605C372.378 5.53233 372.298 5.48366 372.226 5.41735ZM372.695 5.9412C373.188 6.16953 373.627 6.4721 374.027 6.88146C373.781 6.80665 372.822 6.13856 372.695 5.9412ZM374.506 9.33392C374.39 9.22175 374.37 9.06888 374.344 8.93044C374.283 8.61569 374.11 8.36068 373.956 8.09646C373.902 8.00612 373.841 7.92111 373.796 7.77385C373.947 7.85259 374.01 7.95903 374.097 8.03843C374.259 8.18826 374.411 8.34965 374.52 8.54854C374.636 8.76336 374.636 9.07253 374.506 9.33392ZM368.259 4.68771C368.337 4.59428 368.337 4.59428 368.433 4.62391C368.376 4.66047 368.329 4.68993 368.259 4.68771ZM364.782 6.48216C364.799 6.41474 364.824 6.37877 364.858 6.35694C365.039 6.24515 365.187 6.08878 365.36 5.96553C365.806 5.64889 366.239 5.31471 366.705 5.02438C367.038 4.81586 367.388 4.64774 367.752 4.51788C368.249 4.34048 368.756 4.19596 369.274 4.08951C369.643 4.01285 370.013 3.99119 370.383 4.00111C370.867 4.01395 371.325 4.14987 371.772 4.32251C371.838 4.34846 371.908 4.37782 371.963 4.44049C371.891 4.46522 371.837 4.43485 371.786 4.40664C371.685 4.35022 371.574 4.32036 371.465 4.28801C370.822 4.09001 370.161 4.08651 369.502 4.19745C368.942 4.29233 368.38 4.39094 367.834 4.56601C367.651 4.62479 367.477 4.69823 367.307 4.78811C366.69 5.11644 366.124 5.52404 365.558 5.93485C365.418 6.03679 365.247 6.11435 365.178 6.29867C365.162 6.33967 365.118 6.35058 365.076 6.35774C364.977 6.37505 364.884 6.41916 364.782 6.48216ZM364.364 6.44028C364.326 6.47673 364.286 6.5105 364.211 6.48792C364.653 6.08129 365.104 5.71719 365.572 5.37671C366.131 4.96998 366.704 4.59061 367.328 4.28783C368.038 3.94378 368.773 3.6896 369.543 3.55248C369.68 3.52906 369.821 3.49102 369.961 3.5317C369.875 3.59886 369.773 3.60241 369.674 3.61454C369.425 3.64737 369.179 3.69395 368.937 3.76661C368.219 3.98175 367.524 4.26089 366.875 4.64283C366.488 4.87132 366.103 5.10643 365.738 5.37178C365.269 5.71351 364.789 6.03913 364.364 6.44028ZM370.984 10.9049C370.847 10.8141 370.712 10.7227 370.552 10.615C370.767 10.5214 371.016 10.6048 371.094 10.7682C371.116 10.8167 371.116 10.8599 371.076 10.8968C371.048 10.9242 371.013 10.9253 370.984 10.9049ZM363.498 8.28732C363.342 8.52845 363.167 8.75808 363.03 9.01123C362.998 9.06681 362.976 9.13581 362.883 9.1767C362.934 8.97321 363.053 8.82995 363.141 8.67515C363.234 8.50841 363.317 8.33396 363.454 8.1963C363.587 8.06291 363.604 7.85412 363.747 7.73165C363.877 7.61878 363.981 7.4785 364.112 7.36562C364.256 7.24066 364.297 7.0275 364.471 6.92889C364.627 6.83949 364.723 6.67419 364.886 6.59232C364.664 6.85266 364.49 7.14691 364.252 7.39273C363.981 7.67146 363.711 7.95804 363.498 8.28732ZM368.702 12.0177C368.778 11.9248 368.873 11.8563 368.934 11.7476C369.042 11.776 369.131 11.7362 369.223 11.6849C369.472 11.5507 369.745 11.4987 370.017 11.442C370.056 11.4334 370.113 11.4161 370.144 11.5135C369.626 11.5761 369.162 11.7865 368.702 12.0177ZM362.654 10.6114C362.767 10.0012 363.017 9.44745 363.395 8.94598C363.279 9.22564 363.151 9.50132 363.025 9.77647C362.898 10.0529 362.806 10.3449 362.699 10.6296C362.683 10.6235 362.669 10.6168 362.654 10.6114ZM362.519 10.7253C362.573 10.7434 362.649 10.708 362.646 10.8084C362.644 10.8677 362.605 10.8951 362.549 10.8807C362.46 10.8567 362.496 10.7956 362.519 10.7253ZM362.081 11.0418C362.043 10.9905 362.045 10.9551 362.093 10.9025C362.108 10.9602 362.121 10.9945 362.081 11.0418ZM371.667 17.1701C371.712 17.0889 371.776 17.0579 371.861 17.0874C371.797 17.1152 371.731 17.1423 371.667 17.1701ZM366.001 17.2964C366.889 17.5737 367.798 17.7502 368.73 17.8041C367.779 17.8413 366.865 17.6871 366.001 17.2964Z" fill="#1A1564"/>
<path d="M320.18 127.167C320.132 127.261 320.127 127.357 320.165 127.461C320.411 128.108 320.635 128.768 320.881 129.413C321.158 130.141 321.551 130.824 322.136 131.373C322.386 131.609 322.58 131.898 322.856 132.115C323.264 132.433 323.574 132.864 324.032 133.129C324.192 133.22 324.314 133.377 324.455 133.504C324.507 133.552 324.56 133.639 324.617 133.641C325.103 133.673 325.397 134.058 325.769 134.287C326.442 134.703 327.174 134.966 327.904 135.231C328.906 135.597 329.898 136.003 330.955 136.211C331.234 136.266 331.497 136.396 331.795 136.336C331.855 136.324 331.931 136.374 331.995 136.401C332.076 136.432 332.153 136.497 332.234 136.499C332.797 136.519 333.353 136.649 333.911 136.649C334.617 136.649 335.323 136.589 336.027 136.528C336.356 136.499 336.685 136.43 337.005 136.343C337.857 136.112 338.67 135.782 339.412 135.291C339.846 135.004 340.323 134.8 340.746 134.484C340.951 134.33 341.13 134.145 341.342 133.995C341.588 133.822 341.829 133.632 342.082 133.466C342.411 133.251 342.721 133.023 342.986 132.726C343.148 132.546 343.322 132.368 343.568 132.286C343.656 132.257 343.759 132.175 343.794 132.091C343.971 131.686 344.365 131.513 344.658 131.234C344.746 131.149 344.801 131.058 344.83 130.94C344.899 130.677 345.025 130.497 345.338 130.514C345.581 130.526 345.591 130.324 345.605 130.145C345.834 129.84 345.913 129.469 346.027 129.117C346.104 128.881 346.178 128.657 346.318 128.443C346.509 128.154 346.562 127.786 346.705 127.48C346.943 126.974 346.91 126.464 346.912 125.944C346.912 125.92 346.891 125.893 346.879 125.867C346.733 125.845 346.774 126.021 346.617 126.086C346.707 125.558 346.478 125.072 346.626 124.547C346.452 124.415 346.392 124.208 346.321 124.001C346.123 123.423 345.91 122.852 345.703 122.277C345.693 122.25 345.686 122.221 345.672 122.195C345.545 121.932 345.269 121.74 345.19 121.499C345.099 121.217 344.99 120.972 344.83 120.726C344.617 120.401 344.45 120.047 344.243 119.715C343.861 119.113 343.389 118.578 342.998 117.988C342.68 117.507 342.256 117.146 341.862 116.748C341.812 116.698 341.764 116.638 341.707 116.599C341.02 116.146 340.416 115.578 339.713 115.15C339.441 114.983 339.171 114.817 338.861 114.726C338.386 114.586 337.976 114.307 337.537 114.095C337.182 113.924 336.812 113.837 336.437 113.731C336.039 113.618 335.643 113.471 335.237 113.39C334.622 113.264 334.004 113.091 333.365 113.216C333.26 113.235 333.162 113.226 333.071 113.173C332.754 112.985 332.406 112.995 332.06 113.004C331.428 113.024 330.795 113.074 330.163 113.062C329.581 113.05 329.071 113.3 328.522 113.411C328.357 113.445 328.207 113.556 328.021 113.491C327.961 113.469 327.878 113.495 327.811 113.522C327.136 113.78 326.449 114.028 325.864 114.461C325.285 114.89 324.7 115.316 324.192 115.836C324.018 116.014 323.851 116.19 323.794 116.447C323.772 116.541 323.705 116.63 323.641 116.707C323.245 117.17 323.078 117.726 322.902 118.301C322.668 119.057 322.436 119.835 321.9 120.456C321.764 120.615 321.668 120.789 321.661 121.005C321.656 121.111 321.618 121.205 321.525 121.265C321.449 121.316 321.396 121.388 321.38 121.475C321.291 121.937 321.034 122.313 320.769 122.686C320.721 122.753 320.707 122.847 320.683 122.932C320.564 123.351 320.401 123.75 320.239 124.157C319.955 124.867 319.915 125.623 320.168 126.368C320.258 126.635 320.313 126.897 320.18 127.167ZM346.19 127.518C346.218 127.408 346.187 127.299 346.306 127.249C346.361 127.4 346.361 127.4 346.19 127.518ZM345.703 123.225C346.29 124.323 346.485 126.257 346.082 126.965C345.937 126.688 345.953 126.396 345.949 126.11C345.941 125.72 346.032 125.313 345.913 124.942C345.777 124.523 345.71 124.099 345.643 123.671C345.622 123.529 345.56 123.387 345.703 123.225ZM345.531 122.857C345.438 122.802 345.412 122.739 345.502 122.657C345.596 122.715 345.619 122.777 345.531 122.857ZM345.343 130.145C345.438 130.023 345.517 130.032 345.598 130.148C345.522 130.155 345.445 130.225 345.343 130.145ZM344.121 120.639C344.343 120.873 344.498 121.145 344.567 121.46C344.412 121.188 344.147 120.976 344.121 120.639ZM343.799 120.16C343.923 120.163 343.971 120.218 343.942 120.346C343.811 120.348 343.778 120.281 343.799 120.16ZM343.394 121.251C343.711 121.369 343.749 121.586 343.771 121.814C343.639 121.663 343.463 121.54 343.394 121.251ZM342.478 120.081C342.599 120.001 342.68 120.016 342.721 120.076C342.909 120.367 343.086 120.668 343.267 120.964C343.239 120.981 343.21 121.001 343.181 121.017C342.95 120.714 342.721 120.406 342.478 120.081ZM342.313 117.82C342.668 117.988 342.711 118.041 342.74 118.328C342.525 118.21 342.411 118.022 342.313 117.82ZM341.373 118.756C341.676 118.814 342.024 119.178 342.105 119.563C341.666 119.289 341.435 119.026 341.373 118.756ZM340.478 118.037C340.698 118.003 340.762 118.082 340.767 118.26C340.607 118.27 340.531 118.205 340.478 118.037ZM339.794 116.804C339.827 116.777 339.865 116.734 339.915 116.707C339.963 116.681 340.02 116.669 340.168 116.616C340.085 116.89 340.228 116.977 340.378 117.076C340.612 117.23 340.872 117.362 340.999 117.663C340.505 117.524 339.791 117.02 339.794 116.804ZM339.307 115.547C339.667 115.525 339.663 115.535 339.882 115.67C340.197 115.862 340.424 116.192 340.815 116.269C340.874 116.281 340.917 116.368 340.97 116.416C341.108 116.544 341.249 116.667 341.387 116.794C341.719 117.107 342.129 117.348 342.301 117.805C341.979 117.644 341.707 117.415 341.445 117.167C341.058 116.801 340.684 116.423 340.19 116.183C339.884 116.033 339.627 115.783 339.307 115.547ZM338.716 115.075C338.866 115.106 339.019 115.128 339.116 115.321C338.904 115.311 338.794 115.215 338.716 115.075ZM337.616 114.971C337.807 115.21 338.055 115.325 338.277 115.479C338.482 115.624 338.56 115.752 338.472 115.959C338.424 116.069 338.379 116.236 338.207 116.175C338.05 116.12 338.141 115.985 338.155 115.877C338.16 115.838 338.138 115.797 338.122 115.74C337.914 115.771 337.778 115.629 337.618 115.542C337.258 115.345 337.258 115.309 337.616 114.971ZM336.597 114.752C336.724 114.894 336.905 114.957 337.081 115.085C336.721 115.121 336.628 115.061 336.597 114.752ZM336.301 113.987C336.397 113.977 336.43 114.032 336.425 114.114C336.425 114.129 336.378 114.158 336.363 114.153C336.289 114.121 336.249 114.071 336.301 113.987ZM335.769 114.449C335.772 114.432 335.808 114.406 335.824 114.408C335.867 114.41 335.896 114.439 335.893 114.487C335.874 114.502 335.853 114.531 335.834 114.528C335.791 114.526 335.76 114.495 335.769 114.449ZM333.112 114.047C333.644 114.088 334.111 114.23 334.588 114.309C334.915 114.362 335.247 114.497 335.493 114.762C335.569 114.846 335.61 114.94 335.512 115.027C335.423 115.104 335.314 115.101 335.254 114.991C335.142 114.791 334.953 114.69 334.755 114.685C334.271 114.673 333.863 114.35 333.369 114.374C333.212 114.384 333.071 114.28 333.112 114.047ZM323.901 117.329C324.044 117.028 324.195 116.823 324.362 116.618C324.922 115.937 325.683 115.504 326.334 114.94C326.377 114.904 326.432 114.878 326.487 114.863C326.804 114.779 327.086 114.593 327.415 114.543C327.735 114.492 328.021 114.365 328.279 114.17C328.334 114.129 328.407 114.095 328.474 114.088C328.932 114.035 329.378 113.938 329.817 113.792C329.937 113.751 330.075 113.768 330.111 113.972C329.824 114.083 329.536 114.177 329.252 114.254C328.794 114.379 328.462 114.721 328.023 114.892C327.522 115.089 327.026 115.325 326.537 115.571C325.631 116.031 324.748 116.51 324.044 117.268C324.032 117.285 323.999 117.29 323.901 117.329ZM322.41 122.775C322.37 122.681 322.355 122.609 322.489 122.517C322.503 122.638 322.546 122.717 322.41 122.775ZM321.201 128.888C321.508 129.04 321.58 129.37 321.768 129.613C321.971 129.876 322.148 130.162 322.35 130.425C322.546 130.675 322.766 130.906 322.966 131.154C323.164 131.4 323.472 131.559 323.536 131.905C322.529 131.08 321.754 130.073 321.201 128.888Z" fill="#FF7800"/>
<path d="M902.084 118.581C902.096 118.734 902.122 118.885 902.104 119.042C902.073 119.284 902.127 119.52 902.281 119.711C902.434 119.897 902.482 120.1 902.477 120.323C902.472 120.531 902.527 120.724 902.626 120.91C902.956 121.532 903.25 122.169 903.648 122.764C903.894 123.131 904.242 123.435 904.429 123.805C904.749 124.432 905.32 124.826 905.718 125.371C906.083 125.872 906.656 126.174 907.108 126.6C907.222 126.709 907.359 126.796 907.468 126.91C908.196 127.671 909.058 128.261 909.956 128.808C910.97 129.43 912.04 129.916 913.215 130.169C913.831 130.303 914.457 130.308 915.084 130.236C916.367 130.087 917.549 129.643 918.632 128.972C919.126 128.665 919.664 128.464 920.191 128.246C921.077 127.879 921.779 127.311 922.347 126.57C922.837 125.931 923.316 125.284 923.81 124.647C924.495 123.77 924.865 122.751 924.967 121.646C925.01 121.178 925.073 120.712 925.071 120.239C925.068 119.924 925.157 119.617 925.256 119.317C925.53 118.472 925.674 117.607 925.649 116.717C925.601 115.133 925.276 113.617 924.586 112.167C923.473 109.83 921.756 108.028 919.542 106.678C918.165 105.838 916.641 105.344 915.036 105.092C913.892 104.913 912.766 105.012 911.642 105.243C910.836 105.409 910.044 105.629 909.327 106.026C908.429 106.522 907.577 107.084 907.032 107.979C906.839 108.294 906.534 108.512 906.296 108.787C905.984 109.144 905.672 109.505 905.429 109.912C905.137 110.402 904.668 110.764 904.402 111.272C904.374 111.327 904.333 111.384 904.285 111.421C903.61 111.914 903.359 112.692 902.938 113.354C902.751 113.651 902.72 114.041 902.588 114.378C902.261 115.218 902.241 116.125 902.051 116.995C901.939 117.5 902.04 118.053 902.084 118.581ZM923.207 123.044C923.151 123.463 923.108 123.842 922.928 124.206C922.558 123.822 922.608 123.602 923.207 123.044ZM921.454 109.696C921.477 109.674 921.5 109.652 921.525 109.632C921.82 109.894 922.126 110.147 922.238 110.556C921.974 110.269 921.713 109.984 921.454 109.696ZM918.911 126.494C918.987 126.412 919.065 126.347 919.182 126.422C919.195 126.504 919.147 126.543 919.086 126.563C919.015 126.58 918.931 126.613 918.911 126.494ZM911.855 106.569C912.596 106.261 914.559 106.452 916.38 107.082C918.208 107.714 919.793 108.747 921.104 110.162C920.207 109.525 919.385 108.782 918.393 108.271C917.381 107.748 916.316 107.364 915.218 107.067C914.143 106.774 913.04 106.653 911.855 106.569ZM907.27 113.815C907.63 113.684 908.008 113.607 908.386 113.542C908.525 113.518 908.688 113.468 908.781 113.612C908.885 113.768 908.776 113.909 908.69 114.041C908.657 114.093 908.612 114.147 908.558 114.174C908.165 114.39 908.003 114.762 907.856 115.146C907.767 115.376 907.688 115.617 907.473 115.758C907.245 115.716 907.232 115.542 907.199 115.396C907.118 115.029 907.042 114.663 906.976 114.293C906.917 113.976 906.948 113.931 907.27 113.815Z" fill="#FF0000"/>
<path d="M116.084 118.581C116.096 118.734 116.122 118.885 116.104 119.042C116.073 119.284 116.127 119.52 116.281 119.711C116.434 119.897 116.482 120.1 116.477 120.323C116.472 120.531 116.527 120.724 116.626 120.91C116.956 121.532 117.25 122.169 117.648 122.764C117.894 123.131 118.242 123.435 118.429 123.805C118.749 124.432 119.32 124.826 119.718 125.371C120.083 125.872 120.656 126.174 121.108 126.6C121.222 126.709 121.359 126.796 121.468 126.91C122.196 127.671 123.058 128.261 123.956 128.808C124.97 129.43 126.04 129.916 127.215 130.169C127.831 130.303 128.457 130.308 129.084 130.236C130.367 130.087 131.549 129.643 132.632 128.972C133.126 128.665 133.664 128.464 134.191 128.246C135.077 127.879 135.779 127.311 136.347 126.57C136.837 125.931 137.316 125.284 137.81 124.647C138.495 123.77 138.865 122.751 138.967 121.646C139.01 121.178 139.073 120.712 139.071 120.239C139.068 119.924 139.157 119.617 139.256 119.317C139.53 118.472 139.674 117.607 139.649 116.717C139.601 115.133 139.276 113.617 138.586 112.167C137.473 109.83 135.756 108.028 133.542 106.678C132.165 105.838 130.641 105.344 129.036 105.092C127.892 104.913 126.766 105.012 125.642 105.243C124.836 105.409 124.044 105.629 123.327 106.026C122.429 106.522 121.577 107.084 121.032 107.979C120.839 108.294 120.534 108.512 120.296 108.787C119.984 109.144 119.672 109.505 119.429 109.912C119.137 110.402 118.668 110.764 118.402 111.272C118.374 111.327 118.333 111.384 118.285 111.421C117.61 111.914 117.359 112.692 116.938 113.354C116.751 113.651 116.72 114.041 116.588 114.378C116.261 115.218 116.241 116.125 116.051 116.995C115.939 117.5 116.04 118.053 116.084 118.581ZM137.207 123.044C137.151 123.463 137.108 123.842 136.928 124.206C136.558 123.822 136.608 123.602 137.207 123.044ZM135.454 109.696C135.477 109.674 135.5 109.652 135.525 109.632C135.82 109.894 136.126 110.147 136.238 110.556C135.974 110.269 135.713 109.984 135.454 109.696ZM132.911 126.494C132.987 126.412 133.065 126.347 133.182 126.422C133.195 126.504 133.147 126.543 133.086 126.563C133.015 126.58 132.931 126.613 132.911 126.494ZM125.855 106.569C126.596 106.261 128.559 106.452 130.38 107.082C132.208 107.714 133.793 108.747 135.104 110.162C134.207 109.525 133.385 108.782 132.393 108.271C131.381 107.748 130.316 107.364 129.218 107.067C128.143 106.774 127.04 106.653 125.855 106.569ZM121.27 113.815C121.63 113.684 122.008 113.607 122.386 113.542C122.525 113.518 122.688 113.468 122.781 113.612C122.885 113.768 122.776 113.909 122.69 114.041C122.657 114.093 122.612 114.147 122.558 114.174C122.165 114.39 122.003 114.762 121.856 115.146C121.767 115.376 121.688 115.617 121.473 115.758C121.245 115.716 121.232 115.542 121.199 115.396C121.118 115.029 121.042 114.663 120.976 114.293C120.917 113.976 120.948 113.931 121.27 113.815Z" fill="#FF0000"/>
<path d="M704.082 130.452C704.204 130.952 704.402 131.428 704.497 131.935C704.505 131.971 704.51 132.013 704.533 132.038C704.863 132.388 705.052 132.833 705.312 133.229C705.67 133.777 706.15 134.212 706.567 134.703C707.003 135.216 707.529 135.635 708.093 136.002C708.434 136.225 708.694 136.546 709.039 136.747C709.586 137.066 710.016 137.555 710.607 137.808C710.702 137.85 710.774 137.945 710.862 138.013C711.127 138.222 711.377 138.458 711.694 138.597C711.795 138.644 711.885 138.719 711.926 138.823C712.037 139.11 712.287 139.182 712.542 139.198C712.689 139.205 712.808 139.244 712.911 139.322C713.161 139.513 713.414 139.697 713.731 139.764C713.772 139.775 713.816 139.816 713.844 139.852C713.994 140.049 714.203 140.095 714.429 140.088C714.63 140.08 714.816 140.119 714.981 140.243C715.092 140.326 715.21 140.38 715.355 140.359C715.391 140.354 715.44 140.352 715.46 140.372C715.718 140.61 716.03 140.528 716.329 140.528C716.352 140.528 716.381 140.522 716.401 140.53C716.734 140.675 717.09 140.709 717.443 140.766C717.597 140.791 717.742 140.843 717.902 140.82C718.134 140.786 718.36 140.867 718.592 140.874C719.054 140.89 719.518 140.882 719.979 140.851C720.536 140.817 721.09 140.768 721.655 140.807C722.32 140.851 722.995 140.838 723.663 140.799C724.256 140.766 724.794 140.507 725.305 140.22C725.813 139.932 726.333 139.661 726.81 139.319C727.089 139.12 727.321 138.869 727.532 138.605C727.846 138.214 728.14 137.811 728.499 137.459C729.143 136.825 729.586 136.054 729.919 135.218C730.262 134.354 730.584 133.485 730.715 132.553C730.795 131.984 730.855 131.42 730.775 130.84C730.674 130.129 730.592 129.415 730.406 128.719C730.321 128.398 730.223 128.085 730.063 127.795C729.991 127.666 729.973 127.511 729.898 127.389C729.635 126.944 729.47 126.442 729.13 126.041C728.973 125.855 728.829 125.658 728.684 125.459C728.194 124.786 727.661 124.144 727.047 123.593C726.635 123.223 726.186 122.882 725.743 122.538C724.717 121.741 723.573 121.146 722.462 120.486C722.003 120.214 721.565 119.904 721.08 119.673C720.374 119.34 719.678 118.972 718.933 118.75C718.427 118.597 717.92 118.434 717.386 118.362C716.687 118.266 715.989 118.191 715.29 118.108C714.862 118.056 714.44 118.028 714.019 118.051C713.146 118.103 712.267 118.196 711.509 118.682C711.15 118.913 710.774 119.039 710.369 119.143C709.462 119.378 708.58 119.704 707.714 120.059C707.165 120.281 706.65 120.605 706.191 120.98C705.75 121.342 705.392 121.787 705.196 122.354C705.044 122.791 704.874 123.215 704.807 123.681C704.771 123.932 704.68 124.206 704.554 124.439C704.464 124.602 704.448 124.724 704.603 124.892C704.35 125.006 704.271 125.169 704.258 125.381C704.247 125.552 704.204 125.72 704.196 125.891C704.162 126.706 704.162 127.526 703.977 128.328C703.812 129.055 703.912 129.759 704.082 130.452ZM729.401 127.451C729.262 127.342 729.22 127.228 729.218 127.097C729.331 127.174 729.432 127.257 729.401 127.451ZM729.099 129.989C729.128 129.987 729.156 129.981 729.184 129.979C729.205 130.007 729.238 130.031 729.249 130.064C729.589 131.06 729.708 132.085 729.646 133.133C729.635 133.332 729.558 133.516 729.414 133.674C729.347 132.437 729.452 131.195 729.099 129.989ZM726.98 125.091C728.084 126.279 729.04 127.557 729.468 129.169C729.084 128.45 728.535 127.844 728.109 127.156C727.934 126.874 727.694 126.644 727.527 126.364C727.303 125.989 727.117 125.593 726.916 125.203C726.9 125.172 726.913 125.133 726.98 125.091ZM726.284 135.544C726.354 135.467 726.408 135.443 726.465 135.524C726.418 135.583 726.367 135.599 726.284 135.544ZM725.351 123.733C725.784 123.997 726.284 124.693 726.338 125.112C726.009 124.651 725.681 124.191 725.351 123.733ZM724.493 122.118C724.642 122.061 724.704 122.142 724.766 122.186C725.465 122.675 726.114 123.221 726.766 123.767C726.965 123.932 727.148 124.108 727.303 124.313C727.702 124.851 728.174 125.332 728.555 125.883C728.816 126.261 729.102 126.626 729.21 127.086C729.14 127.06 729.084 127.024 729.048 126.957C728.609 126.129 728.022 125.417 727.367 124.758C727.179 124.569 726.993 124.372 726.815 124.175C726.405 123.723 725.967 123.303 725.452 122.972C725.091 122.742 724.838 122.403 724.493 122.118ZM718.52 120.509C720.541 120.871 722.351 121.51 723.776 122.98C723.529 122.814 723.188 122.778 722.995 122.548C722.768 122.279 722.446 122.199 722.168 122.056C721.815 121.878 721.433 121.733 721.067 121.572C720.356 121.262 719.644 120.954 718.899 120.729C718.783 120.693 718.657 120.659 718.52 120.509ZM717.587 120.043C717.695 120.007 717.796 119.898 717.917 119.992C718.085 120.124 718.28 120.111 718.474 120.116C718.6 120.118 718.739 120.111 718.822 120.258C718.574 120.336 717.806 120.196 717.587 120.043ZM716.852 119.917C717.03 119.886 717.208 119.893 717.383 119.904C717.476 119.909 717.538 119.958 717.577 120.041C717.319 120.103 717.079 120.069 716.852 119.917ZM708.892 127.935C708.903 127.824 708.977 127.761 709.091 127.777C709.199 127.793 709.217 127.878 709.199 127.968C709.16 128.163 709.13 128.362 709.021 128.618C708.913 128.351 708.872 128.147 708.892 127.935ZM705.575 128.38C705.706 128.615 705.843 128.846 705.866 129.117C705.719 128.89 705.541 128.675 705.575 128.38ZM705.876 125.893C706.021 126.266 705.902 126.628 705.887 127.071C705.655 126.742 705.59 126.442 705.595 126.129C705.601 125.994 705.691 125.886 705.876 125.893ZM705.99 124.209C705.992 124.263 705.964 124.305 705.91 124.313C705.869 124.32 705.84 124.292 705.84 124.25C705.838 124.196 705.866 124.16 705.92 124.147C705.962 124.144 705.987 124.168 705.99 124.209ZM706.065 122.152C706.508 121.549 707.003 121.104 707.743 120.832C707.681 121.135 707.503 121.228 707.356 121.345C707.14 121.516 706.895 121.637 706.694 121.844C706.557 121.989 706.343 122.105 706.065 122.152ZM705.851 133.011C706.106 133.104 706.17 133.265 706.165 133.544C705.99 133.376 705.871 133.249 705.851 133.011ZM705.848 131.078C705.699 130.97 705.637 130.83 705.606 130.602C705.913 130.804 705.918 130.815 705.848 131.078ZM705.534 131.399C705.688 131.531 705.773 131.635 705.799 131.787C705.634 131.741 705.565 131.624 705.534 131.399ZM705.366 131.831C705.544 131.855 705.588 131.927 705.503 132.09C705.361 132.049 705.325 131.971 705.366 131.831ZM705.103 128.067C705.17 128.256 705.229 128.447 705.307 128.631C705.464 129.014 705.65 129.381 705.856 129.738C705.972 129.937 706 130.152 705.879 130.395C705.268 129.715 705.015 128.952 705.103 128.067ZM705 129.591C705.09 129.728 705.155 129.847 705.17 129.994C704.979 129.837 704.979 129.837 705 129.591Z" fill="#008029"/>
<path d="M414.494 45.233C414.737 45.7834 415.068 46.2743 415.418 46.7652C416.239 47.9192 417.317 48.748 418.469 49.5046C419.263 50.0273 420.144 50.3461 421.039 50.6436C422.126 51.0049 423.242 51.1579 424.865 51.1813C425.713 51.1877 426.947 50.82 428.113 50.1931C428.222 50.1336 428.335 50.072 428.427 49.9891C428.882 49.5747 429.43 49.2963 429.91 48.9159C430.14 48.7331 430.365 48.5589 430.545 48.3187C430.731 48.0701 430.993 47.9043 431.244 47.7322C431.795 47.3518 432.266 46.88 432.706 46.3784C432.865 46.1978 433.041 46.0427 433.244 45.9215C434.184 45.3584 434.645 44.4785 434.832 43.4266C434.878 43.1716 434.968 42.9591 435.1 42.7359C435.357 42.3024 435.472 41.8051 435.563 41.3078C435.581 41.2079 435.544 41.1144 435.495 41.0273C435.28 40.6384 435.292 40.2133 435.351 39.7968C435.571 38.2114 435.366 36.6983 434.685 35.249C433.766 33.2853 432.473 31.6192 430.783 30.2995C429.975 29.6683 429.079 29.1285 428.092 28.8289C426.486 28.3401 424.854 28.1658 423.185 28.5696C421.899 28.8799 420.657 29.2879 419.52 29.9786C419.045 30.2676 418.593 30.5991 418.182 30.971C417.334 31.7403 416.549 32.5713 416.134 33.6827C415.962 34.1439 415.715 34.5668 415.48 34.9939C415.158 35.5826 414.904 36.2095 414.576 36.7876C414.259 37.3444 414.09 37.9203 413.937 38.5302C413.736 39.3378 413.591 40.1347 413.554 40.972C413.489 42.4915 413.895 43.8792 414.494 45.233ZM434.013 43.1801C434.126 42.8145 434.22 42.5085 434.314 42.2025C434.553 42.6467 434.488 42.8358 434.013 43.1801ZM433.458 44.6549C433.464 44.538 433.521 44.4892 433.667 44.4977C433.615 44.6082 433.575 44.6762 433.458 44.6549ZM425.388 29.5875C426.025 29.5918 426.672 29.6322 427.271 29.9318C426.645 29.8171 426.017 29.7023 425.388 29.5875ZM421.535 50.3482C421.726 50.3419 421.818 50.3589 421.912 50.4439C421.784 50.4928 421.703 50.4481 421.535 50.3482ZM415.776 46.4613C415.935 46.4252 415.966 46.5208 416.008 46.5846C416.676 47.577 417.608 48.272 418.578 48.9244C419.284 49.3983 420.046 49.7511 420.831 50.0613C420.947 50.106 421.081 50.14 421.181 50.2866C420.898 50.2717 420.695 50.14 420.479 50.0592C418.823 49.4514 417.413 48.4696 416.228 47.152C416.046 46.948 415.893 46.7248 415.776 46.4613Z" fill="#FF7080"/>
</svg>
