<svg width="776" height="147" viewBox="0 0 776 147" fill="none" xmlns="http://www.w3.org/2000/svg">
<ellipse cx="214.286" cy="143.358" rx="3.74868" ry="3.6203" fill="#1A1564"/>
<ellipse cx="363.809" cy="90.5515" rx="3.17196" ry="3.06333" fill="#FF0000"/>
<ellipse cx="749.194" cy="59.1376" rx="3.17196" ry="3.06333" fill="#FF0000"/>
<ellipse cx="443.819" cy="87.1043" rx="3.17196" ry="3.06333" fill="#FF0000"/>
<ellipse cx="136.428" cy="127.206" rx="4.90211" ry="4.73423" fill="#008029"/>
<ellipse cx="242.289" cy="50.6539" rx="1.7622" ry="1.70185" fill="#008029"/>
<ellipse cx="685.208" cy="50.6538" rx="1.7622" ry="1.70185" fill="#008029"/>
<ellipse cx="129.217" cy="50.6538" rx="1.7622" ry="1.70185" fill="#008029"/>
<ellipse cx="557.754" cy="88.5278" rx="1.7622" ry="1.70185" fill="#008029"/>
<ellipse cx="1.7622" cy="88.5278" rx="1.7622" ry="1.70185" fill="#008029"/>
<ellipse cx="338.6" cy="6.65336" rx="1.7622" ry="1.70185" fill="#008029"/>
<ellipse cx="287.176" cy="77.8525" rx="2.81952" ry="2.72296" fill="#FF7800"/>
<ellipse cx="704.292" cy="76.5529" rx="2.81952" ry="2.72296" fill="#FF7800"/>
<ellipse cx="174.106" cy="77.8524" rx="2.81952" ry="2.72296" fill="#FF7800"/>
<ellipse cx="492.488" cy="120.182" rx="2.81952" ry="2.72296" fill="#FF7800"/>
<ellipse cx="328.925" cy="127.206" rx="3.87683" ry="3.74407" fill="#FF7080"/>
<ellipse cx="771.845" cy="127.206" rx="3.87683" ry="3.74407" fill="#FF7080"/>
<ellipse cx="342.637" cy="65.1351" rx="1.7622" ry="1.70185" fill="#FF0000"/>
<ellipse cx="600.43" cy="65.1351" rx="1.7622" ry="1.70185" fill="#FF0000"/>
<ellipse cx="44.439" cy="65.1351" rx="1.7622" ry="1.70185" fill="#FF0000"/>
<path d="M258.734 12.0155C258.918 12.0861 259.095 12.1752 259.289 12.227C259.367 12.2479 259.447 12.2587 259.526 12.2738C259.86 12.3403 260.198 12.4039 260.542 12.3983C260.795 12.394 261.047 12.3681 261.299 12.3602C261.574 12.3514 261.843 12.2977 262.103 12.2189C262.589 12.0712 263.066 11.8973 263.499 11.624C263.867 11.3918 264.215 11.1343 264.502 10.8066C264.549 10.7529 264.607 10.7091 264.662 10.6638C264.864 10.501 265.044 10.3187 265.2 10.1127C265.286 9.99862 265.367 9.88347 265.446 9.76416C265.602 9.52944 265.699 9.26793 265.822 9.01895C265.942 8.77593 265.999 8.51562 266.093 8.2663C266.095 8.26155 266.097 8.25729 266.098 8.25291C266.144 8.04181 266.166 7.82929 266.162 7.60997C266.073 7.68109 266.078 7.79423 266.006 7.89674C265.999 7.79054 266.042 7.7128 266.055 7.63068C266.069 7.5482 266.091 7.46745 266.107 7.39303C266.077 7.35733 266.056 7.39931 266.021 7.377C265.997 7.29585 265.958 7.20452 265.967 7.10545C265.978 6.97298 265.954 6.84465 265.934 6.71694C265.895 6.48811 265.847 6.26011 265.8 6.03344C265.744 5.76396 265.636 5.51087 265.549 5.25151C265.474 5.02719 265.361 4.81833 265.264 4.60246C265.164 4.3789 265.023 4.18604 264.893 3.98236C264.769 3.78566 264.655 3.58375 264.508 3.40159C264.27 3.10659 264.011 2.83724 263.697 2.61585C263.509 2.48328 263.308 2.3703 263.116 2.24369C262.94 2.12726 262.722 2.08906 262.515 2.03871C262.491 2.03339 262.466 2.03415 262.444 2.02627C262.135 1.91181 261.808 1.92418 261.485 1.9284C261.232 1.93141 260.983 1.99367 260.733 2.03387C260.487 2.07383 260.245 2.13698 260.012 2.22441C259.797 2.30545 259.582 2.38331 259.377 2.49181C259.234 2.56774 259.084 2.62914 258.94 2.70677C258.733 2.81953 258.535 2.93805 258.352 3.08795C258.227 3.19003 258.081 3.26619 257.949 3.35996C257.641 3.57927 257.356 3.82548 257.077 4.07866C256.831 4.30112 256.63 4.55751 256.44 4.82551C256.302 5.01897 256.171 5.21635 256.05 5.41914C255.848 5.75744 255.725 6.12369 255.669 6.50481C255.624 6.81429 255.641 7.1274 255.67 7.43848C255.698 7.75309 255.808 8.04203 255.914 8.33509C256.003 8.58446 256.124 8.82065 256.209 9.07244C256.242 9.17178 256.311 9.25907 256.36 9.35359C256.527 9.67272 256.753 9.95158 256.971 10.2353C256.988 10.2574 257.005 10.28 257.018 10.3037C257.175 10.587 257.393 10.8222 257.623 11.0489C257.759 11.1845 257.861 11.3509 258.002 11.4794C258.225 11.6819 258.435 11.9003 258.734 12.0155ZM256.221 6.10875C256.259 6.12814 256.249 6.16151 256.234 6.19327C256.203 6.26155 256.17 6.32885 256.142 6.39774C256.102 6.49245 256.076 6.59317 256.027 6.68247C255.999 6.73418 255.978 6.7797 255.993 6.8401C255.921 6.81741 255.919 6.81728 255.929 6.76319C255.965 6.5612 256.032 6.36761 256.102 6.17415C256.106 6.16076 256.113 6.14835 256.121 6.13692C256.147 6.10142 256.183 6.08935 256.221 6.10875ZM256.665 5.77789C256.546 5.99799 256.43 6.22005 256.322 6.44519C256.397 6.20445 256.477 5.96581 256.665 5.77789ZM256.371 5.09833C256.215 5.34232 256.094 5.60374 255.942 5.88236C255.979 5.65441 256.232 5.19609 256.371 5.09833ZM257.071 4.23346C256.955 4.37043 256.862 4.50566 256.733 4.60882C256.803 4.46742 256.979 4.27397 257.071 4.23346ZM257.751 3.85626C257.745 3.86124 257.735 3.85974 257.727 3.86105C257.719 3.85395 257.717 3.84639 257.726 3.83849C257.732 3.83266 257.743 3.82539 257.748 3.82699C257.765 3.83327 257.761 3.84715 257.751 3.85626ZM257.999 3.6432C258 3.65027 258.001 3.65783 258.001 3.6649C257.994 3.6689 257.985 3.67764 257.979 3.6764C257.961 3.67098 257.965 3.65795 257.976 3.64799C257.981 3.64301 257.992 3.64451 257.999 3.6432ZM259.043 3.28179C259.016 3.32253 258.975 3.34481 258.934 3.36893C258.849 3.41995 258.761 3.47133 258.678 3.52735C258.456 3.67712 258.253 3.85182 258.037 4.00904C257.509 4.39324 257.075 4.86225 256.723 5.40433C256.607 5.58276 256.497 5.76596 256.383 5.9467C256.324 6.04243 256.311 6.04568 256.17 6.01019C256.262 5.87667 256.27 5.69859 256.448 5.62559C256.464 5.61943 256.478 5.59912 256.482 5.58256C256.494 5.52287 256.54 5.47793 256.567 5.42134C256.5 5.41525 256.497 5.48692 256.435 5.49962C256.456 5.46556 256.467 5.4389 256.486 5.41837C256.586 5.30255 256.665 5.17044 256.756 5.05008C256.822 4.96181 256.901 4.88041 256.961 4.78383C257.014 4.70003 257.094 4.63461 257.162 4.56183C257.23 4.48904 257.296 4.42808 257.405 4.45334C257.411 4.45458 257.42 4.4423 257.434 4.43126C257.403 4.32058 257.467 4.23523 257.554 4.17324C257.637 4.11283 257.719 4.02059 257.838 4.08526C257.876 4.05833 257.922 4.02619 257.914 3.99617C257.885 3.88916 257.97 3.85923 258.03 3.81202C258.27 3.62319 258.525 3.45501 258.783 3.29099C258.79 3.28699 258.801 3.28934 258.811 3.28816C258.83 3.30602 258.797 3.33407 258.831 3.35723C258.906 3.36554 258.958 3.26625 259.043 3.28179ZM257.149 5.24517C257.111 5.30648 257.078 5.37158 257.015 5.41329C257.058 5.35627 257.078 5.2821 257.149 5.24517ZM257.367 4.97702C257.297 5.06601 257.245 5.16786 257.153 5.2397C257.205 5.13737 257.269 5.04409 257.367 4.97702ZM259.175 3.12366C259.135 3.12839 259.1 3.16472 259.025 3.13349C259.2 3.04841 259.345 2.95189 259.511 2.89543C259.484 2.93702 259.514 2.98503 259.497 3.02862C259.433 3.08702 259.349 3.11391 259.276 3.15864C259.257 3.17076 259.231 3.17055 259.208 3.17583C259.163 3.22394 259.11 3.25789 259.048 3.279C259.09 3.22673 259.133 3.17544 259.175 3.12366ZM263.386 2.58464C263.535 2.67879 263.677 2.78705 263.81 2.93844C263.731 2.91183 263.683 2.87777 263.637 2.84201C263.604 2.81629 263.572 2.78449 263.534 2.76948C263.333 2.69307 263.158 2.57189 262.971 2.47419C262.921 2.44792 262.868 2.42811 262.817 2.40269C262.569 2.28076 262.299 2.22239 262.027 2.17669C261.754 2.13001 261.475 2.12 261.202 2.16414C260.905 2.21221 260.605 2.25041 260.317 2.3452C260.012 2.44481 259.702 2.52515 259.415 2.67383C259.284 2.74163 259.154 2.8148 259.009 2.85C259.104 2.75635 259.228 2.71462 259.341 2.6537C259.726 2.44502 260.144 2.32155 260.557 2.18587C260.778 2.11314 261.006 2.09201 261.231 2.05258C261.545 1.99798 261.86 2.00214 262.171 2.062C262.619 2.14611 263.012 2.34743 263.386 2.58464ZM259.633 2.85575C259.599 2.9111 259.555 2.89046 259.516 2.8913C259.547 2.86313 259.576 2.82422 259.633 2.85575ZM259.813 2.73436C259.878 2.75885 259.898 2.78867 259.884 2.8297C259.867 2.87633 259.782 2.90407 259.696 2.89023C259.748 2.84568 259.809 2.81346 259.813 2.73436ZM260.029 2.69929C260.01 2.72811 259.989 2.74632 259.944 2.71947C259.968 2.67895 259.991 2.67063 260.029 2.69929ZM260.302 2.59737C260.28 2.71468 260.172 2.67492 260.1 2.72806C260.141 2.61008 260.15 2.60402 260.302 2.59737ZM260.501 2.51676C260.507 2.51227 260.518 2.51512 260.527 2.51429C260.528 2.52185 260.534 2.53321 260.53 2.53783C260.525 2.5433 260.512 2.54825 260.505 2.54652C260.487 2.54109 260.487 2.52744 260.501 2.51676ZM260.762 2.46929C260.704 2.4686 260.696 2.54525 260.604 2.55492C260.652 2.47658 260.69 2.44526 260.762 2.46929ZM261.064 2.38978C261.094 2.37965 261.118 2.35901 261.153 2.40155C261.121 2.4112 261.097 2.43183 261.064 2.38978ZM261.259 2.35743C261.264 2.3538 261.276 2.35359 261.282 2.35703C261.291 2.36194 261.289 2.37022 261.281 2.37811C261.274 2.38077 261.263 2.38719 261.258 2.38559C261.242 2.37761 261.246 2.36507 261.259 2.35743ZM261.857 2.46305C261.78 2.50044 261.7 2.50418 261.618 2.48622C261.694 2.44565 261.775 2.44728 261.857 2.46305ZM262.043 2.46541C261.982 2.48702 261.921 2.49278 261.862 2.46331C261.924 2.43561 261.984 2.43997 262.043 2.46541ZM264.339 3.38344C264.18 3.2133 264.021 3.04232 263.86 2.87169C264.065 2.99859 264.211 3.1816 264.339 3.38344ZM264.133 3.6448C264.02 3.55273 263.891 3.48486 263.76 3.41954C263.709 3.39413 263.661 3.36665 263.614 3.33613C263.375 3.18741 263.138 3.02737 262.875 2.92355C262.478 2.76745 262.064 2.66236 261.624 2.69421C261.595 2.69606 261.561 2.70203 261.537 2.66842C262.491 2.4865 263.755 2.79903 264.334 3.75779C264.249 3.73262 264.189 3.69035 264.133 3.6448ZM264.395 3.99803C264.359 3.96645 264.323 3.93524 264.287 3.90366C264.343 3.9113 264.382 3.93911 264.395 3.99803ZM264.584 4.16327C264.617 4.16388 264.633 4.18417 264.644 4.22492C264.603 4.21198 264.586 4.19424 264.584 4.16327ZM263.023 3.39938C263.065 3.39782 263.092 3.39719 263.114 3.43286C263.069 3.44477 263.048 3.43165 263.023 3.39938ZM262.392 3.20502C262.403 3.17568 262.426 3.19113 262.455 3.21354C262.42 3.22072 262.388 3.21757 262.392 3.20502ZM263.213 3.77491C263.279 3.78623 263.345 3.79841 263.418 3.85597C263.321 3.85343 263.264 3.82019 263.213 3.77491ZM263.545 4.13265C263.893 4.28858 264.204 4.49521 264.487 4.77476C264.313 4.72368 263.635 4.26743 263.545 4.13265ZM264.826 6.44959C264.744 6.37298 264.73 6.26858 264.711 6.17404C264.668 5.95909 264.546 5.78495 264.436 5.60451C264.399 5.54281 264.355 5.48475 264.324 5.38419C264.43 5.43797 264.475 5.51066 264.536 5.56488C264.651 5.6672 264.758 5.77741 264.835 5.91324C264.917 6.05994 264.917 6.27108 264.826 6.44959ZM260.408 3.27663C260.463 3.21282 260.463 3.21282 260.531 3.23305C260.49 3.25802 260.457 3.27814 260.408 3.27663ZM257.95 4.50208C257.961 4.45604 257.979 4.43148 258.003 4.41657C258.131 4.34022 258.236 4.23344 258.358 4.14927C258.673 3.93303 258.98 3.70482 259.309 3.50655C259.544 3.36414 259.792 3.24933 260.05 3.16064C260.401 3.0395 260.76 2.94081 261.126 2.86811C261.386 2.81576 261.649 2.80096 261.91 2.80774C262.252 2.81651 262.576 2.90933 262.892 3.02723C262.939 3.04495 262.988 3.065 263.027 3.1078C262.976 3.12469 262.938 3.10395 262.902 3.08468C262.83 3.04615 262.752 3.02576 262.675 3.00367C262.22 2.86845 261.753 2.86606 261.287 2.94182C260.891 3.00661 260.494 3.07396 260.107 3.19352C259.978 3.23366 259.855 3.28381 259.735 3.34519C259.298 3.56941 258.898 3.84776 258.498 4.12831C258.399 4.19793 258.278 4.2509 258.229 4.37677C258.218 4.40477 258.187 4.41222 258.157 4.41711C258.087 4.42893 258.021 4.45906 257.95 4.50208ZM257.654 4.47348C257.627 4.49837 257.599 4.52144 257.545 4.50601C257.858 4.22832 258.177 3.97967 258.508 3.74715C258.903 3.46939 259.309 3.21032 259.75 3.00355C260.252 2.76859 260.771 2.59501 261.316 2.50136C261.413 2.48537 261.512 2.45939 261.611 2.48717C261.551 2.53303 261.479 2.53546 261.409 2.54375C261.232 2.56616 261.058 2.59797 260.888 2.64759C260.38 2.79452 259.889 2.98514 259.43 3.24598C259.156 3.40202 258.883 3.56258 258.625 3.74379C258.293 3.97716 257.954 4.19953 257.654 4.47348ZM262.335 7.52242C262.238 7.46039 262.143 7.39801 262.03 7.32446C262.181 7.26051 262.358 7.31746 262.413 7.42907C262.429 7.46217 262.428 7.49166 262.4 7.51692C262.38 7.53562 262.355 7.53639 262.335 7.52242ZM257.041 5.73485C256.931 5.89951 256.808 6.05633 256.71 6.22921C256.688 6.26717 256.672 6.31429 256.606 6.34222C256.642 6.20325 256.727 6.10542 256.789 5.9997C256.855 5.88583 256.914 5.7667 257.011 5.67269C257.105 5.58159 257.116 5.43901 257.217 5.35537C257.309 5.27829 257.383 5.18249 257.475 5.10541C257.578 5.02007 257.606 4.8745 257.73 4.80716C257.84 4.74611 257.908 4.63322 258.023 4.57731C257.866 4.7551 257.743 4.95605 257.574 5.12392C257.383 5.31427 257.192 5.50998 257.041 5.73485ZM260.721 8.28239C260.775 8.21894 260.842 8.17212 260.885 8.09792C260.961 8.11733 261.025 8.09012 261.09 8.05512C261.266 7.96346 261.459 7.92794 261.651 7.88925C261.679 7.88337 261.719 7.87157 261.741 7.93808C261.375 7.98079 261.047 8.12445 260.721 8.28239ZM256.444 7.322C256.525 6.90525 256.701 6.52712 256.968 6.18466C256.887 6.37564 256.796 6.5639 256.707 6.7518C256.617 6.94056 256.552 7.14001 256.476 7.33442C256.465 7.33024 256.455 7.32569 256.444 7.322ZM256.349 7.3998C256.387 7.41212 256.441 7.38794 256.439 7.45656C256.437 7.49703 256.41 7.5157 256.37 7.50593C256.307 7.48949 256.333 7.44777 256.349 7.3998ZM256.04 7.61594C256.012 7.58085 256.014 7.55672 256.048 7.52076C256.059 7.56017 256.067 7.58361 256.04 7.61594ZM262.818 11.801C262.85 11.7455 262.895 11.7244 262.955 11.7446C262.91 11.7635 262.863 11.782 262.818 11.801ZM258.811 11.8873C259.44 12.0766 260.082 12.1971 260.741 12.234C260.069 12.2594 259.422 12.1541 258.811 11.8873Z" fill="#1A1564"/>
<path d="M226.408 86.9193C226.375 86.9834 226.371 87.0492 226.398 87.1199C226.572 87.5622 226.73 88.0128 226.904 88.4535C227.1 88.95 227.378 89.417 227.792 89.7919C227.969 89.9531 228.105 90.1504 228.301 90.2984C228.589 90.5154 228.809 90.8098 229.133 90.9906C229.246 91.0531 229.332 91.16 229.431 91.2471C229.468 91.28 229.505 91.3392 229.546 91.3409C229.89 91.3622 230.098 91.6253 230.361 91.7815C230.836 92.066 231.354 92.2452 231.87 92.4261C232.579 92.676 233.281 92.9539 234.028 93.0953C234.225 93.1332 234.411 93.222 234.622 93.1809C234.664 93.1726 234.718 93.2072 234.764 93.2253C234.821 93.2466 234.875 93.291 234.932 93.2927C235.33 93.3058 235.723 93.3946 236.118 93.3946C236.617 93.3946 237.117 93.3535 237.614 93.3124C237.847 93.2927 238.08 93.245 238.306 93.1858C238.908 93.0279 239.484 92.8027 240.008 92.4672C240.315 92.2715 240.653 92.1318 240.951 91.9164C241.096 91.8111 241.223 91.6845 241.373 91.5826C241.547 91.4642 241.717 91.3343 241.896 91.2208C242.129 91.0745 242.348 90.9183 242.535 90.716C242.65 90.5927 242.773 90.471 242.947 90.4151C243.009 90.3954 243.082 90.3395 243.107 90.2819C243.232 90.0057 243.51 89.8873 243.718 89.6966C243.78 89.639 243.819 89.5765 243.839 89.4959C243.888 89.3167 243.977 89.1934 244.198 89.2049C244.37 89.2131 244.377 89.075 244.387 88.9533C244.549 88.7445 244.605 88.4913 244.686 88.2512C244.74 88.0901 244.792 87.9371 244.892 87.7908C245.027 87.5935 245.064 87.3419 245.165 87.1331C245.334 86.7878 245.31 86.4392 245.312 86.084C245.312 86.0676 245.297 86.0495 245.288 86.0314C245.185 86.0166 245.214 86.1366 245.103 86.181C245.167 85.8209 245.005 85.4888 245.109 85.1303C244.986 85.0399 244.944 84.8984 244.893 84.757C244.753 84.3624 244.603 83.9727 244.457 83.5797C244.45 83.5616 244.445 83.5419 244.435 83.5238C244.345 83.3446 244.15 83.213 244.094 83.0486C244.03 82.8562 243.952 82.6885 243.839 82.5208C243.689 82.2988 243.571 82.0571 243.424 81.8302C243.154 81.4191 242.82 81.054 242.544 80.6512C242.319 80.3223 242.019 80.0757 241.741 79.8044C241.705 79.7698 241.671 79.7287 241.631 79.7024C241.145 79.3933 240.718 79.0052 240.221 78.7125C240.028 78.5991 239.838 78.4856 239.618 78.4231C239.283 78.3278 238.993 78.137 238.682 77.9923C238.431 77.8756 238.169 77.8164 237.905 77.744C237.623 77.6668 237.343 77.5665 237.056 77.5105C236.621 77.425 236.184 77.3067 235.732 77.3922C235.658 77.4053 235.588 77.3987 235.524 77.3626C235.3 77.2343 235.054 77.2409 234.809 77.2475C234.362 77.2606 233.915 77.2951 233.468 77.2869C233.056 77.2787 232.695 77.4497 232.307 77.5253C232.191 77.5484 232.085 77.624 231.953 77.5796C231.911 77.5648 231.852 77.5829 231.805 77.601C231.327 77.7769 230.841 77.9463 230.428 78.2423C230.018 78.535 229.605 78.826 229.246 79.1812C229.123 79.3028 229.004 79.4229 228.964 79.5988C228.949 79.663 228.902 79.7238 228.856 79.7764C228.576 80.0921 228.458 80.472 228.333 80.8649C228.168 81.3813 228.004 81.9124 227.625 82.3366C227.528 82.4451 227.461 82.5635 227.456 82.7115C227.452 82.7839 227.425 82.848 227.36 82.8891C227.306 82.9236 227.269 82.973 227.257 83.0322C227.194 83.3479 227.012 83.6044 226.825 83.8592C226.791 83.9053 226.781 83.9694 226.764 84.027C226.68 84.3131 226.565 84.586 226.45 84.8639C226.25 85.349 226.221 85.8653 226.4 86.3734C226.464 86.5559 226.503 86.7351 226.408 86.9193ZM244.801 87.1594C244.821 87.0837 244.799 87.0097 244.883 86.9752C244.922 87.0788 244.922 87.0788 244.801 87.1594ZM244.457 84.2276C244.872 84.9774 245.01 86.2978 244.725 86.7812C244.622 86.5921 244.634 86.3931 244.63 86.1975C244.625 85.9311 244.689 85.6532 244.605 85.4C244.509 85.1139 244.462 84.8245 244.414 84.5318C244.399 84.4348 244.355 84.3377 244.457 84.2276ZM244.335 83.976C244.269 83.9382 244.251 83.8954 244.315 83.8395C244.381 83.879 244.397 83.9217 244.335 83.976ZM244.202 88.9533C244.269 88.8695 244.325 88.876 244.382 88.955C244.328 88.9599 244.274 89.0076 244.202 88.9533ZM243.338 82.4616C243.495 82.6211 243.605 82.8069 243.654 83.0223C243.544 82.8365 243.357 82.6918 243.338 82.4616ZM243.11 82.1344C243.198 82.136 243.232 82.1738 243.212 82.261C243.119 82.2626 243.095 82.2166 243.11 82.1344ZM242.824 82.8792C243.048 82.9598 243.075 83.1078 243.09 83.264C242.997 83.1604 242.873 83.0765 242.824 82.8792ZM242.176 82.0801C242.262 82.0258 242.319 82.0357 242.348 82.0768C242.481 82.2758 242.606 82.4813 242.734 82.6836C242.714 82.6951 242.694 82.7082 242.673 82.7197C242.51 82.5125 242.348 82.3021 242.176 82.0801ZM242.059 80.5361C242.311 80.6512 242.341 80.6874 242.361 80.883C242.21 80.8025 242.129 80.6742 242.059 80.5361ZM241.395 81.1757C241.609 81.2152 241.855 81.4635 241.913 81.7266C241.602 81.5391 241.439 81.3599 241.395 81.1757ZM240.762 80.6841C240.917 80.6611 240.963 80.7153 240.966 80.837C240.853 80.8436 240.799 80.7992 240.762 80.6841ZM240.278 79.8422C240.302 79.8241 240.329 79.7945 240.364 79.7764C240.398 79.7583 240.438 79.7501 240.543 79.7139C240.484 79.9014 240.585 79.9606 240.691 80.028C240.857 80.1332 241.041 80.2237 241.13 80.4292C240.781 80.3338 240.276 79.9902 240.278 79.8422ZM239.934 78.9839C240.189 78.9691 240.185 78.9756 240.34 79.0677C240.563 79.1993 240.723 79.4245 241 79.4771C241.042 79.4854 241.073 79.5446 241.11 79.5774C241.208 79.6646 241.307 79.7485 241.405 79.8356C241.639 80.0494 241.93 80.2138 242.051 80.5262C241.823 80.416 241.631 80.2598 241.445 80.0905C241.172 79.8405 240.907 79.5824 240.558 79.418C240.342 79.316 240.16 79.145 239.934 78.9839ZM239.516 78.6616C239.622 78.6829 239.73 78.6977 239.799 78.8293C239.649 78.8227 239.571 78.7569 239.516 78.6616ZM238.738 78.5909C238.873 78.7536 239.048 78.8326 239.205 78.9378C239.35 79.0365 239.406 79.1236 239.343 79.265C239.31 79.3407 239.278 79.4541 239.156 79.413C239.045 79.3752 239.109 79.2831 239.119 79.2091C239.123 79.1828 239.107 79.1549 239.096 79.1154C238.949 79.1368 238.853 79.0398 238.74 78.9806C238.485 78.8457 238.485 78.8211 238.738 78.5909ZM238.018 78.4412C238.107 78.5382 238.235 78.581 238.36 78.6681C238.105 78.6928 238.04 78.6517 238.018 78.4412ZM237.808 77.9183C237.876 77.9118 237.9 77.9496 237.896 78.0055C237.896 78.0154 237.862 78.0351 237.852 78.0318C237.8 78.0104 237.771 77.9759 237.808 77.9183ZM237.432 78.234C237.434 78.2225 237.459 78.2044 237.471 78.2061C237.501 78.2077 237.522 78.2275 237.52 78.2604C237.506 78.2702 237.491 78.29 237.478 78.2883C237.447 78.2867 237.425 78.2653 237.432 78.234ZM235.553 77.9594C235.929 77.9874 236.26 78.0844 236.597 78.1387C236.828 78.1749 237.063 78.2669 237.237 78.4478C237.291 78.5054 237.319 78.5695 237.25 78.6287C237.188 78.6813 237.11 78.6797 237.068 78.604C236.989 78.4675 236.855 78.3985 236.715 78.3952C236.373 78.387 236.084 78.1666 235.735 78.1831C235.624 78.1896 235.524 78.1189 235.553 77.9594ZM229.04 80.2006C229.141 79.9951 229.247 79.8553 229.365 79.7156C229.762 79.2502 230.3 78.9543 230.76 78.5695C230.791 78.5448 230.83 78.5267 230.868 78.5169C231.093 78.4593 231.292 78.3327 231.525 78.2982C231.751 78.2636 231.953 78.1765 232.135 78.0433C232.174 78.0154 232.226 77.9923 232.274 77.9874C232.598 77.9512 232.913 77.8855 233.223 77.7851C233.308 77.7572 233.406 77.7687 233.431 77.9085C233.228 77.9841 233.024 78.0482 232.824 78.1009C232.5 78.1864 232.265 78.4199 231.955 78.5366C231.601 78.6714 231.25 78.8326 230.904 79.0003C230.263 79.3144 229.639 79.6416 229.141 80.1595C229.133 80.171 229.109 80.1743 229.04 80.2006ZM227.986 83.9201C227.957 83.856 227.947 83.8066 228.041 83.7441C228.051 83.8264 228.082 83.8806 227.986 83.9201ZM227.13 88.095C227.348 88.1986 227.398 88.4239 227.532 88.5899C227.675 88.7692 227.8 88.9648 227.943 89.1441C228.082 89.3151 228.237 89.4729 228.379 89.6423C228.519 89.81 228.736 89.9185 228.782 90.1553C228.07 89.5913 227.522 88.904 227.13 88.095Z" fill="#FF7800"/>
<path d="M637.89 81.0556C637.899 81.1606 637.917 81.2638 637.905 81.3704C637.883 81.5363 637.921 81.6971 638.03 81.8274C638.138 81.9543 638.172 82.0931 638.168 82.2454C638.165 82.3876 638.204 82.5196 638.274 82.6465C638.507 83.0713 638.715 83.5062 638.997 83.9124C639.171 84.1629 639.416 84.3711 639.549 84.6232C639.775 85.0514 640.178 85.3205 640.46 85.6929C640.718 86.0347 641.124 86.2412 641.443 86.5323C641.524 86.6068 641.62 86.666 641.697 86.7438C642.212 87.2634 642.822 87.6662 643.457 88.0402C644.174 88.465 644.931 88.7967 645.761 88.9694C646.197 89.0608 646.64 89.0641 647.083 89.0151C647.99 88.9135 648.826 88.6106 649.592 88.1519C649.942 87.9421 650.322 87.805 650.695 87.6561C651.321 87.4056 651.817 87.018 652.219 86.512C652.565 86.0753 652.904 85.6336 653.254 85.1987C653.738 84.5995 654 83.904 654.072 83.1491C654.102 82.8293 654.147 82.5111 654.145 82.1879C654.143 81.9729 654.206 81.7631 654.276 81.5583C654.47 80.9812 654.572 80.3905 654.554 79.7829C654.52 78.7015 654.29 77.6657 653.803 76.6757C653.015 75.0797 651.801 73.8493 650.236 72.927C649.262 72.3532 648.184 72.0164 647.049 71.8438C646.24 71.722 645.444 71.7897 644.649 71.947C644.079 72.0604 643.52 72.2111 643.012 72.4819C642.377 72.8203 641.775 73.2045 641.389 73.8155C641.253 74.0304 641.038 74.1793 640.869 74.3672C640.648 74.6109 640.428 74.858 640.256 75.1356C640.049 75.4707 639.718 75.7178 639.529 76.0647C639.51 76.1019 639.481 76.1409 639.447 76.1662C638.97 76.503 638.792 77.0345 638.495 77.4863C638.362 77.6894 638.34 77.9551 638.247 78.1853C638.016 78.759 638.001 79.3784 637.867 79.9725C637.788 80.3177 637.86 80.6951 637.89 81.0556ZM652.827 84.1037C652.788 84.3897 652.757 84.6486 652.63 84.8974C652.368 84.6351 652.404 84.4845 652.827 84.1037ZM651.588 74.9883C651.604 74.9731 651.62 74.9579 651.638 74.9443C651.846 75.1237 652.063 75.2963 652.142 75.5756C651.955 75.3793 651.771 75.1846 651.588 74.9883ZM649.789 86.4595C649.843 86.4037 649.898 86.3597 649.981 86.4104C649.99 86.4663 649.956 86.4934 649.913 86.5069C649.863 86.5187 649.803 86.5408 649.789 86.4595ZM644.8 72.8525C645.324 72.6426 646.712 72.7729 647.999 73.2028C649.292 73.6344 650.413 74.3401 651.34 75.3065C650.706 74.8715 650.124 74.3638 649.423 74.0152C648.708 73.6581 647.954 73.3958 647.178 73.1927C646.418 72.993 645.637 72.91 644.8 72.8525ZM641.558 77.8011C641.812 77.7114 642.079 77.659 642.347 77.615C642.445 77.598 642.56 77.5642 642.626 77.6623C642.7 77.769 642.623 77.8654 642.562 77.9551C642.539 77.9907 642.506 78.0279 642.469 78.0465C642.191 78.1938 642.076 78.4476 641.972 78.7099C641.909 78.8673 641.853 79.0315 641.701 79.128C641.54 79.0992 641.531 78.9807 641.507 78.8809C641.45 78.6304 641.396 78.3799 641.35 78.1278C641.308 77.9111 641.33 77.8807 641.558 77.8011Z" fill="#FF0000"/>
<path d="M82.0865 81.0556C82.0954 81.1606 82.1134 81.2638 82.1008 81.3704C82.0793 81.5363 82.1169 81.6971 82.2263 81.8274C82.3339 81.9543 82.368 82.0931 82.3644 82.2454C82.3608 82.3876 82.4003 82.5196 82.4702 82.6465C82.7034 83.0713 82.9114 83.5062 83.193 83.9124C83.3669 84.1629 83.6126 84.3711 83.7453 84.6232C83.9713 85.0514 84.3748 85.3205 84.6563 85.6929C84.9146 86.0347 85.3199 86.2412 85.6391 86.5323C85.7198 86.6068 85.8166 86.666 85.8938 86.7438C86.4085 87.2634 87.0182 87.6662 87.653 88.0402C88.3704 88.465 89.1272 88.7967 89.9575 88.9694C90.3933 89.0608 90.8363 89.0641 91.2792 89.0151C92.1867 88.9135 93.0224 88.6106 93.7881 88.1519C94.1378 87.9421 94.518 87.805 94.891 87.6561C95.5169 87.4056 96.0137 87.018 96.4154 86.512C96.7615 86.0753 97.1005 85.6336 97.4502 85.1987C97.9344 84.5995 98.1962 83.904 98.2679 83.1491C98.2984 82.8293 98.3433 82.5111 98.3415 82.1879C98.3397 81.9729 98.4024 81.7631 98.4724 81.5583C98.6661 80.9812 98.7683 80.3905 98.7503 79.7829C98.7163 78.7015 98.4867 77.6657 97.9989 76.6757C97.2116 75.0797 95.9975 73.8493 94.4319 72.927C93.4581 72.3532 92.3803 72.0164 91.2451 71.8438C90.4363 71.722 89.6401 71.7897 88.8456 71.947C88.2753 72.0604 87.7158 72.2111 87.2083 72.4819C86.5734 72.8203 85.9709 73.2045 85.5853 73.8155C85.449 74.0304 85.2338 74.1793 85.0652 74.3672C84.8446 74.6109 84.6241 74.858 84.4519 75.1356C84.2457 75.4707 83.9139 75.7178 83.7256 76.0647C83.7059 76.1019 83.6772 76.1409 83.6431 76.1662C83.1661 76.503 82.9885 77.0345 82.6908 77.4863C82.5581 77.6894 82.5366 77.9551 82.4433 78.1853C82.212 78.759 82.1976 79.3784 82.0631 79.9725C81.9842 80.3177 82.056 80.6951 82.0865 81.0556ZM97.0233 84.1037C96.9839 84.3897 96.9534 84.6486 96.8261 84.8974C96.5642 84.6351 96.6001 84.4845 97.0233 84.1037ZM95.7841 74.9883C95.8003 74.9731 95.8164 74.9579 95.8343 74.9443C96.0424 75.1237 96.2594 75.2963 96.3383 75.5756C96.1518 75.3793 95.9671 75.1846 95.7841 74.9883ZM93.9854 86.4595C94.0392 86.4037 94.0948 86.3597 94.1773 86.4104C94.1862 86.4663 94.1522 86.4934 94.1091 86.5069C94.0589 86.5187 93.9997 86.5408 93.9854 86.4595ZM88.9963 72.8525C89.5199 72.6426 90.908 72.7729 92.1956 73.2028C93.4886 73.6344 94.6095 74.3401 95.5366 75.3065C94.9018 74.8715 94.3207 74.3638 93.6195 74.0152C92.904 73.6581 92.1508 73.3958 91.3743 73.1927C90.6139 72.993 89.8338 72.91 88.9963 72.8525ZM85.7539 77.8011C86.0085 77.7114 86.2757 77.659 86.543 77.615C86.6416 77.598 86.7564 77.5642 86.8227 77.6623C86.8962 77.769 86.8191 77.8654 86.7582 77.9551C86.7348 77.9907 86.7026 78.0279 86.6649 78.0465C86.3869 78.1938 86.2722 78.4476 86.1681 78.7099C86.1054 78.8673 86.0498 79.0315 85.8973 79.128C85.7359 79.0992 85.727 78.9807 85.7037 78.8809C85.6463 78.6304 85.5925 78.3799 85.5458 78.1278C85.5046 77.9111 85.5261 77.8807 85.7539 77.8011Z" fill="#FF0000"/>
<path d="M497.877 89.1629C497.963 89.5039 498.103 89.8291 498.171 90.1754C498.176 90.2001 498.18 90.2284 498.196 90.2461C498.43 90.4846 498.563 90.7885 498.747 91.0589C499 91.4335 499.339 91.7303 499.635 92.066C499.943 92.4159 500.314 92.7021 500.714 92.953C500.954 93.105 501.138 93.3241 501.383 93.4619C501.769 93.6793 502.073 94.0132 502.491 94.1864C502.558 94.2146 502.609 94.28 502.671 94.326C502.859 94.4691 503.036 94.6299 503.26 94.7253C503.331 94.7571 503.395 94.8083 503.424 94.879C503.502 95.0751 503.679 95.1246 503.86 95.1352C503.964 95.1405 504.047 95.167 504.12 95.22C504.297 95.3508 504.476 95.4762 504.7 95.5222C504.729 95.5293 504.76 95.5575 504.78 95.5823C504.886 95.7165 505.034 95.7484 505.194 95.7431C505.336 95.7378 505.467 95.7643 505.584 95.8491C505.662 95.9056 505.746 95.9427 505.848 95.9286C505.874 95.925 505.909 95.9233 505.923 95.9374C506.105 96.1 506.326 96.0434 506.537 96.0434C506.554 96.0434 506.574 96.0399 506.588 96.0452C506.824 96.1442 507.075 96.1671 507.325 96.206C507.434 96.2237 507.536 96.259 507.649 96.2431C507.813 96.2201 507.974 96.2749 508.138 96.2802C508.464 96.2908 508.792 96.2855 509.118 96.2643C509.512 96.2413 509.904 96.2078 510.303 96.2343C510.774 96.2643 511.251 96.2555 511.723 96.229C512.143 96.206 512.523 96.0293 512.884 95.8332C513.243 95.637 513.612 95.4515 513.949 95.2183C514.146 95.0822 514.31 94.9108 514.459 94.7306C514.682 94.4638 514.889 94.1881 515.143 93.9478C515.599 93.5149 515.912 92.9884 516.147 92.4176C516.39 91.8275 516.617 91.2338 516.71 90.5977C516.767 90.209 516.809 89.8238 516.752 89.428C516.681 88.9421 516.623 88.4544 516.492 87.9791C516.432 87.76 516.362 87.5462 516.249 87.3483C516.198 87.2599 516.185 87.1539 516.133 87.0709C515.947 86.7669 515.83 86.4241 515.589 86.1503C515.478 86.023 515.376 85.8888 515.274 85.7527C514.928 85.2933 514.55 84.8551 514.117 84.4787C513.825 84.2261 513.508 83.9928 513.194 83.7578C512.469 83.2136 511.659 82.8072 510.874 82.3566C510.549 82.1711 510.24 81.9591 509.897 81.8018C509.397 81.5739 508.905 81.323 508.378 81.171C508.021 81.0667 507.662 80.9554 507.285 80.906C506.791 80.8406 506.297 80.7893 505.803 80.7328C505.5 80.6975 505.201 80.678 504.904 80.6939C504.286 80.7293 503.665 80.7929 503.129 81.1251C502.875 81.2823 502.609 81.3689 502.323 81.4396C501.682 81.6004 501.058 81.823 500.446 82.0651C500.057 82.217 499.693 82.4379 499.368 82.6941C499.057 82.9415 498.803 83.2454 498.665 83.6324C498.557 83.931 498.437 84.2208 498.39 84.5388C498.364 84.7102 498.3 84.8975 498.211 85.0565C498.147 85.1678 498.136 85.2509 498.246 85.3657C498.067 85.4435 498.01 85.5548 498.001 85.6997C497.994 85.8163 497.963 85.9312 497.958 86.0478C497.934 86.6044 497.934 87.1645 497.803 87.7123C497.686 88.2088 497.757 88.6894 497.877 89.1629ZM515.781 87.1133C515.682 87.039 515.653 86.9613 515.651 86.8712C515.732 86.9242 515.803 86.9807 515.781 87.1133ZM515.568 88.8466C515.588 88.8449 515.608 88.8413 515.628 88.8396C515.642 88.859 515.666 88.8749 515.673 88.8979C515.914 89.5782 515.998 90.2779 515.954 90.9935C515.947 91.1295 515.892 91.255 515.79 91.3628C515.743 90.5182 515.817 89.67 515.568 88.8466ZM514.069 85.5018C514.849 86.3128 515.526 87.1857 515.828 88.2865C515.557 87.7953 515.168 87.3818 514.868 86.9118C514.744 86.7192 514.574 86.562 514.456 86.3711C514.297 86.1149 514.166 85.8446 514.024 85.5778C514.013 85.5566 514.022 85.5301 514.069 85.5018ZM513.577 92.6403C513.626 92.5873 513.665 92.5714 513.705 92.6261C513.672 92.6668 513.635 92.6774 513.577 92.6403ZM512.917 84.5741C513.223 84.7544 513.577 85.2297 513.615 85.5159C513.382 85.2014 513.151 84.8869 512.917 84.5741ZM512.31 83.4716C512.416 83.4327 512.46 83.4875 512.503 83.5175C512.997 83.8515 513.457 84.2243 513.918 84.5971C514.058 84.7102 514.188 84.8304 514.297 84.9699C514.58 85.3375 514.913 85.6661 515.183 86.0425C515.367 86.3005 515.569 86.5496 515.646 86.8641C515.597 86.8464 515.557 86.8217 515.531 86.7758C515.221 86.2103 514.806 85.7244 514.343 85.2739C514.21 85.1449 514.078 85.0106 513.953 84.8763C513.663 84.5671 513.353 84.2808 512.988 84.0547C512.733 83.8974 512.554 83.6659 512.31 83.4716ZM508.087 82.3725C509.516 82.6199 510.795 83.0563 511.803 84.06C511.628 83.9469 511.388 83.9221 511.251 83.7649C511.091 83.5811 510.863 83.5263 510.666 83.4292C510.416 83.3072 510.147 83.2083 509.888 83.0987C509.385 82.8867 508.882 82.6764 508.355 82.5227C508.273 82.498 508.183 82.475 508.087 82.3725ZM507.427 82.0545C507.504 82.0297 507.575 81.9555 507.66 82.0191C507.779 82.1092 507.917 82.1004 508.054 82.1039C508.143 82.1057 508.242 82.1004 508.3 82.2011C508.125 82.2541 507.582 82.1587 507.427 82.0545ZM506.907 81.9679C507.033 81.9467 507.159 81.952 507.283 81.9591C507.349 81.9626 507.392 81.9962 507.42 82.0527C507.237 82.0951 507.068 82.0721 506.907 81.9679ZM501.279 87.4437C501.286 87.3677 501.339 87.3253 501.419 87.3359C501.496 87.3465 501.508 87.4048 501.496 87.4666C501.468 87.5992 501.446 87.7352 501.37 87.9102C501.293 87.7282 501.264 87.5886 501.279 87.4437ZM498.933 87.7476C499.026 87.9084 499.122 88.0656 499.139 88.2512C499.035 88.0957 498.909 87.949 498.933 87.7476ZM499.146 86.0496C499.248 86.304 499.164 86.5514 499.153 86.8535C498.989 86.6291 498.944 86.4241 498.947 86.2103C498.951 86.1185 499.015 86.0443 499.146 86.0496ZM499.226 84.8993C499.228 84.9364 499.208 84.9646 499.17 84.9699C499.141 84.9752 499.121 84.9558 499.121 84.9275C499.119 84.8904 499.139 84.8657 499.177 84.8569C499.206 84.8551 499.224 84.871 499.226 84.8993ZM499.279 83.4945C499.593 83.0828 499.943 82.7789 500.466 82.5934C500.422 82.8001 500.296 82.8637 500.192 82.9433C500.039 83.0599 499.866 83.1429 499.724 83.2843C499.627 83.3832 499.476 83.4627 499.279 83.4945ZM499.128 90.9104C499.308 90.974 499.354 91.0836 499.35 91.2744C499.226 91.1596 499.142 91.073 499.128 90.9104ZM499.126 89.5905C499.02 89.5163 498.977 89.4209 498.955 89.2654C499.172 89.4032 499.175 89.4103 499.126 89.5905ZM498.904 89.8096C499.013 89.8997 499.073 89.9704 499.091 90.0747C498.975 90.0429 498.925 89.9634 498.904 89.8096ZM498.785 90.1047C498.911 90.1206 498.942 90.1701 498.882 90.2814C498.781 90.2531 498.756 90.2001 498.785 90.1047ZM498.599 87.5338C498.647 87.6628 498.688 87.7935 498.743 87.919C498.854 88.1805 498.986 88.4314 499.131 88.6752C499.213 88.8113 499.234 88.958 499.148 89.124C498.716 88.6593 498.537 88.1381 498.599 87.5338ZM498.526 88.5745C498.59 88.6682 498.636 88.7495 498.647 88.8502C498.512 88.7424 498.512 88.7424 498.526 88.5745Z" fill="#008029"/>
<path d="M293.1 30.9655C293.272 31.3414 293.506 31.6767 293.754 32.0119C294.334 32.8 295.097 33.366 295.911 33.8827C296.472 34.2397 297.096 34.4574 297.728 34.6606C298.497 34.9073 299.286 35.0118 300.434 35.0277C301.034 35.0321 301.906 34.781 302.731 34.3529C302.808 34.3122 302.888 34.2702 302.953 34.2136C303.274 33.9305 303.662 33.7404 304.002 33.4806C304.164 33.3558 304.323 33.2368 304.45 33.0728C304.582 32.903 304.767 32.7898 304.945 32.6723C305.334 32.4125 305.668 32.0903 305.979 31.7478C306.091 31.6244 306.216 31.5185 306.359 31.4358C307.024 31.0512 307.35 30.4503 307.482 29.7319C307.514 29.5578 307.578 29.4126 307.671 29.2603C307.853 28.9642 307.935 28.6246 307.999 28.285C308.012 28.2168 307.985 28.1529 307.951 28.0934C307.799 27.8278 307.808 27.5376 307.849 27.2531C308.005 26.1704 307.859 25.1371 307.378 24.1473C306.728 22.8063 305.814 21.6685 304.619 20.7673C304.047 20.3362 303.414 19.9676 302.716 19.763C301.58 19.4292 300.427 19.3101 299.246 19.5859C298.337 19.7978 297.459 20.0764 296.655 20.5481C296.318 20.7455 295.999 20.9719 295.708 21.2259C295.109 21.7512 294.553 22.3187 294.26 23.0777C294.139 23.3927 293.964 23.6815 293.798 23.9732C293.57 24.3752 293.391 24.8033 293.158 25.1981C292.935 25.5783 292.815 25.9716 292.706 26.3881C292.564 26.9396 292.462 27.4839 292.435 28.0557C292.39 29.0934 292.677 30.0411 293.1 30.9655ZM306.903 29.5636C306.983 29.314 307.049 29.105 307.116 28.896C307.285 29.1993 307.239 29.3285 306.903 29.5636ZM306.51 30.5708C306.515 30.491 306.555 30.4576 306.658 30.4634C306.621 30.5389 306.593 30.5853 306.51 30.5708ZM300.804 20.2811C301.254 20.284 301.712 20.3115 302.136 20.5162C301.693 20.4378 301.248 20.3594 300.804 20.2811ZM298.079 34.4588C298.214 34.4545 298.279 34.4661 298.346 34.5241C298.256 34.5575 298.198 34.527 298.079 34.4588ZM294.007 31.8044C294.119 31.7797 294.142 31.845 294.171 31.8886C294.644 32.5663 295.303 33.0409 295.988 33.4864C296.487 33.8101 297.026 34.051 297.582 34.2629C297.663 34.2934 297.758 34.3166 297.829 34.4167C297.629 34.4066 297.485 34.3166 297.333 34.2614C296.161 33.8464 295.165 33.1759 294.327 32.2761C294.198 32.1367 294.09 31.9844 294.007 31.8044Z" fill="#FF7080"/>
</svg>
