<svg width="82" height="82" viewBox="0 0 82 82" fill="none" xmlns="http://www.w3.org/2000/svg">
    <path d="m8.673 67.65.158.158c0 .157.158.315.158.315.157.158.315.473.473.63.473.316.946.632 1.419.79.473.157 1.104.157 1.735 0 .315 0 .63-.159.788-.316.789 0 4.258-1.42 3.942-1.42 2.05-.788 4.258-.63 5.993.474l3.154 2.05 3.153 2.05c1.104.63 2.208 1.419 3.47 2.05 5.046 2.365 10.88 2.365 15.927.315 1.261-.473 2.523-1.104 3.627-1.892 1.103-.789 2.05-1.577 3.153-2.366l5.835-4.888c.158-.158 11.985-9.935 11.827-9.777a7.003 7.003 0 0 0 1.261-1.735c.316-.63.631-1.419.631-2.207 0-.789-.473-1.735-.946-2.208-1.104-.946-2.365-1.42-3.942-1.262 3.311-3.627 5.992-7.727 7.727-12.3 1.892-5.361 2.05-11.511.157-17.03-.946-2.681-2.523-5.362-4.415-7.57-2.05-2.207-4.573-3.942-7.57-4.888-2.995-.946-6.15-.788-9.145.158-2.366.788-4.416 2.207-6.308 3.942a15.508 15.508 0 0 0-6.15-3.785c-2.839-.946-5.992-1.103-8.989-.315-2.996.788-5.519 2.523-7.569 4.73-5.519 5.993-7.727 15.455-4.73 24.285 1.103 3.47 2.838 6.466 4.888 9.304-.158-.157-.316-.157-.63-.315-5.362-2.05-11.04-1.577-15.928 1.104l-6.623 3.784-1.577.946c-.946.474-1.577 1.577-1.734 2.681 0 .473 0 1.104.157 1.577 0 .158.158.316.158.316l.315.157c0 .158 1.104 2.366 1.104 2.208 0 0 5.362 10.88 5.046 10.25zm17.82-48.096c.946-2.366 2.365-4.573 4.1-6.466 1.734-1.734 3.942-3.153 6.307-3.784 2.366-.631 4.889-.631 7.096.315 2.366.789 4.258 2.366 5.993 4.258.63.788 1.734.63 2.365 0C56.14 9.46 61.343 8.042 65.6 9.46c4.731 1.42 8.516 5.677 10.25 10.408 1.893 4.889 1.893 10.408.316 15.454-1.577 5.046-4.573 9.62-8.2 13.72-.316.157-.631.472-.947.63l-.63.788c-.631.474-1.262.947-1.893 1.262a49.49 49.49 0 0 1-3.942 2.208c-2.523 1.104-5.204 2.05-7.885 2.523-.473-.946-1.261-1.735-2.207-1.893-.316 0-.631-.157-.789-.157-.63-.158-.946 0-1.577-.158l-2.838-.473c-3.785-1.104-7.412-2.523-10.25-5.046l-.158-.158c-.157-.158-2.365-1.577-2.207-1.577-2.997-3.627-5.362-7.884-6.781-12.3-1.42-4.888-1.104-10.407.63-15.138zM5.362 52.984l1.577-.946 6.623-3.942c2.05-1.261 4.258-1.892 6.623-2.208 2.365-.157 4.73.158 6.938.947 1.104.473 2.208.946 3.154 1.576l3.154 2.05h-.158c3.312 2.839 7.254 4.258 11.354 5.204 1.104.158 2.05.316 3.154.473h2.05c.158 0 .315.158.473.158.63.315.946.946.63 1.577-.157.63-.788 1.262-1.576 1.735-3.47 1.419-7.57 2.207-11.354 1.261-1.892-.63-3.627-1.577-5.361-2.523a54.356 54.356 0 0 1-5.047-3.154c1.577 1.262 3.154 2.523 4.889 3.627 1.734 1.104 3.47 2.208 5.361 2.839 4.1 1.103 8.2.63 12.3-.789.947-.473 2.05-1.261 2.523-2.523a4.5 4.5 0 0 0 0-2.05h.158c.316 0 .473 0 .789-.158a35.884 35.884 0 0 0 7.096-1.734c1.419-.631 2.838-1.262 4.257-2.05.631-.316 1.42-.789 2.05-1.262l.947-.63.946-.474h.157l.158-.157c1.577-.631 3.312-.316 4.416.788.315.316.473.789.473 1.104 0 .788-.789 1.892-1.42 2.523l-12.142 9.146-5.992 4.573c-.946.789-2.05 1.577-2.996 2.208-.947.63-2.05 1.261-3.154 1.577-4.416 1.734-9.462 1.577-13.72-.473-2.05-.946-4.257-2.523-6.307-3.942l-3.312-2.05c-2.523-1.577-5.834-1.735-8.673-.631-.157 0-4.257 1.734-3.942 1.734h-.315s-.158 0-.158-.157v-.158l-.158-.158c-.158-.157-6.15-12.142-5.992-11.984l-.158-.473-.473.157V53.3s0-.158.158-.316z" fill="#FF7800"/>
</svg>
