<svg width="216" height="122" viewBox="0 0 216 122" fill="none" xmlns="http://www.w3.org/2000/svg">
<g clip-path="url(#clip0_305_5336)">
<path d="M43.0809 89.1731C43.2519 89.1714 43.3178 89.2138 43.0809 89.1731V89.1731Z" fill="#FF7080"/>
<path d="M79.6705 30.3043C79.7173 30.3123 79.746 30.2858 79.7928 30.2938C79.8812 30.3405 79.9696 30.3871 80.058 30.4338L79.6705 30.3043Z" fill="#FF7080"/>
<path d="M100.257 27.9208C100.309 27.8988 100.333 27.9029 100.38 27.911C100.375 27.9412 100.394 27.9754 100.257 27.9208Z" fill="#FF7080"/>
<path d="M32.7692 41.5157C32.6077 41.6139 32.5088 41.6284 32.4333 41.647C32.5141 41.5978 32.6182 41.5527 32.7692 41.5157Z" fill="#FF7080"/>
<path d="M80.5248 91.823C80.5248 91.823 80.4779 91.8149 80.431 91.8069C80.5066 91.7885 80.5769 91.8006 80.6525 91.7822L80.5248 91.823Z" fill="#FF7080"/>
<path d="M80.1152 91.6895C79.6493 91.7356 80.2399 91.8054 80.4324 91.807C79.9145 91.8756 79.4071 91.883 78.9155 91.7986C78.9312 91.7068 79.8834 91.7758 80.1152 91.6895Z" fill="#FF7080"/>
<path d="M148.909 87.037L148.693 87.0312C148.792 87.0169 148.838 87.0249 148.909 87.037Z" fill="#FF7080"/>
<path d="M33.7036 35.7905C33.5995 35.8356 33.4719 35.8767 33.3964 35.8953C33.5526 35.8276 33.6281 35.8091 33.7036 35.7905Z" fill="#FF7080"/>
<path d="M138.149 89.4075L138.029 89.2609C138.117 89.3077 138.159 89.3463 138.149 89.4075Z" fill="#FF7080"/>
<path d="M80.0629 30.4027L80.2224 30.4619C80.1518 30.4498 80.1047 30.4417 80.0629 30.4027Z" fill="#FF7080"/>
<path d="M119.247 27.4033C119.257 27.3421 119.309 27.3196 119.367 27.2665C119.391 27.2705 119.414 27.2746 119.414 27.2746L119.247 27.4033Z" fill="#FF7080"/>
<path d="M208.181 52.9908C208.157 52.9867 208.134 52.9827 208.116 52.9481L208.059 52.4345C208.134 52.6993 208.178 52.8644 208.181 52.9908Z" fill="#FF7080"/>
<path d="M145.207 28.3655C145.225 28.4001 145.295 28.4121 145.29 28.4427C144.835 28.4276 143.673 28.3225 142.178 28.1918L142.116 27.9924L143.647 28.1922C144.201 28.1929 144.692 28.2772 145.207 28.3655Z" fill="#FF7080"/>
<path d="M174.075 28.5051L171.268 28.3065C173.44 28.8367 175.337 29.2882 177.052 29.677C178.762 30.0963 180.332 30.4916 181.831 30.8748C183.353 31.2621 184.835 31.6107 186.394 32.0671C187.953 32.5235 189.595 33.0571 191.41 33.8409C191.28 33.7557 191.151 33.6704 191.016 33.6158C191.291 33.6945 191.509 33.8264 191.909 34.0209C192.286 34.2115 192.816 34.4912 193.681 34.9229C194.545 35.3546 195.756 35.8771 197.457 36.7671C197.875 36.9962 198.34 37.2334 198.823 37.5052C199.301 37.8075 199.831 38.0873 200.369 38.4628C200.652 38.6373 200.929 38.8423 201.213 39.0168C201.49 39.2218 201.792 39.4309 202.111 39.6745C202.412 39.8836 202.726 40.1578 203.046 40.4015C203.365 40.6451 203.702 40.9233 204.011 41.2281L204.04 41.2016C204.201 41.3865 204.279 41.4943 204.398 41.6407C204.517 41.7871 204.707 41.9455 205.052 42.3195C204.743 42.0147 204.452 41.7445 204.138 41.4702C203.824 41.196 203.533 40.9258 203.214 40.6822C203.481 40.9484 203.697 41.2371 203.935 41.5298C204.174 41.8226 204.389 42.1113 204.623 42.4347C204.856 42.758 205.084 43.1119 205.365 43.4432C205.616 43.8011 205.881 44.2242 206.169 44.6513C206.449 44.9826 206.579 45.0679 206.654 45.0493C207.585 46.4995 208.344 48.109 209.017 49.7982C209.271 50.2824 209.554 50.7401 209.779 51.2508C209.97 52.1019 209.918 52.4076 210.005 53.0206C210.041 53.6561 210.296 54.5498 210.742 56.861C210.238 55.1693 210.835 59.2688 210.591 58.7234C210.648 58.9535 210.723 59.5013 210.795 59.9228C210.787 61.3693 210.688 63.4924 210.246 65.3678C210.162 65.8569 210.013 66.3035 209.892 66.7234C209.832 66.9334 209.772 67.1434 209.712 67.3534C209.652 67.5634 209.597 67.7428 209.519 67.9182C209.253 68.6279 209.018 69.1541 208.867 69.4743C208.867 69.4743 209.057 68.7832 209.363 67.7027C209.481 67.1564 209.615 66.5184 209.735 65.8152C209.77 65.4749 209.809 65.104 209.877 64.7066C209.917 64.3357 209.985 63.9383 209.978 63.5594C209.994 63.1845 210.016 62.779 210.014 62.3695C210.035 61.9641 210.005 61.5811 209.974 61.1982C209.965 60.4098 209.852 59.6665 209.775 58.9924C209.739 58.64 209.674 58.3142 209.605 58.019C209.535 57.7238 209.489 57.4326 209.437 57.1719C209.334 56.6507 209.192 56.2171 209.08 55.8833C209.171 56.3394 209.235 56.6652 209.281 56.9564C209.328 57.2476 209.343 57.4391 209.345 57.5654C209.374 57.822 209.35 57.818 209.33 57.6571C209.286 57.4922 209.258 57.2356 209.188 56.9403C209.118 56.6451 209.043 56.3805 208.976 56.2116L209 55.9324C208.897 55.4111 208.772 55.0121 208.679 54.7129C208.586 54.4137 208.501 54.2102 208.41 54.0372C208.257 53.6648 208.096 53.4798 207.941 52.9811C207.965 52.9851 207.988 52.9891 208.006 53.0237L208.032 53.154C208.092 53.2272 208.102 53.1661 208.076 53.0358C208.123 53.0438 208.121 52.9175 207.947 52.3842L207.95 52.5105C207.919 52.4107 207.893 52.2804 207.838 52.1767C207.784 52.0729 207.758 51.9426 207.709 51.8082C207.611 51.5396 207.507 51.3015 207.409 51.0328C207.36 50.8985 207.31 50.7642 207.256 50.6604C207.202 50.5566 207.152 50.4223 207.098 50.3185C206.989 50.111 206.904 49.9075 206.831 49.7692L206.693 49.8714C206.621 49.4499 206.258 48.7581 205.74 47.8509C205.452 47.4238 205.169 46.9661 204.817 46.4964C204.638 46.2769 204.458 46.0573 204.256 45.8337C204.155 45.7219 204.077 45.6142 203.976 45.5024C203.875 45.3906 203.773 45.2788 203.667 45.1976C203.465 44.974 203.257 44.781 203.055 44.5574C202.852 44.3339 202.639 44.1714 202.432 43.9784C202.224 43.7854 202.016 43.5924 201.827 43.434C201.614 43.2716 201.424 43.1131 201.235 42.9547C200.856 42.6379 200.49 42.3862 200.189 42.1771C199.887 41.9681 199.633 41.767 199.462 41.6432C197.971 40.7894 196.289 39.3676 194.309 38.5558C192.769 37.8508 192.348 37.7785 192.132 37.773C191.916 37.7674 191.877 37.8551 191.069 37.6535C189.058 37.025 191.54 37.5769 190.752 37.2529C190.337 37.1501 189.944 37.0513 189.529 36.9484C189.113 36.8456 188.715 36.7774 188.3 36.6745C189.684 37.164 188.889 37.0275 188.626 37.0139C186.551 36.3429 183.154 35.7914 182.573 35.251C179.659 34.688 179.628 34.8715 178.381 34.563C178.807 34.6047 179.649 34.7492 179.665 34.6575C178.48 34.5485 179.119 34.4694 179.61 34.5537C179.182 34.3857 178.392 34.2186 177.438 34.0235C176.97 33.9432 176.437 33.8203 175.923 33.732C175.385 33.6397 174.842 33.5779 174.304 33.4856C172.17 33.1508 170.2 32.8442 170.055 32.5675L170.039 32.6592C169.7 32.2547 170.407 32.0614 169.209 31.604L168.352 31.5512C167.941 31.4178 167.531 31.2844 167.143 31.155C166.286 31.1022 166.691 31.2662 166.686 31.2968C165.696 31.0324 164.461 30.7891 163.198 30.5723C162.567 30.4639 161.912 30.3515 161.252 30.2697C160.924 30.2135 160.597 30.1573 160.293 30.1051C159.965 30.0489 159.656 30.0273 159.352 29.9751C160.275 29.7874 161.183 29.6913 162.124 29.5381C161.604 29.4804 160.962 29.4332 160.297 29.3819C159.631 29.3306 158.937 29.3059 158.301 29.2281C157.04 29.1376 155.982 28.9876 155.798 28.7986L154.506 28.8915C153.427 28.8638 152.715 28.8045 152.219 28.7507C151.722 28.697 151.447 28.6183 151.247 28.521C150.841 28.357 150.774 28.1881 149.911 28.1659L147.756 28.2366L149.853 28.5022C147.73 28.3895 146.885 28.4018 145.177 28.392L145.154 28.3879C145.276 28.3774 145.346 28.3895 145.375 28.3629L145.094 28.3148C144.988 28.2335 144.653 28.0816 144.161 27.9973C143.67 27.913 143.039 27.8046 142.303 27.7413C141.258 27.6564 140.318 27.5264 139.231 27.4029C138.688 27.3411 138.093 27.3019 137.427 27.2507C137.095 27.225 136.733 27.226 136.372 27.2269C135.987 27.2238 135.597 27.2513 135.166 27.2402L134.366 26.8511L131.808 26.8841L131.784 27.1633C133.021 27.2498 134.807 27.3674 136.681 27.5317C138.55 27.7265 140.512 27.9374 142.095 28.1147L142.144 28.249C140.252 28.0501 138.136 27.75 136.881 27.629C136.257 27.6163 134.681 27.818 135.794 28.0718L134.65 27.7182C131.487 27.49 129.917 27.3779 128.29 27.319C126.658 27.2906 124.991 27.3193 121.688 27.3502L122.262 27.2285C121.62 27.1813 120.96 27.0995 120.435 27.0723C119.905 27.0757 119.468 27.0951 119.278 27.2199C117.302 27.227 115.27 27.2873 113.406 27.345C112.485 27.3759 111.601 27.476 110.769 27.5535C109.961 27.635 109.199 27.7246 108.554 27.8342L108.006 27.5198C107.156 27.5628 105.889 28.0692 105.508 27.6261C104.913 27.5869 104.318 27.5477 103.717 27.539C102.571 27.6255 101.874 27.4745 100.551 27.7509C100.475 27.7694 100.376 27.7839 100.301 27.8025L100.306 27.7719C97.7064 28.0495 100.33 27.4927 97.3584 27.8324C96.8773 27.9702 96.6253 27.8954 96.2849 27.7741C95.9627 27.6873 95.5704 27.5885 94.8554 27.6861L93.3805 28.2827C92.0622 28.5285 91.2875 28.5529 90.3725 28.5532C89.4575 28.5536 88.384 28.4952 86.4886 28.7364C84.6424 29.1119 83.7656 29.5909 84.9819 29.7996C83.3108 29.5758 84.2205 29.606 82.0187 29.6687C81.6674 29.8917 81.9065 29.9013 82.3977 29.9856C80.4422 30.4368 81.1734 29.9643 79.6914 30.182C79.2551 29.9183 78.7515 29.4856 78.2627 29.5276L78.8245 29.3408C77.2517 29.3856 75.5358 29.5632 73.7025 30.0038L73.775 30.1422C73.1355 30.2213 72.4777 30.2657 71.8381 30.3448L71.726 30.5773L68.9543 31.0143L69.3366 30.8911C68.697 30.9702 66.5467 31.2935 65.3349 31.6205L65.3893 31.7243C64.9602 31.8395 64.5311 31.9547 64.1306 32.0433C63.7249 32.1625 63.3011 32.2471 62.9006 32.3358C62.0997 32.513 61.2807 32.6557 60.4616 32.7984C59.6426 32.941 58.8054 33.0491 57.9109 33.2103C57.0217 33.341 56.0804 33.4941 55.0767 33.731L55.6093 33.8539C54.262 34.4095 55.1964 33.5942 53.597 34.075L53.5445 34.3808C52.0811 34.3499 51.6955 34.9132 50.7357 35.3149L51.1575 34.8208C50.549 34.9996 49.917 35.1744 49.3032 35.3838C47.2824 36.0756 48.1062 36.1855 48.4232 36.3028C47.9578 36.3488 47.4743 36.3603 47.0089 36.4063L46.7717 36.8062C45.7269 36.7213 45.7703 37.1694 43.9814 37.4918C43.8564 37.6591 44.3036 37.5786 43.7079 37.8225L42.244 38.0748C41.75 38.1474 41.2508 38.2505 40.7749 38.3577C41.3548 38.2055 41.9529 38.0878 42.5509 37.9701L42.2812 37.5776C41.3452 37.7002 40.7262 37.9402 40.1825 38.1616C39.6337 38.4136 39.1602 38.6471 38.5048 38.8178L39.428 38.6301C38.3617 38.9506 37.8128 39.2026 37.3861 39.4441C36.9646 39.655 36.6368 39.882 36.0592 40.1606C36.4105 39.9376 36.957 39.5593 36.0883 39.8508C35.4693 40.0908 35.7733 40.143 35.2139 40.4561C35.1127 40.3443 34.6941 40.3984 34.109 40.5812C33.5472 40.768 32.8241 41.053 32.1736 41.4764C32.1917 41.511 32.2332 41.5496 32.332 41.5351C31.9731 41.6623 31.7807 41.6608 31.2109 42.0351L31.6395 42.2031L30.42 42.4344C30.0453 42.6533 29.5953 42.8908 29.2311 43.0486C28.8617 43.237 28.6249 43.3537 28.708 43.4309L29.1476 43.2546C28.2135 43.7867 27.2561 44.3147 26.3583 44.916L24.9818 45.7813C24.5213 46.0799 24.0788 46.4131 23.6416 46.7158L23.6593 47.0335C23.3448 47.0425 22.6031 47.5761 21.9655 48.0647C21.346 48.5878 20.8176 49.0007 20.8181 48.7175C20.5837 48.9605 20.2401 49.2792 19.8263 49.5859C19.4359 49.8965 19.0116 50.2643 18.6159 50.6056C17.8532 51.2615 17.3092 51.7661 17.6991 51.7386C16.0903 53.2564 14.794 54.3558 13.5025 55.7078C13.1823 56.0305 12.8334 56.3797 12.5079 56.733C12.1824 57.0863 11.8517 57.4701 11.5157 57.8846C10.8671 58.7174 10.1741 59.6686 9.56664 60.8232C9.235 61.7734 8.54115 63.2909 8.21866 65.0295C7.87279 66.7641 7.90594 68.8155 8.26742 70.3568C8.37538 71.1307 8.58738 71.8595 8.78124 72.5537C9.00374 73.2213 9.24962 73.893 9.53464 74.4769C9.6072 74.6153 9.67452 74.7842 9.74709 74.9225C9.81966 75.0609 9.89222 75.1992 9.98818 75.3416C10.0607 75.4799 10.1333 75.6183 10.2293 75.7606L10.4756 76.1491C10.7945 76.676 11.1707 77.1497 11.5416 77.654C12.3173 78.6054 13.2076 79.4506 14.2253 80.2547C15.243 81.0589 16.3934 81.7913 17.7467 82.4642C19.4694 82.9487 21.5606 83.8112 23.7845 84.6021C25.9745 85.4501 28.2322 86.1838 30.2021 86.4904C30.532 86.6729 30.8671 86.8248 31.1969 87.0073C33.8298 87.2389 37.7062 88.5022 41.4674 88.6128C42.3405 88.857 42.8316 88.9413 43.0369 89.008C42.8679 89.0105 42.6001 89.0275 42.5037 89.1683C43.5825 89.1961 45.677 89.6185 45.571 89.2541L45.3189 89.1794C45.2129 88.815 48.5051 89.6948 49.7193 89.4941L49.0196 89.7831L51.0444 89.9103L50.5117 89.7874C54.8334 90.5607 58.0462 90.64 61.1888 90.7073C64.3315 90.7746 67.4092 90.7993 71.5337 91.3183C70.4764 90.8851 73.1475 91.5953 73.2964 91.1488C75.4443 90.6992 77.1536 91.4017 78.8767 91.603C78.8715 91.6336 78.8949 91.6376 78.9832 91.6842L81.9855 91.7274C80.2318 91.1432 84.111 92.2496 82.4924 91.72C90.3456 91.5572 100.532 92.1096 109.608 91.5586L109.197 91.7084C110.338 91.6525 111.643 91.6247 112.854 91.5809C114.071 91.5064 115.241 91.424 116.112 91.2587C116.983 91.0935 117.94 91.1318 118.751 91.1766C119.561 91.2213 120.245 91.3072 120.583 91.3022C122.496 91.3788 124.239 90.7652 123.43 90.8467C124.449 90.8013 125.434 90.8131 126.547 90.7837C127.101 90.7843 127.66 90.7544 128.27 90.7019C128.881 90.6494 129.544 90.5743 130.247 90.4116C130.73 90.117 132.662 89.9449 134.495 89.7874C136.333 89.5994 138.031 89.3872 138.078 89.112L138.12 89.1506C139.03 88.8977 139.924 88.7365 140.801 88.5407C141.7 88.3489 142.59 88.2183 143.484 88.0571C144.379 87.8959 145.291 87.7693 146.22 87.5509C147.148 87.3326 148.081 87.0837 149.054 86.7471C149.054 86.7471 148.984 86.7351 148.844 86.711L150.858 86.6161C151.534 86.6063 152.203 86.5006 152.884 86.4602L156.921 86.0831L154.833 88.4313C153.701 88.9924 152.569 89.5535 151.414 90.1106L147.97 91.6597C141.638 93.0592 135.299 94.0799 128.966 94.7868C126.449 95.1416 123.922 95.5576 121.392 95.8473C120.136 96.0094 118.857 96.1676 117.606 96.2991L113.813 96.6552C107.67 96.9542 101.564 97.0391 95.4553 96.9978C89.3467 96.9565 83.2929 96.7357 77.2157 96.5109L74.6482 96.0388C67.5272 96.7049 58.4152 95.6446 50.6431 95.4751L50.5318 95.1413C48.3538 94.9248 48.4861 95.1363 47.9324 95.1357C42.8928 94.617 37.7965 93.8681 32.7865 92.7564C30.2815 92.2006 27.7922 91.5531 25.3421 90.8178C24.7263 90.6177 24.1053 90.4482 23.513 90.2521C22.8972 90.052 22.3101 89.8253 21.6943 89.6252C20.4862 89.229 19.2652 88.7677 18.0781 88.2492C15.6752 87.2388 13.2961 85.9492 11.0998 84.1559C10.0043 83.244 8.9765 82.2179 8.04514 81.0509C7.09564 79.8493 6.29457 78.4844 5.63143 77.0172C4.96829 75.5501 4.44833 73.9501 4.11308 72.256C3.77783 70.5619 3.62729 68.7736 3.74977 66.9377C3.84362 65.1284 4.21573 63.2409 4.81888 61.5505C5.39864 59.8561 6.18605 58.3546 7.02264 56.9875C7.6015 55.8594 9.01606 53.9306 10.4483 52.3195C11.1618 51.5293 11.8753 50.739 12.4743 50.055C13.0914 49.4056 13.5887 48.8929 13.8621 48.5622C14.2005 48.2741 14.5389 47.986 14.8592 47.6633C15.1976 47.3751 15.5541 47.1216 15.8925 46.8335C16.2308 46.5453 16.5926 46.2612 16.9258 46.0037C17.2875 45.7196 17.6025 45.4274 17.9824 45.1779C18.7008 44.6403 19.4138 44.1332 20.1321 43.5956C20.4939 43.3115 20.8452 43.0885 21.2251 42.839L22.3128 42.113C22.6693 41.8594 23.0259 41.6059 23.4005 41.3869L24.5011 40.7261C25.2271 40.2842 25.9583 39.8117 26.7024 39.4044C27.4465 38.997 28.1672 38.5857 28.9113 38.1784C29.6501 37.8016 30.3889 37.4249 31.1225 37.0787L30.891 37.1648C31.8146 36.6939 32.7406 36.3493 33.677 35.9435C33.7863 35.8678 33.7968 35.8067 33.698 35.8212C34.1089 35.6714 34.5199 35.5216 34.9595 35.3453C35.3991 35.169 35.8854 35.0007 36.3718 34.8324C36.8634 34.6335 37.355 34.4346 37.87 34.2397C38.385 34.0449 38.9 33.85 39.4437 33.6286C39.9821 33.4378 40.5023 33.2123 41.0407 33.0215C41.5791 32.8306 42.1175 32.6398 42.6325 32.4449C43.6911 32.0286 44.734 31.7041 45.7015 31.398L45.4805 31.423C46.9057 30.9752 48.3152 30.6192 49.7299 30.2325C51.1394 29.8765 52.5488 29.5204 53.9297 29.1909C54.6318 29.0282 55.3339 28.8654 56.0074 28.7292C56.7042 28.597 57.4064 28.4343 58.0798 28.2981C59.4736 28.0337 60.8491 27.7348 62.2195 27.4664C62.9163 27.3343 63.5951 27.1675 64.2867 27.0659C64.9783 26.9643 65.6518 26.8281 66.3434 26.7265C67.7085 26.4887 69.097 26.2549 70.4621 26.0171C71.1537 25.9155 71.8272 25.7793 72.5188 25.6777L74.565 25.3995C75.9248 25.1923 77.3028 25.0196 78.6627 24.8124C89.5983 23.3847 100.476 22.5765 111.716 22.1768C113.037 22.0573 114.36 22.0641 115.717 22.0137C117.069 21.9939 118.444 21.9782 119.843 21.9664C120.181 21.9615 120.542 21.9606 120.903 21.9596C121.265 21.9587 121.597 21.9843 121.959 21.9834C122.653 22.0081 123.37 22.0368 124.087 22.0655C125.522 22.123 126.957 22.1804 128.41 22.2724C131.311 22.487 134.263 22.6791 137.211 22.9017C138.682 23.0283 140.171 23.1895 141.671 23.2895L143.906 23.4529C144.642 23.5162 145.406 23.5529 146.141 23.6162C146.695 23.6168 148.592 23.7851 151.186 24.1044C151.823 24.1822 152.53 24.2721 153.237 24.3619C153.962 24.4864 154.692 24.5802 155.464 24.7127C157.008 24.9777 158.627 25.2241 160.24 25.5011C161.059 25.6416 161.854 25.7781 162.644 25.9451C163.434 26.1122 164.224 26.2793 164.973 26.4077C166.482 26.7298 167.927 27.0093 169.203 27.2912C171.726 27.8816 173.571 28.3556 174.075 28.5051Z" fill="#FF7080"/>
<path d="M206.712 44.9962L206.657 44.8923C206.743 44.8127 206.811 44.9818 206.712 44.9962Z" fill="#FF7080"/>
<path d="M159.329 29.971C159.376 29.979 159.423 29.987 159.493 29.9991L158.871 30.1128L159.329 29.971Z" fill="#FF7080"/>
<path d="M189.93 37.4265C188.58 37.0059 188.538 36.9673 188.731 36.9688C189.235 37.1184 189.641 37.2825 189.93 37.4265Z" fill="#FF7080"/>
<path d="M210.98 59.8287C211.008 60.3685 210.976 60.552 210.963 60.4868C210.945 60.4522 210.917 60.1956 210.852 59.8698C210.825 59.33 210.833 58.8594 210.815 58.5416C210.818 58.3847 210.792 58.2544 210.785 58.1587C210.777 58.0629 210.782 58.0324 210.782 58.0324C210.829 58.3236 210.852 58.6108 210.898 58.902C210.916 59.2197 210.957 59.5415 210.98 59.8287Z" fill="#FF7080"/>
<path d="M209.086 56.1359L209.052 56.4765C208.981 55.8975 209.005 55.9016 209.086 56.1359Z" fill="#FF7080"/>
</g>
<defs>
<clipPath id="clip0_305_5336">
<rect width="203.444" height="88.0016" fill="white" transform="matrix(0.985588 0.169162 0.169162 -0.985588 0.138245 87.2788)"/>
</clipPath>
</defs>
</svg>
