<svg width="395" height="267" viewBox="0 0 395 267" fill="none" xmlns="http://www.w3.org/2000/svg">
<g clip-path="url(#clip0_9_558)">
<path d="M282.885 171.267C282.968 171.249 283.05 171.231 283.188 171.193C283.077 171.234 282.968 171.249 282.885 171.267Z" fill="#FF7800"/>
<path d="M287.091 182.889L287.217 182.715C287.205 182.821 287.147 182.868 287.091 182.889Z" fill="#FF7800"/>
<path d="M281.263 163.995C281.233 164.018 281.207 164.016 281.18 164.013C281.165 163.904 281.13 163.739 281.076 163.493C281.165 163.663 281.227 163.83 281.263 163.995Z" fill="#FF7800"/>
<path d="M297.595 206.093L297.53 205.952C297.577 206.01 297.604 206.013 297.595 206.093Z" fill="#FF7800"/>
<path d="M290.6 192.776C290.483 192.87 290.474 192.949 290.465 193.029C290.418 192.97 290.403 192.861 290.6 192.776Z" fill="#FF7800"/>
<path d="M274.206 160.392L274.666 160.602C274.48 160.582 274.274 160.506 274.206 160.392Z" fill="#FF7800"/>
<path d="M275.973 152.496C275.999 152.499 276.026 152.502 276.08 152.508C276.023 152.529 275.999 152.499 275.973 152.496Z" fill="#FF7800"/>
<path d="M277.813 155.534C277.778 155.611 277.69 155.681 277.602 155.752C277.614 155.646 277.625 155.54 277.813 155.534Z" fill="#FF7800"/>
<path d="M277.485 155.847C277.514 155.823 277.574 155.775 277.603 155.751C277.598 155.805 277.565 155.855 277.485 155.847Z" fill="#FF7800"/>
<path d="M370.429 256.536C370.637 256.585 370.73 256.97 370.854 257.305L370.429 256.536Z" fill="#FF7800"/>
<path d="M310.035 224.284L310.159 224.137C310.123 224.213 310.091 224.263 310.035 224.284Z" fill="#FF7800"/>
<path d="M369.628 260.466L369.795 260.403C369.734 260.477 369.681 260.471 369.628 260.466Z" fill="#FF7800"/>
<path d="M273.236 164.651C272.804 164.926 273.376 165.336 272.944 165.369C272.996 165.134 272.627 164.826 273.236 164.651Z" fill="#FF7800"/>
<path d="M301.461 239.877L301.553 240.021C301.506 239.962 301.456 239.93 301.461 239.877Z" fill="#FF7800"/>
<path d="M369.628 260.466L369.434 260.525C369.469 260.448 369.501 260.398 369.536 260.322C369.554 260.404 369.604 260.436 369.628 260.466Z" fill="#FF7800"/>
<path d="M328.011 238.122C328.014 238.095 327.99 238.065 327.996 238.011L328.011 238.122Z" fill="#FF7800"/>
<path d="M329.437 238.062C329.392 237.977 329.348 237.892 329.277 237.804C329.407 237.844 329.448 237.956 329.437 238.062Z" fill="#FF7800"/>
<path d="M370.857 257.278L371.105 257.707C370.979 257.64 370.916 257.472 370.857 257.278Z" fill="#FF7800"/>
<path d="M341.372 244.363C341.348 244.333 341.297 244.3 341.273 244.271C341.327 244.276 341.351 244.306 341.372 244.363Z" fill="#FF7800"/>
<path d="M290.048 191.939C289.995 191.933 289.974 191.878 289.921 191.872C290.033 191.83 290.089 191.81 290.048 191.939Z" fill="#FF7800"/>
<path d="M282.475 204.722C282.649 204.848 282.423 205.198 282.18 205.466C282.091 205.296 282.114 205.084 282.475 204.722Z" fill="#FF7800"/>
<path d="M278.072 196.158C278.072 196.158 278.102 196.134 278.128 196.137C278.102 196.134 278.102 196.134 278.072 196.158Z" fill="#FF7800"/>
<path d="M278.696 198.314C278.801 198.326 278.878 198.361 278.928 198.393C278.849 198.384 278.772 198.349 278.696 198.314Z" fill="#FF7800"/>
<path d="M292.874 232.6C292.254 231.649 291.718 230.413 291.124 229.224C290.811 228.654 290.527 228.061 290.237 227.521C289.921 226.978 289.599 226.488 289.215 226.072C289.716 225.162 289.379 224.563 289.162 223.843L288.079 224.449L288.103 223.728C287.647 223.733 288.155 224.243 287.525 224.121L288.047 223.508C287.65 223.706 286.988 222.403 286.768 223.691C286.354 223.057 285.973 222.373 285.56 221.739C285.256 221.331 286.287 220.961 285.733 220.633C285.374 220.728 285.619 220.942 285.226 221.114C284.395 220.622 284.69 219.877 285.008 219.162C285.327 218.447 285.728 217.714 285.118 217.166L285.042 217.372C285.191 216.986 284.913 216.581 285.083 216.492C286.279 216.086 284.62 217.058 285.497 217.126C286.413 216.583 285.715 216.347 286.423 215.995C285.929 215.861 286.354 215.398 286.279 215.096C285.467 214.927 285.535 214.051 284.597 214.056C284.773 213.674 285.547 212.954 285.36 212.452C284.449 212.46 284.697 212.889 284.199 212.541L284.719 212.195C284.435 211.843 284.315 211.964 284.057 212.123C283.835 211.698 284.643 211.41 284.039 211.05L283.658 211.598C283.686 211.092 283.51 210.993 283.193 210.45C282.882 210.604 283.018 210.833 283.168 210.929C282.195 211.011 283.269 210.244 283.122 210.121C283.395 210.07 283.655 210.393 284.13 209.962C283.915 209.725 284.633 209.026 283.872 209.131L283.465 209.676C283.627 208.917 284.013 209.066 283.512 208.503C283.479 208.553 283.341 208.591 283.227 208.659C283.763 207.914 282.85 207.681 282.54 207.085L282.441 207.262C282.531 206.924 282.971 206.57 282.877 206.452C283.336 206.663 283.462 206.489 284.017 206.308C282.899 206.241 284.785 205.16 283.93 204.639C283.619 204.792 283.288 205.131 283.738 205.18C282.89 205.838 282.099 206.208 281.842 206.849C281.938 206.458 281.928 206.055 281.553 206.309L282.407 205.839C282.348 205.645 282.253 205.528 282.185 205.414C282.729 205.098 283.259 205.396 283.454 204.828C283.544 204.249 282.449 204.96 282.822 204.733C282.905 203.965 283.667 204.101 283.13 203.615C283.066 203.715 282.966 203.891 283.072 203.903C282.542 203.605 282.819 202.778 281.691 203.057C281.485 203.222 281.15 203.347 281.324 203.473L281.492 203.41C280.897 204.203 281.543 202.934 280.63 203.451C281.215 203.246 280.846 202.698 280.63 202.46L281.318 202.294C282.946 200.622 280.026 202.85 279.923 201.821C280.138 201.068 280.2 201.985 280.528 201.431C280.271 201.082 279.621 201.146 279.696 200.458C279.381 200.397 278.895 200.183 278.146 200.423C278.33 199.961 277.419 199.461 278.086 198.998C278.928 199.384 277.509 199.872 278.754 200.248L279.42 199.785C279.204 199.306 279.337 198.571 278.963 198.316C279.122 198.333 279.34 198.303 279.457 198.209C279.517 197.412 280.18 196.975 279.734 196.391C279.023 196.529 279.28 196.878 279.328 197.178C278.633 196.915 279.135 196.728 278.692 196.118C278.087 196.267 278.885 196.567 278.321 196.827L278.248 196.016C278.219 196.04 278.166 196.034 278.136 196.058C279.094 195.626 277.847 195.517 278.016 194.947C277.68 193.839 278.946 193.28 279.571 192.464C279.259 192.377 278.988 192.401 278.759 192.537C279.28 192.674 278.927 192.716 278.692 192.905C278.683 192.502 277.491 192.373 277.133 192.709C277.261 192.026 277.716 192.772 277.926 192.313L277.636 191.531C278.177 191.483 278.363 191.744 278.635 191.211C278.678 190.814 278.53 190.691 278.365 190.245C278.136 190.381 277.553 190.317 277.678 190.652C277.427 190.491 277.306 190.13 277.761 189.885C278.362 190.271 277.97 188.943 278.864 189.094L278.263 188.707C278.305 188.819 277.973 188.917 278.117 189.066C277.306 189.139 278.222 188.596 278.268 188.413C278.068 188.285 277.876 187.835 277.576 187.883C277.76 187.662 277.474 187.337 277.071 187.346C277.156 187.061 277.568 187.213 277.797 187.077C277.69 186.824 277.613 186.548 277.533 186.299C277.098 186.359 275.869 186.574 275.743 186.747C276.081 186.355 276.995 186.321 276.829 185.874C276.057 186.326 276.048 185.415 275.124 186.037C274.441 185.91 274.283 185.143 274.414 184.675C275.022 184.259 274.909 185.05 275.573 184.854C275.547 183.62 277.422 183.127 276.916 182.349L277.164 182.536C277.445 181.924 277.357 181.995 277.885 181.57C277.074 181.884 275.461 181.441 275.482 180.506C275.902 180.338 276.383 180.845 277.029 180.567L277.042 179.953C276.966 179.917 276.848 180.012 276.731 180.106C276.926 179.538 275.42 179.348 276.396 178.999L275.036 178.691L275.613 178.807C276.03 178.665 276.043 178.05 276.193 177.906C276.561 177.223 276.149 177.071 275.56 176.82C275.931 176.86 276.775 176.978 276.827 176.502C275.436 176.726 276.148 175.598 275.437 175.735C275.43 175.547 274.926 175.251 275.5 175.153L274.65 175.328C275.855 175.084 275.689 174.397 275.828 173.849C274.209 174.21 275.868 173.238 274.344 173.207C275.444 172.951 274.642 172.194 275.603 171.977C275.596 171.548 274.558 171.73 274.19 171.664L274.592 171.413C274.045 171.273 273.861 170.503 273.453 170.057L274.396 169.517L273.925 169.412C274.178 169.306 274.271 168.941 274.68 169.119L274.597 168.896C275.682 168.773 274.849 168.548 275.28 168.033C275.103 167.933 274.83 167.984 274.71 168.105C274.683 167.861 274.13 168.015 273.762 167.949C274.069 168.089 275.615 166.918 276.167 167.513C276.623 167.509 276.907 167.111 276.686 166.926L275.7 166.873L276.705 166.5C276.825 166.138 276.192 166.043 276.036 165.758C276.004 166.049 274.232 166.58 274.183 165.798C274.084 166.216 273.576 166.456 273.388 166.703C273.326 166.536 273.226 166.471 272.847 166.752C273.104 166.11 273.438 166.494 273.504 165.885C272.636 165.979 272.33 165.839 272.008 165.348L272.694 165.691C272.803 165.676 272.862 165.628 272.918 165.608C273.036 165.754 273.168 165.769 273.515 165.78C273.5 165.671 274.537 165.007 274.007 164.949C275.426 165.451 274.96 163.821 275.834 164.156C276.084 164.076 276.103 163.65 275.677 163.631C275.055 164.179 274.664 163.333 274.062 163.456C274.296 163.267 274.748 163.798 275.044 163.535C275.076 163.244 274.534 163.051 274.254 162.914L274.105 163.059L273.698 162.613C274.139 162.5 274.458 163.016 274.665 162.584C274.488 162.484 274.67 162.049 274.317 162.091C273.729 162.322 272.935 162.236 272.789 162.595C272.823 162.277 272.874 161.318 273.719 161.678C273.704 161.569 273.691 161.434 273.676 161.325C274.056 161.527 274.77 162.113 274.847 161.398L274.685 161.408L275.331 160.888L274.869 160.704C275.083 160.701 275.28 160.615 275.274 160.427C275.009 160.398 274.894 160.225 274.544 160.241C274.575 159.709 275.001 159.728 275.251 159.648C275.309 159.36 275.109 159.231 274.609 159.391C274.467 158.974 274.571 158.262 274.091 157.996C274.472 157.448 274.268 158.095 274.867 157.759C273.333 157.325 274.232 155.949 274.436 155.061C275.777 155.287 274.597 154.811 275.793 154.646C275.37 154.841 274.759 153.811 274.381 154.573L274.512 154.105C273.77 153.784 273.971 154.903 272.955 154.392C272.988 153.833 274.47 153.511 273.977 152.869C273.018 153.06 274.296 152.395 273.264 152.524C272.929 152.648 273.018 152.819 272.945 152.998L272.771 152.872C272.526 151.667 273.905 152.54 274.559 151.941C274.69 151.232 273.82 151.352 273.37 151.304C273.196 151.178 273.342 150.819 273.603 150.633C273.022 151.052 274.182 151.472 274.793 151.27C273.73 150.941 274.722 150.192 275.169 150.026C276.286 151.084 275.2 150.725 276.406 151.713C276.071 151.837 275.085 151.784 275.478 152.362C275.971 152.014 276.011 152.393 276.161 152.49C275.611 152.377 275.93 152.893 275.698 153.055C276.163 153.213 276.991 152.74 277.198 153.298L275.902 153.399C276.09 153.634 276.848 153.314 276.556 153.791C277.225 153.542 277.617 153.879 277.822 153.232C278.944 153.996 277.213 154.398 276.744 155.017C276.832 154.946 276.994 154.936 277.079 154.892C276.744 155.017 276.745 155.258 276.672 155.437C276.979 155.818 277.268 155.127 277.633 155.22C277.61 155.432 277.614 155.646 277.591 155.858C277.644 155.864 277.67 155.867 277.696 155.87C277.518 156.038 277.418 156.214 277.736 156.249C278.159 156.053 278.597 155.967 278.932 155.843L278.028 156.521C278.466 156.435 278.773 157.057 279.092 156.583L278.933 157.557L279.81 157.625C279.652 157.849 279.487 157.884 279.357 157.603C279.472 157.776 279.085 158.135 278.889 158.462C278.722 158.766 278.72 159.033 279.59 158.913C278.889 159.694 279.208 159.97 278.784 160.915C279.561 160.169 279.853 161.673 280.204 160.908C280.614 161.327 279.662 161.465 279.542 161.827C279.937 162.137 280.789 161.935 281.097 161.567L280.728 162.009L280.89 162L280.42 162.377C280.918 162.726 281.302 162.392 281.448 162.783L280.683 162.914L281.166 163.154C280.798 163.088 280.667 163.314 280.609 163.603L280.77 163.593L280.651 163.955C281.094 163.575 280.831 164.269 281.389 164.062C281.464 164.365 281.437 164.362 281.353 164.888L280.824 164.831C280.423 165.564 281.606 164.782 281.705 165.355L281.087 165.368C281.638 165.723 281.518 166.084 281.349 166.414C281.179 166.744 280.983 167.071 281.357 167.326C281.477 166.964 282.171 166.985 282.006 167.021C281.84 167.565 282.101 168.37 281.418 168.992C282.318 169.09 282.585 169.092 283.066 169.599C283.05 169.999 282.988 170.073 282.486 170.26C282.878 170.597 282.471 171.383 283.094 171.316C282.595 171.476 283.245 171.654 282.843 171.905L283.111 171.907L282.49 171.947C283.965 172.428 281.9 173.195 283.183 173.709L283.333 173.565L283.137 173.892C283.404 173.894 283.554 173.749 283.91 173.681C283.996 174.119 284.109 174.559 284.225 174.974L283.736 174.787C283.731 175.081 283.164 175.367 283.592 175.628C284.416 174.941 283.705 176.069 284.404 176.037L284.601 175.71C284.611 176.113 284.61 176.113 283.987 176.18C283.848 176.727 285.205 176.312 284.633 176.892L284.562 176.563C284.191 176.523 283.727 176.848 283.784 177.068C283.887 177.106 284.196 177.22 284.242 177.037C284.088 177.476 284.513 178.004 284.302 178.222C284.523 178.407 284.943 178.238 285.092 178.093C284.722 179.044 285.27 178.434 284.925 179.388L285.255 179.316L284.894 179.679L285.697 179.926L285.221 179.875C285.216 180.169 285.005 180.387 285.27 180.657L285.752 180.414C285.633 181.258 286.801 181.117 286.25 181.995C286.353 182.033 286.476 181.885 286.567 181.788C285.94 182.631 287.58 182.085 286.785 182.99C286.955 182.901 287.167 182.924 287.305 182.886L287.051 183.26L287.715 183.064L286.778 183.551L287.525 183.579L287.234 183.788C288.626 183.805 287.745 184.513 288.849 184.713L287.976 184.859C287.222 185.635 287.638 186.242 288.193 186.811C288.747 187.38 289.437 187.937 289.216 188.743L289.882 188.52L289.235 189.307C289.862 189.455 289.754 188.962 290.131 188.949C289.921 189.649 289.215 189.492 289.217 190.216C289.782 190.438 289.675 189.944 289.859 189.723C289.726 190.458 289.638 191.52 290.162 191.871C290.077 191.916 289.963 191.984 289.913 191.951C289.749 192.469 290.233 192.95 290.343 193.417C290.649 193.316 290.663 193.184 290.68 193.025C290.772 193.169 291.075 193.336 290.805 193.601L291.328 193.229C291.561 193.549 291.252 194.426 291.966 194.263C291.692 194.313 291.217 194.503 291.347 194.785C292.411 194.605 291.214 195.761 291.93 196.08C292.159 195.944 292.066 195.559 292.111 195.644C292.47 195.79 292.08 196.176 291.828 196.524L292.198 196.323C292.149 196.773 292.1 197.223 292.052 197.673C293.119 197.467 292.305 198.798 293.013 198.446C293.211 198.843 292.442 198.277 292.517 198.821C292.975 198.79 292.486 199.353 293.129 199.102L293.191 199.028L293.283 199.413L293.843 198.938C293.83 199.311 293.269 199.786 292.793 199.976C293.258 200.133 293.148 200.657 293.777 200.537L293.877 200.361C293.964 201.281 296.169 200.957 295.355 202.047C295.461 202.059 295.631 201.97 295.56 201.882L295.832 202.34L296.243 202.01L295.881 203.122L296.192 202.968C296.57 203.438 296.767 204.343 297.01 205.065L297.109 204.889C296.977 205.865 297.746 205.44 297.669 206.154C297.757 206.083 297.76 206.057 297.762 206.03L297.978 206.509L298.222 206.241C297.718 206.936 299.609 206.793 298.929 206.88C298.73 207.233 298.567 207.751 298.191 208.005C298.428 208.539 298.656 207.921 299.092 208.102C299.322 208.449 298.829 208.797 299.35 209.175L299.665 208.995C299.745 209.244 299.607 209.524 299.732 209.859L299.831 209.682C299.495 210.556 301.099 209.846 299.985 210.984C300.35 211.077 300.401 211.592 301.003 211.228C300.988 212.11 301.11 212.713 301.265 213.506C302.311 213.004 301.272 213.694 302.072 213.727L301.531 214.017C301.774 214.499 302.386 214.779 302.999 215.06C303.608 215.367 304.165 215.668 304.402 216.203L304.918 215.884L304.482 216.452C304.945 216.877 305.452 217.388 305.936 217.868C306.419 218.349 306.85 218.824 307.157 219.206C307.082 219.653 306.802 220.506 307.311 220.749L307.349 220.646C307.489 221.089 307.652 221.562 307.903 221.964C308.015 222.164 308.154 222.366 308.325 222.519C308.493 222.698 308.693 222.827 308.92 222.958C309.078 222.734 309.269 222.702 309.345 222.496C308.985 223.099 309.699 222.936 309.844 223.085L309.347 223.219C309.096 223.807 309.772 223.747 310.198 223.525L309.98 224.305C310.035 224.284 310.147 224.243 310.232 224.198L310.042 224.472L310.805 224.1C310.759 224.282 310.993 224.843 310.547 225.491C310.779 225.329 311.218 225.483 311.094 225.149L312.355 226.115L311.976 226.155C311.503 226.559 311.57 227.182 311.949 227.143C312.065 226.566 312.553 226.512 312.952 226.287C312.883 226.681 312.441 226.553 312.275 226.857C312.17 227.327 312.457 227.894 312.736 227.79L312.794 227.502C312.91 227.916 313.758 227.258 313.968 227.549C313.852 228.125 314.351 227.965 313.577 228.685C313.793 229.163 314.211 228.271 314.396 228.291C314.233 228.809 314.936 228.993 315.347 228.662C314.507 229.99 316.669 229.073 315.886 230.113L316.644 229.794C316.427 230.065 315.982 230.713 316.133 231.05C316.597 230.967 316.922 230.44 317.239 230.233L316.581 231.367C317.707 231.355 318.535 231.873 319.386 232.42C319.587 232.549 319.811 232.707 320.011 232.836C320.238 232.968 320.468 233.073 320.697 233.178C321.157 233.389 321.648 233.549 322.207 233.583C322.464 233.932 322.736 234.39 323.04 234.798C323.344 235.206 323.733 235.569 324.195 235.753L324.189 235.565L325.21 235.783L324.287 235.897C324.393 236.15 324.388 236.444 324.592 236.546C325.201 236.612 325.889 236.687 326.51 236.888C327.158 237.092 327.764 237.425 328.181 238.033C328.206 239.776 329.319 237.165 329.52 238.526C329.537 238.367 329.613 238.161 329.631 238.003C329.766 238.231 329.882 238.405 329.994 238.604C330.109 238.777 330.224 238.951 330.31 239.147C330.511 239.517 330.683 239.911 330.884 240.522C331.46 239.165 331.388 240.817 331.68 240.099L331.485 240.667C331.831 240.437 332.302 240.541 332.457 240.103L332.471 240.961L332.769 240.431C333.255 240.645 334.066 241.563 334.872 240.552C335.254 241.236 335.973 241.769 336.762 242.149C337.578 242.532 338.49 242.765 339.296 242.986C339.316 243.551 339.746 243.785 340.073 243.981L340.718 243.462C341.002 243.814 341.025 244.834 341.542 244.515C341.577 244.438 341.582 244.386 341.562 244.33C341.88 244.605 342.359 244.389 342.464 245.151C342.879 245.276 343.411 245.066 343.538 244.383C343.144 245.546 344.456 244.563 344.456 244.563C344.456 244.563 344.536 244.572 344.692 244.615C344.848 244.659 345.083 244.711 345.398 244.772C345.998 244.918 346.884 245.147 347.926 245.421C350.036 245.971 352.924 246.766 355.95 247.763C361.975 249.755 368.721 252.521 370.622 256.476C370.662 257.097 371.061 257.622 370.669 258.275C371.008 258.607 371.464 257.612 371.398 258.221C370.754 258.472 371.149 259.774 370.416 260.364L370.71 260.61C370.664 261.033 370.373 260.011 370.264 260.776L370.464 259.673C370.132 259.77 369.926 259.936 369.727 260.289C369.593 259.792 369.839 258.266 369.038 258.741L369.185 258.864C368.696 258.678 368.69 259.48 368.54 259.625L368.646 259.636L368.065 260.055C368.496 259.781 368.761 260.8 368.508 260.666C367.823 260.806 368.745 260.45 368.318 260.19C368.065 260.055 367.972 260.661 367.882 260.999L367.393 260.813C367.283 261.336 367.735 260.876 367.389 261.348L366.905 260.626C366.423 261.859 366.376 259.819 365.77 260.958C366.154 261.375 365.619 261.37 365.57 261.82L364.487 261.435C364.337 261.579 364.676 261.911 364.529 261.788C364.23 262.076 364.278 261.385 364.148 261.345C363.952 261.671 363.318 261.094 363.118 261.956C362.195 262.311 363.108 260.803 362.274 261.088C362.034 261.571 362.807 261.36 362.329 261.817L361.649 261.422C361.646 261.689 361.554 262.295 361.854 262.247C359.698 262.362 357.831 264.757 356.222 263.538C355.789 264.081 356.28 264 356.363 264.464C355.289 263.25 354.11 265.238 353.003 264.823L353.139 264.302C351.093 265.393 349.465 263.851 347.474 263.929L347.8 263.643C347.701 263.07 347.342 262.924 347.112 262.578C346.98 262.805 346.962 263.713 346.52 263.344C346.696 263.202 346.975 263.099 346.977 262.831C345.996 263.234 344.728 263.069 343.339 262.785C341.976 262.503 340.502 262.022 339.122 261.9C338.306 261.517 337.435 261.154 336.531 260.842C335.627 260.53 334.718 260.271 333.811 259.985C332.905 259.7 331.974 259.384 331.1 259.049C330.661 258.894 330.226 258.713 329.79 258.532C329.354 258.351 328.951 258.12 328.547 257.888C329.027 258.155 329.353 256.878 328.859 256.985C327.894 257.737 327.47 257.45 327.083 257.06C326.694 256.697 326.369 256.233 325.52 256.65C324.724 255.841 323.674 255.646 322.714 255.355C322.223 255.195 321.757 255.037 321.36 254.753C320.962 254.469 320.608 254.029 320.38 253.415L320.055 253.942C319.643 254.031 319.795 253.619 319.55 253.406L319.48 253.559C318.721 253.396 318.239 252.406 317.727 252.431L318.061 251.825C317.716 251.546 317.594 252.176 317.389 251.591L317.223 251.895L317.1 251.051C316.503 252.111 315.983 250.475 315.39 250.759C315.015 250.263 314.374 249.256 313.521 248.976C313.045 249.407 312.15 248.774 311.388 248.638C310.875 248.181 310.264 247.633 309.572 247.102C308.908 246.549 308.192 245.989 307.438 245.532L307.96 244.919L307.647 244.591C307.551 244.741 307.442 244.756 307.43 244.862C306.6 245.361 306.799 244.017 306.161 244.216C306.795 243.802 306.47 244.33 306.697 244.461C307.214 244.383 307.436 243.577 306.792 243.588L306.695 243.738L306.699 243.203C306.274 243.666 305.845 243.673 305.42 244.135C304.387 243.033 304.33 241.581 302.97 240.79C302.803 241.094 302.611 240.885 302.414 240.73C302.216 240.575 301.986 240.47 301.688 241C301.338 240.024 302.451 240.386 302.737 239.48C302.539 239.324 302.585 238.901 302.233 239.184C302.122 239.467 301.575 239.568 301.658 239.791L301.283 239.296C301.174 239.311 301.151 239.522 301.14 239.628C300.92 238.935 300.385 238.689 299.875 238.447C299.366 238.204 298.859 237.935 298.713 237.303C298.965 236.956 299.117 237.534 299.369 237.187C299.227 235.779 298.104 236.996 297.83 235.815L297.358 236.46C297.415 235.931 297.705 235.48 296.993 235.376C296.389 235.766 296.887 236.114 296.814 236.535C296.522 236.262 296.026 235.405 296.69 235.209C296.556 234.713 295.989 235 295.675 234.939C295.795 234.818 296.316 234.955 296.388 234.534C295.688 234.324 295.044 233.585 294.516 233.019C294.396 233.14 294.141 233.273 294.129 233.379C294.429 232.34 293.244 233.39 292.874 232.6Z" fill="#FF7800"/>
<path d="M277.886 195.897L278.075 196.131C277.937 196.17 277.766 196.259 277.641 196.432L277.886 195.897Z" fill="#FF7800"/>
<path d="M283.197 208.683C283.165 208.733 283.133 208.783 283.071 208.857C283.053 208.775 283.139 208.73 283.197 208.683Z" fill="#FF7800"/>
<path d="M283.504 212.278C283.536 211.987 283.792 212.095 284.001 212.144C283.886 212.212 283.719 212.274 283.504 212.278Z" fill="#FF7800"/>
<path d="M277.57 187.936C277.508 188.01 277.423 188.054 277.285 188.093C277.379 187.969 277.461 187.951 277.57 187.936Z" fill="#FF7800"/>
<path d="M273.433 167.029C273.457 167.059 273.481 167.088 273.56 167.096C273.507 167.091 273.457 167.059 273.433 167.029Z" fill="#FF7800"/>
<path d="M274.66 168.073C274.68 168.128 274.645 168.205 274.578 168.332C274.534 168.246 274.572 168.143 274.66 168.073Z" fill="#FF7800"/>
<path d="M278.684 192.984C278.675 193.063 278.664 193.169 278.546 193.264C278.508 193.126 278.596 193.055 278.684 192.984Z" fill="#FF7800"/>
<path d="M274.443 168.585L274.547 168.864C274.494 168.858 274.465 168.882 274.412 168.876L274.443 168.585Z" fill="#FF7800"/>
<path d="M273.315 166.641C273.356 166.753 273.365 166.915 273.436 167.003C273.233 166.9 273.221 166.765 273.315 166.641Z" fill="#FF7800"/>
<path d="M276.728 180.133L276.725 180.159C276.479 180.454 276.578 180.277 276.728 180.133Z" fill="#FF7800"/>
<path d="M273.377 170.022L273.401 170.052L273.227 170.167L273.377 170.022Z" fill="#FF7800"/>
<path d="M272.941 165.396C272.935 165.449 272.903 165.499 272.818 165.543C272.797 165.487 272.747 165.455 272.729 165.373C272.835 165.384 272.888 165.39 272.941 165.396Z" fill="#FF7800"/>
<path d="M274.878 175.942C275.134 175.809 275.301 175.747 275.437 175.735C275.452 175.844 275.337 175.912 274.878 175.942Z" fill="#FF7800"/>
<path d="M42.7267 29.2125C42.7854 29.1653 42.8735 29.0945 42.988 29.0266C42.8971 29.1239 42.8119 29.1682 42.7267 29.2125Z" fill="#FF7800"/>
<path d="M54.0636 43.9908L54.0659 43.7232C54.1309 43.8642 54.1223 43.9436 54.0636 43.9908Z" fill="#FF7800"/>
<path d="M37.3705 19.3133C37.3412 19.3369 37.3412 19.3369 37.3118 19.3605C37.2496 19.1931 37.1373 18.9935 36.9892 18.6293L37.3705 19.3133Z" fill="#FF7800"/>
<path d="M82.5974 70.8886L82.3999 70.7333C82.5001 70.7977 82.5766 70.8328 82.5974 70.8886Z" fill="#FF7800"/>
<path d="M64.7106 55.9897C64.6698 56.1192 64.7084 56.2572 64.7499 56.3688C64.6261 56.2751 64.5553 56.1871 64.7106 55.9897Z" fill="#FF7800"/>
<path d="M28.8527 15.8463L29.3973 16.0124C29.2298 16.0746 28.9944 16.0223 28.8527 15.8463Z" fill="#FF7800"/>
<path d="M27.5666 3.73686C27.5934 3.73976 27.6202 3.74267 27.6738 3.74847C27.6441 3.77237 27.6173 3.76947 27.5666 3.73686Z" fill="#FF7800"/>
<path d="M30.4188 7.82194C30.4073 7.92781 30.3665 8.05727 30.2992 8.18387C30.2871 8.04866 30.2513 7.88413 30.4188 7.82194Z" fill="#FF7800"/>
<path d="M30.2498 8.3927C30.282 8.34263 30.2906 8.26323 30.3228 8.21316C30.3142 8.29257 30.3321 8.37484 30.2498 8.3927Z" fill="#FF7800"/>
<path d="M215.808 127.285C216.149 127.349 216.347 127.745 216.575 128.118L215.808 127.285Z" fill="#FF7800"/>
<path d="M112.375 90.2627L112.398 90.0509C112.416 90.1332 112.407 90.2126 112.375 90.2627Z" fill="#FF7800"/>
<path d="M215.269 131.27L215.513 131.243C215.427 131.288 215.345 131.305 215.269 131.27Z" fill="#FF7800"/>
<path d="M29.8911 22.3321C29.5955 22.8356 30.3467 23.3187 29.956 23.4638C29.8638 23.0789 29.3687 22.7039 29.8911 22.3321Z" fill="#FF7800"/>
<path d="M111.63 109.007L111.83 109.136C111.73 109.071 111.68 109.039 111.63 109.007Z" fill="#FF7800"/>
<path d="M215.269 131.27L214.969 131.318C215.004 131.242 215.063 131.194 215.098 131.118C215.168 131.206 215.219 131.238 215.269 131.27Z" fill="#FF7800"/>
<path d="M146.8 105.079C146.776 105.05 146.752 105.02 146.731 104.963L146.8 105.079Z" fill="#FF7800"/>
<path d="M148.943 105.07C148.819 104.977 148.721 104.886 148.598 104.792C148.809 104.815 148.904 104.932 148.943 105.07Z" fill="#FF7800"/>
<path d="M216.577 128.092L217.008 128.567C216.831 128.467 216.69 128.291 216.577 128.092Z" fill="#FF7800"/>
<path d="M169.37 112.345C169.32 112.313 169.243 112.278 169.193 112.246C169.273 112.254 169.349 112.289 169.37 112.345Z" fill="#FF7800"/>
<path d="M63.4993 55.0551C63.4464 55.0493 63.3698 55.0142 63.3197 54.982C63.3813 54.9084 63.44 54.8612 63.4993 55.0551Z" fill="#FF7800"/>
<path d="M65.3437 73.3838C65.5999 73.4919 65.6542 73.9798 65.5847 74.3739C65.3636 74.1893 65.257 73.9367 65.3437 73.3838Z" fill="#FF7800"/>
<path d="M54.4186 63.9522L54.4485 63.9282C54.4485 63.9282 54.4485 63.9282 54.4186 63.9522Z" fill="#FF7800"/>
<path d="M56.6607 66.4981C56.7695 66.4831 56.8754 66.4945 56.9784 66.5325C56.8432 66.5446 56.7344 66.5596 56.6607 66.4981Z" fill="#FF7800"/>
<path d="M97.052 102.875C96.7279 102.652 96.3802 102.4 96.0324 102.149C95.6876 101.87 95.3399 101.618 94.9685 101.337C94.2523 100.777 93.5125 100.188 92.7992 99.6024C92.0594 99.0134 91.3461 98.4274 90.5977 97.9178C90.2235 97.663 89.8757 97.4111 89.4987 97.1828C89.1481 96.9574 88.7975 96.7319 88.444 96.533C88.3555 95.3719 87.5334 94.8008 86.8108 94.0531L86.0371 95.0136L85.5614 94.2122C85.0676 94.3194 85.9834 94.7668 85.2013 94.8159L85.3696 94.004C85.0647 94.3459 83.3876 93.0127 84.0771 94.5602C83.1549 93.9247 82.2297 93.3156 81.3368 92.6565C80.7093 92.2672 81.5896 91.5593 80.7567 91.3351C80.4132 91.5389 80.8518 91.6935 80.5469 92.0354C79.2725 91.6831 79.0466 90.8017 78.9058 89.876C78.7385 88.9474 78.6271 87.9981 77.5495 87.56L77.6031 87.8068C77.4959 87.3131 76.8978 86.9002 76.9944 86.75C77.9921 85.9477 76.9083 87.544 77.8931 87.3562C78.47 86.4815 77.5433 86.381 78.0623 85.7946C77.4211 85.7787 77.5458 85.1227 77.2066 84.7914C76.1833 84.8412 75.6039 83.7608 74.6342 84.0574C74.527 83.5638 74.8593 82.4751 74.249 81.927C73.2821 82.1971 73.8509 82.6336 73.0502 82.3594L73.3516 81.803C72.7742 81.4458 72.7513 81.6576 72.5931 81.8814C72.0243 81.4449 72.6756 80.8728 71.7396 80.6107L71.7359 81.3869C71.3725 80.7852 71.1135 80.7035 70.3973 80.1439C70.1804 80.415 70.478 80.6347 70.7342 80.7428C69.7824 81.1216 70.3437 79.8971 70.0875 79.789C70.3194 79.6267 70.8732 79.9545 71.0243 79.3014C70.6179 79.0967 70.8385 78.0495 70.1307 78.4012L70.127 79.1774C69.7243 78.1965 70.251 78.2804 69.2908 77.7479C69.3086 77.8301 69.1913 77.9245 69.1268 78.0247C69.1328 76.981 68.015 76.9134 67.2251 76.2922L67.2523 76.5362C67.0835 76.1162 67.279 75.5483 67.1022 75.4488C67.7584 75.5735 67.7578 75.3324 68.2037 74.9255C66.9721 75.1669 68.1375 73.3116 66.8423 72.9035C66.6254 73.1745 66.5445 73.6745 67.0561 73.6497C66.6473 74.7033 66.1197 75.3691 66.3486 76.224C66.1619 75.7218 65.8371 75.2581 65.6324 75.6644L66.1742 74.8662C65.9825 74.658 65.7822 74.5292 65.6348 74.4061C65.9598 73.879 66.7161 74.068 66.5288 73.3247C66.2062 72.5935 65.5684 73.783 65.7731 73.3767C65.2881 72.4137 66.1791 72.3496 65.2367 71.8994C65.2489 72.0346 65.276 72.2785 65.4113 72.2664C64.6284 72.0744 64.2931 70.967 63.3361 71.6398C63.228 71.8959 63.0112 72.167 63.2673 72.2751L63.3876 72.1542C63.3701 73.3038 63.08 71.5317 62.5238 72.4623C62.9962 72.0582 62.1769 71.4607 61.7999 71.2324L62.4075 70.8162C62.8445 68.2661 61.4899 71.8682 60.6307 70.6504C60.3103 69.6517 61.0221 70.7464 60.9672 70.0174C60.4427 69.666 59.8258 69.9205 59.3852 69.0427C59.0088 69.0554 58.3791 68.9336 57.76 69.4557C57.5876 68.8211 56.3132 68.4688 56.6376 67.7006C57.7911 67.9327 56.7146 68.9675 58.2295 69.0781L58.5538 68.3099C57.9965 67.7675 57.5645 66.8102 56.9992 66.5883C57.1903 66.5555 57.3606 66.4668 57.4307 66.3137C56.8986 65.292 57.2465 64.5532 56.3507 63.9206C55.7223 64.2809 56.2439 64.6588 56.5215 65.0637C55.6242 64.9397 55.9878 64.5507 55.092 63.918C54.596 64.2927 55.5992 64.4282 55.2506 64.926C55.0203 64.5797 54.8135 64.2628 54.5832 63.9165C54.5538 63.9401 54.5245 63.9637 54.4923 64.0137C55.1429 63.2005 53.8376 63.3804 53.5709 62.6285C52.4262 61.3262 53.2937 60.242 53.3255 58.9601C52.952 58.9464 52.6993 59.0529 52.5648 59.3061C53.1766 59.3456 52.8653 59.4993 52.7514 59.8083C52.4589 59.2946 51.1536 59.4745 51.0432 59.9981C50.6849 59.1024 51.6694 59.9053 51.55 59.2765L50.6858 58.3527C51.1911 58.1397 51.5653 58.3945 51.4602 57.6333C51.2206 57.1253 50.9673 56.9908 50.4923 56.4305C50.3577 56.6837 49.7344 56.75 50.0914 57.1636C49.7322 57.0176 49.3487 56.6011 49.6415 56.1241C50.5188 56.4334 49.1938 54.817 50.2143 54.7937L49.337 54.4844C49.4551 54.6311 49.191 54.8435 49.4414 55.0045C48.657 55.3212 49.2161 54.3642 49.1124 54.0852C48.8033 53.9713 48.3254 53.4375 48.0434 53.5676C48.0807 53.2236 47.5591 52.8457 47.1684 52.9908C47.0761 52.6059 47.5792 52.6604 47.7138 52.4072L46.9082 51.4363C46.5117 51.6343 45.4489 52.2957 45.4231 52.5339C45.4655 51.8958 46.3793 51.62 45.9043 51.0597C45.6731 51.4631 45.4141 51.3815 45.1257 51.3234C44.8373 51.2654 44.5754 51.2103 44.327 51.7725C43.5742 51.798 42.9067 50.7884 42.7108 50.1245C43.0294 49.4092 43.4471 50.4989 43.9781 50.0476C43.1384 48.4035 44.6586 47.2293 43.6355 46.2883L43.9918 46.4608C43.8775 45.538 43.8367 45.6675 44.0758 44.9436C43.4953 45.6037 41.5833 45.45 40.9975 44.1815C41.3024 43.8397 42.1009 44.3815 42.564 43.8157C42.4338 43.5339 42.3301 43.2548 42.2 42.9729C42.0941 42.9615 42.0239 43.1145 42.0067 43.2733C41.8308 42.4242 40.2608 42.5754 40.9823 41.8502L39.4616 41.7925L40.1057 41.782C40.4077 41.4666 40.0437 40.6238 40.0988 40.362C40.0518 39.3126 39.5545 39.2051 38.8218 39.0454C39.201 39.0061 40.1184 38.9449 39.8724 38.2488C38.645 38.9459 38.649 37.179 38.0177 37.5658C37.8847 37.3104 37.2429 37.0534 37.7331 36.7316L36.9874 37.1863C38.0237 36.5221 37.4536 35.6034 37.2748 34.7807C35.8864 35.7281 36.9666 33.9172 35.453 34.2887C36.3806 33.6394 35.19 32.7606 35.9737 32.2029C35.7427 31.6155 34.8295 32.1324 34.4266 32.1423L34.6636 31.686C34.0546 31.62 33.4165 30.5869 32.8005 30.0917L33.4211 29.061L32.9152 29.033C33.097 28.8384 32.9984 28.2654 33.49 28.4258L33.2804 28.1353C34.2701 27.6534 33.3435 27.553 33.4617 26.7089C33.2292 26.6302 33.0266 26.7689 32.9507 26.9749C32.7969 26.6637 32.3568 27.0176 31.9331 26.9717C32.2952 27.0913 33.2188 24.9956 34.053 25.7019C34.4939 25.589 34.5627 24.9538 34.2414 24.7047L33.2567 24.8926L34.0369 24.1202C33.9619 23.5765 33.2914 23.5842 33.0081 23.2322C33.121 23.6728 31.6509 24.8792 31.2333 23.7896C31.3526 24.4184 30.9776 24.9134 30.9109 25.281C30.7721 25.0786 30.6484 24.9848 30.4057 25.4941C30.3236 24.5212 30.8366 24.9784 30.587 24.0677C29.7969 24.4373 29.4348 24.3177 28.8625 23.6666C29.1451 23.7776 29.4013 23.8857 29.6839 23.9966C29.772 23.9258 29.8335 23.8522 29.8657 23.8021C30.0339 23.981 30.1927 23.9982 30.5248 23.9003C30.4361 23.73 31.1298 22.5198 30.5888 22.5683C32.1838 22.9286 31.0071 20.6856 31.9695 20.9506C32.1778 20.7589 32.0026 20.1508 31.5618 20.2637C31.2174 21.2172 30.429 20.0874 29.8858 20.4035C30.0319 20.0444 30.7072 20.7335 30.8913 20.2714C30.7783 19.8307 30.1486 19.7089 29.8159 19.5657L29.7371 19.7982C29.516 19.6136 29.3214 19.4318 29.1239 19.2765C29.4997 19.0227 30.0455 19.671 30.0407 18.9742C29.811 18.869 29.8061 18.1722 29.4948 18.3259C29.0403 18.8122 28.2052 18.8556 28.248 19.4494C28.1644 18.9851 27.784 17.5514 28.7407 17.8693L28.5275 17.3642C28.9869 17.5747 29.9299 18.266 29.6976 17.1964L29.5301 17.2586L29.8981 16.3345L29.3536 16.1684C29.574 16.1119 29.7265 15.941 29.6228 15.662C29.3523 15.6862 29.1634 15.4515 28.855 15.5788C28.6469 14.7797 29.1085 14.7226 29.3167 14.5309C29.2331 14.0666 29.0299 13.9643 28.5897 14.3182C28.3029 13.7516 28.0706 12.6821 27.5139 12.3807C27.6408 11.4573 27.7436 12.486 28.1595 11.8616C26.5029 11.575 26.8526 9.33671 26.7077 7.95531C28.0959 7.99864 26.7772 7.56117 27.9051 7.04071C27.5679 7.43263 26.5964 6.01524 26.5146 7.26494L26.489 6.51238C25.6676 6.18236 26.2132 7.8214 25.0619 7.32174C24.9097 6.5019 26.2337 5.65459 25.5226 4.80097C24.6623 5.32364 25.6616 4.01268 24.704 4.44448C24.4077 4.70693 24.5672 4.96522 24.565 5.23276L24.3382 5.10106C24.0035 4.23467 24.2647 4.04875 24.6497 3.95658C25.0348 3.86441 25.5464 3.83953 25.7655 3.30093C25.6713 2.19281 24.8783 2.58889 24.4196 2.61952C24.1928 2.48783 24.2559 1.90554 24.4256 1.57581C23.9925 2.359 25.2432 2.682 25.7686 2.2837C24.6208 1.99865 25.3789 0.688325 25.7397 0.325741C27.1491 1.65672 26.0014 1.37167 27.4781 2.57605C27.1818 2.83849 26.2264 3.00275 26.7844 3.78622C27.1474 3.1561 27.3283 3.71128 27.5021 3.83723C26.9197 3.77411 27.4068 4.46957 27.24 4.77284C27.7345 4.90675 28.3701 3.98484 28.79 4.80691L27.5355 5.26009C27.798 5.55632 28.4315 4.90195 28.2925 5.69023C28.8586 5.16246 29.3509 5.56393 29.3511 4.57316C30.7005 5.46918 29.1739 6.45521 28.9032 7.47022C28.9676 7.37009 29.1351 7.30791 29.1995 7.20778C28.9032 7.47023 28.9983 7.82864 29.0226 8.09905C29.4769 8.60351 29.4621 7.50401 29.8592 7.54705L30.0794 8.48136C30.1324 8.4871 30.1589 8.48996 30.1854 8.49283C30.0744 8.77537 30.0192 9.03717 30.3663 9.048C30.7034 8.65609 31.0999 8.45804 31.3726 8.16626L30.7584 9.38506C31.1577 9.16056 31.6835 9.99409 31.8196 9.23229L32.0325 10.7282L32.9292 10.6111C32.8891 10.9816 32.7216 11.0438 32.4941 10.6711C32.8246 11.0818 31.6778 13.2604 33.258 12.5212C32.8999 13.8481 33.292 14.1851 33.3489 15.6373C33.7571 14.3426 34.7305 16.4833 34.7272 15.2779C35.3139 15.7967 34.4622 16.24 34.4843 16.7779C35.0088 17.1293 35.7338 16.6187 35.8792 16.0186L35.693 16.7482L35.8604 16.686L35.5712 17.3777C36.1987 17.767 36.4471 17.2048 36.769 17.695L36.0848 18.076L36.6501 18.298C36.2501 18.2814 36.2364 18.6548 36.3229 19.0926L36.4904 19.0304L36.5389 19.5713C36.796 18.9297 36.8723 19.9555 37.2946 19.5193C37.4927 19.9156 37.4899 19.9421 37.645 20.7355L37.1011 20.8104C37.0837 21.96 37.8533 20.5438 38.2231 21.3337L37.6412 21.5116C39.0608 22.2546 37.9177 23.6571 38.8722 24.2425C38.7972 23.6988 39.5114 23.5352 39.341 23.6239C39.4403 24.438 40.1285 25.5033 39.7991 26.5655C40.7222 26.4514 40.9956 26.4006 41.7089 26.9867C41.9163 27.5448 41.9049 27.6506 41.5119 28.0633C42.0893 28.4204 42.1191 29.6287 42.7095 29.3713C42.3223 29.731 43.0401 29.782 42.8002 30.2648L43.0736 30.2141L42.5125 30.4479C44.2249 30.7137 42.6531 32.3643 44.1951 32.7189L44.2474 32.4835L44.2459 32.9922C44.5221 32.915 44.5744 32.6796 44.8621 32.4966C45.0452 32.7842 45.2019 33.069 45.385 33.3566L45.9373 34.193L45.3341 34.0741C45.5057 34.4676 45.1249 35.0155 45.6873 35.2638C46.0811 34.1015 46.0536 35.8391 46.7234 35.5903L46.725 35.0817C46.9617 35.6162 46.9617 35.6162 46.4214 35.9057C46.6323 36.6784 47.6945 35.7759 47.4853 36.7173L47.1813 36.3094C46.7991 36.3751 46.5507 36.9373 46.7338 37.2249C46.8662 37.2393 47.2075 37.303 47.1539 37.0562C47.2733 37.6851 48.0367 38.3034 47.9701 38.671C48.2999 38.8407 48.6284 38.5282 48.6543 38.2899C48.7679 38.9717 48.8623 39.0891 48.9832 39.2093C49.0777 39.3266 49.175 39.4175 49.3151 40.1021L49.6057 39.8926L49.5132 40.4985L50.49 40.6311L49.9754 40.6825C50.1471 41.076 50.1098 41.4201 50.5312 41.7335L50.8476 41.2858C51.0522 41.8703 51.435 42.0457 51.7648 42.2153C52.0918 42.4114 52.3658 42.6018 52.4001 43.2749C52.5324 43.2893 52.5582 43.0511 52.5726 42.9187C52.5086 44.2507 53.7905 43.0507 53.5827 44.4742C53.6793 44.324 53.9233 44.2969 54.0171 44.1732L54.0335 44.764L54.591 44.3157L53.9818 45.2405L54.7518 45.0561L54.5793 45.4123C55.9605 45.0264 55.5903 46.2181 56.8018 46.162L56.0324 46.5874C55.9371 47.2197 56.0708 47.7162 56.3777 48.0976C56.6847 48.479 57.1325 48.7953 57.6069 49.1145C58.0842 49.4072 58.5879 49.7028 59.0329 50.0456C59.4515 50.3855 59.8349 50.8019 60.0187 51.3306L60.5262 50.8501L60.4501 52.0468C61.1736 52.0449 60.7307 51.4346 61.0893 51.3395C61.386 52.3089 60.5566 52.2994 61.0946 53.2681C61.8302 53.4014 61.3609 52.7882 61.3746 52.4148C61.7744 53.4221 62.5075 54.8137 63.2789 55.1115C63.2173 55.1852 63.15 55.3118 63.0971 55.306C63.3109 56.0522 64.1738 56.4938 64.646 57.0806C64.86 56.836 64.7713 56.6657 64.7091 56.4983C64.9302 56.6829 65.3452 56.8082 65.2492 57.1995L65.5034 56.5844C65.9749 56.93 66.3281 58.1198 66.9329 57.7301C66.6774 57.863 66.3138 58.2521 66.7059 58.5891C67.6749 58.0515 67.3418 59.8898 68.3128 60.0754C68.4209 59.8193 68.0668 59.3793 68.1905 59.473C68.6614 59.5776 68.5689 60.1835 68.5703 60.6656L68.7986 60.2887C69.0826 60.8818 69.3959 61.4513 69.7063 62.0473C70.6518 61.4803 70.8718 63.4054 71.317 62.7574C71.83 63.2147 70.5728 62.7036 71.1158 63.3783C71.5888 63.2153 71.5235 64.0652 71.9809 63.5524L71.9688 63.4172L72.3759 63.863L72.5649 63.1069C72.8368 63.5648 72.6212 64.318 72.2841 64.7099C72.893 64.7759 73.192 65.4778 73.7882 65.1675L73.761 64.9235C74.5758 66.0562 76.6935 65.0538 76.6832 66.6326C76.8184 66.6205 76.915 66.4703 76.7913 66.3766L77.4309 66.9011L77.6206 66.3861C77.7808 66.8855 77.9381 67.4113 78.1248 67.9135L78.3417 67.6425C79.1195 68.1285 80.1017 69.1989 80.9216 70.0375L80.8945 69.7936C81.539 71.0149 82.0694 70.3226 82.5365 71.2033C82.5744 71.1003 82.5773 71.0739 82.5566 71.018L83.1933 71.5691L83.2628 71.1749C83.2642 71.6571 83.7615 71.7645 84.1644 71.7546C84.5672 71.7447 84.8993 71.6468 84.5615 71.7977C84.6451 72.262 84.8647 72.9552 84.6864 73.3643C85.3997 73.9504 85.1387 73.1456 85.7684 73.2674C86.3165 73.6481 86.0416 74.2074 86.9482 74.4931L87.1414 74.1927C87.4305 74.4918 87.4991 74.8474 87.9384 75.2431L87.9112 74.9991C88.2409 76.1595 89.4784 74.8744 89.1625 76.554C89.6419 76.5791 90.1377 77.1952 90.5243 76.5944C91.2389 77.6627 91.8585 78.3725 92.6698 79.2905C93.4822 78.4681 92.835 79.4959 93.814 79.361L93.4153 79.8265C94.0843 80.3275 95.0231 80.5631 95.9913 80.7751C96.9594 80.9872 97.9218 81.2521 98.6058 81.8618L98.9809 81.3669L98.9242 82.1373C99.8429 82.5582 100.888 83.0464 101.854 83.5259C102.817 84.032 103.76 84.4822 104.44 84.8773C104.73 85.4175 105.018 86.4663 105.851 86.6904L105.809 86.5788C106.906 87.5813 108.112 88.5689 109.669 89.0322C109.698 88.7675 109.924 88.6581 109.867 88.4378C109.863 89.2139 110.671 88.9266 110.951 89.064L110.393 89.2713C110.501 90.006 111.35 89.8303 111.758 89.5264C111.859 89.8319 111.96 90.1374 112.087 90.4457C112.172 90.4014 112.258 90.357 112.319 90.2834L112.282 90.6275L113.01 90.0904C113.093 90.3137 113.83 90.9291 113.741 91.7496C113.923 91.555 114.608 91.6561 114.219 91.2926L116.63 92.2769L116.139 92.3576C115.814 92.8847 116.328 93.5831 116.816 93.5288C116.57 92.8327 117.17 92.737 117.578 92.4331C117.744 92.8796 117.058 92.7785 117.071 93.1548C117.175 93.4338 117.411 93.7272 117.682 93.944C117.927 94.158 118.209 94.2689 118.379 94.1803L118.255 93.8454C118.712 94.3234 119.422 93.4631 119.952 93.7615C120.227 94.434 120.788 94.2003 120.208 95.1015C120.821 95.6231 120.801 94.5766 121.066 94.6052C121.188 95.2076 122.294 95.3811 122.661 94.9655C122.383 96.5421 124.788 95.3567 124.386 96.5985C124.668 96.4684 124.976 96.3411 125.261 96.1845C125.144 96.52 124.929 97.2732 125.347 97.6131C125.953 97.4645 126.098 96.8644 126.368 96.5991L126.145 97.9138C127.707 97.842 129.255 98.3847 130.798 98.9803C131.569 99.2781 132.37 99.5524 133.176 99.7736C133.983 99.9949 134.795 100.163 135.598 100.17C136.172 100.554 136.815 101.052 137.516 101.502C137.866 101.728 138.217 101.953 138.573 102.126C138.956 102.301 139.342 102.45 139.733 102.546L139.624 102.32L141.26 102.551L139.957 102.704C140.223 102.974 140.403 103.288 140.712 103.402C141.644 103.449 142.706 103.538 143.751 103.785C144.275 103.895 144.819 104.061 145.305 104.275C145.818 104.491 146.301 104.731 146.772 105.076C147.586 106.959 148.105 104.15 148.991 105.611C148.929 105.444 148.952 105.232 148.916 105.068C150.124 106.029 150.767 106.527 151.859 107.823C152.178 106.358 152.733 108.159 152.872 107.371L152.806 107.979C153.235 107.731 154 107.841 154.022 107.388L154.404 108.313L154.652 107.751C155.485 107.975 157.059 109.029 157.87 107.966C158.31 108.362 158.811 108.684 159.42 108.991C160.003 109.295 160.675 109.528 161.346 109.762C162.717 110.205 164.183 110.524 165.466 110.797C165.67 111.382 166.389 111.674 166.954 111.896L167.788 111.37C168.309 111.748 168.674 112.832 169.376 112.533C169.385 112.454 169.393 112.374 169.37 112.345C169.924 112.673 170.617 112.453 170.984 113.27C171.664 113.424 172.407 113.237 172.405 112.513C172.141 113.717 173.853 112.751 173.853 112.751C173.853 112.751 174.403 112.864 175.348 113.046C176.319 113.232 177.705 113.543 179.379 113.912C180.215 114.109 181.13 114.316 182.125 114.531C183.093 114.743 184.138 114.99 185.235 115.243C186.307 115.493 187.454 115.778 188.602 116.063C189.75 116.348 190.951 116.638 192.146 116.982C201.752 119.55 212.358 123.029 215.837 127.262C215.98 127.92 216.67 128.477 216.198 129.122C216.749 129.476 217.281 128.516 217.268 129.131C216.337 129.324 217.149 130.724 216.18 131.262L216.66 131.528C216.665 131.984 216.062 130.874 216.002 131.671L216.125 130.533C215.664 130.59 215.376 130.773 215.127 131.094C214.834 130.581 214.951 129.013 213.831 129.454L214.085 129.589C213.331 129.373 213.43 130.187 213.228 130.326L213.413 130.346L212.62 130.742C213.211 130.485 213.79 131.565 213.378 131.414C212.378 131.493 213.669 131.204 213.032 130.894C212.62 130.742 212.607 131.357 212.543 131.698L211.79 131.482C211.68 132.006 212.317 131.566 211.865 132.026L211.039 131.24C210.555 132.5 210.143 130.367 209.408 131.465C210.027 131.934 209.23 131.874 209.26 132.333L207.571 131.855C207.368 131.994 207.916 132.375 207.689 132.243C207.284 132.521 207.229 131.792 207.071 131.774C206.848 132.098 205.793 131.449 205.646 132.316C204.355 132.605 205.428 131.114 204.225 131.332C203.959 131.812 205.047 131.662 204.439 132.078L203.365 131.614C203.415 131.887 203.376 132.499 203.832 132.495C200.649 132.444 198.335 134.764 195.726 133.384C195.186 133.914 195.915 133.859 196.078 134.332C194.266 133.011 192.927 134.982 191.214 134.475L191.325 133.951C188.542 134.908 185.909 133.257 183.023 133.185L183.428 132.908C183.197 132.32 182.603 132.122 182.214 131.759C182.082 131.985 182.246 132.94 181.516 132.513C181.718 132.374 182.103 132.282 182.079 132.012C180.754 132.377 178.877 132.147 176.829 131.764C174.781 131.382 172.588 130.849 170.602 130.634C169.34 130.176 168.015 129.792 166.688 129.433C165.36 129.075 164.001 128.767 162.615 128.457C159.898 127.814 157.185 127.145 154.715 126.208C155.463 126.477 155.527 125.145 154.871 125.261C152.611 126.837 152.247 124.013 150.168 124.912C149.49 124.49 148.792 124.254 148.063 124.068C147.333 123.882 146.621 123.778 145.914 123.621C144.502 123.307 143.154 122.893 142.059 121.623L141.811 122.185C141.314 122.319 141.336 121.866 140.93 121.662L140.886 121.817C140.33 121.757 139.827 121.462 139.346 121.195C138.866 120.929 138.466 120.671 138.113 120.714L138.32 120.04C137.734 119.762 137.821 120.441 137.352 119.828L137.235 120.163L136.768 119.282C136.4 120.448 135.058 118.749 134.379 119.077C133.684 118.573 132.428 117.554 131.172 117.284C130.717 117.77 129.307 117.189 128.268 117.13C127.405 116.688 126.389 116.176 125.265 115.679C124.14 115.183 122.968 114.627 121.802 114.26L122.147 113.547L121.591 113.246C121.52 113.399 121.406 113.467 121.474 113.582C120.655 114.216 120.251 112.753 119.549 113.052C120.142 112.527 119.996 113.127 120.332 113.244C120.964 113.098 120.82 112.199 120.009 112.271L119.938 112.424L119.678 111.861C119.377 112.417 118.859 112.495 118.561 113.025C117.621 112.548 116.969 111.889 116.259 111.276C115.549 110.663 114.832 110.104 113.796 109.777C113.692 110.489 112.465 108.964 112.33 110.208C111.363 109.246 112.951 109.418 112.793 108.41C112.46 108.267 112.267 107.817 112.013 108.192C112.031 108.515 111.42 108.716 111.635 108.954L110.881 108.497C110.77 108.539 110.853 108.762 110.92 108.877C109.652 107.481 107.757 108.159 106.671 106.809C106.773 106.365 107.295 106.984 107.397 106.54C106.381 105.037 105.785 106.579 104.741 105.342L104.748 106.012C104.517 105.425 104.578 104.869 103.634 104.927C103.171 105.493 103.948 105.738 104.137 106.213C103.881 106.105 103.48 105.848 103.215 105.578C102.952 105.282 102.849 105.003 103.189 104.825C102.738 104.294 102.233 104.749 101.833 104.732C101.903 104.579 102.595 104.627 102.405 104.151C101.449 104.074 100.238 103.381 99.2725 102.901C99.2024 103.054 98.9941 103.246 99.0327 103.384C98.703 102.224 98.0129 103.649 97.052 102.875Z" fill="#FF7800"/>
<path d="M54.0444 63.6974L54.4186 63.9522C54.3012 64.0466 54.1781 64.1939 54.1759 64.4614L54.0444 63.6974Z" fill="#FF7800"/>
<path d="M69.0768 77.9924C69.0682 78.0718 69.086 78.1541 69.0774 78.2335C69.0066 78.1455 69.0417 78.069 69.0768 77.9924Z" fill="#FF7800"/>
<path d="M72.1293 82.2061C71.9519 81.8655 72.3197 81.9322 72.5637 81.9051C72.4728 82.0023 72.3526 82.1232 72.1293 82.2061Z" fill="#FF7800"/>
<path d="M48.0313 53.4324C48.0198 53.5383 47.9819 53.6413 47.8409 53.7064C47.8846 53.5504 47.9461 53.4768 48.0313 53.4324Z" fill="#FF7800"/>
<path d="M31.2679 25.6946C31.318 25.7268 31.3416 25.7562 31.4211 25.7648C31.3416 25.7562 31.2916 25.724 31.2679 25.6946Z" fill="#FF7800"/>
<path d="M32.9858 26.8984C33.0302 26.9835 33.0452 27.0922 33.0516 27.2804C32.9335 27.1337 32.945 27.0278 32.9858 26.8984Z" fill="#FF7800"/>
<path d="M52.7364 59.6997C52.8044 59.8141 52.8194 59.9229 52.7729 60.1053C52.6548 59.9586 52.6691 59.8263 52.7364 59.6997Z" fill="#FF7800"/>
<path d="M33.0615 27.6831L33.3155 28.0588C33.2861 28.0824 33.2568 28.106 33.201 28.1267L33.0615 27.6831Z" fill="#FF7800"/>
<path d="M30.9488 25.178C31.0404 25.3219 31.1234 25.5451 31.2443 25.6653C30.9881 25.5572 30.9259 25.3898 30.9488 25.178Z" fill="#FF7800"/>
<path d="M42.0418 43.1968C42.0389 43.2233 42.0389 43.2233 42.0625 43.2526C41.9608 43.6968 41.963 43.4293 42.0418 43.1968Z" fill="#FF7800"/>
<path d="M32.7855 29.9829C32.812 29.9858 32.8091 30.0122 32.8356 30.0151L32.7067 30.2154L32.7855 29.9829Z" fill="#FF7800"/>
<path d="M29.9295 23.4609C29.9474 23.5432 29.9388 23.6226 29.9009 23.7256C29.8536 23.6669 29.8064 23.6082 29.7356 23.5202C29.8179 23.5024 29.9002 23.4845 29.9295 23.4609Z" fill="#FF7800"/>
<path d="M37.6306 37.9255C37.7916 37.6752 37.9383 37.5572 38.0529 37.4893C38.0915 37.6274 38.0506 37.7568 37.6306 37.9255Z" fill="#FF7800"/>
<path d="M246.165 153.176C246.212 153.234 246.286 153.296 246.383 153.387C246.283 153.322 246.212 153.234 246.165 153.176Z" fill="#FF7800"/>
<path d="M241.344 160.58L241.527 160.626C241.471 160.647 241.392 160.638 241.344 160.58Z" fill="#FF7800"/>
<path d="M249.595 149.209C249.571 149.18 249.571 149.18 249.548 149.151C249.606 149.103 249.671 149.003 249.817 148.885L249.595 149.209Z" fill="#FF7800"/>
<path d="M230.338 176.123L230.427 176.052C230.397 176.075 230.392 176.129 230.338 176.123Z" fill="#FF7800"/>
<path d="M236.723 166.639C236.596 166.572 236.514 166.59 236.458 166.611C236.493 166.534 236.549 166.514 236.723 166.639Z" fill="#FF7800"/>
<path d="M247.828 142.029C247.893 142.17 247.929 142.334 247.965 142.499C247.85 142.326 247.793 142.105 247.828 142.029Z" fill="#FF7800"/>
<path d="M251.883 142.682C251.85 142.732 251.768 142.75 251.659 142.765C251.718 142.718 251.697 142.662 251.883 142.682Z" fill="#FF7800"/>
<path d="M251.548 142.807C251.574 142.81 251.63 142.789 251.686 142.768C251.657 142.792 251.627 142.815 251.548 142.807Z" fill="#FF7800"/>
<path d="M162.305 202.009C162.123 201.963 162.113 201.56 162.068 201.234L162.305 202.009Z" fill="#FF7800"/>
<path d="M217.867 189.366L218.014 189.489C217.964 189.457 217.914 189.425 217.867 189.366Z" fill="#FF7800"/>
<path d="M163.68 198.222L163.542 198.261C163.601 198.213 163.627 198.216 163.68 198.222Z" fill="#FF7800"/>
<path d="M244.631 142.86C244.23 142.603 244.267 143.25 244.01 142.9C244.204 142.841 244.197 142.412 244.631 142.86Z" fill="#FF7800"/>
<path d="M203.951 178.86L203.865 178.905C203.898 178.854 203.925 178.857 203.951 178.86Z" fill="#FF7800"/>
<path d="M163.68 198.222L163.845 198.186C163.81 198.263 163.751 198.31 163.716 198.387C163.698 198.304 163.704 198.251 163.68 198.222Z" fill="#FF7800"/>
<path d="M201.406 201.104C201.433 201.107 201.457 201.137 201.481 201.167L201.406 201.104Z" fill="#FF7800"/>
<path d="M200.744 202.265C200.824 202.274 200.93 202.285 201.009 202.294C200.945 202.394 200.845 202.33 200.744 202.265Z" fill="#FF7800"/>
<path d="M162.068 201.234L161.955 200.793C162.026 200.881 162.062 201.046 162.068 201.234Z" fill="#FF7800"/>
<path d="M189.229 205.945C189.282 205.95 189.308 205.953 189.361 205.959C189.332 205.983 189.279 205.977 189.229 205.945Z" fill="#FF7800"/>
<path d="M237.012 165.948C236.992 165.892 236.995 165.866 237 165.813C237.074 165.874 237.121 165.933 237.012 165.948Z" fill="#FF7800"/>
<path d="M223.983 163.331C223.992 163.493 223.627 163.399 223.324 163.233C223.388 163.133 223.523 163.12 223.983 163.331Z" fill="#FF7800"/>
<path d="M222.947 163.995C222.95 163.968 222.952 163.942 222.929 163.912C222.95 163.968 222.947 163.995 222.947 163.995Z" fill="#FF7800"/>
<path d="M227.414 157.623L227.438 157.653C227.438 157.653 227.438 157.653 227.414 157.623Z" fill="#FF7800"/>
<path d="M226.329 158.738C226.373 158.823 226.394 158.879 226.412 158.961C226.367 158.876 226.323 158.791 226.329 158.738Z" fill="#FF7800"/>
<path d="M207.68 173.614C208.255 173.248 208.987 172.926 209.697 172.548C210.041 172.344 210.381 172.167 210.701 171.933C210.995 171.697 211.265 171.432 211.429 171.155C212.292 171.597 212.617 171.311 213.064 171.145L212.197 170.248L212.732 170.252C212.557 169.885 212.379 170.294 212.219 169.795L212.87 170.214C212.557 169.885 213.285 169.348 212.232 169.18L213.173 168.158C213.361 167.91 214.048 168.735 214.073 168.255C213.864 167.965 213.814 168.174 213.502 167.845C213.518 166.455 216.071 168.606 216.327 167.482L216.145 167.435C216.509 167.529 216.671 167.278 216.821 167.375C217.659 168.296 216.214 167.041 216.537 167.772C217.321 168.447 217.196 167.871 217.779 168.416C217.664 168.002 218.194 168.3 218.367 168.185C218.121 167.489 218.797 167.428 218.342 166.683C218.707 166.776 219.585 167.326 219.879 167.09C219.45 166.348 219.26 166.622 219.258 166.139L219.753 166.514C219.891 166.235 219.711 166.162 219.49 165.977C219.678 165.73 220.282 166.331 220.26 165.793L219.669 165.568C220.024 165.499 220.041 165.341 220.264 165.017C219.993 164.8 219.899 164.923 219.908 165.085C219.374 164.331 220.446 165.063 220.464 164.904C220.629 165.11 220.544 165.395 221.075 165.694C221.127 165.458 221.987 165.926 221.541 165.342L220.95 165.118C221.594 165.107 221.662 165.463 221.799 164.942C221.746 164.936 221.652 164.819 221.551 164.754C222.323 165.052 222.059 164.274 222.34 163.903L222.158 163.856C222.425 163.858 222.903 164.151 222.941 164.048C223.027 164.486 223.21 164.532 223.646 164.955C223.129 164.042 224.865 165.328 224.792 164.516C224.521 164.3 224.111 164.121 224.289 164.462C223.384 163.909 222.721 163.355 222.139 163.292C222.459 163.3 222.738 163.196 222.364 162.941L223.13 163.533C223.245 163.465 223.259 163.333 223.321 163.259C223.819 163.608 223.897 164.125 224.376 164.15C224.835 164.119 223.765 163.361 224.113 163.613C224.713 163.517 225.017 164.166 225.077 163.61C224.998 163.602 224.816 163.555 224.86 163.64C224.779 163.149 225.5 163.174 224.706 162.338C224.48 162.206 224.208 161.99 224.22 162.125L224.341 162.245C223.488 161.965 224.697 162.176 223.851 161.576C224.288 161.998 224.495 161.565 224.545 161.357L225.026 161.864C227.046 162.752 223.944 160.97 224.596 160.639C225.24 160.629 224.649 160.886 225.17 161.023C225.255 160.737 224.88 160.241 225.377 160.108C225.246 159.826 225.131 159.412 224.547 158.866C224.947 158.883 224.797 158.037 225.475 158.458C225.686 159.231 224.563 158.226 225.01 159.292L225.69 159.687C225.883 159.386 226.48 159.317 226.441 158.938C226.533 159.082 226.651 159.228 226.801 159.325C227.356 159.144 228.034 159.566 228.173 159.018C227.696 158.485 227.582 158.794 227.408 158.909C227.207 158.298 227.599 158.635 227.762 158.117C227.326 157.695 227.572 158.391 227.077 158.016L227.588 157.75C227.564 157.721 227.54 157.691 227.49 157.659C228.307 158.283 227.692 157.279 228.151 157.249C228.67 156.662 229.784 157.506 230.696 157.739C230.566 157.457 230.401 157.251 230.174 157.12C230.393 157.572 230.127 157.302 229.901 157.17C230.156 157.037 229.539 156.06 229.156 155.885C229.676 155.78 229.451 156.372 229.878 156.391L230.224 155.92C230.554 156.331 230.502 156.566 231.005 156.621C231.281 156.544 231.298 156.385 231.489 156.111C231.262 155.979 230.966 155.492 230.838 155.692C230.81 155.448 230.942 155.221 231.393 155.511C231.489 156.111 232.131 155.377 232.556 156.146L232.461 155.547C232.399 155.62 232.157 155.38 232.14 155.539C231.618 154.92 232.522 155.473 232.66 155.434C232.627 155.243 232.821 154.943 232.605 154.705C232.838 154.784 232.902 154.443 232.668 154.123C232.912 154.096 233.058 154.487 233.284 154.618L233.63 154.147C233.318 153.819 232.477 152.924 232.294 152.878C232.736 153.006 233.3 153.736 233.49 153.462C232.736 153.006 233.335 152.669 232.398 152.166C232.085 151.596 232.475 151.21 232.857 151.144C233.491 151.481 232.909 151.659 233.422 152.116C234.191 151.691 235.603 152.995 235.81 152.321L235.837 152.565C236.399 152.573 236.296 152.535 236.882 152.812C236.19 152.282 235.542 150.846 236.141 150.509C236.485 150.788 236.478 151.349 237.02 151.783L237.417 151.585C237.399 151.503 237.246 151.433 237.143 151.395C237.631 151.34 236.857 150.078 237.641 150.752L237.047 149.563L237.313 150.074C237.658 150.353 238.054 150.154 238.237 150.201C238.875 150.243 238.727 149.879 238.549 149.298C238.729 149.612 239.16 150.328 239.495 150.204C238.534 149.189 239.669 149.339 239.165 148.802C239.282 148.708 239.172 148.241 239.556 148.657L238.954 148.029C239.798 148.897 240.132 148.532 240.573 148.419C239.387 147.246 240.969 148.221 240.113 146.977C240.912 147.76 240.93 146.851 241.608 147.514C241.867 147.354 241.147 146.58 240.967 146.266L241.344 146.494C241.104 145.986 241.474 145.544 241.499 145.065L242.377 145.615L242.181 145.193C242.379 145.348 242.679 145.3 242.797 145.688L242.894 145.538C243.608 146.365 243.262 145.604 243.833 145.773C243.774 145.579 243.605 145.4 243.452 145.33C243.573 145.209 243.16 144.817 243.009 144.479C243.086 144.755 244.709 145.6 244.664 146.265C244.918 146.64 245.338 146.713 245.338 146.472L244.812 145.638L245.596 146.312C245.869 146.262 245.583 145.695 245.658 145.489C245.462 145.575 244.123 144.332 244.563 143.978C244.26 144.052 243.813 143.736 243.551 143.681C243.615 143.581 243.6 143.472 243.194 143.267C243.735 143.219 243.689 143.642 244.109 143.473C243.539 142.796 243.465 142.493 243.596 142.025L243.763 142.713C243.834 142.801 243.91 142.836 243.96 142.868C243.946 143 243.984 143.139 244.194 143.429C244.256 143.355 245.26 143.973 244.988 143.515C245.486 144.854 246.233 143.891 246.518 144.725C246.713 144.907 246.971 144.748 246.741 144.401C246.052 144.086 246.362 143.45 245.954 143.004C246.211 143.112 246.121 143.691 246.454 143.835C246.651 143.749 246.467 143.22 246.39 142.944L246.21 142.871L246.238 142.365C246.551 142.694 246.42 143.161 246.796 143.149C246.763 142.958 247.14 142.945 246.927 142.681C246.461 142.282 246.056 141.569 245.757 141.617C245.98 141.534 246.605 141.2 246.837 142.028L247.019 141.834C247.108 142.245 247.128 143.051 247.607 142.835L247.489 142.688L248.151 143.001L248.015 142.531C248.13 142.704 248.304 142.83 248.392 142.759C248.256 142.53 248.27 142.398 248.061 142.107C248.287 141.998 248.544 142.347 248.712 142.526C248.85 142.488 248.788 142.32 248.398 141.957C248.445 141.774 248.695 141.694 248.326 141.386C248.65 141.609 248.474 141.51 248.916 141.879C248.816 141.814 248.718 141.724 248.621 141.633C248.771 141.729 248.869 141.82 249.019 141.917C249.093 141.978 249.169 142.013 249.246 142.048C249.296 142.081 249.37 142.142 249.446 142.177C249.523 142.212 249.599 142.247 249.676 142.282C249.726 142.315 249.802 142.35 249.853 142.382C250.135 142.493 250.288 142.563 250.421 142.577L250.474 142.583C250.5 142.586 250.527 142.589 250.527 142.589C250.5 142.586 250.527 142.589 250.5 142.586C250.5 142.586 250.5 142.586 250.474 142.583C250.447 142.58 250.421 142.577 250.418 142.604L251.194 142.367C251.22 142.369 251.223 142.343 251.249 142.346C251.22 142.369 251.223 142.343 251.279 142.322C251.279 142.322 251.305 142.325 251.308 142.299L251.335 142.302C251.361 142.304 251.364 142.278 251.39 142.281L251.42 142.257C251.42 142.257 251.42 142.257 251.305 142.325C251.39 142.281 251.42 142.257 251.42 142.257C251.417 142.284 251.417 142.284 251.42 142.257L251.361 142.304C251.361 142.304 251.361 142.304 251.417 142.284C251.476 142.237 251.39 142.281 251.347 142.437C251.303 142.593 251.271 142.884 251.299 143.128C251.281 143.046 251.296 143.154 251.314 143.237C251.331 143.319 251.329 143.345 251.331 143.319C251.308 143.289 251.293 143.181 251.284 143.019L251.301 143.101C251.329 143.345 251.358 143.322 251.355 143.348C251.358 143.322 251.358 143.322 251.358 143.322C251.358 143.322 251.361 143.295 251.334 143.292C251.311 143.263 251.314 143.237 251.293 143.181C251.228 143.04 251.11 142.893 251.039 142.805C250.968 142.717 250.921 142.658 250.897 142.629C250.874 142.6 250.874 142.6 250.85 142.57C250.826 142.541 250.776 142.509 250.726 142.477C250.676 142.444 250.626 142.412 250.55 142.377C250.449 142.313 250.394 142.333 250.394 142.333C250.394 142.333 250.42 142.336 250.499 142.345C250.526 142.348 250.576 142.38 250.6 142.409C250.623 142.439 250.676 142.444 250.7 142.474C250.824 142.568 250.871 142.626 250.747 142.532C250.673 142.471 250.55 142.377 250.47 142.369C250.394 142.333 250.311 142.351 250.367 142.331C250.367 142.331 250.396 142.307 250.423 142.31L250.452 142.286C250.479 142.289 250.482 142.263 250.482 142.263C250.511 142.239 250.537 142.242 250.54 142.215C250.57 142.192 250.599 142.168 250.628 142.145C250.658 142.121 250.66 142.095 250.69 142.071C250.719 142.047 250.749 142.024 250.754 141.971C250.784 141.947 250.786 141.921 250.816 141.897C250.816 141.897 250.819 141.871 250.845 141.874L250.848 141.847C251.232 141.273 251.618 140.672 251.973 140.121C251.589 140.696 251.232 141.273 250.848 141.847L250.845 141.874L250.816 141.897C250.813 141.924 250.784 141.947 250.781 141.974C250.749 142.024 250.719 142.047 250.687 142.098C250.655 142.148 250.593 142.221 250.537 142.242C250.508 142.266 250.479 142.289 250.449 142.313C250.42 142.336 250.42 142.336 250.394 142.333C250.394 142.333 250.338 142.354 250.367 142.331L250.394 142.333C250.42 142.336 250.523 142.374 250.623 142.439C250.75 142.506 250.918 142.685 251.104 142.946C251.151 143.005 251.175 143.034 251.219 143.119C251.243 143.149 251.263 143.204 251.287 143.234C251.284 143.26 251.308 143.289 251.308 143.289C251.308 143.289 251.331 143.319 251.305 143.316C251.284 143.26 251.302 143.342 251.308 143.289C251.308 143.289 251.308 143.289 251.29 143.207C251.272 143.125 251.26 142.99 251.242 142.907C251.251 142.828 251.242 142.907 251.239 142.934C251.242 142.907 251.248 142.855 251.227 142.799C251.212 142.69 251.224 142.584 251.256 142.534L251.241 142.666L251.244 142.64L251.25 142.587C251.256 142.534 251.259 142.508 251.259 142.508C251.259 142.508 251.262 142.481 251.264 142.455C251.267 142.428 251.267 142.428 251.27 142.402C251.273 142.375 251.302 142.352 251.305 142.325C251.273 142.375 251.27 142.402 251.27 142.402C251.343 142.222 251.387 142.066 251.239 141.943C251.35 141.661 251.518 141.598 251.592 141.66C251.692 141.724 251.675 141.883 251.578 142.033C251.516 142.107 251.455 142.181 251.37 142.225C251.34 142.249 251.255 142.293 251.255 142.293C251.229 142.29 251.199 142.314 251.173 142.311L251.143 142.334L251.117 142.332L250.979 142.37L250.952 142.367C250.897 142.388 250.867 142.412 250.811 142.432C250.726 142.477 250.644 142.495 250.591 142.489C250.673 142.471 250.838 142.435 250.92 142.417C250.756 142.453 250.673 142.471 250.617 142.492C250.562 142.512 250.562 142.512 250.509 142.507C250.668 142.524 250.8 142.538 250.962 142.529C251.123 142.52 251.264 142.455 251.453 142.448C251.447 142.501 251.441 142.554 251.438 142.581C251.432 142.634 251.427 142.686 251.397 142.71C251.45 142.716 251.447 142.742 251.474 142.745C251.283 142.778 251.148 142.79 251.454 142.93C251.878 142.976 252.328 143.025 252.68 142.983C252.343 143.134 251.99 143.176 251.666 143.194C251.872 143.27 252.014 143.446 252.109 143.564C252.227 143.71 252.347 143.831 252.577 143.695C252.389 143.942 252.178 144.16 251.946 144.323C252.164 144.534 252.382 144.745 252.574 144.953C252.298 145.03 252.177 144.91 252.259 144.651C252.238 144.836 251.733 144.808 251.436 144.83C251.139 144.851 250.992 144.969 251.596 145.57C251.123 145.492 250.905 145.522 250.682 145.605C250.461 145.661 250.262 145.774 249.885 145.786C250.757 146.149 250.024 146.98 250.671 146.943C250.643 147.448 250.026 146.712 249.756 146.736C249.789 147.168 250.388 147.822 250.779 147.918L250.314 147.761L250.432 147.908L249.923 147.665C249.998 148.209 250.404 148.413 250.27 148.667L249.745 148.074L249.881 148.544C249.73 148.206 249.492 148.181 249.295 148.266L249.413 148.413L249.143 148.437C249.626 148.677 249.061 148.696 249.5 149.092C249.351 149.236 249.351 149.236 248.963 149.355L248.691 148.897C248.026 148.852 249.158 149.537 248.885 149.829L248.51 149.333C248.704 150.505 247.396 149.48 247.498 150.267C247.771 150.217 248.188 150.824 248.07 150.677C247.661 150.74 247.312 151.238 246.547 150.887C247.025 151.662 247.164 151.865 247.13 152.423C246.901 152.559 246.798 152.521 246.403 152.211C246.437 152.643 245.719 152.592 246.12 153.09C245.728 152.753 246.015 153.32 245.612 153.089L245.774 153.321L245.37 152.848C245.921 154.194 244.249 152.807 244.682 154.006L244.862 154.079L244.544 154.044C244.706 154.276 244.862 154.32 245.128 154.59L244.512 155.326L244.323 154.85C244.126 154.936 243.628 154.588 243.714 155.026C244.606 155.444 243.5 155.27 243.949 155.828L244.266 155.862C244.037 155.998 244.037 155.998 243.63 155.552C243.219 155.641 244.268 156.585 243.574 156.322L243.726 156.152C243.519 155.835 243.063 155.598 242.943 155.719C242.987 155.804 243.091 156.083 243.226 156.071C242.85 156.083 242.766 156.61 242.507 156.528C242.534 156.772 242.879 157.05 243.032 157.121C242.223 157.167 242.921 157.403 242.112 157.449L242.354 157.69L241.915 157.535L242.238 158.266L241.987 157.864C241.817 157.953 241.531 157.868 241.523 158.189L241.947 158.476C241.336 158.677 242.1 159.537 241.203 159.413C241.247 159.498 241.427 159.571 241.506 159.58C240.568 159.344 241.918 160.481 240.855 160.152C241.005 160.248 241.118 160.448 241.241 160.542L240.847 160.472L241.357 160.956L240.482 160.379L240.898 160.987L240.595 160.82C241.386 161.923 240.444 161.473 240.932 162.409L240.333 161.755C239.376 161.437 239.24 161.958 239.174 162.567C239.105 163.202 239.133 163.928 238.481 164.018L238.994 164.475L238.111 164.219C238.374 164.756 238.641 164.518 238.85 164.808C238.253 164.877 237.972 164.258 237.464 164.497C237.622 165.023 237.915 164.787 238.177 164.842C237.601 164.967 236.819 165.257 236.871 165.772C236.797 165.71 236.697 165.646 236.673 165.617C236.215 165.647 236.157 166.176 235.89 166.415C236.135 166.629 236.247 166.588 236.355 166.573C236.288 166.699 236.339 166.973 236.033 166.832L236.563 167.131C236.478 167.416 235.699 167.439 236.177 167.973C235.985 167.765 235.593 167.427 235.464 167.628C236.181 168.428 234.694 167.812 234.861 168.5C235.088 168.631 235.319 168.469 235.261 168.516C235.332 168.845 234.844 168.658 234.479 168.565L234.826 168.817L233.777 169.105C234.494 169.906 233.102 169.648 233.721 170.117C233.531 170.391 233.537 169.588 233.191 169.818C233.445 170.194 232.774 169.96 233.316 170.394L233.396 170.403L233.161 170.592L233.797 170.901C233.521 170.979 232.885 170.669 232.492 170.332C232.632 170.775 232.173 170.806 232.575 171.305L232.757 171.351C232.108 171.656 233.442 173.434 232.226 173.034C232.271 173.119 232.418 173.242 232.453 173.166L232.228 173.516L232.681 173.78L231.637 173.774L231.908 173.991C231.727 174.426 231.12 174.842 230.653 175.193L230.836 175.24C230.018 175.366 230.682 175.919 230.082 176.015C230.156 176.077 230.208 176.082 230.235 176.085L229.936 176.374L230.239 176.541C229.465 176.27 230.363 177.867 230.024 177.294C229.659 177.201 229.153 177.173 228.805 176.921C228.476 177.234 229.059 177.297 229.092 177.729C228.902 178.003 228.407 177.628 228.347 178.184L228.618 178.4C228.418 178.513 228.156 178.458 227.924 178.62L228.107 178.666C227.239 178.519 228.466 179.803 227.073 179.063C227.144 179.392 226.727 179.534 227.24 179.992C226.502 180.126 226.023 180.342 225.409 180.57C226.173 181.429 225.271 180.609 225.488 181.328L225.054 180.88C224.403 181.452 224.828 183.212 223.998 183.711L224.431 184.159L223.824 183.826C223.693 184.052 223.558 184.306 223.397 184.556C223.236 184.806 223.075 185.057 222.917 185.281C222.571 185.752 222.231 186.17 221.955 186.488C221.532 186.443 220.725 186.221 220.571 186.66L220.674 186.698C219.869 186.959 219.134 187.307 218.775 188.152C218.999 188.31 219.058 188.504 219.241 188.551C218.637 188.191 218.859 188.858 218.736 189.005L218.703 188.573C218.143 188.298 218.286 188.956 218.484 189.352L217.76 189.113C217.781 189.169 217.822 189.281 217.869 189.339L217.595 189.149L217.997 189.889C217.815 189.842 217.286 190.026 216.67 189.531C216.832 189.763 216.683 190.148 217.013 190.077C216.731 190.448 216.424 190.816 216.116 191.185L216.1 190.835C215.725 190.339 215.137 190.329 215.179 190.681C215.721 190.874 215.751 191.333 215.973 191.758C215.611 191.639 215.763 191.227 215.462 191.033C215.024 190.879 214.498 191.036 214.575 191.312L214.831 191.42C214.425 191.457 214.996 192.375 214.711 192.532C214.169 192.339 214.306 192.809 213.674 191.964C213.21 192.048 214.005 192.616 213.959 192.798C213.505 192.535 213.227 193.121 213.496 193.605C212.355 192.518 212.943 194.75 212.088 193.747L212.243 194.541C212.03 194.277 211.505 193.684 211.179 193.729C211.183 194.185 211.617 194.633 211.768 194.971L210.853 194.015C210.662 195.039 210.011 195.611 209.33 196.207C208.978 196.49 208.626 196.773 208.294 197.112C207.963 197.451 207.708 197.825 207.498 198.284C207.113 198.376 206.628 198.404 206.19 198.49C205.725 198.574 205.281 198.713 204.953 199.026L205.13 199.125L204.567 199.868L204.818 199.038C204.579 199.012 204.329 198.851 204.182 198.969C203.626 199.9 202.824 201.125 201.465 201.058C200.124 200.083 201.607 202.466 200.47 201.834C200.594 201.928 200.709 202.101 200.83 202.221C199.876 202.118 199.397 202.092 198.296 201.625C198.985 202.931 197.82 201.814 198.201 202.498L197.882 201.982C197.866 202.382 197.54 202.668 197.767 203.041L197.157 202.492L197.362 203.077C196.936 203.299 195.821 203.205 196.06 204.462C195.333 204.25 194.571 204.354 193.819 204.621C193.07 204.861 192.33 205.263 191.651 205.591C191.294 205.178 190.883 205.267 190.53 205.309L190.388 206.124C190 206.001 189.389 205.212 189.196 205.754C189.214 205.836 189.261 205.894 189.285 205.924C188.917 205.857 188.677 206.34 188.205 205.753C187.844 205.875 187.551 206.352 187.829 206.998C187.677 206.419 187.481 206.505 187.322 206.729C187.164 206.953 187.042 207.341 187.042 207.341C187.042 207.341 186.959 207.359 186.818 207.424C186.68 207.463 186.457 207.545 186.204 207.652C185.928 207.729 185.596 207.827 185.208 207.946C184.82 208.064 184.38 208.177 183.883 208.311C181.902 208.792 179.118 209.267 176.077 209.152C174.556 209.094 172.994 208.925 171.479 208.573C170.719 208.411 169.966 208.195 169.268 207.959C168.906 207.839 168.574 207.696 168.211 207.577C167.879 207.433 167.549 207.264 167.216 207.121C166.886 206.951 166.583 206.784 166.28 206.617C165.976 206.451 165.705 206.234 165.431 206.044C164.883 205.663 164.391 205.261 163.984 204.816C163.576 204.37 163.222 203.93 162.953 203.445C162.684 202.961 162.495 202.485 162.364 201.962C162.457 201.356 162.193 200.819 162.633 200.224C162.429 199.881 161.846 200.808 162.018 200.211C162.6 200.033 162.552 198.742 163.251 198.229L163.062 197.994C163.187 197.579 163.187 198.57 163.453 197.849L163.07 198.906C163.347 198.829 163.552 198.663 163.775 198.339C163.776 198.822 163.321 200.299 164.038 199.867L163.943 199.75C164.297 199.949 164.436 199.161 164.585 199.016C164.559 199.013 164.532 199.011 164.509 198.981C164.685 198.84 164.861 198.698 165.037 198.556C164.658 198.837 164.608 197.814 164.806 197.969C165.355 197.841 164.595 198.187 164.863 198.431C165.037 198.556 165.206 197.986 165.323 197.65L165.652 197.82C165.813 197.328 165.417 197.768 165.736 197.293L165.985 197.963C166.493 196.733 166.276 198.744 166.878 197.631C166.654 197.232 167.057 197.222 167.129 196.802L167.874 197.097C167.997 196.949 167.79 196.632 167.885 196.75C168.134 196.428 168.03 197.14 168.109 197.149C168.279 196.819 168.677 197.344 168.878 196.482C169.541 196.045 168.808 197.626 169.439 197.239C169.629 196.724 169.088 197.014 169.434 196.543L169.882 196.859C169.884 196.591 169.976 195.986 169.78 196.071C170.138 195.976 170.511 195.749 170.837 195.463C171.162 195.177 171.497 194.811 171.769 194.52C172.368 193.942 172.849 193.458 173.365 193.889C173.592 193.271 173.305 193.454 173.245 193.019C173.569 193.483 173.895 193.197 174.211 192.749C174.525 192.328 174.797 191.795 175.109 191.882L175.078 192.414C175.593 191.613 176.064 191.477 176.575 191.452C176.819 191.425 177.087 191.427 177.331 191.4C177.575 191.373 177.851 191.296 178.086 191.107L177.993 191.472C178.153 191.971 178.391 191.997 178.58 192.232C178.582 191.964 178.38 191.112 178.707 191.308C178.661 191.491 178.558 191.694 178.609 191.967C179.007 191.26 179.659 190.929 180.382 190.686C180.746 190.538 181.134 190.42 181.495 190.298C181.86 190.15 182.227 189.976 182.547 189.743C183.055 189.744 183.549 189.637 184.019 189.501C184.519 189.34 184.998 189.125 185.476 188.909C186.437 188.45 187.347 187.96 188.332 187.772C188.029 187.846 188.6 189.006 188.72 188.644C188.628 187.51 188.925 187.488 189.237 187.576C189.552 187.637 189.911 187.783 189.947 186.956C190.633 187.057 191.011 186.536 191.454 186.156C191.87 185.772 192.331 185.474 193.212 185.998L192.952 185.434C192.96 185.114 193.216 185.463 193.381 185.427L193.289 185.283C193.547 184.883 194.289 185.204 194.356 184.837L194.693 185.435C194.942 185.355 194.535 184.91 194.968 185.117L194.788 184.803L195.357 185.24C194.722 184.18 195.938 184.821 195.816 184.218C196.189 184.232 197.004 184.374 197.294 183.923C197.037 183.333 197.553 183.014 197.711 182.549C198.41 182.277 199.421 181.851 200.063 181.117L200.5 181.78L200.726 181.671C200.634 181.527 200.59 181.442 200.516 181.38C200.152 180.538 201.145 181.261 200.994 180.682C201.325 181.334 200.918 180.888 200.827 180.986C200.887 181.421 201.503 181.916 201.475 181.431L201.357 181.284L201.761 181.515C201.415 180.996 201.37 180.67 201.025 180.15C201.759 179.801 202.86 180.269 203.37 179.521C202.86 179.037 203.96 179.263 203.058 178.442C203.752 178.464 203.613 179.252 204.309 179.756C204.4 179.659 204.732 179.802 204.476 179.453C204.228 179.265 204.115 178.825 203.93 178.805L204.267 178.654C204.223 178.569 204.073 178.472 203.996 178.437C204.979 178.517 204.442 177.039 205.366 177.166C205.682 177.468 205.258 177.422 205.574 177.724C206.618 177.971 205.462 176.775 206.312 176.84L205.817 176.465C206.226 176.643 206.645 176.983 206.546 176.41C206.098 175.853 205.958 176.159 205.625 176.016C205.748 175.869 206.285 175.606 206.596 176.201C206.946 176.186 206.6 175.666 206.573 175.422C206.694 175.543 206.704 175.945 207.04 176.062C207.044 175.527 207.46 175.144 207.739 174.799C207.618 174.679 207.453 174.473 207.376 174.438C208.289 174.912 207.177 173.801 207.68 173.614Z" fill="#FF7800"/>
<path d="M227.463 157.415L227.414 157.624C227.29 157.53 227.169 157.41 226.96 157.361L227.463 157.415Z" fill="#FF7800"/>
<path d="M221.554 164.728C221.501 164.722 221.451 164.69 221.375 164.655C221.431 164.634 221.481 164.666 221.554 164.728Z" fill="#FF7800"/>
<path d="M219.133 165.564C219.351 165.534 219.404 165.78 219.493 165.951C219.369 165.857 219.246 165.763 219.133 165.564Z" fill="#FF7800"/>
<path d="M232.523 154.723C232.444 154.715 232.37 154.653 232.276 154.536C232.376 154.6 232.452 154.635 232.523 154.723Z" fill="#FF7800"/>
<path d="M243.344 145.345C243.314 145.369 243.258 145.39 243.152 145.378C243.161 145.299 243.241 145.307 243.344 145.345Z" fill="#FF7800"/>
<path d="M229.848 157.165C229.792 157.185 229.71 157.203 229.583 157.136C229.668 157.092 229.771 157.13 229.848 157.165Z" fill="#FF7800"/>
<path d="M242.914 145.352L242.785 145.553C242.762 145.523 242.738 145.494 242.688 145.462L242.914 145.352Z" fill="#FF7800"/>
<path d="M243.468 143.699C243.407 143.772 243.319 143.843 243.307 143.949C243.277 143.731 243.339 143.658 243.468 143.699Z" fill="#FF7800"/>
<path d="M237.034 151.41L237.008 151.407C236.669 151.317 236.828 151.334 237.034 151.41Z" fill="#FF7800"/>
<path d="M241.396 145.027L241.393 145.054L241.216 144.954L241.396 145.027Z" fill="#FF7800"/>
<path d="M244.01 142.9C243.954 142.921 243.928 142.918 243.854 142.857C243.86 142.804 243.889 142.78 243.895 142.727C243.942 142.786 243.989 142.845 244.01 142.9Z" fill="#FF7800"/>
<path d="M238.588 148.445C238.812 148.603 238.935 148.697 239.03 148.814C238.974 148.835 238.844 148.794 238.588 148.445Z" fill="#FF7800"/>
</g>
<defs>
<clipPath id="clip0_9_558">
<rect width="372.442" height="227.94" fill="white" transform="matrix(0.99418 0.107734 0.107734 -0.99418 0 226.731)"/>
</clipPath>
</defs>
</svg>
