<svg width="183" height="197" viewBox="0 0 183 197" fill="none" xmlns="http://www.w3.org/2000/svg">
<path d="M104.879 126.761C104.954 126.702 105.028 126.642 105.131 126.546C105.01 126.628 104.921 126.706 104.879 126.761Z" fill="#FF7800"/>
<path d="M101.372 120.169L101.549 120.129C101.493 120.086 101.447 120.109 101.372 120.169Z" fill="#FF7800"/>
<path d="M107.222 130.45C107.208 130.469 107.175 130.473 107.161 130.491C107.202 130.552 107.244 130.613 107.344 130.748L107.222 130.45Z" fill="#FF7800"/>
<path d="M92.4242 107.605L92.4973 107.661C92.4747 107.615 92.4704 107.582 92.4242 107.605Z" fill="#FF7800"/>
<path d="M97.6131 115.164C97.4921 115.246 97.4272 115.255 97.3581 115.231C97.3667 115.296 97.4359 115.319 97.6131 115.164Z" fill="#FF7800"/>
<path d="M103.72 137.05L103.979 136.635C103.829 136.755 103.707 136.953 103.72 137.05Z" fill="#FF7800"/>
<path d="M108.34 136.237C108.275 136.245 108.196 136.272 108.098 136.285C108.153 136.328 108.19 136.356 108.34 136.237Z" fill="#FF7800"/>
<path d="M107.973 136.335C108.019 136.312 108.052 136.308 108.098 136.285C108.066 136.29 108.047 136.276 107.973 136.335Z" fill="#FF7800"/>
<path d="M52.0014 69.6221C51.9375 69.5149 51.5974 69.6925 51.2996 69.8148L52.0014 69.6221Z" fill="#FF7800"/>
<path d="M82.9615 97.5068L83.1113 97.3875C83.0505 97.4287 83.0223 97.4656 82.9615 97.5068Z" fill="#FF7800"/>
<path d="M48.9015 72.4158L48.9167 72.2813C48.8787 72.3691 48.8831 72.4017 48.9015 72.4158Z" fill="#FF7800"/>
<path d="M101.206 136.294C100.79 136.531 100.995 135.958 100.672 136.266C100.811 136.314 100.696 136.693 101.206 136.294Z" fill="#FF7800"/>
<path d="M68.2472 107.815L68.1602 107.778C68.1967 107.806 68.215 107.82 68.2472 107.815Z" fill="#FF7800"/>
<path d="M48.9013 72.4159L48.9045 72.564C48.9607 72.4905 49.0029 72.4354 49.045 72.3803C48.9845 72.4214 48.9197 72.43 48.9013 72.4159Z" fill="#FF7800"/>
<path d="M73.0431 87.0893C73.0755 87.085 73.0896 87.0666 73.122 87.0623L73.0431 87.0893Z" fill="#FF7800"/>
<path d="M73.0627 85.9955C73.1463 86.0009 73.2114 85.9923 73.2949 85.9977C73.2678 85.9185 73.1886 85.9456 73.0627 85.9955Z" fill="#FF7800"/>
<path d="M51.2998 69.8147L50.8857 69.936C50.9876 69.9555 51.1275 69.8873 51.2998 69.8147Z" fill="#FF7800"/>
<path d="M66.8235 80.61C66.8418 80.624 66.874 80.6197 66.9245 80.6294C66.902 80.5832 66.8697 80.5875 66.8235 80.61Z" fill="#FF7800"/>
<path d="M97.812 115.782C97.8022 115.833 97.7881 115.851 97.7783 115.902C97.8673 115.824 97.9096 115.769 97.812 115.782Z" fill="#FF7800"/>
<path d="M85.5129 120.264C85.5281 120.129 85.1837 120.275 84.8761 120.448C84.9681 120.518 85.0981 120.501 85.5129 120.264Z" fill="#FF7800"/>
<path d="M84.627 119.82C84.6129 119.838 84.6173 119.871 84.6032 119.889C84.6129 119.838 84.6129 119.838 84.627 119.82Z" fill="#FF7800"/>
<path d="M88.2045 124.832C88.2188 124.813 88.2188 124.813 88.2331 124.795C88.2518 124.809 88.2188 124.813 88.2045 124.832Z" fill="#FF7800"/>
<path d="M87.3036 124.026C87.36 123.953 87.3839 123.883 87.3937 123.832C87.3514 123.887 87.3134 123.975 87.3036 124.026Z" fill="#FF7800"/>
<path d="M71.1202 112.872C72.1294 113.499 73.8361 113.9 74.4154 114.897C75.2916 114.4 75.5536 114.63 75.9651 114.74L75.0802 115.668L75.5816 115.585C75.3975 115.94 75.2524 115.596 75.0531 116.085L75.7018 115.618C75.3834 115.959 76.019 116.386 75.0151 116.669L75.8369 117.502C75.9972 117.712 76.7099 116.856 76.6828 117.273C76.4575 117.568 76.4315 117.373 76.1131 117.713C76.036 118.996 78.5889 116.689 78.7187 117.664L78.5465 117.736C78.8909 117.591 79.0371 117.82 79.1681 117.686C80.0303 116.712 78.5757 118.079 78.944 117.369C79.739 116.635 79.5808 117.185 80.1614 116.579C80.0184 116.995 80.5318 116.629 80.7072 116.704C80.4179 117.388 81.0396 117.338 80.5738 118.061C80.9182 117.916 81.7912 117.271 82.0305 117.454C81.569 118.21 81.4088 118 81.3816 118.417L81.8723 118.004C81.9535 118.241 81.8181 118.342 81.5982 118.553C81.7585 118.763 82.3629 118.088 82.2837 118.611L81.7292 118.916C82.0584 118.905 82.0616 119.054 82.2305 119.329C81.9641 119.563 81.8861 119.474 81.9013 119.339C81.3608 120.122 82.3887 119.275 82.3919 119.423C82.5793 119.216 82.5122 118.96 83.0256 118.595C83.0515 118.789 83.8725 118.25 83.4219 118.839L82.8674 119.145C83.4479 119.034 83.5714 118.72 83.646 119.157C83.5994 119.179 83.4825 119.294 83.3937 119.372C84.1345 118.976 83.8355 119.71 84.0412 120.013L83.869 120.086C84.1289 120.051 84.5773 119.694 84.6087 119.806C84.7192 119.394 84.8914 119.321 85.3268 118.867C84.7711 119.784 86.477 118.317 86.3448 119.062C86.0784 119.296 85.682 119.547 85.8802 119.173C85.0072 119.819 84.3292 120.438 83.8039 120.591C84.1104 120.533 84.3465 120.568 84.0053 120.861L84.744 120.201C84.836 120.271 84.849 120.369 84.9042 120.411C85.3949 119.998 85.5011 119.554 85.9614 119.41C86.3697 119.373 85.3277 120.239 85.6689 119.945C86.2115 119.923 86.5419 119.3 86.5559 119.778C86.4768 119.805 86.3046 119.877 86.3425 119.79C86.2223 120.252 86.9143 120.11 86.09 120.997C85.8799 121.157 85.5994 121.41 85.6146 121.275L85.7456 121.142C84.9398 121.547 86.0748 121.131 85.243 121.837C85.6925 121.364 85.8235 121.727 85.8679 121.936L86.3553 121.375C88.2853 120.225 85.2982 122.376 85.8667 122.548C86.4472 122.437 85.9339 122.307 86.4364 122.108C86.5035 122.364 86.0908 122.865 86.5403 122.888C86.394 123.155 86.251 123.571 85.6661 124.145C86.0517 124.061 85.8263 124.851 86.4891 124.366C86.7557 123.636 85.6281 124.729 86.134 123.686L86.7969 123.201C86.9615 123.444 87.4856 123.407 87.4314 123.745C87.5116 123.602 87.6567 123.45 87.7921 123.349C88.2827 123.433 88.9455 122.948 89.0386 123.398C88.5512 123.959 88.4841 123.704 88.3086 123.628C88.0573 124.223 88.4548 123.856 88.562 124.289C88.1125 124.762 88.4017 124.078 87.9251 124.473L88.3594 124.63C88.3312 124.666 88.2847 124.689 88.2565 124.726C89.0699 124.006 88.4113 125.02 88.8196 124.982C89.2419 125.421 90.3402 124.482 91.1871 124.137C91.0409 124.405 90.8719 124.626 90.6434 124.772C90.8654 124.329 90.6217 124.609 90.3932 124.756C90.6195 124.841 89.9566 125.822 89.5559 126.041C90.0053 126.064 89.8711 125.553 90.2566 125.468L90.5219 125.846C90.8783 125.418 90.8523 125.223 91.3169 125.112C91.553 125.147 91.5562 125.295 91.7165 125.505C91.5064 125.665 91.1727 126.14 91.0536 125.99C90.9865 126.231 91.1056 126.38 91.5442 126.074C91.7024 125.524 92.207 126.085 92.6684 125.329L92.5103 125.879C92.4691 125.818 92.207 126.085 92.2178 125.918C91.6741 126.552 92.5471 125.907 92.6673 125.941C92.6098 126.13 92.756 126.359 92.5405 126.602C92.7592 126.507 92.7798 126.785 92.5263 127.117C92.7397 127.105 92.9238 126.75 93.1339 126.589L93.3992 126.967C93.0808 127.307 92.1958 128.235 92.0236 128.308C92.4471 128.136 93.0428 127.395 93.189 127.624C92.4471 128.136 92.9225 128.354 92.0268 128.952C91.6552 129.514 91.9584 129.805 92.3061 129.808C92.9169 129.429 92.4263 129.346 92.9549 128.845C93.6057 129.139 95.0604 127.771 95.1383 128.356L95.2054 128.116C95.7069 128.032 95.6137 128.078 96.1867 127.787C95.4859 128.359 94.694 129.738 95.1694 129.956C95.529 129.676 95.6082 129.153 96.1595 128.7L96.4919 128.837C96.4681 128.906 96.3284 128.975 96.2211 129.039C96.6662 129.029 95.7553 130.258 96.573 129.57L95.8483 130.708L96.1636 130.22C96.5047 129.927 96.8231 130.083 96.9953 130.01C97.5758 129.9 97.3916 130.255 97.1176 130.804C97.3429 130.509 97.8455 129.814 98.1368 129.891C97.0981 130.906 98.1248 130.67 97.5821 131.188C97.6742 131.259 97.4705 131.716 97.9102 131.294L97.2506 131.927C98.1767 131.06 98.4008 131.377 98.7712 131.427C97.4855 132.574 99.1036 131.564 98.0725 132.76C98.9606 131.98 98.758 132.817 99.5292 132.153C99.7273 132.275 98.9323 133.009 98.7113 133.336L99.0937 133.103C98.7925 133.573 99.021 133.923 98.9332 134.381L99.8516 133.829L99.5743 134.23C99.7845 134.069 100.039 134.118 100.237 133.745L100.287 133.87C101.092 133.085 100.64 133.79 101.165 133.638C101.071 133.799 100.865 133.992 100.726 134.06C100.804 134.149 100.341 134.524 100.134 134.833C100.28 134.566 101.906 133.737 102.042 133.141C102.36 132.801 102.746 132.716 102.678 132.957L102.004 133.724L102.876 133.079C103.113 133.114 102.718 133.629 102.744 133.824C102.587 133.762 101.088 134.921 101.41 135.225C101.169 135.158 100.684 135.487 100.443 135.536C100.47 135.615 100.436 135.735 100.031 135.921C100.481 135.944 100.563 135.57 100.863 135.711C100.203 136.345 100.057 136.612 100.03 137.029L100.36 136.407C100.449 136.329 100.51 136.288 100.556 136.265C100.571 136.13 100.656 136.02 100.886 135.758C100.927 135.819 101.957 135.235 101.6 135.663C102.395 134.433 102.777 135.308 103.256 134.566C103.467 134.406 103.665 134.528 103.365 134.882C102.676 135.172 102.754 135.757 102.296 136.165C102.561 136.047 102.626 135.543 102.97 135.398C103.127 135.459 102.812 135.948 102.666 136.215L102.494 136.288L102.373 136.75C102.733 136.471 102.742 136.04 103.089 136.043C102.981 136.223 103.329 136.226 103.062 136.46C102.53 136.812 102.005 137.461 101.751 137.412C101.908 137.474 102.345 137.779 102.825 137.037L102.93 137.205C103.114 136.85 103.381 136.12 103.736 136.304L103.605 136.437L104.294 136.147L104.035 136.562C104.194 136.392 104.376 136.269 104.44 136.376C104.252 136.583 104.256 136.731 103.975 136.983C104.214 137.166 104.533 136.826 104.743 136.666C104.9 136.728 104.81 136.922 104.371 137.228C104.439 137.484 104.794 137.668 104.558 138.129C105.059 138.046 104.666 137.949 105.22 137.644C104.253 138.947 105.488 138.782 105.963 139C106.863 137.938 106.177 138.988 107.125 138.167C106.743 138.4 106.675 139.253 106.091 139.215L106.368 139.31C105.945 139.978 105.653 139.405 105.098 140.322C105.337 140.505 106.551 139.567 106.434 140.177C105.654 140.777 106.842 140.14 106.025 140.827C105.721 141.033 105.732 140.866 105.616 140.865L105.508 141.045C105.761 141.705 106.46 140.372 107.19 140.143C107.564 140.341 106.844 140.9 106.544 141.254C106.436 141.434 106.705 141.464 106.956 141.364C106.36 141.609 107.088 140.619 107.602 140.253C106.912 141.155 107.931 140.739 108.345 140.501C108.793 139.268 108.121 140.184 108.662 138.905C108.359 139.111 107.643 139.818 107.722 139.295C108.224 139.096 108.115 138.895 108.177 138.738C107.806 139.184 107.848 138.749 107.615 138.863C107.892 138.462 108.698 138.057 108.646 137.667L107.627 138.58C107.694 138.34 108.365 137.92 107.957 137.957C108.568 137.579 108.711 137.163 109.122 137.273C109.652 136.161 108.21 137.246 107.629 137.356C107.708 137.329 107.839 137.196 107.932 137.151C107.629 137.356 107.547 137.235 107.431 137.234C107.495 136.845 107.985 136.929 108.211 136.634L107.93 136.39C107.958 136.354 107.972 136.335 107.987 136.317C107.796 136.375 107.634 136.397 107.863 136.135C108.245 135.902 108.605 135.623 108.908 135.417L107.968 135.807C108.328 135.527 108.314 135.05 108.722 135.012L108.191 134.752L108.828 134.072C108.615 134.084 108.484 134.217 108.51 134.412C108.522 134.129 106.776 134.924 108.141 133.75C107.309 133.96 107.4 133.65 106.696 133.579C107.584 133.295 107.147 132.494 107.73 132.532C107.851 132.069 107.094 132.716 106.843 132.699C106.986 132.284 107.706 131.725 108.073 131.626L107.608 131.738L107.739 131.605L107.223 131.822C107.422 131.333 107.86 131.142 107.778 130.905L107.171 131.432L107.393 130.99C107.168 131.284 106.954 131.296 106.797 131.234L106.928 131.101L106.692 131.066C107.176 130.853 106.69 130.802 107.175 130.473C107.089 130.319 107.075 130.338 106.76 130.214L106.404 130.642C105.782 130.691 106.971 130.054 106.788 129.797L106.352 130.252C106.803 129.167 105.357 130.103 105.623 129.373C105.86 129.408 106.365 128.861 106.234 128.995C105.864 128.945 105.637 128.479 104.869 128.796C105.45 128.074 105.638 127.867 105.717 127.344C105.519 127.222 105.44 127.249 104.987 127.573C105.097 127.162 104.429 127.234 104.879 126.761C104.459 127.082 104.816 126.538 104.401 126.775L104.589 126.568L104.153 127.023C104.907 125.732 103.123 127.111 103.714 125.958L103.886 125.885L103.579 125.942C103.767 125.736 103.939 125.663 104.201 125.397L103.734 124.748L103.512 125.191C103.355 125.129 102.838 125.462 102.966 125.065C103.865 124.615 102.806 124.855 103.312 124.308L103.619 124.251C103.42 124.128 103.42 124.128 102.971 124.602C102.601 124.552 103.699 123.612 103.024 123.884L103.129 124.051C102.904 124.346 102.428 124.624 102.346 124.503C102.384 124.415 102.53 124.148 102.664 124.163C102.335 124.174 102.321 123.696 102.07 123.796C102.123 123.574 102.464 123.28 102.636 123.208C101.881 123.242 102.569 122.952 101.813 122.987L102.08 122.753L101.656 122.925L102.025 122.214L101.747 122.615C101.59 122.553 101.339 122.653 101.351 122.37L101.79 122.064C101.244 121.938 102.068 121.051 101.218 121.247C101.256 121.16 101.428 121.087 101.521 121.042C100.619 121.344 101.998 120.151 100.979 120.568C101.128 120.449 101.255 120.283 101.372 120.169L100.991 120.286L101.519 119.785L100.646 120.431L101.111 119.823L100.822 120.01C101.681 118.888 100.744 119.426 101.281 118.494L100.644 119.174C98.8054 120.014 100.296 117.303 99.109 117.329L99.6376 116.829L98.7906 117.173C99.0831 116.638 99.3224 116.821 99.5293 116.512C98.9867 116.535 98.6563 117.158 98.2037 116.986C98.403 116.497 98.6423 116.68 98.9077 116.562C98.3749 116.534 97.6764 116.379 97.7782 115.902C97.7035 115.962 97.6006 116.058 97.5865 116.077C97.1782 116.114 97.1642 115.637 96.9249 115.454C97.1589 115.224 97.2607 115.244 97.3581 115.231C97.3268 115.119 97.3755 114.865 97.0679 115.038L97.5997 114.686C97.5326 114.43 96.8178 114.526 97.3237 113.979C97.1363 114.186 96.7572 114.567 96.6197 114.403C97.3324 113.548 95.9017 114.35 96.1303 113.708C96.3404 113.548 96.5386 113.67 96.5158 113.624C96.6209 113.295 96.1455 113.574 95.8011 113.719L96.1606 113.439L95.2066 113.351C95.9193 112.496 94.6121 112.984 95.2338 112.439C95.0735 112.228 95.0344 112.928 94.702 112.79C94.9652 112.408 94.3316 112.741 94.8602 112.24L94.9392 112.213L94.7411 112.091L95.3519 111.712C95.1158 111.677 94.4909 112.075 94.0934 112.442C94.2364 112.026 93.8281 112.064 94.2224 111.548L94.3946 111.476C93.8261 111.303 95.1876 109.485 94.0374 110.035C94.0754 109.948 94.2248 109.828 94.2476 109.875L94.0462 109.604L94.4848 109.298L93.5188 109.493L93.7852 109.259C93.6542 108.896 93.1236 108.636 92.7273 108.391L92.8995 108.319C92.1436 108.353 92.8216 107.734 92.279 107.756C92.3538 107.697 92.4003 107.674 92.4187 107.688L92.1751 107.473L92.4784 107.267C91.7516 107.645 92.7309 106.059 92.3593 106.621C92.0149 106.767 91.5503 106.878 91.2091 107.171C90.9287 106.928 91.4864 106.771 91.5547 106.414C91.3945 106.204 90.9179 106.599 90.9039 106.121L91.1844 105.869C91.0274 105.807 90.7761 105.906 90.578 105.784L90.7502 105.712C89.9412 105.968 91.2008 104.626 89.8481 105.518C89.9532 105.189 89.5828 105.14 90.1114 104.639C89.4486 104.628 89.0371 104.518 88.5097 104.406C89.3156 103.505 88.3754 104.391 88.6831 103.722L88.2476 104.177C87.7322 103.782 88.3368 102.115 87.6491 101.793L88.0986 101.32L87.4878 101.699C87.1706 100.931 86.6552 100.04 86.2145 99.5866C85.829 99.671 85.0611 99.9882 85.0091 99.5984L85.1023 99.5529C84.4547 99.4077 83.845 99.1747 83.6708 98.487C83.8809 98.3268 83.9892 98.147 84.1614 98.0745C83.5506 98.4534 83.881 97.8308 83.803 97.742L83.5809 98.1849C83.0264 98.4902 83.2777 97.8946 83.541 97.5123L82.8521 97.8025C82.8944 97.7472 82.9323 97.6595 83.0211 97.5816L82.7503 97.783L83.2529 97.0878C83.0807 97.1603 82.6692 97.0498 82.0064 97.5348C82.1938 97.328 82.1646 96.9847 82.4007 97.0194L81.8853 96.1291L81.7802 96.4573C81.3448 96.912 80.8249 96.9813 80.9484 96.6672C81.465 96.4496 81.6081 96.0338 81.8897 95.6656C81.5453 95.8107 81.5745 96.154 81.2528 96.3456C80.8293 96.5178 80.4178 96.4072 80.55 96.1582L80.8012 96.0586C80.472 96.0694 81.1988 95.1955 81.0007 95.0731C80.484 95.2907 80.7202 94.8294 79.9523 95.6426C79.5819 95.5927 80.4169 95.0351 80.4137 94.8867C79.9382 95.165 79.8831 94.6267 80.2535 94.1806C78.9831 95.193 80.1053 93.1918 79.0861 94.1046L79.4544 93.3943C79.1739 93.6465 78.5663 94.1739 78.3302 94.1392C78.4732 93.7233 78.9638 93.3108 79.1891 93.0163L78.1288 93.8684C78.4193 92.0772 76.7212 91.7412 76.7464 90.068C76.1779 89.8958 75.279 89.8501 74.9737 89.2956L75.1459 89.2231L74.9857 88.517L74.8535 89.262C74.6401 89.2739 74.3889 89.3735 74.3109 89.2847C74.245 88.4172 74.1119 87.2941 73.0376 87.1727C71.5614 87.8818 73.7677 85.9512 72.6002 86.3712C72.74 86.303 72.9035 86.1655 73.0248 86.0832C72.2602 86.0528 71.8758 86.0213 70.835 86.2757C71.9712 85.2481 70.5545 86.032 71.1806 85.5187L70.6899 85.9312C70.8741 85.5761 70.7843 85.2739 71.1254 84.9805L70.3987 85.3583L70.8482 84.8851C70.6652 84.6284 69.8043 84.4951 70.6069 83.4458C69.3636 83.5453 68.688 82.4449 68.1543 81.5405C67.6788 81.8187 67.4395 81.6357 67.2413 81.5133L67.6096 80.8029C67.2804 80.8137 66.4183 81.2922 66.6176 80.8028C66.6924 80.7432 66.7205 80.7064 66.7671 80.6837C66.4942 80.6208 66.6329 80.1725 65.9668 80.5092C65.8066 80.2991 65.9268 79.8366 66.4965 79.397C65.5705 80.2644 66.2465 78.8848 66.2465 78.8848C66.2465 78.8848 59.1677 67.1962 51.945 69.6957C51.4132 70.0476 50.9118 70.131 50.4612 70.72C50.1319 70.7308 50.8447 69.8754 50.3681 70.2695C50.289 70.7926 49.1388 71.3425 48.7932 72.0995L48.5993 72.0096C48.2582 72.303 49.1571 71.8526 48.5495 72.3799L49.4376 71.6003C49.4213 71.8505 49.3033 72.0812 49.0639 72.3941C49.4971 72.1711 50.6983 71.1348 50.4502 71.8788L50.3299 71.8452C50.5693 72.0283 49.9205 72.4949 49.8122 72.6747L49.771 72.614L49.5197 73.2096C49.6627 72.7938 48.7638 73.2442 48.9392 73.32C48.9532 73.7976 49.0854 73.0525 49.3627 73.1479C49.5197 73.2096 49.0474 73.6363 48.781 73.8701L49.0203 74.0532C48.6228 74.4203 48.9012 73.9037 48.5817 74.3596L49.2412 74.2222C48.3 75.2238 49.9939 74.0393 49.1729 75.0745C48.7646 75.1123 48.8544 75.4145 48.5132 75.7079L49.0146 76.1206C48.9063 76.3004 48.5911 76.2927 48.7113 76.3263C48.5272 76.6815 49.0969 76.2419 49.1196 76.2885C48.8802 76.6014 49.478 76.621 48.8 77.2404C48.6678 77.9854 49.752 76.568 49.6902 77.221C49.3338 77.6487 49.3577 77.0834 49.0793 77.6L49.532 77.7711C49.3219 77.9314 48.8312 78.3439 48.8053 78.149C49.0986 79.4822 47.4293 81.9695 48.7018 82.2134C48.3302 82.7754 48.3195 82.4462 47.9187 82.6649C49.0829 82.5925 47.6282 84.4561 48.1436 84.8503L48.5412 84.4833C47.9582 86.3134 49.4408 86.397 49.6702 87.623L49.8544 87.2678C50.3299 86.9895 50.528 87.1119 50.8204 87.073C50.633 87.2798 49.9095 87.806 50.2799 87.8559C50.3882 87.6761 50.4229 87.4401 50.6515 87.2939C50.2559 88.9172 51.8077 90.0167 52.3219 91.5188C53.9895 92.6194 54.7234 94.9024 56.2979 96.0484C56.0585 95.8654 57.1189 95.0132 57.0365 95.3879C55.8352 97.4161 58.0426 95.8657 57.3557 97.412C58.6509 97.7025 57.9543 99.7958 59.9243 99.3185L59.4747 99.7917C59.3697 100.12 59.7108 99.8263 59.8863 99.9022L59.7552 100.035C59.8483 100.486 60.6421 100.364 60.5922 100.734L61.1208 100.234C61.319 100.356 60.8056 100.722 61.2659 100.578L60.9853 100.83L61.6742 100.54C60.7481 101.408 62.0585 101.068 61.7661 101.603C62.1364 101.653 62.9335 101.679 63.0493 102.176C62.655 102.691 63.0221 103.089 63.0361 103.566C63.6306 103.934 64.4644 104.484 64.9018 105.285L65.4683 104.697L65.6664 104.82C65.5354 104.953 65.4791 105.027 65.3859 105.072C64.8454 105.855 65.9545 105.244 65.662 105.779C66.1267 105.172 65.636 105.584 65.5537 105.463C65.6967 105.047 66.4007 104.623 66.2805 105.085L66.1494 105.218L66.5729 105.046C66.1234 105.519 66.0323 105.829 65.5828 106.302C66.2185 106.73 67.3719 106.329 67.6891 107.096C67.1194 107.536 68.2056 107.375 67.2157 108.135C67.8785 108.146 67.8905 107.367 68.6551 106.902C68.719 107.009 69.0634 106.864 68.7634 107.218C68.5208 107.382 68.2987 107.825 68.1503 107.829L68.4362 107.989C68.3983 108.077 68.2261 108.149 68.133 108.195C69.0838 108.134 68.3331 109.573 69.2612 109.466C69.6208 109.187 69.1941 109.211 69.5537 108.931C70.5988 108.709 69.3316 109.87 70.1622 109.776L69.6304 110.128C70.0539 109.956 70.5066 109.631 70.3484 110.181C69.861 110.742 69.7528 110.426 69.4083 110.571C69.5134 110.739 70.0029 110.938 70.3744 110.376C70.7036 110.365 70.2953 110.899 70.2422 111.121C70.3732 110.988 70.4415 110.632 70.7859 110.487C70.7068 111.01 71.0652 111.342 71.2893 111.66C71.1583 111.793 70.9709 112 70.8918 112.027C71.8741 111.582 70.6675 112.701 71.1202 112.872Z" fill="#FF7800"/>
<path d="M88.2305 125.027L88.2045 124.832C88.0875 124.947 87.9565 125.08 87.7659 125.139L88.2305 125.027Z" fill="#FF7800"/>
<path d="M83.3799 119.39C83.3332 119.413 83.2724 119.454 83.1932 119.482C83.2627 119.505 83.3375 119.446 83.3799 119.39Z" fill="#FF7800"/>
<path d="M81.2137 119.018C81.4086 118.992 81.4801 118.784 81.556 118.608C81.4671 118.686 81.3361 118.82 81.2137 119.018Z" fill="#FF7800"/>
<path d="M92.5677 126.681C92.4886 126.708 92.4138 126.768 92.3108 126.864C92.4365 126.815 92.5113 126.755 92.5677 126.681Z" fill="#FF7800"/>
<path d="M100.305 135.372C100.333 135.336 100.329 135.303 100.357 135.266C100.311 135.289 100.315 135.321 100.305 135.372Z" fill="#FF7800"/>
<path d="M100.665 134.101C100.647 134.087 100.61 134.059 100.498 134.09C100.521 134.137 100.586 134.128 100.665 134.101Z" fill="#FF7800"/>
<path d="M90.4067 124.853C90.3557 124.843 90.2906 124.852 90.1506 124.92C90.206 124.962 90.3134 124.898 90.4067 124.853Z" fill="#FF7800"/>
<path d="M100.299 134.084L100.245 133.925C100.217 133.962 100.17 133.985 100.142 134.022L100.299 134.084Z" fill="#FF7800"/>
<path d="M100.382 135.577C100.341 135.516 100.3 135.456 100.305 135.372C100.215 135.566 100.271 135.609 100.382 135.577Z" fill="#FF7800"/>
<path d="M96.2259 129.071C96.1933 129.075 96.2118 129.089 96.2259 129.071C95.8808 129.216 96.0392 129.162 96.2259 129.071Z" fill="#FF7800"/>
<path d="M98.9097 134.45L98.9054 134.418L98.7372 134.523L98.9097 134.45Z" fill="#FF7800"/>
<path d="M100.673 136.266C100.64 136.27 100.589 136.26 100.528 136.301C100.533 136.334 100.523 136.385 100.527 136.418C100.584 136.344 100.63 136.321 100.673 136.266Z" fill="#FF7800"/>
<path d="M97.1099 131.615C97.3384 131.469 97.4879 131.35 97.5724 131.239C97.5355 131.211 97.4283 131.275 97.1099 131.615Z" fill="#FF7800"/>
<path d="M92.3839 152.365C92.4077 152.296 92.4414 152.176 92.475 152.055C92.4088 152.18 92.3893 152.282 92.3839 152.365Z" fill="#FF7800"/>
<path d="M85.2152 148.691L85.3465 148.557C85.2629 148.552 85.2206 148.607 85.2152 148.691Z" fill="#FF7800"/>
<path d="M96.7469 154.214C96.7328 154.233 96.7371 154.265 96.723 154.284C96.7924 154.308 96.8802 154.346 97.0374 154.407L96.7469 154.214Z" fill="#FF7800"/>
<path d="M69.4673 142.918L69.5683 142.938C69.5318 142.91 69.5092 142.863 69.4673 142.918Z" fill="#FF7800"/>
<path d="M78.741 146.511C78.6751 146.635 78.6146 146.677 78.5681 146.699C78.6232 146.741 78.6881 146.733 78.741 146.511Z" fill="#FF7800"/>
<path d="M97.6914 161.678L97.659 161.185C97.6199 161.389 97.5993 161.607 97.6914 161.678Z" fill="#FF7800"/>
<path d="M102.711 160.761C102.706 160.728 102.72 160.71 102.73 160.66C102.702 160.696 102.706 160.728 102.711 160.761Z" fill="#FF7800"/>
<path d="M101.3 158.486C101.253 158.508 101.183 158.6 101.127 158.674C101.192 158.665 101.261 158.689 101.3 158.486Z" fill="#FF7800"/>
<path d="M101.042 158.784C101.071 158.747 101.099 158.71 101.127 158.674C101.095 158.678 101.062 158.682 101.042 158.784Z" fill="#FF7800"/>
<path d="M10.0115 132.716C9.87284 132.669 9.70277 133.006 9.50563 133.263L10.0115 132.716Z" fill="#FF7800"/>
<path d="M54.8283 139.511L54.9042 139.335C54.8619 139.391 54.838 139.46 54.8283 139.511Z" fill="#FF7800"/>
<path d="M8.98114 136.772L8.8987 136.651C8.92581 136.73 8.9627 136.758 8.98114 136.772Z" fill="#FF7800"/>
<path d="M94.9771 162.403C94.7366 162.831 94.5895 162.223 94.5017 162.681C94.6457 162.645 94.7626 163.026 94.9771 162.403Z" fill="#FF7800"/>
<path d="M48.0406 156.204L47.9434 156.217C47.9941 156.227 48.0266 156.223 48.0406 156.204Z" fill="#FF7800"/>
<path d="M8.98097 136.772L9.06342 136.893C9.06886 136.81 9.07429 136.726 9.07973 136.643C9.05585 136.712 9.01353 136.768 8.98097 136.772Z" fill="#FF7800"/>
<path d="M38.9048 135.151C38.9656 135.11 39.0448 135.083 39.1056 135.041C39.0318 134.985 38.9569 135.045 38.9048 135.151Z" fill="#FF7800"/>
<path d="M9.50589 133.263L9.21533 133.566C9.31289 133.553 9.41156 133.424 9.50589 133.263Z" fill="#FF7800"/>
<path d="M30.0018 133.972C30.0341 133.968 30.0663 133.964 30.0943 133.927C30.076 133.913 30.0298 133.936 30.0018 133.972Z" fill="#FF7800"/>
<path d="M79.3078 146.915C79.3306 146.961 79.3349 146.994 79.3577 147.041C79.3914 146.92 79.4153 146.851 79.3078 146.915Z" fill="#FF7800"/>
<path d="M71.1243 157.346C71.0421 157.225 70.8352 157.533 70.6792 157.852C70.781 157.871 70.8882 157.807 71.1243 157.346Z" fill="#FF7800"/>
<path d="M70.0337 157.475C70.038 157.507 70.0564 157.521 70.0607 157.554C70.038 157.507 70.0521 157.489 70.0337 157.475Z" fill="#FF7800"/>
<path d="M76.3399 159.76C76.3542 159.741 76.3355 159.727 76.3498 159.708C76.3355 159.727 76.3355 159.727 76.3399 159.76Z" fill="#FF7800"/>
<path d="M75.0251 159.571C75.0121 159.473 75.0034 159.408 74.9948 159.343C74.9893 159.427 75.0023 159.524 75.0251 159.571Z" fill="#FF7800"/>
<path d="M53.7076 158.905C54.9779 158.884 56.7682 158.299 57.9128 158.824C58.371 157.92 58.7598 157.984 59.1876 157.844L58.9578 159.098L59.3596 158.764C59.3975 159.172 59.0705 158.951 59.1906 159.481L59.4712 158.732C59.4159 159.186 60.227 159.194 59.5057 159.984L60.75 160.265C61.0272 160.36 61.1443 159.254 61.3771 159.636C61.3597 160.002 61.2081 159.857 61.1387 160.329C61.8512 161.458 62.7126 158.119 63.4424 158.881L63.3298 159.029C63.5367 158.72 63.8139 158.815 63.8573 158.644C64.0177 157.366 63.5637 159.295 63.4555 158.483C63.7112 157.424 63.9007 157.977 64.0567 157.163C64.1639 157.595 64.4152 156.999 64.6102 156.973C64.7563 157.698 65.2837 157.314 65.3356 158.199C65.5425 157.891 65.9368 156.879 66.2704 156.901C66.3222 157.787 66.045 157.692 66.2919 158.056L66.4739 157.436C66.7089 157.587 66.6146 157.748 66.5561 158.053C66.8149 158.135 66.9624 157.255 67.2222 157.717L66.9156 158.27C67.2048 158.083 67.2871 158.204 67.6196 158.342C67.5329 158.684 67.3943 158.636 67.312 158.515C67.3075 159.474 67.7138 158.18 67.7961 158.302C67.8265 158.033 67.6196 157.846 67.8569 157.268C68.0085 157.414 68.4017 156.518 68.367 157.25L68.0604 157.803C68.5186 157.395 68.4103 157.079 68.7828 157.393C68.7547 157.43 68.7254 157.583 68.6777 157.721C69.0926 156.988 69.2798 157.773 69.6632 157.921L69.5505 158.068C69.7423 157.894 69.9513 157.353 70.025 157.41C69.8897 157.014 69.9655 156.839 70.0826 156.228C70.1604 157.309 70.765 155.145 71.106 155.844C71.0193 156.186 70.8113 156.61 70.7735 156.202C70.3791 157.214 70.1852 158.116 69.7779 158.534C70.0162 158.337 70.249 158.223 70.1103 158.671L70.3791 157.71C70.4949 157.711 70.5545 157.785 70.6563 157.805C70.8242 157.204 70.6478 156.748 70.9803 156.39C71.3258 156.129 70.9195 157.423 71.0441 156.993C71.5153 156.682 71.4385 155.981 71.7406 156.387C71.6842 156.461 71.5716 156.608 71.5586 156.511C71.7351 156.967 72.2495 156.485 72.0761 157.665C71.9764 157.91 71.9081 158.266 71.8259 158.145L71.8692 157.974C71.3937 158.748 72.1584 157.787 71.8517 158.836C71.9645 158.193 72.3099 158.428 72.4615 158.573L72.5612 157.832C73.5817 155.812 72.2372 159.248 72.8459 159.1C73.304 158.692 72.7506 158.882 73.0842 158.407C73.3051 158.576 73.2617 159.243 73.6765 159.006C73.7014 159.317 73.841 159.745 73.6666 160.545C73.9428 160.261 74.2459 161.047 74.5265 160.298C74.3111 159.55 73.9816 161.049 73.7836 159.935L74.0642 159.186C74.3598 159.296 74.8126 158.971 74.9576 159.315C74.936 159.153 74.975 158.949 75.0368 158.792C75.5209 158.579 75.8015 157.831 76.174 158.145C76.0743 158.885 75.8674 158.698 75.6725 158.724C75.8056 159.351 75.9356 158.838 76.3081 159.152C76.1954 159.795 76.0309 159.057 75.863 159.658L76.346 159.56C76.3362 159.611 76.3406 159.644 76.3124 159.68C76.6049 158.649 76.6492 159.85 76.9947 159.59C77.6423 159.735 78.054 158.357 78.5945 157.574C78.6335 157.867 78.6074 158.168 78.5078 158.413C78.4569 157.907 78.4071 158.277 78.2792 158.559C78.5208 158.51 78.5466 159.697 78.3342 160.089C78.7491 159.852 78.3213 159.495 78.616 159.225L79.087 159.41C79.1293 158.859 79.0102 158.709 79.3428 158.351C79.594 158.251 79.6763 158.373 79.921 158.472C79.8214 158.717 79.8343 159.311 79.6404 159.221C79.7216 159.458 79.9296 159.529 80.1246 159.007C79.9351 158.454 80.7213 158.647 80.6695 157.761L80.8589 158.314C80.7896 158.291 80.7213 158.647 80.6206 158.511C80.5339 159.35 80.9098 158.324 81.0355 158.274C81.108 158.447 81.3755 158.593 81.3169 158.898C81.4718 158.696 81.6505 158.92 81.6093 159.355C81.7912 159.232 81.7209 158.828 81.8346 158.565L82.3057 158.75C82.2363 159.222 82.0066 160.476 81.8939 160.623C82.1571 160.241 82.2309 159.305 82.5081 159.401C82.1571 160.241 82.7235 160.149 82.2783 161.151C82.2858 161.828 82.7579 161.897 83.0655 161.724C83.3732 161.055 82.8891 161.268 83.044 160.569C83.7913 160.47 84.2594 158.523 84.6817 158.963L84.5865 158.744C84.9883 158.409 84.932 158.483 85.2385 157.929C84.9568 158.794 85.0855 160.38 85.6703 160.302C85.809 159.854 85.5491 159.393 85.7875 158.7L86.159 158.634C86.1676 158.699 86.1059 158.856 86.0354 158.948C86.4178 158.715 86.371 160.226 86.6819 159.209L86.7153 160.576L86.7208 159.997C86.8454 159.567 87.2353 159.515 87.3479 159.368C87.8061 158.96 87.8439 159.368 87.9402 159.967C87.9576 159.601 87.9751 158.739 88.2772 158.649C87.9716 160.078 88.7623 159.312 88.5792 160.047C88.6951 160.048 88.8109 160.545 88.9463 159.949L88.7339 160.837C89.0146 159.592 89.4305 159.735 89.7933 159.604C89.3555 161.283 90.1647 159.538 89.9782 161.117C90.2903 159.985 90.6443 160.781 90.913 159.819C91.1773 159.817 90.9215 160.876 90.8901 161.26L91.084 160.854C91.0926 161.415 91.5311 161.605 91.7358 162.024L92.2038 161.069L92.1853 161.551C92.2849 161.306 92.5178 161.192 92.48 160.784L92.6088 160.883C92.8418 159.777 92.8709 160.616 93.2457 160.203C93.2717 160.398 93.1904 160.656 93.1102 160.799C93.2489 160.847 93.0582 161.402 93.0592 161.782C93.0203 161.489 93.967 159.908 93.7083 159.331C93.7636 158.877 94.0723 158.588 94.1534 158.825L94.0233 159.835L94.4177 158.823C94.669 158.724 94.6071 159.377 94.7587 159.522C94.5638 159.548 93.9765 161.345 94.4162 161.419C94.1465 161.505 93.919 162.031 93.7598 162.201C93.8335 162.257 93.8648 162.369 93.6341 162.747C94.0489 162.51 93.8714 162.17 94.2612 162.118C94.0488 163.006 94.0878 163.298 94.3206 163.68L94.2438 162.98C94.2774 162.859 94.3196 162.804 94.3294 162.753C94.2655 162.646 94.2623 162.498 94.3306 162.141C94.3999 162.165 94.9567 161.132 94.9143 161.683C94.868 160.218 95.7484 160.746 95.6965 159.86C95.7962 159.615 96.042 159.599 95.9726 160.071C95.5405 160.674 95.9812 161.128 95.7991 161.747C95.9497 161.512 95.7039 161.033 95.9292 160.738C96.1242 160.712 96.1187 161.292 96.1576 161.584L96.045 161.731L96.2214 162.187C96.346 161.757 96.1132 161.375 96.4208 161.202C96.4468 161.397 96.7544 161.223 96.6536 161.584C96.4023 162.18 96.3296 162.999 96.0783 163.099C96.2733 163.073 96.8386 163.097 96.7867 162.211L96.9947 162.283C96.9427 161.893 96.723 161.112 97.1681 161.102L97.1248 161.273L97.557 160.67L97.6587 161.186C97.7118 160.964 97.7833 160.756 97.8894 160.808C97.859 161.076 97.9413 161.198 97.859 161.572C98.1925 161.594 98.2478 161.14 98.3475 160.896C98.5424 160.87 98.5684 161.064 98.3734 161.586C98.5943 161.755 99.021 161.732 99.1043 162.233C99.5061 161.899 99.0783 162.038 99.399 161.466C99.3511 163.093 100.337 162.3 100.903 162.208C101.051 160.833 101.085 162.085 101.435 160.865C101.241 161.271 101.707 162.035 101.18 162.304L101.483 162.214C101.521 163.002 100.899 162.672 100.977 163.753C101.31 163.775 101.829 162.333 102.088 162.91C101.75 163.848 102.433 162.649 102.127 163.699C101.989 164.031 101.888 163.896 101.781 163.96L101.807 164.155C102.443 164.583 102.239 163.056 102.741 162.476C103.182 162.434 102.918 163.312 102.831 163.77C102.857 163.965 103.108 163.866 103.258 163.631C102.883 164.16 102.917 162.932 103.169 162.337C103.121 163.467 103.76 162.555 103.972 162.163C103.618 160.871 103.556 162.02 103.259 160.655C103.103 160.973 102.922 161.973 102.676 161.493C102.982 161.055 102.783 160.933 102.762 160.771C102.705 161.34 102.473 160.958 102.318 161.16C102.336 160.678 102.793 159.89 102.504 159.581L102.167 160.899C102.072 160.681 102.436 159.938 102.072 160.185C102.38 159.515 102.258 159.102 102.686 158.962C102.471 157.718 101.857 159.436 101.38 159.83C101.436 159.757 101.48 159.586 101.518 159.498C101.38 159.83 101.241 159.783 101.116 159.832C100.952 159.474 101.422 159.279 101.454 158.895L101.051 158.849C101.061 158.798 101.042 158.784 101.07 158.747C100.925 158.899 100.808 159.014 100.844 158.662C101.038 158.256 101.195 157.821 101.333 157.489L100.75 158.327C100.875 157.897 100.572 157.491 100.936 157.244L100.301 157.312L100.444 156.4C100.262 156.524 100.237 156.709 100.37 156.84C100.205 156.597 99.1471 158.21 99.6271 156.476C99 157.105 98.8918 156.789 98.2398 157.107C98.8539 156.381 97.954 155.955 98.4945 155.668C98.318 155.212 98.0493 156.174 97.798 156.273C97.6909 155.841 97.9585 154.995 98.2347 154.711L97.9022 155.069L97.9455 154.898L97.626 155.354C97.5058 154.824 97.7691 154.442 97.5482 154.273L97.3228 155.064L97.2579 154.576C97.2405 154.942 97.077 155.08 96.882 155.106L96.9254 154.935L96.6741 155.034C96.9796 154.597 96.5138 154.824 96.737 154.265C96.5616 154.189 96.5616 154.189 96.2085 154.27L96.1521 154.839C95.6247 155.224 96.3082 154.025 95.9617 153.906L95.863 154.531C95.5914 153.36 94.8948 154.957 94.675 154.176C94.9263 154.077 95.0261 153.336 94.9686 153.525C94.6101 153.689 94.1261 153.406 93.6376 154.083C93.7114 153.147 93.7417 152.879 93.496 152.399C93.2317 152.401 93.1754 152.475 92.9944 152.978C92.8407 152.569 92.271 153.008 92.3978 152.347C92.2353 152.864 92.2137 152.206 91.9873 152.616L92.0177 152.348L91.905 152.991C91.7893 151.502 91.032 153.636 90.873 152.318L90.9857 152.171L90.7658 152.382C90.7961 152.114 90.8904 151.952 90.9911 151.592L90.192 151.301L90.2428 151.807C90.0478 151.833 89.8106 152.41 89.6894 151.997C90.2212 151.149 89.4121 151.901 89.5303 151.175L89.7502 150.963C89.4859 150.965 89.4859 150.965 89.3732 151.609C89.0147 151.772 89.408 150.381 88.9758 150.984L89.1837 151.055C89.1664 151.421 88.902 151.919 88.7634 151.872C88.7505 151.774 88.7256 151.464 88.8328 151.4C88.5436 151.587 88.2415 151.181 88.0726 151.402C87.9773 151.183 88.116 150.735 88.2286 150.587C87.5755 151.022 88.0077 150.418 87.3687 150.834L87.4554 150.492L87.1922 150.874L87.084 150.062L87.0655 150.544C86.8706 150.57 86.72 150.805 86.5695 150.544L86.7505 150.04C86.197 150.23 86.3846 149.031 85.7433 149.678C85.7304 149.581 85.843 149.434 85.8993 149.36C85.2852 150.087 85.7652 148.353 85.1261 149.265C85.2019 149.089 85.1901 148.876 85.2334 148.705L84.9756 149.004L85.1447 148.287L84.7503 149.298L84.7808 148.534L84.6248 148.852C84.7029 147.453 84.1841 148.398 84.1062 147.317L83.9631 148.229C82.8344 149.934 82.5024 146.82 81.4529 147.505L81.622 146.788L81.0771 147.539C81.0133 146.936 81.3144 146.962 81.3458 146.577C80.8747 146.888 80.9515 147.589 80.4685 147.686C80.3483 147.156 80.6494 147.182 80.8325 146.943C80.3386 147.207 79.627 147.451 79.4181 146.999C79.3986 147.101 79.3466 147.207 79.3552 147.272C79.0097 147.533 78.7076 147.127 78.3741 147.105C78.4467 146.781 78.5398 146.736 78.633 146.69C78.5409 146.62 78.4229 146.355 78.2669 146.673L78.5183 146.077C78.2974 145.908 77.7136 146.367 77.8133 145.626C77.783 145.894 77.6573 146.44 77.4634 146.35C77.5805 145.243 76.7973 146.687 76.5949 146.036C76.6946 145.791 76.9404 145.775 76.8711 145.751C76.7629 145.435 76.5126 145.915 76.2873 146.209L76.4119 145.779L75.513 146.23C75.6301 145.123 74.7527 146.232 74.964 145.46C74.6868 145.364 75.0842 145.989 74.7268 146.037C74.7312 145.573 74.3683 146.2 74.5373 145.483L74.5937 145.41L74.3294 145.412L74.6371 144.743C74.3858 144.842 74.0782 145.511 73.9665 146.039C73.8594 145.607 73.4955 145.854 73.5432 145.219L73.6559 145.072C73.0331 145.237 73.1429 142.958 72.4463 144.059C72.4334 143.962 72.4767 143.79 72.546 143.814L72.1995 143.695L72.3804 143.192L71.6276 143.87L71.7143 143.528C71.3689 143.293 70.7332 143.361 70.2372 143.361L70.3498 143.214C69.6967 143.648 69.9091 142.76 69.438 143.071C69.4759 142.983 69.5041 142.946 69.5181 142.928L69.1619 142.86L69.3179 142.541C68.8986 143.242 68.8004 141.387 68.8078 142.064C68.6009 142.372 68.25 142.717 68.1113 143.165C67.7269 143.133 68.1157 142.701 67.9338 142.329C67.6566 142.233 67.4887 142.834 67.1866 142.428L67.2733 142.086C67.0783 142.112 66.9278 142.347 66.6635 142.349L66.7762 142.202C66.2183 142.855 66.4904 141.05 65.8599 142.522C65.7517 142.206 65.4073 142.351 65.5622 141.653C64.9655 142.013 64.5377 142.153 63.9983 142.324C64.1718 141.143 63.8727 142.374 63.7266 141.649L63.6279 142.274C62.924 142.202 62.4488 140.497 61.6323 140.572L61.745 139.929L61.4514 140.58C60.6956 140.118 59.6711 139.627 59.0235 139.481C58.7473 139.766 58.2588 140.443 57.9556 140.153L58.012 140.079C57.3329 140.318 56.6549 140.442 56.0756 139.94C56.1753 139.695 56.1493 139.5 56.2577 139.321C55.95 139.99 55.8548 139.275 55.7487 139.223L55.7995 139.729C55.4929 140.282 55.3414 139.641 55.3458 139.178L54.9136 139.781C54.905 139.716 54.892 139.618 54.9115 139.517L54.788 139.831L54.8054 138.969C54.6928 139.116 54.265 139.255 53.9703 140.022C54.0007 139.754 53.7809 139.469 54.0137 139.355L53.0077 138.877L53.1019 139.212C52.9892 139.855 52.583 140.157 52.4747 139.841C52.7943 139.385 52.6871 138.953 52.6731 138.475C52.4662 138.784 52.686 139.069 52.53 139.387C52.2668 139.77 51.8206 139.895 51.7817 139.603L51.9507 139.382C51.6615 139.569 51.7602 138.448 51.5284 138.446C51.2089 138.902 51.144 138.415 50.9576 139.498C50.5991 139.661 50.988 138.733 50.9057 138.612C50.6555 139.091 50.27 138.68 50.3264 138.11C49.8204 139.649 49.5966 137.348 49.2455 138.684L49.1373 137.872C49.0506 138.214 48.8252 139.004 48.5924 139.118C48.4852 138.686 48.6532 138.085 48.6847 137.701L48.2784 138.995C47.4458 137.336 45.7248 137.946 44.7092 136.527C44.0865 136.693 43.2525 137.134 42.6483 136.818L42.7609 136.671L42.1816 136.169L42.5227 136.868C42.3407 136.991 42.1901 137.226 42.0515 137.179C41.4603 136.464 40.6525 135.612 39.6236 136.08C38.7343 137.472 39.5307 134.638 38.7562 135.65C38.8223 135.526 38.8938 135.318 38.974 135.175C38.2798 135.548 37.8931 135.748 37.1349 136.511C37.5153 135.022 36.732 136.465 36.9574 135.675L36.7895 136.276C36.7376 135.886 36.4614 135.675 36.586 135.245L36.1668 135.945L36.2795 135.302C35.933 135.183 35.1045 135.541 35.1772 134.225C34.1223 134.994 32.8391 134.421 31.833 133.943C31.5828 134.423 31.2493 134.401 30.985 134.403L30.8768 133.591C30.5692 133.764 30.1251 134.65 29.9909 134.139C29.9963 134.056 30.0386 134 30.0483 133.95C29.7645 134.054 29.6065 133.612 29.2295 134.257C28.9523 134.162 28.7758 133.706 29.0001 133.031C28.7194 134.275 28.4468 132.725 28.4468 132.725C28.4468 132.725 14.9127 126.69 10.0113 132.716C9.75995 133.312 9.35812 133.647 9.32336 134.379C9.03417 134.566 9.1513 133.459 8.98335 134.06C9.22911 134.54 8.54668 135.623 8.71008 136.477L8.45881 136.577C8.33421 137.007 8.84767 136.145 8.63637 136.917L8.94844 135.784C9.0762 135.999 9.12489 136.24 9.09776 136.657C9.35665 136.242 9.79765 134.712 10.0315 135.475L9.90583 135.524C10.2394 135.546 9.9447 136.313 9.97066 136.508L9.90135 136.484L10.0345 137.111C9.92731 136.679 9.38136 137.545 9.5763 137.519C9.87839 137.925 9.53736 137.227 9.83952 137.137C10.0345 137.111 9.83402 137.716 9.76574 138.073L10.0993 138.094C9.98767 138.622 9.89137 138.023 9.91836 138.598L10.4328 138.116C10.2345 139.482 11.0037 137.561 10.9125 138.862C10.567 139.123 10.8431 139.335 10.7001 139.75L11.404 139.822C11.43 140.017 11.1408 140.204 11.2664 140.154C11.3184 140.544 11.5426 139.87 11.6119 139.893C11.5805 140.278 12.1209 139.991 11.9269 140.893C12.268 141.592 12.3592 139.794 12.7057 140.409C12.6493 140.979 12.3342 140.475 12.4121 141.06L12.9092 140.944C12.8095 141.189 12.6275 141.808 12.49 141.645C13.5143 142.633 13.5832 145.632 14.8579 145.149C14.8838 145.839 14.664 145.555 14.4376 145.965C15.4362 145.27 15.2702 147.623 15.9925 147.709L16.1041 147.181C16.7168 149.051 18.1053 148.304 19.0376 149.221L18.9857 148.831C19.2359 148.352 19.5001 148.349 19.72 148.138C19.6897 148.407 19.3387 149.247 19.7156 149.098C19.6896 148.903 19.6084 148.666 19.6897 148.407C20.3327 150.008 22.3904 150.064 23.7807 151.069C25.9499 151.095 27.9889 152.625 30.1202 152.738C29.7867 152.716 30.2114 151.436 30.3889 151.776C30.5565 154.151 31.577 151.635 31.9136 153.293C33.2576 152.833 33.9092 154.995 35.3834 153.525L35.2706 154.168C35.3789 154.485 35.5219 154.069 35.6984 154.029L35.6551 154.2C36.0135 154.532 36.6536 154.001 36.8312 154.341L37.0002 153.624C37.2645 153.622 37.0088 154.185 37.3457 153.859L37.259 154.201L37.6912 153.598C37.3921 154.828 38.3518 153.841 38.434 154.458C38.7925 154.295 39.5149 153.884 39.9426 154.241C39.8992 154.908 40.4915 155.011 40.7936 155.417C41.5539 155.415 42.6477 155.434 43.5292 155.846L43.6852 155.032L43.9495 155.03C43.9061 155.201 43.9191 155.298 43.8628 155.372C43.8583 156.331 44.4855 155.206 44.5677 155.824C44.5982 155.059 44.4161 155.678 44.2775 155.631C44.1704 155.199 44.5203 154.474 44.6967 154.93L44.6534 155.101L44.9166 154.719C44.8039 155.362 44.9121 155.678 44.7994 156.322C45.629 156.343 46.3937 155.382 47.1679 155.857C46.9296 156.551 47.7896 155.808 47.3844 156.986C47.9811 156.625 47.5145 155.977 47.9207 155.179C48.0593 155.226 48.2662 154.918 48.1968 155.39C48.069 155.671 48.1664 156.154 48.0126 156.241L48.3559 156.212C48.3689 156.309 48.2563 156.457 48.1999 156.53C49.0166 155.958 49.2329 157.583 49.9803 156.987C50.1049 156.558 49.7594 156.818 49.8981 156.37C50.6887 155.603 50.265 157.264 50.9604 156.774L50.7231 157.351C50.9864 156.969 51.1998 156.461 51.3892 157.015C51.2895 157.755 51.0133 157.544 50.8064 157.853C51.0144 157.924 51.5667 157.851 51.5408 157.16C51.83 156.973 51.7866 157.64 51.8818 157.858C51.9252 157.687 51.7617 157.329 51.9686 157.02C52.2144 157.5 52.7558 157.593 53.1392 157.741C53.0958 157.912 53.0655 158.18 53.0276 158.268C53.5778 157.434 53.2105 159.021 53.7076 158.905Z" fill="#FF7800"/>
<path d="M76.477 159.923L76.3254 159.778C76.2962 159.931 76.2387 160.12 76.1261 160.267L76.477 159.923Z" fill="#FF7800"/>
<path d="M68.6867 157.786C68.6443 157.841 68.6161 157.878 68.5781 157.966C68.6248 157.943 68.6628 157.855 68.6867 157.786Z" fill="#FF7800"/>
<path d="M66.5 158.623C66.6822 158.5 66.5868 158.281 66.5608 158.086C66.5315 158.238 66.4881 158.41 66.5 158.623Z" fill="#FF7800"/>
<path d="M81.3584 158.959C81.3161 159.014 81.2782 159.102 81.2489 159.255C81.3009 159.148 81.3389 159.061 81.3584 158.959Z" fill="#FF7800"/>
<path d="M93.598 162.106C93.5937 162.074 93.5894 162.042 93.5668 161.996C93.5894 162.042 93.5797 162.092 93.598 162.106Z" fill="#FF7800"/>
<path d="M93.1659 160.842C93.1475 160.828 93.0824 160.836 92.9934 160.914C93.0487 160.957 93.1095 160.915 93.1659 160.842Z" fill="#FF7800"/>
<path d="M78.3016 158.606C78.2552 158.628 78.1946 158.67 78.1287 158.794C78.1935 158.785 78.2638 158.693 78.3016 158.606Z" fill="#FF7800"/>
<path d="M92.8118 161.038L92.6642 160.925C92.6545 160.976 92.6404 160.994 92.6349 161.078L92.8118 161.038Z" fill="#FF7800"/>
<path d="M93.8146 162.243C93.7595 162.201 93.6579 162.182 93.6168 162.121C93.6427 162.316 93.7119 162.339 93.8146 162.243Z" fill="#FF7800"/>
<path d="M86.0764 159.009C86.0624 159.027 86.0624 159.027 86.0624 159.027C85.8516 159.303 85.9683 159.188 86.0764 159.009Z" fill="#FF7800"/>
<path d="M91.814 162.113C91.814 162.113 91.7956 162.099 91.8097 162.08L91.7196 162.274L91.814 162.113Z" fill="#FF7800"/>
<path d="M94.502 162.681C94.4694 162.685 94.4228 162.708 94.3848 162.796C94.4076 162.842 94.426 162.856 94.4629 162.885C94.4683 162.801 94.4781 162.75 94.502 162.681Z" fill="#FF7800"/>
<path d="M88.4298 160.662C88.5295 160.418 88.5869 160.228 88.6205 160.108C88.5696 160.098 88.5176 160.204 88.4298 160.662Z" fill="#FF7800"/>
<path d="M119.202 33.4586C119.119 33.4532 119.018 33.4337 118.87 33.4369C118.989 33.4704 119.105 33.4715 119.202 33.4586Z" fill="#FF7800"/>
<path d="M117.37 42.5316L117.208 42.4372C117.217 42.5023 117.286 42.5262 117.37 42.5316Z" fill="#FF7800"/>
<path d="M119.954 28.0515C119.973 28.0656 120.005 28.0613 120.038 28.0569C120.043 27.9735 120.063 27.8716 120.088 27.6862L119.954 28.0515Z" fill="#FF7800"/>
<path d="M115.827 61.8652L115.81 61.7362C115.818 61.8007 115.79 61.8372 115.827 61.8652Z" fill="#FF7800"/>
<path d="M116.878 50.3841C117.03 50.4133 117.071 50.4738 117.112 50.5343C117.136 50.4652 117.095 50.4046 116.878 50.3841Z" fill="#FF7800"/>
<path d="M126.997 25.0633L126.522 25.2258C126.721 25.2324 126.945 25.1695 126.997 25.0633Z" fill="#FF7800"/>
<path d="M124.971 19.6624C124.938 19.6667 124.906 19.671 124.873 19.6754C124.892 19.6894 124.924 19.6851 124.971 19.6624Z" fill="#FF7800"/>
<path d="M123.078 21.8324C123.133 21.8745 123.206 21.9307 123.28 21.9869C123.271 21.9221 123.276 21.8389 123.078 21.8324Z" fill="#FF7800"/>
<path d="M123.405 22.0535C123.368 22.0252 123.331 21.997 123.28 21.9873C123.317 22.0155 123.321 22.048 123.405 22.0535Z" fill="#FF7800"/>
<path d="M124.217 131.312C124.22 131.46 124.581 131.561 124.909 131.666L124.217 131.312Z" fill="#FF7800"/>
<path d="M116.645 79.2984L116.46 79.2734C116.496 79.3017 116.58 79.3071 116.645 79.2984Z" fill="#FF7800"/>
<path d="M128.359 131.008L128.275 131.118C128.368 131.073 128.382 131.054 128.359 131.008Z" fill="#FF7800"/>
<path d="M128.351 27.9086C128.817 28.0614 128.267 28.3992 128.726 28.3711C128.64 28.2173 128.971 27.9748 128.351 27.9086Z" fill="#FF7800"/>
<path d="M134.585 81.671L134.616 81.7817C134.625 81.7312 134.589 81.7033 134.585 81.671Z" fill="#FF7800"/>
<path d="M128.359 131.008L128.458 130.879C128.379 130.906 128.3 130.933 128.235 130.942C128.318 130.947 128.355 130.975 128.359 131.008Z" fill="#FF7800"/>
<path d="M117.853 97.4392C117.817 97.4112 117.785 97.4155 117.766 97.4016L117.853 97.4392Z" fill="#FF7800"/>
<path d="M117.181 98.4712C117.121 98.3966 117.066 98.3544 117.007 98.2799C116.987 98.3814 117.061 98.4376 117.181 98.4712Z" fill="#FF7800"/>
<path d="M124.909 131.666L125.301 131.878C125.223 131.789 125.066 131.728 124.909 131.666Z" fill="#FF7800"/>
<path d="M118.831 108.75C118.827 108.718 118.79 108.69 118.753 108.661C118.758 108.694 118.78 108.741 118.831 108.75Z" fill="#FF7800"/>
<path d="M117.126 49.6402C117.172 49.6174 117.201 49.5805 117.229 49.5436C117.113 49.5425 117.034 49.5696 117.126 49.6402Z" fill="#FF7800"/>
<path d="M129.342 55.8333C129.243 55.9622 129.594 56.1138 129.95 56.1821C129.919 56.0706 129.823 55.9677 129.342 55.8333Z" fill="#FF7800"/>
<path d="M129.748 57.0192C129.762 57.0008 129.776 56.9825 129.808 56.9782C129.762 57.0008 129.729 57.0052 129.748 57.0192Z" fill="#FF7800"/>
<path d="M130.317 49.3715C130.317 49.3715 130.284 49.3759 130.266 49.3616C130.284 49.3759 130.303 49.3902 130.317 49.3715Z" fill="#FF7800"/>
<path d="M130.451 50.8743C130.372 50.9014 130.278 50.947 130.25 50.9839C130.348 50.9709 130.423 50.9112 130.451 50.8743Z" fill="#FF7800"/>
<path d="M131.262 60.6863C131.229 60.6907 131.247 60.7051 131.262 60.6863C131.229 60.6907 131.229 60.6907 131.262 60.6863C131.247 60.7051 131.247 60.7051 131.262 60.6863Z" fill="#FF7800"/>
<path d="M135.565 74.6292C135.198 73.2397 134.135 71.4634 134.325 70.0328C133.349 69.7825 133.274 69.3461 133.033 68.8988L134.323 68.7766L133.895 68.4202C134.268 68.2383 134.147 68.7007 134.618 68.39L133.813 68.2989C134.268 68.2383 134.063 67.3232 135.031 67.8887L134.952 66.4277C134.974 66.0942 133.878 66.3063 134.174 65.9197C134.541 65.8212 134.437 66.0334 134.892 65.9728C135.783 64.8456 132.334 64.8917 132.858 63.8629L133.034 63.9387C132.683 63.7871 132.704 63.4535 132.524 63.4611C131.228 63.6667 133.236 63.5976 132.491 63.9614C131.406 64.0067 131.882 63.6126 131.047 63.6742C131.425 63.4089 130.801 63.3103 130.724 63.1056C131.4 62.718 130.876 62.2587 131.708 61.9329C131.358 61.7812 130.265 61.6457 130.217 61.2883C131.054 60.9949 131.028 61.296 131.328 60.9419L130.698 60.9266C130.775 60.6353 130.96 60.6603 131.257 60.6538C131.265 60.3387 130.369 60.4414 130.762 60.0419L131.382 60.2239C131.129 59.9434 131.228 59.8145 131.273 59.4116C131.635 59.3965 131.624 59.5633 131.526 59.6922C132.451 59.4367 131.098 59.3358 131.197 59.207C130.923 59.26 130.813 59.5556 130.184 59.4245C130.288 59.2122 129.307 59.0453 130.041 58.8483L130.66 59.0304C130.145 58.6361 129.86 58.8559 130.074 58.348C130.11 58.3761 130.273 58.3545 130.421 58.3513C129.594 58.0978 130.312 57.6549 130.335 57.2055L130.51 57.2813C130.289 57.1123 129.734 57.0375 129.753 56.9357C129.394 57.2151 129.218 57.1393 128.615 57.2031C129.638 56.8188 127.382 56.7556 127.981 56.1633C128.342 56.1482 128.786 56.2544 128.414 56.4363C129.506 56.5718 130.397 56.5525 130.917 56.8634C130.66 56.6662 130.495 56.4236 130.963 56.4605L129.953 56.4463C129.921 56.3347 129.973 56.2286 129.974 56.1127C129.344 56.0975 128.956 56.4136 128.523 56.1407C128.183 55.8222 129.536 55.9231 129.086 55.9003C128.664 55.4606 127.994 55.7648 128.313 55.3089C128.401 55.3468 128.576 55.4227 128.483 55.4681C128.885 55.1335 128.282 54.7014 129.47 54.5597C129.738 54.59 130.1 54.5749 130.002 54.7038L129.821 54.7113C130.703 55.0071 129.568 54.4308 130.652 54.5014C129.998 54.5554 130.137 54.1071 130.241 53.8948L129.494 53.9944C127.269 53.4309 130.945 53.9664 130.627 53.3144C130.111 52.9201 130.435 53.4887 129.89 53.2472C130 52.9515 130.659 52.8141 130.311 52.4307C130.59 52.2942 130.986 52.043 131.807 51.9998C131.462 51.7648 132.134 51.2288 131.343 51.1193C130.676 51.5719 132.22 51.4985 131.172 52.068L130.366 51.9769C130.402 51.6249 129.965 51.2036 130.246 50.9513C130.088 51.0054 129.893 51.0314 129.708 51.0065C129.378 50.5212 128.573 50.4301 128.805 49.9363C129.538 49.8552 129.424 50.1184 129.501 50.3231C130.084 49.9809 129.541 50.0036 129.754 49.4957C130.408 49.4417 129.733 49.8293 130.363 49.8445L130.145 49.3279C130.178 49.3236 130.229 49.3333 130.275 49.3106C129.196 49.2725 130.353 48.9034 130.013 48.585C129.993 47.8106 128.547 47.7552 127.67 47.376C127.949 47.2396 128.242 47.2007 128.496 47.2494C128.026 47.4443 128.402 47.4108 128.689 47.4552C128.571 47.1899 129.715 46.8392 130.163 46.9779C129.828 46.576 129.591 47.1532 129.26 46.8997L129.316 46.3301C128.782 46.4178 128.66 46.6159 128.227 46.3429C128.062 46.1003 128.179 45.9856 128.201 45.652C128.469 45.6824 129.027 45.5254 128.993 45.7615C129.203 45.6012 129.219 45.3511 128.663 45.2763C128.168 45.6563 128.159 44.7152 127.322 45.0086L127.817 44.6285C127.811 44.7119 128.173 44.6968 128.074 44.8257C128.901 44.6991 127.822 44.5451 127.74 44.4238C127.903 44.2863 127.962 43.9809 128.287 43.9377C128.042 43.838 128.235 43.5478 128.657 43.4915C128.487 43.3323 128.096 43.5001 127.842 43.4513L127.898 42.8817C128.371 42.8352 129.633 42.7498 129.808 42.8257C129.37 42.6361 128.45 42.8082 128.472 42.4746C129.37 42.6361 129.139 42.022 130.212 42.2593C130.863 42.0569 130.827 41.5328 130.574 41.2522C129.857 41.0832 130.172 41.5868 129.445 41.5845C129.156 40.7798 127.158 40.798 127.474 40.1937L127.264 40.3539C126.836 39.9976 126.924 40.0355 126.318 39.8351C127.222 39.9132 128.715 39.334 128.517 38.7156C128.049 38.6787 127.656 39.0783 126.952 39.0067L126.798 38.5973C126.877 38.5702 127.03 38.5995 127.136 38.6515C126.806 38.2821 128.297 37.9347 127.246 37.8599L128.562 37.4366L128.004 37.5936C127.569 37.5523 127.415 37.1429 127.239 37.0671C126.738 36.6544 127.115 36.505 127.692 36.2463C127.325 36.3448 126.475 36.5407 126.348 36.2103C127.813 36.164 126.865 35.4968 127.625 35.4947C127.608 35.3647 128.055 35.1233 127.443 35.1221L128.352 35.1168C127.082 35.1372 127.114 34.6369 126.9 34.2687C128.624 34.3036 126.746 33.8593 128.324 33.6657C127.147 33.6406 127.857 33.0169 126.843 32.9702C126.771 32.6821 127.879 32.6833 128.232 32.6032L127.802 32.4786C128.341 32.3076 128.421 31.7845 128.79 31.4543L127.745 31.1801L128.21 31.0687C127.941 31.0383 127.79 30.7773 127.399 30.9451L127.461 30.7881C126.339 30.8052 127.134 30.5671 126.664 30.266C126.836 30.1934 127.119 30.2054 127.276 30.2671C127.287 30.1004 127.857 30.1568 128.242 30.0723C127.944 30.1947 126.203 29.5338 125.703 29.9972C125.243 30.0253 124.898 29.7903 125.108 29.63L126.134 29.51L125.055 29.356C124.891 29.1134 125.536 28.9944 125.658 28.7962C125.735 29.0009 127.615 29.2134 127.593 28.6709C127.729 28.9503 128.307 29.0717 128.524 29.2082C128.557 29.088 128.651 29.0425 129.085 29.1996C128.75 28.7977 128.456 29.0685 128.32 28.6731C129.229 28.6679 129.513 28.5639 129.827 28.1915L129.171 28.4772C129.055 28.4761 128.985 28.4523 128.916 28.4285C128.813 28.5248 128.669 28.5606 128.326 28.5898C128.331 28.5064 127.19 28.1293 127.742 28.0558C126.329 28.492 126.641 27.3592 125.785 27.6385C125.517 27.6082 125.459 27.3017 125.919 27.2736C126.606 27.5953 126.955 26.9867 127.59 27.0345C127.326 26.9207 126.915 27.3062 126.564 27.1546C126.487 26.9499 127.045 26.7929 127.343 26.6706L127.518 26.7464L127.92 26.4118C127.466 26.3565 127.152 26.729 126.9 26.4485C127.086 26.3576 126.852 26.0911 127.214 26.076C127.843 26.2071 128.669 26.0805 128.834 26.3232C128.757 26.1185 128.638 25.473 127.815 25.748L127.831 25.4978C127.44 25.6656 126.755 26.1041 126.639 25.607L126.82 25.5994L126.132 25.2777L126.607 25.1153C126.375 25.1131 126.171 25.0741 126.172 24.9582C126.432 24.9236 126.549 24.8088 126.911 24.7937C126.863 24.4363 126.404 24.4644 126.136 24.4341C126.059 24.2294 126.263 24.1525 126.786 24.2316C126.914 23.9501 126.784 23.4714 127.269 23.2581C126.855 22.8833 127.082 23.3491 126.458 23.1345C128.047 22.7741 127.068 21.8795 126.838 21.2654C125.459 21.4655 126.668 21.1062 125.399 21.0107C125.828 21.1353 126.475 20.4044 126.86 20.9318L126.7 20.6058C127.463 20.372 127.284 21.1398 128.312 20.788C128.264 20.4306 126.746 20.203 127.251 19.772C128.227 19.9064 126.925 19.4352 128.013 19.5382C128.355 19.6249 128.257 19.7538 128.339 19.8751L128.525 19.7841C128.797 18.9708 127.355 19.5598 126.672 19.1546C126.543 18.6759 127.446 18.754 127.905 18.726C128.091 18.635 127.945 18.4065 127.696 18.2743C128.296 18.5582 127.093 18.8341 126.463 18.703C127.574 18.4725 126.549 17.9807 126.101 17.842C124.94 18.5587 126.05 18.3282 124.783 18.993C125.125 19.0797 126.145 19.043 125.738 19.461C125.244 19.2292 125.163 19.488 125.023 19.5562C125.608 19.4783 125.257 19.8226 125.506 19.9548C125.041 20.0663 124.154 19.738 123.928 20.1484L125.29 20.1984C125.08 20.3587 124.29 20.1333 124.616 20.4701C123.899 20.3011 123.516 20.5339 123.293 20.1007C122.143 20.6506 123.93 20.9086 124.431 21.3213C124.344 21.2834 124.163 21.291 124.089 21.2346C124.431 21.3213 124.421 21.4881 124.503 21.6094C124.194 21.8985 123.879 21.3949 123.526 21.475L123.568 21.9158C123.522 21.9385 123.503 21.9244 123.471 21.9287C123.65 22.0371 123.784 22.1681 123.44 22.1973C123.01 22.0727 122.543 22.0358 122.2 21.9491L123.156 22.4171C122.702 22.3618 122.382 22.8177 122.056 22.4808L122.249 23.1826L121.335 23.2713C121.505 23.4305 121.672 23.4414 121.794 23.2432C121.579 23.4869 123.402 24.269 121.604 24.1778C122.369 24.7042 122.066 24.91 122.551 25.5728C121.707 25.0734 121.493 26.1932 121.09 25.6516C120.702 25.9678 121.684 26.0189 121.849 26.2615C121.467 26.4943 120.563 26.4162 120.218 26.1811L120.637 26.4725L120.456 26.48L120.968 26.7259C120.493 27.0042 120.054 26.8146 119.926 27.0962L120.742 27.1363L120.272 27.3312C120.643 27.2652 120.813 27.4244 120.872 27.6151L120.691 27.6226L120.856 27.8652C120.362 27.6334 120.687 28.0861 120.113 27.9972C120.074 28.2008 120.092 28.2149 120.241 28.5918L120.794 28.5182C121.29 29.0143 119.973 28.5614 119.927 28.9643L120.567 28.9287C119.509 29.549 121.193 29.9034 120.526 30.356C120.361 30.1134 119.628 30.1945 119.809 30.187C120.056 30.5509 119.892 31.1844 120.668 31.5441C119.748 31.7161 119.47 31.7366 119.063 32.1546C119.134 32.4427 119.222 32.4806 119.745 32.5597C119.404 32.8532 119.95 33.359 119.259 33.3849C119.797 33.4456 119.16 33.6296 119.627 33.7824L119.353 33.8354L119.993 33.7998C118.578 34.3519 120.829 34.6143 119.595 35.1589L119.42 35.083L119.677 35.2802C119.403 35.3332 119.209 35.2433 118.862 35.24L118.778 36.2266L119.262 36.0133C119.339 36.218 119.95 36.335 119.572 36.6003C118.597 36.2341 119.55 36.9338 118.817 37.015L118.559 36.8178C118.631 37.1059 118.631 37.1059 119.271 37.0703C119.518 37.4342 118.054 37.3646 118.741 37.6864L118.757 37.4362C119.125 37.3377 119.661 37.5143 119.65 37.6811C119.557 37.7266 119.259 37.8489 119.177 37.7276C119.429 38.0081 119.109 38.464 119.372 38.5778C119.181 38.7521 118.727 38.6968 118.552 38.621C119.13 39.2384 118.442 38.9166 119.002 39.5199L118.64 39.535L119.079 39.7246L118.329 40.0559L118.808 39.926C118.885 40.1307 119.148 40.2444 118.932 40.4881L118.391 40.3949C118.715 40.9635 117.508 41.0911 118.291 41.6316C118.198 41.6771 118.023 41.6012 117.935 41.5633C118.793 42.0443 116.999 41.9856 118.038 42.459C117.852 42.434 117.629 42.4968 117.477 42.4675L117.836 42.6842L117.108 42.6819L118.187 42.8359L117.448 43.0004L117.805 43.0686C116.407 43.3706 117.474 43.6913 116.451 44.0756L117.365 43.9869C119.29 44.7886 116.363 46.0217 117.29 47.0225L116.562 47.0202L117.425 47.4178C116.848 47.6766 116.8 47.3192 116.429 47.3852C116.851 47.8249 117.507 47.5391 117.743 48.0698C117.254 48.3665 117.206 48.0091 116.939 47.8628C117.319 48.3578 117.762 49.0759 117.35 49.4614C117.433 49.4668 117.568 49.482 117.614 49.4592C117.954 49.7777 117.635 50.2336 117.701 50.605C117.371 50.6158 117.308 50.5086 117.248 50.4339C117.2 50.5725 116.995 50.7652 117.337 50.8519L116.694 50.7392C116.584 51.0348 117.182 51.5504 116.435 51.6499C116.709 51.5969 117.27 51.5883 117.221 51.8428C116.12 52.0224 117.72 52.4873 117.132 52.9128C116.863 52.8824 116.792 52.5943 116.786 52.6777C116.501 52.8975 117.033 53.0416 117.384 53.1933L116.935 53.1705L117.598 54.0576C116.498 54.2372 117.813 54.9218 116.997 54.8816C116.975 55.2152 117.487 54.5849 117.622 54.9803C117.162 55.1242 117.869 55.3442 117.127 55.3603L117.039 55.3224L117.111 55.6105L116.398 55.4739C116.563 55.7165 117.294 55.8672 117.822 55.8629C117.426 56.1141 117.784 56.4466 117.139 56.5657L116.963 56.4898C117.282 57.1418 115.056 57.6862 116.308 58.1478C116.215 58.1932 116.034 58.2008 116.039 58.1174L116.012 58.5343L115.475 58.4736L116.336 59.1029L115.974 59.1181C115.854 59.5805 116.061 60.2639 116.204 60.84L116.028 60.7642C116.62 61.3632 115.716 61.4009 116.138 61.8407C116.037 61.8212 116.004 61.8255 115.986 61.8114L116.024 62.2197L115.667 62.1514C116.462 62.4093 114.699 63.074 115.35 62.8716C115.701 63.0232 116.134 63.2962 116.583 63.319C116.644 63.7739 116.123 63.463 115.833 63.7662C115.811 64.0997 116.441 64.115 116.14 64.5849L115.778 64.6C115.855 64.8047 116.118 64.9185 116.19 65.2066L116.014 65.1307C116.799 65.5554 114.975 65.7652 116.585 66.0633C116.3 66.2831 116.547 66.647 115.824 66.6772C116.328 67.2382 116.57 67.6855 116.893 68.2542C115.71 68.4283 116.976 68.3755 116.318 68.7772L116.954 68.709C117.095 69.5169 115.564 70.564 115.88 71.4477L115.245 71.5158L115.957 71.6524C115.725 72.6422 115.551 73.9385 115.571 74.7128C115.917 74.9479 116.706 75.2891 116.512 75.6952L116.424 75.6573C116.845 76.3288 117.157 77.0642 116.849 77.8493C116.58 77.8189 116.394 77.9099 116.218 77.8341C116.931 77.9706 116.279 78.2889 116.268 78.4557L116.734 78.2283C117.353 78.4104 116.789 78.7666 116.329 78.9105L117.03 79.2139C116.97 79.255 116.858 79.2864 116.761 79.2994L117.113 79.3352L116.285 79.5777C116.461 79.6535 116.702 80.1008 117.522 80.1735C117.248 80.2265 117.045 80.5676 116.881 80.325L116.72 81.6029L117.005 81.3831C117.641 81.3149 118.069 81.6713 117.798 81.8727C117.272 81.6452 116.894 81.9105 116.433 82.0544C116.784 82.2061 116.987 81.865 117.343 81.9333C117.782 82.1229 118.037 82.5518 117.758 82.6882L117.494 82.5744C117.747 82.855 116.651 83.0671 116.722 83.3551C117.249 83.5826 116.797 83.7916 117.887 83.6629C118.134 84.0268 117.153 83.8599 117.055 83.9887C117.586 84.1328 117.294 84.6678 116.746 84.7738C118.377 84.8542 116.24 85.8167 117.594 85.8017L116.848 86.1655C117.21 86.1504 118.035 86.1397 118.2 86.3823C117.822 86.6475 117.192 86.6323 116.825 86.7308L118.187 86.7808C116.843 88.2329 117.948 89.9539 116.886 91.5338C117.218 92.1674 117.92 92.9667 117.792 93.7443L117.616 93.6684L117.326 94.4676L117.906 93.8612C118.077 94.0205 118.354 94.1158 118.343 94.2826C117.866 95.1727 117.248 96.3628 118.04 97.3484C119.648 97.8783 116.709 97.906 117.891 98.4596C117.752 98.4119 117.52 98.4097 117.368 98.3804C117.95 99.0303 118.244 99.3715 119.22 100.002C117.69 100.057 119.295 100.438 118.488 100.463L119.118 100.478C118.746 100.66 118.649 101.053 118.2 101.031L119.009 101.27L118.359 101.357C118.346 101.755 118.955 102.6 117.677 102.935C118.725 103.854 118.594 105.475 118.466 106.749C119.011 106.874 119.077 107.246 119.163 107.516L118.436 107.893C118.703 108.156 119.692 108.387 119.221 108.698C119.124 108.711 119.073 108.701 119.022 108.692C119.209 108.981 118.821 109.297 119.561 109.513C119.539 109.846 119.174 110.209 118.456 110.156C119.718 110.07 118.352 110.864 118.352 110.864C118.352 110.864 118.263 111.934 118.252 113.589C118.241 115.244 118.276 117.487 118.587 119.827C118.899 122.166 119.408 124.628 120.344 126.685C121.279 128.743 122.579 130.438 124.407 131.253C125.042 131.301 125.484 131.639 126.214 131.409C126.48 131.671 125.393 131.948 126.033 131.913C126.403 131.467 127.661 131.845 128.388 131.351L128.567 131.575C129.012 131.566 128.018 131.301 128.839 131.258L127.675 131.33C127.825 131.095 128.058 130.982 128.453 130.846C127.973 130.712 126.377 130.776 127.018 130.244L127.1 130.365C127.02 130.012 127.835 130.052 128.003 129.947L127.998 130.031L128.544 129.661C128.184 129.94 129.164 130.223 129.087 130.018C129.37 129.534 128.826 130.169 128.634 129.847C128.558 129.642 129.184 129.625 129.545 129.61L129.465 129.257C130.003 129.202 129.463 129.489 129.998 129.285L129.367 128.89C130.723 128.643 128.648 128.456 129.907 128.107C130.261 128.407 130.358 128.014 130.821 128.018L130.648 127.214C130.834 127.123 131.101 127.386 131.019 127.264C131.373 127.068 130.659 127.048 130.664 126.964C131.046 126.847 130.568 126.365 131.482 126.277C132.026 125.642 130.296 126.187 130.765 125.612C131.309 125.473 130.933 126.003 131.488 125.697L131.223 125.203C131.506 125.215 132.132 125.198 132.028 125.41C132.585 123.881 135.414 122.777 134.526 121.573C135.168 121.305 134.984 121.66 135.424 121.734C134.449 120.872 136.713 120.24 136.558 119.45L136.02 119.506C137.581 118.19 136.424 116.955 136.989 115.607L136.634 115.803C136.089 115.677 136.003 115.408 135.745 115.21C136.019 115.157 136.923 115.235 136.662 114.89C136.475 114.981 136.284 115.155 136.019 115.157C137.324 113.909 136.743 111.655 137.238 109.787C136.575 107.412 137.384 104.675 136.823 102.32C136.903 102.673 135.545 102.655 135.835 102.352C138.037 101.381 135.337 101.096 136.82 100.188C135.965 98.8629 137.828 97.4575 135.957 96.318L136.607 96.2314C136.892 96.0116 136.428 96.0072 136.351 95.8025L136.532 95.795C136.732 95.3055 136.032 94.7704 136.322 94.4672L135.585 94.5158C135.499 94.2462 136.138 94.3264 135.691 94.0718L136.053 94.0567L135.337 93.7718C136.617 93.7005 135.377 92.9563 135.936 92.6835C135.675 92.338 135.074 91.674 135.279 91.1012C135.92 90.9497 135.862 90.263 136.163 89.7931C135.92 88.9656 135.612 87.7667 135.761 86.6556L134.945 86.7313L134.873 86.4432C135.054 86.4357 135.147 86.3902 135.235 86.4281C136.156 86.1402 134.903 85.7945 135.462 85.5217C134.727 85.7187 135.358 85.734 135.347 85.9007C134.969 86.166 134.154 86.0099 134.538 85.6613L134.719 85.6537L134.266 85.4825C134.902 85.4144 135.187 85.1946 135.822 85.1265C135.599 84.1973 134.436 83.6578 134.687 82.682C135.405 82.7352 134.447 82.003 135.717 82.0985C135.198 81.5558 134.714 82.2651 133.812 82.0711C133.823 81.9043 133.458 81.7711 133.927 81.6921C134.232 81.7506 134.679 81.5092 134.794 81.6262L134.677 81.2449C134.77 81.1995 134.946 81.2753 135.033 81.3132C134.257 80.5734 135.752 79.8784 134.97 79.222C134.52 79.1992 134.86 79.5176 134.411 79.4948C133.448 78.846 135.178 78.7975 134.488 78.2115L135.113 78.3101C134.674 78.1205 134.123 78.0782 134.6 77.6841C135.329 77.5705 135.228 77.9311 135.579 78.0828C135.595 77.8326 135.369 77.251 134.704 77.4718C134.451 77.1913 135.093 77.0398 135.27 76.8839C135.089 76.8914 134.799 77.1946 134.448 77.043C134.837 76.6109 134.773 76.0077 134.81 75.5398C134.991 75.5323 135.265 75.4793 135.353 75.5172C134.169 75.1954 135.815 75.1415 135.565 74.6292Z" fill="#FF7800"/>
<path d="M130.42 49.1591L130.316 49.3713C130.479 49.3497 130.664 49.3746 130.839 49.4505L130.42 49.1591Z" fill="#FF7800"/>
<path d="M130.383 58.4391C130.453 58.463 130.504 58.4727 130.573 58.4966C130.55 58.45 130.481 58.4261 130.383 58.4391Z" fill="#FF7800"/>
<path d="M131.796 60.5987C131.625 60.4393 131.448 60.5954 131.261 60.6864C131.41 60.6832 131.572 60.6615 131.796 60.5987Z" fill="#FF7800"/>
<path d="M128.281 44.0211C128.35 44.0449 128.452 44.0644 128.6 44.0612C128.462 44.0136 128.36 43.9941 128.281 44.0211Z" fill="#FF7800"/>
<path d="M128.368 29.5265C128.321 29.5493 128.307 29.5677 128.261 29.5905C128.307 29.5677 128.354 29.5449 128.368 29.5265Z" fill="#FF7800"/>
<path d="M127.238 30.3548C127.243 30.3874 127.265 30.434 127.343 30.523C127.381 30.4351 127.326 30.3928 127.238 30.3548Z" fill="#FF7800"/>
<path d="M128.679 47.5062C128.702 47.5527 128.775 47.6089 128.914 47.6565C128.887 47.5776 128.799 47.5397 128.679 47.5062Z" fill="#FF7800"/>
<path d="M127.513 30.6817L127.442 30.89C127.493 30.8998 127.525 30.8955 127.59 30.8868L127.513 30.6817Z" fill="#FF7800"/>
<path d="M128.449 29.2682C128.425 29.3374 128.424 29.453 128.368 29.5265C128.568 29.4174 128.573 29.3342 128.449 29.2682Z" fill="#FF7800"/>
<path d="M127.163 38.7306C127.182 38.7447 127.182 38.7447 127.182 38.7447C127.499 38.9003 127.352 38.7879 127.163 38.7306Z" fill="#FF7800"/>
<path d="M128.78 31.5052C128.766 31.5236 128.766 31.5236 128.752 31.5421L128.942 31.5996L128.78 31.5052Z" fill="#FF7800"/>
<path d="M128.712 28.3895C128.735 28.4362 128.772 28.4644 128.841 28.4883C128.87 28.4514 128.898 28.4145 128.926 28.3776C128.843 28.3722 128.777 28.3808 128.712 28.3895Z" fill="#FF7800"/>
<path d="M128.194 35.6671C127.921 35.6042 127.74 35.6118 127.591 35.615C127.614 35.6616 127.734 35.6951 128.194 35.6671Z" fill="#FF7800"/>
</svg>
