<svg width="66" height="66" viewBox="0 0 66 66" fill="none" xmlns="http://www.w3.org/2000/svg">
<path d="M42.8749 35.5384L43.4999 36.2999L43.7499 36.6807L43.8749 36.8076C43.9999 36.9346 43.9999 37.0615 44.1249 37.0615C44.4999 37.4422 45.1249 37.6961 45.7499 37.6961H46.7499L48.6249 37.5692H49.4999H49.9999C50.1249 37.5692 50.3749 37.5692 50.6249 37.4422C51.8749 37.1884 52.7499 36.0461 52.6249 34.7769L52.4999 32.873L52.3749 30.9692C52.3749 30.5884 52.3749 30.4615 52.2499 29.6999C52.1249 29.0653 51.7499 28.5576 51.1249 28.1769L51.2499 28.3038C48.1249 25.7653 44.9999 23.3538 41.8749 20.9422C38.7499 18.5307 35.6249 16.2461 32.4999 13.9615C32.3749 13.4538 32.2499 12.9461 32.2499 12.3115C32.3749 12.1846 32.4999 12.0576 32.6249 11.9307L34.8749 7.74225C34.9999 7.61533 36.1249 5.20379 36.1249 5.33071L36.2499 5.20379L36.3749 4.94994C36.7499 4.1884 36.6249 3.0461 36.1249 2.41148C35.7499 1.90379 35.2499 1.64994 34.7499 1.3961C34.4999 1.26917 34.1249 1.26917 33.9999 1.3961H33.3749L30.9999 1.52302C29.4999 1.64994 27.8749 1.77686 26.3749 2.03071C29.9999 2.5384 31.6249 2.5384 33.3749 2.66533H33.9999C34.2499 2.66533 34.2499 2.66533 34.3749 2.79225C34.6249 2.91917 34.7499 3.0461 34.8749 3.17302C34.9999 3.29994 34.9999 3.55379 34.9999 3.68071C34.9999 3.80763 34.8749 3.93456 34.6249 4.31533L33.3749 6.3461L30.8749 10.1538H26.1249H21.3749L19.2499 6.72686L17.9999 4.6961C17.7499 4.31533 17.6249 4.1884 17.6249 4.06148C17.6249 3.93456 17.6249 3.68071 17.7499 3.55379C17.8749 3.29994 17.9999 3.17302 18.2499 3.17302C18.3749 3.17302 18.3749 3.0461 18.6249 3.0461H19.2499L21.6249 2.91917C22.9999 2.66533 24.6249 2.5384 26.1249 2.28456C24.6249 2.03071 22.9999 1.90379 21.4999 1.77686L19.1249 1.64994H18.4999C18.2499 1.64994 17.9999 1.64994 17.7499 1.64994C17.2499 1.77686 16.7499 2.03071 16.3749 2.5384C15.8749 3.29994 15.7499 4.31533 16.1249 5.07686L16.2499 5.33071C16.6249 5.96533 17.6249 7.9961 17.4999 7.86917L19.7499 12.0576C19.8749 12.3115 20.1249 12.5653 20.4999 12.5653C18.7499 21.323 16.9999 30.3346 15.3749 39.5999L14.1249 46.8346L13.4999 50.5153C13.1249 52.0384 13.7499 53.8153 14.8749 54.8307L19.8749 60.0346L22.3749 62.573L22.9999 63.2076C23.8749 64.0961 24.9999 64.4769 26.2499 64.6038C27.4999 64.6038 28.6249 64.0961 29.4999 63.3346L30.1249 62.6999L32.6249 60.1615L37.6249 55.0846C38.7499 54.0692 39.3749 52.2922 38.9999 50.7692L38.3749 47.2153C37.8749 44.0422 36.4999 35.5384 34.7499 25.8922C35.8749 27.2884 36.8749 28.6846 37.9999 30.0807C39.6249 31.6038 41.2499 33.5076 42.8749 35.5384ZM20.6249 12.6922C21.1249 12.6922 26.3749 12.6922 26.1249 12.6922H31.3749C31.3749 12.9461 31.4999 13.1999 31.4999 13.4538C30.2499 14.2153 28.9999 14.9769 27.8749 15.9922C25.1249 18.1499 22.9999 20.4346 20.9999 22.973C20.2499 23.9884 19.4999 25.0038 18.8749 26.0192C19.3749 21.5769 19.9999 17.1346 20.4999 12.6922H20.6249ZM18.7499 26.7807C19.9999 26.0192 21.2499 25.2576 22.2499 24.3692C24.7499 22.3384 26.9999 20.0538 29.1249 17.3884C29.9999 16.373 30.7499 15.2307 31.4999 13.9615C32.1249 18.6576 32.6249 23.3538 33.3749 28.0499C31.6249 29.1922 30.1249 30.4615 28.6249 31.7307C24.9999 34.7769 21.9999 37.9499 19.2499 41.2499C18.2499 42.3922 17.3749 43.5346 16.4999 44.8038C16.7499 42.6461 17.3749 38.2038 18.7499 26.7807ZM35.8749 53.0538L30.8749 58.1307C30.7499 58.2576 27.4999 61.5576 27.7499 61.3038C27.3749 61.6846 26.8749 61.9384 26.2499 61.9384C25.6249 61.9384 25.1249 61.6846 24.6249 61.3038L23.9999 60.6692L21.4999 58.1307L20.8749 57.4961C22.2499 56.6076 23.4999 55.7192 24.6249 54.7038C27.6249 52.1653 30.2499 49.4999 32.8749 46.3269C33.7499 45.1846 34.6249 44.0422 35.3749 42.8999L35.9999 47.2153L36.4999 50.7692C36.7499 51.6576 36.4999 52.4192 35.8749 53.0538ZM35.3749 42.1384C33.9999 43.0269 32.7499 43.9153 31.6249 44.9307C28.4999 47.5961 25.7499 50.3884 23.3749 53.3076C22.3749 54.5769 21.4999 55.8461 20.6249 57.1153L16.4999 52.9269C15.8749 52.2922 15.6249 51.5307 15.7499 50.6422L16.2499 47.0884L16.4999 45.6922C17.9999 44.6769 19.3749 43.5346 20.7499 42.3922C24.1249 39.473 27.1249 36.4269 30.1249 32.873C31.3749 31.3499 32.4999 29.8269 33.6249 28.1769C34.1249 32.1115 34.7499 36.0461 35.2499 39.9807L35.3749 42.1384ZM32.8749 15.6115C35.3749 18.023 37.9999 20.3076 40.6249 22.5922C43.6249 25.1307 46.6249 27.7961 49.7499 30.3346L49.8749 30.4615V31.0961C49.8749 31.223 50.1249 35.1576 50.1249 34.9038C50.1249 34.9038 50.1249 35.0307 49.9999 35.0307L46.4999 35.2846L45.6249 35.4115H45.4999L44.3749 34.1422C41.7499 31.4769 39.1249 28.6846 34.3749 24.1153C33.9999 21.1961 33.4999 18.4038 32.8749 15.6115Z" fill="#FF7800"/>
</svg>
