<svg width="66" height="66" viewBox="0 0 66 66" fill="none" xmlns="http://www.w3.org/2000/svg">
<path d="M3 52.5461C6.5 52.4192 10 52.4192 13.375 52.2923C13.625 52.2923 13.875 52.1653 14 51.9115C22.5 51.6576 27.25 51.5307 32.875 51.2769C27.25 51.023 22.625 50.8961 14.25 50.6423C14.375 49.1192 14.625 47.4692 15 46.073C16.875 40.7423 20.875 36.6807 25.75 34.6499C25.875 34.6499 26 34.523 26.125 34.3961C26.5 34.0153 26.5 33.2538 26.125 32.873C24.75 31.4769 23.75 29.6999 23.375 27.7961C23 25.8923 23.125 23.8615 23.875 22.0846C24.625 20.3076 25.875 18.6576 27.375 17.6423C28.125 17.1346 29 16.7538 30 16.373C30.875 16.1192 31.875 15.9923 32.875 15.9923C33.875 15.9923 34.75 16.1192 35.75 16.373C36.625 16.6269 37.5 17.1346 38.375 17.6423C40 18.7846 41.25 20.3076 41.875 22.0846C42.625 23.8615 42.75 25.8923 42.375 27.7961C42 29.6999 41 31.4769 39.625 32.873C39.5 32.9999 39.375 33.1269 39.375 33.2538C39.125 33.7615 39.375 34.3961 40 34.6499C43.25 35.9192 46.25 38.2038 48.25 41.2499C49.25 42.6461 50.125 44.1692 50.625 45.8192C51.125 47.3423 51.375 48.9923 51.5 50.6423C48.625 50.7692 45.625 50.7692 42.75 50.8961C39.5 51.023 36.25 51.15 33 51.2769C36.25 51.4038 39.5 51.5307 42.75 51.6576C45.75 51.7846 48.75 51.9115 51.75 51.9115C51.875 52.1653 52.125 52.2923 52.375 52.2923C55.875 52.4192 59.375 52.4192 62.75 52.5461C63.375 52.5461 63.875 52.0384 63.875 51.4038C63.75 48.1038 62.75 44.8038 60.875 42.0115C59.375 39.7269 57.25 37.823 54.875 36.5538C56 35.1576 56.625 33.3807 56.75 31.6038C57 29.1923 56.375 26.7807 55 24.8769C53.625 22.973 51.625 21.5769 49.375 21.0692C47.625 20.5615 45.625 20.6884 44 21.323C43.125 19.0384 41.5 17.1346 39.625 15.7384C38.625 15.1038 37.5 14.4692 36.375 14.2153C35.25 13.8346 34 13.7076 32.875 13.7076C31.625 13.7076 30.5 13.9615 29.375 14.2153C28.25 14.5961 27.125 15.1038 26.125 15.7384C24.125 17.1346 22.625 19.0384 21.75 21.323C20 20.6884 18.125 20.5615 16.25 21.0692C14 21.5769 12 22.973 10.625 24.8769C9.25 26.7807 8.625 29.1923 8.875 31.6038C9 33.3807 9.75 35.1576 10.75 36.5538C8.375 37.823 6.25 39.7269 4.75 42.0115C2.875 44.8038 1.75 47.9769 1.75 51.4038C1.875 52.0384 2.375 52.5461 3 52.5461ZM44.625 22.5923C46.125 22.2115 47.75 22.2115 49.125 22.7192C50.875 23.2269 52.5 24.4961 53.5 26.0192C54.5 27.5423 54.875 29.4461 54.75 31.3499C54.5 33.1269 53.625 34.9038 52.375 36.0461C51.75 36.6807 51.875 37.6961 52.75 38.0769C55.375 39.2192 57.625 40.9961 59.25 43.4076C60.625 45.4384 61.5 47.723 61.875 50.1346C59.125 50.1346 56.375 50.2615 53.625 50.2615C53.5 48.4846 53 46.8346 52.375 45.1846C51.75 43.4076 51 41.6307 50 40.1076C48.125 37.1884 45.5 34.9038 42.5 33.2538C44.75 30.3346 45.625 26.3999 44.625 22.5923ZM6.875 43.4076C8.5 41.123 10.75 39.2192 13.375 38.0769C14.25 37.6961 14.375 36.6807 13.75 36.0461C12.375 34.7769 11.625 33.1269 11.375 31.3499C11.125 29.573 11.625 27.6692 12.625 26.0192C13.625 24.4961 15.125 23.2269 17 22.7192C18.5 22.2115 20 22.2115 21.5 22.5923C20.5 26.3999 21.375 30.3346 23.875 33.3807C20.875 35.0307 18.25 37.3153 16.375 40.2346C15.375 41.6307 14.625 43.2807 14.125 44.9307C13.375 46.7076 13 48.4846 12.75 50.3884C10 50.2615 7.25 50.2615 4.5 50.2615C4.625 47.723 5.5 45.4384 6.875 43.4076Z" fill="#FF7800"/>
</svg>
