<svg width="784" height="429" viewBox="0 0 784 429" fill="none" xmlns="http://www.w3.org/2000/svg">
<circle cx="375.425" cy="259.931" r="6.56761" fill="white"/>
<circle cx="480.024" cy="187.327" r="5.55721" fill="white"/>
<circle cx="263.245" cy="26.6182" r="5.55721" fill="white"/>
<circle cx="777.563" cy="157.88" r="5.55721" fill="white"/>
<circle cx="237.588" cy="245.588" r="8.58841" fill="white"/>
<circle cx="424.486" cy="91.7549" r="3.08734" fill="white"/>
<circle cx="372.273" cy="299.179" r="3.08734" fill="white"/>
<circle cx="226.386" cy="91.7548" r="3.08734" fill="white"/>
<circle cx="673.32" cy="105.914" r="3.08734" fill="white"/>
<circle cx="3.08734" cy="160.462" r="3.08734" fill="white"/>
<circle cx="593.222" cy="11.9332" r="3.08734" fill="white"/>
<circle cx="503.127" cy="141.096" r="4.93974" fill="white"/>
<circle cx="748.266" cy="54.4949" r="4.93974" fill="white"/>
<circle cx="305.03" cy="141.096" r="4.93974" fill="white"/>
<circle cx="608.274" cy="344.392" r="4.93974" fill="white"/>
<circle cx="576.269" cy="230.629" r="6.79214" fill="white"/>
<circle cx="400.755" cy="15.4643" r="6.79214" fill="white"/>
<circle cx="600.294" cy="118.025" r="3.08734" fill="white"/>
<circle cx="357.406" cy="425.545" r="3.08734" fill="white"/>
<path d="M653.556 186.668C653.621 187.088 653.643 187.514 653.753 187.93C653.799 188.099 653.864 188.257 653.92 188.42C654.155 189.112 654.398 189.805 654.78 190.435C655.06 190.895 655.381 191.332 655.668 191.788C655.981 192.285 656.371 192.72 656.801 193.112C657.604 193.842 658.447 194.525 659.43 195.015C660.266 195.433 661.128 195.784 662.057 195.945C662.209 195.97 662.354 196.028 662.5 196.079C663.025 196.268 663.563 196.394 664.121 196.45C664.43 196.48 664.736 196.501 665.046 196.512C665.658 196.536 666.257 196.42 666.861 196.366C667.449 196.313 668.003 196.124 668.576 196.017C668.587 196.015 668.598 196.015 668.606 196.011C669.056 195.859 669.481 195.66 669.892 195.405C669.661 195.321 669.453 195.458 669.182 195.441C669.375 195.309 669.568 195.3 669.737 195.231C669.909 195.165 670.085 195.114 670.243 195.06C670.278 194.964 670.176 194.972 670.18 194.882C670.308 194.748 670.439 194.572 670.636 194.478C670.899 194.349 671.116 194.161 671.335 193.979C671.726 193.649 672.106 193.304 672.484 192.962C672.933 192.555 673.295 192.071 673.693 191.619C674.036 191.227 674.309 190.784 674.613 190.362C674.928 189.925 675.141 189.448 675.386 188.979C675.625 188.529 675.883 188.09 676.07 187.615C676.372 186.844 676.602 186.062 676.682 185.234C676.73 184.737 676.728 184.24 676.76 183.743C676.791 183.287 676.628 182.842 676.5 182.403C676.484 182.354 676.456 182.309 676.448 182.259C676.33 181.559 675.955 180.97 675.599 180.379C675.321 179.917 674.934 179.527 674.589 179.112C674.248 178.703 673.869 178.328 673.452 177.996C673.068 177.692 672.688 177.382 672.262 177.127C671.965 176.949 671.687 176.741 671.385 176.564C670.949 176.309 670.51 176.075 670.03 175.908C669.703 175.793 669.401 175.609 669.082 175.472C668.335 175.15 667.562 174.902 666.783 174.673C666.097 174.469 665.396 174.388 664.684 174.339C664.169 174.302 663.655 174.283 663.14 174.287C662.283 174.296 661.458 174.482 660.676 174.808C660.042 175.073 659.469 175.459 658.911 175.861C658.347 176.268 657.919 176.797 657.478 177.322C657.103 177.767 656.786 178.255 656.402 178.696C656.25 178.87 656.159 179.095 656.033 179.292C655.609 179.96 655.325 180.69 655.023 181.412C654.999 181.467 654.975 181.525 654.945 181.576C654.578 182.185 654.368 182.85 654.187 183.531C654.077 183.934 653.873 184.311 653.781 184.716C653.638 185.354 653.451 185.987 653.556 186.668ZM662.02 175.379C662.024 175.472 661.95 175.491 661.874 175.499C661.712 175.519 661.549 175.534 661.388 175.559C661.167 175.594 660.948 175.658 660.726 175.669C660.598 175.675 660.489 175.688 660.392 175.784C660.357 175.626 660.355 175.621 660.468 175.579C660.889 175.418 661.327 175.324 661.768 175.234C661.799 175.227 661.829 175.225 661.859 175.227C661.955 175.236 662.016 175.287 662.02 175.379ZM663.125 175.827C662.58 175.855 662.035 175.891 661.492 175.945C662.029 175.812 662.567 175.692 663.125 175.827ZM664.093 174.519C663.464 174.506 662.838 174.576 662.148 174.611C662.619 174.422 663.759 174.373 664.093 174.519ZM666.483 174.836C666.099 174.776 665.743 174.756 665.409 174.634C665.752 174.604 666.307 174.711 666.483 174.836ZM667.929 175.664C667.914 175.66 667.905 175.639 667.894 175.626C667.899 175.602 667.912 175.591 667.936 175.598C667.953 175.602 667.979 175.615 667.981 175.626C667.988 175.664 667.957 175.673 667.929 175.664ZM668.6 175.883C668.587 175.891 668.574 175.902 668.561 175.911C668.546 175.902 668.52 175.896 668.515 175.883C668.507 175.844 668.535 175.836 668.565 175.844C668.58 175.848 668.589 175.87 668.6 175.883ZM670.408 177.401C670.302 177.397 670.215 177.345 670.126 177.298C669.937 177.197 669.746 177.095 669.551 177.005C669.028 176.763 668.478 176.585 667.949 176.364C666.653 175.823 665.298 175.551 663.893 175.512C663.431 175.499 662.966 175.504 662.502 175.497C662.257 175.495 662.237 175.476 662.152 175.176C662.504 175.195 662.849 175.009 663.179 175.255C663.207 175.277 663.262 175.281 663.296 175.268C663.422 175.223 663.557 175.257 663.694 175.245C663.633 175.114 663.494 175.189 663.403 175.088C663.49 175.088 663.553 175.08 663.611 175.09C663.939 175.146 664.273 175.142 664.599 175.174C664.838 175.197 665.077 175.251 665.324 175.253C665.539 175.255 665.749 175.33 665.96 175.373C666.171 175.416 666.357 175.469 666.427 175.699C666.431 175.711 666.464 175.714 666.501 175.729C666.676 175.547 666.907 175.568 667.117 175.658C667.321 175.744 667.584 175.791 667.59 176.084C667.682 176.123 667.792 176.172 667.84 176.123C668.012 175.949 668.159 176.071 668.313 176.129C668.93 176.36 669.522 176.641 670.111 176.932C670.126 176.94 670.132 176.962 670.146 176.979C670.132 177.035 670.043 177.005 670.037 177.095C670.102 177.242 670.345 177.225 670.408 177.401ZM664.653 176.118C664.497 176.118 664.338 176.131 664.191 176.06C664.345 176.075 664.508 176.03 664.653 176.118ZM665.396 176.219C665.153 176.191 664.903 176.208 664.668 176.12C664.918 176.101 665.163 176.114 665.396 176.219ZM670.849 177.465C670.797 177.397 670.69 177.373 670.669 177.2C671.018 177.427 671.357 177.585 671.643 177.829C671.535 177.825 671.476 177.934 671.376 177.953C671.196 177.9 671.055 177.776 670.892 177.692C670.849 177.671 670.821 177.621 670.786 177.585C670.647 177.557 670.525 177.497 670.419 177.407C670.562 177.424 670.706 177.446 670.849 177.465ZM676.406 184.626C676.389 185.007 676.337 185.39 676.194 185.805C676.159 185.63 676.172 185.504 676.189 185.377C676.202 185.287 676.228 185.193 676.215 185.105C676.144 184.649 676.185 184.191 676.168 183.735C676.163 183.613 676.144 183.493 676.137 183.371C676.1 182.776 675.92 182.212 675.714 181.66C675.508 181.103 675.225 180.576 674.848 180.122C674.437 179.63 674.042 179.12 673.552 178.694C673.035 178.245 672.549 177.763 671.958 177.401C671.689 177.236 671.411 177.08 671.188 176.851C671.468 176.921 671.68 177.103 671.917 177.242C672.727 177.718 673.411 178.349 674.112 178.958C674.487 179.283 674.774 179.681 675.091 180.052C675.531 180.568 675.864 181.155 676.085 181.795C676.408 182.716 676.452 183.668 676.406 184.626ZM671.85 178.009C671.709 178.009 671.7 177.904 671.656 177.833C671.743 177.859 671.847 177.868 671.85 178.009ZM672.273 178.204C672.297 178.352 672.262 178.422 672.169 178.442C672.062 178.463 671.919 178.339 671.852 178.163C671.993 178.21 672.119 178.285 672.273 178.204ZM672.573 178.564C672.497 178.559 672.44 178.542 672.442 178.429C672.544 178.427 672.586 178.461 672.573 178.564ZM673.059 178.951C672.814 179.043 672.772 178.799 672.594 178.726C672.861 178.669 672.883 178.679 673.059 178.951ZM673.426 179.227C673.441 179.234 673.447 179.257 673.458 179.272C673.445 179.283 673.43 179.307 673.417 179.304C673.402 179.302 673.378 179.283 673.374 179.268C673.365 179.23 673.391 179.215 673.426 179.227ZM673.797 179.656C673.736 179.549 673.582 179.619 673.465 179.461C673.665 179.461 673.764 179.495 673.797 179.656ZM674.272 180.122C674.324 180.167 674.39 180.189 674.346 180.3C674.294 180.253 674.229 180.232 674.272 180.122ZM674.544 180.446C674.557 180.452 674.57 180.474 674.57 180.489C674.57 180.51 674.552 180.516 674.529 180.51C674.515 180.499 674.492 180.486 674.489 180.476C674.487 180.437 674.515 180.431 674.544 180.446ZM674.989 181.668C674.835 181.568 674.741 181.424 674.687 181.253C674.845 181.347 674.93 181.499 674.989 181.668ZM675.184 182.013C675.078 181.925 675.002 181.821 674.993 181.677C675.112 181.761 675.169 181.876 675.184 182.013ZM675.922 187.283C676.072 186.797 676.224 186.311 676.374 185.823C676.354 186.343 676.165 186.818 675.922 187.283ZM675.206 187.197C675.258 186.885 675.247 186.57 675.23 186.255C675.223 186.133 675.223 186.013 675.23 185.891C675.254 185.283 675.301 184.666 675.215 184.065C675.082 183.157 674.835 182.274 674.301 181.499C674.266 181.448 674.218 181.392 674.255 181.309C675.627 182.863 676.398 185.546 675.208 187.694C675.165 187.51 675.18 187.351 675.206 187.197ZM674.819 188.077C674.841 187.977 674.861 187.874 674.882 187.773C674.928 187.885 674.917 187.987 674.819 188.077ZM674.711 188.613C674.746 188.675 674.724 188.726 674.659 188.793C674.639 188.703 674.654 188.651 674.711 188.613ZM674.474 184.874C674.522 184.949 674.552 184.998 674.509 185.08C674.437 185.009 674.44 184.955 674.474 184.874ZM674.162 183.491C674.229 183.478 674.225 183.538 674.214 183.617C674.162 183.559 674.133 183.497 674.162 183.491ZM673.968 185.647C674.018 185.782 674.066 185.917 674.036 186.116C673.936 185.934 673.938 185.793 673.968 185.647ZM673.649 186.662C673.73 187.48 673.673 188.285 673.45 189.122C673.358 188.743 673.491 186.979 673.649 186.662ZM670.647 191.634C670.703 191.396 670.886 191.253 671.044 191.112C671.405 190.79 671.602 190.369 671.826 189.964C671.902 189.825 671.965 189.679 672.121 189.508C672.134 189.765 672.045 189.93 672.008 190.103C671.939 190.431 671.845 190.752 671.672 191.047C671.483 191.364 671.083 191.602 670.647 191.634ZM671.889 179.913C672.069 179.943 672.069 179.943 672.104 180.09C672.012 180.043 671.939 180.005 671.889 179.913ZM666.922 176.758C667.022 176.729 667.087 176.733 667.141 176.761C667.423 176.911 667.738 176.983 668.029 177.114C668.778 177.452 669.54 177.761 670.269 178.144C670.792 178.418 671.277 178.746 671.722 179.12C672.329 179.632 672.903 180.182 673.434 180.776C673.814 181.197 674.125 181.664 674.394 182.155C674.746 182.795 674.919 183.497 675.037 184.212C675.054 184.319 675.069 184.433 675.03 184.553C674.943 184.478 674.941 184.384 674.939 184.296C674.934 184.12 674.889 183.953 674.848 183.786C674.613 182.795 674.114 181.93 673.469 181.157C672.92 180.499 672.364 179.842 671.722 179.264C671.507 179.071 671.279 178.9 671.033 178.748C670.139 178.195 669.182 177.771 668.22 177.349C667.981 177.245 667.751 177.082 667.46 177.133C667.395 177.144 667.347 177.095 667.306 177.045C667.208 176.93 667.08 176.842 666.922 176.758ZM666.657 176.18C666.581 176.159 666.507 176.133 666.479 176.018C667.341 176.281 668.155 176.589 668.952 176.938C669.902 177.354 670.829 177.81 671.696 178.39C672.681 179.052 673.569 179.814 674.333 180.713C674.468 180.874 674.624 181.028 674.678 181.242C674.526 181.182 674.444 181.052 674.353 180.932C674.12 180.632 673.873 180.347 673.595 180.088C672.77 179.317 671.88 178.626 670.892 178.073C670.302 177.743 669.705 177.422 669.084 177.15C668.285 176.801 667.499 176.427 666.657 176.18ZM665.934 188.249C665.947 188 665.962 187.754 665.98 187.463C666.264 187.671 666.346 188.06 666.195 188.287C666.149 188.354 666.092 188.386 666.014 188.362C665.958 188.347 665.93 188.302 665.934 188.249ZM663.611 176.472C663.181 176.454 662.752 176.403 662.32 176.418C662.224 176.42 662.118 176.444 661.994 176.354C662.296 176.264 662.571 176.309 662.838 176.305C663.125 176.298 663.414 176.272 663.696 176.345C663.969 176.416 664.252 176.277 664.519 176.369C664.764 176.452 665.024 176.48 665.27 176.564C665.541 176.656 665.847 176.544 666.108 176.696C666.342 176.831 666.629 176.829 666.859 176.979C666.353 176.889 665.841 176.889 665.341 176.767C664.775 176.628 664.199 176.497 663.611 176.472ZM662.758 186.129C662.936 186.157 663.097 186.227 663.283 186.223C663.329 186.386 663.448 186.471 663.585 186.553C663.948 186.773 664.223 187.09 664.503 187.401C664.545 187.446 664.61 187.506 664.508 187.621C664.032 186.994 663.407 186.551 662.758 186.129ZM659.966 177.159C660.841 176.838 661.746 176.737 662.682 176.844C662.233 176.908 661.779 176.953 661.327 177C660.874 177.048 660.427 177.152 659.977 177.232C659.973 177.206 659.971 177.182 659.966 177.159ZM659.717 177.071C659.734 177.155 659.838 177.227 659.706 177.3C659.628 177.343 659.562 177.313 659.539 177.23C659.502 177.095 659.608 177.095 659.717 177.071ZM658.974 176.743C659.011 176.654 659.059 176.63 659.163 176.651C659.1 176.716 659.065 176.758 658.974 176.743ZM658.362 193.96C658.501 193.955 658.59 194.015 658.616 194.148C658.531 194.086 658.447 194.022 658.362 193.96ZM653.881 186.666C654.2 188.039 654.665 189.36 655.305 190.617C654.533 189.405 654.035 188.095 653.881 186.666Z" fill="white"/>
<path d="M453.297 21.6607C453.62 21.7889 453.93 21.9506 454.269 22.0445C454.407 22.0823 454.546 22.1019 454.685 22.1294C455.27 22.25 455.861 22.3654 456.465 22.3553C456.907 22.3474 457.35 22.3003 457.792 22.286C458.273 22.2701 458.743 22.1728 459.2 22.0298C460.052 21.7618 460.887 21.4464 461.645 20.9505C462.29 20.5294 462.899 20.0621 463.402 19.4677C463.484 19.3703 463.586 19.2908 463.683 19.2087C464.037 18.9132 464.352 18.5827 464.625 18.2088C464.775 18.0019 464.919 17.793 465.057 17.5766C465.33 17.1508 465.5 16.6764 465.716 16.2247C465.925 15.7838 466.025 15.3116 466.19 14.8593C466.193 14.8507 466.197 14.843 466.198 14.835C466.279 14.4521 466.318 14.0665 466.31 13.6687C466.155 13.7977 466.164 14.0029 466.038 14.1889C466.026 13.9962 466.101 13.8552 466.123 13.7062C466.149 13.5566 466.186 13.4101 466.215 13.2751C466.162 13.2103 466.125 13.2865 466.063 13.246C466.022 13.0988 465.953 12.9331 465.969 12.7534C465.989 12.5131 465.947 12.2803 465.911 12.0486C465.843 11.6335 465.759 11.2199 465.676 10.8087C465.578 10.3198 465.389 9.86066 465.238 9.39017C465.106 8.98321 464.908 8.60433 464.738 8.21272C464.563 7.80715 464.315 7.45727 464.088 7.08779C463.871 6.73095 463.67 6.36465 463.414 6.0342C462.997 5.49905 462.543 5.01041 461.992 4.60878C461.662 4.36829 461.311 4.16333 460.975 3.93365C460.666 3.72243 460.284 3.65314 459.921 3.5618C459.88 3.55214 459.836 3.55353 459.798 3.53923C459.255 3.33157 458.683 3.35402 458.117 3.36168C457.674 3.36713 457.237 3.48009 456.8 3.55301C456.368 3.62551 455.945 3.74006 455.536 3.89867C455.16 4.04568 454.782 4.18694 454.424 4.38377C454.174 4.52151 453.911 4.63289 453.659 4.77372C453.296 4.97828 452.948 5.19329 452.629 5.46523C452.41 5.65041 452.153 5.78858 451.923 5.95868C451.383 6.35653 450.884 6.80319 450.395 7.26249C449.964 7.66605 449.612 8.13116 449.278 8.61734C449.037 8.9683 448.807 9.32638 448.594 9.69426C448.241 10.308 448.026 10.9724 447.927 11.6638C447.848 12.2252 447.879 12.7932 447.929 13.3576C447.978 13.9283 448.172 14.4525 448.356 14.9841C448.513 15.4365 448.724 15.865 448.873 16.3217C448.932 16.502 449.052 16.6603 449.138 16.8318C449.431 17.4107 449.826 17.9166 450.208 18.4313C450.237 18.4714 450.268 18.5124 450.292 18.5554C450.566 19.0693 450.947 19.4959 451.351 19.9072C451.589 20.1533 451.769 20.4552 452.016 20.6883C452.405 21.0555 452.773 21.4518 453.297 21.6607ZM448.894 10.9453C448.961 10.9805 448.943 11.041 448.917 11.0986C448.863 11.2225 448.805 11.3446 448.756 11.4696C448.687 11.6414 448.64 11.8241 448.555 11.9861C448.505 12.0799 448.469 12.1625 448.496 12.272C448.369 12.2309 448.366 12.2306 448.383 12.1325C448.446 11.7661 448.564 11.4149 448.686 11.0639C448.694 11.0396 448.705 11.0171 448.719 10.9964C448.765 10.932 448.827 10.9101 448.894 10.9453ZM449.673 10.3451C449.464 10.7444 449.261 11.1472 449.071 11.5556C449.202 11.1189 449.344 10.686 449.673 10.3451ZM449.157 9.11227C448.884 9.55489 448.671 10.0291 448.406 10.5346C448.471 10.1211 448.914 9.28962 449.157 9.11227ZM450.384 7.5433C450.18 7.79179 450.017 8.03711 449.791 8.22425C449.914 7.96773 450.223 7.6168 450.384 7.5433ZM451.575 6.85902C451.565 6.86805 451.547 6.86533 451.533 6.86771C451.518 6.85483 451.516 6.84111 451.531 6.82679C451.541 6.81621 451.561 6.80302 451.569 6.80592C451.599 6.81731 451.593 6.8425 451.575 6.85902ZM452.01 6.4725C452.011 6.48533 452.013 6.49905 452.013 6.51188C452.001 6.51913 451.986 6.535 451.975 6.53274C451.944 6.5229 451.95 6.49926 451.968 6.48119C451.978 6.47216 451.997 6.47488 452.01 6.4725ZM453.839 5.81687C453.791 5.89078 453.719 5.93121 453.648 5.97496C453.498 6.06751 453.345 6.16071 453.2 6.26235C452.81 6.53404 452.454 6.85096 452.076 7.13619C451.151 7.83316 450.39 8.68401 449.774 9.6674C449.571 9.99108 449.379 10.3234 449.179 10.6513C449.075 10.825 449.053 10.8309 448.806 10.7665C448.967 10.5243 448.981 10.2012 449.293 10.0688C449.32 10.0576 449.346 10.0208 449.351 9.99071C449.372 9.88243 449.453 9.8009 449.501 9.69824C449.384 9.6872 449.378 9.81721 449.269 9.84025C449.305 9.77847 449.326 9.73011 449.358 9.69285C449.535 9.48275 449.672 9.24309 449.831 9.02473C449.948 8.86461 450.086 8.71695 450.192 8.54174C450.283 8.38971 450.425 8.27103 450.543 8.139C450.662 8.00696 450.778 7.89637 450.968 7.94219C450.979 7.94444 450.994 7.92216 451.02 7.90213C450.966 7.70135 451.078 7.54651 451.229 7.43406C451.375 7.32447 451.519 7.15714 451.728 7.27445C451.794 7.2256 451.875 7.16729 451.86 7.11284C451.81 6.91871 451.958 6.8644 452.063 6.77876C452.485 6.43621 452.932 6.13111 453.384 5.83356C453.396 5.8263 453.414 5.83057 453.432 5.82843C453.465 5.86084 453.407 5.91171 453.467 5.95373C453.599 5.9688 453.689 5.78868 453.839 5.81687ZM450.52 9.37866C450.454 9.48988 450.397 9.60798 450.285 9.68365C450.36 9.5802 450.397 9.44566 450.52 9.37866ZM450.902 8.89221C450.781 9.05365 450.688 9.23841 450.528 9.36874C450.619 9.18309 450.731 9.01388 450.902 8.89221ZM454.069 5.53C453.999 5.53859 453.938 5.60449 453.807 5.54784C454.113 5.3935 454.367 5.21839 454.659 5.11597C454.611 5.19142 454.663 5.27852 454.635 5.35759C454.521 5.46355 454.375 5.51233 454.247 5.59346C454.214 5.61545 454.168 5.61506 454.127 5.62465C454.049 5.71194 453.956 5.77351 453.848 5.81182C453.92 5.71699 453.996 5.62394 454.069 5.53ZM461.448 4.55217C461.709 4.72296 461.958 4.91937 462.19 5.194C462.052 5.14573 461.968 5.08394 461.887 5.01907C461.829 4.97241 461.773 4.91471 461.706 4.88749C461.354 4.74887 461.049 4.52903 460.72 4.35179C460.632 4.30414 460.54 4.2682 460.451 4.2221C460.016 4.0009 459.543 3.89501 459.067 3.8121C458.589 3.72742 458.099 3.70926 457.62 3.78933C457.101 3.87654 456.576 3.94583 456.07 4.11779C455.536 4.2985 454.992 4.44424 454.49 4.71396C454.26 4.83697 454.034 4.96971 453.778 5.03357C453.946 4.86368 454.163 4.78796 454.361 4.67744C455.036 4.29888 455.768 4.07489 456.491 3.82875C456.878 3.69682 457.279 3.65848 457.673 3.58695C458.221 3.48789 458.774 3.49545 459.318 3.60404C460.103 3.75663 460.793 4.12184 461.448 4.55217ZM454.873 5.04399C454.813 5.1444 454.736 5.10696 454.668 5.10848C454.722 5.05737 454.772 4.98679 454.873 5.04399ZM455.188 4.82378C455.302 4.86821 455.337 4.9223 455.311 4.99673C455.282 5.08132 455.134 5.13164 454.982 5.10654C455.075 5.02571 455.18 4.96728 455.188 4.82378ZM455.567 4.76015C455.532 4.81244 455.496 4.84548 455.417 4.79676C455.458 4.72326 455.5 4.70816 455.567 4.76015ZM456.044 4.57525C456.006 4.78808 455.817 4.71595 455.691 4.81235C455.762 4.59832 455.779 4.58733 456.044 4.57525ZM456.393 4.42903C456.404 4.42088 456.423 4.42604 456.438 4.42455C456.44 4.43827 456.45 4.45887 456.443 4.46725C456.436 4.47717 456.412 4.48615 456.4 4.48301C456.369 4.47317 456.369 4.4484 456.393 4.42903ZM456.85 4.34291C456.749 4.34166 456.735 4.4807 456.574 4.49825C456.658 4.35613 456.724 4.29932 456.85 4.34291ZM457.379 4.19867C457.432 4.18029 457.475 4.14285 457.535 4.22003C457.48 4.23752 457.438 4.27496 457.379 4.19867ZM457.721 4.13999C457.731 4.13339 457.751 4.13303 457.762 4.13926C457.777 4.14816 457.774 4.16319 457.76 4.17751C457.747 4.18233 457.727 4.19398 457.719 4.19107C457.691 4.17659 457.698 4.15384 457.721 4.13999ZM458.769 4.33159C458.634 4.39943 458.493 4.40621 458.35 4.37362C458.483 4.30002 458.625 4.30298 458.769 4.33159ZM459.094 4.33588C458.988 4.37507 458.882 4.38552 458.777 4.33206C458.886 4.28182 458.991 4.28972 459.094 4.33588ZM463.118 6.00127C462.838 5.69263 462.559 5.38245 462.278 5.07291C462.637 5.30312 462.892 5.63511 463.118 6.00127ZM462.757 6.47542C462.558 6.30839 462.332 6.18526 462.103 6.06677C462.014 6.02067 461.929 5.97082 461.846 5.91545C461.428 5.64566 461.013 5.35533 460.553 5.16699C459.857 4.8838 459.132 4.69317 458.361 4.75094C458.31 4.75429 458.251 4.76513 458.208 4.70415C459.879 4.37414 462.093 4.9411 463.108 6.68038C462.96 6.63472 462.854 6.55804 462.757 6.47542ZM463.215 7.11621C463.153 7.05893 463.089 7.0023 463.027 6.94502C463.124 6.95887 463.192 7.00931 463.215 7.11621ZM463.546 7.41598C463.605 7.41707 463.632 7.45388 463.651 7.52782C463.58 7.50434 463.55 7.47216 463.546 7.41598ZM460.812 6.03019C460.885 6.02736 460.933 6.02621 460.972 6.09093C460.892 6.11253 460.855 6.08873 460.812 6.03019ZM459.706 5.67761C459.725 5.62438 459.766 5.6524 459.817 5.69305C459.754 5.70609 459.699 5.70036 459.706 5.67761ZM461.145 6.71144C461.261 6.73199 461.376 6.75409 461.503 6.85849C461.333 6.85389 461.235 6.79359 461.145 6.71144ZM461.726 7.36043C462.336 7.6433 462.88 8.01815 463.376 8.52529C463.071 8.43262 461.883 7.60493 461.726 7.36043ZM463.97 11.5636C463.826 11.4246 463.802 11.2352 463.769 11.0637C463.693 10.6738 463.479 10.3579 463.288 10.0305C463.221 9.91861 463.145 9.81329 463.09 9.63086C463.277 9.72841 463.356 9.86028 463.462 9.95864C463.664 10.1443 463.851 10.3442 463.987 10.5906C464.131 10.8567 464.13 11.2398 463.97 11.5636ZM456.231 5.80751C456.327 5.69176 456.327 5.69176 456.446 5.72846C456.375 5.77376 456.316 5.81025 456.231 5.80751ZM451.923 8.03061C451.944 7.94709 451.974 7.90253 452.017 7.87548C452.241 7.73698 452.424 7.54327 452.638 7.39058C453.191 6.9983 453.728 6.58429 454.304 6.2246C454.717 5.96627 455.151 5.75799 455.602 5.5971C456.218 5.37733 456.846 5.19829 457.487 5.06641C457.944 4.97144 458.403 4.9446 458.862 4.95689C459.461 4.9728 460.029 5.14118 460.582 5.35507C460.665 5.38722 460.751 5.42358 460.819 5.50124C460.73 5.53187 460.663 5.49425 460.6 5.4593C460.474 5.3894 460.337 5.35241 460.202 5.31232C459.405 5.06703 458.586 5.06269 457.771 5.20013C457.077 5.31767 456.38 5.43984 455.703 5.65674C455.477 5.72955 455.261 5.82054 455.051 5.93189C454.286 6.33865 453.585 6.84361 452.884 7.35256C452.71 7.47886 452.499 7.57494 452.413 7.80329C452.393 7.85409 452.339 7.8676 452.287 7.87647C452.164 7.89792 452.048 7.95256 451.923 8.03061ZM451.404 7.97873C451.357 8.02389 451.308 8.06573 451.215 8.03774C451.762 7.53398 452.321 7.0829 452.902 6.66109C453.594 6.1572 454.304 5.68722 455.077 5.31211C455.957 4.88587 456.866 4.57097 457.821 4.40109C457.991 4.37208 458.165 4.32495 458.339 4.37535C458.233 4.45855 458.106 4.46295 457.983 4.47798C457.674 4.51865 457.37 4.57635 457.07 4.66637C456.181 4.93291 455.32 5.27872 454.516 5.7519C454.036 6.03498 453.559 6.32625 453.107 6.65499C452.525 7.07834 451.932 7.48175 451.404 7.97873ZM459.606 13.5098C459.437 13.3973 459.269 13.2841 459.071 13.1507C459.337 13.0347 459.646 13.138 459.743 13.3405C459.77 13.4005 459.769 13.454 459.72 13.4999C459.686 13.5338 459.642 13.5352 459.606 13.5098ZM450.331 10.267C450.139 10.5657 449.922 10.8502 449.752 11.1638C449.713 11.2327 449.685 11.3182 449.57 11.3688C449.633 11.1167 449.78 10.9392 449.889 10.7475C450.005 10.5409 450.108 10.3248 450.278 10.1542C450.442 9.98896 450.463 9.7303 450.64 9.57858C450.802 9.43874 450.931 9.26495 451.092 9.12511C451.271 8.9703 451.321 8.70622 451.538 8.58405C451.731 8.4733 451.85 8.26851 452.052 8.16709C451.776 8.48961 451.561 8.85416 451.266 9.1587C450.93 9.50401 450.596 9.85905 450.331 10.267ZM456.779 14.8885C456.873 14.7734 456.991 14.6885 457.066 14.5538C457.2 14.5891 457.31 14.5397 457.425 14.4762C457.733 14.3099 458.072 14.2455 458.408 14.1753C458.457 14.1646 458.527 14.1432 458.565 14.2639C457.924 14.3414 457.349 14.602 456.779 14.8885ZM449.286 13.1462C449.427 12.3902 449.736 11.7042 450.204 11.083C450.061 11.4294 449.902 11.771 449.746 12.1119C449.588 12.4543 449.475 12.8161 449.342 13.1688C449.322 13.1612 449.304 13.1529 449.286 13.1462ZM449.119 13.2874C449.185 13.3097 449.28 13.2659 449.276 13.3904C449.274 13.4638 449.225 13.4976 449.156 13.4799C449.046 13.4501 449.09 13.3744 449.119 13.2874ZM448.577 13.6795C448.529 13.6158 448.532 13.5721 448.591 13.5068C448.61 13.5783 448.626 13.6208 448.577 13.6795ZM460.453 21.2717C460.508 21.171 460.588 21.1326 460.692 21.1693C460.613 21.2037 460.532 21.2372 460.453 21.2717ZM453.432 21.4282C454.533 21.7717 455.66 21.9903 456.814 22.0571C455.636 22.1032 454.503 21.9122 453.432 21.4282Z" fill="white"/>
<path d="M361.262 176.683C361.202 176.8 361.197 176.919 361.244 177.047C361.548 177.85 361.826 178.667 362.13 179.467C362.473 180.367 362.961 181.215 363.685 181.895C363.995 182.187 364.235 182.545 364.578 182.813C365.083 183.207 365.467 183.741 366.035 184.069C366.233 184.183 366.383 184.376 366.558 184.535C366.623 184.594 366.688 184.702 366.759 184.705C367.362 184.743 367.725 185.221 368.186 185.504C369.02 186.02 369.927 186.345 370.831 186.673C372.073 187.127 373.302 187.631 374.611 187.887C374.957 187.956 375.282 188.117 375.652 188.043C375.725 188.028 375.82 188.09 375.9 188.123C376 188.162 376.095 188.242 376.195 188.245C376.893 188.269 377.582 188.43 378.273 188.43C379.148 188.43 380.023 188.356 380.895 188.281C381.302 188.245 381.71 188.159 382.106 188.051C383.161 187.765 384.169 187.356 385.088 186.748C385.626 186.393 386.217 186.139 386.74 185.749C386.995 185.558 387.216 185.328 387.479 185.143C387.784 184.928 388.082 184.693 388.395 184.487C388.803 184.221 389.188 183.938 389.516 183.571C389.717 183.347 389.932 183.127 390.237 183.025C390.346 182.989 390.473 182.888 390.517 182.784C390.736 182.282 391.224 182.068 391.587 181.722C391.697 181.617 391.765 181.504 391.8 181.358C391.886 181.033 392.042 180.809 392.43 180.83C392.731 180.845 392.743 180.594 392.761 180.373C393.044 179.994 393.142 179.535 393.284 179.1C393.378 178.807 393.47 178.53 393.644 178.264C393.881 177.906 393.946 177.45 394.123 177.071C394.419 176.445 394.377 175.812 394.38 175.168C394.38 175.138 394.354 175.105 394.339 175.073C394.159 175.046 394.209 175.264 394.014 175.344C394.126 174.691 393.842 174.088 394.026 173.438C393.81 173.274 393.736 173.017 393.647 172.761C393.402 172.045 393.139 171.338 392.882 170.625C392.87 170.592 392.861 170.556 392.843 170.524C392.687 170.198 392.344 169.96 392.246 169.662C392.134 169.313 391.998 169.008 391.8 168.704C391.537 168.301 391.33 167.863 391.073 167.451C390.6 166.705 390.015 166.043 389.53 165.312C389.137 164.716 388.611 164.268 388.124 163.776C388.061 163.713 388.002 163.639 387.931 163.591C387.08 163.03 386.333 162.326 385.461 161.795C385.124 161.59 384.79 161.384 384.406 161.27C383.817 161.097 383.309 160.751 382.765 160.489C382.325 160.277 381.867 160.17 381.403 160.038C380.909 159.898 380.419 159.716 379.916 159.615C379.154 159.46 378.388 159.245 377.596 159.4C377.466 159.424 377.345 159.412 377.233 159.346C376.84 159.114 376.408 159.126 375.98 159.138C375.196 159.161 374.413 159.224 373.63 159.209C372.909 159.194 372.276 159.505 371.597 159.642C371.393 159.684 371.207 159.821 370.976 159.74C370.902 159.713 370.799 159.746 370.716 159.779C369.88 160.098 369.028 160.405 368.304 160.942C367.586 161.473 366.862 162.001 366.233 162.646C366.017 162.866 365.81 163.084 365.739 163.403C365.712 163.52 365.63 163.63 365.55 163.725C365.059 164.298 364.852 164.987 364.634 165.7C364.344 166.637 364.057 167.6 363.392 168.37C363.224 168.567 363.106 168.782 363.097 169.05C363.091 169.181 363.044 169.298 362.928 169.372C362.834 169.435 362.769 169.524 362.748 169.632C362.639 170.204 362.32 170.67 361.992 171.132C361.932 171.216 361.915 171.332 361.885 171.436C361.737 171.955 361.536 172.451 361.335 172.955C360.984 173.835 360.934 174.771 361.247 175.693C361.359 176.024 361.427 176.349 361.262 176.683ZM393.485 177.119C393.52 176.982 393.482 176.847 393.63 176.785C393.698 176.973 393.698 176.973 393.485 177.119ZM392.882 171.8C393.609 173.161 393.851 175.556 393.352 176.433C393.171 176.09 393.192 175.729 393.186 175.374C393.177 174.891 393.29 174.387 393.142 173.927C392.973 173.408 392.891 172.883 392.808 172.352C392.781 172.176 392.704 172 392.882 171.8ZM392.669 171.344C392.554 171.275 392.521 171.198 392.634 171.096C392.749 171.168 392.778 171.245 392.669 171.344ZM392.436 180.373C392.554 180.221 392.651 180.233 392.752 180.376C392.657 180.385 392.563 180.472 392.436 180.373ZM390.922 168.597C391.197 168.886 391.389 169.223 391.475 169.614C391.283 169.277 390.955 169.014 390.922 168.597ZM390.523 168.003C390.677 168.006 390.736 168.075 390.701 168.233C390.538 168.236 390.497 168.152 390.523 168.003ZM390.021 169.354C390.414 169.5 390.461 169.769 390.488 170.052C390.325 169.864 390.107 169.712 390.021 169.354ZM388.886 167.905C389.037 167.806 389.137 167.824 389.188 167.899C389.421 168.26 389.64 168.632 389.864 168.999C389.829 169.02 389.793 169.044 389.758 169.065C389.471 168.689 389.188 168.307 388.886 167.905ZM388.682 165.104C389.122 165.312 389.176 165.378 389.211 165.733C388.945 165.587 388.803 165.354 388.682 165.104ZM387.518 166.264C387.893 166.336 388.325 166.786 388.425 167.263C387.881 166.923 387.595 166.598 387.518 166.264ZM386.409 165.372C386.681 165.33 386.761 165.429 386.767 165.649C386.569 165.661 386.474 165.581 386.409 165.372ZM385.561 163.845C385.603 163.812 385.65 163.758 385.712 163.725C385.771 163.693 385.842 163.678 386.025 163.612C385.922 163.952 386.099 164.06 386.285 164.182C386.575 164.373 386.897 164.537 387.054 164.91C386.442 164.737 385.558 164.113 385.561 163.845ZM384.958 162.288C385.405 162.261 385.399 162.273 385.671 162.44C386.061 162.678 386.341 163.087 386.826 163.183C386.9 163.197 386.953 163.305 387.018 163.364C387.19 163.523 387.364 163.675 387.535 163.833C387.946 164.221 388.455 164.519 388.667 165.086C388.268 164.886 387.931 164.602 387.606 164.295C387.128 163.842 386.664 163.373 386.052 163.075C385.673 162.89 385.354 162.58 384.958 162.288ZM384.225 161.703C384.412 161.742 384.601 161.769 384.722 162.007C384.459 161.995 384.323 161.876 384.225 161.703ZM382.863 161.575C383.099 161.87 383.407 162.013 383.682 162.204C383.936 162.383 384.033 162.541 383.924 162.798C383.865 162.935 383.809 163.141 383.596 163.066C383.401 162.998 383.513 162.831 383.531 162.696C383.537 162.649 383.51 162.598 383.489 162.526C383.232 162.565 383.064 162.389 382.866 162.282C382.42 162.037 382.42 161.992 382.863 161.575ZM381.601 161.303C381.758 161.479 381.982 161.557 382.201 161.715C381.755 161.76 381.639 161.685 381.601 161.303ZM381.234 160.355C381.353 160.343 381.394 160.411 381.388 160.513C381.388 160.531 381.329 160.566 381.311 160.56C381.22 160.522 381.169 160.459 381.234 160.355ZM380.575 160.927C380.578 160.907 380.623 160.874 380.643 160.877C380.697 160.88 380.732 160.915 380.729 160.975C380.705 160.993 380.679 161.029 380.655 161.026C380.602 161.023 380.564 160.984 380.575 160.927ZM377.283 160.429C377.942 160.48 378.521 160.656 379.112 160.754C379.517 160.82 379.928 160.987 380.233 161.315C380.327 161.42 380.377 161.536 380.256 161.643C380.147 161.739 380.011 161.736 379.937 161.599C379.798 161.351 379.565 161.226 379.319 161.22C378.719 161.205 378.214 160.805 377.602 160.835C377.407 160.847 377.233 160.719 377.283 160.429ZM365.872 164.495C366.049 164.122 366.236 163.869 366.442 163.615C367.137 162.771 368.08 162.234 368.887 161.536C368.94 161.491 369.008 161.458 369.076 161.44C369.469 161.336 369.818 161.106 370.225 161.044C370.621 160.981 370.976 160.823 371.295 160.581C371.363 160.531 371.455 160.489 371.538 160.48C372.105 160.414 372.658 160.295 373.202 160.113C373.349 160.062 373.521 160.083 373.565 160.337C373.21 160.474 372.853 160.59 372.501 160.686C371.934 160.841 371.523 161.264 370.979 161.476C370.358 161.721 369.744 162.013 369.138 162.317C368.015 162.887 366.921 163.481 366.049 164.42C366.035 164.441 365.993 164.447 365.872 164.495ZM364.025 171.242C363.975 171.126 363.957 171.037 364.122 170.923C364.14 171.072 364.193 171.171 364.025 171.242ZM362.527 178.816C362.908 179.004 362.996 179.413 363.23 179.714C363.481 180.039 363.7 180.394 363.951 180.719C364.193 181.03 364.465 181.316 364.714 181.623C364.959 181.927 365.34 182.124 365.42 182.554C364.173 181.531 363.212 180.284 362.527 178.816Z" fill="white"/>
<path d="M480.789 312.917C480.805 313.107 480.836 313.294 480.814 313.488C480.777 313.789 480.843 314.08 481.034 314.317C481.223 314.547 481.282 314.799 481.276 315.075C481.27 315.333 481.339 315.572 481.461 315.803C481.87 316.573 482.234 317.362 482.728 318.099C483.032 318.554 483.463 318.931 483.695 319.389C484.091 320.165 484.798 320.654 485.292 321.329C485.744 321.949 486.454 322.324 487.013 322.852C487.155 322.987 487.324 323.094 487.459 323.236C488.361 324.178 489.429 324.909 490.542 325.587C491.798 326.358 493.124 326.96 494.579 327.273C495.343 327.439 496.119 327.445 496.895 327.356C498.484 327.172 499.949 326.622 501.29 325.79C501.903 325.409 502.569 325.161 503.222 324.891C504.319 324.436 505.189 323.733 505.893 322.815C506.5 322.023 507.093 321.222 507.706 320.433C508.554 319.346 509.013 318.084 509.139 316.715C509.192 316.134 509.271 315.557 509.268 314.971C509.264 314.581 509.374 314.2 509.497 313.829C509.836 312.782 510.015 311.71 509.984 310.608C509.924 308.646 509.522 306.767 508.667 304.971C507.288 302.076 505.161 299.844 502.418 298.17C500.712 297.13 498.824 296.519 496.835 296.205C495.418 295.984 494.023 296.107 492.631 296.393C491.632 296.598 490.652 296.872 489.762 297.363C488.65 297.977 487.595 298.674 486.919 299.782C486.68 300.172 486.303 300.442 486.008 300.783C485.621 301.225 485.235 301.674 484.933 302.177C484.572 302.785 483.991 303.233 483.661 303.863C483.626 303.93 483.576 304.001 483.516 304.047C482.681 304.658 482.37 305.622 481.848 306.442C481.615 306.81 481.578 307.292 481.414 307.71C481.009 308.75 480.984 309.874 480.748 310.952C480.61 311.578 480.736 312.263 480.789 312.917ZM506.958 318.446C506.889 318.965 506.836 319.435 506.613 319.886C506.154 319.41 506.217 319.137 506.958 318.446ZM504.787 301.91C504.815 301.882 504.844 301.855 504.875 301.83C505.24 302.156 505.62 302.469 505.758 302.975C505.431 302.619 505.108 302.266 504.787 301.91ZM501.636 322.72C501.73 322.619 501.827 322.539 501.972 322.631C501.988 322.732 501.928 322.781 501.853 322.806C501.765 322.827 501.661 322.867 501.636 322.72ZM492.895 298.035C493.812 297.655 496.244 297.891 498.5 298.671C500.766 299.454 502.729 300.734 504.354 302.487C503.241 301.698 502.223 300.777 500.995 300.145C499.741 299.497 498.422 299.021 497.061 298.652C495.729 298.29 494.362 298.14 492.895 298.035ZM487.214 307.013C487.661 306.85 488.129 306.755 488.597 306.675C488.77 306.644 488.971 306.583 489.087 306.761C489.216 306.954 489.081 307.129 488.974 307.292C488.933 307.356 488.876 307.424 488.81 307.458C488.323 307.725 488.122 308.185 487.94 308.661C487.83 308.947 487.733 309.245 487.466 309.42C487.183 309.367 487.167 309.153 487.126 308.971C487.026 308.517 486.932 308.063 486.85 307.605C486.778 307.212 486.815 307.157 487.214 307.013Z" fill="white"/>
<path d="M113.104 209.825C113.119 210.015 113.151 210.202 113.129 210.396C113.091 210.697 113.157 210.988 113.349 211.225C113.537 211.455 113.597 211.707 113.591 211.983C113.584 212.241 113.653 212.481 113.776 212.711C114.184 213.481 114.549 214.27 115.042 215.007C115.347 215.462 115.777 215.839 116.01 216.297C116.406 217.074 117.113 217.562 117.606 218.237C118.058 218.857 118.768 219.232 119.328 219.76C119.469 219.895 119.639 220.003 119.774 220.144C120.676 221.086 121.744 221.817 122.856 222.496C124.113 223.266 125.439 223.868 126.893 224.181C127.657 224.347 128.433 224.353 129.209 224.264C130.799 224.08 132.263 223.53 133.605 222.698C134.217 222.318 134.883 222.069 135.537 221.799C136.633 221.344 137.504 220.641 138.208 219.723C138.814 218.931 139.408 218.13 140.02 217.341C140.869 216.254 141.328 214.992 141.453 213.623C141.507 213.042 141.585 212.465 141.582 211.879C141.579 211.489 141.689 211.108 141.811 210.737C142.151 209.69 142.33 208.618 142.298 207.516C142.239 205.554 141.837 203.675 140.982 201.879C139.603 198.984 137.476 196.752 134.733 195.078C133.027 194.038 131.138 193.427 129.149 193.114C127.732 192.892 126.337 193.015 124.946 193.301C123.946 193.507 122.966 193.78 122.077 194.271C120.965 194.885 119.909 195.582 119.233 196.69C118.995 197.08 118.618 197.35 118.322 197.691C117.936 198.133 117.549 198.582 117.248 199.085C116.886 199.693 116.305 200.141 115.975 200.771C115.941 200.838 115.89 200.909 115.831 200.955C114.995 201.566 114.684 202.53 114.162 203.35C113.93 203.718 113.892 204.2 113.729 204.618C113.324 205.658 113.298 206.782 113.063 207.86C112.924 208.486 113.05 209.171 113.104 209.825ZM139.273 215.354C139.204 215.873 139.15 216.343 138.927 216.794C138.468 216.318 138.531 216.045 139.273 215.354ZM137.102 198.818C137.13 198.79 137.158 198.763 137.19 198.738C137.554 199.064 137.934 199.377 138.072 199.883C137.746 199.527 137.422 199.174 137.102 198.818ZM133.95 219.628C134.045 219.527 134.142 219.447 134.286 219.539C134.302 219.64 134.242 219.689 134.167 219.714C134.079 219.735 133.975 219.775 133.95 219.628ZM125.209 194.943C126.127 194.563 128.559 194.799 130.815 195.579C133.08 196.362 135.044 197.642 136.668 199.395C135.556 198.606 134.538 197.685 133.309 197.053C132.056 196.405 130.736 195.929 129.376 195.56C128.043 195.198 126.677 195.048 125.209 194.943ZM119.529 203.921C119.975 203.758 120.443 203.663 120.911 203.583C121.084 203.552 121.285 203.491 121.401 203.669C121.53 203.862 121.395 204.037 121.288 204.2C121.247 204.265 121.191 204.332 121.125 204.366C120.638 204.633 120.437 205.094 120.255 205.569C120.145 205.855 120.047 206.153 119.78 206.328C119.497 206.276 119.482 206.061 119.441 205.88C119.34 205.425 119.246 204.971 119.164 204.513C119.092 204.12 119.13 204.065 119.529 203.921Z" fill="white"/>
<path d="M672.946 237.133C673.096 237.752 673.342 238.342 673.46 238.97C673.47 239.015 673.476 239.066 673.505 239.098C673.914 239.531 674.147 240.082 674.469 240.573C674.913 241.252 675.507 241.791 676.025 242.4C676.564 243.034 677.216 243.554 677.915 244.009C678.337 244.284 678.659 244.682 679.087 244.932C679.764 245.326 680.297 245.932 681.029 246.246C681.147 246.297 681.236 246.416 681.345 246.499C681.674 246.759 681.984 247.051 682.376 247.224C682.501 247.282 682.613 247.374 682.664 247.503C682.801 247.858 683.111 247.948 683.427 247.967C683.609 247.977 683.756 248.025 683.884 248.121C684.194 248.359 684.506 248.586 684.899 248.669C684.95 248.682 685.005 248.734 685.04 248.778C685.225 249.022 685.484 249.08 685.765 249.07C686.014 249.061 686.244 249.109 686.448 249.262C686.585 249.365 686.732 249.432 686.911 249.407C686.956 249.4 687.017 249.397 687.042 249.423C687.361 249.718 687.748 249.615 688.118 249.615C688.147 249.615 688.182 249.609 688.208 249.618C688.62 249.798 689.06 249.839 689.498 249.91C689.69 249.942 689.868 250.006 690.066 249.977C690.354 249.936 690.635 250.035 690.922 250.045C691.494 250.064 692.069 250.054 692.64 250.016C693.33 249.974 694.017 249.913 694.716 249.961C695.54 250.016 696.377 250 697.204 249.952C697.938 249.91 698.606 249.589 699.238 249.234C699.867 248.878 700.512 248.541 701.103 248.118C701.448 247.871 701.735 247.56 701.997 247.233C702.387 246.749 702.751 246.249 703.195 245.813C703.993 245.028 704.542 244.073 704.954 243.038C705.379 241.967 705.778 240.89 705.941 239.736C706.04 239.031 706.114 238.332 706.015 237.614C705.89 236.732 705.788 235.848 705.558 234.985C705.453 234.588 705.331 234.2 705.133 233.841C705.044 233.681 705.021 233.488 704.929 233.338C704.603 232.787 704.399 232.165 703.977 231.668C703.782 231.437 703.604 231.193 703.425 230.947C702.818 230.113 702.157 229.318 701.397 228.635C700.886 228.177 700.33 227.754 699.781 227.328C698.51 226.34 697.092 225.603 695.716 224.786C695.147 224.449 694.604 224.064 694.004 223.779C693.129 223.366 692.267 222.911 691.344 222.635C690.718 222.446 690.089 222.244 689.428 222.154C688.562 222.035 687.697 221.942 686.831 221.84C686.301 221.776 685.777 221.741 685.257 221.769C684.174 221.834 683.085 221.949 682.146 222.552C681.703 222.837 681.236 222.994 680.735 223.122C679.611 223.414 678.519 223.818 677.446 224.257C676.765 224.532 676.127 224.933 675.558 225.398C675.012 225.847 674.568 226.398 674.326 227.1C674.137 227.642 673.926 228.167 673.843 228.744C673.799 229.055 673.687 229.395 673.53 229.684C673.419 229.886 673.4 230.036 673.591 230.245C673.278 230.386 673.179 230.588 673.163 230.85C673.15 231.062 673.096 231.27 673.087 231.482C673.045 232.492 673.045 233.508 672.815 234.501C672.611 235.402 672.735 236.274 672.946 237.133ZM704.313 233.415C704.14 233.28 704.089 233.139 704.086 232.976C704.226 233.072 704.351 233.174 704.313 233.415ZM703.939 236.559C703.974 236.556 704.009 236.55 704.044 236.546C704.07 236.582 704.111 236.611 704.124 236.652C704.546 237.886 704.693 239.156 704.616 240.454C704.603 240.701 704.507 240.928 704.328 241.124C704.245 239.592 704.376 238.053 703.939 236.559ZM701.314 230.491C702.681 231.963 703.865 233.546 704.396 235.543C703.92 234.652 703.24 233.902 702.713 233.049C702.495 232.7 702.198 232.415 701.991 232.068C701.713 231.604 701.483 231.113 701.234 230.629C701.215 230.591 701.231 230.543 701.314 230.491ZM700.452 243.441C700.538 243.345 700.605 243.316 700.675 243.416C700.618 243.489 700.554 243.509 700.452 243.441ZM699.296 228.809C699.832 229.136 700.452 229.998 700.519 230.517C700.11 229.946 699.704 229.376 699.296 228.809ZM698.232 226.808C698.417 226.738 698.494 226.837 698.571 226.892C699.436 227.498 700.241 228.174 701.049 228.85C701.295 229.055 701.521 229.273 701.713 229.527C702.208 230.193 702.792 230.79 703.265 231.472C703.588 231.94 703.942 232.392 704.076 232.963C703.99 232.931 703.92 232.886 703.875 232.803C703.332 231.777 702.604 230.895 701.793 230.078C701.56 229.844 701.33 229.6 701.109 229.357C700.602 228.796 700.059 228.276 699.42 227.866C698.973 227.581 698.66 227.161 698.232 226.808ZM690.833 224.815C693.336 225.263 695.578 226.055 697.344 227.876C697.038 227.671 696.616 227.626 696.377 227.34C696.096 227.007 695.696 226.908 695.352 226.731C694.914 226.51 694.441 226.331 693.988 226.132C693.107 225.747 692.225 225.366 691.302 225.087C691.159 225.042 691.002 225 690.833 224.815ZM689.677 224.238C689.811 224.193 689.935 224.058 690.086 224.173C690.293 224.337 690.536 224.321 690.775 224.327C690.932 224.331 691.104 224.321 691.206 224.504C690.9 224.6 689.948 224.427 689.677 224.238ZM688.767 224.081C688.987 224.042 689.207 224.052 689.424 224.064C689.539 224.071 689.616 224.132 689.664 224.234C689.345 224.311 689.048 224.27 688.767 224.081ZM678.905 234.014C678.918 233.876 679.01 233.799 679.151 233.819C679.285 233.838 679.307 233.944 679.285 234.056C679.237 234.296 679.199 234.543 679.065 234.86C678.931 234.53 678.88 234.277 678.905 234.014ZM674.795 234.566C674.958 234.857 675.127 235.143 675.156 235.479C674.974 235.197 674.754 234.931 674.795 234.566ZM675.169 231.485C675.348 231.947 675.201 232.395 675.181 232.944C674.894 232.536 674.814 232.165 674.821 231.777C674.827 231.61 674.939 231.475 675.169 231.485ZM675.309 229.398C675.312 229.466 675.277 229.517 675.21 229.527C675.159 229.536 675.124 229.501 675.124 229.45C675.121 229.382 675.156 229.337 675.223 229.321C675.274 229.318 675.306 229.347 675.309 229.398ZM675.402 226.85C675.951 226.103 676.564 225.552 677.481 225.215C677.404 225.59 677.184 225.706 677.002 225.85C676.734 226.061 676.43 226.212 676.181 226.469C676.012 226.648 675.747 226.792 675.402 226.85ZM675.137 240.303C675.453 240.419 675.533 240.617 675.526 240.964C675.309 240.755 675.162 240.598 675.137 240.303ZM675.134 237.909C674.948 237.774 674.872 237.601 674.833 237.319C675.213 237.569 675.22 237.582 675.134 237.909ZM674.744 238.306C674.936 238.47 675.041 238.598 675.073 238.787C674.869 238.729 674.782 238.585 674.744 238.306ZM674.536 238.842C674.757 238.87 674.811 238.96 674.706 239.162C674.53 239.111 674.485 239.015 674.536 238.842ZM674.211 234.178C674.294 234.412 674.367 234.649 674.463 234.876C674.658 235.351 674.888 235.806 675.143 236.248C675.287 236.495 675.322 236.761 675.172 237.063C674.415 236.22 674.102 235.274 674.211 234.178ZM674.083 236.066C674.195 236.236 674.275 236.383 674.294 236.566C674.057 236.37 674.057 236.37 674.083 236.066Z" fill="white"/>
<path d="M513.507 56.0382C513.808 56.7201 514.218 57.3282 514.652 57.9364C515.669 59.366 517.005 60.3928 518.432 61.3301C519.415 61.9778 520.508 62.3727 521.615 62.7413C522.962 63.1889 524.345 63.3784 526.356 63.4074C527.406 63.4153 528.935 62.9598 530.38 62.1831C530.515 62.1094 530.655 62.0331 530.769 61.9304C531.332 61.417 532.012 61.0721 532.606 60.6008C532.891 60.3744 533.169 60.1585 533.392 59.861C533.623 59.553 533.947 59.3476 534.259 59.1343C534.941 58.6631 535.525 58.0786 536.07 57.4572C536.267 57.2335 536.485 57.0413 536.737 56.8912C537.901 56.1935 538.472 55.1035 538.703 53.8003C538.76 53.4843 538.872 53.221 539.035 52.9446C539.354 52.4075 539.497 51.7914 539.609 51.1753C539.632 51.0516 539.585 50.9358 539.526 50.8278C539.258 50.346 539.274 49.8194 539.347 49.3034C539.619 47.3393 539.365 45.4648 538.522 43.6692C537.383 41.2365 535.782 39.1723 533.688 37.5374C532.686 36.7554 531.576 36.0867 530.354 35.7154C528.364 35.1099 526.343 34.894 524.275 35.3942C522.682 35.7786 521.143 36.2841 519.734 37.1398C519.145 37.4979 518.585 37.9086 518.076 38.3693C517.026 39.3224 516.053 40.3518 515.539 41.7288C515.326 42.3001 515.02 42.824 514.729 43.3532C514.33 44.0825 514.016 44.8592 513.609 45.5753C513.217 46.2651 513.007 46.9786 512.817 47.7343C512.568 48.7347 512.389 49.722 512.342 50.7594C512.262 52.6418 512.765 54.361 513.507 56.0382ZM537.689 53.4949C537.829 53.042 537.946 52.6629 538.062 52.2838C538.358 52.834 538.278 53.0683 537.689 53.4949ZM537.001 55.322C537.009 55.1772 537.079 55.1167 537.261 55.1272C537.196 55.2641 537.146 55.3484 537.001 55.322ZM527.004 36.6554C527.793 36.6606 528.595 36.7106 529.337 37.0819C528.561 36.9397 527.783 36.7975 527.004 36.6554ZM522.23 62.3753C522.466 62.3674 522.581 62.3885 522.697 62.4938C522.539 62.5544 522.438 62.4991 522.23 62.3753ZM515.095 57.5599C515.292 57.5152 515.331 57.6336 515.383 57.7126C516.211 58.9422 517.365 59.8031 518.567 60.6114C519.441 61.1985 520.386 61.6355 521.359 62.0199C521.501 62.0752 521.667 62.1173 521.792 62.299C521.442 62.2806 521.19 62.1173 520.923 62.0173C518.87 61.2643 517.124 60.0479 515.656 58.4156C515.43 58.1628 515.241 57.8864 515.095 57.5599Z" fill="white"/>
</svg>
